<svg version="1.1"
 xmlns="http://www.w3.org/2000/svg" xmlns:xlink="http://www.w3.org/1999/xlink" xmlns:a="http://ns.adobe.com/AdobeSVGViewerExtensions/3.0/"
 x="0px" y="0px" width="152.8px" height="176.3px" viewBox="0 0 152.8 176.3" style="enable-background:new 0 0 152.8 176.3;"
 xml:space="preserve">
<style type="text/css">
.st-guy-0 {fill:none;stroke:#DA6346;stroke-width:4;stroke-linecap:round;stroke-linejoin:round;stroke-miterlimit:10;}
.st-guy-1 {fill:none;stroke:#DA6346;stroke-width:4;stroke-miterlimit:10;}
</style>
<defs>
</defs>
<path class="st-guy-0" d="M2,174.3c0,0,4.5-2.8,7.6-2.8s8.4-5.6,12.9-8.1c4.5-2.5,7.3-1.7,8.4-8.7s4.5-11.2,6.2-11.8s0-8.7,0-8.7
s-6.4-10.4-6.2-22.1c0,0-3.4,1.7-5.9-2c-2.5-3.6-6-19.9-5.1-25.2c0.9-5.3,3.4-4.2,4.8-3.1c1.4,1.1-3.4-20.1-3.4-20.1
S18.7,49,19.9,42.5C21,36.1,28.6,24.8,32.8,21c4.6-4.2,17-12.3,24.5-14.6C66.2,3.6,83.4-0.1,92,3.5c0,0-7.5,2.2-5.8,6.1
c0,0,7.7,0.6,12.3,3.9c4.6,3.4,9.8,7.6,12.9,16.5s5,16.5,4.8,24.9s-2.8,19.7-2.8,19.7s1.2-1,2.8-1.5c1.7-0.6,3.6,9.5,1.4,21
s-2.5,12-7.3,12.3c0,0-2.8,23.5-6.4,30.5c0,0,3.4-0.6,5.3,2.2s7,9,7,14c0,5,3.4,3.6,7.8,4.2c4.5,0.6,12.6,3.1,16.5,6.2
s10.3,9.7,10.3,9.7"/>
<circle class="st-guy-1" cx="83.6" cy="85.7" r="3.6"/>
<circle class="st-guy-1" cx="55.6" cy="85.7" r="3.6"/>
<path class="st-guy-0" d="M86.1,118.1c0,6-4.9,10.8-10.8,10.8"/>
</svg>
