<svg version="1.1"
    xmlns="http://www.w3.org/2000/svg"
    xmlns:xlink="http://www.w3.org/1999/xlink"
    xmlns:a="http://ns.adobe.com/AdobeSVGViewerExtensions/3.0/"
     x="0px" y="0px" width="49px" height="35.8px" viewBox="0 0 49 35.8" style="enable-background:new 0 0 49 35.8;"
     xml:space="preserve">
    <style type="text/css">
    .st-quote-0{fill:#9FA4B7;}
</style>
    <defs></defs>
    <path class="st-quote-0" d="M0.7,35.8v-3.6c8.8-1.7,13.3-6.7,13.3-14.8c0-2.9-0.8-4.3-2.5-4.3c-0.4,0-0.8,0.1-1.4,0.2c-1,0.3-2,0.5-2.7,0.5
    c-2.2,0-4-0.7-5.3-2.1c-1.3-1.4-2-3-2-4.8s0.7-3.4,2-4.8C3.4,0.7,5.1,0,7.2,0c2.9,0,5.5,1.4,7.6,4.1c2.2,2.7,3.2,6.4,3.2,11
    c0,5.3-1.5,9.8-4.5,13.5C10.5,32.3,6.2,34.7,0.7,35.8z M31.7,35.8v-3.6c8.8-1.7,13.3-6.7,13.3-14.8c0-2.9-0.9-4.3-2.6-4.3
    c-0.3,0-0.8,0.1-1.4,0.2c-1,0.3-2,0.5-2.7,0.5c-2.2,0-4-0.7-5.3-2.1c-1.3-1.4-2-3-2-4.8c0-1.7,0.6-3.2,1.9-4.7S35.9,0,38.1,0
    c2.9,0,5.5,1.4,7.6,4.1c2.2,2.7,3.2,6.4,3.2,11c0,5.3-1.5,9.8-4.5,13.5C41.4,32.3,37.2,34.7,31.7,35.8z"/>
</svg>
