<?xml version="1.0" encoding="utf-8"?>
<svg version="1.1" id="Warstwa_1" xmlns="http://www.w3.org/2000/svg" xmlns:xlink="http://www.w3.org/1999/xlink" x="0px" y="0px"
	 viewBox="0 0 1501.4 2466" style="enable-background:new 0 0 1501.4 2466;" xml:space="preserve">
<style type="text/css">
	.bcg-growth0{fill:#2B304B;}
	.bcg-growth1{fill:#181B28;}
	.bcg-growth2{fill:none;stroke:#181B28;stroke-width:4;stroke-linecap:round;stroke-miterlimit:10;}
	.bcg-growth3{fill:#1E2333;}
</style>
<title>Zasób 4</title>
<circle class="bcg-growth0" cx="1156.5" cy="1086.1" r="61.2"/>
<circle class="bcg-growth1" cx="1137.6" cy="1066.5" r="4.2"/>
<circle class="bcg-growth1" cx="1175.5" cy="1066.5" r="4.2"/>
<path class="bcg-growth2" d="M1130.5,1113L1130.5,1113c16,9.1,35.7,9.2,51.7,0.2l0.3-0.2"/>
<path class="bcg-growth0" d="M1360.9,1339c-41.4,0-75,33.6-75,75s33.6,75,75,75s75-33.6,75-75l0,0C1435.9,1372.5,1402.4,1339,1360.9,1339z
	 M1384.2,1384.8c2.8,0,5.1,2.3,5.1,5.1s-2.3,5.1-5.1,5.1s-5.1-2.3-5.1-5.1l0,0C1379,1387.1,1381.3,1384.8,1384.2,1384.8
	L1384.2,1384.8L1384.2,1384.8z M1337.7,1384.8c2.8,0,5.1,2.3,5.1,5.1s-2.3,5.1-5.1,5.1s-5.1-2.3-5.1-5.1l0,0
	C1332.6,1387.1,1334.9,1384.8,1337.7,1384.8C1337.8,1384.8,1337.8,1384.8,1337.7,1384.8L1337.7,1384.8z M1394,1449.1l-0.3,0.2
	c-20.5,11.5-45.5,11.4-65.9-0.2l0,0c-1.2-0.7-1.5-2.2-0.9-3.4c0.6-1.1,1.9-1.5,3.1-1l0.1,0.1l0.1,0.1c18.9,10.7,42.1,10.8,61.1,0.2
	l0.3-0.2c1.2-0.7,2.7-0.2,3.3,0.9C1395.7,1446.9,1395.2,1448.4,1394,1449.1L1394,1449.1z"/>
<circle class="bcg-growth1" cx="1337.8" cy="1389.9" r="5.1"/>
<circle class="bcg-growth1" cx="1384.2" cy="1389.9" r="5.1"/>
<path class="bcg-growth1" d="M1391.7,1444.8l-0.3,0.2c-19,10.6-42.2,10.6-61.1-0.2l-0.1-0.1l-0.1-0.1c-1.2-0.5-2.7,0.1-3.2,1.3
	c-0.5,1.1,0,2.4,1,3.1l0,0c20.4,11.6,45.4,11.7,65.9,0.2l0.3-0.2c1.2-0.7,1.6-2.2,0.9-3.3
	C1394.4,1444.6,1392.9,1444.1,1391.7,1444.8L1391.7,1444.8L1391.7,1444.8z"/>
<path class="bcg-growth0" d="M316.9,1601c-41.4,0-75,33.6-75,75s33.6,75,75,75c41.4,0,75-33.6,75-75S358.4,1601,316.9,1601L316.9,1601z
	 M340.2,1646.8c2.8,0,5.1,2.3,5.1,5.1s-2.3,5.1-5.1,5.1c-2.8,0-5.1-2.3-5.1-5.1l0,0C335,1649.1,337.3,1646.8,340.2,1646.8
	L340.2,1646.8L340.2,1646.8z M293.7,1646.8c2.8,0,5.1,2.3,5.1,5.1s-2.3,5.1-5.1,5.1c-2.8,0-5.1-2.3-5.1-5.1l0,0
	C288.6,1649.1,290.9,1646.8,293.7,1646.8C293.8,1646.8,293.8,1646.8,293.7,1646.8L293.7,1646.8z M350,1711.1l-0.3,0.2
	c-20.5,11.5-45.5,11.4-65.9-0.2l0,0c-1.2-0.7-1.5-2.2-0.9-3.4c0.6-1.1,1.9-1.5,3.1-1l0.1,0.1l0.1,0.1c18.9,10.7,42.1,10.8,61.1,0.2
	l0.3-0.2c1.2-0.7,2.7-0.2,3.3,0.9C351.7,1708.9,351.2,1710.4,350,1711.1L350,1711.1z"/>
<circle class="bcg-growth1" cx="293.8" cy="1651.9" r="5.1"/>
<circle class="bcg-growth1" cx="340.2" cy="1651.9" r="5.1"/>
<path class="bcg-growth1" d="M347.7,1706.8l-0.3,0.2c-19,10.6-42.2,10.6-61.1-0.2l-0.1-0.1l-0.1-0.1c-1.2-0.5-2.7,0.1-3.2,1.3
	c-0.5,1.1,0,2.4,1,3.1l0,0c20.4,11.6,45.4,11.7,65.9,0.2l0.3-0.2c1.2-0.7,1.6-2.2,0.9-3.3C350.4,1706.6,348.9,1706.1,347.7,1706.8
	L347.7,1706.8z"/>
<path class="bcg-growth3" d="M1066.3,1801.9c-29.6,0-53.6,24-53.6,53.6s24,53.6,53.6,53.6s53.6-24,53.6-53.6l0,0
	C1119.9,1825.9,1095.9,1801.9,1066.3,1801.9z M1082.9,1834.6c2,0,3.7,1.6,3.7,3.7c0,2-1.6,3.7-3.7,3.7c-2,0-3.7-1.6-3.7-3.7
	C1079.2,1836.3,1080.8,1834.6,1082.9,1834.6C1082.8,1834.6,1082.8,1834.6,1082.9,1834.6L1082.9,1834.6z M1049.7,1834.6
	c2,0,3.7,1.6,3.7,3.7c0,2-1.6,3.7-3.7,3.7c-2,0-3.7-1.6-3.7-3.7C1046,1836.3,1047.6,1834.6,1049.7,1834.6L1049.7,1834.6
	L1049.7,1834.6z M1089.9,1880.6l-0.2,0.1c-14.6,8.2-32.4,8.1-47-0.1l0,0c-0.8-0.5-1.1-1.6-0.6-2.4c0.4-0.7,1.4-1,2.1-0.7h0.1h0.1
	c13.5,7.7,30.1,7.7,43.6,0.1l0.2-0.1c0.8-0.5,1.9-0.2,2.4,0.7S1090.8,1880.1,1089.9,1880.6L1089.9,1880.6z"/>
<circle class="bcg-growth1" cx="1049.7" cy="1838.3" r="3.7"/>
<circle class="bcg-growth1" cx="1082.9" cy="1838.3" r="3.7"/>
<path class="bcg-growth1" d="M1088.2,1877.5l-0.2,0.1c-13.6,7.6-30.1,7.6-43.6-0.1h-0.1h-0.1c-0.9-0.2-1.9,0.3-2.1,1.3
	c-0.2,0.7,0.1,1.4,0.6,1.8l0,0c14.6,8.3,32.4,8.3,47.1,0.1l0.2-0.1c0.8-0.5,1.1-1.5,0.7-2.4
	C1090.3,1877.3,1089.1,1877.1,1088.2,1877.5L1088.2,1877.5z"/>
<path class="bcg-growth3" d="M1033.7,789.6c-49.6,0-89.8,40.2-89.8,89.8s40.2,89.8,89.8,89.8c49.6,0,89.8-40.2,89.8-89.8
	S1083.3,789.6,1033.7,789.6L1033.7,789.6z M1061.5,844.5c3.4,0,6.1,2.7,6.1,6.1s-2.7,6.1-6.1,6.1c-3.4,0-6.1-2.7-6.1-6.1l0,0
	C1055.4,847.1,1058.1,844.5,1061.5,844.5L1061.5,844.5z M1006,844.5c3.4,0,6.1,2.7,6.1,6.1s-2.7,6.1-6.1,6.1c-3.4,0-6.1-2.7-6.1-6.1
	l0,0C999.9,847.1,1002.6,844.5,1006,844.5L1006,844.5z M1073.3,921.5l-0.4,0.2c-24.5,13.7-54.4,13.7-78.8-0.2l0,0
	c-1.4-0.8-1.9-2.6-1.1-4c0.7-1.3,2.3-1.8,3.7-1.2l0.1,0.1l0.1,0.1c22.6,12.9,50.4,12.9,73.1,0.2l0.4-0.2c1.5-0.7,3.2-0.1,3.9,1.4
	C1075,919,1074.6,920.6,1073.3,921.5L1073.3,921.5z"/>
<circle class="bcg-growth1" cx="1006" cy="850.5" r="6.1"/>
<circle class="bcg-growth1" cx="1061.5" cy="850.5" r="6.1"/>
<path class="bcg-growth1" d="M1070.5,916.2l-0.4,0.2c-22.7,12.7-50.4,12.6-73.1-0.2l-0.1-0.1l-0.1-0.1c-1.5-0.6-3.2,0.1-3.8,1.5
	s-0.1,2.9,1.2,3.7l0,0c24.4,13.9,54.3,14,78.9,0.2l0.4-0.2c1.4-0.9,1.8-2.7,0.9-4.1C1073.5,916,1071.8,915.5,1070.5,916.2
	L1070.5,916.2z"/>
<path class="bcg-growth3" d="M1326.8,898.6c-20.6,0-37.4,16.7-37.4,37.4s16.7,37.4,37.4,37.4c20.6,0,37.4-16.7,37.4-37.4l0,0
	C1364.2,915.3,1347.5,898.6,1326.8,898.6z M1338.4,921.5c1.4,0,2.5,1.1,2.5,2.6s-1.1,2.5-2.6,2.5c-1.4,0-2.5-1.1-2.5-2.5
	C1335.9,922.5,1337,921.5,1338.4,921.5L1338.4,921.5z M1315.3,921.5c1.4,0,2.5,1.1,2.5,2.6s-1.1,2.5-2.6,2.5c-1.4,0-2.5-1.1-2.5-2.5
	C1312.7,922.5,1313.9,921.5,1315.3,921.5L1315.3,921.5z M1343.3,953.5l-0.2,0.1c-10.2,5.7-22.6,5.7-32.8-0.1l0,0
	c-0.6-0.3-0.8-1.1-0.5-1.7c0.3-0.5,1-0.8,1.6-0.5h0.1h0.1c9.4,5.4,21,5.4,30.4,0.1l0.2-0.1c0.6-0.3,1.3-0.1,1.7,0.5
	C1344.1,952.3,1343.9,953,1343.3,953.5L1343.3,953.5z"/>
<path class="bcg-growth3" d="M1098.4,689.1c-20.6,0-37.4,16.7-37.4,37.4s16.7,37.4,37.4,37.4c20.6,0,37.4-16.7,37.4-37.4l0,0
	C1135.8,705.8,1119.1,689.1,1098.4,689.1z M1110,712c1.4,0,2.5,1.1,2.5,2.6s-1.1,2.5-2.6,2.5c-1.4,0-2.5-1.1-2.5-2.5
	C1107.5,713,1108.6,712,1110,712L1110,712z M1086.9,712c1.4,0,2.5,1.1,2.5,2.6s-1.1,2.5-2.6,2.5c-1.4,0-2.5-1.1-2.5-2.5
	C1084.3,713,1085.5,712,1086.9,712L1086.9,712z M1114.9,744l-0.2,0.1c-10.2,5.7-22.6,5.7-32.8-0.1l0,0c-0.6-0.3-0.8-1.1-0.5-1.7
	c0.3-0.5,1-0.8,1.6-0.5h0.1h0.1c9.4,5.4,21,5.4,30.4,0.1l0.2-0.1c0.6-0.3,1.3-0.1,1.7,0.5C1115.7,742.8,1115.5,743.5,1114.9,744
	L1114.9,744z"/>
<circle class="bcg-growth1" cx="1315.3" cy="924" r="2.6"/>
<circle class="bcg-growth1" cx="1338.4" cy="924" r="2.6"/>
<path class="bcg-growth1" d="M1342.1,951.3l-0.2,0.1c-9.5,5.3-21,5.3-30.4-0.1h-0.1h-0.1c-0.6-0.3-1.3,0-1.6,0.6c-0.3,0.6,0,1.3,0.5,1.6l0,0
	c10.2,5.8,22.6,5.8,32.8,0.1l0.2-0.1c0.6-0.3,0.8-1.1,0.5-1.7C1343.4,951.2,1342.7,951,1342.1,951.3L1342.1,951.3z"/>
<path class="bcg-growth3" d="M659.6,2356.4c-20.6,0-37.4,16.7-37.4,37.4c0,20.6,16.7,37.4,37.4,37.4c20.6,0,37.4-16.7,37.4-37.4
	S680.3,2356.4,659.6,2356.4L659.6,2356.4z M671.2,2379.2c1.4,0,2.5,1.1,2.5,2.6c0,1.4-1.1,2.6-2.5,2.6s-2.5-1.1-2.5-2.6
	C668.6,2380.3,669.8,2379.2,671.2,2379.2L671.2,2379.2z M648.1,2379.2c1.4,0,2.5,1.1,2.5,2.6c0,1.4-1.1,2.6-2.5,2.6
	s-2.5-1.1-2.5-2.6S646.7,2379.2,648.1,2379.2L648.1,2379.2z M676.1,2411.2l-0.2,0.1c-10.2,5.7-22.6,5.7-32.8-0.1l0,0
	c-0.6-0.3-0.8-1.1-0.5-1.7c0.3-0.5,1-0.8,1.6-0.5h0.1h0.1c9.4,5.4,21,5.4,30.4,0.1l0.2-0.1c0.6-0.3,1.3-0.1,1.7,0.5
	C676.9,2410.1,676.7,2410.8,676.1,2411.2L676.1,2411.2z"/>
<circle class="bcg-growth1" cx="648.1" cy="2381.7" r="2.6"/>
<circle class="bcg-growth1" cx="671.2" cy="2381.7" r="2.6"/>
<path class="bcg-growth1" d="M674.9,2409.1l-0.2,0.1c-9.5,5.3-21,5.3-30.4-0.1h-0.1h-0.1c-0.6-0.3-1.3,0-1.6,0.6s0,1.2,0.5,1.6l0,0
	c10.2,5.8,22.6,5.8,32.8,0.1l0.2-0.1c0.6-0.3,0.8-1.1,0.4-1.7C676.2,2409,675.5,2408.8,674.9,2409.1L674.9,2409.1z"/>
<path class="bcg-growth3" d="M501.8,2104.6c-20.6,0-37.4,16.7-37.4,37.4c0,20.6,16.7,37.4,37.4,37.4c20.6,0,37.4-16.7,37.4-37.4
	S522.5,2104.6,501.8,2104.6L501.8,2104.6z M513.4,2127.4c1.4,0,2.5,1.1,2.5,2.6c0,1.4-1.1,2.5-2.5,2.5c-1.4,0-2.5-1.1-2.5-2.5
	C510.9,2128.5,512,2127.4,513.4,2127.4L513.4,2127.4z M490.3,2127.4c1.4,0,2.6,1.1,2.6,2.6c0,1.4-1.1,2.5-2.5,2.5
	c-1.4,0-2.5-1.1-2.6-2.5C487.7,2128.5,488.9,2127.4,490.3,2127.4L490.3,2127.4L490.3,2127.4z M518.3,2159.4l-0.2,0.1
	c-10.2,5.7-22.6,5.7-32.8-0.1l0,0c-0.6-0.3-0.8-1.1-0.5-1.7c0.3-0.5,1-0.8,1.6-0.5h0.1h0.1c9.4,5.4,21,5.4,30.4,0.1l0.2-0.1
	c0.6-0.3,1.3-0.1,1.7,0.5C519.1,2158.3,518.9,2159,518.3,2159.4L518.3,2159.4z"/>
<circle class="bcg-growth1" cx="490.3" cy="2129.9" r="2.6"/>
<circle class="bcg-growth1" cx="513.4" cy="2129.9" r="2.6"/>
<path class="bcg-growth1" d="M517.1,2157.3l-0.2,0.1c-9.5,5.3-21,5.3-30.4-0.1h-0.1h-0.1c-0.6-0.3-1.3,0-1.6,0.6c-0.3,0.6,0,1.2,0.5,1.6l0,0
	c10.2,5.8,22.6,5.8,32.8,0.1l0.2-0.1c0.6-0.3,0.8-1.1,0.4-1.7C518.4,2157.2,517.7,2157,517.1,2157.3L517.1,2157.3z"/>
<path class="bcg-growth3" d="M1360.8,1764.6c-20.6,0-37.4,16.7-37.4,37.4s16.7,37.4,37.4,37.4c20.6,0,37.4-16.7,37.4-37.4l0,0
	C1398.2,1781.3,1381.5,1764.6,1360.8,1764.6z M1372.4,1787.4c1.4,0,2.5,1.1,2.5,2.6s-1.1,2.5-2.6,2.5c-1.4,0-2.5-1.1-2.5-2.5
	C1369.9,1788.5,1371,1787.4,1372.4,1787.4L1372.4,1787.4L1372.4,1787.4z M1349.3,1787.4c1.4,0,2.5,1.1,2.5,2.6s-1.1,2.5-2.6,2.5
	c-1.4,0-2.5-1.1-2.5-2.5C1346.7,1788.5,1347.9,1787.4,1349.3,1787.4L1349.3,1787.4L1349.3,1787.4z M1377.3,1819.4l-0.2,0.1
	c-10.2,5.7-22.6,5.7-32.8-0.1l0,0c-0.6-0.3-0.8-1.1-0.5-1.7c0.3-0.5,1-0.8,1.6-0.5h0.1h0.1c9.4,5.4,21,5.4,30.4,0.1l0.2-0.1
	c0.6-0.3,1.3-0.1,1.7,0.5C1378.1,1818.3,1377.9,1819,1377.3,1819.4L1377.3,1819.4z"/>
<circle class="bcg-growth1" cx="1349.3" cy="1789.9" r="2.6"/>
<circle class="bcg-growth1" cx="1372.4" cy="1789.9" r="2.6"/>
<path class="bcg-growth1" d="M1376.1,1817.3l-0.2,0.1c-9.5,5.3-21,5.3-30.4-0.1h-0.1h-0.1c-0.6-0.3-1.3,0-1.6,0.6c-0.3,0.6,0,1.3,0.5,1.6
	l0,0c10.2,5.8,22.6,5.8,32.8,0.1l0.2-0.1c0.6-0.3,0.8-1.1,0.5-1.7C1377.4,1817.2,1376.7,1817,1376.1,1817.3L1376.1,1817.3z"/>
<path class="bcg-growth3" d="M840.8,552.6c-20.6,0-37.4,16.7-37.4,37.4c0,20.6,16.7,37.4,37.4,37.4c20.6,0,37.4-16.7,37.4-37.4l0,0
	C878.2,569.3,861.5,552.6,840.8,552.6z M852.4,575.4c1.4,0,2.5,1.1,2.5,2.5s-1.1,2.6-2.5,2.6s-2.5-1.1-2.5-2.5l0,0
	C849.9,576.5,851,575.4,852.4,575.4z M829.3,575.4c1.4,0,2.5,1.1,2.5,2.5s-1.1,2.6-2.5,2.6s-2.5-1.1-2.5-2.5l0,0
	C826.7,576.5,827.9,575.4,829.3,575.4L829.3,575.4z M857.3,607.4l-0.2,0.1c-10.2,5.7-22.6,5.7-32.8-0.1l0,0
	c-0.6-0.3-0.8-1.1-0.5-1.7c0.3-0.5,1-0.8,1.6-0.5h0.1h0.1c9.4,5.4,21,5.4,30.4,0.1l0.2-0.1c0.6-0.3,1.3-0.1,1.7,0.5
	C858.1,606.3,857.9,607,857.3,607.4L857.3,607.4z"/>
<circle class="bcg-growth1" cx="829.3" cy="577.9" r="2.5"/>
<circle class="bcg-growth1" cx="852.4" cy="577.9" r="2.5"/>
<path class="bcg-growth1" d="M856.1,605.3l-0.2,0.1c-9.5,5.3-21,5.3-30.4-0.1h-0.1h-0.1c-0.6-0.3-1.3,0-1.6,0.6s0,1.3,0.5,1.6l0,0
	c10.2,5.8,22.6,5.8,32.8,0.1l0.2-0.1c0.6-0.3,0.8-1.1,0.5-1.7C857.5,605.2,856.7,605,856.1,605.3L856.1,605.3z"/>
<g>
	<path class="bcg-growth3" d="M1391.6,628.6c-38.5,0-69.6,31.2-69.6,69.6c0,38.4,31.2,69.6,69.6,69.6s69.6-31.2,69.6-69.6
		S1430,628.6,1391.6,628.6L1391.6,628.6z M1413.1,671.1c2.6,0,4.7,2.1,4.7,4.7c0,2.6-2.1,4.7-4.7,4.7s-4.7-2.1-4.7-4.7l0,0
		C1408.4,673.2,1410.5,671.1,1413.1,671.1L1413.1,671.1z M1370,671.1c2.6,0,4.7,2.1,4.7,4.7c0,2.6-2.1,4.7-4.7,4.7s-4.7-2.1-4.7-4.7
		l0,0C1365.3,673.2,1367.4,671.1,1370,671.1L1370,671.1z M1422.3,730.8l-0.3,0.2c-19,10.7-42.2,10.6-61.1-0.2l0,0
		c-1.1-0.6-1.4-2-0.8-3.1c0.6-1,1.8-1.4,2.8-0.9h0.1l0.1,0.1c17.6,10,39.1,10,56.7,0.2l0.3-0.2c1.1-0.6,2.5-0.2,3.1,0.9
		S1423.4,730.1,1422.3,730.8L1422.3,730.8z"/>
	<circle class="bcg-growth1" cx="1370" cy="675.8" r="4.7"/>
	<circle class="bcg-growth1" cx="1413.1" cy="675.8" r="4.7"/>
	<path class="bcg-growth1" d="M1420.1,726.8l-0.3,0.2c-17.6,9.9-39.1,9.8-56.7-0.2l-0.1-0.1h-0.1c-1.2-0.5-2.5,0.1-2.9,1.3
		c-0.4,1,0,2.2,0.9,2.8l0,0c18.9,10.8,42.1,10.8,61.1,0.2l0.3-0.2c1.1-0.6,1.5-2,0.9-3.1S1421.2,726.2,1420.1,726.8L1420.1,726.8z"
		/>
</g>
<g>
	<path class="bcg-growth3" d="M1171.3,302.2c-38.5,0-69.6,31.2-69.6,69.6s31.2,69.6,69.6,69.6s69.6-31.2,69.6-69.6
		S1209.7,302.2,1171.3,302.2L1171.3,302.2z M1192.8,344.7c2.6,0,4.7,2.1,4.7,4.7s-2.1,4.7-4.7,4.7s-4.7-2.1-4.7-4.7l0,0
		C1188.1,346.8,1190.2,344.7,1192.8,344.7L1192.8,344.7z M1149.8,344.7c2.6,0,4.7,2.1,4.7,4.7s-2.1,4.7-4.7,4.7s-4.7-2.1-4.7-4.7
		l0,0C1145,346.8,1147.1,344.7,1149.8,344.7L1149.8,344.7z M1202,404.4l-0.3,0.2c-19,10.7-42.2,10.6-61.1-0.2l0,0
		c-1.1-0.6-1.4-2-0.8-3.1c0.6-1,1.8-1.4,2.8-0.9h0.1l0.1,0.1c17.6,10,39.1,10,56.7,0.2l0.3-0.2c1.1-0.6,2.5-0.2,3.1,0.9
		C1203.5,402.5,1203.1,403.7,1202,404.4L1202,404.4z"/>
	<circle class="bcg-growth1" cx="1149.8" cy="349.4" r="4.7"/>
	<circle class="bcg-growth1" cx="1192.8" cy="349.4" r="4.7"/>
	<path class="bcg-growth1" d="M1199.8,400.4l-0.3,0.2c-17.6,9.9-39.1,9.8-56.7-0.2l-0.1-0.1h-0.1c-1.2-0.5-2.5,0.1-2.9,1.3
		c-0.4,1,0,2.2,0.9,2.8l0,0c18.9,10.8,42.1,10.8,61.1,0.2l0.3-0.2c1.1-0.6,1.5-2,0.9-3.1S1200.9,399.8,1199.8,400.4L1199.8,400.4z"
		/>
</g>
<path class="bcg-growth3" d="M823.6,1294.6c-38.5,0-69.6,31.2-69.6,69.6s31.2,69.6,69.6,69.6s69.6-31.2,69.6-69.6S862,1294.6,823.6,1294.6
	L823.6,1294.6z M845.1,1337.1c2.6,0,4.7,2.1,4.7,4.7s-2.1,4.7-4.7,4.7c-2.6,0-4.7-2.1-4.7-4.7l0,0
	C840.4,1339.2,842.5,1337.1,845.1,1337.1L845.1,1337.1z M802,1337.1c2.6,0,4.7,2.1,4.7,4.7s-2.1,4.7-4.7,4.7c-2.6,0-4.7-2.1-4.7-4.7
	l0,0C797.3,1339.2,799.4,1337.1,802,1337.1L802,1337.1z M854.3,1396.7l-0.3,0.2c-19,10.7-42.2,10.6-61.1-0.2l0,0
	c-1.1-0.6-1.4-2-0.8-3.1c0.6-1,1.8-1.4,2.8-0.9h0.1l0.1,0.1c17.6,10,39.1,10,56.7,0.2l0.3-0.2c1.1-0.6,2.5-0.2,3.1,0.9
	S855.4,1396.1,854.3,1396.7L854.3,1396.7z"/>
<circle class="bcg-growth1" cx="802" cy="1341.8" r="4.7"/>
<circle class="bcg-growth1" cx="845.1" cy="1341.8" r="4.7"/>
<path class="bcg-growth1" d="M852.1,1392.8l-0.3,0.2c-17.6,9.9-39.1,9.8-56.7-0.2l-0.1-0.1h-0.1c-1.2-0.5-2.5,0.1-2.9,1.3
	c-0.4,1,0,2.2,0.9,2.8l0,0c18.9,10.8,42.1,10.8,61.1,0.2l0.3-0.2c1.1-0.6,1.5-2,0.9-3.1S853.2,1392.2,852.1,1392.8L852.1,1392.8
	L852.1,1392.8z"/>
<path class="bcg-growth3" d="M635.6,1900.6c-38.5,0-69.6,31.2-69.6,69.6s31.2,69.6,69.6,69.6s69.6-31.2,69.6-69.6S674,1900.6,635.6,1900.6
	L635.6,1900.6z M657.1,1943.1c2.6,0,4.7,2.1,4.7,4.7s-2.1,4.7-4.7,4.7c-2.6,0-4.7-2.1-4.7-4.7l0,0
	C652.4,1945.2,654.5,1943.1,657.1,1943.1L657.1,1943.1z M614,1943.1c2.6,0,4.7,2.1,4.7,4.7s-2.1,4.7-4.7,4.7c-2.6,0-4.7-2.1-4.7-4.7
	l0,0C609.3,1945.2,611.4,1943.1,614,1943.1L614,1943.1z M666.3,2002.7l-0.3,0.2c-19,10.7-42.2,10.6-61.1-0.2l0,0
	c-1.1-0.6-1.4-2-0.8-3.1c0.6-1,1.8-1.4,2.8-0.9h0.1l0.1,0.1c17.6,10,39.1,10,56.7,0.2l0.3-0.2c1.1-0.6,2.5-0.2,3.1,0.9
	S667.4,2002.1,666.3,2002.7L666.3,2002.7L666.3,2002.7z"/>
<circle class="bcg-growth1" cx="614" cy="1947.8" r="4.7"/>
<circle class="bcg-growth1" cx="657.1" cy="1947.8" r="4.7"/>
<path class="bcg-growth1" d="M664.1,1998.8l-0.3,0.2c-17.6,9.9-39.1,9.8-56.7-0.2l-0.1-0.1h-0.1c-1.2-0.5-2.5,0.1-2.9,1.3
	c-0.4,1,0,2.2,0.9,2.8l0,0c18.9,10.8,42.1,10.8,61.1,0.2l0.3-0.2c1.1-0.6,1.5-2,0.9-3.1S665.2,1998.2,664.1,1998.8L664.1,1998.8
	L664.1,1998.8z"/>
<path class="bcg-growth3" d="M903.7,2014.4c-51.3,0-92.9,41.6-92.9,92.9s41.6,92.9,92.9,92.9c51.3,0,92.9-41.6,92.9-92.9l0,0
	C996.6,2056,955,2014.4,903.7,2014.4z M932.4,2071.1c3.5,0,6.3,2.8,6.3,6.3s-2.8,6.3-6.3,6.3s-6.3-2.8-6.3-6.3
	S928.9,2071.1,932.4,2071.1L932.4,2071.1z M874.9,2071.1c3.5,0,6.3,2.8,6.3,6.3s-2.8,6.3-6.3,6.3s-6.3-2.8-6.3-6.3
	S871.4,2071.1,874.9,2071.1L874.9,2071.1z M944.6,2150.7l-0.4,0.2c-25.4,14.2-56.3,14.1-81.6-0.2l0,0c-1.5-0.7-2.1-2.6-1.3-4.1
	c0.7-1.5,2.6-2.1,4.1-1.4l0,0l0.1,0.1l0.1,0.1c23.4,13.3,52.1,13.4,75.6,0.2l0.4-0.2c1.5-0.8,3.3-0.3,4.2,1.1
	C946.6,2148,946.1,2149.9,944.6,2150.7L944.6,2150.7z"/>
<circle class="bcg-growth1" cx="874.9" cy="2077.4" r="6.3"/>
<circle class="bcg-growth1" cx="932.4" cy="2077.4" r="6.3"/>
<path class="bcg-growth1" d="M941.7,2145.4l-0.4,0.2c-23.5,13.2-52.2,13.1-75.6-0.2l-0.1-0.1l-0.1-0.1c-1.5-0.7-3.3-0.1-4.1,1.4
	c-0.7,1.5-0.1,3.3,1.3,4.1l0,0c25.3,14.4,56.2,14.4,81.6,0.2l0.4-0.2c1.5-0.8,2-2.7,1.2-4.2C945,2145.1,943.1,2144.6,941.7,2145.4
	L941.7,2145.4z"/>
<path class="bcg-growth3" d="M1279.7,2241.4c-51.3,0-92.9,41.6-92.9,92.9c0,51.3,41.6,92.9,92.9,92.9s92.9-41.6,92.9-92.9l0,0
	C1372.6,2283,1331,2241.4,1279.7,2241.4z M1308.4,2298.1c3.5,0,6.3,2.8,6.3,6.3s-2.8,6.3-6.3,6.3s-6.3-2.8-6.3-6.3
	S1304.9,2298.1,1308.4,2298.1L1308.4,2298.1z M1250.9,2298.1c3.5,0,6.3,2.8,6.3,6.3s-2.8,6.3-6.3,6.3s-6.3-2.8-6.3-6.3
	S1247.4,2298.1,1250.9,2298.1L1250.9,2298.1z M1320.6,2377.7l-0.4,0.2c-25.4,14.2-56.3,14.1-81.6-0.2l0,0c-1.5-0.7-2.1-2.6-1.3-4.1
	c0.7-1.5,2.6-2.1,4.1-1.4l0.1,0.1l0.1,0.1c23.4,13.3,52.1,13.4,75.6,0.2l0.4-0.2c1.5-0.8,3.3-0.3,4.2,1.1
	C1322.6,2375,1322.1,2376.9,1320.6,2377.7L1320.6,2377.7z"/>
<circle class="bcg-growth1" cx="1250.9" cy="2304.4" r="6.3"/>
<circle class="bcg-growth1" cx="1308.4" cy="2304.4" r="6.3"/>
<path class="bcg-growth1" d="M1317.7,2372.4l-0.4,0.2c-23.5,13.2-52.2,13.1-75.6-0.2l-0.1-0.1l-0.1-0.1c-1.5-0.7-3.3-0.1-4.1,1.4
	c-0.7,1.5-0.1,3.3,1.3,4.1l0,0l0,0c25.3,14.4,56.2,14.4,81.6,0.2l0.4-0.2c1.5-0.8,2-2.7,1.2-4.2
	C1321,2372.1,1319.1,2371.6,1317.7,2372.4L1317.7,2372.4z"/>
<path class="bcg-growth3" d="M92.9,2289.6c-51.3,0-92.9,41.6-92.9,92.9c0,51.3,41.6,92.9,92.9,92.9s92.9-41.6,92.9-92.9l0,0
	C185.8,2331.2,144.2,2289.6,92.9,2289.6z M121.6,2346.3c3.5,0,6.3,2.8,6.3,6.3s-2.8,6.3-6.3,6.3s-6.3-2.8-6.3-6.3
	S118.1,2346.3,121.6,2346.3L121.6,2346.3z M64.1,2346.3c3.5,0,6.3,2.8,6.3,6.3s-2.8,6.3-6.3,6.3c-3.5,0-6.3-2.8-6.3-6.3
	S60.6,2346.3,64.1,2346.3L64.1,2346.3z M133.8,2425.9l-0.4,0.2c-25.4,14.2-56.3,14.1-81.6-0.2l0,0c-1.5-0.7-2.1-2.6-1.3-4.1
	c0.7-1.5,2.6-2.1,4.1-1.3l0.1,0.1l0.1,0.1c23.4,13.3,52.1,13.4,75.6,0.2l0.4-0.2c1.5-0.8,3.3-0.3,4.2,1.1
	C135.8,2423.2,135.3,2425.1,133.8,2425.9L133.8,2425.9z"/>
<circle class="bcg-growth1" cx="64.1" cy="2352.6" r="6.3"/>
<circle class="bcg-growth1" cx="121.6" cy="2352.6" r="6.3"/>
<path class="bcg-growth1" d="M130.9,2420.6l-0.4,0.2c-23.5,13.2-52.2,13.1-75.6-0.2l-0.1-0.1l-0.1-0.1c-1.5-0.7-3.3-0.1-4.1,1.4
	c-0.7,1.5-0.1,3.3,1.3,4.1l0,0c25.3,14.4,56.2,14.4,81.6,0.2l0.4-0.2c1.5-0.8,2-2.7,1.2-4.1S132.3,2419.8,130.9,2420.6L130.9,2420.6
	L130.9,2420.6z"/>
<g>
	<path class="bcg-growth3" d="M1198.4,628.6c-31.2,0-56.5,25.3-56.5,56.5s25.3,56.5,56.5,56.5s56.5-25.3,56.5-56.5l0,0
		C1254.9,653.9,1229.7,628.6,1198.4,628.6z M1215.9,663.1c2.1,0,3.8,1.7,3.8,3.8s-1.7,3.9-3.8,3.9c-2.1,0-3.8-1.7-3.8-3.8l0,0
		C1212.1,664.8,1213.8,663.1,1215.9,663.1z M1181,663.1c2.1,0,3.8,1.7,3.8,3.8s-1.7,3.9-3.8,3.9c-2.1,0-3.8-1.7-3.8-3.8l0,0
		C1177.1,664.8,1178.8,663.1,1181,663.1L1181,663.1z M1223.4,711.5l-0.2,0.1c-15.4,8.6-34.2,8.6-49.6-0.1l0,0
		c-0.9-0.5-1.3-1.6-0.8-2.5s1.6-1.3,2.5-0.8l0,0h0.1h0.1c14.3,8.1,31.7,8.1,46,0.1l0.2-0.1c0.9-0.4,2-0.1,2.5,0.9
		C1224.5,710,1224.2,711,1223.4,711.5L1223.4,711.5z"/>
	<circle class="bcg-growth1" cx="1181" cy="666.9" r="3.8"/>
	<circle class="bcg-growth1" cx="1215.9" cy="666.9" r="3.8"/>
	<path class="bcg-growth1" d="M1221.6,708.2l-0.2,0.1c-14.3,8-31.7,8-46-0.1h-0.1h-0.1c-0.9-0.5-2-0.1-2.5,0.8c-0.5,0.9-0.1,2,0.8,2.5l0,0
		l0,0c15.4,8.7,34.2,8.8,49.6,0.1l0.2-0.1c0.9-0.6,1.1-1.7,0.6-2.6C1223.4,708.2,1222.4,708,1221.6,708.2L1221.6,708.2z"/>
</g>
<g>
	<path class="bcg-growth3" d="M1080.2,572.1c-21.9,0-39.7,17.8-39.7,39.7s17.8,39.7,39.7,39.7s39.7-17.8,39.7-39.7l0,0
		C1119.9,589.8,1102.2,572.1,1080.2,572.1z M1092.5,596.3c1.5,0,2.7,1.2,2.7,2.7s-1.2,2.7-2.7,2.7s-2.7-1.2-2.7-2.7l0,0
		C1089.8,597.5,1091,596.3,1092.5,596.3z M1068,596.3c1.5,0,2.7,1.2,2.7,2.7s-1.2,2.7-2.7,2.7s-2.7-1.2-2.7-2.7l0,0
		C1065.3,597.5,1066.4,596.3,1068,596.3L1068,596.3z M1097.8,630.3L1097.8,630.3c-10.9,6.1-24.1,6.1-34.9,0l0,0
		c-0.6-0.4-0.9-1.1-0.6-1.8c0.3-0.7,1.1-0.9,1.8-0.6l0,0h0.1h0.1c10,5.7,22.3,5.7,32.3,0.1l0.1-0.1c0.6-0.3,1.4-0.1,1.8,0.6
		C1098.6,629.2,1098.3,629.9,1097.8,630.3L1097.8,630.3z"/>
	<circle class="bcg-growth1" cx="1068" cy="599" r="2.7"/>
	<circle class="bcg-growth1" cx="1092.5" cy="599" r="2.7"/>
	<path class="bcg-growth1" d="M1096.5,628L1096.5,628c-10.1,5.7-22.4,5.7-32.4,0h-0.1h-0.1c-0.6-0.4-1.4-0.1-1.8,0.6
		c-0.4,0.6-0.1,1.4,0.6,1.8l0,0l0,0c10.8,6.1,24,6.2,34.8,0.1l0.1-0.1c0.6-0.4,0.8-1.2,0.4-1.8C1097.8,628,1097.1,627.8,1096.5,628
		L1096.5,628z"/>
</g>
<g>
	<path class="bcg-growth3" d="M896.1,750c-21.9,0-39.7,17.8-39.7,39.7s17.8,39.7,39.7,39.7s39.7-17.8,39.7-39.7l0,0
		C935.8,767.8,918.1,750,896.1,750z M908.4,774.1c1.5,0,2.7,1.2,2.7,2.7s-1.2,2.7-2.7,2.7s-2.7-1.2-2.7-2.7l0,0
		C905.7,775.3,906.9,774.1,908.4,774.1z M883.9,774.1c1.5,0,2.7,1.2,2.7,2.7s-1.2,2.7-2.7,2.7s-2.7-1.2-2.7-2.7l0,0
		C881.1,775.3,882.3,774.1,883.9,774.1L883.9,774.1z M913.7,808.1L913.7,808.1c-10.9,6.1-24.1,6.1-34.9,0l0,0
		c-0.6-0.4-0.9-1.1-0.6-1.8c0.4-0.6,1.1-0.9,1.8-0.6l0,0h0.1h0.1c10,5.7,22.3,5.7,32.3,0.1l0.1-0.1c0.6-0.3,1.4-0.1,1.8,0.6
		C914.4,807,914.2,807.8,913.7,808.1L913.7,808.1z"/>
	<circle class="bcg-growth1" cx="883.9" cy="776.8" r="2.7"/>
	<circle class="bcg-growth1" cx="908.4" cy="776.8" r="2.7"/>
	<path class="bcg-growth1" d="M912.4,805.8L912.4,805.8c-10.1,5.7-22.4,5.7-32.4,0h-0.1h-0.1c-0.6-0.4-1.4-0.1-1.8,0.6
		c-0.4,0.6-0.1,1.4,0.6,1.8l0,0l0,0c10.8,6.1,24,6.2,34.8,0.1l0.1-0.1c0.6-0.4,0.8-1.2,0.4-1.8C913.7,805.8,913,805.6,912.4,805.8
		L912.4,805.8z"/>
</g>
<g>
	<path class="bcg-growth3" d="M1171.3,789.6c-21.9,0-39.7,17.8-39.7,39.7s17.8,39.7,39.7,39.7s39.7-17.8,39.7-39.7l0,0
		C1211,807.5,1193.3,789.6,1171.3,789.6z M1183.6,813.8c1.5,0,2.7,1.2,2.7,2.7s-1.2,2.7-2.7,2.7s-2.7-1.2-2.7-2.7l0,0
		C1180.9,815,1182.1,813.8,1183.6,813.8z M1159.1,813.8c1.5,0,2.7,1.2,2.7,2.7s-1.2,2.7-2.7,2.7s-2.7-1.2-2.7-2.7l0,0
		C1156.3,815,1157.5,813.8,1159.1,813.8L1159.1,813.8z M1188.9,847.8L1188.9,847.8c-10.9,6.1-24.1,6.1-34.9,0l0,0
		c-0.6-0.4-0.9-1.1-0.6-1.8c0.4-0.6,1.1-0.9,1.8-0.6l0,0h0.1h0.1c10,5.7,22.3,5.7,32.3,0.1l0.1-0.1c0.6-0.3,1.4-0.1,1.8,0.6
		C1189.6,846.8,1189.4,847.5,1188.9,847.8L1188.9,847.8z"/>
	<circle class="bcg-growth1" cx="1159.1" cy="816.5" r="2.7"/>
	<circle class="bcg-growth1" cx="1183.6" cy="816.5" r="2.7"/>
	<path class="bcg-growth1" d="M1187.6,845.5L1187.6,845.5c-10.1,5.7-22.4,5.7-32.4,0h-0.1h-0.1c-0.6-0.4-1.4-0.1-1.8,0.6
		c-0.4,0.6-0.1,1.4,0.6,1.8l0,0l0,0c10.8,6.1,24,6.2,34.8,0.1l0.1-0.1c0.6-0.4,0.8-1.2,0.4-1.8
		C1188.9,845.5,1188.2,845.3,1187.6,845.5L1187.6,845.5z"/>
</g>
<g>
	<path class="bcg-growth3" d="M1188,512.9c-21.9,0-39.7,17.8-39.7,39.7s17.8,39.7,39.7,39.7c21.9,0,39.7-17.8,39.7-39.7l0,0
		C1227.7,530.8,1210,512.9,1188,512.9z M1200.3,537.1c1.5,0,2.7,1.2,2.7,2.7s-1.2,2.7-2.7,2.7s-2.7-1.2-2.7-2.7l0,0
		C1197.6,538.3,1198.8,537.1,1200.3,537.1z M1175.8,537.1c1.5,0,2.7,1.2,2.7,2.7s-1.2,2.7-2.7,2.7s-2.7-1.2-2.7-2.7l0,0
		C1173.1,538.3,1174.3,537.1,1175.8,537.1L1175.8,537.1z M1205.6,571.1L1205.6,571.1c-10.9,6.1-24.1,6.1-34.9,0l0,0
		c-0.6-0.4-0.9-1.1-0.6-1.8c0.4-0.6,1.1-0.9,1.8-0.6l0,0h0.1h0.1c10,5.7,22.3,5.7,32.3,0.1l0.1-0.1c0.6-0.3,1.4-0.1,1.8,0.6
		C1206.4,570,1206.1,570.8,1205.6,571.1L1205.6,571.1z"/>
	<circle class="bcg-growth1" cx="1175.8" cy="539.8" r="2.7"/>
	<circle class="bcg-growth1" cx="1200.3" cy="539.8" r="2.7"/>
	<path class="bcg-growth1" d="M1204.3,568.8L1204.3,568.8c-10.1,5.7-22.4,5.7-32.4,0h-0.1h-0.1c-0.6-0.4-1.4-0.1-1.8,0.6
		c-0.4,0.6-0.1,1.4,0.6,1.8l0,0l0,0c10.8,6.1,24,6.2,34.8,0.1l0.1-0.1c0.6-0.4,0.8-1.2,0.4-1.8
		C1205.6,568.8,1204.9,568.6,1204.3,568.8L1204.3,568.8z"/>
</g>
<g>
	<path class="bcg-growth3" d="M966.6,641.8c-25.1,0-45.5,20.4-45.5,45.5s20.4,45.5,45.5,45.5s45.5-20.4,45.5-45.5l0,0
		C1012.1,662.1,991.8,641.8,966.6,641.8z M980.7,669.5c1.7,0,3.1,1.4,3.1,3.1s-1.4,3.1-3.1,3.1c-1.7,0-3.1-1.4-3.1-3.1l0,0
		C977.6,670.8,979,669.5,980.7,669.5z M952.6,669.5c1.7,0,3.1,1.4,3.1,3.1s-1.4,3.1-3.1,3.1s-3.1-1.4-3.1-3.1l0,0
		C949.5,670.8,950.8,669.5,952.6,669.5L952.6,669.5z M986.7,708.5l-0.2,0.1c-12.4,6.9-27.5,6.9-39.9-0.1l0,0c-0.7-0.4-1-1.3-0.6-2
		s1.3-1,2-0.6l0,0h0.1h0.1c11.5,6.5,25.5,6.5,37,0.1l0.2-0.1c0.7-0.3,1.6-0.1,2,0.7C987.6,707.2,987.4,708,986.7,708.5L986.7,708.5z
		"/>
	<circle class="bcg-growth1" cx="952.6" cy="672.5" r="3.1"/>
	<circle class="bcg-growth1" cx="980.7" cy="672.5" r="3.1"/>
	<path class="bcg-growth1" d="M985.3,705.8l-0.2,0.1c-11.5,6.4-25.5,6.4-37-0.1H948h-0.1c-0.7-0.4-1.6-0.1-2,0.6c-0.4,0.7-0.1,1.6,0.6,2l0,0
		l0,0c12.4,7,27.5,7.1,39.9,0.1l0.2-0.1c0.7-0.5,0.9-1.4,0.5-2.1C986.7,705.8,985.9,705.5,985.3,705.8L985.3,705.8z"/>
</g>
<g>
	<path class="bcg-growth3" d="M1351.8,1080c-31.2,0-56.5,25.3-56.5,56.5s25.3,56.5,56.5,56.5s56.5-25.3,56.5-56.5l0,0
		C1408.3,1105.3,1383.1,1080,1351.8,1080z M1369.3,1114.5c2.1,0,3.8,1.7,3.8,3.8s-1.7,3.8-3.8,3.8c-2.1,0-3.8-1.7-3.8-3.8l0,0
		C1365.5,1116.2,1367.2,1114.5,1369.3,1114.5z M1334.4,1114.5c2.1,0,3.8,1.7,3.8,3.8s-1.7,3.8-3.8,3.8c-2.1,0-3.8-1.7-3.8-3.8l0,0
		C1330.5,1116.2,1332.2,1114.5,1334.4,1114.5L1334.4,1114.5z M1376.8,1162.9l-0.2,0.1c-15.4,8.6-34.2,8.6-49.6-0.1l0,0
		c-0.9-0.5-1.3-1.6-0.8-2.5s1.6-1.3,2.5-0.8l0,0h0.1h0.1c14.3,8.1,31.7,8.1,46,0.1l0.2-0.1c0.9-0.4,2-0.1,2.5,0.9
		C1377.9,1161.3,1377.6,1162.3,1376.8,1162.9L1376.8,1162.9z"/>
	<circle class="bcg-growth1" cx="1334.4" cy="1118.3" r="3.8"/>
	<circle class="bcg-growth1" cx="1369.3" cy="1118.3" r="3.8"/>
	<path class="bcg-growth1" d="M1375,1159.8l-0.2,0.1c-14.3,8-31.7,8-46-0.1h-0.1h-0.1c-0.9-0.5-2-0.1-2.5,0.8s-0.1,2,0.8,2.5l0,0l0,0
		c15.4,8.7,34.2,8.8,49.6,0.1l0.2-0.1c0.9-0.6,1.1-1.7,0.6-2.6C1376.8,1159.6,1375.8,1159.4,1375,1159.8L1375,1159.8z"/>
</g>
<path class="bcg-growth3" d="M1298.4,441.6c-31.2,0-56.5,25.3-56.5,56.5s25.3,56.5,56.5,56.5s56.5-25.3,56.5-56.5S1329.7,441.6,1298.4,441.6
	L1298.4,441.6z M1315.9,476.1c2.1,0,3.8,1.7,3.8,3.8c0,2.1-1.7,3.9-3.8,3.9c-2.1,0-3.8-1.7-3.8-3.8l0,0
	C1312.1,477.8,1313.8,476.1,1315.9,476.1z M1281,476.1c2.1,0,3.8,1.7,3.8,3.8c0,2.1-1.7,3.9-3.8,3.9c-2.1,0-3.8-1.7-3.8-3.8l0,0
	C1277.1,477.8,1278.8,476.1,1281,476.1L1281,476.1z M1323.4,524.5l-0.2,0.1c-15.4,8.6-34.2,8.6-49.6-0.1l0,0
	c-0.9-0.5-1.3-1.6-0.8-2.5s1.6-1.3,2.5-0.8h0.1h0.1c14.3,8.1,31.7,8.1,46,0.1l0.2-0.1c0.9-0.4,2-0.1,2.5,0.8
	C1324.5,522.9,1324.2,523.9,1323.4,524.5L1323.4,524.5z"/>
<circle class="bcg-growth1" cx="1281" cy="479.9" r="3.8"/>
<circle class="bcg-growth1" cx="1315.9" cy="479.9" r="3.8"/>
<path class="bcg-growth1" d="M1321.6,521.2l-0.2,0.1c-14.3,8-31.7,8-46-0.1h-0.1h-0.1c-0.9-0.5-2-0.1-2.5,0.8c-0.5,0.9-0.1,2,0.8,2.5l0,0
	c15.4,8.7,34.2,8.8,49.6,0.1l0.2-0.1c0.9-0.6,1.1-1.7,0.6-2.6C1323.4,521.2,1322.4,520.9,1321.6,521.2L1321.6,521.2z"/>
<path class="bcg-growth3" d="M1018.7,401.6c-38,0-68.7,30.8-68.7,68.7s30.8,68.7,68.7,68.7c38,0,68.7-30.8,68.7-68.7l0,0
	C1087.4,432.3,1056.7,401.6,1018.7,401.6z M1039.9,443.6c2.6,0,4.7,2.1,4.7,4.7s-2.1,4.7-4.7,4.7c-2.6,0-4.7-2.1-4.7-4.7
	C1035.2,445.7,1037.3,443.5,1039.9,443.6C1039.9,443.5,1039.9,443.5,1039.9,443.6L1039.9,443.6z M997.4,443.6c2.6,0,4.7,2.1,4.7,4.7
	s-2.1,4.7-4.7,4.7c-2.6,0-4.7-2.1-4.7-4.7l0,0C992.7,445.7,994.8,443.5,997.4,443.6C997.4,443.5,997.4,443.5,997.4,443.6
	L997.4,443.6z M1049,502.5l-0.3,0.2c-18.8,10.5-41.7,10.4-60.4-0.2l0,0c-1.1-0.6-1.4-2-0.8-3.1c0.6-1,1.8-1.4,2.8-0.9h0.1l0.1,0.1
	c17.3,9.8,38.6,9.9,55.9,0.2l0.3-0.2c1.1-0.6,2.5-0.1,3,1C1050.3,500.6,1050,501.8,1049,502.5L1049,502.5z"/>
<circle class="bcg-growth1" cx="997.4" cy="448.2" r="4.7"/>
<circle class="bcg-growth1" cx="1039.9" cy="448.2" r="4.7"/>
<path class="bcg-growth1" d="M1046.8,498.5l-0.3,0.2c-17.4,9.7-38.6,9.7-55.9-0.2l-0.1-0.1h-0.1c-1.1-0.5-2.5,0-2.9,1.2
	c-0.4,1,0,2.3,0.9,2.8l0,0c18.7,10.6,41.6,10.7,60.4,0.2l0.3-0.2c1.1-0.7,1.4-2,0.7-3.1C1049.1,498.4,1047.9,498,1046.8,498.5
	L1046.8,498.5z"/>
<g>
	<circle class="bcg-growth3" cx="991.3" cy="283.4" r="38"/>
	<circle class="bcg-growth1" cx="979.6" cy="271.2" r="2.6"/>
	<circle class="bcg-growth1" cx="1003.1" cy="271.2" r="2.6"/>
	<path class="bcg-growth1" d="M974.6,301.1c10.3,5.9,23,5.9,33.4,0.1l0.2-0.1c0.6-0.3,0.8-1.1,0.5-1.7s-1.1-0.8-1.7-0.5l-0.2,0.1
		c-9.6,5.4-21.4,5.4-31-0.1c-0.6-0.3-1.4-0.1-1.7,0.5S974,300.8,974.6,301.1L974.6,301.1z"/>
</g>
<g>
	<circle class="bcg-growth3" cx="714.8" cy="142.1" r="38"/>
	<circle class="bcg-growth1" cx="703.1" cy="129.9" r="2.6"/>
	<circle class="bcg-growth1" cx="726.6" cy="129.9" r="2.6"/>
	<path class="bcg-growth1" d="M698.1,159.8c10.3,5.9,23,5.9,33.4,0.1l0.2-0.1c0.6-0.3,0.8-1.1,0.5-1.7c-0.3-0.6-1.1-0.8-1.7-0.5l-0.2,0.1
		c-9.6,5.4-21.4,5.4-31-0.1c-0.6-0.3-1.4-0.1-1.7,0.5S697.5,159.5,698.1,159.8L698.1,159.8z"/>
</g>
<g>
	<circle class="bcg-growth3" cx="1419.9" cy="344.7" r="38"/>
	<circle class="bcg-growth1" cx="1408.2" cy="332.5" r="2.6"/>
	<circle class="bcg-growth1" cx="1431.7" cy="332.5" r="2.6"/>
	<path class="bcg-growth1" d="M1403.2,362.4c10.3,5.9,23,5.9,33.4,0.1l0.2-0.1c0.6-0.3,0.8-1.1,0.5-1.7s-1.1-0.8-1.7-0.5l-0.2,0.1
		c-9.6,5.4-21.4,5.4-31-0.1c-0.6-0.3-1.4-0.1-1.7,0.5C1402.4,361.3,1402.6,362.1,1403.2,362.4L1403.2,362.4z"/>
</g>
<circle class="bcg-growth0" cx="1431.8" cy="504.2" r="49.2"/>
<circle class="bcg-growth1" cx="1416.6" cy="488.4" r="3.3"/>
<circle class="bcg-growth1" cx="1447" cy="488.4" r="3.3"/>
<path class="bcg-growth1" d="M1410.9,527.8L1410.9,527.8v-2l-1,1.7c13.5,7.7,30,7.7,43.5,0.1l0.2-0.1c1-0.6,1.3-1.8,0.7-2.7
	s-1.8-1.3-2.7-0.7l-0.2,0.1c-12.3,6.9-27.3,6.9-39.6-0.1l-0.5-0.3h-0.5c-1.1,0-2,0.9-2,2C1408.8,526.8,1409.8,527.8,1410.9,527.8z"
	/>
<g>
	<circle class="bcg-growth3" cx="1292.7" cy="232.7" r="44.1"/>
	<circle class="bcg-growth1" cx="1279" cy="218.5" r="3"/>
	<circle class="bcg-growth1" cx="1306.3" cy="218.5" r="3"/>
	<path class="bcg-growth1" d="M1273.9,253.5L1273.9,253.5V252l-0.7,1.2c12,6.8,26.7,6.9,38.7,0.1l0.2-0.1c0.7-0.4,1-1.2,0.6-1.9
		s-1.2-1-1.9-0.6c0,0,0,0-0.1,0l-0.2,0.1c-11.1,6.2-24.7,6.2-35.9-0.1l-0.3-0.2h-0.4c-0.8,0-1.4,0.6-1.4,1.4
		S1273.1,253.5,1273.9,253.5L1273.9,253.5z"/>
</g>
<g>
	<circle class="bcg-growth3" cx="298.9" cy="82.4" r="44.1"/>
	<circle class="bcg-growth1" cx="285.2" cy="68.2" r="3"/>
	<circle class="bcg-growth1" cx="312.5" cy="68.2" r="3"/>
	<path class="bcg-growth1" d="M280.1,103.2L280.1,103.2v-1.5l-0.7,1.2c12,6.8,26.7,6.9,38.7,0.1l0.2-0.1c0.7-0.4,1-1.2,0.6-1.9
		c-0.4-0.7-1.2-1-1.9-0.6c0,0,0,0-0.1,0l-0.2,0.1c-11.1,6.2-24.7,6.2-35.9-0.1l-0.3-0.2h-0.4c-0.8,0-1.4,0.6-1.4,1.4
		S279.3,103.2,280.1,103.2L280.1,103.2z"/>
</g>
<g>
	<circle class="bcg-growth3" cx="1115.6" cy="64.6" r="44.1"/>
	<circle class="bcg-growth1" cx="1101.9" cy="50.4" r="3"/>
	<circle class="bcg-growth1" cx="1129.2" cy="50.4" r="3"/>
	<path class="bcg-growth1" d="M1096.8,85.4L1096.8,85.4v-1.5l-0.7,1.2c12,6.8,26.7,6.9,38.7,0.1l0.2-0.1c0.7-0.4,1-1.2,0.6-1.9
		c-0.4-0.7-1.2-1-1.9-0.6c0,0,0,0-0.1,0l-0.2,0.1c-11.1,6.2-24.7,6.2-35.9-0.1l-0.3-0.2h-0.4c-0.8,0-1.4,0.6-1.4,1.4
		S1096,85.4,1096.8,85.4L1096.8,85.4z"/>
</g>
<circle class="bcg-growth0" cx="1440.2" cy="874.5" r="61.2"/>
<circle class="bcg-growth1" cx="1421.2" cy="854.8" r="4.2"/>
<circle class="bcg-growth1" cx="1459.1" cy="854.8" r="4.2"/>
<path class="bcg-growth1" d="M1412.7,902.6L1412.7,902.6l0.2,0.2l0.2,0.1c16.6,9.4,37,9.5,53.7,0.2l0.3-0.2c1-0.6,1.3-1.8,0.7-2.7
	s-1.8-1.3-2.7-0.7l-0.3,0.2c-15.5,8.7-34.3,8.6-49.8-0.1l-1,1.7l1.4-1.4l0,0c-0.8-0.8-2-0.8-2.8,0
	C1411.9,900.6,1411.9,902,1412.7,902.6L1412.7,902.6z"/>
</svg>
