<?xml version="1.0" encoding="utf-8"?>
<svg version="1.1" id="Warbcg-ios-tabletwa_1" xmlns="http://www.w3.org/2000/svg" xmlns:xlink="http://www.w3.org/1999/xlink"
	 x="0px" y="0px" viewBox="0 0 700.3 2420.6" style="enable-background:new 0 0 700.3 2420.6;" xml:space="preserve">
<style type="text/css">
	.bcg-growth-tablet0{fill:#2B304B;}
	.bcg-growth-tablet1{fill:#181B28;}
	.bcg-growth-tablet2{fill:none;stroke:#181B28;stroke-width:4;stroke-linecap:round;stroke-miterlimit:10;}
	.bcg-growth-tablet3{fill:#1E2333;}
</style>
<circle class="bcg-growth-tablet0" cx="530" cy="550" r="32"/>
<circle class="bcg-growth-tablet1" cx="520.2" cy="539.7" r="2.2"/>
<circle class="bcg-growth-tablet1" cx="540" cy="539.7" r="2.2"/>
<path class="bcg-growth-tablet2" d="M516.5,564L516.5,564c8.4,4.8,18.7,4.8,27,0.1l0.2-0.1"/>
<path class="bcg-growth-tablet0" d="M636.9,682.1c-21.6,0-39.2,17.6-39.2,39.2c0,21.6,17.6,39.2,39.2,39.2c21.6,0,39.2-17.6,39.2-39.2l0,0
	C676,699.6,658.5,682.1,636.9,682.1z M649,706c1.5,0,2.7,1.2,2.7,2.7s-1.2,2.7-2.7,2.7s-2.7-1.2-2.7-2.7l0,0
	C646.3,707.2,647.5,706,649,706L649,706L649,706z M624.7,706c1.5,0,2.7,1.2,2.7,2.7s-1.2,2.7-2.7,2.7c-1.5,0-2.7-1.2-2.7-2.7l0,0
	C622.1,707.2,623.3,706,624.7,706C624.8,706,624.8,706,624.7,706L624.7,706z M654.1,739.6l-0.2,0.1c-10.7,6-23.8,6-34.4-0.1l0,0
	c-0.6-0.4-0.8-1.1-0.5-1.8c0.3-0.6,1-0.8,1.6-0.5l0.1,0.1l0.1,0.1c9.9,5.6,22,5.6,31.9,0.1l0.2-0.1c0.6-0.4,1.4-0.1,1.7,0.5
	C655,738.5,654.8,739.3,654.1,739.6L654.1,739.6z"/>
<circle class="bcg-growth-tablet1" cx="624.8" cy="708.7" r="2.7"/>
<circle class="bcg-growth-tablet1" cx="649" cy="708.7" r="2.7"/>
<path class="bcg-growth-tablet1" d="M652.9,737.4l-0.2,0.1c-9.9,5.5-22.1,5.5-31.9-0.1l-0.1-0.1l-0.1-0.1c-0.6-0.3-1.4,0.1-1.7,0.7
	c-0.3,0.6,0,1.3,0.5,1.6l0,0c10.7,6.1,23.7,6.1,34.4,0.1l0.2-0.1c0.6-0.4,0.8-1.1,0.5-1.7C654.4,737.3,653.6,737,652.9,737.4
	L652.9,737.4L652.9,737.4z"/>
<path class="bcg-growth-tablet0" d="M91.3,819c-21.6,0-39.2,17.6-39.2,39.2s17.6,39.2,39.2,39.2s39.2-17.6,39.2-39.2S113,819,91.3,819L91.3,819z
	 M103.5,842.9c1.5,0,2.7,1.2,2.7,2.7c0,1.5-1.2,2.7-2.7,2.7s-2.7-1.2-2.7-2.7l0,0C100.8,844.1,102,842.9,103.5,842.9L103.5,842.9
	L103.5,842.9z M79.2,842.9c1.5,0,2.7,1.2,2.7,2.7c0,1.5-1.2,2.7-2.7,2.7s-2.7-1.2-2.7-2.7l0,0C76.6,844.1,77.8,842.9,79.2,842.9
	C79.3,842.9,79.3,842.9,79.2,842.9L79.2,842.9z M108.6,876.5l-0.2,0.1c-10.7,6-23.8,6-34.4-0.1l0,0c-0.6-0.4-0.8-1.1-0.5-1.8
	c0.3-0.6,1-0.8,1.6-0.5l0.1,0.1l0.1,0.1c9.9,5.6,22,5.6,31.9,0.1l0.2-0.1c0.6-0.4,1.4-0.1,1.7,0.5
	C109.5,875.4,109.3,876.2,108.6,876.5L108.6,876.5z"/>
<circle class="bcg-growth-tablet1" cx="79.3" cy="845.6" r="2.7"/>
<circle class="bcg-growth-tablet1" cx="103.5" cy="845.6" r="2.7"/>
<path class="bcg-growth-tablet1" d="M107.4,874.3l-0.2,0.1c-9.9,5.5-22.1,5.5-31.9-0.1l-0.1-0.1l-0.1-0.1c-0.6-0.3-1.4,0.1-1.7,0.7
	c-0.3,0.6,0,1.3,0.5,1.6l0,0c10.7,6.1,23.7,6.1,34.4,0.1l0.2-0.1c0.6-0.4,0.8-1.1,0.5-1.7C108.8,874.2,108.1,873.9,107.4,874.3
	L107.4,874.3z"/>
<path class="bcg-growth-tablet3" d="M482.9,924c-15.5,0-28,12.5-28,28s12.5,28,28,28s28-12.5,28-28l0,0C510.9,936.5,498.4,924,482.9,924z
	 M491.6,941.1c1,0,1.9,0.8,1.9,1.9c0,1-0.8,1.9-1.9,1.9c-1,0-1.9-0.8-1.9-1.9C489.7,942,490.5,941.1,491.6,941.1
	C491.5,941.1,491.5,941.1,491.6,941.1L491.6,941.1z M474.2,941.1c1,0,1.9,0.8,1.9,1.9c0,1-0.8,1.9-1.9,1.9c-1,0-1.9-0.8-1.9-1.9
	C472.3,942,473.1,941.1,474.2,941.1L474.2,941.1L474.2,941.1z M495.2,965.1l-0.1,0.1c-7.6,4.3-16.9,4.2-24.6-0.1l0,0
	c-0.4-0.3-0.6-0.8-0.3-1.3c0.2-0.4,0.7-0.5,1.1-0.4h0.1h0.1c7.1,4,15.7,4,22.8,0.1l0.1-0.1c0.4-0.3,1-0.1,1.3,0.4
	S495.7,964.8,495.2,965.1L495.2,965.1z"/>
<circle class="bcg-growth-tablet1" cx="474.2" cy="943" r="1.9"/>
<circle class="bcg-growth-tablet1" cx="491.6" cy="943" r="1.9"/>
<path class="bcg-growth-tablet1" d="M494.4,963.5l-0.1,0.1c-7.1,4-15.7,4-22.8-0.1h-0.1h-0.1c-0.5-0.1-1,0.2-1.1,0.7c-0.1,0.4,0.1,0.7,0.3,0.9l0,0
	c7.6,4.3,16.9,4.3,24.6,0.1l0.1-0.1c0.4-0.3,0.6-0.8,0.4-1.3S494.8,963.3,494.4,963.5L494.4,963.5z"/>
<path class="bcg-growth-tablet3" d="M465.9,395C440,395,419,416,419,442c0,25.9,21,46.9,46.9,46.9c25.9,0,46.9-21,46.9-46.9
	C512.8,416,491.8,395,465.9,395L465.9,395z M480.4,423.7c1.8,0,3.2,1.4,3.2,3.2c0,1.8-1.4,3.2-3.2,3.2c-1.8,0-3.2-1.4-3.2-3.2l0,0
	C477.2,425.1,478.6,423.7,480.4,423.7L480.4,423.7z M451.4,423.7c1.8,0,3.2,1.4,3.2,3.2c0,1.8-1.4,3.2-3.2,3.2s-3.2-1.4-3.2-3.2l0,0
	C448.2,425.1,449.6,423.7,451.4,423.7L451.4,423.7z M486.6,464l-0.2,0.1c-12.8,7.2-28.4,7.2-41.2-0.1l0,0c-0.7-0.4-1-1.4-0.6-2.1
	c0.4-0.7,1.2-0.9,1.9-0.6l0.1,0.1l0.1,0.1c11.8,6.7,26.3,6.7,38.2,0.1l0.2-0.1c0.8-0.4,1.7-0.1,2,0.7
	C487.5,462.6,487.3,463.5,486.6,464L486.6,464z"/>
<circle class="bcg-growth-tablet1" cx="451.4" cy="426.9" r="3.2"/>
<circle class="bcg-growth-tablet1" cx="480.4" cy="426.9" r="3.2"/>
<path class="bcg-growth-tablet1" d="M485.1,461.2l-0.2,0.1c-11.9,6.6-26.3,6.6-38.2-0.1l-0.1-0.1l-0.1-0.1c-0.8-0.3-1.7,0.1-2,0.8s-0.1,1.5,0.6,1.9
	l0,0c12.7,7.3,28.4,7.3,41.2,0.1l0.2-0.1c0.7-0.5,0.9-1.4,0.5-2.1C486.7,461.1,485.8,460.8,485.1,461.2L485.1,461.2z"/>
<path class="bcg-growth-tablet3" d="M619,452c-10.8,0-19.5,8.7-19.5,19.5s8.7,19.5,19.5,19.5c10.8,0,19.5-8.7,19.5-19.5l0,0
	C638.6,460.7,629.9,452,619,452z M625.1,464c0.7,0,1.3,0.6,1.3,1.4s-0.6,1.3-1.4,1.3c-0.7,0-1.3-0.6-1.3-1.3
	C623.8,464.5,624.4,464,625.1,464L625.1,464z M613,464c0.7,0,1.3,0.6,1.3,1.4s-0.6,1.3-1.4,1.3c-0.7,0-1.3-0.6-1.3-1.3
	C611.7,464.5,612.3,464,613,464L613,464z M627.7,480.7l-0.1,0.1c-5.3,3-11.8,3-17.1-0.1l0,0c-0.3-0.2-0.4-0.6-0.3-0.9
	c0.2-0.3,0.5-0.4,0.8-0.3h0.1h0.1c4.9,2.8,11,2.8,15.9,0.1l0.1-0.1c0.3-0.2,0.7-0.1,0.9,0.3C628.1,480,628,480.4,627.7,480.7
	L627.7,480.7z"/>
<path class="bcg-growth-tablet3" d="M499.7,342.5c-10.8,0-19.5,8.7-19.5,19.5s8.7,19.5,19.5,19.5c10.8,0,19.5-8.7,19.5-19.5l0,0
	C519.2,351.2,510.5,342.5,499.7,342.5z M505.8,354.5c0.7,0,1.3,0.6,1.3,1.4s-0.6,1.3-1.4,1.3c-0.7,0-1.3-0.6-1.3-1.3
	C504.4,355,505,354.5,505.8,354.5L505.8,354.5z M493.7,354.5c0.7,0,1.3,0.6,1.3,1.4s-0.6,1.3-1.4,1.3c-0.7,0-1.3-0.6-1.3-1.3
	C492.3,355,492.9,354.5,493.7,354.5L493.7,354.5z M508.3,371.2l-0.1,0.1c-5.3,3-11.8,3-17.1-0.1l0,0c-0.3-0.2-0.4-0.6-0.3-0.9
	c0.2-0.3,0.5-0.4,0.8-0.3h0.1h0.1c4.9,2.8,11,2.8,15.9,0.1l0.1-0.1c0.3-0.2,0.7-0.1,0.9,0.3C508.7,370.6,508.6,370.9,508.3,371.2
	L508.3,371.2z"/>
<circle class="bcg-growth-tablet1" cx="613" cy="465.3" r="1.4"/>
<circle class="bcg-growth-tablet1" cx="625.1" cy="465.3" r="1.4"/>
<path class="bcg-growth-tablet1" d="M627,479.5l-0.1,0.1c-5,2.8-11,2.8-15.9-0.1H611h-0.1c-0.3-0.2-0.7,0-0.8,0.3c-0.2,0.3,0,0.7,0.3,0.8l0,0
	c5.3,3,11.8,3,17.1,0.1l0.1-0.1c0.3-0.2,0.4-0.6,0.3-0.9C627.7,479.5,627.3,479.4,627,479.5L627,479.5z"/>
<path class="bcg-growth-tablet3" d="M270.4,1213.7c-10.8,0-19.5,8.7-19.5,19.5c0,10.8,8.7,19.5,19.5,19.5c10.8,0,19.5-8.7,19.5-19.5
	S281.2,1213.7,270.4,1213.7L270.4,1213.7z M276.5,1225.6c0.7,0,1.3,0.6,1.3,1.4c0,0.7-0.6,1.4-1.3,1.4c-0.7,0-1.3-0.6-1.3-1.4
	C275.1,1226.2,275.7,1225.6,276.5,1225.6L276.5,1225.6z M264.4,1225.6c0.7,0,1.3,0.6,1.3,1.4c0,0.7-0.6,1.4-1.3,1.4
	s-1.3-0.6-1.3-1.4S263.7,1225.6,264.4,1225.6L264.4,1225.6z M279,1242.4l-0.1,0.1c-5.3,3-11.8,3-17.1-0.1l0,0
	c-0.3-0.2-0.4-0.6-0.3-0.9c0.2-0.3,0.5-0.4,0.8-0.3h0.1h0.1c4.9,2.8,11,2.8,15.9,0.1l0.1-0.1c0.3-0.2,0.7-0.1,0.9,0.3
	C279.4,1241.8,279.3,1242.1,279,1242.4L279,1242.4z"/>
<circle class="bcg-growth-tablet1" cx="264.4" cy="1226.9" r="1.4"/>
<circle class="bcg-growth-tablet1" cx="276.5" cy="1226.9" r="1.4"/>
<path class="bcg-growth-tablet1" d="M278.4,1241.3l-0.1,0.1c-5,2.8-11,2.8-15.9-0.1h-0.1h-0.1c-0.3-0.2-0.7,0-0.8,0.3c-0.2,0.3,0,0.6,0.3,0.8l0,0
	c5.3,3,11.8,3,17.1,0.1l0.1-0.1c0.3-0.2,0.4-0.6,0.2-0.9C279.1,1241.2,278.7,1241.1,278.4,1241.3L278.4,1241.3z"/>
<path class="bcg-growth-tablet3" d="M188,1082.1c-10.8,0-19.5,8.7-19.5,19.5c0,10.8,8.7,19.5,19.5,19.5c10.8,0,19.5-8.7,19.5-19.5
	S198.8,1082.1,188,1082.1L188,1082.1z M194,1094.1c0.7,0,1.3,0.6,1.3,1.4c0,0.7-0.6,1.3-1.3,1.3c-0.7,0-1.3-0.6-1.3-1.3
	C192.7,1094.6,193.3,1094.1,194,1094.1L194,1094.1z M181.9,1094.1c0.7,0,1.4,0.6,1.4,1.4c0,0.7-0.6,1.3-1.3,1.3
	c-0.7,0-1.3-0.6-1.4-1.3C180.6,1094.6,181.2,1094.1,181.9,1094.1L181.9,1094.1L181.9,1094.1z M196.6,1110.8l-0.1,0.1
	c-5.3,3-11.8,3-17.1-0.1l0,0c-0.3-0.2-0.4-0.6-0.3-0.9c0.2-0.3,0.5-0.4,0.8-0.3h0.1h0.1c4.9,2.8,11,2.8,15.9,0.1l0.1-0.1
	c0.3-0.2,0.7-0.1,0.9,0.3C197,1110.2,196.9,1110.6,196.6,1110.8L196.6,1110.8z"/>
<circle class="bcg-growth-tablet1" cx="181.9" cy="1095.4" r="1.4"/>
<circle class="bcg-growth-tablet1" cx="194" cy="1095.4" r="1.4"/>
<path class="bcg-growth-tablet1" d="M195.9,1109.7l-0.1,0.1c-5,2.8-11,2.8-15.9-0.1h-0.1h-0.1c-0.3-0.2-0.7,0-0.8,0.3c-0.2,0.3,0,0.6,0.3,0.8l0,0
	c5.3,3,11.8,3,17.1,0.1l0.1-0.1c0.3-0.2,0.4-0.6,0.2-0.9C196.6,1109.6,196.3,1109.5,195.9,1109.7L195.9,1109.7z"/>
<path class="bcg-growth-tablet3" d="M636.8,904.5c-10.8,0-19.5,8.7-19.5,19.5s8.7,19.5,19.5,19.5c10.8,0,19.5-8.7,19.5-19.5l0,0
	C656.3,913.2,647.6,904.5,636.8,904.5z M642.9,916.4c0.7,0,1.3,0.6,1.3,1.4c0,0.8-0.6,1.3-1.4,1.3c-0.7,0-1.3-0.6-1.3-1.3
	C641.6,917,642.1,916.4,642.9,916.4L642.9,916.4L642.9,916.4z M630.8,916.4c0.7,0,1.3,0.6,1.3,1.4c0,0.8-0.6,1.3-1.4,1.3
	c-0.7,0-1.3-0.6-1.3-1.3C629.4,917,630.1,916.4,630.8,916.4L630.8,916.4L630.8,916.4z M645.4,933.1l-0.1,0.1c-5.3,3-11.8,3-17.1-0.1
	l0,0c-0.3-0.2-0.4-0.6-0.3-0.9c0.2-0.3,0.5-0.4,0.8-0.3h0.1h0.1c4.9,2.8,11,2.8,15.9,0.1l0.1-0.1c0.3-0.2,0.7-0.1,0.9,0.3
	C645.8,932.6,645.7,932.9,645.4,933.1L645.4,933.1z"/>
<circle class="bcg-growth-tablet1" cx="630.8" cy="917.7" r="1.4"/>
<circle class="bcg-growth-tablet1" cx="642.9" cy="917.7" r="1.4"/>
<path class="bcg-growth-tablet1" d="M644.8,932l-0.1,0.1c-5,2.8-11,2.8-15.9-0.1h-0.1h-0.1c-0.3-0.2-0.7,0-0.8,0.3c-0.2,0.3,0,0.7,0.3,0.8l0,0
	c5.3,3,11.8,3,17.1,0.1l0.1-0.1c0.3-0.2,0.4-0.6,0.3-0.9S645.1,931.9,644.8,932L644.8,932z"/>
<path class="bcg-growth-tablet3" d="M365.1,271.2c-10.8,0-19.5,8.7-19.5,19.5c0,10.8,8.7,19.5,19.5,19.5c10.8,0,19.5-8.7,19.5-19.5l0,0
	C384.6,279.9,375.9,271.2,365.1,271.2z M371.1,283.1c0.7,0,1.3,0.6,1.3,1.3s-0.6,1.4-1.3,1.4c-0.7,0-1.3-0.6-1.3-1.3l0,0
	C369.8,283.7,370.4,283.1,371.1,283.1z M359.1,283.1c0.7,0,1.3,0.6,1.3,1.3s-0.6,1.4-1.3,1.4s-1.3-0.6-1.3-1.3l0,0
	C357.7,283.7,358.3,283.1,359.1,283.1L359.1,283.1z M373.7,299.8l-0.1,0.1c-5.3,3-11.8,3-17.1-0.1l0,0c-0.3-0.2-0.4-0.6-0.3-0.9
	c0.2-0.3,0.5-0.4,0.8-0.3h0.1h0.1c4.9,2.8,11,2.8,15.9,0.1l0.1-0.1c0.3-0.2,0.7-0.1,0.9,0.3C374.1,299.3,374,299.6,373.7,299.8
	L373.7,299.8z"/>
<circle class="bcg-growth-tablet1" cx="359.1" cy="284.4" r="1.3"/>
<circle class="bcg-growth-tablet1" cx="371.1" cy="284.4" r="1.3"/>
<path class="bcg-growth-tablet1" d="M373.1,298.7l-0.1,0.1c-5,2.8-11,2.8-15.9-0.1H357H357c-0.3-0.2-0.7,0-0.8,0.3c-0.2,0.3,0,0.7,0.3,0.8l0,0
	c5.3,3,11.8,3,17.1,0.1l0.1-0.1c0.3-0.2,0.4-0.6,0.3-0.9C373.8,298.7,373.4,298.6,373.1,298.7L373.1,298.7z"/>
<g>
	<path class="bcg-growth-tablet3" d="M652.9,310.9c-20.1,0-36.4,16.3-36.4,36.4c0,20.1,16.3,36.4,36.4,36.4c20.1,0,36.4-16.3,36.4-36.4
		C689.3,327.2,673,310.9,652.9,310.9L652.9,310.9z M664.1,333.1c1.4,0,2.5,1.1,2.5,2.5c0,1.4-1.1,2.5-2.5,2.5
		c-1.4,0-2.5-1.1-2.5-2.5l0,0C661.7,334.2,662.8,333.1,664.1,333.1L664.1,333.1z M641.6,333.1c1.4,0,2.5,1.1,2.5,2.5
		c0,1.4-1.1,2.5-2.5,2.5c-1.4,0-2.5-1.1-2.5-2.5l0,0C639.2,334.2,640.2,333.1,641.6,333.1L641.6,333.1z M668.9,364.3l-0.2,0.1
		c-9.9,5.6-22.1,5.5-31.9-0.1l0,0c-0.6-0.3-0.7-1-0.4-1.6c0.3-0.5,0.9-0.7,1.5-0.5h0.1l0.1,0.1c9.2,5.2,20.4,5.2,29.6,0.1l0.2-0.1
		c0.6-0.3,1.3-0.1,1.6,0.5C669.7,363.3,669.5,363.9,668.9,364.3L668.9,364.3z"/>
	<circle class="bcg-growth-tablet1" cx="641.6" cy="335.6" r="2.5"/>
	<circle class="bcg-growth-tablet1" cx="664.1" cy="335.6" r="2.5"/>
	<path class="bcg-growth-tablet1" d="M667.8,362.2l-0.2,0.1c-9.2,5.2-20.4,5.1-29.6-0.1l-0.1-0.1h-0.1c-0.6-0.3-1.3,0.1-1.5,0.7
		c-0.2,0.5,0,1.1,0.5,1.5l0,0c9.9,5.6,22,5.6,31.9,0.1l0.2-0.1c0.6-0.3,0.8-1,0.5-1.6C669.1,362.1,668.4,361.9,667.8,362.2
		L667.8,362.2z"/>
</g>
<g>
	<path class="bcg-growth-tablet3" d="M537.8,140.4c-20.1,0-36.4,16.3-36.4,36.4s16.3,36.4,36.4,36.4s36.4-16.3,36.4-36.4S557.8,140.4,537.8,140.4
		L537.8,140.4z M549,162.6c1.4,0,2.5,1.1,2.5,2.5s-1.1,2.5-2.5,2.5s-2.5-1.1-2.5-2.5l0,0C546.6,163.7,547.7,162.6,549,162.6
		L549,162.6z M526.5,162.6c1.4,0,2.5,1.1,2.5,2.5s-1.1,2.5-2.5,2.5c-1.4,0-2.5-1.1-2.5-2.5l0,0C524,163.7,525.1,162.6,526.5,162.6
		L526.5,162.6z M553.8,193.8l-0.2,0.1c-9.9,5.6-22.1,5.5-31.9-0.1l0,0c-0.6-0.3-0.7-1-0.4-1.6c0.3-0.5,0.9-0.7,1.5-0.5h0.1l0.1,0.1
		c9.2,5.2,20.4,5.2,29.6,0.1l0.2-0.1c0.6-0.3,1.3-0.1,1.6,0.5C554.6,192.8,554.4,193.4,553.8,193.8L553.8,193.8z"/>
	<circle class="bcg-growth-tablet1" cx="526.5" cy="165" r="2.5"/>
	<circle class="bcg-growth-tablet1" cx="549" cy="165" r="2.5"/>
	<path class="bcg-growth-tablet1" d="M552.7,191.7l-0.2,0.1c-9.2,5.2-20.4,5.1-29.6-0.1l-0.1-0.1h-0.1c-0.6-0.3-1.3,0.1-1.5,0.7
		c-0.2,0.5,0,1.1,0.5,1.5l0,0c9.9,5.6,22,5.6,31.9,0.1l0.2-0.1c0.6-0.3,0.8-1,0.5-1.6C554,191.6,553.2,191.4,552.7,191.7
		L552.7,191.7z"/>
</g>
<path class="bcg-growth-tablet3" d="M356.1,658.9c-20.1,0-36.4,16.3-36.4,36.4c0,20.1,16.3,36.4,36.4,36.4c20.1,0,36.4-16.3,36.4-36.4
	C392.5,675.2,376.2,658.9,356.1,658.9L356.1,658.9z M367.3,681.1c1.4,0,2.5,1.1,2.5,2.5c0,1.4-1.1,2.5-2.5,2.5
	c-1.4,0-2.5-1.1-2.5-2.5l0,0C364.9,682.2,366,681.1,367.3,681.1L367.3,681.1z M344.8,681.1c1.4,0,2.5,1.1,2.5,2.5
	c0,1.4-1.1,2.5-2.5,2.5s-2.5-1.1-2.5-2.5l0,0C342.4,682.2,343.5,681.1,344.8,681.1L344.8,681.1z M372.1,712.3l-0.2,0.1
	c-9.9,5.6-22.1,5.5-31.9-0.1l0,0c-0.6-0.3-0.7-1-0.4-1.6c0.3-0.5,0.9-0.7,1.5-0.5h0.1l0.1,0.1c9.2,5.2,20.4,5.2,29.6,0.1l0.2-0.1
	c0.6-0.3,1.3-0.1,1.6,0.5S372.7,711.9,372.1,712.3L372.1,712.3z"/>
<circle class="bcg-growth-tablet1" cx="344.8" cy="683.6" r="2.5"/>
<circle class="bcg-growth-tablet1" cx="367.3" cy="683.6" r="2.5"/>
<path class="bcg-growth-tablet1" d="M371,710.2l-0.2,0.1c-9.2,5.2-20.4,5.1-29.6-0.1l-0.1-0.1h-0.1c-0.6-0.3-1.3,0.1-1.5,0.7
	c-0.2,0.5,0,1.1,0.5,1.5l0,0c9.9,5.6,22,5.6,31.9,0.1l0.2-0.1c0.6-0.3,0.8-1,0.5-1.6C372.3,710.1,371.6,709.9,371,710.2L371,710.2
	L371,710.2z"/>
<path class="bcg-growth-tablet3" d="M257.9,975.6c-20.1,0-36.4,16.3-36.4,36.4c0,20.1,16.3,36.4,36.4,36.4c20.1,0,36.4-16.3,36.4-36.4
	C294.2,991.9,277.9,975.6,257.9,975.6L257.9,975.6z M269.1,997.8c1.4,0,2.5,1.1,2.5,2.5c0,1.4-1.1,2.5-2.5,2.5
	c-1.4,0-2.5-1.1-2.5-2.5l0,0C266.6,998.9,267.7,997.8,269.1,997.8L269.1,997.8z M246.6,997.8c1.4,0,2.5,1.1,2.5,2.5
	c0,1.4-1.1,2.5-2.5,2.5c-1.4,0-2.5-1.1-2.5-2.5l0,0C244.1,998.9,245.2,997.8,246.6,997.8L246.6,997.8z M273.9,1028.9l-0.2,0.1
	c-9.9,5.6-22.1,5.5-31.9-0.1l0,0c-0.6-0.3-0.7-1-0.4-1.6c0.3-0.5,0.9-0.7,1.5-0.5h0.1l0.1,0.1c9.2,5.2,20.4,5.2,29.6,0.1l0.2-0.1
	c0.6-0.3,1.3-0.1,1.6,0.5C274.7,1027.9,274.5,1028.6,273.9,1028.9L273.9,1028.9L273.9,1028.9z"/>
<circle class="bcg-growth-tablet1" cx="246.6" cy="1000.2" r="2.5"/>
<circle class="bcg-growth-tablet1" cx="269.1" cy="1000.2" r="2.5"/>
<path class="bcg-growth-tablet1" d="M272.8,1026.9l-0.2,0.1c-9.2,5.2-20.4,5.1-29.6-0.1l-0.1-0.1h-0.1c-0.6-0.3-1.3,0.1-1.5,0.7
	c-0.2,0.5,0,1.1,0.5,1.5l0,0c9.9,5.6,22,5.6,31.9,0.1l0.2-0.1c0.6-0.3,0.8-1,0.5-1.6C274.1,1026.8,273.3,1026.6,272.8,1026.9
	L272.8,1026.9L272.8,1026.9z"/>
<path class="bcg-growth-tablet3" d="M398,1035c-26.8,0-48.5,21.7-48.5,48.5c0,26.8,21.7,48.5,48.5,48.5c26.8,0,48.5-21.7,48.5-48.5l0,0
	C446.5,1056.8,424.8,1035,398,1035z M413,1064.6c1.8,0,3.3,1.5,3.3,3.3c0,1.8-1.5,3.3-3.3,3.3s-3.3-1.5-3.3-3.3
	C409.7,1066.1,411.1,1064.6,413,1064.6L413,1064.6z M382.9,1064.6c1.8,0,3.3,1.5,3.3,3.3c0,1.8-1.5,3.3-3.3,3.3s-3.3-1.5-3.3-3.3
	C379.6,1066.1,381.1,1064.6,382.9,1064.6L382.9,1064.6z M419.3,1106.2l-0.2,0.1c-13.3,7.4-29.4,7.4-42.6-0.1l0,0
	c-0.8-0.4-1.1-1.4-0.7-2.1c0.4-0.8,1.4-1.1,2.1-0.7l0,0l0.1,0.1l0.1,0.1c12.2,6.9,27.2,7,39.5,0.1l0.2-0.1c0.8-0.4,1.7-0.2,2.2,0.6
	C420.4,1104.8,420.1,1105.8,419.3,1106.2L419.3,1106.2z"/>
<circle class="bcg-growth-tablet1" cx="382.9" cy="1067.9" r="3.3"/>
<circle class="bcg-growth-tablet1" cx="413" cy="1067.9" r="3.3"/>
<path class="bcg-growth-tablet1" d="M417.8,1103.5l-0.2,0.1c-12.3,6.9-27.3,6.8-39.5-0.1l-0.1-0.1l-0.1-0.1c-0.8-0.4-1.7-0.1-2.1,0.7
	c-0.4,0.8-0.1,1.7,0.7,2.1l0,0c13.2,7.5,29.4,7.5,42.6,0.1l0.2-0.1c0.8-0.4,1-1.4,0.6-2.2C419.5,1103.3,418.5,1103.1,417.8,1103.5
	L417.8,1103.5z"/>
<path class="bcg-growth-tablet3" d="M594.4,1153.6c-26.8,0-48.5,21.7-48.5,48.5c0,26.8,21.7,48.5,48.5,48.5c26.8,0,48.5-21.7,48.5-48.5l0,0
	C643,1175.4,621.2,1153.6,594.4,1153.6z M609.4,1183.3c1.8,0,3.3,1.5,3.3,3.3s-1.5,3.3-3.3,3.3c-1.8,0-3.3-1.5-3.3-3.3
	S607.6,1183.3,609.4,1183.3L609.4,1183.3z M579.4,1183.3c1.8,0,3.3,1.5,3.3,3.3s-1.5,3.3-3.3,3.3c-1.8,0-3.3-1.5-3.3-3.3
	S577.5,1183.3,579.4,1183.3L579.4,1183.3z M615.8,1224.9l-0.2,0.1c-13.3,7.4-29.4,7.4-42.6-0.1l0,0c-0.8-0.4-1.1-1.4-0.7-2.1
	c0.4-0.8,1.4-1.1,2.1-0.7l0.1,0.1l0.1,0.1c12.2,6.9,27.2,7,39.5,0.1l0.2-0.1c0.8-0.4,1.7-0.2,2.2,0.6
	C616.8,1223.4,616.6,1224.4,615.8,1224.9L615.8,1224.9z"/>
<circle class="bcg-growth-tablet1" cx="579.4" cy="1186.5" r="3.3"/>
<circle class="bcg-growth-tablet1" cx="609.4" cy="1186.5" r="3.3"/>
<path class="bcg-growth-tablet1" d="M614.3,1222.1l-0.2,0.1c-12.3,6.9-27.3,6.8-39.5-0.1l-0.1-0.1l-0.1-0.1c-0.8-0.4-1.7-0.1-2.1,0.7
	c-0.4,0.8-0.1,1.7,0.7,2.1l0,0l0,0c13.2,7.5,29.4,7.5,42.6,0.1l0.2-0.1c0.8-0.4,1-1.4,0.6-2.2C616,1221.9,615,1221.7,614.3,1222.1
	L614.3,1222.1z"/>
<path class="bcg-growth-tablet3" d="M-25.7,1178.8c-26.8,0-48.5,21.7-48.5,48.5c0,26.8,21.7,48.5,48.5,48.5s48.5-21.7,48.5-48.5l0,0
	C22.8,1200.6,1.1,1178.8-25.7,1178.8z M-10.7,1208.4c1.8,0,3.3,1.5,3.3,3.3c0,1.8-1.5,3.3-3.3,3.3s-3.3-1.5-3.3-3.3
	C-14,1209.9-12.5,1208.4-10.7,1208.4L-10.7,1208.4z M-40.8,1208.4c1.8,0,3.3,1.5,3.3,3.3c0,1.8-1.5,3.3-3.3,3.3s-3.3-1.5-3.3-3.3
	C-44,1209.9-42.6,1208.4-40.8,1208.4L-40.8,1208.4z M-4.3,1250l-0.2,0.1c-13.3,7.4-29.4,7.4-42.6-0.1l0,0c-0.8-0.4-1.1-1.4-0.7-2.1
	c0.4-0.8,1.4-1.1,2.1-0.7l0.1,0.1l0.1,0.1c12.2,6.9,27.2,7,39.5,0.1l0.2-0.1c0.8-0.4,1.7-0.2,2.2,0.6
	C-3.3,1248.6-3.6,1249.6-4.3,1250L-4.3,1250z"/>
<circle class="bcg-growth-tablet1" cx="-40.8" cy="1211.7" r="3.3"/>
<circle class="bcg-growth-tablet1" cx="-10.7" cy="1211.7" r="3.3"/>
<path class="bcg-growth-tablet1" d="M-5.9,1247.3l-0.2,0.1c-12.3,6.9-27.3,6.8-39.5-0.1l-0.1-0.1l-0.1-0.1c-0.8-0.4-1.7-0.1-2.1,0.7
	c-0.4,0.8-0.1,1.7,0.7,2.1l0,0c13.2,7.5,29.4,7.5,42.6,0.1l0.2-0.1c0.8-0.4,1-1.4,0.6-2.1C-4.1,1247.2-5.1,1246.8-5.9,1247.3
	L-5.9,1247.3L-5.9,1247.3z"/>
<path class="bcg-growth-tablet0" d="M737.8,1345.2c-21.6,0-39.2,17.6-39.2,39.2c0,21.6,17.6,39.2,39.2,39.2s39.2-17.6,39.2-39.2l0,0
	C777,1362.7,759.5,1345.2,737.8,1345.2z M750,1369.2c1.5,0,2.7,1.2,2.7,2.7s-1.2,2.7-2.7,2.7s-2.7-1.2-2.7-2.7l0,0
	C747.2,1370.4,748.4,1369.2,750,1369.2L750,1369.2L750,1369.2z M725.7,1369.2c1.5,0,2.7,1.2,2.7,2.7s-1.2,2.7-2.7,2.7
	s-2.7-1.2-2.7-2.7l0,0C723,1370.4,724.2,1369.2,725.7,1369.2C725.7,1369.2,725.7,1369.2,725.7,1369.2L725.7,1369.2z M755.1,1402.8
	l-0.2,0.1c-10.7,6-23.8,6-34.4-0.1l0,0c-0.6-0.4-0.8-1.1-0.5-1.8c0.3-0.6,1-0.8,1.6-0.5l0.1,0.1l0.1,0.1c9.9,5.6,22,5.6,31.9,0.1
	l0.2-0.1c0.6-0.4,1.4-0.1,1.7,0.5C756,1401.6,755.7,1402.4,755.1,1402.8L755.1,1402.8z"/>
<circle class="bcg-growth-tablet1" cx="725.7" cy="1371.8" r="2.7"/>
<circle class="bcg-growth-tablet1" cx="750" cy="1371.8" r="2.7"/>
<path class="bcg-growth-tablet1" d="M753.9,1400.5l-0.2,0.1c-9.9,5.5-22.1,5.5-31.9-0.1l-0.1-0.1l-0.1-0.1c-0.6-0.3-1.4,0.1-1.7,0.7
	c-0.3,0.6,0,1.3,0.5,1.6l0,0c10.7,6.1,23.7,6.1,34.4,0.1l0.2-0.1c0.6-0.4,0.8-1.1,0.5-1.7C755.3,1400.4,754.5,1400.2,753.9,1400.5
	L753.9,1400.5L753.9,1400.5z"/>
<path class="bcg-growth-tablet0" d="M192.3,1482.1c-21.6,0-39.2,17.6-39.2,39.2c0,21.6,17.6,39.2,39.2,39.2s39.2-17.6,39.2-39.2
	C231.5,1499.7,213.9,1482.1,192.3,1482.1L192.3,1482.1z M204.4,1506.1c1.5,0,2.7,1.2,2.7,2.7c0,1.5-1.2,2.7-2.7,2.7
	c-1.5,0-2.7-1.2-2.7-2.7l0,0C201.7,1507.3,202.9,1506.1,204.4,1506.1L204.4,1506.1L204.4,1506.1z M180.1,1506.1
	c1.5,0,2.7,1.2,2.7,2.7c0,1.5-1.2,2.7-2.7,2.7c-1.5,0-2.7-1.2-2.7-2.7l0,0C177.5,1507.3,178.7,1506.1,180.1,1506.1
	C180.2,1506.1,180.2,1506.1,180.1,1506.1L180.1,1506.1z M209.6,1539.7l-0.2,0.1c-10.7,6-23.8,6-34.4-0.1l0,0
	c-0.6-0.4-0.8-1.1-0.5-1.8c0.3-0.6,1-0.8,1.6-0.5l0.1,0.1l0.1,0.1c9.9,5.6,22,5.6,31.9,0.1l0.2-0.1c0.6-0.4,1.4-0.1,1.7,0.5
	C210.4,1538.5,210.2,1539.3,209.6,1539.7L209.6,1539.7z"/>
<circle class="bcg-growth-tablet1" cx="180.2" cy="1508.7" r="2.7"/>
<circle class="bcg-growth-tablet1" cx="204.4" cy="1508.7" r="2.7"/>
<path class="bcg-growth-tablet1" d="M208.4,1537.4l-0.2,0.1c-9.9,5.5-22.1,5.5-31.9-0.1l-0.1-0.1l-0.1-0.1c-0.6-0.3-1.4,0.1-1.7,0.7
	c-0.3,0.6,0,1.3,0.5,1.6l0,0c10.7,6.1,23.7,6.1,34.4,0.1l0.2-0.1c0.6-0.4,0.8-1.1,0.5-1.7C209.8,1537.3,209,1537.1,208.4,1537.4
	L208.4,1537.4z"/>
<path class="bcg-growth-tablet3" d="M583.8,1587.1c-15.5,0-28,12.5-28,28s12.5,28,28,28s28-12.5,28-28l0,0C611.8,1599.7,599.3,1587.1,583.8,1587.1z
	 M592.5,1604.2c1,0,1.9,0.8,1.9,1.9c0,1-0.8,1.9-1.9,1.9c-1,0-1.9-0.8-1.9-1.9C590.6,1605.1,591.4,1604.2,592.5,1604.2
	C592.5,1604.2,592.5,1604.2,592.5,1604.2L592.5,1604.2z M575.2,1604.2c1,0,1.9,0.8,1.9,1.9c0,1-0.8,1.9-1.9,1.9
	c-1,0-1.9-0.8-1.9-1.9C573.2,1605.1,574.1,1604.2,575.2,1604.2L575.2,1604.2L575.2,1604.2z M596.2,1628.2l-0.1,0.1
	c-7.6,4.3-16.9,4.2-24.6-0.1l0,0c-0.4-0.3-0.6-0.8-0.3-1.3c0.2-0.4,0.7-0.5,1.1-0.4h0.1h0.1c7.1,4,15.7,4,22.8,0.1l0.1-0.1
	c0.4-0.3,1-0.1,1.3,0.4C596.8,1627.5,596.6,1628,596.2,1628.2L596.2,1628.2z"/>
<circle class="bcg-growth-tablet1" cx="575.2" cy="1606.1" r="1.9"/>
<circle class="bcg-growth-tablet1" cx="592.5" cy="1606.1" r="1.9"/>
<path class="bcg-growth-tablet1" d="M595.3,1626.6l-0.1,0.1c-7.1,4-15.7,4-22.8-0.1h-0.1h-0.1c-0.5-0.1-1,0.2-1.1,0.7c-0.1,0.4,0.1,0.7,0.3,0.9l0,0
	c7.6,4.3,16.9,4.3,24.6,0.1l0.1-0.1c0.4-0.3,0.6-0.8,0.4-1.3C596.4,1626.5,595.8,1626.4,595.3,1626.6L595.3,1626.6z"/>
<path class="bcg-growth-tablet3" d="M371.3,1876.9c-10.8,0-19.5,8.7-19.5,19.5c0,10.8,8.7,19.5,19.5,19.5c10.8,0,19.5-8.7,19.5-19.5
	C390.9,1885.6,382.1,1876.9,371.3,1876.9L371.3,1876.9z M377.4,1888.8c0.7,0,1.3,0.6,1.3,1.4c0,0.7-0.6,1.4-1.3,1.4
	c-0.7,0-1.3-0.6-1.3-1.4C376,1889.3,376.7,1888.8,377.4,1888.8L377.4,1888.8z M365.3,1888.8c0.7,0,1.3,0.6,1.3,1.4
	c0,0.7-0.6,1.4-1.3,1.4s-1.3-0.6-1.3-1.4C364,1889.3,364.6,1888.8,365.3,1888.8L365.3,1888.8z M380,1905.5l-0.1,0.1
	c-5.3,3-11.8,3-17.1-0.1l0,0c-0.3-0.2-0.4-0.6-0.3-0.9c0.2-0.3,0.5-0.4,0.8-0.3h0.1h0.1c4.9,2.8,11,2.8,15.9,0.1l0.1-0.1
	c0.3-0.2,0.7-0.1,0.9,0.3C380.4,1904.9,380.3,1905.3,380,1905.5L380,1905.5z"/>
<circle class="bcg-growth-tablet1" cx="365.3" cy="1890.1" r="1.4"/>
<circle class="bcg-growth-tablet1" cx="377.4" cy="1890.1" r="1.4"/>
<path class="bcg-growth-tablet1" d="M379.3,1904.4l-0.1,0.1c-5,2.8-11,2.8-15.9-0.1h-0.1h-0.1c-0.3-0.2-0.7,0-0.8,0.3c-0.2,0.3,0,0.6,0.3,0.8l0,0
	c5.3,3,11.8,3,17.1,0.1l0.1-0.1c0.3-0.2,0.4-0.6,0.2-0.9C380,1904.3,379.6,1904.2,379.3,1904.4L379.3,1904.4z"/>
<path class="bcg-growth-tablet3" d="M288.9,1745.3c-10.8,0-19.5,8.7-19.5,19.5c0,10.8,8.7,19.5,19.5,19.5c10.8,0,19.5-8.7,19.5-19.5
	C308.4,1754,299.7,1745.3,288.9,1745.3L288.9,1745.3z M294.9,1757.2c0.7,0,1.3,0.6,1.3,1.4c0,0.7-0.6,1.3-1.3,1.3
	c-0.7,0-1.3-0.6-1.3-1.3C293.6,1757.8,294.2,1757.2,294.9,1757.2L294.9,1757.2z M282.9,1757.2c0.7,0,1.4,0.6,1.4,1.4
	c0,0.7-0.6,1.3-1.3,1.3c-0.7,0-1.3-0.6-1.4-1.3C281.5,1757.8,282.1,1757.2,282.9,1757.2L282.9,1757.2L282.9,1757.2z M297.5,1773.9
	l-0.1,0.1c-5.3,3-11.8,3-17.1-0.1l0,0c-0.3-0.2-0.4-0.6-0.3-0.9c0.2-0.3,0.5-0.4,0.8-0.3h0.1h0.1c4.9,2.8,11,2.8,15.9,0.1l0.1-0.1
	c0.3-0.2,0.7-0.1,0.9,0.3C297.9,1773.3,297.8,1773.7,297.5,1773.9L297.5,1773.9z"/>
<circle class="bcg-growth-tablet1" cx="282.9" cy="1758.5" r="1.4"/>
<circle class="bcg-growth-tablet1" cx="294.9" cy="1758.5" r="1.4"/>
<path class="bcg-growth-tablet1" d="M296.9,1772.8l-0.1,0.1c-5,2.8-11,2.8-15.9-0.1h-0.1h-0.1c-0.3-0.2-0.7,0-0.8,0.3c-0.2,0.3,0,0.6,0.3,0.8l0,0
	c5.3,3,11.8,3,17.1,0.1l0.1-0.1c0.3-0.2,0.4-0.6,0.2-0.9C297.6,1772.8,297.2,1772.7,296.9,1772.8L296.9,1772.8z"/>
<path class="bcg-growth-tablet3" d="M737.7,1567.6c-10.8,0-19.5,8.7-19.5,19.5c0,10.8,8.7,19.5,19.5,19.5c10.8,0,19.5-8.7,19.5-19.5l0,0
	C757.3,1576.4,748.5,1567.6,737.7,1567.6z M743.8,1579.5c0.7,0,1.3,0.6,1.3,1.4c0,0.8-0.6,1.3-1.4,1.3c-0.7,0-1.3-0.6-1.3-1.3
	C742.5,1580.1,743.1,1579.5,743.8,1579.5L743.8,1579.5L743.8,1579.5z M731.7,1579.5c0.7,0,1.3,0.6,1.3,1.4c0,0.8-0.6,1.3-1.4,1.3
	c-0.7,0-1.3-0.6-1.3-1.3C730.4,1580.1,731,1579.5,731.7,1579.5L731.7,1579.5L731.7,1579.5z M746.3,1596.3l-0.1,0.1
	c-5.3,3-11.8,3-17.1-0.1l0,0c-0.3-0.2-0.4-0.6-0.3-0.9c0.2-0.3,0.5-0.4,0.8-0.3h0.1h0.1c4.9,2.8,11,2.8,15.9,0.1l0.1-0.1
	c0.3-0.2,0.7-0.1,0.9,0.3C746.8,1595.7,746.7,1596.1,746.3,1596.3L746.3,1596.3z"/>
<circle class="bcg-growth-tablet1" cx="731.7" cy="1580.8" r="1.4"/>
<circle class="bcg-growth-tablet1" cx="743.8" cy="1580.8" r="1.4"/>
<path class="bcg-growth-tablet1" d="M745.7,1595.2l-0.1,0.1c-5,2.8-11,2.8-15.9-0.1h-0.1h-0.1c-0.3-0.2-0.7,0-0.8,0.3c-0.2,0.3,0,0.7,0.3,0.8l0,0
	c5.3,3,11.8,3,17.1,0.1l0.1-0.1c0.3-0.2,0.4-0.6,0.3-0.9C746.4,1595.1,746,1595,745.7,1595.2L745.7,1595.2z"/>
<path class="bcg-growth-tablet3" d="M457,1322c-20.1,0-36.4,16.3-36.4,36.4c0,20.1,16.3,36.4,36.4,36.4c20.1,0,36.4-16.3,36.4-36.4
	C493.4,1338.3,477.1,1322,457,1322L457,1322z M468.3,1344.2c1.4,0,2.5,1.1,2.5,2.5c0,1.4-1.1,2.5-2.5,2.5c-1.4,0-2.5-1.1-2.5-2.5
	l0,0C465.8,1345.3,466.9,1344.2,468.3,1344.2L468.3,1344.2z M445.7,1344.2c1.4,0,2.5,1.1,2.5,2.5c0,1.4-1.1,2.5-2.5,2.5
	c-1.4,0-2.5-1.1-2.5-2.5l0,0C443.3,1345.3,444.4,1344.2,445.7,1344.2L445.7,1344.2z M473.1,1375.4l-0.2,0.1
	c-9.9,5.6-22.1,5.5-31.9-0.1l0,0c-0.6-0.3-0.7-1-0.4-1.6c0.3-0.5,0.9-0.7,1.5-0.5h0.1l0.1,0.1c9.2,5.2,20.4,5.2,29.6,0.1l0.2-0.1
	c0.6-0.3,1.3-0.1,1.6,0.5C473.9,1374.4,473.6,1375.1,473.1,1375.4L473.1,1375.4z"/>
<circle class="bcg-growth-tablet1" cx="445.7" cy="1346.7" r="2.5"/>
<circle class="bcg-growth-tablet1" cx="468.3" cy="1346.7" r="2.5"/>
<path class="bcg-growth-tablet1" d="M471.9,1373.4l-0.2,0.1c-9.2,5.2-20.4,5.1-29.6-0.1l-0.1-0.1H442c-0.6-0.3-1.3,0.1-1.5,0.7
	c-0.2,0.5,0,1.1,0.5,1.5l0,0c9.9,5.6,22,5.6,31.9,0.1l0.2-0.1c0.6-0.3,0.8-1,0.5-1.6C473.2,1373.2,472.5,1373,471.9,1373.4
	L471.9,1373.4L471.9,1373.4z"/>
<path class="bcg-growth-tablet3" d="M358.8,1638.7c-20.1,0-36.4,16.3-36.4,36.4s16.3,36.4,36.4,36.4c20.1,0,36.4-16.3,36.4-36.4
	S378.9,1638.7,358.8,1638.7L358.8,1638.7z M370,1660.9c1.4,0,2.5,1.1,2.5,2.5c0,1.4-1.1,2.5-2.5,2.5c-1.4,0-2.5-1.1-2.5-2.5l0,0
	C367.6,1662,368.7,1660.9,370,1660.9L370,1660.9z M347.5,1660.9c1.4,0,2.5,1.1,2.5,2.5c0,1.4-1.1,2.5-2.5,2.5
	c-1.4,0-2.5-1.1-2.5-2.5l0,0C345,1662,346.1,1660.9,347.5,1660.9L347.5,1660.9z M374.8,1692l-0.2,0.1c-9.9,5.6-22.1,5.5-31.9-0.1
	l0,0c-0.6-0.3-0.7-1-0.4-1.6c0.3-0.5,0.9-0.7,1.5-0.5h0.1l0.1,0.1c9.2,5.2,20.4,5.2,29.6,0.1l0.2-0.1c0.6-0.3,1.3-0.1,1.6,0.5
	C375.6,1691,375.4,1691.7,374.8,1692L374.8,1692L374.8,1692z"/>
<circle class="bcg-growth-tablet1" cx="347.5" cy="1663.4" r="2.5"/>
<circle class="bcg-growth-tablet1" cx="370" cy="1663.4" r="2.5"/>
<path class="bcg-growth-tablet1" d="M373.7,1690l-0.2,0.1c-9.2,5.2-20.4,5.1-29.6-0.1l-0.1-0.1h-0.1c-0.6-0.3-1.3,0.1-1.5,0.7
	c-0.2,0.5,0,1.1,0.5,1.5l0,0c9.9,5.6,22,5.6,31.9,0.1l0.2-0.1c0.6-0.3,0.8-1,0.5-1.6C375,1689.9,374.3,1689.7,373.7,1690L373.7,1690
	L373.7,1690z"/>
<path class="bcg-growth-tablet3" d="M498.9,1698.2c-26.8,0-48.5,21.7-48.5,48.5s21.7,48.5,48.5,48.5s48.5-21.7,48.5-48.5l0,0
	C547.4,1719.9,525.7,1698.2,498.9,1698.2z M513.9,1727.8c1.8,0,3.3,1.5,3.3,3.3s-1.5,3.3-3.3,3.3c-1.8,0-3.3-1.5-3.3-3.3
	S512,1727.8,513.9,1727.8L513.9,1727.8z M483.8,1727.8c1.8,0,3.3,1.5,3.3,3.3s-1.5,3.3-3.3,3.3s-3.3-1.5-3.3-3.3
	S482,1727.8,483.8,1727.8L483.8,1727.8z M520.3,1769.4l-0.2,0.1c-13.3,7.4-29.4,7.4-42.6-0.1l0,0c-0.8-0.4-1.1-1.4-0.7-2.1
	c0.4-0.8,1.4-1.1,2.1-0.7l0,0l0.1,0.1l0.1,0.1c12.2,6.9,27.2,7,39.5,0.1l0.2-0.1c0.8-0.4,1.7-0.2,2.2,0.6
	C521.3,1768,521,1769,520.3,1769.4L520.3,1769.4z"/>
<circle class="bcg-growth-tablet1" cx="483.8" cy="1731.1" r="3.3"/>
<circle class="bcg-growth-tablet1" cx="513.9" cy="1731.1" r="3.3"/>
<path class="bcg-growth-tablet1" d="M518.7,1766.6l-0.2,0.1c-12.3,6.9-27.3,6.8-39.5-0.1l-0.1-0.1l-0.1-0.1c-0.8-0.4-1.7-0.1-2.1,0.7
	c-0.4,0.8-0.1,1.7,0.7,2.1l0,0c13.2,7.5,29.4,7.5,42.6,0.1l0.2-0.1c0.8-0.4,1-1.4,0.6-2.2C520.5,1766.4,519.5,1766.2,518.7,1766.6
	L518.7,1766.6z"/>
<path class="bcg-growth-tablet3" d="M695.3,1816.8c-26.8,0-48.5,21.7-48.5,48.5c0,26.8,21.7,48.5,48.5,48.5s48.5-21.7,48.5-48.5l0,0
	C743.9,1838.5,722.2,1816.8,695.3,1816.8z M710.3,1846.4c1.8,0,3.3,1.5,3.3,3.3c0,1.8-1.5,3.3-3.3,3.3c-1.8,0-3.3-1.5-3.3-3.3
	C707.1,1847.9,708.5,1846.4,710.3,1846.4L710.3,1846.4z M680.3,1846.4c1.8,0,3.3,1.5,3.3,3.3c0,1.8-1.5,3.3-3.3,3.3
	c-1.8,0-3.3-1.5-3.3-3.3C677,1847.9,678.5,1846.4,680.3,1846.4L680.3,1846.4z M716.7,1888l-0.2,0.1c-13.3,7.4-29.4,7.4-42.6-0.1l0,0
	c-0.8-0.4-1.1-1.4-0.7-2.1c0.4-0.8,1.4-1.1,2.1-0.7l0.1,0.1l0.1,0.1c12.2,6.9,27.2,7,39.5,0.1l0.2-0.1c0.8-0.4,1.7-0.2,2.2,0.6
	C717.8,1886.6,717.5,1887.6,716.7,1888L716.7,1888z"/>
<circle class="bcg-growth-tablet1" cx="680.3" cy="1849.7" r="3.3"/>
<circle class="bcg-growth-tablet1" cx="710.3" cy="1849.7" r="3.3"/>
<path class="bcg-growth-tablet1" d="M715.2,1885.2l-0.2,0.1c-12.3,6.9-27.3,6.8-39.5-0.1l-0.1-0.1l-0.1-0.1c-0.8-0.4-1.7-0.1-2.1,0.7
	c-0.4,0.8-0.1,1.7,0.7,2.1l0,0l0,0c13.2,7.5,29.4,7.5,42.6,0.1l0.2-0.1c0.8-0.4,1-1.4,0.6-2.2
	C716.9,1885.1,715.9,1884.8,715.2,1885.2L715.2,1885.2z"/>
<path class="bcg-growth-tablet3" d="M569.9,1961.6c-15.5,0-28,12.5-28,28s12.5,28,28,28c15.5,0,28-12.5,28-28l0,0
	C597.9,1974.1,585.4,1961.6,569.9,1961.6z M578.6,1978.6c1,0,1.9,0.8,1.9,1.9c0,1-0.8,1.9-1.9,1.9c-1,0-1.9-0.8-1.9-1.9
	C576.7,1979.5,577.5,1978.6,578.6,1978.6C578.5,1978.6,578.5,1978.6,578.6,1978.6L578.6,1978.6z M561.2,1978.6c1,0,1.9,0.8,1.9,1.9
	c0,1-0.8,1.9-1.9,1.9c-1,0-1.9-0.8-1.9-1.9C559.3,1979.5,560.1,1978.6,561.2,1978.6L561.2,1978.6L561.2,1978.6z M582.2,2002.7
	l-0.1,0.1c-7.6,4.3-16.9,4.2-24.6-0.1l0,0c-0.4-0.3-0.6-0.8-0.3-1.3c0.2-0.4,0.7-0.5,1.1-0.4h0.1h0.1c7.1,4,15.7,4,22.8,0.1l0.1-0.1
	c0.4-0.3,1-0.1,1.3,0.4C582.9,2001.9,582.7,2002.4,582.2,2002.7L582.2,2002.7z"/>
<path class="bcg-growth-tablet1" d="M581.4,2001.1l-0.1,0.1c-7.1,4-15.7,4-22.8-0.1h-0.1h-0.1c-0.5-0.1-1,0.2-1.1,0.7c-0.1,0.4,0.1,0.7,0.3,0.9l0,0
	c7.6,4.3,16.9,4.3,24.6,0.1l0.1-0.1c0.4-0.3,0.6-0.8,0.4-1.3S581.8,2000.8,581.4,2001.1L581.4,2001.1z"/>
<path class="bcg-growth-tablet3" d="M357.4,2251.3c-10.8,0-19.5,8.7-19.5,19.5c0,10.8,8.7,19.5,19.5,19.5c10.8,0,19.5-8.7,19.5-19.5
	S368.2,2251.3,357.4,2251.3L357.4,2251.3z M363.5,2263.2c0.7,0,1.3,0.6,1.3,1.4c0,0.7-0.6,1.4-1.3,1.4s-1.3-0.6-1.3-1.4
	C362.1,2263.8,362.7,2263.2,363.5,2263.2L363.5,2263.2z M351.4,2263.2c0.7,0,1.3,0.6,1.3,1.4c0,0.7-0.6,1.4-1.3,1.4
	c-0.7,0-1.3-0.6-1.3-1.4C350.1,2263.8,350.7,2263.2,351.4,2263.2L351.4,2263.2z M366,2279.9l-0.1,0.1c-5.3,3-11.8,3-17.1-0.1l0,0
	c-0.3-0.2-0.4-0.6-0.3-0.9c0.2-0.3,0.5-0.4,0.8-0.3h0.1h0.1c4.9,2.8,11,2.8,15.9,0.1l0.1-0.1c0.3-0.2,0.7-0.1,0.9,0.3
	C366.4,2279.4,366.3,2279.7,366,2279.9L366,2279.9z"/>
<circle class="bcg-growth-tablet1" cx="351.4" cy="2264.5" r="1.4"/>
<circle class="bcg-growth-tablet1" cx="363.5" cy="2264.5" r="1.4"/>
<path class="bcg-growth-tablet1" d="M365.4,2278.8l-0.1,0.1c-5,2.8-11,2.8-15.9-0.1h-0.1h-0.1c-0.3-0.2-0.7,0-0.8,0.3c-0.2,0.3,0,0.6,0.3,0.8l0,0
	c5.3,3,11.8,3,17.1,0.1l0.1-0.1c0.3-0.2,0.4-0.6,0.2-0.9C366.1,2278.8,365.7,2278.7,365.4,2278.8L365.4,2278.8z"/>
<path class="bcg-growth-tablet3" d="M344.9,2013.1c-20.1,0-36.4,16.3-36.4,36.4c0,20.1,16.3,36.4,36.4,36.4s36.4-16.3,36.4-36.4
	C381.2,2029.4,364.9,2013.1,344.9,2013.1L344.9,2013.1z M356.1,2035.3c1.4,0,2.5,1.1,2.5,2.5s-1.1,2.5-2.5,2.5
	c-1.4,0-2.5-1.1-2.5-2.5l0,0C353.6,2036.4,354.7,2035.3,356.1,2035.3L356.1,2035.3z M333.6,2035.3c1.4,0,2.5,1.1,2.5,2.5
	s-1.1,2.5-2.5,2.5s-2.5-1.1-2.5-2.5l0,0C331.1,2036.4,332.2,2035.3,333.6,2035.3L333.6,2035.3z M360.9,2066.5l-0.2,0.1
	c-9.9,5.6-22.1,5.5-31.9-0.1l0,0c-0.6-0.3-0.7-1-0.4-1.6c0.3-0.5,0.9-0.7,1.5-0.5h0.1l0.1,0.1c9.2,5.2,20.4,5.2,29.6,0.1l0.2-0.1
	c0.6-0.3,1.3-0.1,1.6,0.5S361.5,2066.2,360.9,2066.5L360.9,2066.5L360.9,2066.5z"/>
<circle class="bcg-growth-tablet1" cx="333.6" cy="2037.8" r="2.5"/>
<circle class="bcg-growth-tablet1" cx="356.1" cy="2037.8" r="2.5"/>
<path class="bcg-growth-tablet1" d="M359.8,2064.4l-0.2,0.1c-9.2,5.2-20.4,5.1-29.6-0.1l-0.1-0.1h-0.1c-0.6-0.3-1.3,0.1-1.5,0.7
	c-0.2,0.5,0,1.1,0.5,1.5l0,0c9.9,5.6,22,5.6,31.9,0.1l0.2-0.1c0.6-0.3,0.8-1,0.5-1.6C361.1,2064.3,360.3,2064.1,359.8,2064.4
	L359.8,2064.4L359.8,2064.4z"/>
<path class="bcg-growth-tablet3" d="M485,2072.6c-26.8,0-48.5,21.7-48.5,48.5s21.7,48.5,48.5,48.5c26.8,0,48.5-21.7,48.5-48.5l0,0
	C533.5,2094.3,511.8,2072.6,485,2072.6z M500,2102.2c1.8,0,3.3,1.5,3.3,3.3s-1.5,3.3-3.3,3.3c-1.8,0-3.3-1.5-3.3-3.3
	S498.1,2102.2,500,2102.2L500,2102.2z M469.9,2102.2c1.8,0,3.3,1.5,3.3,3.3s-1.5,3.3-3.3,3.3c-1.8,0-3.3-1.5-3.3-3.3
	S468.1,2102.2,469.9,2102.2L469.9,2102.2z M506.3,2143.8l-0.2,0.1c-13.3,7.4-29.4,7.4-42.6-0.1l0,0c-0.8-0.4-1.1-1.4-0.7-2.1
	c0.4-0.8,1.4-1.1,2.1-0.7l0,0l0.1,0.1l0.1,0.1c12.2,6.9,27.2,7,39.5,0.1l0.2-0.1c0.8-0.4,1.7-0.2,2.2,0.6
	C507.4,2142.4,507.1,2143.4,506.3,2143.8L506.3,2143.8z"/>
<circle class="bcg-growth-tablet1" cx="469.9" cy="2105.5" r="3.3"/>
<circle class="bcg-growth-tablet1" cx="500" cy="2105.5" r="3.3"/>
<path class="bcg-growth-tablet1" d="M504.8,2141l-0.2,0.1c-12.3,6.9-27.3,6.8-39.5-0.1l-0.1-0.1l-0.1-0.1c-0.8-0.4-1.7-0.1-2.1,0.7
	c-0.4,0.8-0.1,1.7,0.7,2.1l0,0c13.2,7.5,29.4,7.5,42.6,0.1l0.2-0.1c0.8-0.4,1-1.4,0.6-2.2C506.5,2140.9,505.5,2140.6,504.8,2141
	L504.8,2141z"/>
<path class="bcg-growth-tablet3" d="M681.4,2191.2c-26.8,0-48.5,21.7-48.5,48.5s21.7,48.5,48.5,48.5c26.8,0,48.5-21.7,48.5-48.5l0,0
	C730,2212.9,708.2,2191.2,681.4,2191.2z M696.4,2220.8c1.8,0,3.3,1.5,3.3,3.3s-1.5,3.3-3.3,3.3c-1.8,0-3.3-1.5-3.3-3.3
	S694.6,2220.8,696.4,2220.8L696.4,2220.8z M666.4,2220.8c1.8,0,3.3,1.5,3.3,3.3s-1.5,3.3-3.3,3.3c-1.8,0-3.3-1.5-3.3-3.3
	S664.5,2220.8,666.4,2220.8L666.4,2220.8z M702.8,2262.4l-0.2,0.1c-13.3,7.4-29.4,7.4-42.6-0.1l0,0c-0.8-0.4-1.1-1.4-0.7-2.1
	c0.4-0.8,1.4-1.1,2.1-0.7l0.1,0.1l0.1,0.1c12.2,6.9,27.2,7,39.5,0.1l0.2-0.1c0.8-0.4,1.7-0.2,2.2,0.6
	C703.8,2261,703.6,2262,702.8,2262.4L702.8,2262.4z"/>
<circle class="bcg-growth-tablet1" cx="666.4" cy="2224.1" r="3.3"/>
<circle class="bcg-growth-tablet1" cx="696.4" cy="2224.1" r="3.3"/>
<path class="bcg-growth-tablet1" d="M701.3,2259.7l-0.2,0.1c-12.3,6.9-27.3,6.8-39.5-0.1l-0.1-0.1l-0.1-0.1c-0.8-0.4-1.7-0.1-2.1,0.7
	c-0.4,0.8-0.1,1.7,0.7,2.1l0,0l0,0c13.2,7.5,29.4,7.5,42.6,0.1l0.2-0.1c0.8-0.4,1-1.4,0.6-2.2C703,2259.5,702,2259.2,701.3,2259.7
	L701.3,2259.7z"/>
<path class="bcg-growth-tablet3" d="M139.2,2322c-10.8,0-19.5,8.7-19.5,19.5c0,10.8,8.7,19.5,19.5,19.5c10.8,0,19.5-8.7,19.5-19.5
	S150.1,2322,139.2,2322L139.2,2322z M145.3,2333.9c0.7,0,1.3,0.6,1.3,1.4c0,0.7-0.6,1.4-1.3,1.4c-0.7,0-1.3-0.6-1.3-1.4
	C143.9,2334.5,144.6,2333.9,145.3,2333.9L145.3,2333.9z M133.2,2333.9c0.7,0,1.3,0.6,1.3,1.4c0,0.7-0.6,1.4-1.3,1.4
	c-0.7,0-1.3-0.6-1.3-1.4C131.9,2334.5,132.5,2333.9,133.2,2333.9L133.2,2333.9z M147.9,2350.6l-0.1,0.1c-5.3,3-11.8,3-17.1-0.1l0,0
	c-0.3-0.2-0.4-0.6-0.3-0.9c0.2-0.3,0.5-0.4,0.8-0.3h0.1h0.1c4.9,2.8,11,2.8,15.9,0.1l0.1-0.1c0.3-0.2,0.7-0.1,0.9,0.3
	C148.3,2350,148.2,2350.4,147.9,2350.6L147.9,2350.6z"/>
<circle class="bcg-growth-tablet1" cx="133.2" cy="2335.2" r="1.4"/>
<circle class="bcg-growth-tablet1" cx="145.3" cy="2335.2" r="1.4"/>
<path class="bcg-growth-tablet1" d="M147.2,2349.5l-0.1,0.1c-5,2.8-11,2.8-15.9-0.1h-0.1h-0.1c-0.3-0.2-0.7,0-0.8,0.3c-0.2,0.3,0,0.6,0.3,0.8l0,0
	c5.3,3,11.8,3,17.1,0.1l0.1-0.1c0.3-0.2,0.4-0.6,0.2-0.9C147.9,2349.5,147.6,2349.4,147.2,2349.5L147.2,2349.5z"/>
<path class="bcg-growth-tablet3" d="M56.8,2190.4c-10.8,0-19.5,8.7-19.5,19.5c0,10.8,8.7,19.5,19.5,19.5c10.8,0,19.5-8.7,19.5-19.5
	S67.6,2190.4,56.8,2190.4L56.8,2190.4z M62.8,2202.3c0.7,0,1.3,0.6,1.3,1.4c0,0.7-0.6,1.3-1.3,1.3s-1.3-0.6-1.3-1.3
	C61.5,2202.9,62.1,2202.3,62.8,2202.3L62.8,2202.3z M50.8,2202.3c0.7,0,1.4,0.6,1.4,1.4c0,0.7-0.6,1.3-1.3,1.3s-1.3-0.6-1.4-1.3
	C49.4,2202.9,50,2202.3,50.8,2202.3L50.8,2202.3L50.8,2202.3z M65.4,2219l-0.1,0.1c-5.3,3-11.8,3-17.1-0.1l0,0
	c-0.3-0.2-0.4-0.6-0.3-0.9c0.2-0.3,0.5-0.4,0.8-0.3h0.1h0.1c4.9,2.8,11,2.8,15.9,0.1l0.1-0.1c0.3-0.2,0.7-0.1,0.9,0.3
	C65.8,2218.5,65.7,2218.8,65.4,2219L65.4,2219z"/>
<circle class="bcg-growth-tablet1" cx="50.8" cy="2203.6" r="1.4"/>
<circle class="bcg-growth-tablet1" cx="62.8" cy="2203.6" r="1.4"/>
<path class="bcg-growth-tablet1" d="M64.8,2217.9l-0.1,0.1c-5,2.8-11,2.8-15.9-0.1h-0.1h-0.1c-0.3-0.2-0.7,0-0.8,0.3c-0.2,0.3,0,0.6,0.3,0.8l0,0
	c5.3,3,11.8,3,17.1,0.1l0.1-0.1c0.3-0.2,0.4-0.6,0.2-0.9C65.5,2217.9,65.1,2217.8,64.8,2217.9L64.8,2217.9z"/>
<path class="bcg-growth-tablet3" d="M126.7,2083.8c-20.1,0-36.4,16.3-36.4,36.4c0,20.1,16.3,36.4,36.4,36.4c20.1,0,36.4-16.3,36.4-36.4
	C163.1,2100.1,146.8,2083.8,126.7,2083.8L126.7,2083.8z M137.9,2106c1.4,0,2.5,1.1,2.5,2.5c0,1.4-1.1,2.5-2.5,2.5
	c-1.4,0-2.5-1.1-2.5-2.5l0,0C135.5,2107.1,136.6,2106,137.9,2106L137.9,2106z M115.4,2106c1.4,0,2.5,1.1,2.5,2.5
	c0,1.4-1.1,2.5-2.5,2.5c-1.4,0-2.5-1.1-2.5-2.5l0,0C113,2107.1,114.1,2106,115.4,2106L115.4,2106z M142.7,2137.2l-0.2,0.1
	c-9.9,5.6-22.1,5.5-31.9-0.1l0,0c-0.6-0.3-0.7-1-0.4-1.6c0.3-0.5,0.9-0.7,1.5-0.5h0.1l0.1,0.1c9.2,5.2,20.4,5.2,29.6,0.1l0.2-0.1
	c0.6-0.3,1.3-0.1,1.6,0.5C143.5,2136.2,143.3,2136.8,142.7,2137.2L142.7,2137.2L142.7,2137.2z"/>
<circle class="bcg-growth-tablet1" cx="115.4" cy="2108.5" r="2.5"/>
<circle class="bcg-growth-tablet1" cx="137.9" cy="2108.5" r="2.5"/>
<path class="bcg-growth-tablet1" d="M141.6,2135.1l-0.2,0.1c-9.2,5.2-20.4,5.1-29.6-0.1l-0.1-0.1h-0.1c-0.6-0.3-1.3,0.1-1.5,0.7
	c-0.2,0.5,0,1.1,0.5,1.5l0,0c9.9,5.6,22,5.6,31.9,0.1l0.2-0.1c0.6-0.3,0.8-1,0.5-1.6C142.9,2135,142.2,2134.8,141.6,2135.1
	L141.6,2135.1L141.6,2135.1z"/>
<path class="bcg-growth-tablet3" d="M266.8,2143.3c-26.8,0-48.5,21.7-48.5,48.5c0,26.8,21.7,48.5,48.5,48.5c26.8,0,48.5-21.7,48.5-48.5l0,0
	C315.3,2165,293.6,2143.3,266.8,2143.3z M281.8,2172.9c1.8,0,3.3,1.5,3.3,3.3s-1.5,3.3-3.3,3.3c-1.8,0-3.3-1.5-3.3-3.3
	S280,2172.9,281.8,2172.9L281.8,2172.9z M251.7,2172.9c1.8,0,3.3,1.5,3.3,3.3s-1.5,3.3-3.3,3.3c-1.8,0-3.3-1.5-3.3-3.3
	S249.9,2172.9,251.7,2172.9L251.7,2172.9z M288.2,2214.5l-0.2,0.1c-13.3,7.4-29.4,7.4-42.6-0.1l0,0c-0.8-0.4-1.1-1.4-0.7-2.1
	c0.4-0.8,1.4-1.1,2.1-0.7l0,0l0.1,0.1l0.1,0.1c12.2,6.9,27.2,7,39.5,0.1l0.2-0.1c0.8-0.4,1.7-0.2,2.2,0.6
	C289.2,2213.1,288.9,2214.1,288.2,2214.5L288.2,2214.5z"/>
<circle class="bcg-growth-tablet1" cx="251.7" cy="2176.2" r="3.3"/>
<circle class="bcg-growth-tablet1" cx="281.8" cy="2176.2" r="3.3"/>
<path class="bcg-growth-tablet1" d="M286.6,2211.7l-0.2,0.1c-12.3,6.9-27.3,6.8-39.5-0.1l-0.1-0.1l-0.1-0.1c-0.8-0.4-1.7-0.1-2.1,0.7
	c-0.4,0.8-0.1,1.7,0.7,2.1l0,0c13.2,7.5,29.4,7.5,42.6,0.1l0.2-0.1c0.8-0.4,1-1.4,0.6-2.2C288.4,2211.6,287.4,2211.3,286.6,2211.7
	L286.6,2211.7z"/>
<g>
	<path class="bcg-growth-tablet3" d="M519.7,2235.2c-58,0-105,47-105,105c0,58,47,105,105,105s105-47,105-105l0,0
		C624.7,2282.2,577.7,2235.2,519.7,2235.2z M552.2,2299.3c4,0,7.1,3.2,7.1,7.1s-3.2,7.1-7.1,7.1s-7.1-3.2-7.1-7.1
		S548.2,2299.3,552.2,2299.3L552.2,2299.3z M487.2,2299.3c4,0,7.1,3.2,7.1,7.1s-3.2,7.1-7.1,7.1s-7.1-3.2-7.1-7.1
		S483.2,2299.3,487.2,2299.3L487.2,2299.3z M566,2389.3l-0.5,0.2c-28.7,16.1-63.6,15.9-92.2-0.2l0,0c-1.7-0.8-2.4-2.9-1.5-4.6
		c0.8-1.7,2.9-2.4,4.6-1.6l0.1,0.1l0.1,0.1c26.5,15,58.9,15.1,85.5,0.2l0.5-0.2c1.7-0.9,3.7-0.3,4.7,1.2
		C568.2,2386.2,567.7,2388.4,566,2389.3L566,2389.3z"/>
	<circle class="bcg-growth-tablet1" cx="487.2" cy="2306.4" r="7.1"/>
	<circle class="bcg-growth-tablet1" cx="552.2" cy="2306.4" r="7.1"/>
	<path class="bcg-growth-tablet1" d="M562.7,2383.3l-0.5,0.2c-26.6,14.9-59,14.8-85.5-0.2l-0.1-0.1l-0.1-0.1c-1.7-0.8-3.7-0.1-4.6,1.6
		c-0.8,1.7-0.1,3.7,1.5,4.6l0,0l0,0c28.6,16.3,63.5,16.3,92.2,0.2l0.5-0.2c1.7-0.9,2.3-3.1,1.4-4.7
		C566.4,2383,564.3,2382.4,562.7,2383.3L562.7,2383.3z"/>
</g>
<path class="bcg-growth-tablet3" d="M75.2,1841.9c-26.8,0-48.5,21.7-48.5,48.5s21.7,48.5,48.5,48.5s48.5-21.7,48.5-48.5l0,0
	C123.8,1863.7,102,1841.9,75.2,1841.9z M90.2,1871.6c1.8,0,3.3,1.5,3.3,3.3s-1.5,3.3-3.3,3.3c-1.8,0-3.3-1.5-3.3-3.3
	S88.4,1871.6,90.2,1871.6L90.2,1871.6z M60.2,1871.6c1.8,0,3.3,1.5,3.3,3.3s-1.5,3.3-3.3,3.3s-3.3-1.5-3.3-3.3
	S58.3,1871.6,60.2,1871.6L60.2,1871.6z M96.6,1913.2l-0.2,0.1c-13.3,7.4-29.4,7.4-42.6-0.1l0,0c-0.8-0.4-1.1-1.4-0.7-2.1
	c0.4-0.8,1.4-1.1,2.1-0.7l0.1,0.1l0.1,0.1c12.2,6.9,27.2,7,39.5,0.1l0.2-0.1c0.8-0.4,1.7-0.2,2.2,0.6
	C97.6,1911.8,97.4,1912.8,96.6,1913.2L96.6,1913.2z"/>
<circle class="bcg-growth-tablet1" cx="60.2" cy="1874.9" r="3.3"/>
<circle class="bcg-growth-tablet1" cx="90.2" cy="1874.9" r="3.3"/>
<path class="bcg-growth-tablet1" d="M95.1,1910.4l-0.2,0.1c-12.3,6.9-27.3,6.8-39.5-0.1l-0.1-0.1l-0.1-0.1c-0.8-0.4-1.7-0.1-2.1,0.7
	c-0.4,0.8-0.1,1.7,0.7,2.1l0,0c13.2,7.5,29.4,7.5,42.6,0.1l0.2-0.1c0.8-0.4,1-1.4,0.6-2.1S95.8,1910,95.1,1910.4L95.1,1910.4
	L95.1,1910.4z"/>
<g>
	<path class="bcg-growth-tablet3" d="M551.9,310.9c-16.3,0-29.5,13.2-29.5,29.5c0,16.3,13.2,29.5,29.5,29.5c16.3,0,29.5-13.2,29.5-29.5l0,0
		C581.5,324.1,568.3,310.9,551.9,310.9z M561.1,328.9c1.1,0,2,0.9,2,2s-0.9,2-2,2c-1.1,0-2-0.9-2-2l0,0
		C559.1,329.8,560,328.9,561.1,328.9z M542.9,328.9c1.1,0,2,0.9,2,2s-0.9,2-2,2c-1.1,0-2-0.9-2-2l0,0
		C540.8,329.8,541.7,328.9,542.9,328.9L542.9,328.9z M565,354.2l-0.1,0.1c-8,4.5-17.9,4.5-25.9-0.1l0,0c-0.5-0.3-0.7-0.8-0.4-1.3
		c0.3-0.5,0.8-0.7,1.3-0.4l0,0h0.1h0.1c7.5,4.2,16.6,4.2,24,0.1l0.1-0.1c0.5-0.2,1-0.1,1.3,0.5C565.6,353.4,565.4,354,565,354.2
		L565,354.2z"/>
	<circle class="bcg-growth-tablet1" cx="542.9" cy="330.9" r="2"/>
	<circle class="bcg-growth-tablet1" cx="561.1" cy="330.9" r="2"/>
	<path class="bcg-growth-tablet1" d="M564.1,352.5l-0.1,0.1c-7.5,4.2-16.6,4.2-24-0.1h-0.1h-0.1c-0.5-0.3-1-0.1-1.3,0.4c-0.3,0.5-0.1,1,0.4,1.3l0,0
		l0,0c8,4.5,17.9,4.6,25.9,0.1l0.1-0.1c0.5-0.3,0.6-0.9,0.3-1.4C565,352.5,564.5,352.4,564.1,352.5L564.1,352.5z"/>
</g>
<g>
	<path class="bcg-growth-tablet3" d="M490.2,281.4c-11.4,0-20.7,9.3-20.7,20.7s9.3,20.7,20.7,20.7c11.4,0,20.7-9.3,20.7-20.7l0,0
		C510.9,290.6,501.7,281.4,490.2,281.4z M496.6,294c0.8,0,1.4,0.6,1.4,1.4c0,0.8-0.6,1.4-1.4,1.4s-1.4-0.6-1.4-1.4l0,0
		C495.2,294.7,495.8,294,496.6,294z M483.8,294c0.8,0,1.4,0.6,1.4,1.4c0,0.8-0.6,1.4-1.4,1.4c-0.8,0-1.4-0.6-1.4-1.4l0,0
		C482.4,294.7,483,294,483.8,294L483.8,294z M499.4,311.8L499.4,311.8c-5.7,3.2-12.6,3.2-18.2,0l0,0c-0.3-0.2-0.5-0.6-0.3-0.9
		c0.2-0.4,0.6-0.5,0.9-0.3l0,0h0.1h0.1c5.2,3,11.7,3,16.9,0.1l0.1-0.1c0.3-0.2,0.7-0.1,0.9,0.3C499.8,311.2,499.6,311.6,499.4,311.8
		L499.4,311.8z"/>
	<circle class="bcg-growth-tablet1" cx="483.8" cy="295.4" r="1.4"/>
	<circle class="bcg-growth-tablet1" cx="496.6" cy="295.4" r="1.4"/>
	<path class="bcg-growth-tablet1" d="M498.7,310.6L498.7,310.6c-5.3,3-11.7,3-16.9,0h-0.1h-0.1c-0.3-0.2-0.7-0.1-0.9,0.3c-0.2,0.3-0.1,0.7,0.3,0.9
		l0,0l0,0c5.6,3.2,12.5,3.2,18.2,0.1l0.1-0.1c0.3-0.2,0.4-0.6,0.2-0.9C499.4,310.6,499,310.5,498.7,310.6L498.7,310.6z"/>
</g>
<g>
	<path class="bcg-growth-tablet3" d="M394,374.3c-11.4,0-20.7,9.3-20.7,20.7s9.3,20.7,20.7,20.7c11.4,0,20.7-9.3,20.7-20.7l0,0
		C414.7,383.6,405.5,374.3,394,374.3z M400.4,386.9c0.8,0,1.4,0.6,1.4,1.4s-0.6,1.4-1.4,1.4s-1.4-0.6-1.4-1.4l0,0
		C399,387.6,399.6,386.9,400.4,386.9z M387.6,386.9c0.8,0,1.4,0.6,1.4,1.4s-0.6,1.4-1.4,1.4c-0.8,0-1.4-0.6-1.4-1.4l0,0
		C386.1,387.6,386.8,386.9,387.6,386.9L387.6,386.9z M403.2,404.7L403.2,404.7c-5.7,3.2-12.6,3.2-18.2,0l0,0
		c-0.3-0.2-0.5-0.6-0.3-0.9c0.2-0.3,0.6-0.5,0.9-0.3l0,0h0.1h0.1c5.2,3,11.7,3,16.9,0.1l0.1-0.1c0.3-0.2,0.7-0.1,0.9,0.3
		C403.5,404.1,403.4,404.5,403.2,404.7L403.2,404.7z"/>
	<circle class="bcg-growth-tablet1" cx="387.6" cy="388.3" r="1.4"/>
	<circle class="bcg-growth-tablet1" cx="400.4" cy="388.3" r="1.4"/>
	<path class="bcg-growth-tablet1" d="M402.5,403.5L402.5,403.5c-5.3,3-11.7,3-16.9,0h-0.1h-0.1c-0.3-0.2-0.7-0.1-0.9,0.3c-0.2,0.3-0.1,0.7,0.3,0.9
		l0,0l0,0c5.6,3.2,12.5,3.2,18.2,0.1l0.1-0.1c0.3-0.2,0.4-0.6,0.2-0.9C403.2,403.5,402.8,403.4,402.5,403.5L402.5,403.5z"/>
</g>
<g>
	<path class="bcg-growth-tablet3" d="M537.8,395c-11.4,0-20.7,9.3-20.7,20.7s9.3,20.7,20.7,20.7c11.4,0,20.7-9.3,20.7-20.7l0,0
		C558.5,404.4,549.3,395,537.8,395z M544.2,407.7c0.8,0,1.4,0.6,1.4,1.4s-0.6,1.4-1.4,1.4c-0.8,0-1.4-0.6-1.4-1.4l0,0
		C542.8,408.3,543.4,407.7,544.2,407.7z M531.4,407.7c0.8,0,1.4,0.6,1.4,1.4s-0.6,1.4-1.4,1.4c-0.8,0-1.4-0.6-1.4-1.4l0,0
		C529.9,408.3,530.6,407.7,531.4,407.7L531.4,407.7z M547,425.4L547,425.4c-5.7,3.2-12.6,3.2-18.2,0l0,0c-0.3-0.2-0.5-0.6-0.3-0.9
		c0.2-0.3,0.6-0.5,0.9-0.3l0,0h0.1h0.1c5.2,3,11.7,3,16.9,0.1l0.1-0.1c0.3-0.2,0.7-0.1,0.9,0.3C547.3,424.9,547.2,425.3,547,425.4
		L547,425.4z"/>
	<circle class="bcg-growth-tablet1" cx="531.4" cy="409.1" r="1.4"/>
	<circle class="bcg-growth-tablet1" cx="544.2" cy="409.1" r="1.4"/>
	<path class="bcg-growth-tablet1" d="M546.3,424.2L546.3,424.2c-5.3,3-11.7,3-16.9,0h-0.1h-0.1c-0.3-0.2-0.7-0.1-0.9,0.3c-0.2,0.3-0.1,0.7,0.3,0.9
		l0,0l0,0c5.6,3.2,12.5,3.2,18.2,0.1l0.1-0.1c0.3-0.2,0.4-0.6,0.2-0.9C547,424.2,546.6,424.1,546.3,424.2L546.3,424.2z"/>
</g>
<g>
	<path class="bcg-growth-tablet3" d="M546.5,250.4c-11.4,0-20.7,9.3-20.7,20.7s9.3,20.7,20.7,20.7s20.7-9.3,20.7-20.7l0,0
		C567.3,259.8,558,250.4,546.5,250.4z M552.9,263.1c0.8,0,1.4,0.6,1.4,1.4s-0.6,1.4-1.4,1.4c-0.8,0-1.4-0.6-1.4-1.4l0,0
		C551.5,263.7,552.2,263.1,552.9,263.1z M540.1,263.1c0.8,0,1.4,0.6,1.4,1.4s-0.6,1.4-1.4,1.4c-0.8,0-1.4-0.6-1.4-1.4l0,0
		C538.7,263.7,539.3,263.1,540.1,263.1L540.1,263.1z M555.7,280.9L555.7,280.9c-5.7,3.2-12.6,3.2-18.2,0l0,0
		c-0.3-0.2-0.5-0.6-0.3-0.9c0.2-0.3,0.6-0.5,0.9-0.3l0,0h0.1h0.1c5.2,3,11.7,3,16.9,0.1l0.1-0.1c0.3-0.2,0.7-0.1,0.9,0.3
		C556.1,280.3,556,280.7,555.7,280.9L555.7,280.9z"/>
	<circle class="bcg-growth-tablet1" cx="540.1" cy="264.5" r="1.4"/>
	<circle class="bcg-growth-tablet1" cx="552.9" cy="264.5" r="1.4"/>
	<path class="bcg-growth-tablet1" d="M555,279.7L555,279.7c-5.3,3-11.7,3-16.9,0H538H538c-0.3-0.2-0.7-0.1-0.9,0.3c-0.2,0.3-0.1,0.7,0.3,0.9l0,0
		l0,0c5.6,3.2,12.5,3.2,18.2,0.1l0.1-0.1c0.3-0.2,0.4-0.6,0.2-0.9C555.7,279.7,555.3,279.6,555,279.7L555,279.7z"/>
</g>
<g>
	<path class="bcg-growth-tablet3" d="M430.8,317.8c-13.1,0-23.8,10.7-23.8,23.8s10.7,23.8,23.8,23.8c13.1,0,23.8-10.7,23.8-23.8l0,0
		C454.6,328.4,444,317.8,430.8,317.8z M438.2,332.3c0.9,0,1.6,0.7,1.6,1.6c0,0.9-0.7,1.6-1.6,1.6c-0.9,0-1.6-0.7-1.6-1.6l0,0
		C436.6,333,437.3,332.3,438.2,332.3z M423.5,332.3c0.9,0,1.6,0.7,1.6,1.6c0,0.9-0.7,1.6-1.6,1.6c-0.9,0-1.6-0.7-1.6-1.6l0,0
		C421.9,333,422.6,332.3,423.5,332.3L423.5,332.3z M441.3,352.7l-0.1,0.1c-6.5,3.6-14.4,3.6-20.8-0.1l0,0c-0.4-0.2-0.5-0.7-0.3-1
		c0.2-0.4,0.7-0.5,1-0.3l0,0h0.1h0.1c6,3.4,13.3,3.4,19.3,0.1l0.1-0.1c0.4-0.2,0.8-0.1,1,0.4C441.8,352,441.7,352.4,441.3,352.7
		L441.3,352.7z"/>
	<circle class="bcg-growth-tablet1" cx="423.5" cy="333.8" r="1.6"/>
	<circle class="bcg-growth-tablet1" cx="438.2" cy="333.8" r="1.6"/>
	<path class="bcg-growth-tablet1" d="M440.6,351.2l-0.1,0.1c-6,3.3-13.3,3.3-19.3-0.1h-0.1h-0.1c-0.4-0.2-0.8-0.1-1,0.3c-0.2,0.4-0.1,0.8,0.3,1l0,0
		l0,0c6.5,3.7,14.4,3.7,20.8,0.1l0.1-0.1c0.4-0.3,0.5-0.7,0.3-1.1C441.3,351.2,440.9,351.1,440.6,351.2L440.6,351.2z"/>
</g>
<g>
	<path class="bcg-growth-tablet3" d="M632.1,546.8c-16.3,0-29.5,13.2-29.5,29.5c0,16.3,13.2,29.5,29.5,29.5c16.3,0,29.5-13.2,29.5-29.5l0,0
		C661.6,560,648.5,546.8,632.1,546.8z M641.2,564.8c1.1,0,2,0.9,2,2s-0.9,2-2,2c-1.1,0-2-0.9-2-2l0,0
		C639.3,565.7,640.1,564.8,641.2,564.8z M623,564.8c1.1,0,2,0.9,2,2s-0.9,2-2,2c-1.1,0-2-0.9-2-2l0,0
		C621,565.7,621.9,564.8,623,564.8L623,564.8z M645.2,590.1l-0.1,0.1c-8,4.5-17.9,4.5-25.9-0.1l0,0c-0.5-0.3-0.7-0.8-0.4-1.3
		c0.3-0.5,0.8-0.7,1.3-0.4l0,0h0.1h0.1c7.5,4.2,16.6,4.2,24,0.1l0.1-0.1c0.5-0.2,1-0.1,1.3,0.5C645.7,589.3,645.6,589.8,645.2,590.1
		L645.2,590.1z"/>
	<circle class="bcg-growth-tablet1" cx="623" cy="566.8" r="2"/>
	<circle class="bcg-growth-tablet1" cx="641.2" cy="566.8" r="2"/>
	<path class="bcg-growth-tablet1" d="M644.2,588.5l-0.1,0.1c-7.5,4.2-16.6,4.2-24-0.1H620H620c-0.5-0.3-1-0.1-1.3,0.4c-0.3,0.5-0.1,1,0.4,1.3l0,0
		l0,0c8,4.5,17.9,4.6,25.9,0.1l0.1-0.1c0.5-0.3,0.6-0.9,0.3-1.4C645.2,588.4,644.6,588.3,644.2,588.5L644.2,588.5z"/>
</g>
<path class="bcg-growth-tablet3" d="M604.2,213.2c-16.3,0-29.5,13.2-29.5,29.5c0,16.3,13.2,29.5,29.5,29.5c16.3,0,29.5-13.2,29.5-29.5
	S620.5,213.2,604.2,213.2L604.2,213.2z M613.3,231.2c1.1,0,2,0.9,2,2c0,1.1-0.9,2-2,2c-1.1,0-2-0.9-2-2l0,0
	C611.4,232.1,612.2,231.2,613.3,231.2z M595.1,231.2c1.1,0,2,0.9,2,2c0,1.1-0.9,2-2,2c-1.1,0-2-0.9-2-2l0,0
	C593.1,232.1,594,231.2,595.1,231.2L595.1,231.2z M617.3,256.5l-0.1,0.1c-8,4.5-17.9,4.5-25.9-0.1l0,0c-0.5-0.3-0.7-0.8-0.4-1.3
	c0.3-0.5,0.8-0.7,1.3-0.4h0.1h0.1c7.5,4.2,16.6,4.2,24,0.1l0.1-0.1c0.5-0.2,1-0.1,1.3,0.4C617.8,255.7,617.7,256.2,617.3,256.5
	L617.3,256.5z"/>
<circle class="bcg-growth-tablet1" cx="595.1" cy="233.2" r="2"/>
<circle class="bcg-growth-tablet1" cx="613.3" cy="233.2" r="2"/>
<path class="bcg-growth-tablet1" d="M616.3,254.8l-0.1,0.1c-7.5,4.2-16.6,4.2-24-0.1h-0.1h-0.1c-0.5-0.3-1-0.1-1.3,0.4c-0.3,0.5-0.1,1,0.4,1.3l0,0
	c8,4.5,17.9,4.6,25.9,0.1l0.1-0.1c0.5-0.3,0.6-0.9,0.3-1.4C617.3,254.8,616.7,254.6,616.3,254.8L616.3,254.8z"/>
<path class="bcg-growth-tablet3" d="M458,192.3c-19.9,0-35.9,16.1-35.9,35.9s16.1,35.9,35.9,35.9c19.9,0,35.9-16.1,35.9-35.9l0,0
	C493.9,208.3,477.9,192.3,458,192.3z M469.1,214.2c1.4,0,2.5,1.1,2.5,2.5s-1.1,2.5-2.5,2.5s-2.5-1.1-2.5-2.5
	C466.7,215.3,467.8,214.2,469.1,214.2C469.1,214.2,469.1,214.2,469.1,214.2L469.1,214.2z M446.9,214.2c1.4,0,2.5,1.1,2.5,2.5
	s-1.1,2.5-2.5,2.5c-1.4,0-2.5-1.1-2.5-2.5l0,0C444.5,215.3,445.6,214.2,446.9,214.2C446.9,214.2,446.9,214.2,446.9,214.2
	L446.9,214.2z M473.9,245l-0.2,0.1c-9.8,5.5-21.8,5.4-31.6-0.1l0,0c-0.6-0.3-0.7-1-0.4-1.6c0.3-0.5,0.9-0.7,1.5-0.5h0.1l0.1,0.1
	c9,5.1,20.2,5.2,29.2,0.1l0.2-0.1c0.6-0.3,1.3-0.1,1.6,0.5C474.6,244,474.4,244.6,473.9,245L473.9,245z"/>
<circle class="bcg-growth-tablet1" cx="446.9" cy="216.6" r="2.5"/>
<circle class="bcg-growth-tablet1" cx="469.1" cy="216.6" r="2.5"/>
<path class="bcg-growth-tablet1" d="M472.7,242.9l-0.2,0.1c-9.1,5.1-20.2,5.1-29.2-0.1l-0.1-0.1h-0.1c-0.6-0.3-1.3,0-1.5,0.6
	c-0.2,0.5,0,1.2,0.5,1.5l0,0c9.8,5.5,21.7,5.6,31.6,0.1l0.2-0.1c0.6-0.4,0.7-1,0.4-1.6C473.9,242.9,473.3,242.7,472.7,242.9
	L472.7,242.9z"/>
<g>
	<circle class="bcg-growth-tablet3" cx="443.7" cy="130.5" r="19.9"/>
	<circle class="bcg-growth-tablet1" cx="437.6" cy="124.2" r="1.4"/>
	<circle class="bcg-growth-tablet1" cx="449.9" cy="124.2" r="1.4"/>
	<path class="bcg-growth-tablet1" d="M435,139.8c5.4,3.1,12,3.1,17.5,0.1l0.1-0.1c0.3-0.2,0.4-0.6,0.3-0.9c-0.2-0.3-0.6-0.4-0.9-0.3l-0.1,0.1
		c-5,2.8-11.2,2.8-16.2-0.1c-0.3-0.2-0.7-0.1-0.9,0.3C434.6,139.2,434.7,139.6,435,139.8L435,139.8z"/>
</g>
<g>
	<circle class="bcg-growth-tablet3" cx="299.3" cy="56.7" r="19.9"/>
	<circle class="bcg-growth-tablet1" cx="293.1" cy="50.3" r="1.4"/>
	<circle class="bcg-growth-tablet1" cx="305.4" cy="50.3" r="1.4"/>
	<path class="bcg-growth-tablet1" d="M290.5,65.9c5.4,3.1,12,3.1,17.5,0.1l0.1-0.1c0.3-0.2,0.4-0.6,0.3-0.9c-0.2-0.3-0.6-0.4-0.9-0.3l-0.1,0.1
		c-5,2.8-11.2,2.8-16.2-0.1c-0.3-0.2-0.7-0.1-0.9,0.3C290.1,65.4,290.2,65.8,290.5,65.9L290.5,65.9z"/>
</g>
<g>
	<circle class="bcg-growth-tablet3" cx="667.7" cy="162.6" r="19.9"/>
	<circle class="bcg-growth-tablet1" cx="661.6" cy="156.2" r="1.4"/>
	<circle class="bcg-growth-tablet1" cx="673.8" cy="156.2" r="1.4"/>
	<path class="bcg-growth-tablet1" d="M659,171.8c5.4,3.1,12,3.1,17.5,0.1l0.1-0.1c0.3-0.2,0.4-0.6,0.3-0.9c-0.2-0.3-0.6-0.4-0.9-0.3l-0.1,0.1
		c-5,2.8-11.2,2.8-16.2-0.1c-0.3-0.2-0.7-0.1-0.9,0.3C658.5,171.2,658.6,171.7,659,171.8L659,171.8z"/>
</g>
<circle class="bcg-growth-tablet0" cx="673.9" cy="245.9" r="25.7"/>
<circle class="bcg-growth-tablet1" cx="666" cy="237.6" r="1.7"/>
<circle class="bcg-growth-tablet1" cx="681.8" cy="237.6" r="1.7"/>
<path class="bcg-growth-tablet1" d="M663,258.2L663,258.2v-1l-0.5,0.9c7.1,4,15.7,4,22.7,0.1l0.1-0.1c0.5-0.3,0.7-0.9,0.4-1.4
	c-0.3-0.5-0.9-0.7-1.4-0.4l-0.1,0.1c-6.4,3.6-14.3,3.6-20.7-0.1l-0.3-0.2h-0.3c-0.6,0-1,0.5-1,1C661.9,257.7,662.4,258.2,663,258.2z
	"/>
<g>
	<circle class="bcg-growth-tablet3" cx="601.2" cy="104" r="23"/>
	<circle class="bcg-growth-tablet1" cx="594.1" cy="96.6" r="1.6"/>
	<circle class="bcg-growth-tablet1" cx="608.3" cy="96.6" r="1.6"/>
	<path class="bcg-growth-tablet1" d="M591.4,114.9L591.4,114.9v-0.8l-0.4,0.6c6.3,3.6,14,3.6,20.2,0.1l0.1-0.1c0.4-0.2,0.5-0.6,0.3-1
		c-0.2-0.4-0.6-0.5-1-0.3c0,0,0,0-0.1,0l-0.1,0.1c-5.8,3.2-12.9,3.2-18.8-0.1l-0.2-0.1h-0.2c-0.4,0-0.7,0.3-0.7,0.7
		C590.7,114.5,591,114.9,591.4,114.9L591.4,114.9z"/>
</g>
<circle class="bcg-growth-tablet0" cx="678.3" cy="439.4" r="32"/>
<circle class="bcg-growth-tablet1" cx="668.4" cy="429.1" r="2.2"/>
<circle class="bcg-growth-tablet1" cx="688.2" cy="429.1" r="2.2"/>
<path class="bcg-growth-tablet1" d="M663.9,454.1L663.9,454.1l0.1,0.1l0.1,0.1c8.7,4.9,19.3,5,28.1,0.1l0.2-0.1c0.5-0.3,0.7-0.9,0.4-1.4
	c-0.3-0.5-0.9-0.7-1.4-0.4l-0.2,0.1c-8.1,4.5-17.9,4.5-26-0.1l-0.5,0.9l0.7-0.7l0,0c-0.4-0.4-1-0.4-1.5,0
	C663.5,453,663.5,453.8,663.9,454.1L663.9,454.1z"/>
</svg>
