<!-- Generator: Adobe Illustrator 20.1.0, SVG Export Plug-In  -->
<svg version="1.1"
     xmlns="http://www.w3.org/2000/svg" xmlns:xlink="http://www.w3.org/1999/xlink" xmlns:a="http://ns.adobe.com/AdobeSVGViewerExtensions/3.0/"
     x="0px" y="0px" width="133.5px" height="21.6px" viewBox="0 0 133.5 21.6" style="enable-background:new 0 0 133.5 21.6;"
     xml:space="preserve">
<style type="text/css">
    .st0{fill:#16214C;}
    .st1{fill:#27A8E0;}
</style>
<defs>
</defs>
<g>
    <g>
        <polygon class="st0" points="100.5,11.8 106.8,11.8 106.8,10.4 100.5,10.4 100.5,6.4 107.2,6.4 107.2,5 98.8,5 98.8,17.1 
            107.5,17.1 107.5,15.7 100.5,15.7         "/>
        <polygon class="st0" points="76.1,11.8 82.5,11.8 82.5,10.4 76.1,10.4 76.1,6.4 82.9,6.4 82.9,5 74.4,5 74.4,17.1 83.1,17.1 
            83.1,15.7 76.1,15.7         "/>
        <path class="st0" d="M39.5,14.3c-0.4,0.6-1,1-1.6,1.3c-0.6,0.3-1.3,0.4-2.1,0.4c-0.8,0-1.5-0.1-2.2-0.4C33,15.3,32.5,15,32,14.5
            c-0.4-0.4-0.8-1-1-1.6c-0.2-0.6-0.4-1.2-0.4-1.9c0-0.7,0.1-1.3,0.4-1.9c0.2-0.6,0.6-1.1,1-1.6c0.4-0.4,1-0.8,1.6-1.1
            c0.6-0.3,1.4-0.4,2.2-0.4c0.4,0,0.8,0,1.1,0.1c0.3,0.1,0.7,0.2,1,0.3c0.3,0.1,0.5,0.3,0.8,0.5c0.2,0.2,0.4,0.4,0.5,0.5l0.1,0.1
            l1.4-0.9l-0.1-0.2c-0.2-0.3-0.5-0.6-0.9-0.8c-0.3-0.2-0.7-0.4-1.1-0.6c-0.4-0.2-0.9-0.3-1.3-0.4c-0.5-0.1-1-0.1-1.4-0.1
            c-1,0-1.9,0.2-2.8,0.5c-0.8,0.3-1.6,0.8-2.2,1.3c-0.6,0.6-1.1,1.2-1.5,2c-0.4,0.8-0.5,1.6-0.5,2.5c0,0.9,0.2,1.8,0.5,2.5
            c0.3,0.8,0.8,1.4,1.5,2c0.6,0.6,1.4,1,2.2,1.3c0.9,0.3,1.8,0.5,2.8,0.5c0.6,0,1.2-0.1,1.7-0.2c0.5-0.1,1-0.3,1.4-0.5
            c0.4-0.2,0.8-0.5,1.1-0.7c0.3-0.3,0.6-0.6,0.8-0.9L41,15l-1.4-0.8L39.5,14.3z"/>
        <path class="st0" d="M54.6,6.5c-0.6-0.6-1.4-1-2.2-1.3c-0.8-0.3-1.8-0.5-2.8-0.5c-1,0-1.9,0.2-2.8,0.5c-0.8,0.3-1.6,0.8-2.2,1.3
            c-0.6,0.6-1.1,1.2-1.5,2c-0.4,0.8-0.5,1.6-0.5,2.5s0.2,1.8,0.5,2.5c0.4,0.8,0.8,1.4,1.5,2c0.6,0.6,1.4,1,2.2,1.3
            c0.8,0.3,1.8,0.5,2.8,0.5c1,0,1.9-0.2,2.8-0.5c0.8-0.3,1.6-0.8,2.2-1.3c0.6-0.6,1.1-1.2,1.5-2c0.4-0.8,0.5-1.6,0.5-2.5
            c0-0.9-0.2-1.8-0.5-2.5C55.8,7.8,55.3,7.1,54.6,6.5z M49.7,16c-0.8,0-1.5-0.1-2.2-0.4c-0.6-0.3-1.2-0.6-1.6-1.1
            c-0.4-0.4-0.8-1-1-1.6c-0.2-0.6-0.4-1.2-0.4-1.9c0-0.7,0.1-1.3,0.4-1.9c0.2-0.6,0.6-1.1,1-1.6c0.4-0.4,1-0.8,1.6-1.1
            c0.6-0.3,1.4-0.4,2.2-0.4s1.5,0.1,2.2,0.4c0.6,0.3,1.2,0.6,1.6,1.1c0.4,0.4,0.8,1,1,1.6c0.2,0.6,0.4,1.2,0.4,1.9
            c0,0.7-0.1,1.3-0.4,1.9c-0.2,0.6-0.6,1.1-1,1.6c-0.4,0.4-1,0.8-1.6,1.1C51.2,15.9,50.5,16,49.7,16z"/>
        <path class="st0" d="M68.8,6.5c-0.7-0.5-1.4-0.9-2.3-1.1C65.7,5.1,64.8,5,64,5h-4.5v12.1H64c0.8,0,1.7-0.1,2.5-0.4
            c0.8-0.2,1.6-0.6,2.3-1.1c0.7-0.5,1.2-1.1,1.6-1.9c0.4-0.8,0.6-1.7,0.6-2.7c0-1-0.2-1.9-0.6-2.7C70,7.7,69.5,7,68.8,6.5z
             M69.3,11.1c0,0.6-0.1,1.2-0.3,1.7c-0.2,0.5-0.6,1-1,1.5c-0.5,0.4-1.1,0.8-1.8,1c-0.7,0.3-1.6,0.4-2.5,0.4h-2.5V6.4h2.5
            c1,0,1.8,0.1,2.5,0.4c0.7,0.3,1.3,0.6,1.8,1c0.5,0.4,0.8,0.9,1,1.5C69.2,9.9,69.3,10.5,69.3,11.1z"/>
        <path class="st0" d="M93.4,10.7c0.4-0.2,0.8-0.4,1.1-0.8c0.5-0.5,0.7-1.1,0.7-1.7c0-0.6-0.1-1.1-0.4-1.6c-0.3-0.4-0.6-0.7-1-1
            c-0.4-0.2-0.9-0.4-1.4-0.5c-0.5-0.1-1-0.1-1.5-0.1h-4.1v12.1h4c0.8,0,1.5-0.1,2.1-0.2c0.6-0.2,1.2-0.4,1.6-0.7
            c0.4-0.3,0.8-0.7,1-1.1c0.2-0.4,0.4-0.9,0.4-1.4c0-0.9-0.3-1.6-0.9-2.2C94.5,11.1,94,10.9,93.4,10.7z M93.2,9.2
            c-0.1,0.2-0.3,0.4-0.6,0.6c-0.3,0.1-0.5,0.3-0.8,0.3c-0.3,0.1-0.6,0.1-0.9,0.1h-2.5V6.4h2.1c0.4,0,0.8,0,1.2,0.1
            c0.4,0.1,0.7,0.2,0.9,0.3c0.3,0.2,0.5,0.3,0.6,0.6c0.1,0.2,0.2,0.5,0.2,0.9C93.5,8.6,93.4,8.9,93.2,9.2z M94.1,13.6
            c0,0.4-0.1,0.7-0.3,1c-0.2,0.3-0.4,0.5-0.7,0.7c-0.3,0.2-0.7,0.3-1.1,0.4c-0.4,0.1-0.9,0.1-1.3,0.1h-2.3v-4.2h2.5
            c1,0,1.8,0.2,2.4,0.5C93.8,12.4,94.1,12.9,94.1,13.6z"/>
        <path class="st0" d="M116.2,5l-5.8,12.1h1.9l1.4-3.1h6.5l1.4,3.1h1.9L117.7,5H116.2z M119.5,12.6h-5.2l2.6-5.6L119.5,12.6z"/>
        <polygon class="st0" points="123,5 123,6.4 127.4,6.4 127.4,17.1 129.1,17.1 129.1,6.4 133.5,6.4 133.5,5         "/>
    </g>
    <g>
        <path class="st1" d="M5,7.7l2.4,5.1l4.4-10l4.9,12l1.5-3.5h3.9c0,0,0-0.1,0-0.1c0-6.1-4.9-11-11.1-11C4.9,0,0,4.9,0,11
            c0,0.1,0,0.2,0,0.2h3.2L5,7.7z"/>
        <path class="st1" d="M16.6,17.3L11.7,8l-4.4,7.9l-2.4-5.8l-1.2,2.1H0.1c0.8,6,5.4,9.5,10.9,9.5s10.2-3.5,10.9-9.5h-3L16.6,17.3z"
            />
    </g>
</g>
</svg>