<svg version="1.1" xmlns="http://www.w3.org/2000/svg" xmlns:xlink="http://www.w3.org/1999/xlink" xmlns:a="http://ns.adobe.com/AdobeSVGViewerExtensions/3.0/" x="0px" y="0px" width="300.8px" height="308.2px" viewBox="0 0 300.8 308.2" style="enable-background:new 0 0 300.8 308.2;" xml:space="preserve">
<style type="text/css">
.st-degoo-cloud-0{fill:#EAEAEA;}
</style>
<defs></defs>
<g>
<path class="st-degoo-cloud-0" d="M197.4,61.2c-5.7-5.7-13.9-9.6-23.8-9.6c0,0,0,0,0,0c0,0,0,0,0,0c-10.1,0-18.2,4.2-23.7,10.1
c-1.7-1.8-4.8-4.6-9.2-6.6c-0.4-0.2-4.4-2.3-11.3-2.9l-0.6-3.2c-0.1-0.6-0.5-1.1-1.1-1.4c-0.6-0.2-1.3-0.1-1.8,0.3l-6,4.7
c-7.9,1.4-14.3,5.4-18.6,10.7c-4.4,5.4-6.8,12.3-6.8,19.1c0,7.6,2.9,15.1,8.4,20.8c5.4,5.7,13.4,9.4,23.3,9.4c0,0,0,0,0,0
c0,0,0,0,0,0c10.1,0,18.2-3.9,23.7-9.8c1.6,1.7,4.5,4.5,8.3,6.4c0.2,0.1,5.6,3.1,13.5,3.5l0.8,3.2c0.1,0.6,0.6,1.1,1.2,1.3
c0.6,0.2,1.3,0.1,1.8-0.4l5.4-4.8c7.8-1.5,14.1-5.5,18.5-10.8c4.5-5.4,7-12.2,7-19C206.3,74.6,203.1,66.9,197.4,61.2z M126.1,109.1
c-9,0-15.9-3.3-20.7-8.3c-4.8-5-7.3-11.7-7.3-18.4c0-6,2.1-12,6-16.8c1.7-2.1,3.8-4,6.3-5.5l-1.6,1.2c-0.5,0.4-0.8,1.1-0.7,1.7
c0.1,0.7,0.6,1.2,1.2,1.4l5.7,1.9c-5.1,3.5-8.2,9.4-8.2,16c0,5.3,2,10.1,5.5,13.6c3.4,3.5,8.3,5.6,13.9,5.6c0,0,0,0,0,0
c0,0,0,0,0,0c5,0,9.5-1.7,12.8-4.6c1.8-1.5,3.2-3.4,4.3-5.4c0.8,2.6,2.2,5.6,4.2,8.5C142.7,105.4,135.5,109.1,126.1,109.1z
 M129.6,71.4c0.6,0.2,1.2,0.1,1.7-0.3c0.5-0.4,0.7-1,0.7-1.6l-0.2-1.7c2.2,0.8,4.7,2.2,6.7,4.8l0,0h0c0,0.1,0.9,1.1,1.7,2.8
c0.8,1.7,1.6,4,1.6,6.4c0,0.2,0,0.5,0,1c0,0.1,0,0.3,0,0.5c0,0.6-0.1,1.2-0.2,1.7c-0.6,3.8-2.4,7.1-5.1,9.4
c-2.7,2.4-6.3,3.8-10.4,3.8c-4.6,0-8.5-1.8-11.3-4.6c-2.8-2.8-4.4-6.8-4.4-11.2c0-6.5,3.6-12,9.2-14.4L129.6,71.4z M175.2,112.1
l-0.4-1.6l0,0c-0.2-0.8-0.9-1.4-1.8-1.4c-3.9,0-7.2-0.8-9.6-1.6c-1.2-0.4-2.1-0.8-2.7-1.1c-0.3-0.1-0.5-0.3-0.7-0.3l-0.2-0.8l0-0.7
h0l-0.1,0.7c-2.4-1.2-4.6-2.6-6.1-4c-0.8-0.7-1.4-1.2-1.8-1.7c-0.2-0.2-0.4,0-0.5-0.2l-0.1,0.2h0h0c-5-6-5.7-13.3-5.8-16.1
c0-0.3-0.3-0.7-0.3-1c0-0.1-0.3-0.3-0.3-0.4c0,0,0,0,0,0V82v0l0,0l0.3-0.1c0-3.4-0.9-6.2-1.9-8.3c-1-2.1-2-3.3-2-3.4l0,0
c-3.5-4.5-8.1-6.1-11.3-6.8c0,0,0,0-0.1,0c0,0-0.1,0-0.1,0c-0.1,0-0.2,0-0.3,0c-0.1,0-0.2,0-0.3,0c-0.1,0-0.2,0.1-0.4,0.1
c-0.1,0-0.1,0.1-0.2,0.1c-0.1,0.1-0.2,0.2-0.3,0.3c0,0-0.1,0.1-0.1,0.1c-0.1,0.2-0.3,0.4-0.3,0.6v0c0,0.2-0.1,0-0.1,0h0l0.2,2
l-14.4-4.7l12.1-9.4l0.3,1.7c0.1,0.8,0.9,1.5,1.7,1.5c3.7,0.2,6.5,0.9,8.4,1.5c1,0.3,1.7,0.6,2.1,0.8c0.2,0.1,0.4,0.2,0.5,0.2
l0.1,0.1l0,0v0l0.1,0.1c2.9,1.3,5.3,3.2,6.9,4.7c0.8,0.8,1.4,1.4,1.8,1.9c0.2,0.2,0.4,0.4,0.5,0.6l0.1,0.1l0,0l0,0l0,0
c5.4,6.8,5.6,14,5.6,16c0,0.2-0.1,0.3-0.1,0.4v0c0,0.1,0,0.1,0,0.2c0,0,0,0,0,0v0c0,4.7,1.3,8.4,3,10.9c1.6,2.5,3,3.8,3,3.9v0
c4,2.7,7.2,3.8,9.5,4.3c0.5,0.2,1.2,0.2,1.7-0.1c0.7-0.4,1.2-1.2,1.1-1.9l-0.2-1.4l8.4,2.5h0l6.3,1.5L175.2,112.1z M180.8,96.5
l-10.6-2.9c-0.6-0.2-1.3,0-1.7,0.4s-0.7,1.1-0.6,1.7l0.3,1.6c-1.6-0.6-3.5-1.4-5.1-2.9l-0.1,0l0,0l-0.2-0.2
c-0.5-0.5-1.8-1.8-2.9-3.7c-1.1-2-2.1-4.6-2.1-8c0-0.1,0-0.1,0-0.3c0-1,0.1-2,0.3-3c0.7-3.6,2.6-6.7,5.2-9
c2.7-2.2,6.2-3.6,10.2-3.6c4.6,0,8.5,1.8,11.3,4.6c2.8,2.8,4.4,6.8,4.4,11.2C189.3,88.6,186,93.9,180.8,96.5z M196.5,98.9
c-2.3,2.7-5.2,5.1-8.6,6.8l3.8-3.3c0.5-0.4,0.7-1.1,0.6-1.8s-0.7-1.2-1.3-1.3l-5.4-1.5c4.6-3.6,7.4-9.2,7.4-15.4
c0-5.3-2-10.4-5.5-13.9c-3.4-3.5-8.3-5.9-13.9-5.9c0,0,0,0,0,0c0,0,0,0,0,0c-4.9,0-9.2,1.9-12.5,4.6c-1.9,1.6-3.5,3.7-4.6,5.9
c-0.8-2.6-2.2-5.5-4.2-8.4c4.8-5.4,12-9.1,21.4-9.1c9,0,16.2,3.4,21.3,8.4c5,5,7.9,11.7,7.9,18.4C202.7,88.2,200.5,94.1,196.5,98.9
z"/>
<path class="st-degoo-cloud-0" d="M173.9,236.6v-65h11.7c1.5,0,2.8-0.7,3.4-2.1c0.6-1.4,0.3-2.9-0.8-3.9L152.5,130c-0.7-0.7-1.6-1.1-2.6-1.1
c-1,0-1.9,0.4-2.6,1.1l-34.7,34.7c-1,1-1.4,2.4-0.8,3.8c0.6,1.4,1.9,2.1,3.4,2.1h12.7v65.5c0,2,1.5,3.7,3.5,3.7
c2,0,3.5-1.6,3.5-3.7v-68.8c0-1-0.5-2-1.2-2.6c-0.7-0.7-1.7-1.1-2.7-1.1h-7l25.9-25.8l26.8,26.8h-7c-1,0-2,0.4-2.7,1.1
c-0.7,0.7-1.2,1.6-1.2,2.6v67.9c0,2,1.7,3.9,3.7,3.9c2,0,3.9-1.4,3.9-3.4H173.9z"/>
<path class="st-degoo-cloud-0" d="M126.9,250.6v29.9c0,2,2,3.7,4,3.7c2,0,4-1.6,4-3.7v-30.1c0-2-2-3.7-4-3.7c-2,0-4,1.6-4,3.6"/>
<path class="st-degoo-cloud-0" d="M165.9,250.6V269c0,2,1.5,3.7,3.5,3.7c2,0,3.5-1.6,3.5-3.7v-18.6c0-2-1.5-3.7-3.5-3.7c-2,0-3.5,1.6-3.5,3.6"/>
<path class="st-degoo-cloud-0" d="M126.9,292.6v12c0,2,2,3.7,4,3.7c2,0,4-1.6,4-3.7v-11.7c0-2-2-3.7-4-3.7c-2,0-4,1.6-4,3.6"/>
<path class="st-degoo-cloud-0" d="M165.9,280.6v11.6c0,2,1.5,3.7,3.5,3.7c2,0,3.5-1.6,3.5-3.7v-11.7c0-2-1.5-3.7-3.5-3.7c-2,0-3.5,1.6-3.5,3.6"
/>
<path class="st-degoo-cloud-0" d="M215.9,202.6H236c35.8,0,64.8-28.8,64.8-64.6c0-17.1-6.6-32.5-17.5-44c-10.8-11.5-25.9-19-42.6-20.1l-0.3,3.7
l3.6-0.7c-4.4-21.9-16.2-41.1-32.7-54.8C194.7,8.2,173.5,0,150.4,0c-36.7,0-68.7,20.9-84.6,51.4l3.2,1.7l-0.4-3.6
C30,53.5,0,86.1,0,125.7c0,42.5,34.5,76.8,77,76.8h28.5c2,0,3.7-1.5,3.7-3.5c0-2-1.6-3.5-3.7-3.5H77c-19.2,0-36.6-7.8-49.3-20.4
c-12.6-12.6-20.4-30-20.4-49.3c0-35.9,27.2-65.5,62.1-69.2c1.2-0.1,2.3-0.9,2.9-1.9C87,26.6,116.5,7.3,150.4,7.3
c21.4,0,40.9,7.6,56.2,20.3c15.3,12.7,26.2,30.4,30.2,50.6c0.3,1.6,1.7,2.8,3.3,2.9c14.9,1,28.2,7.7,37.8,17.9
c9.6,10.2,15.5,23.9,15.5,39.1c0,15.9-6.4,30.2-16.8,40.6c-10.4,10.4-24.8,16.8-40.6,16.8h-20.2c-2,0-3.6,1.7-3.6,3.7
c0,2,1.7,3.5,3.7,3.5V202.6z"/>
<path class="st-degoo-cloud-0" d="M198.9,202.6h3.4c2,0,3.7-1.5,3.7-3.5c0-2-1.6-3.5-3.7-3.5h-3.6c-2,0-3.7,1.5-3.7,3.5c0,2,1.7,3.5,3.7,3.5"/>
<path class="st-degoo-cloud-0" d="M284.5,139.8c0-26.9-20.9-48.7-47.3-50.6c-1.5-0.1-2.8,1-2.9,2.5c-0.1,1.5,1,2.8,2.5,2.9
c23.6,1.6,42.2,21.1,42.2,45.1c0,1.5,1.2,2.7,2.7,2.7C283.3,142.6,284.5,141.3,284.5,139.8L284.5,139.8z"/>
</g>
</svg>
