<?xml version="1.0" encoding="utf-8"?>
<svg version="1.1" id="Warstwa_1" xmlns="http://www.w3.org/2000/svg" xmlns:xlink="http://www.w3.org/1999/xlink" x="0px" y="0px"
	 viewBox="0 0 278.8 123.5" style="enable-background:new 0 0 278.8 123.5;" xml:space="preserve">
<style type="text/css">
	.bcg-elemet-yellow-0{fill:#DDA34E;}
</style>
<title>Zasób 6</title>
<g id="Warstwa_2">
	<g id="Warstwa_2-2">
		<path class="bcg-elemet-yellow-0" d="M2,71.9h186.3c0.9,2,3.4,4.6,6.4,4.6c3.7,0,6.7-3.1,6.7-6.8c0-3.7-2.9-6.6-6.6-6.6c0,0-0.1,0-0.1,0
			c-3-0.1-5.7,1.9-6.4,4.8H2c-1.1,0-2,0.9-2,2S0.9,71.8,2,71.9L2,71.9z M192.8,67.6c1.1-1.1,2.8-1.1,3.8,0c1.1,1.1,1.1,2.8,0,3.8
			s-2.8,1.1-3.8,0c-0.5-0.5-0.8-1.2-0.8-1.9C192,68.8,192.2,68.1,192.8,67.6z"/>
		<path class="bcg-elemet-yellow-0" d="M272.1,108.1c-3-0.1-5.6,1.9-6.4,4.8h-46.2l-25.7-26h22c0.8,2.9,3.4,4.9,6.4,4.8c3.7,0,6.7-3,6.7-6.7
			c0,0,0,0,0,0c0-3.7-3-6.8-6.7-6.8c-3-0.1-5.6,1.8-6.4,4.7H2c-1.1,0.1-1.9,1-1.8,2c0,0,0,0.1,0,0.1c0.1,1.1,1,2,2.2,2l0,0h142.8
			l26.2,26.2c-0.7,1.1-1,2.3-1,3.6c0.1,3.7,3.1,6.7,6.8,6.6c3.7-0.1,6.7-3.1,6.6-6.8c-0.1-3.7-3.1-6.6-6.7-6.6
			c-0.9,0-1.8,0.1-2.6,0.5l-23.6-23.6h37.3l29.7,30h47.8c0.8,2.9,3.5,4.8,6.4,4.7c3.7,0,6.7-3,6.7-6.7S275.8,108.1,272.1,108.1
			L272.1,108.1z M177,114.1c1.5,0,2.7,1.2,2.7,2.7c0,1.5-1.2,2.7-2.7,2.7c-1.5,0-2.7-1.2-2.7-2.7c0-0.7,0.3-1.4,0.8-1.9
			C175.6,114.3,176.3,114,177,114.1z M222.2,82.3c1.5,0,2.7,1.2,2.7,2.7s-1.2,2.7-2.7,2.7c-0.7,0-1.5-0.3-2-0.8
			c-0.5-0.5-0.8-1.2-0.9-1.9l0,0c0-0.7,0.3-1.4,0.9-1.9C220.7,82.6,221.4,82.3,222.2,82.3z M274,116.7c-1.1,1.1-2.8,1.1-3.8,0
			c-1.1-1.1-1.1-2.8,0-3.8c1.1-1.1,2.8-1.1,3.8,0c0.5,0.5,0.8,1.2,0.8,1.9C274.8,115.5,274.5,116.2,274,116.7z"/>
		<path class="bcg-elemet-yellow-0" d="M53.4,13.4c3,0,5.6-2.6,6.4-4.6h38.9c0.8,2,3.4,4.6,6.4,4.6c3.7,0,6.7-3.1,6.7-6.8c0-3.7-2.9-6.6-6.6-6.6
			c-0.1,0-0.1,0-0.2,0c-3-0.1-5.7,1.9-6.4,4.8H59.8C59,2,56.4,0,53.4,0c-3.7,0-6.7,3-6.7,6.7S49.7,13.4,53.4,13.4
			C53.4,13.4,53.4,13.4,53.4,13.4z M105.1,3.8c1.5,0,2.7,1.2,2.7,2.7s-1.2,2.7-2.7,2.7c-0.7,0-1.5-0.3-2-0.8
			c-0.5-0.5-0.8-1.2-0.8-1.9l0,0c0-0.7,0.3-1.4,0.8-1.9C103.6,4.1,104.3,3.8,105.1,3.8z M51.4,4.6c1.1-1.1,2.8-1.1,3.8,0
			s1.1,2.8,0,3.8c-1.1,1.1-2.8,1.1-3.8,0c-0.5-0.5-0.8-1.2-0.8-1.9C50.6,5.8,50.9,5.1,51.4,4.6z"/>
		<path class="bcg-elemet-yellow-0" d="M76.3,19.9c-0.8-2-3.4-4.5-6.4-4.5c-3.7,0.1-6.7,3.1-6.7,6.8c0.1,3.7,3.1,6.6,6.8,6.6c3,0,5.6-2,6.3-4.9h38.9
			c0.9,3.6,4.6,5.7,8.2,4.8c2.9-0.8,5-3.4,5-6.4c0-3.7-3-6.8-6.7-6.9c-3,0-5.6,2.5-6.4,4.6L76.3,19.9z M71.8,24.3
			c-1.1,1.1-2.8,1.1-3.8,0s-1.1-2.8,0-3.8c1.1-1.1,2.8-1.1,3.8,0c0.5,0.5,0.8,1.2,0.8,1.9C72.6,23.1,72.3,23.8,71.8,24.3z
			 M121.6,19.6c1.5,0,2.7,1.2,2.7,2.7c0,1.5-1.2,2.7-2.7,2.7c-0.7,0-1.3-0.3-1.7-0.8c-0.4-0.5-0.6-1.2-0.6-1.9l0,0
			c-0.1-0.7,0.1-1.4,0.6-1.9C120.3,19.9,120.9,19.6,121.6,19.6L121.6,19.6z"/>
	</g>
</g>
</svg>
