<svg xmlns="http://www.w3.org/2000/svg" viewBox="0 0 260.08 307.79"><defs><style>.cls-1{fill:#db423c;}.cls-2{fill:#1b5a5b;}.cls-3{fill:#24737a;}.cls-4{fill:#e9b258;}.cls-5{fill:none;stroke:#2b304b;stroke-linecap:round;stroke-miterlimit:10;stroke-width:3px;}</style></defs><title>love-passion-code-mobile</title><g id="Warstwa_2" data-name="Warstwa 2"><g id="Warstwa_7" data-name="Warstwa 7"><path class="cls-1" d="M82.65,42.42l-.42,21.28H25.47V59.38q5.87,0,7.56-1.69t1.69-5.83v-40a12.9,12.9,0,0,0-.56-4.3,4.3,4.3,0,0,0-2.61-2.37,16.72,16.72,0,0,0-6.08-.85V0h32V4.32a17.44,17.44,0,0,0-6,.8A4.43,4.43,0,0,0,48.8,7.45a11.9,11.9,0,0,0-.63,4.39V48.49a31.66,31.66,0,0,0,.42,6.2,4.13,4.13,0,0,0,2.3,2.84,14.4,14.4,0,0,0,6.16,1,48.15,48.15,0,0,0,9.47-.82A14.49,14.49,0,0,0,74,53.3q3.45-3.55,4.3-10.88Z"/><path class="cls-1" d="M135.55,44.35a19.89,19.89,0,0,1-3.1,11.13,20.11,20.11,0,0,1-8.39,7.26,26.63,26.63,0,0,1-11.58,2.51A27.77,27.77,0,0,1,101.27,63a20.5,20.5,0,0,1-8.64-7,19.27,19.27,0,0,1-3.36-11.51q0-10.19,7-15.48a26.54,26.54,0,0,1,16.54-5.29,25.33,25.33,0,0,1,12.31,2.82,19.28,19.28,0,0,1,7.82,7.56A20.73,20.73,0,0,1,135.55,44.35Zm-13-.28q0-8-2.11-12t-8.22-4a9.45,9.45,0,0,0-6.08,1.76,9.55,9.55,0,0,0-3.05,5.45,43,43,0,0,0-.87,9.56,29.86,29.86,0,0,0,1.93,11.7q1.93,4.46,8.41,4.46,4.27,0,6.51-2.47a11.94,11.94,0,0,0,2.87-6.11A48.66,48.66,0,0,0,122.58,44.07Z"/><path class="cls-1" d="M187.7,29.55a4,4,0,0,0-3.31,1.36,34.28,34.28,0,0,0-3.12,5.36L167.12,64.79h-6.58l-16.16-31.1a11.74,11.74,0,0,0-2.16-3.38,7.75,7.75,0,0,0-3.29-.75V25.23h23v4.32a15.56,15.56,0,0,0-3.64.45,1.44,1.44,0,0,0-1.15,1.48,7.26,7.26,0,0,0,.94,2.68l9.82,19.07,9.35-18.79a8.24,8.24,0,0,0,.94-2.87,1.56,1.56,0,0,0-1.1-1.67,13,13,0,0,0-3.59-.35V25.23H187.7Z"/><path class="cls-1" d="M232.8,43H203.9q0,.89.26,3.81a22.25,22.25,0,0,0,1.32,6A11.24,11.24,0,0,0,209.28,58,11.56,11.56,0,0,0,216.54,60a18.31,18.31,0,0,0,6-1.27,12.91,12.91,0,0,0,6.11-4.89l3.66,2.49q-5.54,8.88-17.62,8.88a29.71,29.71,0,0,1-9.84-1.55,22.07,22.07,0,0,1-7.54-4.32,18.74,18.74,0,0,1-4.75-6.53,19.93,19.93,0,0,1-1.64-8.08,20.94,20.94,0,0,1,2.75-10.52,20.14,20.14,0,0,1,7.87-7.71,23.54,23.54,0,0,1,11.7-2.87,20.15,20.15,0,0,1,10.88,2.77,17.09,17.09,0,0,1,6.55,7.19A21.48,21.48,0,0,1,232.8,43Zm-11.65-4.32q0-10.71-8.46-10.71a7.32,7.32,0,0,0-6.27,3A13.94,13.94,0,0,0,204,38.71Z"/><path class="cls-2" d="M32.26,132.16l-6.16,29a11.64,11.64,0,0,0,6.07-2.3A19.87,19.87,0,0,0,37,153.71a26.77,26.77,0,0,0,4.29-14.27,16.49,16.49,0,0,0-.56-4.34,9.18,9.18,0,0,0-1.91-3.64A9.47,9.47,0,0,0,35.06,129a16.47,16.47,0,0,0-6-1,23.54,23.54,0,0,0-8.09,1.39,19.67,19.67,0,0,0-6.7,4A19.05,19.05,0,0,0,9.67,140,22.55,22.55,0,0,0,8,149a19.79,19.79,0,0,0,.14,2.65,12.19,12.19,0,0,0,.33,1.65,3.59,3.59,0,0,0,.42,1c.15.23.29.46.42.69a11.47,11.47,0,0,1-6.81-1.78Q0,151.42,0,147a15.89,15.89,0,0,1,2.69-8.76,27.36,27.36,0,0,1,7.07-7.33,36.75,36.75,0,0,1,10-5A35.59,35.59,0,0,1,31,124a24.4,24.4,0,0,1,8.76,1.43,18.56,18.56,0,0,1,6.2,3.77,14.89,14.89,0,0,1,3.69,5.46,17.8,17.8,0,0,1,1.21,6.5,20.94,20.94,0,0,1-1.74,8.2,24.29,24.29,0,0,1-5,7.46,24.77,24.77,0,0,1-7.91,5.42,25.66,25.66,0,0,1-10.51,2.08h-.44l-5.3,24.72H7.54L19.38,133.9Z"/><path class="cls-2" d="M89.33,145.69,83,175.18a12.11,12.11,0,0,0-.35,2.78,3.07,3.07,0,0,0,.87,2.51,4.27,4.27,0,0,0,2.69.69A5.38,5.38,0,0,0,90.5,179a15.15,15.15,0,0,0,2.73-5.46h3.64a30.89,30.89,0,0,1-4.12,8.37,19.91,19.91,0,0,1-4.68,4.68,12.67,12.67,0,0,1-4.64,2,21.35,21.35,0,0,1-4,.43,8.51,8.51,0,0,1-5.77-1.91,8.72,8.72,0,0,1-2.73-5.64,25,25,0,0,1-2.25,2.95,16.52,16.52,0,0,1-2.91,2.6,15,15,0,0,1-3.51,1.82,12.38,12.38,0,0,1-4.25.69,12.53,12.53,0,0,1-4.29-.74A10,10,0,0,1,50,186.45a11.44,11.44,0,0,1-2.6-4.29,19.44,19.44,0,0,1-1-6.55,35.9,35.9,0,0,1,.61-6.33,41.72,41.72,0,0,1,1.82-6.76,39,39,0,0,1,3-6.5,24.65,24.65,0,0,1,4.34-5.51,20.87,20.87,0,0,1,5.59-3.82,16.16,16.16,0,0,1,6.9-1.43,20,20,0,0,1,2.21.13,6.73,6.73,0,0,1,2.17.61,5,5,0,0,1,1.73,1.39,5.16,5.16,0,0,1,1,2.38l.87-4.08Zm-17.78,4.94a6.62,6.62,0,0,0-5,2.56,22.78,22.78,0,0,0-3.82,6.24,42.25,42.25,0,0,0-2.43,7.81,35.38,35.38,0,0,0-.87,7.15,12.07,12.07,0,0,0,.48,3.86,5.31,5.31,0,0,0,1.13,2,2.61,2.61,0,0,0,1.39.78,7.76,7.76,0,0,0,1.34.13,5.07,5.07,0,0,0,2-.48,7.82,7.82,0,0,0,2.12-1.43,9.12,9.12,0,0,0,1.82-2.38,13,13,0,0,0,1.21-3.34l4.16-19.6a2.73,2.73,0,0,0-.22-.91,4.52,4.52,0,0,0-.61-1.08,3.58,3.58,0,0,0-1-.91A3.26,3.26,0,0,0,71.55,150.63Z"/><path class="cls-2" d="M130,173.53a45.73,45.73,0,0,1-6.81,6.5,60.15,60.15,0,0,1-6.46,4.34,13.32,13.32,0,0,1-3,2.43,21,21,0,0,1-3.47,1.6,18.65,18.65,0,0,1-3.64.91,24.59,24.59,0,0,1-3.47.26,14.69,14.69,0,0,1-5.68-1A12.08,12.08,0,0,1,93.49,186a9.78,9.78,0,0,1-2.3-3.56,11.45,11.45,0,0,1-.74-4,9,9,0,0,1,1.39-5.12A8.12,8.12,0,0,1,95,170.41a106.28,106.28,0,0,0,6.16-12.88q2.51-6.37,4.51-12.79L118.55,143q.35,8.41.69,13.62t.61,8.46q.26,3.25.43,5.29t.17,4.21a13.76,13.76,0,0,1-.35,3.3,41.62,41.62,0,0,0,6.24-4.34Zm-28.79,0a4.65,4.65,0,0,1-1,2.91,3.33,3.33,0,0,1-2.77,1.34,4.22,4.22,0,0,1-1.34-.22,1.7,1.7,0,0,1-1-.91,7.18,7.18,0,0,0,1.21,4.55q1.21,1.52,4.08,1.52a10.21,10.21,0,0,0,2.77-.39,5.91,5.91,0,0,0,2.43-1.34,7,7,0,0,0,1.69-2.52,9.92,9.92,0,0,0,.65-3.82q0-1.65-.13-3.21t-.35-3.73q-.22-2.17-.52-5.38t-.65-8.24a72.08,72.08,0,0,1-3.08,8.24q-1.78,4-3.95,8.15a4.09,4.09,0,0,1,1.43,1.17A3,3,0,0,1,101.21,173.53Z"/><path class="cls-2" d="M163.13,173.53a45.73,45.73,0,0,1-6.81,6.5,60.15,60.15,0,0,1-6.46,4.34,13.32,13.32,0,0,1-3,2.43,21,21,0,0,1-3.47,1.6,18.65,18.65,0,0,1-3.64.91,24.59,24.59,0,0,1-3.47.26,14.69,14.69,0,0,1-5.68-1,12.08,12.08,0,0,1-3.95-2.56,9.78,9.78,0,0,1-2.3-3.56,11.45,11.45,0,0,1-.74-4,9,9,0,0,1,1.39-5.12,8.12,8.12,0,0,1,3.21-2.95,106.28,106.28,0,0,0,6.16-12.88q2.51-6.37,4.51-12.79L151.68,143q.35,8.41.69,13.62t.61,8.46q.26,3.25.43,5.29t.17,4.21a13.76,13.76,0,0,1-.35,3.3,41.62,41.62,0,0,0,6.24-4.34Zm-28.79,0a4.65,4.65,0,0,1-1,2.91,3.33,3.33,0,0,1-2.77,1.34,4.22,4.22,0,0,1-1.34-.22,1.7,1.7,0,0,1-1-.91,7.18,7.18,0,0,0,1.21,4.55q1.21,1.52,4.08,1.52a10.21,10.21,0,0,0,2.77-.39,5.91,5.91,0,0,0,2.43-1.34,7,7,0,0,0,1.69-2.52,9.92,9.92,0,0,0,.65-3.82q0-1.65-.13-3.21t-.35-3.73q-.22-2.17-.52-5.38t-.65-8.24a72.08,72.08,0,0,1-3.08,8.24q-1.78,4-3.95,8.15a4.09,4.09,0,0,1,1.43,1.17A3,3,0,0,1,134.33,173.53Z"/><path class="cls-2" d="M177.87,145.69l-6.24,29.49a12.11,12.11,0,0,0-.35,2.78,3.07,3.07,0,0,0,.87,2.51,4.26,4.26,0,0,0,2.69.69,6.55,6.55,0,0,0,4.68-2.17,12.47,12.47,0,0,0,3.12-5.46h3.64A29.89,29.89,0,0,1,182,182a21.62,21.62,0,0,1-4.94,4.86,14.34,14.34,0,0,1-4.9,2.21,19.76,19.76,0,0,1-4.12.52,9.38,9.38,0,0,1-6.59-2.47q-2.69-2.47-2.69-7.94a28,28,0,0,1,.69-5.64l5.9-27.84Zm-10.75-11.53a6.75,6.75,0,0,1,2-4.9,6.54,6.54,0,0,1,4.86-2,7,7,0,0,1,6.94,6.94,6.54,6.54,0,0,1-2,4.86,6.75,6.75,0,0,1-4.9,2,6.81,6.81,0,0,1-6.85-6.85Z"/><path class="cls-2" d="M205.19,145.26q10.93,0,11.1,13.62a4.06,4.06,0,0,0,1,.09,13.78,13.78,0,0,0,3.25-.43,24.32,24.32,0,0,0,3.56-1.17,31.84,31.84,0,0,0,3.47-1.69q1.69-1,3.08-1.91l.78,2.34a20.75,20.75,0,0,1-6.55,4.55,33.92,33.92,0,0,1-8.72,2.65,41,41,0,0,1-2.34,10.93,29.47,29.47,0,0,1-4.6,8.28,19.71,19.71,0,0,1-6.33,5.25,16.33,16.33,0,0,1-7.54,1.82,20.16,20.16,0,0,1-5.59-.74,10.92,10.92,0,0,1-4.38-2.38,11.25,11.25,0,0,1-2.86-4.25,17.07,17.07,0,0,1-1-6.33,36.15,36.15,0,0,1,.52-5.72,41.31,41.31,0,0,1,4.68-13.31,25.93,25.93,0,0,1,4.47-5.85,20.82,20.82,0,0,1,6.11-4.16A19.26,19.26,0,0,1,205.19,145.26Zm-6.42,36.16a5,5,0,0,0,3.17-1.34,13.36,13.36,0,0,0,2.95-3.73,30,30,0,0,0,2.38-5.68,42.74,42.74,0,0,0,1.56-7.11,2.6,2.6,0,0,1-1.86-1.34,5.26,5.26,0,0,1-.48-2.3,5.53,5.53,0,0,1,.74-3,3.77,3.77,0,0,1,2-1.6,8,8,0,0,0-.91-3.77,2.68,2.68,0,0,0-2.38-1.08q-2.34,0-4.42,2.56a25.75,25.75,0,0,0-3.64,6.24,47.37,47.37,0,0,0-2.51,7.81,32.84,32.84,0,0,0-1,7.33,22.83,22.83,0,0,0,.22,3.51,5.35,5.35,0,0,0,.74,2.12,2.7,2.7,0,0,0,1.39,1.08A6.3,6.3,0,0,0,198.77,181.42Z"/><path class="cls-2" d="M245.69,157.66q0-4.42-3.12-4.42a5,5,0,0,0-4.08,2.34,17.57,17.57,0,0,0-2.69,5.64l-5.9,27.84H217.41l9.19-43.36H239.1l-1,4.51a13,13,0,0,1,5.46-4,15.61,15.61,0,0,1,4.68-.87,10.35,10.35,0,0,1,6.89,2.3q2.73,2.3,2.73,7.5a28.87,28.87,0,0,1-.65,5.77q-.65,3.17-1.43,6.24T254.4,173a20.36,20.36,0,0,0-.65,4.55,4.34,4.34,0,0,0,.74,2.65,3.2,3.2,0,0,0,2.73,1,5.55,5.55,0,0,0,2.86-.52q-.61,4.68-3.34,6.81a9.83,9.83,0,0,1-6.2,2.13,9.57,9.57,0,0,1-4.21-.82,7,7,0,0,1-2.69-2.21,9,9,0,0,1-1.43-3.17,15.08,15.08,0,0,1-.43-3.6,26.47,26.47,0,0,1,.61-5.16q.61-3,1.34-6t1.34-5.94A25,25,0,0,0,245.69,157.66Z"/><path class="cls-3" d="M32.26,129.37l-6.16,29a11.64,11.64,0,0,0,6.07-2.3A19.87,19.87,0,0,0,37,150.93a26.77,26.77,0,0,0,4.29-14.27,16.49,16.49,0,0,0-.56-4.34,9.18,9.18,0,0,0-1.91-3.64,9.47,9.47,0,0,0-3.74-2.52,16.47,16.47,0,0,0-6-1,23.54,23.54,0,0,0-8.09,1.39,19.67,19.67,0,0,0-6.7,4,19.05,19.05,0,0,0-4.56,6.59,22.55,22.55,0,0,0-1.7,9,19.79,19.79,0,0,0,.14,2.65,12.19,12.19,0,0,0,.33,1.65,3.59,3.59,0,0,0,.42,1c.15.23.29.46.42.69a11.47,11.47,0,0,1-6.81-1.78Q0,148.63,0,144.2a15.89,15.89,0,0,1,2.69-8.76,27.36,27.36,0,0,1,7.07-7.33,36.75,36.75,0,0,1,10-5A35.59,35.59,0,0,1,31,121.22a24.4,24.4,0,0,1,8.76,1.43,18.56,18.56,0,0,1,6.2,3.77,14.89,14.89,0,0,1,3.69,5.46,17.8,17.8,0,0,1,1.21,6.5,20.94,20.94,0,0,1-1.74,8.2,24.29,24.29,0,0,1-5,7.46,24.77,24.77,0,0,1-7.91,5.42,25.66,25.66,0,0,1-10.51,2.08h-.44l-5.3,24.72H7.54l11.84-55.16Z"/><path class="cls-3" d="M89.33,142.9,83,172.39a12.11,12.11,0,0,0-.35,2.78,3.07,3.07,0,0,0,.87,2.51,4.27,4.27,0,0,0,2.69.69,5.38,5.38,0,0,0,4.29-2.17,15.15,15.15,0,0,0,2.73-5.46h3.64a30.89,30.89,0,0,1-4.12,8.37,19.91,19.91,0,0,1-4.68,4.68,12.67,12.67,0,0,1-4.64,2,21.35,21.35,0,0,1-4,.43,8.51,8.51,0,0,1-5.77-1.91,8.72,8.72,0,0,1-2.73-5.64,25,25,0,0,1-2.25,2.95,16.52,16.52,0,0,1-2.91,2.6,15,15,0,0,1-3.51,1.82,12.38,12.38,0,0,1-4.25.69,12.53,12.53,0,0,1-4.29-.74A10,10,0,0,1,50,183.66a11.44,11.44,0,0,1-2.6-4.29,19.44,19.44,0,0,1-1-6.55,35.9,35.9,0,0,1,.61-6.33,41.72,41.72,0,0,1,1.82-6.76,39,39,0,0,1,3-6.5,24.65,24.65,0,0,1,4.34-5.51,20.87,20.87,0,0,1,5.59-3.82,16.16,16.16,0,0,1,6.9-1.43,20,20,0,0,1,2.21.13,6.73,6.73,0,0,1,2.17.61,5,5,0,0,1,1.73,1.39,5.16,5.16,0,0,1,1,2.38l.87-4.08Zm-17.78,4.94a6.62,6.62,0,0,0-5,2.56,22.78,22.78,0,0,0-3.82,6.24,42.25,42.25,0,0,0-2.43,7.81,35.38,35.38,0,0,0-.87,7.15,12.07,12.07,0,0,0,.48,3.86,5.31,5.31,0,0,0,1.13,2,2.61,2.61,0,0,0,1.39.78,7.76,7.76,0,0,0,1.34.13,5.07,5.07,0,0,0,2-.48,7.82,7.82,0,0,0,2.12-1.43,9.12,9.12,0,0,0,1.82-2.38,13,13,0,0,0,1.21-3.34l4.16-19.6a2.73,2.73,0,0,0-.22-.91,4.52,4.52,0,0,0-.61-1.08,3.58,3.58,0,0,0-1-.91A3.26,3.26,0,0,0,71.55,147.85Z"/><path class="cls-3" d="M130,170.74a45.73,45.73,0,0,1-6.81,6.5,60.15,60.15,0,0,1-6.46,4.34,13.32,13.32,0,0,1-3,2.43,21,21,0,0,1-3.47,1.6,18.65,18.65,0,0,1-3.64.91,24.59,24.59,0,0,1-3.47.26,14.69,14.69,0,0,1-5.68-1,12.08,12.08,0,0,1-3.95-2.56,9.78,9.78,0,0,1-2.3-3.56,11.45,11.45,0,0,1-.74-4,9,9,0,0,1,1.39-5.12A8.12,8.12,0,0,1,95,167.62a106.28,106.28,0,0,0,6.16-12.88q2.51-6.37,4.51-12.79l12.84-1.73q.35,8.41.69,13.62t.61,8.46q.26,3.25.43,5.29t.17,4.21a13.76,13.76,0,0,1-.35,3.3,41.62,41.62,0,0,0,6.24-4.34Zm-28.79,0a4.65,4.65,0,0,1-1,2.91A3.33,3.33,0,0,1,97.39,175a4.22,4.22,0,0,1-1.34-.22,1.7,1.7,0,0,1-1-.91,7.18,7.18,0,0,0,1.21,4.55q1.21,1.52,4.08,1.52a10.21,10.21,0,0,0,2.77-.39,5.91,5.91,0,0,0,2.43-1.34,7,7,0,0,0,1.69-2.52,9.92,9.92,0,0,0,.65-3.82q0-1.65-.13-3.21t-.35-3.73q-.22-2.17-.52-5.38t-.65-8.24a72.08,72.08,0,0,1-3.08,8.24q-1.78,4-3.95,8.15a4.09,4.09,0,0,1,1.43,1.17A3,3,0,0,1,101.21,170.74Z"/><path class="cls-3" d="M163.13,170.74a45.73,45.73,0,0,1-6.81,6.5,60.15,60.15,0,0,1-6.46,4.34,13.32,13.32,0,0,1-3,2.43,21,21,0,0,1-3.47,1.6,18.65,18.65,0,0,1-3.64.91,24.59,24.59,0,0,1-3.47.26,14.69,14.69,0,0,1-5.68-1,12.08,12.08,0,0,1-3.95-2.56,9.78,9.78,0,0,1-2.3-3.56,11.45,11.45,0,0,1-.74-4,9,9,0,0,1,1.39-5.12,8.12,8.12,0,0,1,3.21-2.95,106.28,106.28,0,0,0,6.16-12.88q2.51-6.37,4.51-12.79l12.84-1.73q.35,8.41.69,13.62t.61,8.46q.26,3.25.43,5.29t.17,4.21a13.76,13.76,0,0,1-.35,3.3,41.62,41.62,0,0,0,6.24-4.34Zm-28.79,0a4.65,4.65,0,0,1-1,2.91,3.33,3.33,0,0,1-2.77,1.34,4.22,4.22,0,0,1-1.34-.22,1.7,1.7,0,0,1-1-.91,7.18,7.18,0,0,0,1.21,4.55q1.21,1.52,4.08,1.52a10.21,10.21,0,0,0,2.77-.39,5.91,5.91,0,0,0,2.43-1.34,7,7,0,0,0,1.69-2.52,9.92,9.92,0,0,0,.65-3.82q0-1.65-.13-3.21t-.35-3.73q-.22-2.17-.52-5.38t-.65-8.24a72.08,72.08,0,0,1-3.08,8.24q-1.78,4-3.95,8.15a4.09,4.09,0,0,1,1.43,1.17A3,3,0,0,1,134.33,170.74Z"/><path class="cls-3" d="M177.87,142.9l-6.24,29.49a12.11,12.11,0,0,0-.35,2.78,3.07,3.07,0,0,0,.87,2.51,4.26,4.26,0,0,0,2.69.69,6.55,6.55,0,0,0,4.68-2.17,12.47,12.47,0,0,0,3.12-5.46h3.64A29.89,29.89,0,0,1,182,179.2a21.62,21.62,0,0,1-4.94,4.86,14.34,14.34,0,0,1-4.9,2.21,19.76,19.76,0,0,1-4.12.52,9.38,9.38,0,0,1-6.59-2.47q-2.69-2.47-2.69-7.94a28,28,0,0,1,.69-5.64l5.9-27.84Zm-10.75-11.53a6.75,6.75,0,0,1,2-4.9,6.54,6.54,0,0,1,4.86-2,7,7,0,0,1,6.94,6.94,6.54,6.54,0,0,1-2,4.86,6.75,6.75,0,0,1-4.9,2,6.81,6.81,0,0,1-6.85-6.85Z"/><path class="cls-3" d="M205.19,142.47q10.93,0,11.1,13.62a4.06,4.06,0,0,0,1,.09,13.78,13.78,0,0,0,3.25-.43,24.32,24.32,0,0,0,3.56-1.17,31.84,31.84,0,0,0,3.47-1.69q1.69-1,3.08-1.91l.78,2.34a20.75,20.75,0,0,1-6.55,4.55,33.92,33.92,0,0,1-8.72,2.65,41,41,0,0,1-2.34,10.93,29.47,29.47,0,0,1-4.6,8.28,19.71,19.71,0,0,1-6.33,5.25,16.33,16.33,0,0,1-7.54,1.82,20.16,20.16,0,0,1-5.59-.74,10.92,10.92,0,0,1-4.38-2.38,11.25,11.25,0,0,1-2.86-4.25,17.07,17.07,0,0,1-1-6.33,36.15,36.15,0,0,1,.52-5.72A41.31,41.31,0,0,1,186.63,154a25.93,25.93,0,0,1,4.47-5.85,20.82,20.82,0,0,1,6.11-4.16A19.26,19.26,0,0,1,205.19,142.47Zm-6.42,36.16a5,5,0,0,0,3.17-1.34,13.36,13.36,0,0,0,2.95-3.73,30,30,0,0,0,2.38-5.68,42.74,42.74,0,0,0,1.56-7.11,2.6,2.6,0,0,1-1.86-1.34,5.26,5.26,0,0,1-.48-2.3,5.53,5.53,0,0,1,.74-3,3.77,3.77,0,0,1,2-1.6,8,8,0,0,0-.91-3.77,2.68,2.68,0,0,0-2.38-1.08q-2.34,0-4.42,2.56a25.75,25.75,0,0,0-3.64,6.24,47.37,47.37,0,0,0-2.51,7.81,32.84,32.84,0,0,0-1,7.33,22.83,22.83,0,0,0,.22,3.51,5.35,5.35,0,0,0,.74,2.12,2.7,2.7,0,0,0,1.39,1.08A6.3,6.3,0,0,0,198.77,178.63Z"/><path class="cls-3" d="M245.69,154.87q0-4.42-3.12-4.42a5,5,0,0,0-4.08,2.34,17.57,17.57,0,0,0-2.69,5.64l-5.9,27.84H217.41l9.19-43.36H239.1l-1,4.51a13,13,0,0,1,5.46-4,15.61,15.61,0,0,1,4.68-.87,10.35,10.35,0,0,1,6.89,2.3q2.73,2.3,2.73,7.5a28.87,28.87,0,0,1-.65,5.77q-.65,3.17-1.43,6.24t-1.43,5.81a20.36,20.36,0,0,0-.65,4.55,4.34,4.34,0,0,0,.74,2.65,3.2,3.2,0,0,0,2.73,1,5.55,5.55,0,0,0,2.86-.52q-.61,4.68-3.34,6.81a9.83,9.83,0,0,1-6.2,2.13,9.57,9.57,0,0,1-4.21-.82,7,7,0,0,1-2.69-2.21,9,9,0,0,1-1.43-3.17,15.08,15.08,0,0,1-.43-3.6,26.47,26.47,0,0,1,.61-5.16q.61-3,1.34-6t1.34-5.94A25,25,0,0,0,245.69,154.87Z"/><path class="cls-4" d="M59,255.62v-2.83a3.09,3.09,0,0,1,.55-2.06,2,2,0,0,1,2.93,0,3.09,3.09,0,0,1,.55,2.06V264a3.18,3.18,0,0,1-.55,2.11,1.86,1.86,0,0,1-1.46.62,1.81,1.81,0,0,1-1.37-.58,3,3,0,0,1-.65-1.87q-.24-4-4.36-7.15a20.25,20.25,0,0,0-12.66-4.27,19.36,19.36,0,0,0-8.78,2.06,14.61,14.61,0,0,0-4.89,3.64,31,31,0,0,0-5,8.3,20.25,20.25,0,0,0-1.34,7.58v7a21.61,21.61,0,0,0,6.52,15.66,20.61,20.61,0,0,0,15.15,6.64,18.94,18.94,0,0,0,9.28-2.25,28.63,28.63,0,0,0,7.94-6.81,2.34,2.34,0,0,1,1.82-1,1.88,1.88,0,0,1,1.39.53,1.82,1.82,0,0,1,.53,1.34q0,1.1-2.06,3.36a26.49,26.49,0,0,1-8.85,6.64,23.88,23.88,0,0,1-10,2.23,25.32,25.32,0,0,1-8.87-1.68,22.15,22.15,0,0,1-5.71-3,35.63,35.63,0,0,1-5.54-5.83,26.16,26.16,0,0,1-4.48-7.58,23.32,23.32,0,0,1-1.2-7.65v-8.2a26.5,26.5,0,0,1,3.19-12.16,23.21,23.21,0,0,1,8.73-9.54,22.89,22.89,0,0,1,12-3.33A24.11,24.11,0,0,1,59,255.62Z"/><path class="cls-4" d="M122.7,285.54a21.32,21.32,0,0,1-6.59,15.73,22.69,22.69,0,0,1-31.87,0,22.12,22.12,0,0,1,0-31.46,22.69,22.69,0,0,1,31.87,0A21.38,21.38,0,0,1,122.7,285.54Zm-4.08,0a17.45,17.45,0,0,0-5.4-12.9,18.67,18.67,0,0,0-26.14,0,18,18,0,0,0,0,25.73,18.61,18.61,0,0,0,26.14,0A17.47,17.47,0,0,0,118.62,285.54Z"/><path class="cls-4" d="M178.85,246v56.16h5.37a3.19,3.19,0,0,1,2.11.55,2,2,0,0,1,0,2.9,3.08,3.08,0,0,1-2.11.58h-9.45v-8q-7,9.59-17.79,9.59a21,21,0,0,1-18.39-11.17,22.64,22.64,0,0,1,0-22.18,20.88,20.88,0,0,1,7.91-8.27A20.58,20.58,0,0,1,157,263.24q10.55,0,17.74,9.59V250.1h-5.37a3.09,3.09,0,0,1-2.11-.58,1.93,1.93,0,0,1-.62-1.49,1.88,1.88,0,0,1,.62-1.44,3.08,3.08,0,0,1,2.11-.58Zm-4.08,39.52a17.77,17.77,0,0,0-5.18-12.95,17.09,17.09,0,0,0-24.7,0,18.74,18.74,0,0,0,0,25.87,17,17,0,0,0,24.7,0A17.79,17.79,0,0,0,174.78,285.54Z"/><path class="cls-4" d="M239.85,286.41H198.8A19.5,19.5,0,0,0,205.35,299a20,20,0,0,0,13.6,4.77,32.75,32.75,0,0,0,9.45-1.49,24.28,24.28,0,0,0,8.06-3.93,2.73,2.73,0,0,1,1.58-.72,1.81,1.81,0,0,1,1.34.6,2,2,0,0,1,.58,1.42,2.25,2.25,0,0,1-.77,1.58q-2.3,2.4-8.18,4.48a35.79,35.79,0,0,1-12.06,2.09A23.72,23.72,0,0,1,201.66,301a22.14,22.14,0,0,1-6.93-16.43,20.21,20.21,0,0,1,6.5-15.06,22.25,22.25,0,0,1,16.09-6.28q9.88,0,16.26,6.45T239.85,286.41Zm-4.08-4.08a17.55,17.55,0,0,0-6.31-10.84,19.85,19.85,0,0,0-24.29,0,17.66,17.66,0,0,0-6.33,10.89Z"/><line class="cls-5" x1="113.65" y1="100.73" x2="143.65" y2="100.73"/><line class="cls-5" x1="129.15" y1="115.23" x2="129.15" y2="85.23"/><line class="cls-5" x1="114.65" y1="220.73" x2="144.65" y2="220.73"/><line class="cls-5" x1="129.15" y1="235.23" x2="129.15" y2="205.23"/></g></g></svg>