<?xml version="1.0" encoding="utf-8"?>
<!-- Generator: Adobe Illustrator 20.1.0, SVG Export Plug-In . SVG Version: 6.00 Build 0)  -->
<svg version="1.1" id="Warstwa_1" xmlns="http://www.w3.org/2000/svg" xmlns:xlink="http://www.w3.org/1999/xlink" x="0px" y="0px"
	 viewBox="0 0 1200 127.6" style="enable-background:new 0 0 1200 127.6;" xml:space="preserve">
<style type="text/css">
	.st0{fill:#DB423C;}
	.st1{fill:#24737A;}
	.st2{fill:#E9B258;}
	.st3{fill:none;stroke:#2B304B;stroke-width:4;stroke-linecap:round;stroke-miterlimit:10;}
</style>
<title>love-passion-code</title>
<g id="Warstwa_2">
	<g id="Warstwa_8">
		<path d="M378.3,20.4l-11.5,54.1c4.1-0.3,8-1.8,11.3-4.3c3.5-2.6,6.6-5.9,9-9.5c2.6-3.9,4.6-8.3,5.9-12.8c1.4-4.5,2.1-9.1,2.1-13.8
			c0-2.7-0.3-5.5-1.1-8.1c-0.7-2.5-1.9-4.9-3.6-6.8c-1.9-2.1-4.3-3.7-7-4.7c-3.6-1.3-7.4-1.9-11.3-1.8c-5.1,0-10.3,0.9-15.1,2.6
			c-4.6,1.6-8.9,4.2-12.5,7.5c-3.7,3.4-6.6,7.6-8.5,12.3c-2.2,5.3-3.3,11-3.2,16.7c0,1.7,0.1,3.3,0.3,4.9c0.1,1,0.3,2.1,0.6,3.1
			c0.2,0.7,0.4,1.3,0.8,1.9c0.3,0.4,0.6,0.9,0.8,1.3c-5.4,0-9.6-1.1-12.7-3.3c-3.1-2.2-4.6-6.1-4.6-11.6c0-5.8,1.8-11.5,5-16.3
			c3.5-5.3,8-10,13.2-13.7c5.7-4.1,12-7.2,18.6-9.4c6.8-2.3,13.9-3.5,21.1-3.5c5.6-0.1,11.1,0.8,16.3,2.7c4.3,1.6,8.2,4,11.6,7
			c3,2.8,5.4,6.3,6.9,10.2c1.5,3.9,2.3,8,2.3,12.2c0,5.3-1.1,10.5-3.2,15.3c-2.2,5.2-5.3,9.9-9.2,13.9c-4.2,4.3-9.2,7.8-14.8,10.1
			c-6.2,2.7-12.9,4-19.7,3.8h-0.8l-9.9,46.1h-23.4l22.1-102.9L378.3,20.4z"/>
		<path d="M484.8,45.7l-11.8,55c-0.4,1.7-0.6,3.4-0.6,5.2c0,2.3,0.5,3.8,1.6,4.7c1.5,1,3.2,1.5,5,1.3c3.2,0,6.1-1.5,8-4.1
			c2.4-3,4.1-6.5,5.1-10.2h6.8c-1.8,5.6-4.3,10.8-7.7,15.6c-2.4,3.4-5.4,6.3-8.7,8.7c-2.6,1.8-5.5,3.1-8.7,3.8
			c-2.5,0.5-4.9,0.8-7.4,0.8c-3.9,0.2-7.7-1.1-10.8-3.6c-2.7-2.4-4.4-5.9-5.1-10.5c-1.3,1.9-2.7,3.7-4.2,5.4
			c-1.6,1.8-3.4,3.5-5.4,4.9c-2,1.4-4.2,2.6-6.6,3.4c-2.5,0.9-5.2,1.3-7.9,1.3c-2.7,0-5.4-0.5-8-1.4c-2.6-1-5-2.5-6.9-4.5
			c-2.2-2.3-3.9-5-4.9-8c-1.3-3.9-1.9-8-1.8-12.2c0-4,0.4-7.9,1.1-11.8c0.8-4.3,1.9-8.5,3.4-12.6c1.5-4.2,3.4-8.3,5.7-12.2
			c2.2-3.8,4.9-7.3,8.1-10.3c3.1-2.9,6.6-5.3,10.4-7.1c4.1-1.8,8.5-2.7,12.9-2.7c1.4,0,2.8,0.1,4.1,0.2c1.4,0.1,2.8,0.5,4.1,1.1
			c1.3,0.6,2.4,1.5,3.2,2.6c1,1.3,1.6,2.8,1.9,4.5l1.6-7.6L484.8,45.7z M451.6,54.9c-3.5,0-6.6,1.6-9.4,4.8c-3,3.5-5.4,7.4-7.1,11.7
			c-2,4.7-3.5,9.6-4.5,14.6c-1,4.4-1.5,8.9-1.6,13.4c-0.1,2.4,0.2,4.9,0.9,7.2c0.4,1.4,1.1,2.6,2.1,3.7c0.7,0.7,1.6,1.3,2.6,1.5
			c0.8,0.2,1.7,0.2,2.5,0.2c1.3,0,2.6-0.3,3.8-0.9c1.5-0.7,2.8-1.6,4-2.7c1.4-1.3,2.5-2.8,3.4-4.5c1-2,1.8-4.1,2.3-6.2l7.8-36.6
			c0-0.6-0.2-1.2-0.4-1.7c-0.3-0.7-0.7-1.4-1.1-2c-0.5-0.7-1.2-1.3-1.9-1.7C453.8,55.1,452.7,54.9,451.6,54.9z"/>
		<path d="M560.7,97.6c-3.8,4.5-8.1,8.6-12.7,12.2c-3.8,3-7.9,5.7-12.1,8.1c-1.7,1.8-3.6,3.3-5.7,4.5c-2.1,1.2-4.2,2.2-6.5,3
			c-2.2,0.8-4.5,1.4-6.8,1.7c-2.1,0.3-4.3,0.5-6.5,0.5c-3.6,0.1-7.2-0.5-10.6-1.9c-2.7-1.1-5.2-2.7-7.4-4.8
			c-1.9-1.9-3.4-4.1-4.3-6.6c-0.9-2.4-1.4-4.9-1.4-7.4c-0.1-3.4,0.8-6.7,2.6-9.6c1.5-2.3,3.5-4.2,6-5.5c4.4-7.7,8.2-15.8,11.5-24
			c3.1-7.9,5.9-15.9,8.4-23.9l24-3.2c0.4,10.5,0.9,18.9,1.3,25.4c0.4,6.5,0.8,11.7,1.1,15.8c0.3,4.1,0.6,7.3,0.8,9.9
			c0.2,2.5,0.3,5.1,0.3,7.8c0,2.1-0.2,4.1-0.6,6.2c4.1-2.3,8-5,11.7-8.1L560.7,97.6z M507,97.6c0,2-0.7,3.9-1.9,5.4
			c-1.2,1.6-3.1,2.6-5.2,2.5c-0.9,0-1.7-0.1-2.5-0.4c-0.8-0.3-1.5-0.9-1.9-1.7c0,3.8,0.8,6.6,2.3,8.5c1.5,1.9,4,2.8,7.6,2.8
			c1.8,0,3.5-0.2,5.2-0.7c1.7-0.5,3.2-1.3,4.5-2.5c1.4-1.3,2.5-2.9,3.2-4.7c0.9-2.3,1.3-4.7,1.2-7.1c0-2.1-0.1-4-0.2-6
			c-0.2-1.9-0.4-4.3-0.6-7c-0.3-2.7-0.6-6-1-10c-0.4-4-0.8-9.1-1.2-15.4c-1.6,5.2-3.5,10.4-5.7,15.4c-2.2,5-4.7,10-7.4,15.2
			c1,0.5,2,1.3,2.7,2.2C506.6,95.2,507,96.4,507,97.6z"/>
		<path d="M622.5,97.6c-3.8,4.5-8.1,8.6-12.7,12.2c-3.8,3-7.9,5.7-12.1,8.1c-1.7,1.8-3.6,3.3-5.7,4.5c-2.1,1.2-4.2,2.2-6.5,3
			c-2.2,0.8-4.5,1.4-6.8,1.7c-2.1,0.3-4.3,0.5-6.5,0.5c-3.6,0.1-7.2-0.5-10.6-1.9c-2.7-1.1-5.2-2.7-7.4-4.8
			c-1.9-1.9-3.4-4.1-4.3-6.6c-0.9-2.4-1.4-4.9-1.4-7.4c-0.1-3.4,0.8-6.7,2.6-9.6c1.5-2.3,3.5-4.2,6-5.5c4.4-7.7,8.2-15.8,11.5-24
			c3.1-7.9,5.9-15.9,8.4-23.9l24-3.2c0.4,10.5,0.9,18.9,1.3,25.4s0.8,11.7,1.1,15.8c0.3,4.1,0.6,7.3,0.8,9.9
			c0.2,2.5,0.3,5.1,0.3,7.8c0,2.1-0.2,4.1-0.6,6.2c4.1-2.3,8-5,11.7-8.1L622.5,97.6z M568.8,97.6c0,2-0.7,3.9-1.9,5.4
			c-1.2,1.6-3.1,2.6-5.2,2.5c-0.9,0-1.7-0.1-2.5-0.4c-0.8-0.3-1.5-0.9-1.9-1.7c0,3.8,0.8,6.6,2.3,8.5c1.5,1.9,4,2.8,7.6,2.8
			c1.8,0,3.5-0.2,5.2-0.7c1.7-0.5,3.2-1.3,4.5-2.5c1.4-1.3,2.5-2.9,3.2-4.7c0.9-2.3,1.3-4.7,1.2-7.1c0-2.1-0.1-4-0.2-6
			c-0.2-1.9-0.4-4.3-0.6-7c-0.3-2.7-0.6-6-1-10c-0.4-4-0.8-9.1-1.2-15.4c-1.6,5.2-3.5,10.4-5.7,15.4c-2.2,5-4.7,10-7.4,15.2
			c1,0.5,2,1.3,2.7,2.2C568.5,95.2,568.8,96.4,568.8,97.6z"/>
		<path d="M650,45.7l-11.7,55c-0.4,1.7-0.6,3.4-0.6,5.2c0,2.3,0.5,3.8,1.6,4.7c1.5,1,3.2,1.5,5,1.3c3.3-0.1,6.5-1.6,8.7-4.1
			c2.8-2.8,4.8-6.4,5.8-10.2h6.8c-1.8,5.7-4.5,11-7.9,15.8c-2.6,3.5-5.7,6.6-9.2,9.1c-2.8,1.9-5.9,3.3-9.1,4.1
			c-2.5,0.6-5.1,0.9-7.7,1c-4.5,0.1-9-1.5-12.3-4.6c-3.3-3.1-5-8-5-14.8c0.1-3.5,0.5-7.1,1.3-10.5l10.9-52L650,45.7z M630,24.1
			c0-3.4,1.3-6.7,3.8-9.1c2.4-2.5,5.6-3.9,9.1-3.8c3.4,0,6.8,1.3,9.1,3.8c2.5,2.4,3.9,5.7,3.8,9.1c0.1,3.4-1.3,6.7-3.8,9.1
			c-2.4,2.4-5.7,3.8-9.1,3.7c-7,0-12.7-5.6-12.8-12.6C630,24.3,630,24.2,630,24.1L630,24.1z"/>
		<path d="M701,44.9c13.6,0,20.5,8.5,20.7,25.4c0.6,0.1,1.2,0.2,1.8,0.2c2.1,0,4.1-0.3,6.1-0.8c2.3-0.6,4.5-1.3,6.6-2.2
			c2.2-0.9,4.4-2,6.5-3.2c2.1-1.2,4-2.4,5.7-3.6l1.5,4.4c-3.5,3.6-7.6,6.5-12.2,8.5c-5.2,2.4-10.6,4-16.3,4.9
			c-0.5,7-2,13.8-4.4,20.4c-2,5.6-4.9,10.8-8.6,15.4c-3.2,4.1-7.2,7.4-11.8,9.8c-4.4,2.2-9.2,3.4-14.1,3.4c-3.5,0-7-0.4-10.4-1.4
			c-3-0.8-5.8-2.4-8.2-4.5c-2.4-2.2-4.2-4.9-5.3-7.9c-1.4-3.8-2-7.8-1.9-11.8c0-3.6,0.4-7.2,1-10.7c1.5-8.7,4.4-17.1,8.7-24.9
			c2.2-4,5-7.7,8.3-10.9c3.3-3.3,7.2-5.9,11.4-7.8C690.8,45.7,695.9,44.8,701,44.9z M689,112.4c2.2-0.1,4.3-1,5.9-2.5
			c2.2-2,4.1-4.3,5.5-7c1.8-3.4,3.3-6.9,4.5-10.6c1.3-4.3,2.3-8.7,2.9-13.2c-1.5-0.3-2.8-1.2-3.5-2.6c-0.6-1.3-0.9-2.8-0.9-4.3
			c-0.1-2,0.4-3.9,1.4-5.6c0.8-1.4,2.1-2.4,3.6-3c-0.2-3.3-0.8-5.7-1.7-7c-1-1.4-2.7-2.2-4.5-2c-2.9,0-5.7,1.6-8.3,4.8
			c-2.8,3.5-5.1,7.5-6.8,11.7c-2,4.7-3.6,9.6-4.7,14.6c-1.1,4.5-1.7,9.1-1.8,13.7c0,2.2,0.1,4.4,0.4,6.6c0.2,1.4,0.6,2.8,1.4,4
			c0.6,0.9,1.5,1.7,2.6,2C686.4,112.2,687.7,112.4,689,112.4z"/>
		<path d="M776.6,68c0-5.5-1.9-8.3-5.8-8.3c-2.9,0-5.4,1.5-7.6,4.4c-2.3,3.2-4,6.7-5,10.5l-10.9,52h-23.4L741,45.7h23.3l-1.8,8.4
			c3.5-3.9,6.9-6.4,10.2-7.4c2.8-1,5.8-1.5,8.7-1.6c4.7-0.2,9.2,1.4,12.8,4.3c3.4,2.9,5.1,7.5,5.1,14c0,3.6-0.4,7.2-1.2,10.8
			c-0.8,3.9-1.7,7.8-2.7,11.7c-1,3.8-1.9,7.4-2.7,10.9c-0.7,2.8-1.1,5.6-1.2,8.5c-0.1,1.8,0.5,3.5,1.5,4.9c0.9,1.3,2.6,1.9,5,1.9
			c1.8,0.2,3.7-0.2,5.3-1c-0.8,5.8-2.8,10.1-6.2,12.7c-3.3,2.6-7.4,4-11.6,4c-2.7,0.1-5.4-0.4-7.8-1.5c-2-0.9-3.7-2.3-5-4.1
			c-1.3-1.8-2.2-3.8-2.7-5.9c-0.5-2.2-0.8-4.5-0.8-6.7c0.1-3.2,0.4-6.5,1.1-9.6c0.8-3.7,1.6-7.5,2.5-11.3c0.9-3.8,1.8-7.5,2.5-11.1
			C776.2,74.3,776.6,71.2,776.6,68z"/>
		<path class="st0" d="M69.6,82.1L69,108H0v-5.3c4.8,0,7.8-0.7,9.2-2.1c1.4-1.4,2.1-3.7,2.1-7.1V44.9c0.1-1.8-0.2-3.5-0.7-5.2
			c-0.6-1.4-1.8-2.4-3.2-2.9C5,36,2.5,35.6,0,35.7v-5.3h38.9v5.3c-2.5-0.1-4.9,0.2-7.3,1c-1.4,0.4-2.6,1.5-3.3,2.8
			c-0.6,1.7-0.8,3.5-0.8,5.3v44.6c-0.1,2.5,0.1,5.1,0.5,7.5c0.3,1.5,1.4,2.8,2.8,3.5c2.4,0.9,4.9,1.4,7.5,1.2c3.9,0,7.7-0.3,11.5-1
			c3.5-0.8,6.7-2.6,9.1-5.3c2.8-2.9,4.5-7.3,5.2-13.2L69.6,82.1z"/>
		<path class="st0" d="M133.9,84.4c0.1,4.8-1.2,9.5-3.7,13.6c-2.5,3.8-6,6.9-10.2,8.8c-4.4,2.1-9.2,3.1-14.1,3.1
			c-4.7,0-9.3-0.9-13.6-2.8c-4.2-1.8-7.9-4.8-10.5-8.5c-2.8-4.1-4.2-9-4.1-14c0-8.3,2.8-14.5,8.5-18.8c5.8-4.3,12.9-6.6,20.1-6.4
			c5.2-0.1,10.3,1.1,14.9,3.4c4,2.1,7.3,5.3,9.5,9.2C132.8,75.7,133.9,80.1,133.9,84.4z M118.1,84.1c0-6.5-0.9-11.4-2.6-14.6
			c-1.7-3.2-5-4.9-10-4.9c-2.6-0.2-5.2,0.6-7.4,2.1c-1.9,1.7-3.3,4.1-3.7,6.6c-0.8,3.8-1.1,7.7-1.1,11.6c-0.2,4.9,0.6,9.7,2.3,14.2
			c1.6,3.6,5,5.4,10.2,5.4c3.5,0,6.1-1,7.9-3c1.9-2.1,3.1-4.7,3.5-7.4C117.9,90.9,118.2,87.5,118.1,84.1L118.1,84.1z"/>
		<path class="st0" d="M197.3,66.4c-1.5-0.1-3,0.5-4,1.7c-1.5,2.1-2.7,4.2-3.8,6.5l-17.2,34.7h-8l-19.7-37.8
			c-0.6-1.5-1.5-2.9-2.6-4.1c-1.3-0.6-2.6-0.9-4-0.9v-5.3h28v5.3c-1.5,0-3,0.2-4.4,0.5c-0.8,0.2-1.4,0.9-1.4,1.8
			c0.2,1.2,0.6,2.3,1.1,3.3l11.9,23.2l11.4-22.9c0.6-1.1,1-2.3,1.1-3.5c0.1-0.9-0.5-1.8-1.3-2c-1.4-0.3-2.9-0.5-4.4-0.4v-5.3h17.3
			L197.3,66.4z"/>
		<path class="st0" d="M252.2,82.8h-35.1c0,0.7,0.1,2.3,0.3,4.6c0.2,2.5,0.7,5,1.6,7.3c0.9,2.5,2.5,4.6,4.6,6.2
			c2.6,1.8,5.7,2.7,8.8,2.5c2.5-0.1,5-0.6,7.3-1.5c3-1.1,5.6-3.2,7.4-5.9l4.5,3c-4.5,7.2-11.6,10.8-21.4,10.8c-4.1,0-8.1-0.6-12-1.9
			c-3.4-1.1-6.5-2.9-9.2-5.3c-2.5-2.2-4.5-4.9-5.8-7.9c-1.3-3.1-2-6.4-2-9.8c0-4.5,1.1-8.9,3.3-12.8c2.3-4,5.6-7.2,9.6-9.4
			c4.4-2.4,9.3-3.6,14.2-3.5c4.6-0.2,9.2,1,13.2,3.4c3.4,2.1,6.2,5.1,8,8.7C251.3,75,252.2,78.9,252.2,82.8z M238,77.6
			c0-8.7-3.4-13-10.3-13c-3-0.1-5.9,1.2-7.6,3.6c-1.9,2.8-2.9,6.1-2.9,9.4L238,77.6z"/>
		<path class="st1" d="M378.3,15.2l-11.5,54.1c4.1-0.3,8-1.8,11.3-4.3c3.5-2.6,6.6-5.9,9-9.5c2.6-3.9,4.6-8.3,5.9-12.8
			c1.4-4.5,2.1-9.2,2.1-13.8c0-2.7-0.3-5.5-1.1-8.1c-0.7-2.5-1.9-4.9-3.6-6.9c-1.9-2.1-4.3-3.7-7-4.7c-3.6-1.3-7.4-1.9-11.3-1.8
			c-5.1,0-10.3,0.9-15.1,2.6c-4.6,1.6-8.9,4.2-12.5,7.5c-3.7,3.4-6.6,7.6-8.5,12.3c-2.2,5.3-3.3,11-3.2,16.7c0,1.7,0.1,3.3,0.3,4.9
			c0.1,1,0.3,2.1,0.6,3.1c0.2,0.7,0.4,1.3,0.8,1.9c0.3,0.4,0.6,0.9,0.8,1.3c-5.4,0-9.6-1.1-12.7-3.3c-3.1-2.2-4.6-6.1-4.6-11.6
			c0-5.8,1.8-11.5,5-16.3c3.5-5.3,8-10,13.2-13.7c5.7-4.1,12-7.2,18.6-9.4C361.7,1.2,368.8,0,376,0c5.6-0.1,11.1,0.8,16.3,2.7
			c4.3,1.6,8.2,4,11.6,7.1c3,2.8,5.4,6.3,6.9,10.2c1.5,3.9,2.3,8,2.3,12.2c0,5.3-1.1,10.5-3.2,15.3c-2.2,5.2-5.3,9.9-9.2,13.9
			c-4.2,4.3-9.2,7.7-14.8,10.1c-6.2,2.7-12.9,4-19.7,3.8h-0.8l-9.8,46.1h-23.4l22.1-102.9L378.3,15.2z"/>
		<path class="st1" d="M484.8,40.5l-11.8,55c-0.4,1.7-0.6,3.4-0.6,5.2c0,2.3,0.5,3.8,1.6,4.7c1.5,1,3.3,1.4,5,1.3
			c3.2,0,6.1-1.5,8-4.1c2.4-3,4.1-6.5,5.1-10.2h6.8c-1.8,5.6-4.3,10.8-7.7,15.6c-2.4,3.4-5.4,6.3-8.7,8.7c-2.6,1.8-5.5,3.1-8.7,3.8
			c-2.5,0.5-4.9,0.8-7.4,0.8c-3.9,0.2-7.7-1.1-10.8-3.6c-2.7-2.4-4.4-5.9-5.1-10.5c-1.3,1.9-2.7,3.8-4.2,5.5
			c-1.6,1.8-3.4,3.5-5.4,4.9c-2,1.4-4.2,2.6-6.6,3.4c-2.5,0.9-5.2,1.3-7.9,1.3c-2.7,0-5.4-0.5-8-1.4c-2.6-1-5-2.5-6.9-4.5
			c-2.2-2.3-3.9-5-4.9-8c-1.3-3.9-1.9-8-1.8-12.2c0-4,0.4-7.9,1.1-11.8c0.8-4.3,1.9-8.5,3.4-12.6c1.5-4.2,3.4-8.3,5.7-12.2
			c2.2-3.8,4.9-7.3,8.1-10.3c3.1-2.9,6.6-5.3,10.4-7.1c4.1-1.8,8.5-2.8,12.9-2.7c1.4,0,2.8,0.1,4.1,0.2c1.4,0.1,2.8,0.5,4.1,1.1
			c1.3,0.6,2.4,1.5,3.2,2.6c1,1.3,1.6,2.8,1.9,4.5l1.6-7.6H484.8z M451.6,49.7c-3.5,0-6.6,1.6-9.4,4.8c-3,3.5-5.4,7.4-7.1,11.7
			c-2,4.7-3.5,9.6-4.5,14.6c-1,4.4-1.5,8.9-1.6,13.4c-0.1,2.4,0.2,4.9,0.9,7.2c0.4,1.4,1.1,2.6,2.1,3.7c0.7,0.7,1.6,1.3,2.6,1.5
			c0.8,0.2,1.7,0.2,2.5,0.2c1.3,0,2.6-0.3,3.8-0.9c1.5-0.7,2.8-1.6,4-2.7c1.4-1.3,2.5-2.8,3.4-4.5c1-2,1.8-4.1,2.3-6.3l7.8-36.6
			c0-0.6-0.2-1.2-0.4-1.7c-0.3-0.7-0.7-1.4-1.1-2c-0.5-0.7-1.2-1.3-1.9-1.7C453.8,49.9,452.7,49.7,451.6,49.7L451.6,49.7z"/>
		<path class="st1" d="M560.7,92.5c-3.8,4.5-8.1,8.6-12.7,12.2c-3.8,3-7.9,5.7-12.1,8.1c-1.7,1.8-3.6,3.3-5.7,4.5
			c-2.1,1.2-4.2,2.2-6.5,3c-2.2,0.8-4.5,1.4-6.8,1.7c-2.1,0.3-4.3,0.5-6.5,0.5c-3.6,0.1-7.2-0.6-10.6-1.9c-2.7-1.1-5.2-2.7-7.4-4.8
			c-1.9-1.9-3.4-4.1-4.3-6.6c-0.9-2.4-1.4-4.9-1.4-7.4c-0.1-3.4,0.8-6.7,2.6-9.5c1.5-2.3,3.5-4.2,6-5.5c4.4-7.7,8.2-15.8,11.5-24
			c3.1-7.9,5.9-15.9,8.4-23.9l24-3.2c0.4,10.5,0.9,18.9,1.3,25.4s0.8,11.7,1.1,15.8c0.3,4.1,0.6,7.3,0.8,9.9
			c0.2,2.5,0.3,5.1,0.3,7.8c0,2.1-0.2,4.1-0.6,6.2c4.1-2.3,8-5.1,11.6-8.1H560.7z M507,92.5c0,2-0.7,3.9-1.9,5.4
			c-1.2,1.6-3.1,2.6-5.2,2.5c-0.9,0-1.7-0.1-2.5-0.4c-0.8-0.3-1.5-0.9-1.9-1.7c0,3.8,0.8,6.6,2.3,8.5c1.5,1.9,4,2.8,7.6,2.8
			c1.8,0,3.5-0.2,5.2-0.7c1.7-0.5,3.2-1.3,4.5-2.5c1.4-1.3,2.5-2.9,3.2-4.7c0.9-2.3,1.3-4.7,1.2-7.1c0-2.1-0.1-4-0.2-6
			c-0.2-1.9-0.4-4.3-0.6-7c-0.3-2.7-0.6-6-1-10c-0.4-4-0.8-9.1-1.2-15.4c-1.6,5.2-3.5,10.4-5.7,15.4c-2.2,4.9-4.7,10-7.4,15.2
			c1,0.5,2,1.3,2.7,2.2C506.6,90,507,91.2,507,92.5z"/>
		<path class="st1" d="M622.5,92.5c-3.8,4.5-8.1,8.6-12.7,12.2c-3.8,3-7.9,5.7-12.1,8.1c-1.7,1.8-3.6,3.3-5.7,4.5
			c-2.1,1.2-4.2,2.2-6.5,3c-2.2,0.8-4.5,1.4-6.8,1.7c-2.1,0.3-4.3,0.5-6.5,0.5c-3.6,0.1-7.2-0.5-10.6-1.9c-2.7-1.1-5.2-2.7-7.4-4.8
			c-1.9-1.9-3.4-4.1-4.3-6.6c-0.9-2.4-1.4-4.9-1.4-7.4c-0.1-3.4,0.8-6.7,2.6-9.5c1.5-2.3,3.5-4.2,6-5.5c4.4-7.7,8.2-15.8,11.5-24
			c3.1-7.9,5.9-15.9,8.4-23.9l24-3.2c0.4,10.5,0.9,18.9,1.3,25.4c0.4,6.5,0.8,11.7,1.1,15.8c0.3,4.1,0.6,7.3,0.8,9.9
			c0.2,2.5,0.3,5.1,0.3,7.8c0,2.1-0.2,4.1-0.6,6.2c4.1-2.4,8-5.1,11.7-8.1H622.5z M568.8,92.5c0,2-0.7,3.9-1.9,5.4
			c-1.2,1.6-3.1,2.6-5.2,2.5c-0.9,0-1.7-0.1-2.5-0.4c-0.8-0.3-1.5-0.9-1.9-1.7c0,3.8,0.8,6.6,2.3,8.5c1.5,1.9,4,2.8,7.6,2.8
			c1.8,0,3.5-0.2,5.2-0.7c1.7-0.5,3.2-1.3,4.5-2.5c1.4-1.3,2.5-2.9,3.2-4.7c0.9-2.3,1.3-4.7,1.2-7.1c0-2.1-0.1-4-0.2-6
			c-0.2-1.9-0.4-4.3-0.6-7c-0.3-2.7-0.6-6-1-10c-0.4-4-0.8-9.1-1.2-15.4c-1.6,5.2-3.5,10.4-5.7,15.4c-2.2,5-4.7,10-7.4,15.2
			c1,0.5,2,1.3,2.7,2.2C568.5,90,568.8,91.2,568.8,92.5z"/>
		<path class="st1" d="M650,40.5l-11.7,55c-0.4,1.7-0.6,3.4-0.6,5.2c0,2.3,0.5,3.8,1.6,4.7c1.5,1,3.3,1.4,5,1.3
			c3.3-0.1,6.5-1.6,8.7-4.1c2.8-2.8,4.8-6.3,5.8-10.2h6.8c-1.8,5.7-4.5,11-7.9,15.8c-2.6,3.5-5.7,6.6-9.2,9.1
			c-2.8,1.9-5.9,3.3-9.1,4.1c-2.5,0.6-5.1,0.9-7.7,1c-4.5,0.1-9-1.5-12.3-4.6c-3.3-3.1-5-8-5-14.8c0.1-3.6,0.5-7.1,1.3-10.5l10.9-52
			L650,40.5z M630,18.9c0-3.4,1.3-6.7,3.8-9.1c2.4-2.5,5.6-3.9,9.1-3.8c3.4,0,6.8,1.3,9.1,3.8c2.5,2.4,3.9,5.7,3.8,9.1
			c0,3.4-1.4,6.7-3.9,9c-2.4,2.4-5.7,3.8-9.1,3.7c-3.4,0-6.6-1.3-9-3.7C631.3,25.6,629.9,22.4,630,18.9z"/>
		<path class="st1" d="M701,39.7c13.6,0,20.5,8.5,20.7,25.4c0.6,0.1,1.2,0.2,1.8,0.2c2.1,0,4.1-0.3,6.1-0.8c2.3-0.6,4.5-1.3,6.6-2.2
			c2.2-0.9,4.4-2,6.5-3.2c2.1-1.2,4-2.4,5.7-3.6l1.5,4.4c-3.5,3.6-7.6,6.5-12.2,8.5c-5.2,2.4-10.6,4-16.3,4.9
			c-0.5,6.9-2,13.8-4.4,20.3c-2,5.6-4.9,10.8-8.6,15.5c-3.2,4.1-7.2,7.4-11.8,9.8c-4.4,2.2-9.2,3.4-14.1,3.4c-3.5,0-7-0.4-10.4-1.4
			c-3-0.8-5.8-2.4-8.2-4.5c-2.4-2.2-4.2-4.9-5.3-7.9c-1.4-3.8-2-7.8-1.9-11.8c0-3.6,0.4-7.2,1-10.7c1.5-8.7,4.4-17.1,8.7-24.9
			c2.2-4,5-7.7,8.3-10.9c3.3-3.2,7.2-5.8,11.4-7.7C690.8,40.6,695.9,39.6,701,39.7z M689,107.2c2.2-0.1,4.3-1,5.9-2.5
			c2.2-2,4.1-4.3,5.5-7c1.8-3.4,3.3-6.9,4.5-10.6c1.3-4.3,2.3-8.8,2.9-13.3c-1.5-0.2-2.8-1.1-3.5-2.5c-0.6-1.3-0.9-2.8-0.9-4.3
			c-0.1-2,0.4-3.9,1.4-5.6c0.8-1.4,2.1-2.4,3.6-3c-0.2-3.3-0.8-5.7-1.7-7c-1-1.4-2.7-2.2-4.5-2c-2.9,0-5.7,1.6-8.3,4.8
			c-2.8,3.5-5.1,7.5-6.8,11.6c-2,4.7-3.6,9.6-4.7,14.6c-1.1,4.5-1.7,9.1-1.8,13.7c0,2.2,0.1,4.4,0.4,6.5c0.2,1.4,0.6,2.8,1.4,4
			c0.6,0.9,1.5,1.7,2.6,2C686.4,107,687.7,107.2,689,107.2z"/>
		<path class="st1" d="M776.6,62.8c0-5.5-1.9-8.3-5.8-8.3c-2.9,0-5.4,1.5-7.6,4.4c-2.3,3.2-4,6.7-5,10.5l-10.9,52h-23.4L741,40.5
			h23.3l-1.8,8.4c3.5-3.9,6.9-6.4,10.2-7.4c2.8-1,5.8-1.5,8.7-1.6c4.7-0.2,9.2,1.4,12.8,4.3c3.4,2.9,5.1,7.5,5.1,14
			c0,3.6-0.4,7.2-1.2,10.8c-0.8,3.9-1.7,7.8-2.7,11.7c-1,3.8-1.9,7.4-2.7,10.9c-0.7,2.8-1.1,5.6-1.2,8.5c-0.1,1.8,0.5,3.5,1.5,4.9
			c0.9,1.2,2.6,1.9,5.1,1.9c1.8,0.2,3.7-0.2,5.3-1c-0.8,5.8-2.8,10.1-6.2,12.7c-3.3,2.6-7.4,4-11.6,4c-2.7,0.1-5.4-0.4-7.8-1.5
			c-2-0.9-3.7-2.3-5-4.1c-1.3-1.8-2.2-3.8-2.7-5.9c-0.5-2.2-0.8-4.5-0.8-6.7c0.1-3.2,0.4-6.5,1.1-9.6c0.8-3.7,1.6-7.5,2.5-11.3
			c0.9-3.8,1.8-7.5,2.5-11.1C776.2,69.1,776.6,65.9,776.6,62.8z"/>
		<path class="st2" d="M930.4,32.6v-4.2c-0.1-1.1,0.2-2.2,0.8-3.1c1.2-1.2,3.1-1.2,4.3-0.1c0,0,0.1,0.1,0.1,0.1
			c0.6,0.9,0.9,2,0.8,3.1V45c0.1,1.1-0.2,2.2-0.8,3.1c-0.6,0.6-1.3,1-2.2,0.9c-0.8,0-1.5-0.3-2-0.9c-0.6-0.8-1-1.8-1-2.8
			c-0.2-4-2.4-7.5-6.5-10.6c-5.4-4.2-12-6.4-18.8-6.3c-4.5,0-9,1-13.1,3.1c-2.8,1.3-5.3,3.1-7.3,5.4c-3.1,3.7-5.7,7.9-7.5,12.4
			c-1.4,3.6-2.1,7.4-2,11.3v10.5c-0.1,8.8,3.4,17.2,9.7,23.3c6.5,6.6,14,9.9,22.6,9.9c4.8,0.1,9.6-1.1,13.8-3.4
			c4.5-2.6,8.5-6.1,11.8-10.1c0.6-0.9,1.6-1.4,2.7-1.5c0.8,0,1.5,0.3,2.1,0.8c0.5,0.5,0.8,1.2,0.8,2c0,1.1-1,2.8-3.1,5
			c-3.6,4.2-8.1,7.6-13.2,9.9c-4.6,2.2-9.7,3.3-14.8,3.3c-4.5,0-9-0.9-13.2-2.5c-3-1.1-5.9-2.6-8.5-4.5c-3.1-2.6-5.8-5.5-8.2-8.7
			c-2.8-3.4-5.1-7.2-6.6-11.3c-1.2-3.7-1.8-7.5-1.8-11.4V59.8c0.1-6.3,1.7-12.5,4.8-18.1c2.9-5.9,7.4-10.8,13-14.2
			c5.4-3.3,11.6-5,17.9-5C914.3,22.4,923.5,26,930.4,32.6z"/>
		<path class="st2" d="M1025.3,77.2c0.1,8.8-3.4,17.3-9.8,23.4c-13.2,13-34.3,13-47.4,0c-6.3-6.1-9.9-14.6-9.7-23.4
			c-0.1-8.8,3.4-17.3,9.7-23.5c13.2-13,34.3-13,47.4,0C1021.9,59.9,1025.4,68.4,1025.3,77.2z M1019.2,77.2c0.1-7.2-2.8-14.2-8-19.2
			c-10.8-10.6-28.1-10.6-38.9,0c-10.6,10.4-10.7,27.4-0.3,38c0.1,0.1,0.2,0.2,0.3,0.3c10.8,10.6,28.1,10.6,38.9,0
			C1016.4,91.3,1019.3,84.4,1019.2,77.2L1019.2,77.2z"/>
		<path class="st2" d="M1109,18.3V102h8c1.1-0.1,2.2,0.2,3.1,0.8c1.2,1.1,1.2,3,0.1,4.2c0,0-0.1,0.1-0.1,0.1c-0.9,0.7-2,1-3.1,0.9
			h-14.1V96.1c-7,9.5-15.8,14.3-26.5,14.3c-11.5-0.1-22-6.5-27.4-16.7c-5.8-10.3-5.8-22.8,0-33c2.7-5.1,6.8-9.4,11.8-12.3
			c4.8-2.8,10.2-4.3,15.7-4.3c10.5,0,19.3,4.8,26.4,14.3V24.3h-8c-1.1,0.1-2.2-0.2-3.1-0.9c-0.6-0.6-1-1.4-0.9-2.2
			c0-0.8,0.3-1.6,0.9-2.1c0.9-0.7,2-1,3.1-0.9L1109,18.3z M1102.9,77.2c0.2-7.2-2.6-14.2-7.7-19.3c-9.7-10.2-25.8-10.5-36-0.8
			c-0.3,0.3-0.5,0.5-0.8,0.8c-5.1,5.1-7.9,12.1-7.7,19.3c-0.2,7.2,2.6,14.2,7.7,19.3c9.7,10.2,25.7,10.6,35.9,0.9
			c0.3-0.3,0.6-0.6,0.9-0.9C1100.3,91.3,1103.1,84.4,1102.9,77.2L1102.9,77.2z"/>
		<path class="st2" d="M1199.9,78.5h-61.2c0.8,7.3,4.2,13.9,9.7,18.8c5.5,4.7,12.2,7.1,20.3,7.1c4.8,0,9.5-0.7,14.1-2.2
			c4.3-1.2,8.4-3.2,12-5.9c0.6-0.6,1.5-1,2.4-1.1c0.8,0,1.5,0.3,2,0.9c0.6,0.6,0.9,1.3,0.9,2.1c0,0.9-0.5,1.8-1.1,2.4
			c-2.3,2.4-6.3,4.6-12.2,6.7c-5.8,2.1-11.8,3.1-18,3.1c-10.3,0-18.9-3.4-25.8-10.1c-6.7-6.4-10.5-15.2-10.3-24.5
			c-0.1-8.5,3.5-16.7,9.7-22.4c6.4-6.2,15-9.6,24-9.4c9.8,0,17.9,3.2,24.2,9.6S1200,68.3,1199.9,78.5z M1193.8,72.4
			c-1-6.4-4.4-12.1-9.4-16.1c-10.6-8.3-25.5-8.3-36.2-0.1c-5,4.1-8.4,9.8-9.4,16.2H1193.8z"/>
		<line class="st3" x1="270.9" y1="72.1" x2="316" y2="72.1"/>
		<line class="st3" x1="292.8" y1="94" x2="292.8" y2="50.2"/>
		<line class="st3" x1="812.2" y1="72.1" x2="856" y2="72.1"/>
		<line class="st3" x1="834.1" y1="94" x2="834.1" y2="50.2"/>
	</g>
</g>
</svg>
