<?xml version="1.0" encoding="utf-8"?>
<svg version="1.1" id="Warbcg-ioswa_1" xmlns="http://www.w3.org/2000/svg" xmlns:xlink="http://www.w3.org/1999/xlink" x="0px" y="0px"
	 viewBox="0 0 1634.6 2466" bcg-iosyle="enable-background:new 0 0 1634.6 2466;" xml:space="preserve">
<style type="text/css">
	.bcg-ios0{fill:#141923;}
	.bcg-ios1{fill:#1E2333;}
	.bcg-ios2{fill:#AA2D2B;}
	.bcg-ios3{fill:#2B304B;}
	.bcg-ios4{fill:none;bcg-iosroke:#2B304B;bcg-iosroke-width:6;bcg-iosroke-linecap:round;bcg-iosroke-linejoin:round;}
	.bcg-ios5{fill:#DA6346;}
</style>
<circle class="bcg-ios0" cx="699.9" cy="663.7" r="267.4"/>
<circle class="bcg-ios0" cx="1305.4" cy="1135.8" r="304.1"/>
<circle class="bcg-ios0" cx="361.4" cy="1803.5" r="304.1"/>
<title>Zasób 2</title>
<g>
	<path class="bcg-ios1" d="M1459.2,550H1349c-12.2,0-22.1-9.9-22.1-22.1l0,0c0-12.2,9.9-22.1,22.1-22.1h110.2c12.2,0,22.1,9.9,22.1,22.1
		l0,0C1481.2,540.1,1471.3,550,1459.2,550z"/>
	<path class="bcg-ios1" d="M1254.9,521.8L1254.9,521.8c-12.2,0-22.1-9.9-22.1-22.1l0,0c0-12.2,9.9-22.1,22.1-22.1l0,0
		c12.2,0,22.1,9.9,22.1,22.1l0,0C1277,511.9,1267.1,521.8,1254.9,521.8z"/>
	<path class="bcg-ios1" d="M1573,523.5h-268c-12.2,0-22.1-9.9-22.1-22.1l0,0c0-12.2,9.9-22.1,22.1-22.1h268c12.2,0,22.1,9.9,22.1,22.1
		l0,0C1595.1,513.6,1585.2,523.5,1573,523.5z"/>
	<path class="bcg-ios1" d="M1515.9,492.9h-141.1c-12.2,0-22.1-9.9-22.1-22.1l0,0c0-12.2,9.9-22.1,22.1-22.1h141.1
		c12.2,0,22.1,9.9,22.1,22.1l0,0C1538,483,1528.1,492.9,1515.9,492.9z"/>
</g>
<g>
	<path class="bcg-ios1" d="M387.9,862.7h81.4c9,0,16.3,7.3,16.3,16.3l0,0c0,9-7.3,16.3-16.3,16.3h-81.4c-9,0-16.3-7.3-16.3-16.3l0,0
		C371.6,870,379,862.7,387.9,862.7z"/>
	<path class="bcg-ios1" d="M538.7,883.5L538.7,883.5c9,0,16.3,7.3,16.3,16.3l0,0c0,9-7.3,16.3-16.3,16.3l0,0c-9,0-16.3-7.3-16.3-16.3l0,0
		C522.4,890.8,529.7,883.5,538.7,883.5z"/>
	<path class="bcg-ios1" d="M303.9,882.3h197.9c9,0,16.3,7.3,16.3,16.3l0,0c0,9-7.3,16.3-16.3,16.3H303.9c-9,0-16.3-7.3-16.3-16.3l0,0
		C287.5,889.6,294.8,882.3,303.9,882.3z"/>
	<path class="bcg-ios1" d="M346,904.9h104.2c9,0,16.3,7.3,16.3,16.3l0,0c0,9-7.3,16.3-16.3,16.3H346c-9,0-16.3-7.3-16.3-16.3l0,0
		C329.7,912.2,337,904.9,346,904.9z"/>
</g>
<g>
	<path class="bcg-ios1" d="M1189.7,614.7h81.4c9,0,16.3,7.3,16.3,16.3l0,0c0,9-7.3,16.3-16.3,16.3h-81.4c-9,0-16.3-7.3-16.3-16.3l0,0
		C1173.4,622,1180.7,614.7,1189.7,614.7z"/>
	<path class="bcg-ios1" d="M1340.5,635.5L1340.5,635.5c9,0,16.3,7.3,16.3,16.3l0,0c0,9-7.3,16.3-16.3,16.3l0,0c-9,0-16.3-7.3-16.3-16.3
		l0,0C1324.2,642.8,1331.5,635.5,1340.5,635.5z"/>
	<path class="bcg-ios1" d="M1105.6,634.2h197.9c9,0,16.3,7.3,16.3,16.3l0,0c0,9-7.3,16.3-16.3,16.3h-197.9c-9,0-16.3-7.3-16.3-16.3l0,0
		C1089.3,641.5,1096.6,634.2,1105.6,634.2z"/>
	<path class="bcg-ios1" d="M1147.8,656.8H1252c9,0,16.3,7.3,16.3,16.3l0,0c0,9-7.3,16.3-16.3,16.3h-104.2c-9,0-16.3-7.3-16.3-16.3l0,0
		C1131.5,664.1,1138.8,656.8,1147.8,656.8z"/>
</g>
<g>
	<path class="bcg-ios1" d="M1264.7,158.3h81.4c9,0,16.3,7.3,16.3,16.3l0,0c0,9-7.3,16.3-16.3,16.3h-81.4c-9,0-16.3-7.3-16.3-16.3l0,0
		C1248.4,165.6,1255.8,158.3,1264.7,158.3z"/>
	<path class="bcg-ios1" d="M1415.5,179.1L1415.5,179.1c9,0,16.3,7.3,16.3,16.3l0,0c0,9-7.3,16.3-16.3,16.3l0,0c-9,0-16.3-7.3-16.3-16.3
		l0,0C1399.2,186.4,1406.5,179.1,1415.5,179.1z"/>
	<path class="bcg-ios1" d="M1180.7,177.9h197.9c9,0,16.3,7.3,16.3,16.3l0,0c0,9-7.3,16.3-16.3,16.3h-197.9c-9,0-16.3-7.3-16.3-16.3l0,0
		C1164.3,185.2,1171.6,177.9,1180.7,177.9z"/>
	<path class="bcg-ios1" d="M1222.8,200.5H1327c9,0,16.3,7.3,16.3,16.3l0,0c0,9-7.3,16.3-16.3,16.3h-104.2c-9,0-16.3-7.3-16.3-16.3l0,0
		C1206.5,207.8,1213.8,200.5,1222.8,200.5z"/>
</g>
<g>
	<path class="bcg-ios1" d="M528.6,726.8h-81.4c-9,0-16.3-7.3-16.3-16.3l0,0c0-9,7.3-16.3,16.3-16.3h81.4c9,0,16.3,7.3,16.3,16.3l0,0
		C544.8,719.5,537.5,726.8,528.6,726.8z"/>
	<path class="bcg-ios1" d="M377.7,706L377.7,706c-9,0-16.3-7.3-16.3-16.3l0,0c0-9,7.3-16.3,16.3-16.3l0,0c9,0,16.3,7.3,16.3,16.3l0,0
		C394,698.7,386.7,706,377.7,706z"/>
	<path class="bcg-ios1" d="M612.6,707.2H414.7c-9,0-16.3-7.3-16.3-16.3l0,0c0-9,7.3-16.3,16.3-16.3h197.9c9,0,16.3,7.3,16.3,16.3l0,0
		C628.9,699.9,621.6,707.2,612.6,707.2z"/>
	<path class="bcg-ios1" d="M570.4,684.6H466.2c-9,0-16.3-7.3-16.3-16.3l0,0c0-9,7.3-16.3,16.3-16.3h104.2c9,0,16.3,7.3,16.3,16.3l0,0
		C586.8,677.3,579.4,684.6,570.4,684.6z"/>
</g>
<g>
	<path class="bcg-ios1" d="M445,384.6h-99.6c-11,0-20-8.9-20-20l0,0c0-11,8.9-20,20-20H445c11,0,20,8.9,20,20l0,0
		C464.9,375.7,456,384.6,445,384.6z"/>
	<path class="bcg-ios1" d="M260.4,359.2L260.4,359.2c-11,0-20-8.9-20-20l0,0c0-11,8.9-20,20-20l0,0c11,0,20,8.9,20,20l0,0
		C280.4,350.2,271.4,359.2,260.4,359.2z"/>
	<path class="bcg-ios1" d="M547.9,360.7H305.7c-11,0-20-8.9-20-20l0,0c0-11,8.9-20,20-20h242.2c11,0,20,8.9,20,20l0,0
		C567.8,351.7,558.9,360.7,547.9,360.7z"/>
	<path class="bcg-ios1" d="M496.3,333H368.8c-11,0-20-8.9-20-20l0,0c0-11,8.9-20,20-20h127.5c11,0,20,8.9,20,20l0,0
		C516.2,324.1,507.3,333,496.3,333z"/>
</g>
<g>
	<path class="bcg-ios1" d="M969.7,776H859.5c-12.2,0-22.1-9.9-22.1-22.1l0,0c0-12.2,9.9-22.1,22.1-22.1h110.2c12.2,0,22.1,9.9,22.1,22.1
		l0,0C991.7,766.1,981.9,776,969.7,776z"/>
	<path class="bcg-ios1" d="M765.5,747.8L765.5,747.8c-12.2,0-22.1-9.9-22.1-22.1l0,0c0-12.2,9.9-22.1,22.1-22.1l0,0
		c12.2,0,22.1,9.9,22.1,22.1l0,0C787.5,737.9,777.6,747.8,765.5,747.8z"/>
	<path class="bcg-ios1" d="M1083.6,749.5h-268c-12.2,0-22.1-9.9-22.1-22.1l0,0c0-12.2,9.9-22.1,22.1-22.1h268c12.2,0,22.1,9.9,22.1,22.1
		l0,0C1105.6,739.6,1095.8,749.5,1083.6,749.5z"/>
	<path class="bcg-ios1" d="M1026.4,718.9h-141c-12.2,0-22.1-9.9-22.1-22.1l0,0c0-12.2,9.9-22.1,22.1-22.1h141.1
		c12.2,0,22.1,9.9,22.1,22.1l0,0C1048.6,709,1038.6,718.9,1026.4,718.9z"/>
</g>
<path class="bcg-ios1" d="M201.2,826.7H91c-12.2,0-22.1-9.9-22.1-22.1l0,0c0-12.2,9.9-22.1,22.1-22.1h110.2c12.2,0,22.1,9.9,22.1,22.1
	l0,0C223.2,816.8,213.3,826.7,201.2,826.7z"/>
<path class="bcg-ios1" d="M-3.1,798.5L-3.1,798.5c-12.2,0-22.1-9.9-22.1-22.1l0,0c0-12.2,9.9-22.1,22.1-22.1l0,0
	c12.2,0,22.1,9.9,22.1,22.1l0,0C19,788.6,9.1,798.5-3.1,798.5z"/>
<path class="bcg-ios1" d="M315,800.2H47c-12.2,0-22.1-9.9-22.1-22.1l0,0c0-12.2,9.9-22.1,22.1-22.1h268c12.2,0,22.1,9.9,22.1,22.1l0,0
	C337.1,790.3,327.2,800.2,315,800.2z"/>
<path class="bcg-ios1" d="M257.9,769.6H116.8c-12.2,0-22.1-9.9-22.1-22.1l0,0c0-12.2,9.9-22.1,22.1-22.1h141.1c12.2,0,22.1,9.9,22.1,22.1
	l0,0C280,759.7,270.1,769.6,257.9,769.6z"/>
<path class="bcg-ios1" d="M1023.5,1113.7h110.2c12.2,0,22.1,9.9,22.1,22.1l0,0c0,12.2-9.9,22.1-22.1,22.1h-110.2
	c-12.2,0-22.1-9.9-22.1-22.1l0,0C1001.5,1123.6,1011.4,1113.7,1023.5,1113.7z"/>
<path class="bcg-ios1" d="M1227.8,1141.8L1227.8,1141.8c12.2,0,22.1,9.9,22.1,22.1l0,0c0,12.2-9.9,22.1-22.1,22.1l0,0
	c-12.2,0-22.1-9.9-22.1-22.1l0,0C1205.7,1151.7,1215.6,1141.8,1227.8,1141.8z"/>
<path class="bcg-ios1" d="M909.7,1140.1h268c12.2,0,22.1,9.9,22.1,22.1l0,0c0,12.2-9.9,22.1-22.1,22.1h-268c-12.2,0-22.1-9.9-22.1-22.1
	l0,0C887.6,1150,897.5,1140.1,909.7,1140.1z"/>
<path class="bcg-ios1" d="M966.8,1170.7h141.1c12.2,0,22.1,9.9,22.1,22.1l0,0c0,12.2-9.9,22.1-22.1,22.1H966.8
	c-12.2,0-22.1-9.9-22.1-22.1l0,0C944.7,1180.6,954.6,1170.7,966.8,1170.7z"/>
<path class="bcg-ios1" d="M842.5,482.8h110.2c12.2,0,22.1,9.9,22.1,22.1l0,0c0,12.2-9.9,22.1-22.1,22.1H842.5c-12.2,0-22.1-9.9-22.1-22.1
	l0,0C820.3,492.7,830.2,482.8,842.5,482.8z"/>
<path class="bcg-ios1" d="M1046.7,511L1046.7,511c12.2,0,22.1,9.9,22.1,22.1l0,0c0,12.2-9.9,22.1-22.1,22.1l0,0
	c-12.2,0-22.1-9.9-22.1-22.1l0,0C1024.5,520.8,1034.4,511,1046.7,511z"/>
<path class="bcg-ios1" d="M728.5,509.2h268c12.2,0,22.1,9.9,22.1,22.1l0,0c0,12.2-9.9,22.1-22.1,22.1h-268c-12.2,0-22.1-9.9-22.1-22.1
	l0,0C706.5,519,716.3,509.2,728.5,509.2z"/>
<path class="bcg-ios1" d="M785.7,539.8h141.1c12.2,0,22.1,9.9,22.1,22.1l0,0c0,12.2-9.9,22.1-22.1,22.1H785.7c-12.2,0-22.1-9.9-22.1-22.1
	l0,0C763.5,549.8,773.5,539.8,785.7,539.8z"/>
<path class="bcg-ios1" d="M491.8,1208.8H34.7c-19.2,0-34.7-15.5-34.7-34.7l0,0c0-19.2,15.5-34.7,34.7-34.7h457.1
	c19.2,0,34.7,15.5,34.7,34.7l0,0C526.5,1193.3,511,1208.8,491.8,1208.8z"/>
<path class="bcg-ios1" d="M595.6,1208.8L595.6,1208.8c-19.2,0-34.7-15.5-34.7-34.7l0,0c0-19.2,15.5-34.7,34.7-34.7l0,0
	c19.2,0,34.7,15.5,34.7,34.7l0,0C630.3,1193.3,614.8,1208.8,595.6,1208.8z"/>
<path class="bcg-ios1" d="M386.6,1167.3h-421c-19.2,0-34.7-15.5-34.7-34.7l0,0c0-19.2,15.5-34.7,34.7-34.7h421
	c19.2,0,34.7,15.5,34.7,34.7l0,0C421.3,1151.8,405.8,1167.3,386.6,1167.3z"/>
<path class="bcg-ios1" d="M296.9,1119.1H75.3c-19.2,0-34.7-15.5-34.7-34.7l0,0c0-19.2,15.5-34.7,34.7-34.7h221.6
	c19.2,0,34.7,15.5,34.7,34.7l0,0C331.6,1103.6,316.1,1119.1,296.9,1119.1z"/>
<path class="bcg-ios1" d="M64.7,1290.3h139.8c15.5,0,28,12.5,28,28l0,0c0,15.5-12.5,28-28,28H64.7c-15.5,0-28-12.5-28-28l0,0
	C36.7,1302.9,49.3,1290.3,64.7,1290.3z"/>
<path class="bcg-ios1" d="M323.8,1326.1L323.8,1326.1c15.5,0,28,12.5,28,28l0,0c0,15.5-12.5,28-28,28l0,0c-15.5,0-28-12.5-28-28l0,0
	C295.8,1338.6,308.4,1326.1,323.8,1326.1z"/>
<path class="bcg-ios1" d="M-79.7,1323.9h340c15.5,0,28,12.5,28,28l0,0c0,15.5-12.5,28-28,28h-340c-15.5,0-28-12.5-28-28l0,0
	C-107.7,1336.4-95.1,1323.9-79.7,1323.9z"/>
<path class="bcg-ios1" d="M-7.2,1362.7h179c15.5,0,28,12.5,28,28l0,0c0,15.5-12.5,28-28,28h-179c-15.5,0-28-12.5-28-28l0,0
	C-35.3,1375.3-22.7,1362.7-7.2,1362.7z"/>
<path class="bcg-ios1" d="M991.2,442.1H800.3c-21.1,0-38.3-17.1-38.3-38.3l0,0c0-21.1,17.1-38.3,38.3-38.3h190.9
	c21.1,0,38.3,17.1,38.3,38.3l0,0C1029.4,425,1012.3,442.1,991.2,442.1z"/>
<path class="bcg-ios1" d="M637.4,393.3L637.4,393.3c-21.1,0-38.3-17.1-38.3-38.3l0,0c0-21.1,17.1-38.3,38.3-38.3l0,0
	c21.1,0,38.3,17.1,38.3,38.3l0,0C675.6,376.2,658.5,393.3,637.4,393.3z"/>
<path class="bcg-ios1" d="M1188.4,396.3H724.1c-21.1,0-38.3-17.1-38.3-38.3l0,0c0-21.1,17.1-38.3,38.3-38.3h464.3
	c21.1,0,38.3,17.1,38.3,38.3l0,0C1226.7,379.1,1209.5,396.3,1188.4,396.3z"/>
<path class="bcg-ios1" d="M1089.5,343.2H845.1c-21.1,0-38.3-17.1-38.3-38.3l0,0c0-21.1,17.1-38.3,38.3-38.3h244.4
	c21.1,0,38.3,17.1,38.3,38.3l0,0C1127.8,326.1,1110.6,343.2,1089.5,343.2z"/>
<path class="bcg-ios1" d="M1468,1480h-190.9c-21.1,0-38.3-17.1-38.3-38.3l0,0c0-21.1,17.1-38.3,38.3-38.3H1468
	c21.1,0,38.3,17.1,38.3,38.3l0,0C1506.2,1462.9,1489.1,1480,1468,1480z"/>
<path class="bcg-ios1" d="M1114.2,1431.2L1114.2,1431.2c-21.1,0-38.3-17.1-38.3-38.3l0,0c0-21.1,17.1-38.3,38.3-38.3l0,0
	c21.1,0,38.3,17.1,38.3,38.3l0,0C1152.4,1414.1,1135.3,1431.2,1114.2,1431.2z"/>
<path class="bcg-ios1" d="M1665.2,1434.2h-464.3c-21.1,0-38.3-17.1-38.3-38.3l0,0c0-21.1,17.1-38.3,38.3-38.3h464.3
	c21.1,0,38.3,17.1,38.3,38.3l0,0C1703.4,1417.1,1686.3,1434.2,1665.2,1434.2z"/>
<path class="bcg-ios1" d="M1566.3,1381.1h-244.4c-21.1,0-38.3-17.1-38.3-38.3l0,0c0-21.1,17.1-38.3,38.3-38.3h244.4
	c21.1,0,38.3,17.1,38.3,38.3l0,0C1604.5,1364,1587.4,1381.1,1566.3,1381.1z"/>
<path class="bcg-ios1" d="M1565.5,1014.1h-512c-21.1,0-38.3-17.1-38.3-38.3l0,0c0-21.1,17.1-38.3,38.3-38.3h512
	c21.1,0,38.3,17.1,38.3,38.3l0,0C1603.8,997,1586.6,1014.1,1565.5,1014.1z"/>
<path class="bcg-ios1" d="M1695.4,968.3H996.5c-31.8,0-57.6-17.1-57.6-38.3l0,0c0-21.1,25.7-38.3,57.6-38.3h698.8
	c31.8,0,57.6,17.1,57.6,38.3l0,0C1753,951.2,1727.3,968.3,1695.4,968.3z"/>
<path class="bcg-ios1" d="M1579.3,901H1115c-21.1,0-38.3-17.1-38.3-38.3l0,0c0-21.1,17.1-38.3,38.3-38.3h464.3
	c21.1,0,38.3,17.1,38.3,38.3l0,0C1617.6,883.9,1600.5,901,1579.3,901z"/>
<path class="bcg-ios1" d="M452.3,244.5H261.5c-21.1,0-38.3-17.1-38.3-38.3l0,0c0-21.1,17.1-38.3,38.3-38.3h190.9
	c21.1,0,38.3,17.1,38.3,38.3l0,0C490.6,227.4,473.5,244.5,452.3,244.5z"/>
<path class="bcg-ios1" d="M98.5,195.7L98.5,195.7c-21.1,0-38.3-17.1-38.3-38.3l0,0c0-21.1,17.1-38.3,38.3-38.3l0,0
	c21.1,0,38.3,17.1,38.3,38.3l0,0C136.8,178.6,119.7,195.7,98.5,195.7z"/>
<path class="bcg-ios1" d="M649.5,198.7H185.2c-21.1,0-38.3-17.1-38.3-38.3l0,0c0-21.1,17.1-38.3,38.3-38.3h464.3
	c21.1,0,38.3,17.1,38.3,38.3l0,0C687.8,181.6,670.7,198.7,649.5,198.7z"/>
<path class="bcg-ios1" d="M550.6,145.6H306.2c-21.1,0-38.3-17.1-38.3-38.3l0,0c0-21.1,17.1-38.3,38.3-38.3h244.4
	c21.1,0,38.3,17.1,38.3,38.3l0,0C588.9,128.5,571.8,145.6,550.6,145.6z"/>
<path class="bcg-ios2" d="M274.7,1727.3c-0.7,0-1.4-0.4-1.7-1c-0.1-0.1-4-6.4-10.1-6.4c-2.5,0-4.6,1.1-7.4,2.5c-4.2,2.2-9.5,4.9-18.4,4.9
	c-32.8,0-48.3-26.6-49-27.8c-0.5-1-0.2-2.2,0.7-2.7c0.7-0.4,1.5-0.3,2.1,0.1c9.9,6.5,19.8,9.8,29.3,9.8c4.9,0,9.8-0.9,14.3-2.8
	c-13.9-10.4-37.3-40.8-38.4-42.2c-0.7-0.9-0.5-2.1,0.4-2.8c0.7-0.6,1.8-0.5,2.5,0.1c9.3,7.9,16.5,13.5,21.9,17.5
	c-6.6-8.6-13.6-18.5-14-19.1c-0.6-0.9-0.4-2.2,0.5-2.8c0.8-0.5,1.9-0.4,2.5,0.2c11.4,11.5,32.3,27,39.2,31.9
	c5.4-19.4-7.9-36.5-8-36.7c-0.7-0.9-0.5-2.1,0.3-2.8c0.7-0.5,1.6-0.6,2.4-0.1c11.1,7.5,24.9,20.2,27.8,37.9c1,5.8,0.6,11.7-1.1,17.2
	c2.5,3.2,10,13.9,6,23.8c-0.3,0.7-0.9,1.2-1.7,1.2L274.7,1727.3z"/>
<path class="bcg-ios3" d="M242.7,1648.8c37.7,25.6,25.5,53.9,25.5,53.9s10.7,12.1,6.4,22.7c0,0-4.4-7.4-11.8-7.4
	c-7.1,0-11.3,7.4-25.8,7.4c-32,0-47.2-26.7-47.2-26.7c11.9,7.9,22.3,10.2,30.4,10.2c11.4,0,18.2-4.6,18.2-4.6
	c-13-7.6-40.7-43.6-40.7-43.6c24.1,20.5,34.5,25.9,34.5,25.9c-6.2-5.1-23.7-30.2-23.7-30.2c14,14.1,41.7,33.8,41.7,33.8
	C258.2,1668.2,242.7,1648.8,242.7,1648.8 M242.7,1644.8c-2.2,0-4,1.8-4,4c0,0.9,0.3,1.8,0.9,2.5l0,0c0.1,0.2,11.5,14.9,8.3,32.1
	c-8.4-6.2-26.3-19.7-36.5-30c-1.5-1.6-4.1-1.6-5.7-0.1c-1.4,1.4-1.6,3.6-0.5,5.2c0.6,0.8,2.6,3.8,5.3,7.5c-3.1-2.5-6.5-5.3-10.3-8.5
	c-1.7-1.4-4.2-1.2-5.6,0.4c-1.2,1.4-1.3,3.5-0.1,5c1,1.3,21.7,28.2,35.9,40.3c-3.3,1-6.8,1.5-10.3,1.5c-9.1,0-18.6-3.2-28.2-9.5
	c-1.8-1.2-4.3-0.7-5.5,1.1c-0.8,1.3-0.9,2.9-0.1,4.2c3.4,5.4,7.6,10.3,12.5,14.4c10.6,9.2,24.2,14.3,38.2,14.3
	c9.4,0,15.1-2.9,19.3-5.1c2.6-1.3,4.5-2.3,6.4-2.3c5,0,8.4,5.4,8.4,5.4c0.7,1.2,2,1.9,3.4,1.9h0.3c1.5-0.1,2.8-1.1,3.4-2.5
	c4.1-10.1-2.5-20.8-5.6-25c1.5-5.6,1.8-11.4,0.9-17.2c-3-18.4-17.2-31.5-28.6-39.2C244.3,1645,243.5,1644.7,242.7,1644.8
	L242.7,1644.8z"/>
<line class="bcg-ios4" x1="180.5" y1="1665.2" x2="137" y2="1621.7"/>
<line class="bcg-ios4" x1="201.8" y1="1630.2" x2="132.9" y2="1561.3"/>
<line class="bcg-ios4" x1="170.2" y1="1630.2" x2="141.7" y2="1601.7"/>
<line class="bcg-ios4" x1="218" y1="1622.5" x2="201.8" y2="1606.3"/>
<line class="bcg-ios4" x1="175.3" y1="1683.1" x2="159.1" y2="1666.9"/>
<line class="bcg-ios4" x1="121.6" y1="1604.6" x2="93.1" y2="1576.1"/>
<path class="bcg-ios5" d="M1352.5,1808.5c-0.8-0.1-1.4-0.5-1.7-1.2c-2.9-7.2-2.1-16,2.5-25.3c1.9-3.9,4.3-7.5,7-10.9
	c-2.8-8.6-3.4-17.8-1.8-26.7c4.4-26.9,25.5-46.3,42.4-57.8c0.9-0.6,2.2-0.4,2.8,0.5c0.5,0.7,0.5,1.7-0.1,2.4
	c-0.2,0.3-21.8,28.1-12.2,59.2c9-6.5,43.5-31.8,61.9-50.4c0.8-0.8,2-0.8,2.8,0c0.7,0.7,0.8,1.8,0.2,2.5
	c-0.8,1.2-15.1,21.6-26.4,35.6c8.7-6,21.9-16,40.3-31.6c0.8-0.7,2.1-0.6,2.8,0.2c0.6,0.7,0.6,1.8,0.1,2.5
	c-1.7,2.2-39.5,51.4-60.6,66.1c7.6,3.6,15.9,5.4,24.2,5.3l0,0c14.9,0,30.3-5.2,45.8-15.4c0.9-0.6,2.2-0.4,2.8,0.6
	c0.4,0.6,0.4,1.4,0.1,2.1c-0.2,0.4-24.6,42.4-74.7,42.4c-13.6,0-21.5-4.1-27.9-7.4c-4.4-2.2-7.8-4-11.9-4
	c-10.2,0-16.5,10.4-16.6,10.5c-0.4,0.6-1,1-1.7,1L1352.5,1808.5z"/>
<path class="bcg-ios3" d="M1402,1688.2L1402,1688.2 M1402,1688.2c0,0-23.8,30.1-11.6,63.6c0,0,42.8-30.4,64.4-52.2c0,0-27,38.8-36.6,46.7
	c0,0,16.1-8.3,53.3-40c0,0-42.8,55.8-62.9,67.4c0,0,10.5,7.2,28.1,7.2c12.5,0,28.5-3.6,47-15.7c0,0-23.4,41.3-73,41.3
	c-22.3,0-28.8-11.4-39.8-11.4c-11.4,0-18.3,11.4-18.3,11.4c-6.7-16.4,9.9-35.1,9.9-35.1S1343.7,1727.9,1402,1688.2 M1402,1684.2
	h-0.4c-0.7,0.1-1.3,0.3-1.9,0.7c-13.7,9.3-24.4,19.7-31.8,30.8c-5.8,8.5-9.7,18.2-11.4,28.3c-1.5,8.9-1,18,1.6,26.6
	c-4.3,5.5-15.4,21.9-9.1,37.3c0.6,1.4,1.9,2.4,3.4,2.5h0.3c1.4,0,2.7-0.7,3.4-1.9c0.1-0.1,5.9-9.5,14.9-9.5c3.6,0,6.8,1.7,11,3.8
	c6.6,3.4,14.8,7.6,28.9,7.6c21.2,0,41.7-7.7,57.7-21.6c7.4-6.2,13.7-13.5,18.8-21.7c1.1-1.9,0.4-4.4-1.5-5.5
	c-1.3-0.7-2.9-0.7-4.2,0.1c-15.2,10-30.2,15.1-44.8,15.1c-6.9,0-13.8-1.2-20.3-3.7c21.7-17,56.6-62.3,58.2-64.4
	c1.3-1.7,1-4.3-0.7-5.6c-1.5-1.2-3.6-1.1-5,0.1c-11.6,9.8-21.1,17.4-28.7,23.1c8.9-11.8,17.1-23.6,17.8-24.5c1.3-1.8,0.8-4.3-1-5.6
	c-1.6-1.1-3.8-0.9-5.2,0.5c-17,17.2-47.9,40.1-59.4,48.5c-7.2-28.4,11.5-53.3,12.5-54.6c1.4-1.7,1.2-4.2-0.5-5.6
	c-0.7-0.6-1.6-0.9-2.5-0.9L1402,1684.2z M1402,1692.2L1402,1692.2z"/>
<line class="bcg-ios4" x1="1419.8" y1="1695.6" x2="1450.8" y2="1664.6"/>
<line class="bcg-ios4" x1="1518.3" y1="1706" x2="1567.4" y2="1656.9"/>
<line class="bcg-ios4" x1="1462.4" y1="1651.3" x2="1511.5" y2="1602.2"/>
<line class="bcg-ios4" x1="1487.3" y1="1712.7" x2="1536.4" y2="1663.6"/>
<line class="bcg-ios4" x1="1506.8" y1="1658.5" x2="1555.9" y2="1609.4"/>
<line class="bcg-ios4" x1="1456.3" y1="1681" x2="1467.9" y2="1669.5"/>
<line class="bcg-ios4" x1="1491.6" y1="1732.7" x2="1511.9" y2="1712.4"/>
<line class="bcg-ios4" x1="1473.3" y1="1690.2" x2="1493.7" y2="1669.8"/>
<line class="bcg-ios4" x1="1418.6" y1="1661.6" x2="1438.9" y2="1641.2"/>
<path class="bcg-ios1" d="M115.1,2387.8h139.8c15.5,0,28,12.5,28,28l0,0c0,15.5-12.5,28-28,28H115.1c-15.5,0-28-12.5-28-28l0,0
	C87.1,2400.3,99.7,2387.8,115.1,2387.8z"/>
<path class="bcg-ios1" d="M374.2,2423.5L374.2,2423.5c15.5,0,28,12.5,28,28l0,0c0,15.5-12.5,28-28,28l0,0c-15.5,0-28-12.5-28-28l0,0
	C346.2,2436.1,358.7,2423.5,374.2,2423.5z"/>
<path class="bcg-ios1" d="M-29.3,2421.3h340c15.5,0,28,12.5,28,28l0,0c0,15.5-12.5,28-28,28h-340c-15.5,0-28-12.5-28-28l0,0
	C-57.3,2433.9-44.7,2421.3-29.3,2421.3z"/>
<path class="bcg-ios1" d="M43.1,2460.2h179c15.5,0,28,12.5,28,28l0,0c0,15.5-12.5,28-28,28h-179c-15.5,0-28-12.5-28-28l0,0
	C15.1,2472.7,27.7,2460.2,43.1,2460.2z"/>
<path class="bcg-ios1" d="M1418.6,2200.3h-100.4c-11.1,0-20.1-9-20.1-20.1l0,0c0-11.1,9-20.1,20.1-20.1h100.4c11.1,0,20.1,9,20.1,20.1
	l0,0C1438.7,2191.3,1429.7,2200.3,1418.6,2200.3z"/>
<path class="bcg-ios1" d="M1232.4,2174.6L1232.4,2174.6c-11.1,0-20.1-9-20.1-20.1l0,0c0-11.1,9-20.1,20.1-20.1l0,0
	c11.1,0,20.1,9,20.1,20.1l0,0C1252.5,2165.6,1243.5,2174.6,1232.4,2174.6z"/>
<path class="bcg-ios1" d="M1522.4,2176.2H1278c-11.1,0-20.1-9-20.1-20.1l0,0c0-11.1,9-20.1,20.1-20.1h244.4c11.1,0,20.1,9,20.1,20.1l0,0
	C1542.5,2167.2,1533.5,2176.2,1522.4,2176.2z"/>
<path class="bcg-ios1" d="M1470.3,2148.2h-128.6c-11.1,0-20.1-9-20.1-20.1l0,0c0-11.1,9-20.1,20.1-20.1h128.6c11.1,0,20.1,9,20.1,20.1
	l0,0C1490.5,2139.2,1481.5,2148.2,1470.3,2148.2z"/>
<path class="bcg-ios1" d="M802.7,2228.2h279.8c31,0,56.1,25.1,56.1,56.1l0,0c0,31-25.1,56.1-56.1,56.1H802.7c-31,0-56.1-25.1-56.1-56.1
	l0,0C746.6,2253.3,771.7,2228.2,802.7,2228.2z"/>
<path class="bcg-ios1" d="M1321.3,2299.7L1321.3,2299.7c31,0,56.1,25.1,56.1,56.1l0,0c0,31-25.1,56.1-56.1,56.1l0,0
	c-31,0-56.1-25.1-56.1-56.1l0,0C1265.2,2324.8,1290.3,2299.7,1321.3,2299.7z"/>
<path class="bcg-ios1" d="M513.6,2295.3h680.6c31,0,56.1,25.1,56.1,56.1l0,0c0,31-25.1,56.1-56.1,56.1H513.6c-31,0-56.1-25.1-56.1-56.1
	l0,0C457.5,2320.4,482.6,2295.3,513.6,2295.3z"/>
<path class="bcg-ios1" d="M658.6,2373.1h358.3c31,0,56.1,25.1,56.1,56.1l0,0c0,31-25.1,56.1-56.1,56.1H658.6c-31,0-56.1-25.1-56.1-56.1
	l0,0C602.5,2398.2,627.6,2373.1,658.6,2373.1z"/>
<path class="bcg-ios1" d="M347.3,2310.5H67.5c-31,0-56.1-25.1-56.1-56.1l0,0c0-31,25.1-56.1,56.1-56.1h279.8c31,0,56.1,25.1,56.1,56.1
	l0,0C403.4,2285.4,378.3,2310.5,347.3,2310.5z"/>
<path class="bcg-ios1" d="M-171.3,2239L-171.3,2239c-31,0-56.1-25.1-56.1-56.1l0,0c0-31,25.1-56.1,56.1-56.1l0,0
	c31,0,56.1,25.1,56.1,56.1l0,0C-115.3,2213.9-140.4,2239-171.3,2239z"/>
<path class="bcg-ios1" d="M636.4,2243.4H-44.2c-31,0-56.1-25.1-56.1-56.1l0,0c0-31,25.1-56.1,56.1-56.1h680.6c31,0,56.1,25.1,56.1,56.1
	l0,0C692.5,2218.3,667.4,2243.4,636.4,2243.4z"/>
<path class="bcg-ios1" d="M491.4,2165.6H133.1c-31,0-56.1-25.1-56.1-56.1l0,0c0-31,25.1-56.1,56.1-56.1h358.3c31,0,56.1,25.1,56.1,56.1
	l0,0C547.5,2140.5,522.4,2165.6,491.4,2165.6z"/>
<path class="bcg-ios1" d="M1353.3,2037.4H652c-28.9,0-52.4-23.5-52.4-52.4l0,0c0-28.9,23.5-52.4,52.4-52.4h701.3
	c28.9,0,52.4,23.5,52.4,52.4l0,0C1405.7,2014,1382.3,2037.4,1353.3,2037.4z"/>
<path class="bcg-ios1" d="M115.8,1902L115.8,1902c-28.9,0-52.4-23.5-52.4-52.4l0,0c0-28.9,23.5-52.4,52.4-52.4l0,0
	c28.9,0,52.4,23.5,52.4,52.4l0,0C168.2,1878.5,144.7,1902,115.8,1902z"/>
<path class="bcg-ios1" d="M1183.5,1974.7H547.6c-28.9,0-52.4-23.5-52.4-52.4l0,0c0-28.9,23.5-52.4,52.4-52.4h635.9
	c28.9,0,52.4,23.5,52.4,52.4l0,0C1235.9,1951.2,1212.5,1974.7,1183.5,1974.7z"/>
<path class="bcg-ios1" d="M1048.1,1902H280.9c-28.9,0-52.4-23.5-52.4-52.4l0,0c0-28.9,23.5-52.4,52.4-52.4h767.2
	c28.9,0,52.4,23.5,52.4,52.4l0,0C1100.5,1878.5,1077,1902,1048.1,1902z"/>
<polygon class="bcg-ios3" points="1205.1,978.2 1269.1,978.2 1218.2,1076.2 1269.1,1076.2 1205.1,1205.4 1218.2,1117.2 1158.1,1117.2
	1204.1,978.2 "/>
<polygon class="bcg-ios3" points="1355.1,1419.2 1419.1,1419.2 1368.2,1517.2 1419.1,1517.2 1355.1,1646.4 1368.2,1558.2 1308.1,1558.2
	1354.1,1419.2 "/>
<polygon class="bcg-ios3" points="138.1,1158.2 202.1,1158.2 151.2,1256.2 202.1,1256.2 138.1,1385.4 151.2,1297.2 91.1,1297.2
	137.1,1158.2 "/>
<polygon class="bcg-ios3" points="1101.4,936.2 1140.6,936.2 1109.4,996.2 1140.6,996.2 1101.4,1075.2 1109.4,1021.2 1072.6,1021.2
	1100.8,936.2 "/>
<polygon class="bcg-ios3" points="399.2,347.4 426.7,347.4 404.8,389.4 426.7,389.4 399.2,445.1 404.8,407.4 379,407.4 398.8,347.6 "/>
<polygon class="bcg-ios3" points="1283.8,217.8 1311.2,217.8 1289.4,259.8 1311.2,259.8 1283.8,315.5 1289.4,277.8 1263.6,277.8
	1283.4,218 "/>
<polygon class="bcg-ios3" points="1411.8,513.5 1439.3,513.5 1417.5,555.5 1439.3,555.5 1411.8,611.2 1417.5,573.5 1391.7,573.5
	1411.5,513.8 "/>
<polygon class="bcg-ios3" points="1476.3,495.5 1514,495.5 1484,553 1514,553 1476.3,629.3 1484,577.7 1448.6,577.7 1475.8,495.8 "/>
</svg>
