<?xml version="1.0" encoding="utf-8"?>
<svg version="1.1" id="Warbcg-ios-tabletwa_1" xmlns="http://www.w3.org/2000/svg" xmlns:xlink="http://www.w3.org/1999/xlink" x="0px" y="0px"
	 viewBox="0 0 700.3 2420.6" bcg-ios-tabletyle="enable-background:new 0 0 700.3 2420.6;" xml:space="preserve">
<style type="text/css">
	.bcg-ios-tablet0{fill:#141923;}
	.bcg-ios-tablet1{fill:#1E2333;}
	.bcg-ios-tablet2{fill:#AA2D2B;}
	.bcg-ios-tablet3{fill:#2B304B;}
	.bcg-ios-tablet4{fill:none;bcg-ios-tabletroke:#2B304B;bcg-ios-tabletroke-width:6;bcg-ios-tabletroke-linecap:round;bcg-ios-tabletroke-linejoin:round;}
	.bcg-ios-tablet5{fill:#DA6346;}
</style>
<circle class="bcg-ios-tablet0" cx="393.3" cy="399.5" r="177.8"/>
<circle class="bcg-ios-tablet0" cx="432.3" cy="1094.9" r="202.2"/>
<circle class="bcg-ios-tablet0" cx="288.1" cy="1875.5" r="202.2"/>
<g>
	<path class="bcg-ios-tablet1" d="M185.9,531.8H240c6,0,10.8,4.9,10.8,10.8l0,0c0,6-4.9,10.8-10.8,10.8h-54.1c-6,0-10.8-4.9-10.8-10.8l0,0
		C175,536.7,179.9,531.8,185.9,531.8z"/>
	<path class="bcg-ios-tablet1" d="M286.1,545.6L286.1,545.6c6,0,10.8,4.9,10.8,10.8l0,0c0,6-4.9,10.8-10.8,10.8l0,0c-6,0-10.8-4.9-10.8-10.8l0,0
		C275.3,550.5,280.2,545.6,286.1,545.6z"/>
	<path class="bcg-ios-tablet1" d="M130,544.9h131.6c6,0,10.8,4.9,10.8,10.8l0,0c0,6-4.9,10.8-10.8,10.8H130c-6,0-10.8-4.9-10.8-10.8l0,0
		C119.1,549.7,124,544.9,130,544.9z"/>
	<path class="bcg-ios-tablet1" d="M158,559.9h69.3c6,0,10.8,4.9,10.8,10.8l0,0c0,6-4.9,10.8-10.8,10.8H158c-6,0-10.8-4.9-10.8-10.8l0,0
		C147.2,564.7,152,559.9,158,559.9z"/>
</g>
<g>
	<path class="bcg-ios-tablet1" d="M279.5,441.5h-54.1c-6,0-10.8-4.9-10.8-10.8l0,0c0-6,4.9-10.8,10.8-10.8h54.1c6,0,10.8,4.9,10.8,10.8l0,0
		C290.2,436.6,285.4,441.5,279.5,441.5z"/>
	<path class="bcg-ios-tablet1" d="M179.1,427.6L179.1,427.6c-6,0-10.8-4.9-10.8-10.8l0,0c0-6,4.9-10.8,10.8-10.8l0,0c6,0,10.8,4.9,10.8,10.8l0,0
		C190,422.8,185.1,427.6,179.1,427.6z"/>
	<path class="bcg-ios-tablet1" d="M335.3,428.4H203.7c-6,0-10.8-4.9-10.8-10.8l0,0c0-6,4.9-10.8,10.8-10.8h131.6c6,0,10.8,4.9,10.8,10.8l0,0
		C346.1,423.6,341.3,428.4,335.3,428.4z"/>
	<path class="bcg-ios-tablet1" d="M307.2,413.4H238c-6,0-10.8-4.9-10.8-10.8l0,0c0-6,4.9-10.8,10.8-10.8h69.3c6,0,10.8,4.9,10.8,10.8l0,0
		C318.1,408.5,313.2,413.4,307.2,413.4z"/>
</g>
<g>
	<path class="bcg-ios-tablet1" d="M223.8,213.9h-66.2c-7.3,0-13.3-5.9-13.3-13.3l0,0c0-7.3,5.9-13.3,13.3-13.3h66.2c7.3,0,13.3,5.9,13.3,13.3
		l0,0C237.1,208,231.1,213.9,223.8,213.9z"/>
	<path class="bcg-ios-tablet1" d="M101.1,197L101.1,197c-7.3,0-13.3-5.9-13.3-13.3l0,0c0-7.3,5.9-13.3,13.3-13.3l0,0c7.3,0,13.3,5.9,13.3,13.3
		l0,0C114.4,191.1,108.4,197,101.1,197z"/>
	<path class="bcg-ios-tablet1" d="M292.3,198h-161c-7.3,0-13.3-5.9-13.3-13.3l0,0c0-7.3,5.9-13.3,13.3-13.3h161c7.3,0,13.3,5.9,13.3,13.3l0,0
		C305.5,192.1,299.6,198,292.3,198z"/>
	<path class="bcg-ios-tablet1" d="M257.9,179.6h-84.8c-7.3,0-13.3-5.9-13.3-13.3l0,0c0-7.3,5.9-13.3,13.3-13.3h84.8c7.3,0,13.3,5.9,13.3,13.3
		l0,0C271.2,173.7,265.3,179.6,257.9,179.6z"/>
</g>
<g>
	<path class="bcg-ios-tablet1" d="M572.7,474.2h-73.3c-8.1,0-14.7-6.6-14.7-14.7l0,0c0-8.1,6.6-14.7,14.7-14.7h73.3c8.1,0,14.7,6.6,14.7,14.7
		l0,0C587.3,467.6,580.8,474.2,572.7,474.2z"/>
	<path class="bcg-ios-tablet1" d="M436.9,455.4L436.9,455.4c-8.1,0-14.7-6.6-14.7-14.7l0,0c0-8.1,6.6-14.7,14.7-14.7l0,0
		c8.1,0,14.7,6.6,14.7,14.7l0,0C451.6,448.8,445,455.4,436.9,455.4z"/>
	<path class="bcg-ios-tablet1" d="M648.4,456.6H470.2c-8.1,0-14.7-6.6-14.7-14.7l0,0c0-8.1,6.6-14.7,14.7-14.7h178.2c8.1,0,14.7,6.6,14.7,14.7
		l0,0C663.1,450,656.5,456.6,648.4,456.6z"/>
	<path class="bcg-ios-tablet1" d="M610.4,436.2h-93.8c-8.1,0-14.7-6.6-14.7-14.7l0,0c0-8.1,6.6-14.7,14.7-14.7h93.8c8.1,0,14.7,6.6,14.7,14.7
		l0,0C625.2,429.6,618.5,436.2,610.4,436.2z"/>
</g>
<path class="bcg-ios-tablet1" d="M61.7,507.9h-73.3c-8.1,0-14.7-6.6-14.7-14.7l0,0c0-8.1,6.6-14.7,14.7-14.7h73.3c8.1,0,14.7,6.6,14.7,14.7l0,0
	C76.4,501.3,69.8,507.9,61.7,507.9z"/>
<path class="bcg-ios-tablet1" d="M-74.1,489.1L-74.1,489.1c-8.1,0-14.7-6.6-14.7-14.7l0,0c0-8.1,6.6-14.7,14.7-14.7l0,0
	c8.1,0,14.7,6.6,14.7,14.7l0,0C-59.4,482.5-66,489.1-74.1,489.1z"/>
<path class="bcg-ios-tablet1" d="M137.4,490.3H-40.8c-8.1,0-14.7-6.6-14.7-14.7l0,0c0-8.1,6.6-14.7,14.7-14.7h178.2c8.1,0,14.7,6.6,14.7,14.7
	l0,0C152.1,483.7,145.5,490.3,137.4,490.3z"/>
<path class="bcg-ios-tablet1" d="M99.4,469.9H5.6c-8.1,0-14.7-6.6-14.7-14.7l0,0c0-8.1,6.6-14.7,14.7-14.7h93.8c8.1,0,14.7,6.6,14.7,14.7l0,0
	C114.1,463.3,107.5,469.9,99.4,469.9z"/>
<path class="bcg-ios-tablet1" d="M244.9,1080.2h73.3c8.1,0,14.7,6.6,14.7,14.7l0,0c0,8.1-6.6,14.7-14.7,14.7h-73.3c-8.1,0-14.7-6.6-14.7-14.7
	l0,0C230.3,1086.8,236.9,1080.2,244.9,1080.2z"/>
<path class="bcg-ios-tablet1" d="M380.8,1098.9L380.8,1098.9c8.1,0,14.7,6.6,14.7,14.7l0,0c0,8.1-6.6,14.7-14.7,14.7l0,0
	c-8.1,0-14.7-6.6-14.7-14.7l0,0C366.1,1105.5,372.6,1098.9,380.8,1098.9z"/>
<path class="bcg-ios-tablet1" d="M169.2,1097.7h178.2c8.1,0,14.7,6.6,14.7,14.7l0,0c0,8.1-6.6,14.7-14.7,14.7H169.2c-8.1,0-14.7-6.6-14.7-14.7
	l0,0C154.6,1104.3,161.1,1097.7,169.2,1097.7z"/>
<path class="bcg-ios-tablet1" d="M207.2,1118.1H301c8.1,0,14.7,6.6,14.7,14.7l0,0c0,8.1-6.6,14.7-14.7,14.7h-93.8c-8.1,0-14.7-6.6-14.7-14.7l0,0
	C192.5,1124.7,199.1,1118.1,207.2,1118.1z"/>
<path class="bcg-ios-tablet1" d="M488.1,279.2h73.3c8.1,0,14.7,6.6,14.7,14.7l0,0c0,8.1-6.6,14.7-14.7,14.7h-73.3c-8.1,0-14.7-6.6-14.7-14.7l0,0
	C473.4,285.8,480,279.2,488.1,279.2z"/>
<path class="bcg-ios-tablet1" d="M623.9,297.9L623.9,297.9c8.1,0,14.7,6.6,14.7,14.7l0,0c0,8.1-6.6,14.7-14.7,14.7l0,0
	c-8.1,0-14.7-6.6-14.7-14.7l0,0C609.2,304.5,615.8,297.9,623.9,297.9z"/>
<path class="bcg-ios-tablet1" d="M412.4,296.8h178.2c8.1,0,14.7,6.6,14.7,14.7l0,0c0,8.1-6.6,14.7-14.7,14.7H412.4c-8.1,0-14.7-6.6-14.7-14.7
	l0,0C397.7,303.3,404.3,296.8,412.4,296.8z"/>
<path class="bcg-ios-tablet1" d="M450.3,317.2h93.8c8.1,0,14.7,6.6,14.7,14.7l0,0c0,8.1-6.6,14.7-14.7,14.7h-93.8c-8.1,0-14.7-6.6-14.7-14.7l0,0
	C435.6,323.7,442.2,317.2,450.3,317.2z"/>
<path class="bcg-ios-tablet1" d="M255,761.9H-49c-12.8,0-23.1-10.3-23.1-23.1l0,0c0-12.8,10.3-23.1,23.1-23.1H255c12.8,0,23.1,10.3,23.1,23.1
	l0,0C278,751.6,267.7,761.9,255,761.9z"/>
<path class="bcg-ios-tablet1" d="M324,761.9L324,761.9c-12.8,0-23.1-10.3-23.1-23.1l0,0c0-12.8,10.3-23.1,23.1-23.1l0,0
	c12.8,0,23.1,10.3,23.1,23.1l0,0C347,751.6,336.7,761.9,324,761.9z"/>
<path class="bcg-ios-tablet1" d="M185,734.3H-94.9c-12.8,0-23.1-10.3-23.1-23.1l0,0c0-12.8,10.3-23.1,23.1-23.1H185c12.8,0,23.1,10.3,23.1,23.1
	l0,0C208.1,724,197.8,734.3,185,734.3z"/>
<path class="bcg-ios-tablet1" d="M125.4,702.3H-22c-12.8,0-23.1-10.3-23.1-23.1l0,0c0-12.8,10.3-23.1,23.1-23.1h147.3
	c12.8,0,23.1,10.3,23.1,23.1l0,0C148.4,692,138.1,702.3,125.4,702.3z"/>
<path class="bcg-ios-tablet1" d="M-29,816.1h93c10.3,0,18.6,8.3,18.6,18.6l0,0c0,10.3-8.3,18.6-18.6,18.6h-93c-10.3,0-18.6-8.3-18.6-18.6l0,0
	C-47.6,824.5-39.3,816.1-29,816.1z"/>
<path class="bcg-ios-tablet1" d="M143.2,839.9L143.2,839.9c10.3,0,18.6,8.3,18.6,18.6l0,0c0,10.3-8.3,18.6-18.6,18.6l0,0
	c-10.3,0-18.6-8.3-18.6-18.6l0,0C124.6,848.2,133,839.9,143.2,839.9z"/>
<path class="bcg-ios-tablet1" d="M-125,838.5H101c10.3,0,18.6,8.3,18.6,18.6l0,0c0,10.3-8.3,18.6-18.6,18.6H-125c-10.3,0-18.6-8.3-18.6-18.6l0,0
	C-143.7,846.8-135.3,838.5-125,838.5z"/>
<path class="bcg-ios-tablet1" d="M-76.8,864.3h119c10.3,0,18.6,8.3,18.6,18.6l0,0c0,10.3-8.3,18.6-18.6,18.6h-119c-10.3,0-18.6-8.3-18.6-18.6
	l0,0C-95.5,872.6-87.1,864.3-76.8,864.3z"/>
<path class="bcg-ios-tablet1" d="M581.7,613.5h93c10.3,0,18.6,8.3,18.6,18.6l0,0c0,10.3-8.3,18.6-18.6,18.6h-93c-10.3,0-18.6-8.3-18.6-18.6l0,0
	C563.1,621.8,571.4,613.5,581.7,613.5z"/>
<path class="bcg-ios-tablet1" d="M754,637.3L754,637.3c10.3,0,18.6,8.3,18.6,18.6l0,0c0,10.3-8.3,18.6-18.6,18.6l0,0c-10.3,0-18.6-8.3-18.6-18.6
	l0,0C735.3,645.6,743.7,637.3,754,637.3z"/>
<path class="bcg-ios-tablet1" d="M485.7,635.8h226.1c10.3,0,18.6,8.3,18.6,18.6l0,0c0,10.3-8.3,18.6-18.6,18.6H485.7c-10.3,0-18.6-8.3-18.6-18.6
	l0,0C467.1,644.1,475.4,635.8,485.7,635.8z"/>
<path class="bcg-ios-tablet1" d="M533.9,661.6h119c10.3,0,18.6,8.3,18.6,18.6l0,0c0,10.3-8.3,18.6-18.6,18.6h-119c-10.3,0-18.6-8.3-18.6-18.6
	l0,0C515.2,670,523.6,661.6,533.9,661.6z"/>
<path class="bcg-ios-tablet1" d="M587,252.2H460.1c-14,0-25.5-11.4-25.5-25.5l0,0c0-14,11.4-25.5,25.5-25.5H587c14,0,25.5,11.4,25.5,25.5l0,0
	C612.4,240.8,601,252.2,587,252.2z"/>
<path class="bcg-ios-tablet1" d="M351.8,219.7L351.8,219.7c-14,0-25.5-11.4-25.5-25.5l0,0c0-14,11.4-25.5,25.5-25.5l0,0
	c14,0,25.5,11.4,25.5,25.5l0,0C377.2,208.3,365.8,219.7,351.8,219.7z"/>
<path class="bcg-ios-tablet1" d="M718.1,221.7H409.4c-14,0-25.5-11.4-25.5-25.5l0,0c0-14,11.4-25.5,25.5-25.5h308.7c14,0,25.5,11.4,25.5,25.5
	l0,0C743.6,210.3,732.1,221.7,718.1,221.7z"/>
<path class="bcg-ios-tablet1" d="M652.4,186.4H489.9c-14,0-25.5-11.4-25.5-25.5l0,0c0-14,11.4-25.5,25.5-25.5h162.5c14,0,25.5,11.4,25.5,25.5
	l0,0C677.8,175,666.4,186.4,652.4,186.4z"/>
<path class="bcg-ios-tablet1" d="M540.5,1323.7H413.5c-14,0-25.5-11.4-25.5-25.5l0,0c0-14,11.4-25.5,25.5-25.5h126.9c14,0,25.5,11.4,25.5,25.5
	l0,0C565.9,1312.4,554.5,1323.7,540.5,1323.7z"/>
<path class="bcg-ios-tablet1" d="M305.2,1291.3L305.2,1291.3c-14,0-25.5-11.4-25.5-25.5l0,0c0-14,11.4-25.5,25.5-25.5l0,0
	c14,0,25.5,11.4,25.5,25.5l0,0C330.6,1279.9,319.2,1291.3,305.2,1291.3z"/>
<path class="bcg-ios-tablet1" d="M671.6,1293.3H362.9c-14,0-25.5-11.4-25.5-25.5l0,0c0-14,11.4-25.5,25.5-25.5h308.7c14,0,25.5,11.4,25.5,25.5
	l0,0C697,1281.9,685.6,1293.3,671.6,1293.3z"/>
<path class="bcg-ios-tablet1" d="M605.8,1258H443.3c-14,0-25.5-11.4-25.5-25.5l0,0c0-14,11.4-25.5,25.5-25.5h162.5c14,0,25.5,11.4,25.5,25.5l0,0
	C631.2,1246.6,619.8,1258,605.8,1258z"/>
<path class="bcg-ios-tablet1" d="M605.3,1014H264.9c-14,0-25.5-11.4-25.5-25.5l0,0c0-14,11.4-25.5,25.5-25.5h340.4c14,0,25.5,11.4,25.5,25.5l0,0
	C630.8,1002.6,619.3,1014,605.3,1014z"/>
<path class="bcg-ios-tablet1" d="M691.7,983.5H227c-21.1,0-38.3-11.4-38.3-25.5l0,0c0-14,17.1-25.5,38.3-25.5h464.6c21.1,0,38.3,11.4,38.3,25.5
	l0,0C730,972.1,712.9,983.5,691.7,983.5z"/>
<path class="bcg-ios-tablet1" d="M614.5,938.8H305.8c-14,0-25.5-11.4-25.5-25.5l0,0c0-14,11.4-25.5,25.5-25.5h308.7c14,0,25.5,11.4,25.5,25.5
	l0,0C639.9,927.4,628.6,938.8,614.5,938.8z"/>
<path class="bcg-ios-tablet1" d="M228.7,120.8H101.8c-14,0-25.5-11.4-25.5-25.5l0,0c0-14,11.4-25.5,25.5-25.5h126.9c14,0,25.5,11.4,25.5,25.5
	l0,0C254.2,109.4,242.8,120.8,228.7,120.8z"/>
<path class="bcg-ios-tablet1" d="M-6.6,88.3L-6.6,88.3C-20.6,88.3-32,77-32,62.9l0,0c0-14,11.4-25.5,25.5-25.5l0,0c14,0,25.5,11.4,25.5,25.5l0,0
	C18.9,77,7.5,88.3-6.6,88.3z"/>
<path class="bcg-ios-tablet1" d="M359.8,90.3H51.1c-14,0-25.5-11.4-25.5-25.5l0,0c0-14,11.4-25.5,25.5-25.5h308.7c14,0,25.5,11.4,25.5,25.5l0,0
	C385.3,79,373.9,90.3,359.8,90.3z"/>
<path class="bcg-ios-tablet1" d="M294,55H131.5c-14,0-25.5-11.4-25.5-25.5l0,0c0-14,11.4-25.5,25.5-25.5H294c14,0,25.5,11.4,25.5,25.5l0,0
	C319.5,43.6,308.1,55,294,55z"/>
<path class="bcg-ios-tablet2" d="M230.4,1824.8c-0.5,0-0.9-0.3-1.1-0.7c-0.1-0.1-2.7-4.3-6.7-4.3c-1.7,0-3.1,0.7-4.9,1.7
	c-2.8,1.5-6.3,3.3-12.2,3.3c-21.8,0-32.1-17.7-32.6-18.5c-0.3-0.7-0.1-1.5,0.5-1.8c0.5-0.3,1-0.2,1.4,0.1c6.6,4.3,13.2,6.5,19.5,6.5
	c3.3,0,6.5-0.6,9.5-1.9c-9.2-6.9-24.8-27.1-25.5-28.1c-0.5-0.6-0.3-1.4,0.3-1.9c0.5-0.4,1.2-0.3,1.7,0.1c6.2,5.3,11,9,14.6,11.6
	c-4.4-5.7-9-12.3-9.3-12.7c-0.4-0.6-0.3-1.5,0.3-1.9c0.5-0.3,1.3-0.3,1.7,0.1c7.6,7.6,21.5,18,26.1,21.2c3.6-12.9-5.3-24.3-5.3-24.4
	c-0.5-0.6-0.3-1.4,0.2-1.9c0.5-0.3,1.1-0.4,1.6-0.1c7.4,5,16.6,13.4,18.5,25.2c0.7,3.9,0.4,7.8-0.7,11.4c1.7,2.1,6.6,9.2,4,15.8
	C231.4,1824.4,231,1824.8,230.4,1824.8L230.4,1824.8z"/>
<path class="bcg-ios-tablet3" d="M209.1,1772.7c25.1,17,17,35.8,17,35.8s7.1,8,4.3,15.1c0,0-2.9-4.9-7.8-4.9c-4.7,0-7.5,4.9-17.2,4.9
	c-21.3,0-31.4-17.8-31.4-17.8c7.9,5.3,14.8,6.8,20.2,6.8c7.6,0,12.1-3.1,12.1-3.1c-8.6-5.1-27.1-29-27.1-29
	c16,13.6,22.9,17.2,22.9,17.2c-4.1-3.4-15.8-20.1-15.8-20.1c9.3,9.4,27.7,22.5,27.7,22.5C219.4,1785.6,209.1,1772.7,209.1,1772.7
	 M209.1,1770c-1.5,0-2.7,1.2-2.7,2.7c0,0.6,0.2,1.2,0.6,1.7l0,0c0.1,0.1,7.6,9.9,5.5,21.3c-5.6-4.1-17.5-13.1-24.3-19.9
	c-1-1.1-2.7-1.1-3.8-0.1c-0.9,0.9-1.1,2.4-0.3,3.5c0.4,0.5,1.7,2.5,3.5,5c-2.1-1.7-4.3-3.5-6.8-5.7c-1.1-0.9-2.8-0.8-3.7,0.3
	c-0.8,0.9-0.9,2.3-0.1,3.3c0.7,0.9,14.4,18.8,23.9,26.8c-2.2,0.7-4.5,1-6.8,1c-6.1,0-12.4-2.1-18.8-6.3c-1.2-0.8-2.9-0.5-3.7,0.7
	c-0.5,0.9-0.6,1.9-0.1,2.8c2.3,3.6,5.1,6.8,8.3,9.6c7,6.1,16.1,9.5,25.4,9.5c6.3,0,10-1.9,12.8-3.4c1.7-0.9,3-1.5,4.3-1.5
	c3.3,0,5.6,3.6,5.6,3.6c0.5,0.8,1.3,1.3,2.3,1.3h0.2c1-0.1,1.9-0.7,2.3-1.7c2.7-6.7-1.7-13.8-3.7-16.6c1-3.7,1.2-7.6,0.6-11.4
	c-2-12.2-11.4-20.9-19-26.1C210.2,1770.1,209.7,1769.9,209.1,1770L209.1,1770z"/>
<line class="bcg-ios-tablet4" x1="167.8" y1="1783.6" x2="138.9" y2="1754.6"/>
<line class="bcg-ios-tablet4" x1="181.9" y1="1760.3" x2="136.1" y2="1714.5"/>
<line class="bcg-ios-tablet4" x1="160.9" y1="1760.3" x2="142" y2="1741.3"/>
<line class="bcg-ios-tablet4" x1="192.7" y1="1755.2" x2="181.9" y2="1744.4"/>
<line class="bcg-ios-tablet4" x1="164.3" y1="1795.5" x2="153.6" y2="1784.7"/>
<line class="bcg-ios-tablet4" x1="128.6" y1="1743.3" x2="109.7" y2="1724.3"/>
<g>
	<path class="bcg-ios-tablet5" d="M520.6,1565c-0.5-0.1-0.9-0.3-1.1-0.8c-1.9-4.8-1.4-10.6,1.7-16.8c1.3-2.6,2.9-5,4.7-7.2
		c-1.9-5.7-2.3-11.8-1.2-17.8c2.9-17.9,17-30.8,28.2-38.4c0.6-0.4,1.5-0.3,1.9,0.3c0.3,0.5,0.3,1.1-0.1,1.6
		c-0.1,0.2-14.5,18.7-8.1,39.4c6-4.3,28.9-21.1,41.2-33.5c0.5-0.5,1.3-0.5,1.9,0c0.5,0.5,0.5,1.2,0.1,1.7
		c-0.5,0.8-10,14.4-17.6,23.7c5.8-4,14.6-10.6,26.8-21c0.5-0.5,1.4-0.4,1.9,0.1c0.4,0.5,0.4,1.2,0.1,1.7
		c-1.1,1.5-26.3,34.2-40.3,43.9c5.1,2.4,10.6,3.6,16.1,3.5l0,0c9.9,0,20.1-3.5,30.5-10.2c0.6-0.4,1.5-0.3,1.9,0.4
		c0.3,0.4,0.3,0.9,0.1,1.4c-0.1,0.3-16.4,28.2-49.7,28.2c-9,0-14.3-2.7-18.6-4.9c-2.9-1.5-5.2-2.7-7.9-2.7c-6.8,0-11,6.9-11,7
		c-0.3,0.4-0.7,0.7-1.1,0.7L520.6,1565z"/>
	<path class="bcg-ios-tablet3" d="M553.5,1485L553.5,1485 M553.5,1485c0,0-15.8,20-7.7,42.3c0,0,28.5-20.2,42.8-34.7c0,0-18,25.8-24.3,31.1
		c0,0,10.7-5.5,35.4-26.6c0,0-28.5,37.1-41.8,44.8c0,0,7,4.8,18.7,4.8c8.3,0,18.9-2.4,31.3-10.4c0,0-15.6,27.5-48.5,27.5
		c-14.8,0-19.1-7.6-26.5-7.6c-7.6,0-12.2,7.6-12.2,7.6c-4.5-10.9,6.6-23.3,6.6-23.3S514.7,1511.4,553.5,1485 M553.5,1482.4h-0.3
		c-0.5,0.1-0.9,0.2-1.3,0.5c-9.1,6.2-16.2,13.1-21.1,20.5c-3.9,5.7-6.4,12.1-7.6,18.8c-1,5.9-0.7,12,1.1,17.7
		c-2.9,3.7-10.2,14.6-6.1,24.8c0.4,0.9,1.3,1.6,2.3,1.7h0.2c0.9,0,1.8-0.5,2.3-1.3c0.1-0.1,3.9-6.3,9.9-6.3c2.4,0,4.5,1.1,7.3,2.5
		c4.4,2.3,9.8,5.1,19.2,5.1c14.1,0,27.7-5.1,38.4-14.4c4.9-4.1,9.1-9,12.5-14.4c0.7-1.3,0.3-2.9-1-3.7c-0.9-0.5-1.9-0.5-2.8,0.1
		c-10.1,6.6-20.1,10-29.8,10c-4.6,0-9.2-0.8-13.5-2.5c14.4-11.3,37.6-41.4,38.7-42.8c0.9-1.1,0.7-2.9-0.5-3.7
		c-1-0.8-2.4-0.7-3.3,0.1c-7.7,6.5-14,11.6-19.1,15.4c5.9-7.8,11.4-15.7,11.8-16.3c0.9-1.2,0.5-2.9-0.7-3.7
		c-1.1-0.7-2.5-0.6-3.5,0.3c-11.3,11.4-31.8,26.7-39.5,32.2c-4.8-18.9,7.6-35.4,8.3-36.3c0.9-1.1,0.8-2.8-0.3-3.7
		C554.8,1482.5,554.2,1482.3,553.5,1482.4L553.5,1482.4z M553.5,1487.7L553.5,1487.7z"/>
	<line class="bcg-ios-tablet4" x1="565.3" y1="1489.9" x2="585.9" y2="1469.3"/>
	<line class="bcg-ios-tablet4" x1="630.8" y1="1496.9" x2="663.5" y2="1464.2"/>
	<line class="bcg-ios-tablet4" x1="593.6" y1="1460.5" x2="626.3" y2="1427.8"/>
	<line class="bcg-ios-tablet4" x1="610.2" y1="1501.3" x2="642.9" y2="1468.7"/>
	<line class="bcg-ios-tablet4" x1="623.2" y1="1465.3" x2="655.8" y2="1432.6"/>
	<line class="bcg-ios-tablet4" x1="589.6" y1="1480.2" x2="597.3" y2="1472.6"/>
	<line class="bcg-ios-tablet4" x1="613.1" y1="1514.6" x2="626.6" y2="1501.1"/>
	<line class="bcg-ios-tablet4" x1="600.9" y1="1486.3" x2="614.5" y2="1472.8"/>
	<line class="bcg-ios-tablet4" x1="564.5" y1="1467.3" x2="578" y2="1453.8"/>
</g>
<path class="bcg-ios-tablet1" d="M124.3,2264h93c10.3,0,18.6,8.3,18.6,18.6l0,0c0,10.3-8.3,18.6-18.6,18.6h-93c-10.3,0-18.6-8.3-18.6-18.6l0,0
	C105.7,2272.3,114.1,2264,124.3,2264z"/>
<path class="bcg-ios-tablet1" d="M296.6,2287.8L296.6,2287.8c10.3,0,18.6,8.3,18.6,18.6l0,0c0,10.3-8.3,18.6-18.6,18.6l0,0
	c-10.3,0-18.6-8.3-18.6-18.6l0,0C278,2296.1,286.3,2287.8,296.6,2287.8z"/>
<path class="bcg-ios-tablet1" d="M28.3,2286.3h226.1c10.3,0,18.6,8.3,18.6,18.6l0,0c0,10.3-8.3,18.6-18.6,18.6H28.3c-10.3,0-18.6-8.3-18.6-18.6
	l0,0C9.7,2294.7,18,2286.3,28.3,2286.3z"/>
<path class="bcg-ios-tablet1" d="M76.4,2312.2h119c10.3,0,18.6,8.3,18.6,18.6l0,0c0,10.3-8.3,18.6-18.6,18.6h-119c-10.3,0-18.6-8.3-18.6-18.6
	l0,0C57.8,2320.5,66.2,2312.2,76.4,2312.2z"/>
<g>
	<path class="bcg-ios-tablet1" d="M652.6,1755h-66.8c-7.4,0-13.4-6-13.4-13.4l0,0c0-7.4,6-13.4,13.4-13.4h66.8c7.4,0,13.4,6,13.4,13.4l0,0
		C665.9,1749,659.9,1755,652.6,1755z"/>
	<path class="bcg-ios-tablet1" d="M528.8,1737.9L528.8,1737.9c-7.4,0-13.4-6-13.4-13.4l0,0c0-7.4,6-13.4,13.4-13.4l0,0c7.4,0,13.4,6,13.4,13.4
		l0,0C542.1,1731.9,536.1,1737.9,528.8,1737.9z"/>
	<path class="bcg-ios-tablet1" d="M721.6,1739H559.1c-7.4,0-13.4-6-13.4-13.4l0,0c0-7.4,6-13.4,13.4-13.4h162.5c7.4,0,13.4,6,13.4,13.4l0,0
		C734.9,1733,729,1739,721.6,1739z"/>
	<path class="bcg-ios-tablet1" d="M686.9,1720.4h-85.5c-7.4,0-13.4-6-13.4-13.4l0,0c0-7.4,6-13.4,13.4-13.4h85.5c7.4,0,13.4,6,13.4,13.4l0,0
		C700.4,1714.4,694.4,1720.4,686.9,1720.4z"/>
</g>
<g>
	<path class="bcg-ios-tablet1" d="M500.8,834.5H434c-7.4,0-13.4-6-13.4-13.4l0,0c0-7.4,6-13.4,13.4-13.4h66.8c7.4,0,13.4,6,13.4,13.4l0,0
		C514.2,828.5,508.2,834.5,500.8,834.5z"/>
	<path class="bcg-ios-tablet1" d="M377,817.4L377,817.4c-7.4,0-13.4-6-13.4-13.4l0,0c0-7.4,6-13.4,13.4-13.4l0,0c7.4,0,13.4,6,13.4,13.4l0,0
		C390.4,811.4,384.4,817.4,377,817.4z"/>
	<path class="bcg-ios-tablet1" d="M569.8,818.5H407.3c-7.4,0-13.4-6-13.4-13.4l0,0c0-7.4,6-13.4,13.4-13.4h162.5c7.4,0,13.4,6,13.4,13.4l0,0
		C583.2,812.5,577.2,818.5,569.8,818.5z"/>
	<path class="bcg-ios-tablet1" d="M535.2,799.9h-85.5c-7.4,0-13.4-6-13.4-13.4l0,0c0-7.4,6-13.4,13.4-13.4h85.5c7.4,0,13.4,6,13.4,13.4l0,0
		C548.6,793.9,542.6,799.9,535.2,799.9z"/>
</g>
<path class="bcg-ios-tablet1" d="M581.5,2157.9h186c20.6,0,37.3,16.7,37.3,37.3l0,0c0,20.6-16.7,37.3-37.3,37.3h-186
	c-20.6,0-37.3-16.7-37.3-37.3l0,0C544.2,2174.6,560.9,2157.9,581.5,2157.9z"/>
<path class="bcg-ios-tablet1" d="M926.3,2205.4L926.3,2205.4c20.6,0,37.3,16.7,37.3,37.3l0,0c0,20.6-16.7,37.3-37.3,37.3l0,0
	c-20.6,0-37.3-16.7-37.3-37.3l0,0C889,2222.1,905.7,2205.4,926.3,2205.4z"/>
<path class="bcg-ios-tablet1" d="M389.3,2202.5h452.5c20.6,0,37.3,16.7,37.3,37.3l0,0c0,20.6-16.7,37.3-37.3,37.3H389.3
	c-20.6,0-37.3-16.7-37.3-37.3l0,0C352,2219.2,368.6,2202.5,389.3,2202.5z"/>
<path class="bcg-ios-tablet1" d="M485.7,2254.2h238.2c20.6,0,37.3,16.7,37.3,37.3l0,0c0,20.6-16.7,37.3-37.3,37.3H485.7
	c-20.6,0-37.3-16.7-37.3-37.3l0,0C448.4,2270.9,465.1,2254.2,485.7,2254.2z"/>
<path class="bcg-ios-tablet1" d="M278.7,2212.6h-186c-20.6,0-37.3-16.7-37.3-37.3l0,0c0-20.6,16.7-37.3,37.3-37.3h186
	c20.6,0,37.3,16.7,37.3,37.3l0,0C316,2195.9,299.3,2212.6,278.7,2212.6z"/>
<path class="bcg-ios-tablet1" d="M-66.1,2165.1L-66.1,2165.1c-20.6,0-37.3-16.7-37.3-37.3l0,0c0-20.6,16.7-37.3,37.3-37.3l0,0
	c20.6,0,37.3,16.7,37.3,37.3l0,0C-28.9,2148.4-45.6,2165.1-66.1,2165.1z"/>
<path class="bcg-ios-tablet1" d="M470.9,2168H18.4c-20.6,0-37.3-16.7-37.3-37.3l0,0c0-20.6,16.7-37.3,37.3-37.3h452.5
	c20.6,0,37.3,16.7,37.3,37.3l0,0C508.2,2151.3,491.5,2168,470.9,2168z"/>
<path class="bcg-ios-tablet1" d="M374.5,2116.3H136.3c-20.6,0-37.3-16.7-37.3-37.3l0,0c0-20.6,16.7-37.3,37.3-37.3h238.2
	c20.6,0,37.3,16.7,37.3,37.3l0,0C411.8,2099.6,395.1,2116.3,374.5,2116.3z"/>
<path class="bcg-ios-tablet1" d="M947.6,2031H481.3c-19.2,0-34.8-15.6-34.8-34.8l0,0c0-19.2,15.6-34.8,34.8-34.8h466.3
	c19.2,0,34.8,15.6,34.8,34.8l0,0C982.4,2015.5,966.9,2031,947.6,2031z"/>
<path class="bcg-ios-tablet1" d="M124.8,1941L124.8,1941c-19.2,0-34.8-15.6-34.8-34.8l0,0c0-19.2,15.6-34.8,34.8-34.8l0,0
	c19.2,0,34.8,15.6,34.8,34.8l0,0C159.6,1925.4,144,1941,124.8,1941z"/>
<path class="bcg-ios-tablet1" d="M834.7,1989.3H411.9c-19.2,0-34.8-15.6-34.8-34.8l0,0c0-19.2,15.6-34.8,34.8-34.8h422.8
	c19.2,0,34.8,15.6,34.8,34.8l0,0C869.5,1973.7,854,1989.3,834.7,1989.3z"/>
<path class="bcg-ios-tablet1" d="M744.6,1941H234.5c-19.2,0-34.8-15.6-34.8-34.8l0,0c0-19.2,15.6-34.8,34.8-34.8h510.1
	c19.2,0,34.8,15.6,34.8,34.8l0,0C779.5,1925.4,763.9,1941,744.6,1941z"/>
<polygon class="bcg-ios-tablet3" points="365.7,990.1 408.2,990.1 374.4,1055.3 408.2,1055.3 365.7,1141.2 374.4,1082.5 334.4,1082.5 365,990.1
	"/>
<polygon class="bcg-ios-tablet3" points="465.4,1283.3 507.9,1283.3 474.1,1348.5 507.9,1348.5 465.4,1434.4 474.1,1375.7 434.1,1375.7
	464.7,1283.3 "/>
<polygon class="bcg-ios-tablet3" points="19.8,728.3 62.3,728.3 28.5,793.5 62.3,793.5 19.8,879.4 28.5,820.7 -11.5,820.7 19.1,728.3 "/>
<polygon class="bcg-ios-tablet3" points="296.7,962.2 322.8,962.2 302,1002.1 322.8,1002.1 296.7,1054.6 302,1018.7 277.6,1018.7 296.3,962.2
	"/>
<polygon class="bcg-ios-tablet3" points="193.4,189.2 211.7,189.2 197.1,217.2 211.7,217.2 193.4,254.2 197.1,229.1 179.9,229.1 193.1,189.4 "/>
<g>
	<g>
		<path class="bcg-ios-tablet1" d="M246.1,1504.7h-73.3c-8.1,0-14.7-6.6-14.7-14.7l0,0c0-8.1,6.6-14.7,14.7-14.7h73.3c8.1,0,14.7,6.6,14.7,14.7
			l0,0C260.7,1498.1,254.1,1504.7,246.1,1504.7z"/>
		<path class="bcg-ios-tablet1" d="M110.2,1485.9L110.2,1485.9c-8.1,0-14.7-6.6-14.7-14.7l0,0c0-8.1,6.6-14.7,14.7-14.7l0,0
			c8.1,0,14.7,6.6,14.7,14.7l0,0C124.9,1479.4,118.3,1485.9,110.2,1485.9z"/>
		<path class="bcg-ios-tablet1" d="M321.7,1487.1H143.5c-8.1,0-14.7-6.6-14.7-14.7l0,0c0-8.1,6.6-14.7,14.7-14.7h178.2c8.1,0,14.7,6.6,14.7,14.7
			l0,0C336.4,1480.5,329.9,1487.1,321.7,1487.1z"/>
		<path class="bcg-ios-tablet1" d="M283.8,1466.7H190c-8.1,0-14.7-6.6-14.7-14.7l0,0c0-8.1,6.6-14.7,14.7-14.7h93.8c8.1,0,14.7,6.6,14.7,14.7
			l0,0C298.5,1460.2,291.9,1466.7,283.8,1466.7z"/>
	</g>
	<g>
		<path class="bcg-ios-tablet1" d="M66.9,1547.7H121c6,0,10.8,4.9,10.8,10.8l0,0c0,6-4.9,10.8-10.8,10.8H66.9c-6,0-10.8-4.9-10.8-10.8l0,0
			C56,1552.6,60.9,1547.7,66.9,1547.7z"/>
		<path class="bcg-ios-tablet1" d="M167.2,1561.5L167.2,1561.5c6,0,10.8,4.9,10.8,10.8l0,0c0,6-4.9,10.8-10.8,10.8l0,0c-6,0-10.8-4.9-10.8-10.8
			l0,0C156.3,1566.4,161.2,1561.5,167.2,1561.5z"/>
		<path class="bcg-ios-tablet1" d="M11,1560.7h131.6c6,0,10.8,4.9,10.8,10.8l0,0c0,6-4.9,10.8-10.8,10.8H11c-6,0-10.8-4.9-10.8-10.8l0,0
			C0.1,1565.5,5,1560.7,11,1560.7z"/>
		<path class="bcg-ios-tablet1" d="M39,1575.7h69.3c6,0,10.8,4.9,10.8,10.8l0,0c0,6-4.9,10.8-10.8,10.8H39c-6,0-10.8-4.9-10.8-10.8l0,0
			C28.2,1580.6,33,1575.7,39,1575.7z"/>
	</g>
	<g>
		<path class="bcg-ios-tablet1" d="M116.8,1244.3h54.1c6,0,10.8,4.9,10.8,10.8l0,0c0,6-4.9,10.8-10.8,10.8h-54.1c-6,0-10.8-4.9-10.8-10.8l0,0
			C105.9,1249.1,110.8,1244.3,116.8,1244.3z"/>
		<path class="bcg-ios-tablet1" d="M217,1258.1L217,1258.1c6,0,10.8,4.9,10.8,10.8l0,0c0,6-4.9,10.8-10.8,10.8l0,0c-6,0-10.8-4.9-10.8-10.8l0,0
			C206.2,1262.9,211,1258.1,217,1258.1z"/>
		<path class="bcg-ios-tablet1" d="M60.9,1257.3h131.6c6,0,10.8,4.9,10.8,10.8l0,0c0,6-4.9,10.8-10.8,10.8H60.9c-6,0-10.8-4.9-10.8-10.8l0,0
			C50,1262.1,54.8,1257.3,60.9,1257.3z"/>
		<path class="bcg-ios-tablet1" d="M88.9,1272.3h69.3c6,0,10.8,4.9,10.8,10.8l0,0c0,6-4.9,10.8-10.8,10.8H88.9c-6,0-10.8-4.9-10.8-10.8l0,0
			C78.1,1277.2,82.9,1272.3,88.9,1272.3z"/>
	</g>
	<polygon class="bcg-ios-tablet3" points="129.4,1283.8 147.7,1283.8 133.1,1311.7 147.7,1311.7 129.4,1348.7 133.1,1323.7 116,1323.7
		129.2,1283.9 	"/>
	<polygon class="bcg-ios-tablet3" points="214.6,1480.5 232.9,1480.5 218.3,1508.4 232.9,1508.4 214.6,1545.4 218.3,1520.4 201.2,1520.4
		214.3,1480.6 	"/>
	<polygon class="bcg-ios-tablet3" points="257.4,1468.5 282.5,1468.5 262.5,1506.7 282.5,1506.7 257.4,1557.4 262.5,1523.1 239.1,1523.1
		257.1,1468.6 	"/>
</g>
</svg>
