<?xml version="1.0" encoding="utf-8"?>
<svg version="1.1" id="Warbcg-ios-mobilewa_1" xmlns="http://www.w3.org/2000/svg" xmlns:xlink="http://www.w3.org/1999/xlink" x="0px" y="0px"
	 viewBox="0 0 323.1 3039.4" bcg-ios-mobileyle="enable-background:new 0 0 323.1 3039.4;" xml:space="preserve">
<style type="text/css">
	.bcg-ios-mobile0{fill:#141923;}
	.bcg-ios-mobile1{fill:#1E2333;}
	.bcg-ios-mobile2{fill:#AA2D2B;}
	.bcg-ios-mobile3{fill:#2B304B;}
	.bcg-ios-mobile4{fill:none;bcg-ios-mobileroke:#2B304B;bcg-ios-mobileroke-width:6;bcg-ios-mobileroke-linecap:round;bcg-ios-mobileroke-linejoin:round;}
	.bcg-ios-mobile5{fill:#DA6346;}
</style>
<circle class="bcg-ios-mobile0" cx="167.8" cy="231.7" r="154.2"/>
<circle class="bcg-ios-mobile0" cx="105.7" cy="1771.1" r="137.3"/>
<g>
	<path class="bcg-ios-mobile1" d="M226.6,867.2h-63.6c-7,0-12.7-5.7-12.7-12.7l0,0c0-7,5.7-12.7,12.7-12.7h63.6c7,0,12.7,5.7,12.7,12.7l0,0
		C239.3,861.5,233.6,867.2,226.6,867.2z"/>
	<path class="bcg-ios-mobile1" d="M108.8,850.9L108.8,850.9c-7,0-12.7-5.7-12.7-12.7l0,0c0-7,5.7-12.7,12.7-12.7l0,0c7,0,12.7,5.7,12.7,12.7l0,0
		C121.5,845.2,115.8,850.9,108.8,850.9z"/>
	<path class="bcg-ios-mobile1" d="M292.2,851.9H137.7c-7,0-12.7-5.7-12.7-12.7l0,0c0-7,5.7-12.7,12.7-12.7h154.6c7,0,12.7,5.7,12.7,12.7l0,0
		C305,846.2,299.3,851.9,292.2,851.9z"/>
	<path class="bcg-ios-mobile1" d="M259.3,834.3h-81.4c-7,0-12.7-5.7-12.7-12.7l0,0c0-7,5.7-12.7,12.7-12.7h81.4c7,0,12.7,5.7,12.7,12.7l0,0
		C272.1,828.5,266.4,834.3,259.3,834.3z"/>
</g>
<g>
	<path class="bcg-ios-mobile1" d="M-1.6,1531h46.9c5.2,0,9.4,4.2,9.4,9.4l0,0c0,5.2-4.2,9.4-9.4,9.4H-1.6c-5.2,0-9.4-4.2-9.4-9.4l0,0
		C-11,1535.3-6.7,1531-1.6,1531z"/>
	<path class="bcg-ios-mobile1" d="M85.4,1543L85.4,1543c5.2,0,9.4,4.2,9.4,9.4l0,0c0,5.2-4.2,9.4-9.4,9.4l0,0c-5.2,0-9.4-4.2-9.4-9.4l0,0
		C76,1547.2,80.2,1543,85.4,1543z"/>
	<path class="bcg-ios-mobile1" d="M-50,1542.3H64.1c5.2,0,9.4,4.2,9.4,9.4l0,0c0,5.2-4.2,9.4-9.4,9.4H-50c-5.2,0-9.4-4.2-9.4-9.4l0,0
		C-59.5,1546.6-55.3,1542.3-50,1542.3z"/>
	<path class="bcg-ios-mobile1" d="M-25.8,1555.4h60.1c5.2,0,9.4,4.2,9.4,9.4l0,0c0,5.2-4.2,9.4-9.4,9.4h-60.1c-5.2,0-9.4-4.2-9.4-9.4l0,0
		C-35.2,1559.6-31,1555.4-25.8,1555.4z"/>
</g>
<g>
	<path class="bcg-ios-mobile1" d="M12.1,498.6h46.9c5.2,0,9.4,4.2,9.4,9.4l0,0c0,5.2-4.2,9.4-9.4,9.4H12.1c-5.2,0-9.4-4.2-9.4-9.4l0,0
		C2.7,502.8,6.9,498.6,12.1,498.6z"/>
	<path class="bcg-ios-mobile1" d="M99.1,510.6L99.1,510.6c5.2,0,9.4,4.2,9.4,9.4l0,0c0,5.2-4.2,9.4-9.4,9.4l0,0c-5.2,0-9.4-4.2-9.4-9.4l0,0
		C89.7,514.8,93.9,510.6,99.1,510.6z"/>
	<path class="bcg-ios-mobile1" d="M-36.4,509.9H77.7c5.2,0,9.4,4.2,9.4,9.4l0,0c0,5.2-4.2,9.4-9.4,9.4H-36.4c-5.2,0-9.4-4.2-9.4-9.4l0,0
		C-45.8,514.1-41.6,509.9-36.4,509.9z"/>
	<path class="bcg-ios-mobile1" d="M-12,522.9H48c5.2,0,9.4,4.2,9.4,9.4l0,0c0,5.2-4.2,9.4-9.4,9.4H-12c-5.2,0-9.4-4.2-9.4-9.4l0,0
		C-21.4,527.1-17.2,522.9-12,522.9z"/>
</g>
<g>
	<path class="bcg-ios-mobile1" d="M114.5,641.3h46.9c5.2,0,9.4,4.2,9.4,9.4l0,0c0,5.2-4.2,9.4-9.4,9.4h-46.9c-5.2,0-9.4-4.2-9.4-9.4l0,0
		C105.1,645.5,109.3,641.3,114.5,641.3z"/>
	<path class="bcg-ios-mobile1" d="M201.4,653.3L201.4,653.3c5.2,0,9.4,4.2,9.4,9.4l0,0c0,5.2-4.2,9.4-9.4,9.4l0,0c-5.2,0-9.4-4.2-9.4-9.4l0,0
		C192,657.5,196.2,653.3,201.4,653.3z"/>
	<path class="bcg-ios-mobile1" d="M66,652.6h114.1c5.2,0,9.4,4.2,9.4,9.4l0,0c0,5.2-4.2,9.4-9.4,9.4H66c-5.2,0-9.4-4.2-9.4-9.4l0,0
		C56.6,656.8,60.8,652.6,66,652.6z"/>
	<path class="bcg-ios-mobile1" d="M90.3,665.6h60.1c5.2,0,9.4,4.2,9.4,9.4l0,0c0,5.2-4.2,9.4-9.4,9.4H90.3c-5.2,0-9.4-4.2-9.4-9.4l0,0
		C80.9,669.8,85.1,665.6,90.3,665.6z"/>
</g>
<g>
	<path class="bcg-ios-mobile1" d="M130.6,982.3H83.7c-5.2,0-9.4-4.2-9.4-9.4l0,0c0-5.2,4.2-9.4,9.4-9.4h46.9c5.2,0,9.4,4.2,9.4,9.4l0,0
		C140,978,135.8,982.3,130.6,982.3z"/>
	<path class="bcg-ios-mobile1" d="M43.6,970.3L43.6,970.3c-5.2,0-9.4-4.2-9.4-9.4l0,0c0-5.2,4.2-9.4,9.4-9.4l0,0c5.2,0,9.4,4.2,9.4,9.4l0,0
		C53,966.1,48.8,970.3,43.6,970.3z"/>
	<path class="bcg-ios-mobile1" d="M179.1,971H64.9c-5.2,0-9.4-4.2-9.4-9.4l0,0c0-5.2,4.2-9.4,9.4-9.4h114.1c5.2,0,9.4,4.2,9.4,9.4l0,0
		C188.5,966.7,184.3,971,179.1,971z"/>
	<path class="bcg-ios-mobile1" d="M154.7,957.9H94.6c-5.2,0-9.4-4.2-9.4-9.4l0,0c0-5.2,4.2-9.4,9.4-9.4h60.1c5.2,0,9.4,4.2,9.4,9.4l0,0
		C164.1,953.7,159.9,957.9,154.7,957.9z"/>
</g>
<g>
	<path class="bcg-ios-mobile1" d="M91.9,182H34.5c-6.3,0-11.5-5.1-11.5-11.5l0,0c0-6.3,5.1-11.5,11.5-11.5h57.4c6.3,0,11.5,5.1,11.5,11.5l0,0
		C103.4,176.9,98.3,182,91.9,182z"/>
	<path class="bcg-ios-mobile1" d="M-14.5,167.4L-14.5,167.4c-6.3,0-11.5-5.1-11.5-11.5l0,0c0-6.3,5.1-11.5,11.5-11.5l0,0
		c6.3,0,11.5,5.1,11.5,11.5l0,0C-3,162.2-8.2,167.4-14.5,167.4z"/>
	<path class="bcg-ios-mobile1" d="M151.3,168.2H11.6c-6.3,0-11.5-5.1-11.5-11.5l0,0c0-6.3,5.1-11.5,11.5-11.5h139.7c6.3,0,11.5,5.1,11.5,11.5
		l0,0C162.7,163,157.6,168.2,151.3,168.2z"/>
	<path class="bcg-ios-mobile1" d="M121.5,152.2H48c-6.3,0-11.5-5.1-11.5-11.5l0,0c0-6.3,5.1-11.5,11.5-11.5h73.5c6.3,0,11.5,5.1,11.5,11.5l0,0
		C133,147.1,127.9,152.2,121.5,152.2z"/>
</g>
<g>
	<path class="bcg-ios-mobile1" d="M260.6,472h-63.6c-7,0-12.7-5.7-12.7-12.7l0,0c0-7,5.7-12.7,12.7-12.7h63.6c7,0,12.7,5.7,12.7,12.7l0,0
		C273.3,466.3,267.6,472,260.6,472z"/>
	<path class="bcg-ios-mobile1" d="M142.9,455.8L142.9,455.8c-7,0-12.7-5.7-12.7-12.7l0,0c0-7,5.7-12.7,12.7-12.7l0,0c7,0,12.7,5.7,12.7,12.7l0,0
		C155.5,450.1,149.8,455.8,142.9,455.8z"/>
	<path class="bcg-ios-mobile1" d="M326.3,456.7H171.7c-7,0-12.7-5.7-12.7-12.7l0,0c0-7,5.7-12.7,12.7-12.7h154.6c7,0,12.7,5.7,12.7,12.7l0,0
		C339,451,333.3,456.7,326.3,456.7z"/>
	<path class="bcg-ios-mobile1" d="M293.3,439.1H212c-7,0-12.7-5.7-12.7-12.7l0,0c0-7,5.7-12.7,12.7-12.7h81.4c7,0,12.7,5.7,12.7,12.7l0,0
		C306.1,433.4,300.3,439.1,293.3,439.1z"/>
</g>
<g>
	<path class="bcg-ios-mobile1" d="M216.7,219.2h63.6c7,0,12.7,5.7,12.7,12.7l0,0c0,7-5.7,12.7-12.7,12.7h-63.6c-7,0-12.7-5.7-12.7-12.7l0,0
		C203.9,224.9,209.6,219.2,216.7,219.2z"/>
	<path class="bcg-ios-mobile1" d="M334.4,235.4L334.4,235.4c7,0,12.7,5.7,12.7,12.7l0,0c0,7-5.7,12.7-12.7,12.7l0,0c-7,0-12.7-5.7-12.7-12.7l0,0
		C321.7,241.1,327.4,235.4,334.4,235.4z"/>
	<path class="bcg-ios-mobile1" d="M151,234.4h154.6c7,0,12.7,5.7,12.7,12.7l0,0c0,7-5.7,12.7-12.7,12.7H151c-7,0-12.7-5.7-12.7-12.7l0,0
		C138.2,240.1,143.9,234.4,151,234.4z"/>
	<path class="bcg-ios-mobile1" d="M183.9,252.1h81.4c7,0,12.7,5.7,12.7,12.7l0,0c0,7-5.7,12.7-12.7,12.7h-81.4c-7,0-12.7-5.7-12.7-12.7l0,0
		C171.2,257.8,176.9,252.1,183.9,252.1z"/>
</g>
<path class="bcg-ios-mobile1" d="M288.5,2483.9H24.9c-11.1,0-20-8.9-20-20l0,0c0-11.1,8.9-20,20-20h263.6c11.1,0,20,8.9,20,20l0,0
	C308.5,2474.9,299.6,2483.9,288.5,2483.9z"/>
<path class="bcg-ios-mobile1" d="M348.4,2483.9L348.4,2483.9c-11.1,0-20-8.9-20-20l0,0c0-11.1,8.9-20,20-20l0,0c11.1,0,20,8.9,20,20l0,0
	C368.4,2474.9,359.5,2483.9,348.4,2483.9z"/>
<path class="bcg-ios-mobile1" d="M227.9,2459.9H-14.9c-11.1,0-20-8.9-20-20l0,0c0-11.1,8.9-20,20-20h242.8c11.1,0,20,8.9,20,20l0,0
	C247.9,2451,238.9,2459.9,227.9,2459.9z"/>
<path class="bcg-ios-mobile1" d="M176.1,2432.1H48.3c-11.1,0-20-8.9-20-20l0,0c0-11.1,8.9-20,20-20h127.8c11.1,0,20,8.9,20,20l0,0
	C196.1,2423.2,187.2,2432.1,176.1,2432.1z"/>
<path class="bcg-ios-mobile1" d="M42.2,2530.9h80.6c8.9,0,16.1,7.2,16.1,16.1l0,0c0,8.9-7.2,16.1-16.1,16.1H42.2c-8.9,0-16.1-7.2-16.1-16.1l0,0
	C26.1,2538.1,33.3,2530.9,42.2,2530.9z"/>
<path class="bcg-ios-mobile1" d="M191.6,2551.5L191.6,2551.5c8.9,0,16.1,7.2,16.1,16.1l0,0c0,8.9-7.2,16.1-16.1,16.1l0,0
	c-8.9,0-16.1-7.2-16.1-16.1l0,0C175.5,2558.7,182.8,2551.5,191.6,2551.5z"/>
<path class="bcg-ios-mobile1" d="M-41,2550.2H155c8.9,0,16.1,7.2,16.1,16.1l0,0c0,8.9-7.2,16.1-16.1,16.1H-41c-8.9,0-16.1-7.2-16.1-16.1l0,0
	C-57.2,2557.4-49.9,2550.2-41,2550.2z"/>
<path class="bcg-ios-mobile1" d="M0.8,2572.6H104c8.9,0,16.1,7.2,16.1,16.1l0,0c0,8.9-7.2,16.1-16.1,16.1H0.8c-8.9,0-16.1-7.2-16.1-16.1l0,0
	C-15.4,2579.9-8.2,2572.6,0.8,2572.6z"/>
<g>
	<path class="bcg-ios-mobile1" d="M265.8,152h-41.4c-4.6,0-8.3-3.7-8.3-8.3l0,0c0-4.6,3.7-8.3,8.3-8.3h41.4c4.6,0,8.3,3.7,8.3,8.3l0,0
		C274.1,148.3,270.4,152,265.8,152z"/>
	<path class="bcg-ios-mobile1" d="M189.1,141.4L189.1,141.4c-4.6,0-8.3-3.7-8.3-8.3l0,0c0-4.6,3.7-8.3,8.3-8.3l0,0c4.6,0,8.3,3.7,8.3,8.3l0,0
		C197.4,137.7,193.7,141.4,189.1,141.4z"/>
	<path class="bcg-ios-mobile1" d="M308.6,142.1H207.9c-4.6,0-8.3-3.7-8.3-8.3l0,0c0-4.6,3.7-8.3,8.3-8.3h100.7c4.6,0,8.3,3.7,8.3,8.3l0,0
		C316.9,138.4,313.2,142.1,308.6,142.1z"/>
	<path class="bcg-ios-mobile1" d="M287.2,130.6h-53c-4.6,0-8.3-3.7-8.3-8.3l0,0c0-4.6,3.7-8.3,8.3-8.3h53c4.6,0,8.3,3.7,8.3,8.3l0,0
		C295.5,126.9,291.7,130.6,287.2,130.6z"/>
</g>
<path class="bcg-ios-mobile1" d="M96.1,101.2h-110c-12.2,0-22.1-9.9-22.1-22.1l0,0C-36,67-26.1,57-13.9,57H96.2c12.2,0,22.1,9.9,22.1,22.1l0,0
	C118.2,91.3,108.4,101.2,96.1,101.2z"/>
<path class="bcg-ios-mobile1" d="M-107.9,73.1L-107.9,73.1c-12.2,0-22.1-9.9-22.1-22.1l0,0c0-12.2,9.9-22.1,22.1-22.1l0,0
	c12.2,0,22.1,9.9,22.1,22.1l0,0C-85.8,63.2-95.7,73.1-107.9,73.1z"/>
<path class="bcg-ios-mobile1" d="M209.9,74.8H-57.9c-12.2,0-22.1-9.9-22.1-22.1l0,0c0-12.2,9.9-22.1,22.1-22.1h267.8c12.2,0,22.1,9.9,22.1,22.1
	l0,0C232,64.9,222.1,74.8,209.9,74.8z"/>
<path class="bcg-ios-mobile1" d="M152.8,44.2H11.9c-12.2,0-22.1-9.9-22.1-22.1l0,0C-10.2,9.9-0.3,0,11.9,0h140.9c12.2,0,22.1,9.9,22.1,22.1l0,0
	C174.9,34.3,165.1,44.2,152.8,44.2z"/>
<path class="bcg-ios-mobile2" d="M293.5,3005.9c-0.4,0-0.8-0.2-1-0.6c-0.1-0.1-2.3-3.7-5.8-3.7c-1.4,0-2.7,0.6-4.3,1.4
	c-2.4,1.3-5.5,2.8-10.6,2.8c-18.9,0-27.9-15.3-28.3-16c-0.3-0.6-0.1-1.3,0.4-1.6c0.4-0.2,0.9-0.2,1.2,0.1c5.7,3.7,11.4,5.7,16.9,5.7
	c2.8,0,5.7-0.5,8.2-1.6c-8-6-21.5-23.5-22.1-24.3c-0.4-0.5-0.3-1.2,0.2-1.6c0.4-0.3,1-0.3,1.4,0.1c5.4,4.6,9.5,7.8,12.6,10.1
	c-3.8-5-7.8-10.7-8.1-11c-0.3-0.5-0.2-1.3,0.3-1.6c0.5-0.3,1.1-0.2,1.4,0.1c6.6,6.6,18.6,15.6,22.6,18.4c3.1-11.2-4.6-21-4.6-21.2
	c-0.4-0.5-0.3-1.2,0.2-1.6c0.4-0.3,0.9-0.3,1.4-0.1c6.4,4.3,14.4,11.6,16,21.9c0.6,3.3,0.3,6.7-0.6,9.9c1.4,1.8,5.8,8,3.5,13.7
	C294.3,3005.5,294,3005.8,293.5,3005.9L293.5,3005.9z"/>
<path class="bcg-ios-mobile3" d="M275,2960.6c21.7,14.8,14.7,31.1,14.7,31.1s6.2,7,3.7,13.1c0,0-2.5-4.3-6.8-4.3c-4.1,0-6.5,4.3-14.9,4.3
	c-18.5,0-27.2-15.4-27.2-15.4c6.9,4.6,12.9,5.9,17.5,5.9c6.6,0,10.5-2.7,10.5-2.7c-7.5-4.4-23.5-25.1-23.5-25.1
	c13.9,11.8,19.9,14.9,19.9,14.9c-3.6-2.9-13.7-17.4-13.7-17.4c8.1,8.1,24,19.5,24,19.5C284,2971.8,275,2960.6,275,2960.6
	 M275,2958.3c-1.3,0-2.3,1-2.3,2.3c0,0.5,0.2,1,0.5,1.4l0,0c0.1,0.1,6.6,8.6,4.8,18.5c-4.8-3.6-15.2-11.4-21-17.3
	c-0.9-0.9-2.4-0.9-3.3-0.1c-0.8,0.8-0.9,2.1-0.3,3c0.3,0.5,1.5,2.2,3.1,4.3c-1.8-1.4-3.7-3.1-5.9-4.9c-1-0.8-2.4-0.7-3.2,0.2
	c-0.7,0.8-0.7,2-0.1,2.9c0.6,0.7,12.5,16.3,20.7,23.2c-1.9,0.6-3.9,0.9-5.9,0.9c-5.2,0-10.7-1.8-16.3-5.5c-1-0.7-2.5-0.4-3.2,0.6
	c-0.5,0.7-0.5,1.7-0.1,2.4c2,3.1,4.4,5.9,7.2,8.3c6.1,5.3,14,8.2,22,8.2c5.4,0,8.7-1.7,11.1-2.9c1.5-0.7,2.6-1.3,3.7-1.3
	c2.9,0,4.8,3.1,4.8,3.1c0.4,0.7,1.2,1.1,2,1.1h0.2c0.9-0.1,1.6-0.6,2-1.4c2.4-5.8-1.4-12-3.2-14.4c0.9-3.2,1-6.6,0.5-9.9
	c-1.7-10.6-9.9-18.2-16.5-22.6C275.9,2958.4,275.5,2958.2,275,2958.3L275,2958.3z"/>
<line class="bcg-ios-mobile4" x1="239.2" y1="2970.1" x2="214.1" y2="2945"/>
<line class="bcg-ios-mobile4" x1="251.4" y1="2949.9" x2="211.7" y2="2910.1"/>
<line class="bcg-ios-mobile4" x1="233.2" y1="2949.9" x2="216.8" y2="2933.4"/>
<line class="bcg-ios-mobile4" x1="260.8" y1="2945.4" x2="251.4" y2="2936.1"/>
<line class="bcg-ios-mobile4" x1="236.2" y1="2980.4" x2="226.8" y2="2971"/>
<line class="bcg-ios-mobile4" x1="205.2" y1="2935.1" x2="188.8" y2="2918.7"/>
<path class="bcg-ios-mobile1" d="M-5.5,2034.9h63.1c7,0,12.6,5.6,12.6,12.6l0,0c0,7-5.6,12.6-12.6,12.6H-5.5c-7,0-12.6-5.6-12.6-12.6l0,0
	C-18.1,2040.5-12.4,2034.9-5.5,2034.9z"/>
<path class="bcg-ios-mobile1" d="M111.5,2051L111.5,2051c7,0,12.6,5.6,12.6,12.6l0,0c0,7-5.6,12.6-12.6,12.6l0,0c-7,0-12.6-5.6-12.6-12.6l0,0
	C98.8,2056.7,104.5,2051,111.5,2051z"/>
<path class="bcg-ios-mobile1" d="M-70.7,2050H82.8c7,0,12.6,5.6,12.6,12.6l0,0c0,7-5.6,12.6-12.6,12.6H-70.7c-7,0-12.6-5.6-12.6-12.6l0,0
	C-83.3,2055.7-77.6,2050-70.7,2050z"/>
<path class="bcg-ios-mobile1" d="M-38,2067.5h80.8c7,0,12.6,5.6,12.6,12.6l0,0c0,7-5.6,12.6-12.6,12.6H-38c-7,0-12.6-5.6-12.6-12.6l0,0
	C-50.6,2073.2-45,2067.5-38,2067.5z"/>
<g>
	<path class="bcg-ios-mobile1" d="M271.3,2352.1H226c-5,0-9.1-4.1-9.1-9.1l0,0c0-5,4.1-9.1,9.1-9.1h45.3c5,0,9.1,4.1,9.1,9.1l0,0
		C280.4,2348.1,276.3,2352.1,271.3,2352.1z"/>
	<path class="bcg-ios-mobile1" d="M187.2,2340.5L187.2,2340.5c-5,0-9.1-4.1-9.1-9.1l0,0c0-5,4.1-9.1,9.1-9.1l0,0c5,0,9.1,4.1,9.1,9.1l0,0
		C196.3,2336.5,192.2,2340.5,187.2,2340.5z"/>
	<path class="bcg-ios-mobile1" d="M318.1,2341.3H207.8c-5,0-9.1-4.1-9.1-9.1l0,0c0-5,4.1-9.1,9.1-9.1h110.3c5,0,9.1,4.1,9.1,9.1l0,0
		C327.2,2337.2,323.1,2341.3,318.1,2341.3z"/>
	<path class="bcg-ios-mobile1" d="M294.6,2328.6h-58c-5,0-9.1-4.1-9.1-9.1l0,0c0-5,4.1-9.1,9.1-9.1h58c5,0,9.1,4.1,9.1,9.1l0,0
		C303.7,2324.6,299.7,2328.6,294.6,2328.6z"/>
</g>
<g>
	<path class="bcg-ios-mobile1" d="M62.3,2787H17c-5,0-9.1-4.1-9.1-9.1l0,0c0-5,4.1-9.1,9.1-9.1h45.3c5,0,9.1,4.1,9.1,9.1l0,0
		C71.4,2783,67.3,2787,62.3,2787z"/>
	<path class="bcg-ios-mobile1" d="M-21.7,2775.4L-21.7,2775.4c-5,0-9.1-4.1-9.1-9.1l0,0c0-5,4.1-9.1,9.1-9.1l0,0c5,0,9.1,4.1,9.1,9.1l0,0
		C-12.7,2771.4-16.7,2775.4-21.7,2775.4z"/>
	<path class="bcg-ios-mobile1" d="M109.2,2776.2H-1.1c-5,0-9.1-4.1-9.1-9.1l0,0c0-5,4.1-9.1,9.1-9.1h110.3c5,0,9.1,4.1,9.1,9.1l0,0
		C118.2,2772.1,114.2,2776.2,109.2,2776.2z"/>
	<path class="bcg-ios-mobile1" d="M85.7,2763.5h-58c-5,0-9.1-4.1-9.1-9.1l0,0c0-5,4.1-9.1,9.1-9.1h58c5,0,9.1,4.1,9.1,9.1l0,0
		C94.8,2759.5,90.7,2763.5,85.7,2763.5z"/>
</g>
<g>
	<path class="bcg-ios-mobile1" d="M296.1,2876.5h-45.3c-5,0-9.1-4.1-9.1-9.1l0,0c0-5,4.1-9.1,9.1-9.1h45.3c5,0,9.1,4.1,9.1,9.1l0,0
		C305.2,2872.5,301.1,2876.5,296.1,2876.5z"/>
	<path class="bcg-ios-mobile1" d="M212,2864.9L212,2864.9c-5,0-9.1-4.1-9.1-9.1l0,0c0-5,4.1-9.1,9.1-9.1l0,0c5,0,9.1,4.1,9.1,9.1l0,0
		C221.1,2860.9,217.1,2864.9,212,2864.9z"/>
	<path class="bcg-ios-mobile1" d="M342.9,2865.6H232.6c-5,0-9.1-4.1-9.1-9.1l0,0c0-5,4.1-9.1,9.1-9.1h110.3c5,0,9.1,4.1,9.1,9.1l0,0
		C352,2861.6,348,2865.6,342.9,2865.6z"/>
	<path class="bcg-ios-mobile1" d="M319.4,2853h-58c-5,0-9.1-4.1-9.1-9.1l0,0c0-5,4.1-9.1,9.1-9.1h58c5,0,9.1,4.1,9.1,9.1l0,0
		C328.5,2848.9,324.5,2853,319.4,2853z"/>
</g>
<path class="bcg-ios-mobile1" d="M172.8,2125.3h126.3c14,0,25.3,11.3,25.3,25.3l0,0c0,14-11.3,25.3-25.3,25.3H172.8c-14,0-25.3-11.3-25.3-25.3
	l0,0C147.5,2136.6,158.8,2125.3,172.8,2125.3z"/>
<path class="bcg-ios-mobile1" d="M406.9,2157.6L406.9,2157.6c14,0,25.3,11.3,25.3,25.3l0,0c0,14-11.3,25.3-25.3,25.3l0,0
	c-14,0-25.3-11.3-25.3-25.3l0,0C381.6,2168.9,392.9,2157.6,406.9,2157.6z"/>
<path class="bcg-ios-mobile1" d="M42.3,2155.6h307.2c14,0,25.3,11.3,25.3,25.3l0,0c0,14-11.3,25.3-25.3,25.3H42.3c-14,0-25.3-11.3-25.3-25.3l0,0
	C17,2166.9,28.3,2155.6,42.3,2155.6z"/>
<path class="bcg-ios-mobile1" d="M107.8,2190.7h161.7c14,0,25.3,11.3,25.3,25.3l0,0c0,14-11.3,25.3-25.3,25.3H107.8c-14,0-25.3-11.3-25.3-25.3
	l0,0C82.4,2202,93.8,2190.7,107.8,2190.7z"/>
<path class="bcg-ios-mobile1" d="M99.3,2000H-27c-14,0-25.3-11.3-25.3-25.3l0,0c0-14,11.3-25.3,25.3-25.3H99.3c14,0,25.3,11.3,25.3,25.3l0,0
	C124.6,1988.6,113.3,2000,99.3,2000z"/>
<path class="bcg-ios-mobile1" d="M-134.8,1967.7L-134.8,1967.7c-14,0-25.3-11.3-25.3-25.3l0,0c0-14,11.3-25.3,25.3-25.3l0,0
	c14,0,25.3,11.3,25.3,25.3l0,0C-109.5,1956.4-120.8,1967.7-134.8,1967.7z"/>
<path class="bcg-ios-mobile1" d="M229.8,1969.7H-77.4c-14,0-25.3-11.3-25.3-25.3l0,0c0-14,11.3-25.3,25.3-25.3h307.2c14,0,25.3,11.3,25.3,25.3
	l0,0C255.1,1958.4,243.8,1969.7,229.8,1969.7z"/>
<path class="bcg-ios-mobile1" d="M164.4,1934.6H2.6c-14,0-25.3-11.3-25.3-25.3l0,0c0-14,11.3-25.3,25.3-25.3h161.7c14,0,25.3,11.3,25.3,25.3l0,0
	C189.7,1923.2,178.4,1934.6,164.4,1934.6z"/>
<path class="bcg-ios-mobile1" d="M553.4,1876.7H236.9c-13,0-23.7-10.6-23.7-23.7l0,0c0-13,10.6-23.7,23.7-23.7h316.6c13,0,23.7,10.6,23.7,23.7
	l0,0C577.1,1866.1,566.5,1876.7,553.4,1876.7z"/>
<path class="bcg-ios-mobile1" d="M-5.2,1815.6L-5.2,1815.6c-13,0-23.7-10.6-23.7-23.7l0,0c0-13,10.6-23.7,23.7-23.7l0,0
	c13,0,23.7,10.6,23.7,23.7l0,0C18.5,1805,7.9,1815.6-5.2,1815.6z"/>
<path class="bcg-ios-mobile1" d="M476.8,1848.4h-287c-13,0-23.7-10.6-23.7-23.7l0,0c0-13,10.6-23.7,23.7-23.7h287c13,0,23.7,10.6,23.7,23.7l0,0
	C500.4,1837.8,489.9,1848.4,476.8,1848.4z"/>
<path class="bcg-ios-mobile1" d="M415.7,1815.6H69.3c-13,0-23.7-10.6-23.7-23.7l0,0c0-13,10.6-23.7,23.7-23.7h346.3c13,0,23.7,10.6,23.7,23.7
	l0,0C439.3,1805,428.7,1815.6,415.7,1815.6z"/>
<polygon class="bcg-ios-mobile3" points="84.6,2454.7 121.5,2454.7 92.1,2511.2 121.5,2511.2 84.6,2585.7 92.1,2534.8 57.4,2534.8 84,2454.7 "/>
<g>
	<circle class="bcg-ios-mobile0" cx="172.2" cy="1199.9" r="175.4"/>
	<path class="bcg-ios-mobile1" d="M9.7,1187.1h63.6c7,0,12.7,5.7,12.7,12.7l0,0c0,7-5.7,12.7-12.7,12.7H9.7c-7,0-12.7-5.7-12.7-12.7l0,0
		C-3,1192.8,2.7,1187.1,9.7,1187.1z"/>
	<path class="bcg-ios-mobile1" d="M127.5,1203.3L127.5,1203.3c7,0,12.7,5.7,12.7,12.7l0,0c0,7-5.7,12.7-12.7,12.7l0,0c-7,0-12.7-5.7-12.7-12.7
		l0,0C114.7,1209,120.5,1203.3,127.5,1203.3z"/>
	<path class="bcg-ios-mobile1" d="M-56,1202.3H98.6c7,0,12.7,5.7,12.7,12.7l0,0c0,7-5.7,12.7-12.7,12.7H-56c-7,0-12.7-5.7-12.7-12.7l0,0
		C-68.7,1208.1-63,1202.3-56,1202.3z"/>
	<path class="bcg-ios-mobile1" d="M-23,1220h81.4c7,0,12.7,5.7,12.7,12.7l0,0c0,7-5.7,12.7-12.7,12.7H-23c-7,0-12.7-5.7-12.7-12.7l0,0
		C-35.8,1225.7-30.1,1220-23,1220z"/>
	<path class="bcg-ios-mobile1" d="M266,1398.4H155.9c-12.2,0-22.1-9.9-22.1-22.1l0,0c0-12.2,9.9-22.1,22.1-22.1H266c12.2,0,22.1,9.9,22.1,22.1
		l0,0C288,1388.5,278.2,1398.4,266,1398.4z"/>
	<path class="bcg-ios-mobile1" d="M62,1370.2L62,1370.2c-12.2,0-22.1-9.9-22.1-22.1l0,0c0-12.2,9.9-22.1,22.1-22.1l0,0
		c12.2,0,22.1,9.9,22.1,22.1l0,0C84,1360.4,74.1,1370.2,62,1370.2z"/>
	<path class="bcg-ios-mobile1" d="M379.7,1372H112c-12.2,0-22.1-9.9-22.1-22.1l0,0c0-12.2,9.9-22.1,22.1-22.1h267.8c12.2,0,22.1,9.9,22.1,22.1
		l0,0C401.8,1362.1,391.9,1372,379.7,1372z"/>
	<path class="bcg-ios-mobile1" d="M322.7,1341.3H181.8c-12.2,0-22.1-9.9-22.1-22.1l0,0c0-12.2,9.9-22.1,22.1-22.1h140.9
		c12.2,0,22.1,9.9,22.1,22.1l0,0C344.7,1331.5,334.9,1341.3,322.7,1341.3z"/>
	<path class="bcg-ios-mobile1" d="M322.2,1129.7H27c-12.2,0-22.1-9.9-22.1-22.1l0,0c0-12.2,9.9-22.1,22.1-22.1h295.3c12.2,0,22.1,9.9,22.1,22.1
		l0,0C344.3,1119.8,334.4,1129.7,322.2,1129.7z"/>
	<path class="bcg-ios-mobile1" d="M397.1,1103.3h-403c-18.3,0-33.2-9.9-33.2-22.1l0,0c0-12.2,14.8-22.1,33.2-22.1h403c18.3,0,33.2,9.9,33.2,22.1
		l0,0C430.4,1093.4,415.5,1103.3,397.1,1103.3z"/>
	<path class="bcg-ios-mobile1" d="M330.2,1064.5H62.4c-12.2,0-22.1-9.9-22.1-22.1l0,0c0-12.2,9.9-22.1,22.1-22.1h267.8
		c12.2,0,22.1,9.9,22.1,22.1l0,0C352.3,1054.6,342.4,1064.5,330.2,1064.5z"/>
	<path class="bcg-ios-mobile5" d="M199.4,1587.8c-0.5-0.1-0.8-0.3-1-0.7c-1.7-4.2-1.2-9.2,1.4-14.6c1.1-2.2,2.5-4.3,4-6.3c-1.6-5-2-10.3-1-15.4
		c2.5-15.5,14.7-26.7,24.5-33.3c0.5-0.3,1.3-0.2,1.6,0.3c0.3,0.4,0.3,1-0.1,1.4c-0.1,0.2-12.6,16.2-7,34.1
		c5.2-3.7,25.1-18.3,35.7-29.1c0.5-0.5,1.2-0.5,1.6,0c0.4,0.4,0.5,1,0.1,1.4c-0.5,0.7-8.7,12.5-15.2,20.5c5-3.5,12.6-9.2,23.2-18.2
		c0.5-0.4,1.2-0.3,1.6,0.1c0.3,0.4,0.3,1,0.1,1.4c-1,1.3-22.8,29.6-34.9,38.1c4.4,2.1,9.2,3.1,14,3.1l0,0c8.6,0,17.5-3,26.4-8.9
		c0.5-0.3,1.3-0.2,1.6,0.3c0.2,0.3,0.2,0.8,0.1,1.2c-0.1,0.2-14.2,24.5-43.1,24.5c-7.8,0-12.4-2.4-16.1-4.3
		c-2.5-1.3-4.5-2.3-6.9-2.3c-5.9,0-9.5,6-9.6,6.1c-0.2,0.3-0.6,0.6-1,0.6L199.4,1587.8z"/>
	<path class="bcg-ios-mobile3" d="M227.9,1518.4L227.9,1518.4 M227.9,1518.4c0,0-13.7,17.4-6.7,36.7c0,0,24.7-17.5,37.1-30.1
		c0,0-15.6,22.4-21.1,26.9c0,0,9.3-4.8,30.7-23.1c0,0-24.7,32.2-36.3,38.9c0,0,6.1,4.2,16.2,4.2c7.2,0,16.4-2.1,27.1-9.1
		c0,0-13.5,23.8-42.1,23.8c-12.9,0-16.6-6.6-23-6.6c-6.6,0-10.6,6.6-10.6,6.6c-3.9-9.5,5.7-20.2,5.7-20.2S194.3,1541.3,227.9,1518.4
		 M227.9,1516.1h-0.2c-0.4,0.1-0.7,0.2-1.1,0.4c-7.9,5.4-14.1,11.4-18.3,17.8c-3.3,4.9-5.6,10.5-6.6,16.3
		c-0.9,5.1-0.6,10.4,0.9,15.3c-2.5,3.2-8.9,12.6-5.2,21.5c0.3,0.8,1.1,1.4,2,1.4h0.2c0.8,0,1.6-0.4,2-1.1c0.1-0.1,3.4-5.5,8.6-5.5
		c2.1,0,3.9,1,6.3,2.2c3.8,2,8.5,4.4,16.7,4.4c12.2,0,24-4.4,33.3-12.5c4.3-3.6,7.9-7.8,10.8-12.5c0.6-1.1,0.2-2.5-0.9-3.2
		c-0.7-0.4-1.7-0.4-2.4,0.1c-8.8,5.8-17.4,8.7-25.8,8.7c-4,0-8-0.7-11.7-2.1c12.5-9.8,32.6-35.9,33.6-37.1c0.7-1,0.6-2.5-0.4-3.2
		c-0.9-0.7-2.1-0.6-2.9,0.1c-6.7,5.7-12.2,10-16.6,13.3c5.1-6.8,9.9-13.6,10.3-14.1c0.7-1,0.5-2.5-0.6-3.2c-0.9-0.6-2.2-0.5-3,0.3
		c-9.8,9.9-27.6,23.1-34.3,28c-4.2-16.4,6.6-30.7,7.2-31.5c0.8-1,0.7-2.4-0.3-3.2C229,1516.2,228.5,1516.1,227.9,1516.1
		L227.9,1516.1z M227.9,1520.7L227.9,1520.7z"/>
	<line class="bcg-ios-mobile4" x1="238.2" y1="1522.7" x2="256.1" y2="1504.8"/>
	<line class="bcg-ios-mobile4" x1="295" y1="1528.7" x2="323.3" y2="1500.4"/>
	<line class="bcg-ios-mobile4" x1="262.8" y1="1497.1" x2="291.1" y2="1468.8"/>
	<line class="bcg-ios-mobile4" x1="277.1" y1="1532.6" x2="305.4" y2="1504.2"/>
	<line class="bcg-ios-mobile4" x1="288.4" y1="1501.3" x2="316.7" y2="1473"/>
	<line class="bcg-ios-mobile4" x1="259.3" y1="1514.3" x2="265.9" y2="1507.6"/>
	<line class="bcg-ios-mobile4" x1="279.6" y1="1544.1" x2="291.3" y2="1532.4"/>
	<line class="bcg-ios-mobile4" x1="269.1" y1="1519.6" x2="280.8" y2="1507.8"/>
	<line class="bcg-ios-mobile4" x1="237.5" y1="1503.1" x2="249.2" y2="1491.3"/>
	<polygon class="bcg-ios-mobile3" points="114.4,1109 151.3,1109 121.9,1165.5 151.3,1165.5 114.4,1240 121.9,1189.1 87.3,1189.1 113.8,1109
		"/>
	<polygon class="bcg-ios-mobile3" points="200.9,1363.3 237.8,1363.3 208.5,1419.8 237.8,1419.8 200.9,1494.3 208.5,1443.5 173.8,1443.5
		200.3,1363.3 	"/>
	<polygon class="bcg-ios-mobile3" points="54.6,1084.8 77.2,1084.8 59.2,1119.4 77.2,1119.4 54.6,1164.9 59.2,1133.8 38,1133.8 54.2,1084.8 	"/>
</g>
<polygon class="bcg-ios-mobile3" points="65.5,160.6 81.4,160.6 68.8,184.8 81.4,184.8 65.5,216.9 68.8,195.2 53.9,195.2 65.3,160.7 "/>
<polygon class="bcg-ios-mobile3" points="125.4,675.6 141.3,675.6 128.7,699.8 141.3,699.8 125.4,731.9 128.7,710.2 113.8,710.2 125.2,675.7 "/>
<polygon class="bcg-ios-mobile3" points="199.3,846.2 215.2,846.2 202.5,870.4 215.2,870.4 199.3,902.5 202.5,880.8 187.7,880.8 199.1,846.3 "/>
<polygon class="bcg-ios-mobile3" points="236.5,835.8 258.2,835.8 240.9,868.9 258.2,868.9 236.5,912.9 240.9,883.1 220.5,883.1 236.2,835.9 "/>
</svg>
