<svg xmlns="http://www.w3.org/2000/svg" viewBox="0 0 863.59 623.33"><defs><style>.img-ios-1{fill:#2b304b;}.img-ios-2{fill:#da6346;}.img-ios-3{fill:#e9b258;}.img-ios-4{fill:#d74138;}.img-ios-5{fill:none;stroke:#2b304b;stroke-linecap:round;stroke-linejoin:round;stroke-width:6px;}.img-ios-6{fill:#1e2333;}</style></defs><title>Zasób 1</title><g id="Warstwa_2" data-name="Warstwa 2"><g id="Warstwa_1-2" data-name="Warstwa 1"><rect class="img-ios-1" x="615.21" y="231.95" width="154.33" height="44.17" rx="22.08" ry="22.08"/><rect class="img-ios-1" x="819.42" y="260.12" width="44.17" height="44.17" rx="22.08" ry="22.08"/><rect class="img-ios-1" x="501.38" y="258.39" width="312.16" height="44.17" rx="22.08" ry="22.08"/><rect class="img-ios-1" x="558.46" y="289.03" width="185.24" height="44.17" rx="22.08" ry="22.08"/><rect class="img-ios-1" x="144.42" y="337.54" width="195.79" height="56.03" rx="28.02" ry="28.02"/><rect class="img-ios-1" x="403.49" y="373.28" width="56.03" height="56.03" rx="28.02" ry="28.02"/><rect class="img-ios-1" y="371.09" width="396.04" height="56.03" rx="28.02" ry="28.02"/><rect class="img-ios-1" x="72.42" y="409.96" width="235.01" height="56.03" rx="28.02" ry="28.02"/><path class="img-ios-2" d="M773,509.33a2,2,0,0,1-1.71-1c-.17-.27-11-17.82-28.36-17.82-7,0-12.8,3-20.12,6.75-10.41,5.37-23.36,12-45.35,12-42.69,0-73.5-18.75-91.83-34.47-19.85-17-29.48-33.81-29.88-34.52a2,2,0,0,1,2.84-2.66c25.71,16.94,51.31,25.53,76.1,25.53,21.57,0,36.51-6.67,42.36-9.81-14-9.17-34.7-29.76-61.74-61.3-21.5-25.07-39.17-48.1-39.35-48.33a2,2,0,0,1,2.88-2.74c36.26,30.84,60.4,48.24,73.94,57.24-19.17-22.27-47.83-63.41-49.31-65.54a2,2,0,0,1,3.06-2.55c31.45,31.83,91.33,75.34,103.45,84.06,17.44-52.56-19.29-99.73-19.67-100.2a2,2,0,0,1,2.69-2.9c27.66,18.8,62.12,50.4,69.22,94.22,3.71,22.88-1.54,39.48-3.2,44a96.84,96.84,0,0,1,11.75,18.22c7.38,15,8.8,29,4.09,40.56a2,2,0,0,1-1.7,1.24Z"/><path class="img-ios-1" d="M691.84,312.8c95.86,65.16,64.85,136.9,64.85,136.9s27.25,30.7,16.29,57.64c0,0-11.28-18.8-30.07-18.8-18.17,0-28.82,18.8-65.47,18.8-81.45,0-120-68-120-68,30.34,20,56.71,25.86,77.2,25.86,29,0,46.23-11.76,46.23-11.76-33.08-19.22-103.38-110.9-103.38-110.9,61.27,52.11,87.71,65.79,87.71,65.79-15.83-13-60.15-76.75-60.15-76.75,35.46,35.88,105.88,85.83,105.88,85.83C731,362.21,691.84,312.8,691.84,312.8m0-4a4,4,0,0,0-3.14,6.49,126.73,126.73,0,0,1,16.57,30.77c8.53,22.67,9.73,44.49,3.59,64.95-15.94-11.52-71.23-52.15-101-82.22a4,4,0,0,0-6.13,5.1c1.26,1.81,22.26,31.94,40.39,54.7-15-10.7-35.81-26.72-62.08-49.07a4,4,0,0,0-5.77,5.48c2.73,3.56,63.88,83.06,98.76,108.14a91.27,91.27,0,0,1-38.44,8.09c-24.39,0-49.62-8.48-75-25.2a4,4,0,0,0-5.68,5.31c.41.72,10.21,17.8,30.32,35.05a147.33,147.33,0,0,0,38.47,24,139.52,139.52,0,0,0,54.67,10.94c22.48,0,35.67-6.8,46.27-12.27,7.08-3.65,12.67-6.53,19.2-6.53,6.71,0,13.18,2.76,19.23,8.21a43.56,43.56,0,0,1,7.42,8.65,4,4,0,0,0,3.42,1.93h.32a4,4,0,0,0,3.39-2.48c10.28-25.27-9.5-52.57-15.43-59.93,2-5.88,6.43-22.15,2.91-43.87-2.55-15.71-8.74-31-18.42-45.58-12-18-29.36-34.82-51.65-50a4,4,0,0,0-2.25-.69Z"/><path class="img-ios-3" d="M396,243.53a2,2,0,0,1-1.71-1h0c0-.08-4.76-7.7-12.16-7.7-3,0-5.54,1.32-8.79,3-4.9,2.53-11,5.68-21.42,5.68-38.29,0-56.9-32-57.09-32.37a2,2,0,0,1,2.84-2.66c11.68,7.7,23.29,11.6,34.51,11.6a41.91,41.91,0,0,0,17.43-3.6c-16.15-11.75-44.13-48.13-45.38-49.76A2,2,0,0,1,307.1,164c12.08,10.27,21.23,17.3,27.71,22-8.2-10.39-17.37-23.54-17.93-24.35a2,2,0,0,1,3.06-2.55c13.6,13.76,38.8,32.3,46.37,37.78,6.75-23.08-9.17-43.59-9.33-43.81a2,2,0,0,1,2.69-2.9c12.93,8.79,29,23.59,32.39,44.18a43,43,0,0,1-1.32,20.23c2.81,3.51,11.83,16.08,7.09,27.73a2,2,0,0,1-1.7,1.24Z"/><path class="img-ios-1" d="M358.55,151.8c44.22,30.06,29.91,63.15,29.91,63.15S401,229.11,396,241.53c0,0-5.2-8.67-13.87-8.67-8.38,0-13.29,8.67-30.2,8.67-37.57,0-55.35-31.36-55.35-31.36,14,9.22,26.16,11.93,35.61,11.93,13.39,0,21.32-5.43,21.32-5.43-15.26-8.86-47.69-51.15-47.69-51.15,28.26,24,40.46,30.35,40.46,30.35-7.3-6-27.74-35.4-27.74-35.4,16.36,16.55,48.84,39.59,48.84,39.59,9.27-25.47-8.81-48.26-8.81-48.26m0-4a4,4,0,0,0-3.14,6.48c.17.22,14.16,18.33,9.69,39.21-9.49-6.94-31.43-23.39-43.73-35.83a4,4,0,0,0-6.13,5.1c.88,1.26,4.62,6.63,9.24,12.91-4.63-3.64-10-8-16.09-13.19a4,4,0,0,0-5.77,5.48c.08.11,8.29,10.79,18.26,22.42s18.38,20.33,24.72,25.55a41.54,41.54,0,0,1-13.44,2.17c-10.82,0-22.06-3.79-33.41-11.27a4,4,0,0,0-5.68,5.31,70.05,70.05,0,0,0,14.46,16.74,67.39,67.39,0,0,0,44.37,16.64c10.89,0,17.5-3.41,22.33-5.9,3.12-1.61,5.38-2.77,7.87-2.77,6.24,0,10.41,6.68,10.45,6.74a4,4,0,0,0,3.42,1.92h.32a4,4,0,0,0,3.38-2.47c4.8-11.81-3.21-24.25-6.72-28.89A45.9,45.9,0,0,0,394,194c-3.45-21.29-20-36.5-33.24-45.51a4,4,0,0,0-2.25-.69Z"/><path class="img-ios-4" d="M643.35,249.61a2,2,0,0,1-1.71-1c-.08-.13-7.1-11.53-18.28-11.53-4.51,0-8.29,1.95-13.07,4.41-7,3.6-15.68,8.08-30.46,8.08a93.66,93.66,0,0,1-61.49-23.08c-13.29-11.4-19.75-22.66-20-23.13a2,2,0,0,1,2.84-2.66c17,11.19,33.88,16.86,50.22,16.86a60.43,60.43,0,0,0,26.86-5.93c-22.91-15.8-64.6-70-66.44-72.41a2,2,0,0,1,2.88-2.74c20.88,17.76,35.7,28.8,45.13,35.31-12.56-15.29-28.83-38.64-29.74-39.94a2,2,0,0,1,3.06-2.55c20.29,20.53,58.44,48.42,67.95,55.28,10.77-34.2-13-64.81-13.25-65.12a2,2,0,0,1,2.69-2.9c18.5,12.57,41.54,33.72,46.31,63.09,2.4,14.79-.78,25.7-2,29.2a65.44,65.44,0,0,1,7.65,11.95c5,10.13,5.94,19.65,2.74,27.52a2,2,0,0,1-1.7,1.24Z"/><path class="img-ios-1" d="M589.41,118.27c63.73,43.32,43.11,91,43.11,91s18.12,20.41,10.83,38.32c0,0-7.5-12.5-20-12.5-12.08,0-19.16,12.5-43.53,12.5-54.15,0-79.77-45.2-79.77-45.2,20.17,13.29,37.71,17.19,51.33,17.19,19.29,0,30.74-7.82,30.74-7.82-22-12.78-68.73-73.73-68.73-73.73,40.74,34.65,58.32,43.74,58.32,43.74-10.52-8.67-40-51-40-51,23.58,23.85,70.4,57.07,70.4,57.07,13.36-36.71-12.7-69.56-12.7-69.56m0-4a4,4,0,0,0-3.14,6.49,83.07,83.07,0,0,1,10.84,20.18c5.28,14.09,6.23,27.66,2.84,40.42-12.23-8.89-46.58-34.35-65.4-53.4a4,4,0,0,0-6.13,5.1c.71,1,10.66,15.29,21,28.85C540.79,155.44,529.7,146.68,516,135a4,4,0,0,0-5.77,5.48c1.77,2.31,40.44,52.58,64.08,70.78a60.45,60.45,0,0,1-22.91,4.34c-15.95,0-32.48-5.56-49.12-16.53a4,4,0,0,0-5.68,5.31c.28.49,6.91,12,20.45,23.66a95.64,95.64,0,0,0,62.8,23.56c15.27,0,24.2-4.6,31.38-8.3,4.54-2.34,8.13-4.19,12.15-4.19s8.19,1.75,12,5.21a27.52,27.52,0,0,1,4.57,5.35,4,4,0,0,0,3.43,1.94h.31a4,4,0,0,0,3.4-2.48c6.86-16.85-5.48-34.84-10-40.62a63.66,63.66,0,0,0,1.76-29.12,78.18,78.18,0,0,0-12.45-30.83c-8.06-12.11-19.74-23.42-34.71-33.59a4,4,0,0,0-2.25-.69Z"/><line class="img-ios-5" x1="285.53" y1="171" x2="234.53" y2="120"/><line class="img-ios-5" x1="500.53" y1="174" x2="449.53" y2="123"/><line class="img-ios-5" x1="662.53" y1="325" x2="611.53" y2="274"/><line class="img-ios-5" x1="461.53" y1="54" x2="410.53" y2="3"/><line class="img-ios-5" x1="310.53" y1="130" x2="229.78" y2="49.25"/><line class="img-ios-5" x1="568.53" y1="112" x2="487.78" y2="31.25"/><line class="img-ios-5" x1="500.53" y1="342" x2="419.78" y2="261.25"/><line class="img-ios-5" x1="551.53" y1="353" x2="470.78" y2="272.25"/><line class="img-ios-5" x1="519.53" y1="264" x2="438.78" y2="183.25"/><line class="img-ios-5" x1="273.53" y1="130" x2="240.1" y2="96.58"/><line class="img-ios-5" x1="479.53" y1="119" x2="446.1" y2="85.58"/><line class="img-ios-5" x1="439.53" y1="113" x2="406.1" y2="79.58"/><line class="img-ios-5" x1="329.53" y1="121" x2="310.53" y2="102"/><line class="img-ios-5" x1="279.53" y1="192" x2="260.53" y2="173"/><line class="img-ios-5" x1="434.53" y1="72" x2="415.53" y2="53"/><line class="img-ios-5" x1="602.53" y1="301" x2="583.53" y2="282"/><line class="img-ios-5" x1="216.53" y1="100" x2="183.1" y2="66.58"/><line class="img-ios-5" x1="504.53" y1="100" x2="471.1" y2="66.58"/><line class="img-ios-5" x1="544.53" y1="386" x2="511.1" y2="352.58"/><line class="img-ios-5" x1="574.53" y1="316" x2="541.1" y2="282.58"/><polygon class="img-ios-6" points="193.13 426.57 232.29 426.57 201.14 486.57 232.29 486.57 193.13 565.57 201.14 511.57 164.36 511.57 192.51 426.5 193.13 426.57"/><path class="img-ios-2" d="M549,621.33a2,2,0,0,1-1.71-1c-.12-.2-6.49-10.46-16.58-10.46-4.08,0-7.52,1.77-11.88,4-6.41,3.3-14.38,7.41-27.94,7.41-50.12,0-74.47-41.93-74.71-42.36a2,2,0,0,1,2.84-2.66c15.5,10.22,30.93,15.4,45.85,15.4a55.28,55.28,0,0,0,24.23-5.27c-21-14.69-58.9-63.92-60.58-66.11a2,2,0,0,1,2.88-2.74c18.38,15.63,31.62,25.57,40.27,31.6-11.38-14-25.63-34.44-26.44-35.61a2,2,0,0,1,3.06-2.55c18.42,18.64,52.94,43.91,61.94,50.41,9.66-31.11-11.93-58.91-12.16-59.19a2,2,0,0,1,2.69-2.9c16.95,11.52,38.07,30.9,42.43,57.83a55.62,55.62,0,0,1-1.83,26.7,60.09,60.09,0,0,1,7,10.89c4.59,9.31,5.46,18.07,2.51,25.31a2,2,0,0,1-1.7,1.24Z"/><path class="img-ios-1" d="M499.64,501c58.3,39.63,39.44,83.26,39.44,83.26s16.58,18.67,9.91,35.06c0,0-6.86-11.43-18.29-11.43-11.05,0-17.53,11.43-39.82,11.43-49.54,0-73-41.34-73-41.34,18.46,12.16,34.49,15.73,47,15.73,17.65,0,28.12-7.15,28.12-7.15-20.12-11.69-62.87-67.45-62.87-67.45,37.26,31.7,53.35,40,53.35,40-9.63-7.93-36.58-46.68-36.58-46.68,21.57,21.82,64.4,52.2,64.4,52.2C523.48,531.07,499.64,501,499.64,501m0-4a4,4,0,0,0-3.14,6.48,75.65,75.65,0,0,1,9.88,18.39c4.73,12.63,5.64,24.81,2.71,36.26-11.51-8.38-42.38-31.32-59.38-48.52a4,4,0,0,0-6.13,5.1c.61.88,8.82,12.66,17.74,24.45-7.6-5.75-17.1-13.3-28.63-23.11a4,4,0,0,0-5.77,5.48c1.61,2.1,36.5,47.46,58.21,64.44a55.21,55.21,0,0,1-20.28,3.72c-14.52,0-29.58-5.07-44.75-15.07a4,4,0,0,0-5.68,5.31,90.94,90.94,0,0,0,18.79,21.74,87.83,87.83,0,0,0,57.67,21.64c14.05,0,22.26-4.23,28.86-7.63,4.12-2.12,7.37-3.8,11-3.8,9,0,14.81,9.41,14.87,9.5a4,4,0,0,0,3.42,1.92h.32a4,4,0,0,0,3.39-2.47c6.28-15.44-4.83-31.88-9.09-37.35a58.73,58.73,0,0,0,1.57-26.62,71.86,71.86,0,0,0-11.44-28.34c-7.4-11.12-18.11-21.49-31.84-30.82a4,4,0,0,0-2.25-.69Z"/><path class="img-ios-4" d="M319.7,459.67a2,2,0,0,1-1.71-1c0-.05-2.68-4.31-6.73-4.31-1.62,0-3.11.77-5,1.73a26.32,26.32,0,0,1-13.38,3.54c-23.74,0-34.94-19.27-35.4-20.09a2,2,0,0,1,2.84-2.66c7,4.59,13.89,6.92,20.56,6.92a25.35,25.35,0,0,0,9.06-1.6c-10.05-8-25.94-28.63-26.68-29.59a2,2,0,0,1,2.88-2.74c4.88,4.15,9,7.42,12.31,10-3.85-5.13-7.25-10-7.51-10.39A2,2,0,0,1,274,407c7.75,7.84,21.73,18.26,27.18,22.23,3.2-13.19-5.73-24.73-5.83-24.85a2,2,0,0,1,2.69-2.9c14.48,9.84,18.89,20.33,20,27.39a27.3,27.3,0,0,1-.71,12.27c2,2.61,7.07,10.18,4.17,17.32a2,2,0,0,1-1.7,1.24Z"/><path class="img-ios-1" d="M296.94,403.1c26.89,18.28,18.19,38.41,18.19,38.41s7.65,8.61,4.57,16.17c0,0-3.16-5.27-8.44-5.27-5.1,0-8.09,5.27-18.37,5.27-22.85,0-33.66-19.07-33.66-19.07,8.51,5.61,15.91,7.25,21.66,7.25,8.14,0,13-3.3,13-3.3-9.28-5.39-29-31.11-29-31.11,17.19,14.62,24.61,18.46,24.61,18.46-4.44-3.66-16.87-21.53-16.87-21.53,9.95,10.07,29.71,24.08,29.71,24.08,5.64-15.49-5.36-29.35-5.36-29.35m0-4a4,4,0,0,0-3.14,6.48c.12.16,7.06,9.22,6,20.09-6.42-4.76-17.72-13.41-24.34-20.1a4,4,0,0,0-6.68,3.95l-1.31-1.11a4,4,0,0,0-5.77,5.48c1.69,2.21,14.31,18.53,24.15,27.48a24.53,24.53,0,0,1-4.94.5c-6.27,0-12.82-2.22-19.46-6.59a4,4,0,0,0-5.68,5.31c.49.86,12.25,21.1,37.14,21.1a28.42,28.42,0,0,0,14.3-3.76c1.87-1,3-1.51,4.07-1.51,2.85,0,5,3.32,5,3.36a4,4,0,0,0,3.42,1.93H320a4,4,0,0,0,3.39-2.49c3-7.39-1.36-15-3.82-18.46a29.64,29.64,0,0,0,.48-12.21c-1.21-7.45-5.81-18.48-20.88-28.73a4,4,0,0,0-2.25-.69Z"/><line class="img-ios-5" x1="252.53" y1="414.78" x2="221.51" y2="383.76"/><line class="img-ios-5" x1="481.82" y1="508.44" x2="450.8" y2="477.42"/><line class="img-ios-5" x1="267.73" y1="389.84" x2="218.62" y2="340.73"/><line class="img-ios-5" x1="383.29" y1="518.78" x2="334.18" y2="469.66"/><line class="img-ios-5" x1="439.25" y1="464.06" x2="390.14" y2="414.94"/><line class="img-ios-5" x1="414.31" y1="525.47" x2="365.2" y2="476.35"/><line class="img-ios-5" x1="394.85" y1="471.34" x2="345.73" y2="422.23"/><line class="img-ios-5" x1="245.23" y1="389.84" x2="224.9" y2="369.51"/><line class="img-ios-5" x1="279.29" y1="384.37" x2="267.73" y2="372.81"/><line class="img-ios-5" x1="248.88" y1="427.55" x2="237.32" y2="415.99"/><line class="img-ios-5" x1="445.33" y1="493.84" x2="433.77" y2="482.29"/><line class="img-ios-5" x1="210.56" y1="371.59" x2="190.23" y2="351.26"/><line class="img-ios-5" x1="410.05" y1="545.54" x2="389.72" y2="525.21"/><line class="img-ios-5" x1="428.3" y1="502.96" x2="407.97" y2="482.64"/><line class="img-ios-5" x1="483.02" y1="474.36" x2="462.69" y2="454.03"/></g></g></svg>
