<svg version="1.1"
   xmlns="http://www.w3.org/2000/svg" xmlns:xlink="http://www.w3.org/1999/xlink" xmlns:a="http://ns.adobe.com/AdobeSVGViewerExtensions/3.0/"
   x="0px" y="0px" width="196px" height="196px" viewBox="0 0 196 196" style="enable-background:new 0 0 196 196;"
   xml:space="preserve">
<defs>
</defs>
<g>
  <path class="ai-0 fixed-colors-svg" d="M0,0v196h196V0H0z M181,181H15V15h166V181z"/>
  <path class="ai-0 fixed-colors-svg" d="M126.6,78c0,0,0.2,0,0.9,0H139v59l-12,0.1V78H126.6L126.6,78z M125.8,64.7c0-4.6,3.2-7.3,7.3-7.3
    c4.4,0,7.3,2.9,7.3,7.3c0,4.7-3.1,7.3-7.4,7.3C128.8,72,125.8,69.4,125.8,64.7z M93.7,103c0,0-6.7-25-8.5-35h-0.1l-8.3,35H93.7
    L93.7,103z M73,117.1L67.2,137H55.7l23-80h14l23.4,80h-13.5l-5.8-20L73,117.1L73,117.1z"/>
</g>
</svg>
