<svg version="1.1"
   xmlns="http://www.w3.org/2000/svg" xmlns:xlink="http://www.w3.org/1999/xlink" xmlns:a="http://ns.adobe.com/AdobeSVGViewerExtensions/3.0/"
   x="0px" y="0px" width="221.2px" height="238.6px" viewBox="0 0 221.2 238.6" style="enable-background:new 0 0 221.2 238.6;"
   xml:space="preserve">
<defs>
</defs>
<g>
  <path class="angular-0 fixed-colors-svg" d="M110.3,0l-0.2,0.1L0,39.5l17.7,147.1l92.3,52l0,0l93.5-52.7l17.7-147.1L110.3,0z M193.7,178.9l-83.7,47.3l0,0L28,179.5
    L12.7,47.9l97.3-35.4v0l100.1,34.8L193.7,178.9z"/>
  <path class="angular-0 fixed-colors-svg" d="M110.1,20.3L41.1,174.7l26.1,0.8l14.2-33.5l28.7-0.2l31.1-0.2l14.7,33.4l24.3,0.3L110.1,20.3L110.1,20.3z M131.6,122.9
    h-21.6H90.5l19.5-47.2L131.6,122.9z"/>
</g>
</svg>
