<svg version="1.1" xmlns="http://www.w3.org/2000/svg" xmlns:xlink="http://www.w3.org/1999/xlink" xmlns:a="http://ns.adobe.com/AdobeSVGViewerExtensions/3.0/" x="0px" y="0px" width="53.2px" height="40px" viewBox="0 0 53.2 40" style="enable-background:new 0 0 53.2 40;" xml:space="preserve">
<g>
 <path id="path14_1_" class="aws-0 fixed-colors-svg" d="M30,13.8l-6-2.1v-9l6.1,1.8L30,13.8"/>
 <path id="path16_1_" class="aws-0 fixed-colors-svg" d="M31,4.6l6.4-1.8l-0.1,9L31,13.8V4.3"/>
 <path id="path18_1_" class="aws-0 fixed-colors-svg" d="M36.3,1.8L30.6,0l-5.7,1.8l5.7,1.5L36.3,1.8"/>
 <path id="path20_1_" class="aws-0 fixed-colors-svg" d="M45.3,13.8L39,11.7v-9l6.3,1.8L45.3,13.8"/>
 <path id="path22_1_" class="aws-0 fixed-colors-svg" d="M47,4.6l6.2-1.8l0,9L47,13.8V4.3"/>
 <path id="path24_1_" class="aws-0 fixed-colors-svg" d="M52,1.8L46.2,0l-5.7,1.8l5.7,1.5L52,1.8"/>
 <path id="path26_1_" class="aws-0 fixed-colors-svg" d="M6.3,17.7L0,15.9v9l6.2,2.1L6.3,17.7"/>
 <path id="path28_1_" class="aws-0 fixed-colors-svg" d="M8,17.7l6.2-1.8l0,9L8,26.9v-9.6"/>
 <path id="path30_1_" class="aws-0 fixed-colors-svg" d="M12.9,14.9l-5.8-1.8l-5.7,1.8l5.7,1.5L12.9,14.9"/>
 <path id="path32_1_" class="aws-0 fixed-colors-svg" d="M22.1,26.9L16,24.8v-9l6.1,1.8L22.1,26.9"/>
 <path id="path34_1_" class="aws-0 fixed-colors-svg" d="M24,17.7l6-1.8l0.1,9L24,26.9v-9.6"/>
 <path id="path36_1_" class="aws-0 fixed-colors-svg" d="M28.5,14.9l-5.8-1.8L17,14.9l5.7,1.5L28.5,14.9"/>
 <path id="path38_1_" class="aws-0 fixed-colors-svg" d="M14.2,40L8,37.9v-9l6.2,1.8L14.2,40"/>
 <path id="path40_1_" class="aws-0 fixed-colors-svg" d="M16,30.8l6.1-1.8l0,9L16,40v-9.7"/>
 <path id="path42_1_" class="aws-0 fixed-colors-svg" d="M20.7,28l-5.8-1.8L9.2,28l5.7,1.5L20.7,28"/>
</g>
</svg>
