<svg version="1.1"
   xmlns="http://www.w3.org/2000/svg" xmlns:xlink="http://www.w3.org/1999/xlink" xmlns:a="http://ns.adobe.com/AdobeSVGViewerExtensions/3.0/"
   x="0px" y="0px" width="40px" height="32.9px" viewBox="0 0 40 32.9" style="enable-background:new 0 0 40 32.9;"
   xml:space="preserve">
<defs>
</defs>
<g transform="matrix(.57840 0 0 .59172 163.19 69.508)">
  <path class="coffee-0 fixed-colors-svg" d="M-255.5-114.1c0,0-0.6-0.4-1.6-0.5c-1.6-0.3-4.2-0.2-5,1c-0.6,0.8,0.2,1.5,0.8,1.8c1.3,0.7,3.7,0.4,5,0.1
    c1.1-0.3,2.3-0.6,3.5-1.4c1.6-1.1,4.4-2.6,4.3-2.6c1.2-0.7,4.9-2,9.7-1.8c1.8,0.1,3.2,0.1,4.7,0.5c1.3,0.3,2.7,1,3.9,2.1
    c1,0.9,1.2,2.2,1.1,3c-0.2,1.4-1.3,2.3-3.1,3c-2.7,1-5.6,0.8-7.3,0.7c-4.9-0.4-6.1-3.7-2-4.2c2,4,12.6,0.9,7.4-1.6
    c-3-1.4-9.1,0.2-9.1,0.2c-2,0.7-4.5,1.9-7,3.3c0,0-1.4,0.9-4,1.4c-0.8,0.1-1.6,0.2-2.6,0.2c-0.7,0-1.6-0.1-2.3-0.2
    c-6.6-1.4-5.1-4.8-5.1-4.8s0-1.7,3.7-2.3c2.2-0.3,3.7-0.2,4.7,0.1c0.6,0.2,0.8,0.4,1,0.6C-254.3-114.8-255.5-114.1-255.5-114.1
    L-255.5-114.1z M-278-102.3c0.6,3.6,1.4,6.9,2.6,10.2c-1,0.6-2.5,1.7-4,3.6c-2.7,3.5-3.2,8.8-2.2,11c0.9,1.9,0.9,4.1,5.9,6.7
    c3.9,2,8.1,0,9.2-0.4c-1.1,0.1-6.1-1.3-8.6-4.7c-1.4-1.9-1.9-3.9-2.1-5.8c-0.3-3.1,0.7-5.6,2.7-7.6c0,0,0-0.4,0.1-0.4
    c0.7,1.8,1.6,3.5,2.6,5.1h0l7.3,10.8c1.5,2.8,1.9,4.5,2.2,5.9c0,0,1.3,3.1,7.1,4.8c2.5,0.8,5.9,1.5,10.5,1.3
    c14.7-0.5,15.9-6.2,16.5-6c0.5-2.4,1.2-4.4,2.2-6l6.5-9.1l1.3-2.5c2.2-4.2,3.9-9.9,4.8-14c0.3-1.5,0.6-3,0.3-2.7
    c-1.5,1.6-3.4,3.5-13.3,5c-4.5,0.7-10.6,1.7-19.2,1.5C-275.8-96.1-278-102.3-278-102.3L-278-102.3z M-266.6-71.3
    c0.4,0,0.5-0.1,0.3-0.1C-266.3-71.4-266.4-71.4-266.6-71.3z M-273.1-113.4c0,0-3.6,2.9,0.2,5.2c3.9,2.3,9.8,3.3,9.8,3.3
    c4.9,1.1,14.7,1.6,24.5,1.3c2.2-0.1,15.1-1.2,19.4-3.5c3.5-1.8,3.9-2.8,2.5-4.7c7.2,3.4,1.9,6.2-0.1,7.2c-1.2,0.6-3.3,1.2-6,1.9
    c-6.2,1.7-13.4,2.2-21,2.3c-8.2,0.1-16.7-0.4-26.3-2.7c-3.4-1.1-7.7-2.4-8.4-5.6C-278.4-110.9-275.7-111.7-273.1-113.4
    L-273.1-113.4z"/>
</g>
</svg>
