<svg version="1.1"
   xmlns="http://www.w3.org/2000/svg" xmlns:xlink="http://www.w3.org/1999/xlink" xmlns:a="http://ns.adobe.com/AdobeSVGViewerExtensions/3.0/"
   x="0px" y="0px" width="364.4px" height="73.7px" viewBox="0 0 364.4 73.7" style="enable-background:new 0 0 364.4 73.7;"
   xml:space="preserve">
<style type="text/css">
  .dawanda-logo-0{fill:#FFFFFF;}
</style>
<defs>
</defs>
<g>
  <path class="dawanda-logo-0" d="M0,71.3l16.2,0c4-0.1,7-0.2,9.6-0.4C32,70.3,38,66.7,42,61.4c4.4-6.2,6.7-13.6,6.6-22.6
    c-0.1-11.9-2.9-20.6-9.2-26.6c-4.1-3.9-9-6.2-14.5-6.6c-2.7-0.2-7.7-0.3-11.5-0.4L0,5.1L0,71.3L0,71.3z M19.7,15.6
    c5.2,0,8.4,1.8,10.6,5.6c2.8,4.4,3.4,10.9,3.4,18.7C33.7,54,29.8,60.4,21,60.5l-7.2,0l0-44.8L19.7,15.6L19.7,15.6z"/>
  <path class="dawanda-logo-0" d="M58.8,37.2c5.3-3.6,10.1-5.6,14.1-5.5c4.7,0,5.8,1.8,5.8,7.2l0,2c-1.2-0.1-1.9-0.1-2.9,0
    c-15.7,0-23.6,5.4-23.5,17c0,9.8,6,15.4,16.8,15.3c4-0.1,7.4-0.9,9.9-2.8c0.9-0.6,1.1-0.8,2.9-2.5c1.3,2.4,4,4.8,7,5.9l6.8-7.9
    c-3.8-2.7-4.5-4.8-4.5-10.1c0-0.4,0-0.5,0.1-0.9l0.2-16.6c0-5.2-0.2-6.8-0.8-8.9c-1.9-5.5-7.6-8.5-15.8-8.4
    c-4.5,0-8.6,0.8-13.4,2.9c-3.6,1.4-4.8,2-8,4L58.8,37.2L58.8,37.2z M78.4,60.3c-1.9,2-4.4,3.3-6.7,3.4c-3.3,0-5.6-2.5-5.7-6.3
    c0-5.8,3-7.6,12-7.5l0.5,0L78.4,60.3L78.4,60.3z"/>
  <path class="dawanda-logo-0" d="M111.5,71.7l15.3,0l5.5-24.6c1.9-8.9,3.3-17.2,3.3-17.2c0.1,0.5,0.9,8.2,3.2,17.3l6,24.5l14.8-0.1l16.2-60.5
    l-14.3,0.1L156,33.9c-1.2,5-3.4,18-3.7,20c0,0-1.6-10.2-2.9-15.9l-6.3-26.8l-14.8,0.1l-6,24.3c-2,8.4-3.1,16.7-3.4,19.1
    c0,0-0.8-8.6-3.5-19.8l-5.7-23.6l-14.3,0.1L111.5,71.7L111.5,71.7z"/>
  <path class="dawanda-logo-0" d="M183.4,37.1c5.3-3.6,10.1-5.6,14.1-5.5c4.7,0,5.8,1.8,5.8,7.2l0,2c-1.2-0.1-1.9-0.1-2.9,0
    c-15.7,0-23.6,5.4-23.5,17c0,9.8,6,15.4,16.8,15.3c4-0.1,7.4-0.9,9.9-2.8c0.9-0.6,1.1-0.8,2.9-2.5c1.3,2.4,4,4.8,7,5.9l6.8-7.9
    c-3.8-2.7-4.5-4.8-4.5-10.1c0-0.4,0-0.5,0.1-0.9l0.2-16.4c0-5.2-0.2-6.8-0.8-8.9c-1.9-5.5-7.6-8.5-15.8-8.4
    c-4.5,0-8.6,0.8-13.4,2.9c-3.6,1.4-4.8,2-8.1,4L183.4,37.1L183.4,37.1z M202.9,60.1c-1.9,2-4.4,3.3-6.7,3.4c-3.3,0-5.6-2.5-5.7-6.3
    c0-5.8,3-7.5,11.9-7.5l0.5,0L202.9,60.1L202.9,60.1z"/>
  <path class="dawanda-logo-0" d="M225.4,35.5l0,35.6l12.8,0l0.1-34.7c2.9-2.7,6.2-4.5,9-4.4c3.5,0.1,4.4,1.5,4.4,7.1L251.6,71l12.6,0L263.9,35
    c0-3.1-0.3-5.3-0.9-6.9c-1.5-4.3-6.3-7.1-11.8-7.1c-2.9,0-6.2,0.8-8.8,2.1c-2,1.1-2.6,1.6-5.7,3.6c0-2-0.6-4.2-1.9-6.1l-11.4,3.2
    C224.6,27.1,225.3,31.1,225.4,35.5L225.4,35.5z"/>
  <path class="dawanda-logo-0" d="M300.7,0l0.1,16.8c0,2.9,0.3,6.1,0.4,7.2c-2.4-1.9-5.2-2.7-8.7-2.7c-12.4,0-21,10.6-20.9,26
    c0,15.2,7.9,24.9,20.3,24.9c4.4-0.1,8.3-1.4,11.3-4.1c0.3,1.3,0.4,2.2,0.7,3l11.5,0.1c-0.9-1.8-1.7-5.9-1.9-18L313.3,2L300.7,0
    L300.7,0z M301.1,58.1c-1.2,1.5-4,3.2-6.3,3.2c-6.7,0.1-9-3.5-9-14c0-11,2.5-15.7,8.3-15.7c2.3,0,4.6,1,7,3.2L301.1,58.1
    L301.1,58.1z"/>
  <path class="dawanda-logo-0" d="M327.4,36.9c5.3-3.6,10.1-5.6,14.1-5.5c4.7,0,5.8,1.8,5.8,7.2l0,2c-1.2-0.1-1.9-0.1-2.9,0
    c-15.7,0-23.6,5.4-23.5,17c0,9.8,6,15.4,16.8,15.3c4-0.1,7.4-0.9,9.9-2.8c0.9-0.6,1.1-0.8,2.9-2.5c1.3,2.4,4,4.6,7,5.9l6.8-7.9
    c-3.8-2.7-4.5-4.8-4.5-10.1c0-0.4,0-0.5,0.1-0.9l0.2-16.4c0-5.2-0.2-6.8-0.8-8.9c-1.9-5.5-7.6-8.5-15.8-8.4
    c-4.5,0-8.6,0.8-13.4,2.9c-3.6,1.4-4.8,2-8,4L327.4,36.9L327.4,36.9z M347.2,59.9c-1.9,2-4.4,3.3-6.7,3.4c-3.3,0-5.6-2.5-5.7-6.3
    c0-5.8,3-7.5,12-7.5l0.5,0L347.2,59.9L347.2,59.9z"/>
</g>
</svg>
