<svg version="1.1"
   xmlns="http://www.w3.org/2000/svg" xmlns:xlink="http://www.w3.org/1999/xlink" xmlns:a="http://ns.adobe.com/AdobeSVGViewerExtensions/3.0/"
   x="0px" y="0px" width="296.8px" height="99.6px" viewBox="0 0 296.8 99.6" style="enable-background:new 0 0 296.8 99.6;"
   xml:space="preserve">
<style type="text/css">
  .degoo-logo-0{fill:#196BBC;}
  .degoo-logo-1{clip-path:url(#SVGID_2_);}
  .degoo-logo-2{clip-path:url(#SVGID_4_);}
  .degoo-logo-3{clip-path:url(#SVGID_6_);}
  .degoo-logo-4{clip-path:url(#SVGID_8_);}
  .degoo-logo-5{clip-path:url(#SVGID_10_);}
  .degoo-logo-6{clip-path:url(#SVGID_12_);}
  .degoo-logo-7{clip-path:url(#SVGID_14_);}
  .degoo-logo-8{clip-path:url(#SVGID_16_);}
  .degoo-logo-9{clip-path:url(#SVGID_18_);}
  .degoo-logo-10{clip-path:url(#SVGID_20_);}
</style>
<defs>
</defs>
<g>
  <g id="Warstwa_2_1_">
    <g id="Layer_1_1_">
      <path class="degoo-logo-0" d="M213.5,16.9c19.8,0,31.3,14.9,31.3,29.9s-11.5,29.9-31.3,29.9s-31.3-14.9-31.3-29.9S193.7,16.9,213.5,16.9z
         M213.7,65.2c10,0,18.3-8.2,18.3-18.4s-7.8-18.4-18.5-18.4c-10.7,0-18.3,8.2-18.3,18.4S202.7,65.2,213.7,65.2L213.7,65.2z"/>
      <g>
        <defs>
          <path id="SVGID_1_" d="M213.5,16.9c19.8,0,31.3,14.9,31.3,29.9s-11.5,29.9-31.3,29.9s-31.3-14.9-31.3-29.9
            S193.7,16.9,213.5,16.9z M213.7,65.2c10,0,18.3-8.2,18.3-18.4s-7.8-18.4-18.5-18.4c-10.7,0-18.3,8.2-18.3,18.4
            S202.7,65.2,213.7,65.2L213.7,65.2z"/>
        </defs>
        </clipPath>
        <g class="degoo-logo-1">
          <polygon class="degoo-logo-0" points="194.7,35 200.8,28 231.7,28 231.7,58.5 226.2,65 194.7,65          "/>
          <polygon class="degoo-logo-0" points="182.2,75.6 183.4,76.6 182.2,76.6           "/>
          <polygon class="degoo-logo-0" points="182.7,74.2 185.1,77 183.4,77 182.7,75.6          "/>
          <polygon class="degoo-logo-0" points="182.7,72.7 186.8,77 185.1,77 182.7,74.2          "/>
          <polygon class="degoo-logo-0" points="182.7,71.3 188.5,77 186.8,77 182.7,72.7          "/>
          <polygon class="degoo-logo-0" points="182.7,69.8 190.2,77 188.5,77 182.7,71.3          "/>
          <polygon class="degoo-logo-0" points="182.7,68.4 191.9,77 190.2,77 182.7,69.8          "/>
          <polygon class="degoo-logo-0" points="182.7,66.9 193.6,77 191.9,77 182.7,68.4          "/>
          <polygon class="degoo-logo-0" points="182.7,65.5 195.2,77 193.6,77 182.7,66.9          "/>
          <polygon class="degoo-logo-0" points="182.7,28.7 192.4,17 244.7,17 244.7,64.8 234.6,77 195.2,77 182.7,65.5           "/>
        </g>
      </g>
      <path class="degoo-logo-0" d="M213.5,77.9c-21.1,0-32.5-16-32.5-31.1s11.4-31.1,32.5-31.1s32.5,16,32.5,31.1S234.6,77.9,213.5,77.9z
         M213.5,18.1c-19.5,0-30,14.8-30,28.6s10.5,28.6,30,28.6s30-14.7,30-28.6S233,18.1,213.5,18.1z M213.5,66.4
        c-11.2,0-19.6-8.5-19.6-19.6s8.5-19.6,19.6-19.6s19.6,8.5,19.6,19.6S224.7,66.4,213.5,66.4L213.5,66.4z M213.5,29.6
        c-9.8,0-17.1,7.4-17.1,17.1s7.4,17.1,17.1,17.1s17.1-7.4,17.1-17.1S223.3,29.6,213.5,29.6L213.5,29.6z"/>
      <path class="degoo-logo-0" d="M49.3,68.2c-3.9,5.2-10.9,8.4-18.6,8.4c-18.6,0-29.4-15.2-29.4-29.9c0-14,11.6-30.1,30-30.1
        c8.4,0,14.9,3.3,18,8.3h0.4V1h12v50.4L49.6,67.9 M32.2,65.2C41.8,65.2,50,57,50,46.8s-8.2-18.4-17.8-18.4c-9.8,0-18,8.2-18,18.4
        S22.4,65.2,32.2,65.2z"/>
      <g>
        <defs>
          <path id="SVGID_3_" d="M49.3,68.2c-3.9,5.2-10.9,8.4-18.6,8.4c-18.6,0-29.4-15.2-29.4-29.9c0-14,11.6-30.1,30-30.1
            c8.4,0,14.9,3.3,18,8.3h0.4V1h12v50.4L49.6,67.9 M32.2,65.2C41.8,65.2,50,57,50,46.8s-8.2-18.4-17.8-18.4
            c-9.8,0-18,8.2-18,18.4S22.4,65.2,32.2,65.2z"/>
        </defs>
        <use xlink:href="#SVGID_3_"  style="overflow:visible;fill:#196BBC;"/>
        <clipPath id="SVGID_4_">
          <use xlink:href="#SVGID_3_"  style="overflow:visible;"/>
        </clipPath>
        <g class="degoo-logo-2">
          <polygon class="degoo-logo-0" points="13.7,35 19.8,28 35.5,28 49.7,40.8 49.7,58.5 44.3,65 13.7,65          "/>
          <polygon class="degoo-logo-0" points="36.1,28 49.7,40.3 49.7,40.8 35.5,28          "/>
          <polygon class="degoo-logo-0" points="36.6,28 49.7,39.8 49.7,40.3 36.1,28          "/>
          <polygon class="degoo-logo-0" points="37.2,28 49.7,39.3 49.7,39.8 36.6,28          "/>
          <polygon class="degoo-logo-0" points="37.8,28 49.7,38.8 49.7,39.3 37.2,28          "/>
          <polygon class="degoo-logo-0" points="38.3,28 49.7,38.3 49.7,38.8 37.8,28          "/>
          <polygon class="degoo-logo-0" points="38.9,28 49.7,37.9 49.7,38.3 38.3,28          "/>
          <polygon class="degoo-logo-0" points="39.5,28 49.7,37.4 49.7,37.9 38.9,28          "/>
          <polygon class="degoo-logo-0" points="40,28 49.7,36.9 49.7,37.4 39.5,28          "/>
          <polygon class="degoo-logo-0" points="40.6,28 49.7,36.4 49.7,36.9 40,28          "/>
          <polygon class="degoo-logo-0" points="41.2,28 49.7,35.9 49.7,36.4 40.6,28          "/>
          <polygon class="degoo-logo-0" points="41.7,28 49.7,35.4 49.7,35.9 41.2,28          "/>
          <polygon class="degoo-logo-0" points="42.3,28 49.7,35 49.7,35.4 41.7,28          "/>
          <polygon class="degoo-logo-0" points="42.9,28 49.7,34.5 49.7,35 42.3,28          "/>
          <polygon class="degoo-logo-0" points="43.4,28 49.7,34 49.7,34.5 42.9,28          "/>
          <polygon class="degoo-logo-0" points="44,28 49.7,33.5 49.7,34 43.4,28          "/>
          <polygon class="degoo-logo-0" points="44.6,28 49.7,33 49.7,33.5 44,28          "/>
          <polygon class="degoo-logo-0" points="45.1,28 49.7,32.5 49.7,33 44.6,28          "/>
          <polygon class="degoo-logo-0" points="45.7,28 49.7,32.1 49.7,32.5 45.1,28          "/>
          <polygon class="degoo-logo-0" points="46.3,28 49.7,31.6 49.7,32.1 45.7,28          "/>
          <polygon class="degoo-logo-0" points="46.8,28 49.7,31.1 49.7,31.6 46.3,28          "/>
          <polygon class="degoo-logo-0" points="47.4,28 49.7,30.6 49.7,31.1 46.8,28          "/>
          <polygon class="degoo-logo-0" points="47.9,28 49.7,30.1 49.7,30.6 47.4,28          "/>
          <polygon class="degoo-logo-0" points="48.5,28 49.7,29.6 49.7,30.1 47.9,28          "/>
          <polygon class="degoo-logo-0" points="49.1,28.4 50,29.2 50,29.6 48.5,28.4          "/>
          <polygon class="degoo-logo-0" points="49.6,28.4 50,28.7 50,29.2 49.1,28.4          "/>
          <polygon class="degoo-logo-0" points="50,28.7 49.6,28.4 50,28.4          "/>
          <polygon class="degoo-logo-0" points="1.7,28.9 16.2,11.7 61.7,50.8 61.7,55.9 44,77 1.7,77          "/>
          <polygon class="degoo-logo-0" points="16,11.7 16.2,11.4 61.7,50.3 61.7,50.8          "/>
          <polygon class="degoo-logo-0" points="16.2,11.4 16.5,11.1 61.7,49.8 61.7,50.3          "/>
          <polygon class="degoo-logo-0" points="16.5,11.1 16.7,10.8 61.7,49.3 61.7,49.8          "/>
          <polygon class="degoo-logo-0" points="16.7,10.8 16.9,10.5 61.7,48.9 61.7,49.3          "/>
          <polygon class="degoo-logo-0" points="16.9,10.5 17.2,10.3 61.7,48.4 61.7,48.9          "/>
          <polygon class="degoo-logo-0" points="17.2,10.3 17.4,10 61.7,47.9 61.7,48.4          "/>
          <polygon class="degoo-logo-0" points="17.4,10 17.7,9.7 61.7,47.4 61.7,47.9           "/>
          <polygon class="degoo-logo-0" points="17.7,9.7 17.9,9.4 61.7,46.9 61.7,47.4          "/>
          <polygon class="degoo-logo-0" points="17.9,9.4 18.1,9.2 61.7,46.4 61.7,46.9          "/>
          <polygon class="degoo-logo-0" points="18.1,9.2 18.4,8.9 61.7,45.9 61.7,46.4          "/>
          <polygon class="degoo-logo-0" points="18.4,8.9 18.6,8.6 61.7,45.5 61.7,45.9          "/>
          <polygon class="degoo-logo-0" points="18.6,8.6 18.8,8.3 61.7,45 61.7,45.5          "/>
          <polygon class="degoo-logo-0" points="18.8,8.3 19.1,8 61.7,44.5 61.7,45          "/>
          <polygon class="degoo-logo-0" points="19.1,8 19.3,7.8 61.7,44 61.7,44.5          "/>
          <polygon class="degoo-logo-0" points="19.3,7.8 19.6,7.5 61.7,43.5 61.7,44          "/>
          <polygon class="degoo-logo-0" points="19.6,7.5 19.8,7.2 61.7,43 61.7,43.5          "/>
          <polygon class="degoo-logo-0" points="19.8,7.2 20,6.9 61.7,42.6 61.7,43          "/>
          <polygon class="degoo-logo-0" points="20,6.9 20.3,6.6 61.7,42.1 61.7,42.6          "/>
          <polygon class="degoo-logo-0" points="20.3,6.6 20.5,6.4 61.7,41.6 61.7,42.1          "/>
          <polygon class="degoo-logo-0" points="20.5,6.4 20.8,6.1 61.7,41.1 61.7,41.6          "/>
          <polygon class="degoo-logo-0" points="20.8,6.1 21,5.8 61.7,40.6 61.7,41.1          "/>
          <polygon class="degoo-logo-0" points="21,5.8 21.2,5.5 61.7,40.1 61.7,40.6          "/>
          <polygon class="degoo-logo-0" points="21.2,5.5 21.5,5.2 61.7,39.7 61.7,40.1          "/>
          <polygon class="degoo-logo-0" points="21.5,5.2 21.7,5 61.7,39.2 61.7,39.7          "/>
          <polygon class="degoo-logo-0" points="21.7,5 22,4.7 61.7,38.7 61.7,39.2          "/>
          <polygon class="degoo-logo-0" points="22,4.7 22.2,4.4 61.7,38.2 61.7,38.7          "/>
          <polygon class="degoo-logo-0" points="22.2,4.4 22.4,4.1 61.7,37.7 61.7,38.2          "/>
          <polygon class="degoo-logo-0" points="22.4,4.1 22.7,3.8 61.7,37.2 61.7,37.7          "/>
          <polygon class="degoo-logo-0" points="22.7,3.8 22.9,3.6 61.7,36.8 61.7,37.2          "/>
          <polygon class="degoo-logo-0" points="22.9,3.6 23.1,3.3 61.7,36.3 61.7,36.8          "/>
          <polygon class="degoo-logo-0" points="23.1,3.3 23.4,3 61.7,35.8 61.7,36.3          "/>
          <polygon class="degoo-logo-0" points="23.4,3 23.6,2.7 61.7,35.3 61.7,35.8          "/>
          <polygon class="degoo-logo-0" points="23.6,2.7 23.9,2.4 61.7,34.8 61.7,35.3          "/>
          <polygon class="degoo-logo-0" points="23.9,2.4 24.1,2.2 61.7,34.3 61.7,34.8          "/>
          <polygon class="degoo-logo-0" points="24.1,2.2 24.3,1.9 61.7,33.9 61.7,34.3          "/>
          <polygon class="degoo-logo-0" points="24.3,1.9 24.6,1.6 61.7,33.4 61.7,33.9          "/>
          <polygon class="degoo-logo-0" points="24.6,1.3 24.7,1 25.1,1 61.7,32.9 61.7,33.4           "/>
          <polygon class="degoo-logo-0" points="25.6,1 61.7,32.4 61.7,32.9 25.1,1          "/>
          <polygon class="degoo-logo-0" points="26.2,1 61.7,31.9 61.7,32.4 25.6,1          "/>
          <polygon class="degoo-logo-0" points="26.7,1 61.7,31.4 61.7,31.9 26.2,1          "/>
          <polygon class="degoo-logo-0" points="27.3,1 61.7,31 61.7,31.4 26.7,1          "/>
          <polygon class="degoo-logo-0" points="27.9,1 61.7,30.5 61.7,31 27.3,1          "/>
          <polygon class="degoo-logo-0" points="28.4,1 61.7,30 61.7,30.5 27.9,1          "/>
          <polygon class="degoo-logo-0" points="29,1 61.7,29.5 61.7,30 28.4,1          "/>
          <polygon class="degoo-logo-0" points="29.6,1 61.7,29 61.7,29.5 29,1          "/>
          <polygon class="degoo-logo-0" points="30.1,1 61.7,28.5 61.7,29 29.6,1          "/>
          <polygon class="degoo-logo-0" points="30.7,1 61.7,28.1 61.7,28.5 30.1,1          "/>
          <polygon class="degoo-logo-0" points="31.3,1 61.7,27.6 61.7,28.1 30.7,1          "/>
          <polygon class="degoo-logo-0" points="31.8,1 61.7,27.1 61.7,27.6 31.3,1          "/>
          <polygon class="degoo-logo-0" points="32.4,1 61.7,26.6 61.7,27.1 31.8,1          "/>
          <polygon class="degoo-logo-0" points="33,1 61.7,26.1 61.7,26.6 32.4,1          "/>
          <polygon class="degoo-logo-0" points="33.5,1 61.7,25.6 61.7,26.1 33,1          "/>
          <polygon class="degoo-logo-0" points="34.1,1 61.7,25.2 61.7,25.6 33.5,1          "/>
          <polygon class="degoo-logo-0" points="34.7,1 61.7,24.7 61.7,25.2 34.1,1          "/>
          <polygon class="degoo-logo-0" points="35.2,1 61.7,24.2 61.7,24.7 34.7,1          "/>
          <polygon class="degoo-logo-0" points="35.8,1 61.7,23.7 61.7,24.2 35.2,1          "/>
          <polygon class="degoo-logo-0" points="36.4,1 61.7,23.2 61.7,23.7 35.8,1          "/>
          <polygon class="degoo-logo-0" points="36.9,1 61.7,22.7 61.7,23.2 36.4,1          "/>
          <polygon class="degoo-logo-0" points="37.5,1 61.7,22.3 61.7,22.7 36.9,1          "/>
          <polygon class="degoo-logo-0" points="38.1,1 61.7,21.8 61.7,22.3 37.5,1          "/>
          <polygon class="degoo-logo-0" points="38.6,1 61.7,21.3 61.7,21.8 38.1,1          "/>
          <polygon class="degoo-logo-0" points="39.2,1 61.7,20.8 61.7,21.3 38.6,1          "/>
          <polygon class="degoo-logo-0" points="39.8,1 61.7,20.3 61.7,20.8 39.2,1          "/>
          <polygon class="degoo-logo-0" points="40.3,1 61.7,19.8 61.7,20.3 39.8,1          "/>
          <polygon class="degoo-logo-0" points="40.9,1 61.7,19.3 61.7,19.8 40.3,1          "/>
          <polygon class="degoo-logo-0" points="41.4,1 61.7,18.9 61.7,19.3 40.9,1          "/>
          <polygon class="degoo-logo-0" points="42,1 61.7,18.4 61.7,18.9 41.4,1          "/>
          <polygon class="degoo-logo-0" points="42.6,1 61.7,17.9 61.7,18.4 42,1          "/>
          <polygon class="degoo-logo-0" points="43.1,1 61.7,17.4 61.7,17.9 42.6,1          "/>
          <polygon class="degoo-logo-0" points="43.7,1 61.7,16.9 61.7,17.4 43.1,1          "/>
          <polygon class="degoo-logo-0" points="44.3,1 61.7,16.4 61.7,16.9 43.7,1          "/>
          <polygon class="degoo-logo-0" points="44.8,1 61.7,16 61.7,16.4 44.3,1          "/>
          <polygon class="degoo-logo-0" points="45.4,1 61.7,15.5 61.7,16 44.8,1          "/>
          <polygon class="degoo-logo-0" points="46,1 61.7,15 61.7,15.5 45.4,1          "/>
          <polygon class="degoo-logo-0" points="46.5,1 61.7,14.5 61.7,15 46,1          "/>
          <polygon class="degoo-logo-0" points="47.1,1 61.7,14 61.7,14.5 46.5,1          "/>
          <polygon class="degoo-logo-0" points="47.7,1 61.7,13.5 61.7,14 47.1,1          "/>
          <polygon class="degoo-logo-0" points="48.2,1 61.7,13.1 61.7,13.5 47.7,1          "/>
          <polygon class="degoo-logo-0" points="48.8,1 61.7,12.6 61.7,13.1 48.2,1          "/>
          <polygon class="degoo-logo-0" points="49.4,1 61.7,12.1 61.7,12.6 48.8,1          "/>
          <polygon class="degoo-logo-0" points="49.9,1 61.7,11.6 61.7,12.1 49.4,1          "/>
          <polygon class="degoo-logo-0" points="50.5,1 61.7,11.1 61.7,11.6 49.9,1          "/>
          <polygon class="degoo-logo-0" points="51.1,1 61.7,10.6 61.7,11.1 50.5,1          "/>
          <polygon class="degoo-logo-0" points="51.6,1 61.7,10.2 61.7,10.6 51.1,1          "/>
          <polygon class="degoo-logo-0" points="52.2,1 61.7,9.7 61.7,10.2 51.6,1           "/>
          <polygon class="degoo-logo-0" points="52.8,1 61.7,9.2 61.7,9.7 52.2,1          "/>
          <polygon class="degoo-logo-0" points="53.3,1 61.7,8.7 61.7,9.2 52.8,1          "/>
          <polygon class="degoo-logo-0" points="53.9,1 61.7,8.2 61.7,8.7 53.3,1          "/>
          <polygon class="degoo-logo-0" points="54.5,1 61.7,7.7 61.7,8.2 53.9,1          "/>
          <polygon class="degoo-logo-0" points="55,1 61.7,7.3 61.7,7.7 54.5,1          "/>
          <polygon class="degoo-logo-0" points="55.6,1 61.7,6.8 61.7,7.3 55,1          "/>
          <polygon class="degoo-logo-0" points="56.1,1 61.7,6.3 61.7,6.8 55.6,1          "/>
          <polygon class="degoo-logo-0" points="56.7,1 61.7,5.8 61.7,6.3 56.1,1          "/>
          <polygon class="degoo-logo-0" points="58.4,1 61.7,4.4 61.7,5.8 56.7,1          "/>
          <polygon class="degoo-logo-0" points="60.1,1 61.7,2.9 61.7,4.4 58.4,1          "/>
          <polygon class="degoo-logo-0" points="61.7,2.9 60.1,1.5 61.7,1.5           "/>
        </g>
      </g>
      <path class="degoo-logo-0" d="M48.7,67.1l12-16.1V3h-10v24h-2.1l-0.4-0.8c-3.2-4.9-9.6-8-17-8C14.1,18.2,2.5,33,2.5,46.8
        c0,14.1,10.5,28.6,28.2,28.6c7.2,0,14-3,17.7-7.9 M50.3,69c-4.1,5.5-11.7,8.9-19.6,8.9C11.5,77.9,0,62.1,0,46.8
        c0-15,12.8-31.1,31.5-31.1c6.9,0,13.2,2.4,17.2,6.4V0h14v51.8L50.5,68.6 M32.2,66.4c-10.6,0-19.3-8.8-19.3-19.6
        s8.7-19.6,19.3-19.6c10.5,0,19.1,8.8,19.1,19.6S42.7,66.4,32.2,66.4z M32.2,29.6c-9.3,0-16.8,7.7-16.8,17.1S23,63.9,32.2,63.9
        c9,0,16.6-7.8,16.6-17.1S41.2,29.6,32.2,29.6z"/>
      <path class="degoo-logo-0" d="M120,62.8c-6.8,8.6-16.2,13.7-26.4,13.8c-19.8,0-31.3-14.9-31.3-29.9s11.3-29.9,31.1-29.9
        c11.8,0,29.2,9.7,29.2,31.9V51H76c0.7,9,8.8,14.9,17.3,14.9c6.5,0,12.2-3.2,16.4-8.8L120,62.8z M108.7,41
        c-2.6-9-9-13.2-16.8-13.2S77.9,32,76,41H108.7z"/>
      <g>
        <defs>
          <path id="SVGID_5_" d="M120,62.8c-6.8,8.6-16.2,13.7-26.4,13.8c-19.8,0-31.3-14.9-31.3-29.9s11.3-29.9,31.1-29.9
            c11.8,0,29.2,9.7,29.2,31.9V51H76c0.7,9,8.8,14.9,17.3,14.9c6.5,0,12.2-3.2,16.4-8.8L120,62.8z M108.7,41
            c-2.6-9-9-13.2-16.8-13.2S77.9,32,76,41H108.7z"/>
        </defs>
        <use xlink:href="#SVGID_5_"  style="overflow:visible;fill:#196BBC;"/>
        <clipPath id="SVGID_6_">
          <use xlink:href="#SVGID_5_"  style="overflow:visible;"/>
        </clipPath>
        <g class="degoo-logo-3">
          <polygon class="degoo-logo-0" points="76,40.7 76.2,40.9 76,40.9          "/>
          <polygon class="degoo-logo-0" points="76,40.2 76.7,40.9 76.2,40.9 76,40.7          "/>
          <polygon class="degoo-logo-0" points="76,39.7 77.3,40.9 76.7,40.9 76,40.2          "/>
          <polygon class="degoo-logo-0" points="76,39.3 77.9,40.9 77.3,40.9 76,39.7          "/>
          <polygon class="degoo-logo-0" points="75.7,38.8 78.4,41 77.9,41 75.7,39.3          "/>
          <polygon class="degoo-logo-0" points="75.7,38.3 79,41 78.4,41 75.7,38.8          "/>
          <polygon class="degoo-logo-0" points="75.7,37.8 79.6,41 79,41 75.7,38.3          "/>
          <polygon class="degoo-logo-0" points="75.7,37.3 80.1,41 79.6,41 75.7,37.8          "/>
          <polygon class="degoo-logo-0" points="75.7,36.8 80.7,41 80.1,41 75.7,37.3          "/>
          <polygon class="degoo-logo-0" points="75.7,36.4 81.3,41 80.7,41 75.7,36.8          "/>
          <polygon class="degoo-logo-0" points="75.7,35.9 81.8,41 81.3,41 75.7,36.4          "/>
          <polygon class="degoo-logo-0" points="75.7,35.4 82.4,41 81.8,41 75.7,35.9          "/>
          <polygon class="degoo-logo-0" points="75.7,34.9 83,41 82.4,41 75.7,35.4          "/>
          <polygon class="degoo-logo-0" points="75.7,34.4 83.5,41 83,41 75.7,34.9          "/>
          <polygon class="degoo-logo-0" points="75.7,33.9 84.1,41 83.5,41 75.7,34.4          "/>
          <polygon class="degoo-logo-0" points="75.7,33.4 84.7,41 84.1,41 75.7,33.9          "/>
          <polygon class="degoo-logo-0" points="75.7,33.2 76,33.1 85.2,41 84.7,41 75.7,33.4          "/>
          <polygon class="degoo-logo-0" points="76.1,33.1 76.3,32.9 85.8,41 85.2,41          "/>
          <polygon class="degoo-logo-0" points="76.3,32.8 76.6,32.6 86.4,41 85.8,41          "/>
          <polygon class="degoo-logo-0" points="76.6,32.6 76.8,32.3 86.9,41 86.4,41          "/>
          <polygon class="degoo-logo-0" points="76.8,32.3 77,32 87.5,41 86.9,41          "/>
          <polygon class="degoo-logo-0" points="77,32 77.3,31.8 88.1,41 87.5,41          "/>
          <polygon class="degoo-logo-0" points="77.3,31.7 77.5,31.5 88.6,41 88.1,41          "/>
          <polygon class="degoo-logo-0" points="77.5,31.5 77.8,31.2 89.2,41 88.6,41          "/>
          <polygon class="degoo-logo-0" points="77.8,31.2 78,30.9 89.7,41 89.2,41          "/>
          <polygon class="degoo-logo-0" points="78,30.9 78.2,30.6 90.3,41 89.7,41          "/>
          <polygon class="degoo-logo-0" points="78.2,30.6 78.5,30.4 90.9,41 90.3,41          "/>
          <polygon class="degoo-logo-0" points="78.5,30.3 78.7,30.1 91.4,41 90.9,41          "/>
          <polygon class="degoo-logo-0" points="78.7,30.1 79,29.8 92,41 91.4,41          "/>
          <polygon class="degoo-logo-0" points="79,29.8 79.2,29.5 92.6,41 92,41          "/>
          <polygon class="degoo-logo-0" points="79.2,29.5 79.4,29.2 93.1,41 92.6,41          "/>
          <polygon class="degoo-logo-0" points="79.4,29.2 79.7,29 93.7,41 93.1,41          "/>
          <polygon class="degoo-logo-0" points="79.7,28.9 79.9,28.7 94.3,41 93.7,41          "/>
          <polygon class="degoo-logo-0" points="79.9,28.7 80.1,28.4 94.8,41 94.3,41          "/>
          <polygon class="degoo-logo-0" points="80.1,28.4 80.4,28.1 95.4,41 94.8,41          "/>
          <polygon class="degoo-logo-0" points="80.4,28.1 80.6,27.8 96,41 95.4,41          "/>
          <polygon class="degoo-logo-0" points="80.6,28 80.7,28 81.1,28 96.5,41 96,41          "/>
          <polygon class="degoo-logo-0" points="81.6,28 97.1,41 96.5,41 81.1,28          "/>
          <polygon class="degoo-logo-0" points="82.2,28 97.7,41 97.1,41 81.6,28          "/>
          <polygon class="degoo-logo-0" points="82.8,28 98.2,41 97.7,41 82.2,28          "/>
          <polygon class="degoo-logo-0" points="83.3,28 98.8,41 98.2,41 82.8,28          "/>
          <polygon class="degoo-logo-0" points="83.9,28 99.4,41 98.8,41 83.3,28          "/>
          <polygon class="degoo-logo-0" points="84.4,28 99.9,41 99.4,41 83.9,28          "/>
          <polygon class="degoo-logo-0" points="85,28 100.5,41 99.9,41 84.4,28           "/>
          <polygon class="degoo-logo-0" points="85.6,28 101.1,41 100.5,41 85,28          "/>
          <polygon class="degoo-logo-0" points="86.1,28 101.6,41 101.1,41 85.6,28          "/>
          <polygon class="degoo-logo-0" points="86.7,28 102.2,41 101.6,41 86.1,28          "/>
          <polygon class="degoo-logo-0" points="87.3,28 102.8,41 102.2,41 86.7,28          "/>
          <polygon class="degoo-logo-0" points="89,28 104.4,41 102.8,41 87.3,28          "/>
          <polygon class="degoo-logo-0" points="90.7,28 106.1,41 104.4,41 89,28          "/>
          <polygon class="degoo-logo-0" points="92.3,28 107.8,41 106.1,41 90.7,28          "/>
          <polygon class="degoo-logo-0" points="94,28 108.7,40.3 108.7,41 107.8,41 92.3,28           "/>
          <polygon class="degoo-logo-0" points="95.7,28 108.7,38.8 108.7,40.3 94,28          "/>
          <polygon class="degoo-logo-0" points="97.4,28 108.7,37.4 108.7,38.8 95.7,28          "/>
          <polygon class="degoo-logo-0" points="99.1,28 108.7,35.9 108.7,37.4 97.4,28          "/>
          <polygon class="degoo-logo-0" points="100.8,28 108.7,34.5 108.7,35.9 99.1,28           "/>
          <polygon class="degoo-logo-0" points="102.5,28 108.7,33 108.7,34.5 100.8,28          "/>
          <polygon class="degoo-logo-0" points="104.2,28 108.7,31.6 108.7,33 102.5,28          "/>
          <polygon class="degoo-logo-0" points="105.9,28 108.7,30.1 108.7,31.6 104.2,28          "/>
          <polygon class="degoo-logo-0" points="107.6,28 108.7,28.7 108.7,30.1 105.9,28          "/>
          <polygon class="degoo-logo-0" points="108.8,28.7 107.6,27.7 108.8,27.7           "/>
          <polygon class="degoo-logo-0" points="62.7,51.3 92,77 62.7,77          "/>
          <polygon class="degoo-logo-0" points="62.7,50.8 92.5,77 92,77 62.7,51.3          "/>
          <polygon class="degoo-logo-0" points="62.7,50.4 93.1,77 92.5,77 62.7,50.8          "/>
          <polygon class="degoo-logo-0" points="62.7,49.9 93.7,77 93.1,77 62.7,50.4          "/>
          <polygon class="degoo-logo-0" points="62.7,49.4 94.2,77 93.7,77 62.7,49.9          "/>
          <polygon class="degoo-logo-0" points="62.7,48.9 94.8,77 94.2,77 62.7,49.4          "/>
          <polygon class="degoo-logo-0" points="62.7,48.4 95.4,77 94.8,77 62.7,48.9          "/>
          <polygon class="degoo-logo-0" points="62.7,47.9 95.9,77 95.4,77 62.7,48.4          "/>
          <polygon class="degoo-logo-0" points="62.7,47.5 96.5,77 95.9,77 62.7,47.9          "/>
          <polygon class="degoo-logo-0" points="62.7,47 97,77 96.5,77 62.7,47.5          "/>
          <polygon class="degoo-logo-0" points="62.7,46.5 97.6,77 97,77 62.7,47          "/>
          <polygon class="degoo-logo-0" points="62.7,46 98.2,77 97.6,77 62.7,46.5          "/>
          <polygon class="degoo-logo-0" points="62.7,45.5 98.7,77 98.2,77 62.7,46          "/>
          <polygon class="degoo-logo-0" points="62.7,45 99.3,77 98.7,77 62.7,45.5          "/>
          <polygon class="degoo-logo-0" points="62.7,44.6 99.9,77 99.3,77 62.7,45          "/>
          <polygon class="degoo-logo-0" points="62.7,44.1 100.4,77 99.9,77 62.7,44.6           "/>
          <polygon class="degoo-logo-0" points="62.7,43.6 101,77 100.4,77 62.7,44.1          "/>
          <polygon class="degoo-logo-0" points="62.7,43.1 101.6,77 101,77 62.7,43.6          "/>
          <polygon class="degoo-logo-0" points="62.7,42.6 102.1,77 101.6,77 62.7,43.1          "/>
          <polygon class="degoo-logo-0" points="62.7,42.1 102.7,77 102.1,77 62.7,42.6          "/>
          <polygon class="degoo-logo-0" points="62.7,41.7 103.3,77 102.7,77 62.7,42.1          "/>
          <polygon class="degoo-logo-0" points="62.7,41.2 103.8,77 103.3,77 62.7,41.7          "/>
          <polygon class="degoo-logo-0" points="62.7,40.7 104.4,77 103.8,77 62.7,41.2          "/>
          <polygon class="degoo-logo-0" points="62.7,40.2 105,77 104.4,77 62.7,40.7          "/>
          <polygon class="degoo-logo-0" points="62.7,39.7 105.5,77 105,77 62.7,40.2          "/>
          <polygon class="degoo-logo-0" points="62.7,39.2 106.1,77 105.5,77 62.7,39.7          "/>
          <polygon class="degoo-logo-0" points="62.7,38.7 106.7,77 106.1,77 62.7,39.2          "/>
          <polygon class="degoo-logo-0" points="62.7,38.3 107.2,77 106.7,77 62.7,38.7          "/>
          <polygon class="degoo-logo-0" points="62.7,37.8 107.8,77 107.2,77 62.7,38.3          "/>
          <polygon class="degoo-logo-0" points="62.7,37.3 108.4,77 107.8,77 62.7,37.8          "/>
          <polygon class="degoo-logo-0" points="62.7,36.8 108.9,77 108.4,77 62.7,37.3          "/>
          <polygon class="degoo-logo-0" points="62.7,36.3 109.5,77 108.9,77 62.7,36.8          "/>
          <polygon class="degoo-logo-0" points="62.7,35.8 110.2,76.8 110,77 109.5,77 62.7,36.3           "/>
          <polygon class="degoo-logo-0" points="62.7,35.4 110.5,76.4 110.3,76.6 62.7,35.8          "/>
          <polygon class="degoo-logo-0" points="62.7,34.9 110.7,76.1 110.5,76.4 62.7,35.4          "/>
          <polygon class="degoo-logo-0" points="62.7,34.4 110.9,75.8 110.8,76.1 62.7,34.9          "/>
          <polygon class="degoo-logo-0" points="62.7,33.9 111.2,75.5 111,75.8 62.7,34.4          "/>
          <polygon class="degoo-logo-0" points="62.7,33.4 111.4,75.2 111.3,75.5 62.7,33.9          "/>
          <polygon class="degoo-logo-0" points="62.7,32.9 111.7,75 111.5,75.2 62.7,33.4          "/>
          <polygon class="degoo-logo-0" points="62.7,32.5 111.9,74.7 111.7,75 62.7,32.9          "/>
          <polygon class="degoo-logo-0" points="62.7,32 112.1,74.4 112,74.7 62.7,32.5          "/>
          <polygon class="degoo-logo-0" points="62.7,31.5 112.4,74.1 112.2,74.4 62.7,32          "/>
          <polygon class="degoo-logo-0" points="62.7,31 112.6,73.8 112.5,74.1 62.7,31.5          "/>
          <polygon class="degoo-logo-0" points="62.7,30.5 112.9,73.6 112.7,73.8 62.7,31          "/>
          <polygon class="degoo-logo-0" points="62.7,30 113.1,73.3 112.9,73.6 62.7,30.5          "/>
          <polygon class="degoo-logo-0" points="62.7,29.6 113.3,73 113.2,73.3 62.7,30          "/>
          <polygon class="degoo-logo-0" points="62.7,29.1 113.6,72.7 113.4,73 62.7,29.6          "/>
          <polygon class="degoo-logo-0" points="62.7,28.7 62.6,28.7 113.7,72.4 113.6,72.7 62.7,29.1          "/>
          <polygon class="degoo-logo-0" points="62.4,28.7 62.7,28.4 113.9,72.2 113.6,72.4          "/>
          <polygon class="degoo-logo-0" points="62.7,28.4 62.9,28.1 114.1,71.9 113.9,72.2          "/>
          <polygon class="degoo-logo-0" points="62.9,28.1 63.2,27.8 114.3,71.6 114.1,71.9          "/>
          <polygon class="degoo-logo-0" points="63.2,27.8 63.4,27.5 114.6,71.3 114.3,71.6          "/>
          <polygon class="degoo-logo-0" points="63.4,27.5 63.6,27.3 114.8,71 114.6,71.3          "/>
          <polygon class="degoo-logo-0" points="63.6,27.3 63.9,27 115.1,70.8 114.8,71          "/>
          <polygon class="degoo-logo-0" points="63.9,27 64.1,26.7 115.3,70.5 115.1,70.8          "/>
          <polygon class="degoo-logo-0" points="64.1,26.7 64.4,26.4 115.5,70.2 115.3,70.5          "/>
          <polygon class="degoo-logo-0" points="64.4,26.4 64.6,26.1 115.8,69.9 115.5,70.2          "/>
          <polygon class="degoo-logo-0" points="64.6,26.1 64.8,25.9 116,69.6 115.8,69.9          "/>
          <polygon class="degoo-logo-0" points="64.8,25.9 65.1,25.6 116.3,69.4 116,69.6          "/>
          <polygon class="degoo-logo-0" points="65.1,25.6 65.3,25.3 116.5,69.1 116.3,69.4          "/>
          <polygon class="degoo-logo-0" points="65.3,25.3 65.5,25 116.7,68.8 116.5,69.1          "/>
          <polygon class="degoo-logo-0" points="65.5,25 65.8,24.7 117,68.5 116.7,68.8          "/>
          <polygon class="degoo-logo-0" points="65.8,24.7 66,24.5 117.2,68.3 117,68.5          "/>
          <polygon class="degoo-logo-0" points="66,24.5 66.3,24.2 117.4,68 117.2,68.3          "/>
          <polygon class="degoo-logo-0" points="66.3,24.2 66.5,23.9 117.7,67.7 117.4,68          "/>
          <polygon class="degoo-logo-0" points="66.5,23.9 66.7,23.6 117.9,67.4 117.7,67.7          "/>
          <polygon class="degoo-logo-0" points="66.7,23.6 67,23.4 118.2,67.1 117.9,67.4          "/>
          <polygon class="degoo-logo-0" points="67,23.4 67.2,23.1 118.4,66.9 118.2,67.1          "/>
          <polygon class="degoo-logo-0" points="67.2,23.1 67.5,22.8 118.6,66.6 118.4,66.9          "/>
          <polygon class="degoo-logo-0" points="67.5,22.8 67.7,22.5 118.9,66.3 118.6,66.6          "/>
          <polygon class="degoo-logo-0" points="67.7,22.5 67.9,22.2 119.1,66 118.9,66.3          "/>
          <polygon class="degoo-logo-0" points="67.9,22.2 68.2,22 119.4,65.7 119.1,66          "/>
          <polygon class="degoo-logo-0" points="68.2,22 68.4,21.7 119.6,65.5 119.4,65.7          "/>
          <polygon class="degoo-logo-0" points="68.4,21.7 68.7,21.4 119.8,65.2 119.6,65.5          "/>
          <polygon class="degoo-logo-0" points="68.7,21.4 68.9,21.1 120.1,64.9 119.8,65.2          "/>
          <polygon class="degoo-logo-0" points="68.9,21.1 69.1,20.8 120.3,64.6 120.1,64.9          "/>
          <polygon class="degoo-logo-0" points="69.1,20.8 69.4,20.6 120.6,64.3 120.3,64.6          "/>
          <polygon class="degoo-logo-0" points="69.4,20.6 69.6,20.3 120.8,64.1 120.6,64.3          "/>
          <polygon class="degoo-logo-0" points="69.6,20.3 69.8,20 121,63.8 120.8,64.1          "/>
          <polygon class="degoo-logo-0" points="69.8,20 70.1,19.7 121.3,63.5 121,63.8          "/>
          <polygon class="degoo-logo-0" points="70.1,19.7 70.3,19.4 121.5,63.2 121.3,63.5          "/>
          <polygon class="degoo-logo-0" points="70.3,19.4 70.6,19.2 121.7,62.9 121.5,63.2          "/>
          <polygon class="degoo-logo-0" points="70.6,19.2 70.8,18.9 122,62.7 121.7,62.9          "/>
          <polygon class="degoo-logo-0" points="70.8,18.9 71,18.6 122.2,62.4 122,62.7          "/>
          <polygon class="degoo-logo-0" points="71,18.6 71.3,18.3 122.5,62.1 122.2,62.4          "/>
          <polygon class="degoo-logo-0" points="71.3,18.3 71.5,18 122.7,61.8 122.5,62.1          "/>
          <polygon class="degoo-logo-0" points="71.5,18 71.8,17.8 122.9,61.5 122.7,61.8          "/>
          <polygon class="degoo-logo-0" points="71.8,17.8 71.8,17.5 122.7,61.2 122.7,61.4 122.8,61.5           "/>
          <polygon class="degoo-logo-0" points="71.8,17.5 72,17.2 122.7,60.7 122.7,61.2          "/>
          <polygon class="degoo-logo-0" points="72.1,17.2 72.2,16.9 122.7,60.2 122.7,60.7          "/>
          <polygon class="degoo-logo-0" points="72.3,17 72.5,17 73,17 122.7,59.7 122.7,60.2          "/>
          <polygon class="degoo-logo-0" points="73.5,17 122.7,59.2 122.7,59.7 73,17          "/>
          <polygon class="degoo-logo-0" points="74.1,17 122.7,58.8 122.7,59.2 73.5,17          "/>
          <polygon class="degoo-logo-0" points="74.7,17 122.7,58.3 122.7,58.8 74.1,17          "/>
          <polygon class="degoo-logo-0" points="76.4,17 122.7,56.8 122.7,58.3 74.7,17          "/>
          <polygon class="degoo-logo-0" points="78,17 122.7,55.4 122.7,56.8 76.4,17          "/>
          <polygon class="degoo-logo-0" points="79.7,17 122.7,53.9 122.7,55.4 78,17          "/>
          <polygon class="degoo-logo-0" points="81.4,17 122.7,52.5 122.7,53.9 79.7,17          "/>
          <polygon class="degoo-logo-0" points="83.1,17 122.7,51 122.7,52.5 81.4,17          "/>
          <polygon class="degoo-logo-0" points="84.8,17 122.7,49.6 122.7,51 83.1,17          "/>
          <polygon class="degoo-logo-0" points="86.5,17 122.7,48.2 122.7,49.6 84.8,17          "/>
          <polygon class="degoo-logo-0" points="88.2,17 122.7,46.7 122.7,48.2 86.5,17          "/>
          <polygon class="degoo-logo-0" points="89.9,17 122.7,45.3 122.7,46.7 88.2,17          "/>
          <polygon class="degoo-logo-0" points="91.6,17 122.7,43.8 122.7,45.3 89.9,17          "/>
          <polygon class="degoo-logo-0" points="93.3,17 122.7,42.4 122.7,43.8 91.6,17          "/>
          <polygon class="degoo-logo-0" points="94.9,17 122.7,40.9 122.7,42.4 93.3,17          "/>
          <polygon class="degoo-logo-0" points="96.6,17 122.7,39.5 122.7,40.9 94.9,17          "/>
          <polygon class="degoo-logo-0" points="98.3,17 122.7,38 122.7,39.5 96.6,17          "/>
          <polygon class="degoo-logo-0" points="100,17 122.7,36.6 122.7,38 98.3,17           "/>
          <polygon class="degoo-logo-0" points="101.7,17 122.7,35.1 122.7,36.6 100,17          "/>
          <polygon class="degoo-logo-0" points="103.4,17 122.7,33.7 122.7,35.1 101.7,17          "/>
          <polygon class="degoo-logo-0" points="105.1,17 122.7,32.3 122.7,33.7 103.4,17          "/>
          <polygon class="degoo-logo-0" points="106.8,17 122.7,30.8 122.7,32.3 105.1,17          "/>
          <polygon class="degoo-logo-0" points="108.5,17 122.7,29.4 122.7,30.8 106.8,17          "/>
          <polygon class="degoo-logo-0" points="110.1,17 122.7,27.9 122.7,29.4 108.5,17          "/>
          <polygon class="degoo-logo-0" points="111.8,17 122.7,26.5 122.7,27.9 110.1,17          "/>
          <polygon class="degoo-logo-0" points="113.5,17 122.7,25 122.7,26.5 111.8,17          "/>
          <polygon class="degoo-logo-0" points="115.2,17 122.7,23.6 122.7,25 113.5,17          "/>
          <polygon class="degoo-logo-0" points="116.9,17 122.7,22.1 122.7,23.6 115.2,17          "/>
          <polygon class="degoo-logo-0" points="118.6,17 122.7,20.7 122.7,22.1 116.9,17          "/>
          <polygon class="degoo-logo-0" points="120.3,17 122.7,19.2 122.7,20.7 118.6,17          "/>
          <polygon class="degoo-logo-0" points="122,17 122.7,17.8 122.7,19.2 120.3,17          "/>
          <polygon class="degoo-logo-0" points="123.1,17.8 122,16.9 123.1,16.9           "/>
        </g>
      </g>
      <path class="degoo-logo-0" d="M93.6,77.9L93.6,77.9c-21.1,0-32.5-16-32.5-31.1s11.4-31.1,32.5-31.1c6.9,0,14.5,3,20.2,7.9
        c4.9,4.3,10.9,12.2,10.9,25.2V52H77.4c1.3,7,8.2,12.5,15.9,12.5c6,0,11.3-2.8,15.4-8.2l0.7-0.9l12.6,7l-0.9,1.2
        C113.8,72.7,104.1,77.8,93.6,77.9z M93.6,18.1c-19.5,0-30,14.8-30,28.6s10.5,28.6,30,28.6c9.2-0.1,17.8-4.4,24.4-12.2l-8.1-4.5
        c-4.5,5.5-10.2,8.4-16.7,8.4c-9.7,0-17.9-6.9-18.6-15.9L74.6,50h47.1v-1.3C121.7,27.6,105.3,18.1,93.6,18.1z M110.5,42H74.4
        l0.4-1.5c2.1-8.8,8.7-14.2,17.3-14.2s15.3,5.2,18,14.1L110.5,42z M77.6,40H107c-2.6-7-8-10.7-15-10.7C85.2,29.3,79.8,33,77.6,40z
        "/>
      <path class="degoo-logo-0" d="M170.3,25.4l11.4,19.4v24c0,18.8-14.2,29.5-29.6,29.5c-7.9,0-17.4-3.3-23.9-11.3l10-7.3
        c2.3,3.3,7.8,7,13.5,7c12.4,0,18.9-8.1,18.9-16.8v-3.8c-5,5.7-11.2,8.8-19.5,8.8c-14.7,0-27.6-11-27.6-28.9
        c0-18.6,13.8-29.3,28.9-29.3c7.6,0,13.7,2.9,17.6,8.2 M153.5,63.6c9.8,0,16.9-7.9,16.9-17.6c0-9.8-7.6-17.7-16.9-17.7
        c-9.5,0-17.1,7.9-17.1,17.6C136.4,55.8,143.2,63.6,153.5,63.6L153.5,63.6z"/>
      <g>
        <defs>
          <path id="SVGID_7_" d="M170.3,25.4l11.4,19.4v24c0,18.8-14.2,29.5-29.6,29.5c-7.9,0-17.4-3.3-23.9-11.3l10-7.3
            c2.3,3.3,7.8,7,13.5,7c12.4,0,18.9-8.1,18.9-16.8v-3.8c-5,5.7-11.2,8.8-19.5,8.8c-14.7,0-27.6-11-27.6-28.9
            c0-18.6,13.8-29.3,28.9-29.3c7.6,0,13.7,2.9,17.6,8.2 M153.5,63.6c9.8,0,16.9-7.9,16.9-17.6c0-9.8-7.6-17.7-16.9-17.7
            c-9.5,0-17.1,7.9-17.1,17.6C136.4,55.8,143.2,63.6,153.5,63.6L153.5,63.6z"/>
        </defs>
        <use xlink:href="#SVGID_7_"  style="overflow:visible;fill:#196BBC;"/>
        <clipPath id="SVGID_8_">
          <use xlink:href="#SVGID_7_"  style="overflow:visible;"/>
        </clipPath>
        <g class="degoo-logo-4">
          <polygon class="degoo-logo-0" points="136.4,62.4 137.8,63.6 136.4,63.6           "/>
          <polygon class="degoo-logo-0" points="136.7,61 139.5,64 137.8,64 136.7,62.4          "/>
          <polygon class="degoo-logo-0" points="136.7,59.5 141.2,64 139.5,64 136.7,61          "/>
          <polygon class="degoo-logo-0" points="136.7,58.1 142.9,64 141.2,64 136.7,59.5          "/>
          <polygon class="degoo-logo-0" points="136.7,56.6 144.5,64 142.9,64 136.7,58.1          "/>
          <polygon class="degoo-logo-0" points="136.7,55.2 146.2,64 144.5,64 136.7,56.6          "/>
          <polygon class="degoo-logo-0" points="136.7,53.8 147.9,64 146.2,64 136.7,55.2          "/>
          <polygon class="degoo-logo-0" points="136.7,52.3 149.6,64 147.9,64 136.7,53.8          "/>
          <polygon class="degoo-logo-0" points="136.7,50.9 151.3,64 149.6,64 136.7,52.3          "/>
          <polygon class="degoo-logo-0" points="136.7,49.4 153,64 151.3,64 136.7,50.9          "/>
          <polygon class="degoo-logo-0" points="136.7,48 154.7,64 153,64 136.7,49.4          "/>
          <polygon class="degoo-logo-0" points="136.7,46.5 156.4,64 154.7,64 136.7,48          "/>
          <polygon class="degoo-logo-0" points="136.7,45.1 158.1,64 156.4,64 136.7,46.5          "/>
          <polygon class="degoo-logo-0" points="136.7,43.6 159.8,64 158.1,64 136.7,45.1          "/>
          <polygon class="degoo-logo-0" points="136.7,42.2 161.4,64 159.8,64 136.7,43.6          "/>
          <polygon class="degoo-logo-0" points="136.7,40.8 163.1,64 161.4,64 136.7,42.2          "/>
          <polygon class="degoo-logo-0" points="136.7,39.3 164.8,64 163.1,64 136.7,40.8          "/>
          <polygon class="degoo-logo-0" points="136.7,37.9 165.8,63.1 165,64 164.8,64 136.7,39.3           "/>
          <polygon class="degoo-logo-0" points="136.7,36.4 166.5,62 165.9,62.9 136.7,37.9          "/>
          <polygon class="degoo-logo-0" points="136.7,35 167.2,61.2 166.6,62 136.7,36.4          "/>
          <polygon class="degoo-logo-0" points="136.7,34.7 137.1,34 167.9,60.4 167.3,61.2 136.7,35           "/>

            <rect x="152.2" y="26.5" transform="matrix(0.6504 -0.7596 0.7596 0.6504 17.865 132.3565)" class="degoo-logo-0" width="1.1" height="40.6"/>

            <rect x="152.9" y="25.7" transform="matrix(0.6504 -0.7596 0.7596 0.6504 18.7467 132.6088)" class="degoo-logo-0" width="1.1" height="40.6"/>

            <rect x="153.6" y="24.8" transform="matrix(0.6494 -0.7604 0.7604 0.6494 19.7422 133.0173)" class="degoo-logo-0" width="1.1" height="40.6"/>
          <polygon class="degoo-logo-0" points="139.1,31.5 140,30.7 170.7,56.8 170.7,57.3 170.1,57.9           "/>
          <polygon class="degoo-logo-0" points="140,30.7 140.8,29.8 170.7,55.4 170.7,56.8          "/>
          <polygon class="degoo-logo-0" points="140.7,29.7 141.8,28 170.7,28 170.7,55.4          "/>
          <polygon class="degoo-logo-0" points="123.5,98.3 123.5,98.3 123.5,98.3           "/>
          <polygon class="degoo-logo-0" points="123.5,97.8 124.1,98.3 123.5,98.3 123.5,98.3          "/>
          <polygon class="degoo-logo-0" points="123.5,97.3 124.7,98.3 124.1,98.3 123.5,97.8          "/>
          <polygon class="degoo-logo-0" points="123.5,96.8 125.2,98.3 124.7,98.3 123.5,97.3          "/>
          <polygon class="degoo-logo-0" points="123.7,96.4 125.8,98 125.2,98 123.7,96.8          "/>
          <polygon class="degoo-logo-0" points="123.7,95.9 126.4,98 125.8,98 123.7,96.4          "/>
          <polygon class="degoo-logo-0" points="123.7,95.4 126.9,98 126.4,98 123.7,95.9          "/>
          <polygon class="degoo-logo-0" points="123.7,94.9 127.5,98 126.9,98 123.7,95.4          "/>
          <polygon class="degoo-logo-0" points="123.7,94.4 128.1,98 127.5,98 123.7,94.9          "/>
          <polygon class="degoo-logo-0" points="123.7,93.9 128.6,98 128.1,98 123.7,94.4          "/>
          <polygon class="degoo-logo-0" points="123.7,93.4 129.2,98 128.6,98 123.7,93.9          "/>
          <polygon class="degoo-logo-0" points="123.7,93 129.7,98 129.2,98 123.7,93.4          "/>
          <polygon class="degoo-logo-0" points="123.7,92.5 130.3,98 129.7,98 123.7,93          "/>
          <polygon class="degoo-logo-0" points="123.7,92 130.9,98 130.3,98 123.7,92.5          "/>
          <polygon class="degoo-logo-0" points="123.7,91.5 131.4,98 130.9,98 123.7,92          "/>
          <polygon class="degoo-logo-0" points="123.7,91 132,98 131.4,98 123.7,91.5          "/>
          <polygon class="degoo-logo-0" points="123.7,90.5 132.6,98 132,98 123.7,91          "/>
          <polygon class="degoo-logo-0" points="123.7,90.1 133.1,98 132.6,98 123.7,90.5          "/>
          <polygon class="degoo-logo-0" points="123.7,89.6 133.7,98 133.1,98 123.7,90.1          "/>
          <polygon class="degoo-logo-0" points="123.7,89.1 134.3,98 133.7,98 123.7,89.6          "/>
          <polygon class="degoo-logo-0" points="123.7,88.6 134.8,98 134.3,98 123.7,89.1          "/>
          <polygon class="degoo-logo-0" points="123.7,88.1 135.4,98 134.8,98 123.7,88.6          "/>
          <polygon class="degoo-logo-0" points="123.7,87.6 136,98 135.4,98 123.7,88.1          "/>
          <polygon class="degoo-logo-0" points="123.7,87.2 136.5,98 136,98 123.7,87.6          "/>
          <polygon class="degoo-logo-0" points="123.7,86.7 137.1,98 136.5,98 123.7,87.2          "/>
          <polygon class="degoo-logo-0" points="123.7,86.2 137.7,98 137.1,98 123.7,86.7          "/>
          <polygon class="degoo-logo-0" points="123.7,85.7 138.2,98 137.7,98 123.7,86.2          "/>
          <polygon class="degoo-logo-0" points="123.7,85.2 138.8,98 138.2,98 123.7,85.7          "/>
          <polygon class="degoo-logo-0" points="123.7,84.7 139.4,98 138.8,98 123.7,85.2          "/>
          <polygon class="degoo-logo-0" points="123.7,84.3 139.9,98 139.4,98 123.7,84.7          "/>
          <polygon class="degoo-logo-0" points="123.7,83.8 140.5,98 139.9,98 123.7,84.3          "/>
          <polygon class="degoo-logo-0" points="123.7,83.3 141.1,98 140.5,98 123.7,83.8          "/>
          <polygon class="degoo-logo-0" points="123.7,82.8 141.6,98 141.1,98 123.7,83.3          "/>
          <polygon class="degoo-logo-0" points="123.7,82.3 142.2,98 141.6,98 123.7,82.8          "/>
          <polygon class="degoo-logo-0" points="123.7,81.8 142.8,98 142.2,98 123.7,82.3          "/>
          <polygon class="degoo-logo-0" points="123.7,81.4 143.3,98 142.8,98 123.7,81.8          "/>
          <polygon class="degoo-logo-0" points="123.7,80.9 143.9,98 143.3,98 123.7,81.4          "/>
          <polygon class="degoo-logo-0" points="123.7,80.4 144.5,98 143.9,98 123.7,80.9          "/>
          <polygon class="degoo-logo-0" points="123.7,79.9 145,98 144.5,98 123.7,80.4          "/>
          <polygon class="degoo-logo-0" points="123.7,79.4 145.6,98 145,98 123.7,79.9          "/>
          <polygon class="degoo-logo-0" points="123.7,78.9 146.2,98 145.6,98 123.7,79.4          "/>
          <polygon class="degoo-logo-0" points="123.7,78.5 146.7,98 146.2,98 123.7,78.9          "/>
          <polygon class="degoo-logo-0" points="123.7,78 147.3,98 146.7,98 123.7,78.5          "/>
          <polygon class="degoo-logo-0" points="123.7,77.5 147.8,98 147.3,98 123.7,78          "/>
          <polygon class="degoo-logo-0" points="123.7,77 148.4,98 147.8,98 123.7,77.5          "/>
          <polygon class="degoo-logo-0" points="123.7,76.5 149,98 148.4,98 123.7,77          "/>
          <polygon class="degoo-logo-0" points="123.7,76 149.5,98 149,98 123.7,76.5          "/>
          <polygon class="degoo-logo-0" points="123.7,75.6 150.1,98 149.5,98 123.7,76          "/>
          <polygon class="degoo-logo-0" points="123.7,75.1 150.7,98 150.1,98 123.7,75.6          "/>
          <polygon class="degoo-logo-0" points="123.7,74.6 151.2,98 150.7,98 123.7,75.1          "/>
          <polygon class="degoo-logo-0" points="123.7,74.1 151.8,98 151.2,98 123.7,74.6          "/>
          <polygon class="degoo-logo-0" points="123.7,73.6 152.4,98 151.8,98 123.7,74.1          "/>
          <polygon class="degoo-logo-0" points="123.7,73.1 152.9,98 152.4,98 123.7,73.6          "/>
          <polygon class="degoo-logo-0" points="123.7,72.7 153.5,98 152.9,98 123.7,73.1          "/>
          <polygon class="degoo-logo-0" points="123.7,72.2 154.1,98 153.5,98 123.7,72.7          "/>
          <polygon class="degoo-logo-0" points="123.7,71.7 154.6,98 154.1,98 123.7,72.2          "/>
          <polygon class="degoo-logo-0" points="123.7,71.2 155.2,98 154.6,98 123.7,71.7          "/>
          <polygon class="degoo-logo-0" points="123.7,70.7 155.8,98 155.2,98 123.7,71.2          "/>
          <polygon class="degoo-logo-0" points="123.7,70.2 156.3,98 155.8,98 123.7,70.7          "/>
          <polygon class="degoo-logo-0" points="123.7,69.8 156.9,98 156.3,98 123.7,70.2          "/>
          <polygon class="degoo-logo-0" points="123.7,69.3 157.5,98 156.9,98 123.7,69.8          "/>
          <polygon class="degoo-logo-0" points="123.7,68.8 158,98 157.5,98 123.7,69.3          "/>
          <polygon class="degoo-logo-0" points="123.7,68.3 158.6,98 158,98 123.7,68.8          "/>
          <polygon class="degoo-logo-0" points="123.7,67.8 159.2,98 158.6,98 123.7,68.3          "/>
          <polygon class="degoo-logo-0" points="123.7,67.3 159.7,98 159.2,98 123.7,67.8          "/>
          <polygon class="degoo-logo-0" points="123.7,66.9 160.3,98 159.7,98 123.7,67.3          "/>
          <polygon class="degoo-logo-0" points="123.7,66.4 160.9,98 160.3,98 123.7,66.9          "/>
          <polygon class="degoo-logo-0" points="123.7,65.9 161.4,98 160.9,98 123.7,66.4          "/>
          <polygon class="degoo-logo-0" points="123.7,65.4 162,98 161.4,98 123.7,65.9          "/>
          <polygon class="degoo-logo-0" points="123.7,64.9 162.5,98 162,98 123.7,65.4          "/>
          <polygon class="degoo-logo-0" points="123.7,64.4 163.1,98 162.5,98 123.7,64.9          "/>
          <polygon class="degoo-logo-0" points="123.7,63.9 163.7,98 163.1,98 123.7,64.4          "/>
          <polygon class="degoo-logo-0" points="123.7,63.5 164.2,98 163.7,98 123.7,63.9          "/>
          <polygon class="degoo-logo-0" points="123.7,63 164.8,98 164.2,98 123.7,63.5          "/>
          <polygon class="degoo-logo-0" points="123.7,62.5 165.4,98 164.8,98 123.7,63          "/>
          <polygon class="degoo-logo-0" points="123.7,62 165.9,98 165.4,98 123.7,62.5          "/>
          <polygon class="degoo-logo-0" points="123.7,61.5 166.5,98 165.9,98 123.7,62          "/>
          <polygon class="degoo-logo-0" points="123.7,61 167.1,98 166.5,98 123.7,61.5          "/>
          <polygon class="degoo-logo-0" points="123.7,60.6 167.6,98 167.1,98 123.7,61          "/>
          <polygon class="degoo-logo-0" points="123.7,60.1 168.2,98 167.6,98 123.7,60.6          "/>
          <polygon class="degoo-logo-0" points="123.7,59.6 168.8,98 168.2,98 123.7,60.1          "/>
          <polygon class="degoo-logo-0" points="123.7,59.1 169.3,98 168.8,98 123.7,59.6          "/>
          <polygon class="degoo-logo-0" points="123.7,58.6 169.9,98 169.3,98 123.7,59.1          "/>
          <polygon class="degoo-logo-0" points="123.7,57.2 171.6,98 169.9,98 123.7,58.6          "/>
          <polygon class="degoo-logo-0" points="123.7,55.7 173.3,98 171.6,98 123.7,57.2          "/>
          <polygon class="degoo-logo-0" points="123.7,54.3 174.5,97.7 174,98 173.3,98 123.7,55.7           "/>
          <polygon class="degoo-logo-0" points="123.7,52.8 175.2,97 174.6,97.8 123.7,54.3          "/>
          <polygon class="degoo-logo-0" points="123.7,51.4 175.9,96.2 175.3,97 123.7,52.8          "/>
          <polygon class="degoo-logo-0" points="123.7,50 176.6,95.3 176,96.2 123.7,51.4          "/>
          <polygon class="degoo-logo-0" points="123.7,48.5 177.4,94.5 176.7,95.3 123.7,50          "/>
          <polygon class="degoo-logo-0" points="123.7,47.1 178.1,93.6 177.4,94.5 123.7,48.5          "/>
          <polygon class="degoo-logo-0" points="123.7,45.6 178.8,92.8 178.1,93.6 123.7,47.1          "/>
          <polygon class="degoo-logo-0" points="123.7,44.2 179.5,92 178.8,92.8 123.7,45.6          "/>
          <polygon class="degoo-logo-0" points="123.7,42.7 180.2,91.1 179.6,92 123.7,44.2          "/>
          <polygon class="degoo-logo-0" points="123.7,41.3 180.9,90.3 180.3,91.1 123.7,42.7          "/>
          <polygon class="degoo-logo-0" points="123.7,39.8 181.6,89.5 181,90.3 123.7,41.3          "/>
          <polygon class="degoo-logo-0" points="123.7,38.4 181.7,88.3 181.7,89.1 181.6,89.5 123.7,39.8           "/>
          <polygon class="degoo-logo-0" points="123.7,37 181.7,86.9 181.7,88.3 123.7,38.4          "/>
          <polygon class="degoo-logo-0" points="123.7,35.5 181.7,85.4 181.7,86.9 123.7,37          "/>
          <polygon class="degoo-logo-0" points="123.7,34.1 181.7,84 181.7,85.4 123.7,35.5          "/>
          <polygon class="degoo-logo-0" points="123.7,32.6 181.7,82.5 181.7,84 123.7,34.1          "/>
          <polygon class="degoo-logo-0" points="123.7,31.2 181.7,81.1 181.7,82.5 123.7,32.6          "/>
          <polygon class="degoo-logo-0" points="123.7,29.7 181.7,79.6 181.7,81.1 123.7,31.2          "/>
          <polygon class="degoo-logo-0" points="123.7,28.3 181.7,78.2 181.7,79.6 123.7,29.7          "/>
          <polygon class="degoo-logo-0" points="123.7,26.8 181.7,76.7 181.7,78.2 123.7,28.3          "/>
          <polygon class="degoo-logo-0" points="123.7,26 123.8,25.6 181.7,75.3 181.7,76.7 123.7,26.8           "/>
          <polygon class="degoo-logo-0" points="123.7,25.6 124.4,24.8 181.7,73.9 181.7,75.3          "/>
          <polygon class="degoo-logo-0" points="124.4,24.8 125.1,24 181.7,72.4 181.7,73.9          "/>
          <polygon class="degoo-logo-0" points="125.1,24 125.8,23.1 181.7,71 181.7,72.4          "/>
          <polygon class="degoo-logo-0" points="125.9,23.1 126.5,22.3 181.7,69.5 181.7,71          "/>
          <polygon class="degoo-logo-0" points="126.6,22.3 127.3,21.5 181.7,68.1 181.7,69.5          "/>
          <polygon class="degoo-logo-0" points="127.3,21.5 128,20.6 181.7,66.6 181.7,68.1          "/>
          <polygon class="degoo-logo-0" points="128,20.6 128.7,19.8 181.7,65.2 181.7,66.6          "/>
          <polygon class="degoo-logo-0" points="128.7,19.9 131.3,17 181.7,17 181.7,65.2          "/>
        </g>
      </g>
      <path class="degoo-logo-0" d="M170.1,25.1l-1,0.8c-3.8-5-9.6-7.7-16.7-7.7c-13.8,0-27.7,9.6-27.7,28c0,18.2,13.2,27.7,26.3,27.7
        c7.5,0,13.3-2.6,18.5-8.4l2.2-2.4v7c0,8.7-6.3,18-20.1,18c-5.6,0-10.8-3.2-13.6-6.5l-7.9,5.8c5.6,6.2,13.7,9.8,22.1,9.8
        c14.1,0,28.5-9.7,28.5-28.3V45.1L169.4,26 M171.3,24.7l11.5,19.7v24.4c0,20.2-15.4,30.8-30.7,30.8c-9.6,0-18.7-4.3-24.8-11.7
        l-0.8-1l12.1-8.8l0.8,1c2.3,3.2,7.1,6.5,12.1,6.5c12.1,0,17.3-7.8,17.3-15.5v-0.7c-5,4.8-10.6,7-17.9,7c-7.5,0.1-14.7-2.8-20-8.1
        c-5.7-5.6-8.6-13.2-8.6-22.1c0-20.1,15.2-30.6,30.2-30.6c7.9,0,14.3,3,18.6,8.7 M153.5,64.9c-10.6,0-18.4-8-18.4-19
        c0-10.4,8.2-18.8,18.4-18.8c10,0,18.1,8.5,18.1,19C171.6,56.8,163.8,64.9,153.5,64.9L153.5,64.9z M153.5,29.6
        c-8.7,0-15.9,7.3-15.9,16.3c0,9.5,6.7,16.4,15.9,16.4c8.9,0,15.6-7,15.6-16.3C169.1,37,162.1,29.6,153.5,29.6L153.5,29.6z"/>
      <path class="degoo-logo-0" d="M263.2,16.9c19.8,0,32.4,14.9,32.4,29.9S283,76.6,263.2,76.6s-31.3-14.9-31.3-29.9S243.4,16.9,263.2,16.9z
         M263.7,65.2c10,0,18.1-8.2,18.1-18.4s-7.9-18.4-18.5-18.4c-10.7,0-18.2,8.2-18.2,18.4S252.7,65.2,263.7,65.2L263.7,65.2z"/>
      <g>
        <defs>
          <path id="SVGID_9_" d="M263.2,16.9c19.8,0,32.4,14.9,32.4,29.9S283,76.6,263.2,76.6s-31.3-14.9-31.3-29.9
            S243.4,16.9,263.2,16.9z M263.7,65.2c10,0,18.1-8.2,18.1-18.4s-7.9-18.4-18.5-18.4c-10.7,0-18.2,8.2-18.2,18.4
            S252.7,65.2,263.7,65.2L263.7,65.2z"/>
        </defs>
        <use xlink:href="#SVGID_9_"  style="overflow:visible;fill:#196BBC;"/>
        <clipPath id="SVGID_10_">
          <use xlink:href="#SVGID_9_"  style="overflow:visible;"/>
        </clipPath>
        <g class="degoo-logo-5">
          <polygon class="degoo-logo-0" points="244.7,35 250.5,28 281.7,28 281.7,58.5 275.9,65 244.7,65          "/>
          <polygon class="degoo-logo-0" points="231.7,28.7 242,17 295.7,17 295.7,63.4 284.3,77 231.7,77          "/>
        </g>
      </g>
      <path class="degoo-logo-0" d="M263.2,77.9c-21.1,0-32.5-16-32.5-31.1s11.4-31.1,32.5-31.1c9.5,0,18.2,3.4,24.5,9.7
        c5.8,5.7,9.1,13.4,9.2,21.5c-0.1,8.1-3.4,15.8-9.2,21.5C281.4,74.5,272.7,77.9,263.2,77.9z M263.2,18.1c-19.5,0-30,14.8-30,28.6
        s10.5,28.6,30,28.6c19.5,0,31.2-14.6,31.2-28.6S282.7,18.1,263.2,18.1z M263.2,66.4c-11.2,0-19.6-8.5-19.6-19.6
        s8.5-19.6,19.6-19.6s19.6,8.5,19.6,19.6S274.4,66.4,263.2,66.4L263.2,66.4z M263.2,29.6c-9.8,0-17.1,7.4-17.1,17.1
        s7.4,17.1,17.1,17.1c9.7,0,17.1-7.4,17.1-17.1S272.9,29.6,263.2,29.6L263.2,29.6z"/>
      <path class="degoo-logo-0" d="M217.2,28.7L217.2,28.7c4.2,0.8,8.1,3,10.7,6.4c0,0,4,4.8,4,11c-0.2,7,2.1,13.7,6.4,19.2c0,0,4,5.1,9.6,7.8
        c4.6,2.3,9.6,3.5,14.8,3.5l0,0l0-0.1l1.2,4.8l17.1-15.2l-21.7-5.9L260,65l-0.1-0.1l0,0c-8.9-1.4-15.4-9.1-15.2-18.1
        c0,0,0.6-9.5-6.4-18.5c-2.8-3.5-6.2-6.4-10.3-8.3c0,0-4.3-2.5-12.3-3v0v0l-1.1-4.9l-18.1,14.1l21.2,7.2L217.2,28.7L217.2,28.7z"
        />
    </g>
  </g>
</g>
</svg>
