<svg version="1.1"
   xmlns="http://www.w3.org/2000/svg" xmlns:xlink="http://www.w3.org/1999/xlink" xmlns:a="http://ns.adobe.com/AdobeSVGViewerExtensions/3.0/"
   x="0px" y="0px" width="290.2px" height="177.7px" viewBox="0 0 290.2 177.7" style="enable-background:new 0 0 290.2 177.7;"
   xml:space="preserve">
<defs>
</defs>
<g>
  <path class="docker-0 fixed-colors-svg" d="M110,136.6c2.5,0,4.5-2,4.5-4.5c0-0.6-0.1-1.2-0.3-1.7c-0.3,0.6-0.9,0.9-1.6,0.9c-1,0-1.8-0.8-1.8-1.8
    c0-0.7,0.4-1.3,0.9-1.6c-0.5-0.2-1-0.3-1.6-0.3c-2.5,0-4.5,2-4.5,4.5C105.6,134.6,107.6,136.6,110,136.6z"/>
  <path class="docker-0 fixed-colors-svg" d="M271.7,102.5c-6.7,7.8-18.9,8.9-29.3,7.8c3-5.3,5.7-11.3,8.1-17.4c15.1,0.8,30.5-3.9,37.8-18.2l1.9-3.8l-3.6-2.1
    c-8.7-5-20.3-5.7-30.2-2.8c-1.2-10.5-8.1-19.7-16.3-26.3l-3.3-2.6l-2.7,3.2c-5.5,6.4-7.1,16.9-6.4,25c0.6,6,2.4,12,6.1,16.8
    c-2.8,1.7-6,3.5-8.8,4.4c-5.8,1.9-12,3.5-18.1,3.5h-4.5V60h-30V0h-35v30h-60v30h-29v30H36.3l-0.4,3.5c-0.5,5.5-0.5,10.8,0.1,16.3
    c-7.1-0.8-13.9-2-18.4-7.1C19.9,110.9,6.3,116,0,116h36.5c9.7,51,52.3,61.7,83,61.7c51.7,0,95.5-27.7,120.9-61.7h49
    C283.1,116,269.5,110.8,271.7,102.5z M172.5,65h25v25h-25V65z M142.5,5h25v25h-25V5z M142.5,35h25v25h-25V35z M142.5,65h25v25h-25
    V65z M112.5,35h25v25h-25V35z M112.5,65h25v25h-25V65z M82.5,35h25v25h-25V35z M82.5,65h25v25h-25V65z M53.5,65h24v25h-24V65z
     M119.5,172.4c-42.3,0-63.5-26.2-63.5-26.2c14.9,1.8,32.8-0.1,44.2-4.4c1-0.4,2-1.5,1.6-2.6c-0.4-1-1.3-1.4-2.4-1.1
    c-13.9,4.5-37.9,5.6-45.9,3.2v0.1c-5-4.4-10-16.4-11.6-25.4l191.9-0.1C206.9,150,163,172.4,119.5,172.4z M237.8,108.8
    c-5.4-1.1-9.9-2.9-12.2-5c-7.8,11.3-53,7-56.1-1.8c-9.7,11.4-39.9,11.4-49.6,0c-3.2,8.8-48.4,13.1-56.1,1.8
    c-3.7,3.5-12.6,5.8-22.5,5.6c-0.6-5.3-0.8-8.7-0.2-13.6l165.5-0.2c13.7,0,26.6-6.1,33.9-14.2c-11.4-9.3-10.3-30.6-3-39
    c6.3,5.1,16.4,16,14.7,29.6c7.9-4,21.7-5.8,32.4,0.4c-6.7,13.1-21.5,17.1-36.8,15.5C244.8,95.4,241.5,102.4,237.8,108.8z"/>
</g>
</svg>

