<svg version="1.1"
   xmlns="http://www.w3.org/2000/svg" xmlns:xlink="http://www.w3.org/1999/xlink" xmlns:a="http://ns.adobe.com/AdobeSVGViewerExtensions/3.0/"
   x="0px" y="0px" width="142.1px" height="114.7px" viewBox="0 0 142.1 114.7" style="enable-background:new 0 0 142.1 114.7;"
   xml:space="preserve">
<style type="text/css">
  .eqipia-logo-0{fill:#F6F6F6;}
</style>
<defs>
</defs>
<g>
  <g>
    <path class="eqipia-logo-0" d="M24.5,73.9c2.1,0.9,3.8,2.4,5.2,4.4c1.2,1.8,2,4,2.4,6.3c0.2,1.4,0.3,3.1,0.3,6.1H10.5c0.1,3,1.2,5,3.1,6.2
      c1.2,0.8,2.6,1.1,4.3,1.1c1.8,0,3.2-0.4,4.3-1.3c0.6-0.5,1.1-1,1.6-2h8c-0.2,2-1.2,3.5-2.9,5.3c-2.7,2.9-6.4,4.3-11.3,4.3
      c-4,0-7.5-1.3-10.6-3.7c-3-2.5-4.6-6.5-4.6-12c0-5.2,1.4-9.2,4.1-11.9c2.8-2.8,6.3-4.2,10.7-4.2C20.1,72.5,22.4,72.9,24.5,73.9z
       M12.8,80.8c-1.1,1.1-1.8,2.8-2.1,4.8h13.5c-0.1-3-0.8-3.9-2.1-4.9c-1.2-1.1-2.8-1.6-4.6-1.6C15.4,79.1,13.9,79.7,12.8,80.8z"/>
    <path class="eqipia-logo-0" d="M51.9,74.1c0.9,0.7,2,1.8,3,3.4v-4.9h7v42h-8V99.4c0,1.2-1.4,2.3-2.8,3.2c-1.4,0.9-3.3,1.4-5.7,1.4
      c-3.5,0-6.4-1.4-8.8-4.2c-2.4-2.8-3.6-6.5-3.6-11.1c0-5,1.2-9,3.7-12c2.4-3,5.6-4.5,9.2-4.5C48.3,72.3,50.4,72.9,51.9,74.1z
       M53.4,93.8c0.7-1.5,1.1-3.5,1.1-5.8c0-1.8-0.3-3.5-0.9-4.9c-1.1-2.6-3.1-3.9-5.9-3.9c-2,0-3.6,0.8-4.8,2.3
      c-1.2,1.5-1.8,3.8-1.8,6.9c0,2.1,0.3,3.8,0.8,5.1c1,2.5,2.9,3.8,5.7,3.8C50.3,97.3,52.3,96.1,53.4,93.8z"/>
    <path class="eqipia-logo-0" d="M64.9,72.7h8v31h-8V72.7z"/>
    <path class="eqipia-logo-0" d="M104.9,72.7h8v31h-8V72.7z"/>
    <path class="eqipia-logo-0" d="M100.6,76.3c2.5,2.6,3.7,6.4,3.7,11.4c0,5.3-1.2,9.3-3.6,12.1c-2.4,2.8-5.5,4.2-9.3,4.2c-2.4,0-4.4-0.6-6-1.8
      c-0.9-0.7-1.5-1.6-2.5-2.9v15.4h-8v-42h8v4.9c1-1.3,1.6-2.3,2.6-3.1c1.8-1.3,3.8-2,6.2-2C95.2,72.4,98.1,73.7,100.6,76.3z
       M94.6,82c-1.1-1.8-2.8-2.7-5.2-2.7c-2.9,0-4.9,1.4-5.9,4.1c-0.6,1.4-0.8,3.3-0.8,5.5c0,3.5,0.9,5.9,2.8,7.4
      c1.1,0.8,2.4,1.2,4,1.2c2.2,0,3.9-0.8,5.1-2.5c1.2-1.7,1.7-3.9,1.7-6.8C96.2,85.8,95.6,83.8,94.6,82z"/>
    <path class="eqipia-logo-0" d="M140.9,101.2c-0.3-0.4-0.6-1.1-0.7-2.2c0-1.4-0.2-2.6-0.2-3.6l0.2-13.4c0-3.6-1.7-6.4-4.3-7.7s-5.3-2-8.6-2
      c-5.1,0-8.6,1.9-10.7,4.6c-1.1,1.4-1.6,3.7-1.9,5.7h7.8c0.2-1,0.5-1.6,0.8-2c0.8-0.9,2.1-1.7,4-1.7c1.7,0,3,0.1,3.8,0.6
      c0.9,0.5,1.3,1.3,1.3,2.5c0,1-0.6,1.7-1.7,2.2c-0.6,0.3-1.7,0.5-3.2,0.7l-2.7,0.3c-3.1,0.4-5.4,1-7,1.9c-2.9,1.7-4.3,4.3-4.3,8.1
      c0,2.9,0.9,5.1,2.7,6.6c1.8,1.6,4.1,2.3,6.8,2.3c2.2,0,4.1-0.5,5.8-1.5c1.4-0.8,2.7-1.8,3.8-3c0.1,0.7,0.1,1.5,0.2,2.1
      c0.1,0.5,0.1,0.4,0.4,1.4l8.6,0l0-1C142.1,101.9,141.2,101.6,140.9,101.2z M131.9,91.5c0,2.6-0.5,4.5-1.9,5.5
      c-1.5,1-2.9,1.5-4.6,1.5c-1.1,0-1.9-0.3-2.7-0.9c-0.8-0.6-1.1-1.6-1.1-2.9c0-1.5,0.6-2.6,1.9-3.4c0.7-0.4,2-0.8,3.6-1.1l1.8-0.3
      c0.9-0.2,1.3-0.3,1.8-0.5c0.5-0.2,1.2-0.4,1.2-0.8V91.5z"/>
  </g>
  <g>
    <path class="eqipia-logo-0" d="M33.6,61.3l-0.4,0l-2.2-21.1l1.3-2l-2.1-2c0.4,0,0.8-0.1,1.2-0.1c3.8,0,8.2,1.5,12.2,4.4
      C38.6,46,35,53.2,33.6,61.3 M13.1,61.2l-8.8,0C5.2,45.3,18.5,36,27.7,36c0.4,0,0.8,0,1.2,0.1l-2.1,2l1.3,2l-2.2,21.1l-8.6,0
      l1.5-10l-4-0.6L13.1,61.2 M103.6,61.3c-1.3-7.8-4.7-14.7-9.5-20.1c6.3-5.1,12-5.4,14.8-5.4c0.2,0,0.4,0,0.6,0
      c9.9,0.1,23.5,8.7,24.4,25.4l-8.8,0l-1.8-10.6l-4,0.6l1.5,10l-8.6,0L103.6,61.3 M21.6,21.9C21.6,21.9,21.7,21.9,21.6,21.9
      c0.1,0-0.4-3.4,0.5-7.8c0,0,2.3,2.6,14.7,3c0,0,0.5,3.8,0.2,4.7c0,0,0.1,0,0.2,0c0.3,0,0.9-0.1,1.2-0.9c0,0,0.9,0.2,0.8,1.2
      c-0.1,1-0.3,1.1-0.3,1.9c0,0.8,0,1.6-0.4,2.2c-0.4,0.5-1.9,4.7-7.1,5.7c-0.8-0.1-1.5-0.1-2.3-0.1c-0.6,0-1.2,0-1.9,0.1
      c-5.2-1.1-7.4-5.8-7.5-6.9c-0.1-1-0.5-2-0.2-2.9c0.3-0.9,0.5-0.8,0.8-1.2C20.3,20.8,20.7,21.9,21.6,21.9 M108.5,31.7
      c-6.3,0-8.7-5.4-8.7-5.4c2.1-1.2,5.1-4.2,8.6-9.1c1.8-2.5,3.9-3.1,5.5-3.1c1.5,0,2.6,0.6,2.6,0.6c1,2.9,0.6,5.9,0.8,5.9
      c0.2,0,0.5-0.4,1-0.4c0.1,0,0.2,0,0.4,0.1c0.6,0.3,0.4,1,0.1,3.7c-0.3,2.7-1.8,3-1.8,3l0,1.5c0,0-2.6,3.2-8.4,3.3
      C108.6,31.7,108.5,31.7,108.5,31.7 M110.2,5.8c-0.3,0-0.5,0-0.8,0c-5.9,0.3-10.7,2.9-11.8,6.3c-1.4,4.3-0.1,9.7-0.9,13.1
      c-0.8,3.4-2.2,5.7-3.1,6.7c0,0,1.1,1.1,5,1.9c-2.6,1.1-5.1,2.7-7.3,4.5c-2.8-2.5-5.9-4.6-9.2-6.1c-2.3,4.1-7.4,6.9-13.3,6.9
      c-6,0-11.1-2.9-13.4-7c-3.3,1.4-6.3,3.4-9,5.8c-2.5-2.1-5.4-3.7-8.5-4.8c3.5-2.6,5.8-6.8,5.8-11.5c0-7.9-6.4-14.3-14.3-14.3
      c-7.9,0-14.3,6.4-14.3,14.3c0,4.7,2.2,8.8,5.7,11.4C8.8,36.9,0,49.1,0,63.8c0,0.4,0,0.9,0,0.9h33.2c-0.1,1-0.2,2.6-0.2,3.9
      c0,0.5,0,1.1,0,1.1h71.2c0,0,0-0.6,0-1c0-1.3-0.1-3-0.2-4h34.2c0,0,0-0.4,0-0.8c0-13.8-7.8-25.5-18.8-30.1
      c3.6-0.7,4.7-1.7,4.7-1.7s-3.4-4.4-3.3-7.8c0.1-3.4,0.5-8.3-0.2-11.2c-0.6-2.9-2-4.4-2.7-4.6c-0.2,0-0.4-0.1-0.5-0.1
      c-0.5,0-0.8,0.1-0.8,0.1S115.4,5.8,110.2,5.8"/>
    <path class="eqipia-logo-0" d="M65.1,15.5c0,0,7.5-0.2,13-4c0,0,0.3,2.6,0.4,5c0,2.4-0.1,4.1-0.1,4.1s0.1,0,0.2,0c0.4,0,1.2-0.3,1.9-2.9
      c0,0,0.7,0.5,0.7,1.3c0,0.8-0.2,1.4-0.6,2.6C80.1,22.8,77,30,68.2,30c-8.8,0-11.8-8.5-11.8-8.5S56,20.6,56,19.8
      c0-0.8,0.2-1.4,0.5-1.8c0,0,0.9,2.5,2.5,2.5c0.1,0,0.1,0,0.2,0c0.1,0-0.7-2-0.5-4.5c0,0,0.4,0.1,1.1,0.1c1.4,0,4.1-0.4,6.7-2.7
      C66.6,13.4,66.5,14.8,65.1,15.5 M68.6,0c-9.5,0-17.2,7.7-17.2,17.2c0,9.5,7.7,17.2,17.2,17.2s17.2-7.7,17.2-17.2
      C85.8,7.7,78.1,0,68.6,0"/>
  </g>
</g>
</svg>
