<svg version="1.1"
   xmlns="http://www.w3.org/2000/svg" xmlns:xlink="http://www.w3.org/1999/xlink" xmlns:a="http://ns.adobe.com/AdobeSVGViewerExtensions/3.0/"
   x="0px" y="0px" width="350px" height="57px" viewBox="0 0 350 57" style="enable-background:new 0 0 350 57;"
   xml:space="preserve">
<style type="text/css">
  .logo-fs-0{fill:#E66424;}
  .logo-fs-1{fill:#F4831F;}
  .logo-fs-2{fill:#3D3836;}
</style>
<defs>
</defs>
<g>
  <g>
    <path class="logo-fs-0" d="M26.9,30h-4.8c-3.4,0-5.9-3.1-5.4-6.4l0.8-5.7C18,15.2,20.3,13,23,13h6.1C36,13,37,5.9,37,2.4V2h-5.5H5.4
      C2.4,2,0,4.8,0,7.8v44V57h6.8c2.7,0,5-1.8,5.4-4.5l1.1-7c0.4-2.7,2.7-4.5,5.4-4.5h8.1c2.8,0,5.1-2.1,5.1-4.8v0.1
      C33,32.9,30.3,30,26.9,30z"/>
    <path class="logo-fs-1" d="M30.1,28h4.8c3.4,0,5.9,2.8,5.4,6.1l-0.8,5.4c-0.4,2.7-2.7,4.5-5.4,4.5H28c-6.9,0-8,7.5-8,11v0h5.6h26.1
      c3,0,5.3-2.4,5.3-5.5v-44V0h-6.8c-2.7,0-5,2-5.4,4.7l-1.1,7.4C43.3,14.8,41,17,38.3,17h-8.1c-2.8,0-5.1,1.8-5.1,4.6v0.1
      C24,25,26.8,28,30.1,28z"/>
  </g>
  <path class="logo-fs-2" d="M112.2,34.3c0,7.4-4.9,13.8-14.4,13.8c-9,0-14-6.5-14-13.8c0-7.4,5.2-13.8,14.3-13.8
    C107.4,20.6,112.2,27.6,112.2,34.3z M89.7,34.4c0,4.7,3,9.2,8.4,9.2c5.6,0,8.3-4.2,8.3-9.1c0-4.9-2.9-9.3-8.4-9.3
    C92.3,25.2,89.7,29.5,89.7,34.4z"/>
  <path class="logo-fs-2" d="M140,39.8c0,2.5-0.1,5.2-0.1,7.2h-5.5c-0.1,0-0.2-2.2-0.2-3.9c-1.3,2.8-3.6,4.9-9.3,4.9c-5.5,0-9.8-3-9.8-10.6
    V21h6v15.4c0,3.8,1.3,7,5.7,7c5.2,0,7.3-3,7.3-10.2V21h6V39.8z"/>
  <path class="logo-fs-2" d="M143,27.9c0-2.2-0.1-4.9-0.1-6.9h5.6c0.1,1,0.2,3,0.2,4.7c1.1-2.4,3.7-5.2,9.2-5.2c6.2,0,10.1,3.9,10.1,11V47
    h-6V32.5c0-4-1.2-7.2-5.8-7.2c-5,0-7.2,3.7-7.2,9.5V47h-6V27.9z"/>
  <path class="logo-fs-2" d="M199,9v30.9c0,2.5,0,5.1,0,7.1h-5.6c-0.2-1-0.2-2.3-0.2-3.5c-1.4,2.2-3.5,4.6-9.4,4.6
    c-7.5,0-12.7-5.5-12.7-13.5c0-8.6,6.5-14,13.2-14c5.9,0,8.6,2.5,8.6,3.7V9H199z M185.2,43.5c5.7,0,8.2-3.7,8.2-9.2c0-5.4-2-9-8.1-9
    c-5.5,0-8.3,4.5-8.3,9.2C177.1,39.1,179.9,43.5,185.2,43.5z"/>
  <path class="logo-fs-2" d="M207.7,36c0.3,4,3.4,7.9,8.3,7.9c3.8,0,5.9-1.9,7.2-3.9h5.7c-1.4,4-5.2,8.2-13.1,8.2
    c-9.7,0-13.9-6.9-13.9-13.7c0-7.8,5-13.9,13.6-13.9c10,0,13.4,7.2,13.4,13.7V36H207.7z M223.4,32c-0.2-3-1.7-7-7.8-7
    c-5.1,0-7.4,3-7.9,7H223.4z"/>
  <path class="logo-fs-2" d="M232,28.4c0-2.4,0.4-4.4,0.3-7.4h5.6c0.1,1,0.4,3.7,0.4,5.9c1.6-3.9,4.6-6.4,10.6-6.3V26
    c-6-0.1-11,3.2-11,10.8V47h-6V28.4z"/>
  <path class="logo-fs-2" d="M253.1,40c1.1,3,4.2,5.7,9.5,5.7c5.7,0,7.9-2.2,7.9-5c0-2.6-1.4-4.4-8.7-5.3c-8.6-1-10.5-3.9-10.5-7.2
    c0-3,2.5-6.9,10.3-6.9c8.8,0,10.9,4.7,11.1,7.7h-3.1c-0.4-2-1.5-5.1-8.3-5.1c-5.7,0-7,2.4-7,4.2c0,2.4,1.4,3.7,7.9,4.6
    c9.2,1.1,11.2,3.8,11.2,7.8c0,4.6-3.5,7.9-11.2,7.9c-7.7,0-11.4-3.3-12.4-8.3H253.1z"/>
  <path class="logo-fs-2" d="M299,39.9c0,2.5-0.2,5.1-0.2,7.1H296c-0.1,0-0.2-2.7-0.2-4.9c-1.3,3.4-3.5,5.9-9.3,5.9
    c-5.5,0-9.5-2.8-9.5-10.2V21h3v16.1c0,4.2,1.6,8.1,6.9,8.1c6.4,0,9.1-3.7,9.1-12.1V21h3V39.9z"/>
  <rect x="305" y="13" class="logo-fs-2" width="3" height="5"/>
  <rect x="305" y="21" class="logo-fs-2" width="3" height="26"/>
  <path class="logo-fs-2" d="M314,13h3v8h6v3h-6v16.2c0,3.4,0.6,4.8,3.6,4.8c0.8,0,1.4-0.1,2.4-0.3v2.5c-1,0.4-1.8,0.4-3,0.4
    c-4.8,0-6-2.2-6-7.2V13z"/>
  <path class="logo-fs-2" d="M327.7,35c0.3,6,4.2,10.1,10.2,10.1c4.5,0,7.1-2.1,8.8-5.1h3c-1.3,4-4.8,7.9-12.2,7.9
    c-8.5,0-12.9-6.5-12.9-13.4c0-8.1,5.3-13.6,12.6-13.6c9.6,0,12.6,7.3,12.6,13.3V35H327.7z M346.9,33c-0.3-4-2.2-8.9-9.5-8.9
    c-5.9,0-9,2.9-9.5,8.9H346.9z"/>
  <path class="logo-fs-2" d="M69,47V18.5c0-6.1,2.8-9.6,9-9.6c1.3,0,7,0.5,8,0.6v5.6c-1-0.1-6.2-0.5-6.9-0.5c-3.3,0-4.1,1.4-4.1,5.2V25h7v6
    h-7v16H69z"/>
</g>
</svg>
