<svg version="1.1"
   xmlns="http://www.w3.org/2000/svg" xmlns:xlink="http://www.w3.org/1999/xlink" xmlns:a="http://ns.adobe.com/AdobeSVGViewerExtensions/3.0/"
   x="0px" y="0px" width="29.3px" height="40px" viewBox="0 0 29.3 40" style="enable-background:new 0 0 29.3 40;"
   xml:space="preserve">
<defs>
</defs>
<g>
  <g>
    <path class="go-0 fixed-colors-svg" d="M26.9,22.5c0-0.8-0.1-1.6-0.1-2.3c0-0.7-0.1-1.2-0.1-1.9c0-0.9,0-1.5,0-2.5c0,0,0,0,0,0c0-1,0-1,0-1.4
      c0-0.5,0-1,0-1.5c0-0.7-0.1-1.4-0.1-2.1c-0.1-0.6-0.1-1.2-0.2-1.8C26.1,8,25.9,7,25.6,6.1c-0.1-0.5-0.3-0.9-0.5-1.3
      c-0.6-1-1.3-1.9-2.2-2.7C22,1.4,21,1,19.9,0.7c-1.1-0.3-2.2-0.5-3.3-0.6C15.9,0,15.2,0,14.5,0c-0.6,0-1.2,0.1-1.9,0.1
      c-0.8,0.1-1.6,0.2-2.4,0.4C9.2,0.8,8.1,1.2,7.1,1.7c-1,0.5-1.9,1.2-2.6,2.2C3.8,4.7,3.3,5.7,3,6.7C2.7,7.6,2.5,8.5,2.4,9.4
      c-0.1,0.6-0.1,1.2-0.1,1.9c0,0.6,0,1.2,0,1.8c0,0.7,0.1,1.5,0.2,2.2c0,0.6,0.1,1.1,0.1,1.7c0,0.6,0.1,1.3,0.1,1.9
      c0,0.8,0,1.5,0,2.3c0,0.6-0.1,1.2-0.1,1.8c-0.1,0.8-0.1,1.6-0.2,2.4c0,0.7-0.1,1.4-0.1,2c0,0.6,0,1.2,0,1.8c0,0.7,0.1,1.4,0.2,2.1
      c0.1,0.7,0.3,1.4,0.5,2c0.4,1,0.9,2,1.7,2.7c0.9,0.9,1.9,1.5,3.1,2c1.1,0.5,2.2,0.7,3.3,0.9c0.8,0.1,1.6,0.2,2.4,0.2
      c0.5,0,1,0,1.5,0c0.6,0,1.1-0.1,1.7-0.1c0.8-0.1,1.6-0.2,2.4-0.4c1.3-0.3,2.5-0.8,3.6-1.6c0.9-0.6,1.7-1.4,2.3-2.4
      c0.5-0.9,0.9-1.8,1.2-2.8c0.3-1,0.5-2,0.5-3c0.1-0.6,0.1-1.3,0.1-1.9c0-0.8,0-1.6,0-2.4C27,24,26.9,23.3,26.9,22.5z M9.8,9.5
      c-0.2,0-0.4,0-0.5,0c-1,0-1.8-0.2-2.5-0.7C6.1,8.2,5.7,7.5,5.5,6.6C5.4,5.9,5.4,5.1,5.8,4.4c0.4-0.8,1-1.3,1.8-1.7
      c0.5-0.3,1.1-0.4,1.7-0.4c0.8,0,1.6,0.1,2.3,0.6c0.8,0.5,1.3,1.3,1.5,2.2c0.1,0.7,0.1,1.3-0.1,2c-0.3,0.8-0.8,1.4-1.5,1.8
      C11,9.2,10.4,9.4,9.8,9.5z M17.4,11.7C17,12,16.6,12.2,16.1,12c0,0-0.1,0-0.1,0c0,0.2,0,0.4,0,0.7c0,0.4,0,0.7,0,1.1
      c0,0.1-0.1,0.2-0.2,0.3c-0.2,0.2-0.4,0.2-0.7,0.3c-0.1,0-0.1,0-0.2,0c-0.3-0.1-0.5-0.3-0.7-0.5c0,0,0,0,0-0.1
      c-0.1,0.1-0.2,0.2-0.3,0.3c-0.2,0.1-0.3,0.2-0.5,0.2c-0.3,0-0.5-0.1-0.6-0.3c-0.2-0.3-0.3-0.6-0.3-0.9c0-0.3-0.1-0.6,0-0.9
      c0,0,0,0,0-0.1c-0.1,0-0.3,0-0.4-0.1c-0.4-0.1-0.6-0.4-0.6-0.8c-0.1-0.5,0.1-1,0.4-1.3c0.2-0.3,0.5-0.4,0.8-0.5c0,0,0,0,0.1,0
      c0-0.5,0.3-0.9,0.8-1.1c0.7-0.3,1.3-0.3,1.9,0C15.8,8.4,16,8.6,16.1,9c0,0.1,0,0.1,0,0.2c0,0.1,0,0.1,0.1,0.1
      c0.4,0.2,0.8,0.4,1.1,0.7c0.1,0.1,0.2,0.2,0.2,0.3C17.7,10.8,17.7,11.3,17.4,11.7z M22.7,6.1c-0.1,0.8-0.4,1.4-1,1.9
      c-0.6,0.6-1.4,0.9-2.3,1.1c-0.2,0-0.5,0.1-0.7,0.1c-0.8,0-1.5-0.2-2.1-0.6c-0.9-0.5-1.4-1.3-1.6-2.3c-0.2-0.7,0-1.4,0.3-2.1
      c0.4-0.9,1.2-1.5,2.1-1.9c1-0.4,2-0.5,3-0.1c1.2,0.4,1.9,1.3,2.3,2.5C22.7,5.1,22.7,5.6,22.7,6.1z"/>
    <path class="go-0 fixed-colors-svg" d="M24.3,3.3c0.1,0.1,0.1,0.1,0.2,0.1c0.4-0.1,0.8,0,1,0.3c0.3,0.4,0.3,0.9-0.1,1.3c0,0,0,0.1,0,0.1
      c0.2,0.4,0.3,0.9,0.5,1.3C25.9,6.4,26,6.6,26,6.8c0.4-0.1,0.7-0.3,1-0.6c0.5-0.4,0.7-0.9,0.8-1.6c0-0.5-0.1-1-0.4-1.4
      c-0.5-0.8-1.2-1.3-2.2-1.4c-0.5,0-1,0.1-1.5,0.3c-0.1,0.1-0.2,0.1-0.3,0.2c0,0,0.1,0,0.1,0.1C23.8,2.7,24,3,24.3,3.3z"/>
    <path class="go-0 fixed-colors-svg" d="M3.1,5.8C2.9,5.7,2.7,5.6,2.6,5.5C2.3,5.3,2.2,5,2.3,4.7c0.1-0.5,0.5-0.9,1.1-0.8C3.6,4,3.8,4,4,4.1
      c0.2-0.2,0.4-0.5,0.6-0.7C4.7,3.2,5,3,5.2,2.7C5.1,2.7,5.1,2.7,5,2.6C4.4,2.3,3.7,2.2,3,2.3C2,2.6,1.3,3.3,1,4.3
      C0.7,4.9,0.8,5.5,1.1,6.1c0.3,0.4,0.6,0.7,1.1,0.9c0.1,0.1,0.2,0.1,0.4,0.2C2.7,6.7,2.9,6.3,3.1,5.8z"/>
    <path class="go-0 fixed-colors-svg" d="M5.2,36.9c-0.1,0-0.1,0-0.1,0c-0.3,0.2-0.7,0.5-1,0.7c-0.3,0.2-0.5,0.4-0.7,0.7c-0.2,0.4-0.2,0.7,0,1.1
      c0,0,0.1,0.1,0.1,0.1c0.1-0.3,0.2-0.5,0.3-0.7c0.1-0.2,0.2-0.3,0.3-0.5c0-0.1,0.1-0.1,0.1-0.1c0.1,0,0.1,0.1,0.1,0.2
      c-0.1,0.2-0.2,0.3-0.3,0.5C4,39.2,4,39.4,3.9,39.5c0,0,0,0.1,0,0.1c0.2,0.3,0.5,0.4,0.8,0.3c0.2-0.1,0.4-0.2,0.5-0.3
      C5.5,39.4,5.8,39.2,6,39c0.4-0.3,0.8-0.6,1.3-0.8c0,0,0,0,0,0c0,0-0.1,0-0.1,0C6.6,37.8,5.9,37.4,5.2,36.9z"/>
    <path class="go-0 fixed-colors-svg" d="M22.3,37.8c0.1,0,0.1,0.1,0.2,0.1c0.3,0.2,0.6,0.5,0.8,0.8c0.2,0.2,0.4,0.5,0.7,0.7c0.3,0.3,0.6,0.3,1,0.1
      c0.2-0.1,0.2-0.1,0.1-0.3c-0.1-0.3-0.2-0.7-0.5-1c-0.1-0.1,0-0.2,0.1-0.2c0,0,0.1,0,0.1,0.1c0.2,0.2,0.3,0.4,0.4,0.6
      c0.1,0.2,0.1,0.3,0.2,0.5c0.2-0.1,0.3-0.3,0.3-0.4c0.1-0.3,0-0.5-0.1-0.8c-0.2-0.5-0.6-0.8-1-1.2c-0.2-0.1-0.3-0.3-0.5-0.4
      C23.5,37,22.9,37.4,22.3,37.8z"/>
    <path class="go-0 fixed-colors-svg" d="M2.6,19.9c-0.1,0-0.3,0-0.4,0c-0.5,0-0.9,0.1-1.3,0.4c-0.3,0.2-0.6,0.4-0.8,0.8C0,21.1,0,21.2,0,21.3
      c0,0.1,0.1,0.2,0.2,0.2c0.1,0,0.2-0.1,0.3-0.2c0.1-0.1,0.1-0.1,0.2,0c0.1,0,0.1,0.1,0,0.2c-0.1,0.1-0.2,0.1-0.3,0.2
      c0,0-0.1,0-0.1,0.1c0,0.2,0.2,0.5,0.4,0.5c0.3,0,0.6-0.1,0.8-0.2c0.3-0.1,0.5-0.4,0.9-0.5c0,0,0.1-0.1,0.1-0.1c0-0.1,0-0.1,0-0.2
      c0-0.4,0-0.8,0-1.3C2.6,20,2.6,20,2.6,19.9z"/>
    <path class="go-0 fixed-colors-svg" d="M28.8,20.4c-0.4-0.3-0.8-0.5-1.2-0.6c-0.2,0-0.4-0.1-0.6-0.1c0,0,0,0,0,0c0,0.6,0.1,1.1,0.1,1.7
      c0,0,0,0,0,0.1c0.1,0.1,0.3,0.2,0.4,0.3c0.3,0.2,0.5,0.3,0.9,0.3c0.2,0,0.4-0.1,0.5-0.3c0-0.1,0-0.2,0.1-0.3c-0.1,0-0.1,0-0.1-0.1
      c-0.1-0.1-0.2-0.1-0.3-0.2c-0.1,0,0-0.1,0-0.2c0.1,0,0.1,0,0.2,0c0.1,0.1,0.2,0.1,0.3,0.2c0.1,0.1,0.2,0,0.3-0.1
      c0-0.1,0-0.1,0-0.2C29.2,20.8,29,20.6,28.8,20.4z"/>
    <path class="go-0 fixed-colors-svg" d="M15.8,12.1c0-0.2-0.1-0.2-0.2-0.3c-0.1,0-0.1-0.1-0.2-0.1c-0.3-0.1-0.6-0.2-0.9-0.2c0,0.2,0,0.5-0.1,0.7
      c0,0.4,0,0.7,0,1.1c0,0.1,0,0.2,0.1,0.3c0.1,0.2,0.3,0.4,0.6,0.5c0,0,0.1,0,0.1,0c0.2-0.1,0.4-0.2,0.5-0.2c0.1,0,0.1-0.1,0.1-0.2"
      />
    <path class="go-0 fixed-colors-svg" d="M12.8,12C12.7,12,12.7,12,12.8,12c-0.1,0.4-0.1,0.7-0.1,1c0.1,0.3,0.1,0.6,0.3,0.8c0.2,0.2,0.4,0.2,0.6,0.1
      c0.2-0.1,0.3-0.2,0.5-0.4c0-0.1,0.1-0.1,0.1-0.2c0-0.4,0-0.8,0-1.2c0-0.2,0-0.4,0-0.6c-0.1,0-0.2,0.1-0.4,0.1
      C13.5,11.8,13.1,11.9,12.8,12z"/>
    <path class="go-0 fixed-colors-svg" d="M17.3,5.8c-0.1,0-0.2,0.2-0.2,0.3c0,0.1,0.1,0.3,0.2,0.3c0,0,0.1,0,0.1,0c0.1,0,0.2-0.1,0.2-0.3
      C17.7,5.9,17.5,5.7,17.3,5.8z"/>
    <path class="go-0 fixed-colors-svg" d="M8,6.1c-0.1,0-0.2,0.1-0.3,0.2c0,0.2,0.1,0.4,0.3,0.4c0.1,0,0.2-0.1,0.2-0.3C8.3,6.2,8.2,6.1,8,6.1z"/>
  </g>
  <circle class="go-0 fixed-colors-svg" cx="7.8" cy="6.4" r="1.2"/>
  <circle class="go-0 fixed-colors-svg" cx="17.1" cy="6.4" r="1.2"/>
</g>
</svg>
