<svg version="1.1"
   xmlns="http://www.w3.org/2000/svg" xmlns:xlink="http://www.w3.org/1999/xlink" xmlns:a="http://ns.adobe.com/AdobeSVGViewerExtensions/3.0/"
   x="0px" y="0px" width="531px" height="131px" viewBox="0 0 531 131" style="enable-background:new 0 0 531 131;"
   xml:space="preserve">
<defs>
</defs>
<g>
  <polygon class="hbase-0 fixed-colors-svg" points="92.9,47 83,47 83,79 19,79 19,47 0,47 0,131 19,131 19,99 83,99 83,131 103,131 102.8,47  "/>
  <path class="hbase-0 fixed-colors-svg" d="M205.1,88.7c5.7-4.3,8.6-10.4,8.6-18.2c0-6.3-1.9-11.8-5.8-16.1c-4.3-4.8-10.2-7.4-17.5-7.4H163h-52.1l0,33
    h0.1v51h52v0l0.2,0h28.6c7.4,0,13.2-2.4,17.5-7.1c4-4.3,6-9.6,6-15.9C215.3,99.3,211.9,92.9,205.1,88.7z M163,67h0.2h27.2
    c2.8,0,4.2,2.3,4.2,6.5c0,4.2-1.4,6.5-4.2,6.5h-27.2h-27.6h-5.2l0-13H163z M191.8,112h-28.6H130V99h33h28.8c2.8,0,4.2,2.3,4.2,6.5
    C196,109.7,194.6,112,191.8,112z"/>
  <path class="hbase-0 fixed-colors-svg" d="M9,26h29v12h9V11.5c0-3.2-1.1-5.8-3.1-8.2C41.9,1,39.2,0,36,0H10.7C7.5,0,5,1,3,3.3c-2,2.3-3,4.9-3,8.2V38h9
    V26z M9,11.5C9,9.5,9.5,9,10.7,9H36c1.3,0,2,0.5,2,2.5V17H9V11.5z"/>
  <path class="hbase-0 fixed-colors-svg" d="M239,26v12h9V11.5c0-3.2-1.1-5.8-3.1-8.2c-2-2.3-4.7-3.3-8-3.3h-12.6h-12.7c-3.2,0-5.7,1-7.7,3.3
    c-2,2.3-2.9,4.9-2.9,8.2V38h9V26h5.3h2.4h6.5H239z M215.3,17H210v-5.5c0-1.9,0.4-2.5,1.6-2.5h12.7h0h12.6c1.3,0,2.1,0.5,2.1,2.5V17
    h-14.7h-6.5H215.3z"/>
  <polygon class="hbase-0 fixed-colors-svg" points="531,9 531,0 490,0 490,38 531,38 531,29 499,29 499,23 529,23 529,14 499,14 499,9  "/>
  <path class="hbase-0 fixed-colors-svg" d="M136.9,25c3.3,0,6-1.1,8-3.9c1.9-2.4,2.8-5.2,2.8-8.7c0-3.4-0.9-6.1-2.8-8.6c-2-2.7-4.7-3.9-8-3.9H100v38h9V25
    H136.9z M109,9h27.9c1.3,0,1.9,1.4,1.9,4c0,2.6-0.6,4-1.9,4H109V9z"/>
  <polygon class="hbase-0 fixed-colors-svg" points="428,14 405,14 405,0 396,0 396,38 405,38 405,23 428,23 428,38 437,38 437,0 428,0  "/>
  <path class="hbase-0 fixed-colors-svg" d="M313.3,38H343v-9h-29.7c-2.4,0-3.3-1-3.3-3.2v-14c0-2.1,0.9-2.8,3.3-2.8H343V0h-29.7c-3.5,0-6.3,1-8.8,3.3
    c-2.4,2.3-3.6,5-3.6,8.5v14c0,3.5,1.1,6.4,3.6,8.7C307,36.8,309.8,38,313.3,38z"/>
  <path class="hbase-0 fixed-colors-svg" d="M301.8,47h-55.2c-6.9,0-12.6,2.8-17,7.9c-4.4,5.1-6.6,11.4-6.6,18.4V131h20v-27h11.8h19.5h0h0.6H306v27h20
    V73.3c0-7-2.4-13.3-6.8-18.4C314.8,49.8,308.8,47,301.8,47z M306,85h-63V73.3c0-4.2,1-6.3,3.7-6.3h55.2c2.8,0,4.2,2,4.2,6.3V85z"/>
  <path class="hbase-0 fixed-colors-svg" d="M410,79h-52.4c-2.7,0-4.1-1.8-4.1-5.9c0-4.2,1.4-6.1,4.1-6.1H430V47h-72.4c-6.9,0-12.6,2.8-17,7.9
    c-4.4,5.1-6.7,11.3-6.7,18.3c0,7,2.2,13.1,6.5,18c4.5,5.2,10.3,7.9,17.2,7.9H410c2.7,0,4.1,2.3,4.1,6.5c0,4.2-1.4,6.5-4.1,6.5h-72
    v19h72c6.9,0,12.7-2.6,17.2-7.8c4.2-5,6.3-11,6.3-18c0-7-2.1-13.2-6.3-18.2C422.6,81.8,416.9,79,410,79z"/>
  <polygon class="hbase-0 fixed-colors-svg" points="442,131 531,131 531,112 461,112 461,99 526,99 526,79 461,79 461,67 531,67 531,47 442,47  "/>
</g>
</svg>
