<svg version="1.1"
   xmlns="http://www.w3.org/2000/svg" xmlns:xlink="http://www.w3.org/1999/xlink" xmlns:a="http://ns.adobe.com/AdobeSVGViewerExtensions/3.0/"
   x="0px" y="0px" width="40px" height="54.2px" viewBox="0 0 40 54.2" style="enable-background:new 0 0 40 54.2;"
   xml:space="preserve">
<defs>
</defs>
<g>
  <path class="java-0 fixed-colors-svg" d="M25.5,0c1.2,1.4,1.6,3.4,1.3,5.2c-0.4,2-1.5,3.9-2.8,5.4c-1.1,1.3-2.3,2.4-3.6,3.4c-1.5,1.2-3,2.5-3.9,4.2
    c-0.8,1.4-1,3.1-0.4,4.6c0.9,2.6,2.9,4.5,4.1,6.9c-1.2-1.1-2.5-2.2-3.6-3.4c-1.2-1.3-2.3-2.6-3-4.2c-0.5-1.1-0.7-2.4-0.3-3.6
    c0.4-1.2,1.2-2.2,2.1-3.1c2.4-2.4,5.3-4.1,7.7-6.6c1.3-1.3,2.4-2.9,2.7-4.8C25.9,2.7,25.7,1.3,25.5,0L25.5,0z"/>
  <path class="java-0 fixed-colors-svg" d="M23.5,15c2.6-1.9,5.6-3.1,8.6-4c-2.4,1.5-4.9,2.9-7,4.9c-0.8,0.7-1.5,1.6-1.8,2.6c-0.3,0.8-0.1,1.6,0.2,2.3
    c0.6,1.3,1.5,2.3,2.2,3.5c0.6,1,0.7,2.3,0.3,3.3c-0.7,1.6-2.1,2.7-3.5,3.6c-0.2,0.1-0.3,0.3-0.6,0.3c0.9-0.9,1.7-2.1,1.7-3.4
    c0-1-0.6-1.8-1.2-2.5c-1.3-1.6-2.4-3.5-2.2-5.6C20.4,17.9,21.9,16.2,23.5,15L23.5,15z"/>
  <path class="java-0 fixed-colors-svg" d="M32.6,30.3c0.6-0.7,1.4-0.8,2.2-0.9c1.4-0.2,2.9,0.2,3.9,1.1c0.9,0.8,1.4,2,1.2,3.2c-0.2,1.4-1.1,2.5-2.1,3.4
    c-1.9,1.5-4.2,2.4-6.5,2.9c0.1-0.1,0.3-0.3,0.4-0.4c1.7-0.9,3.5-2,4.7-3.6c0.8-0.9,1.4-2.2,1.1-3.4c-0.3-1.5-1.7-2.5-3.1-2.6
    C33.9,29.9,33.2,30.1,32.6,30.3L32.6,30.3z"/>
  <path class="java-0 fixed-colors-svg" d="M6.1,31.5c2.4-1,5.1-1.7,7.7-1.7c-1.5,0.4-3.1,0.8-4.6,1.5c-0.3,0.2-0.7,0.4-0.9,0.7c-0.1,0.3,0.2,0.5,0.4,0.6
    c0.9,0.4,1.9,0.4,2.8,0.5c3.4,0.2,6.8,0.1,10.1-0.1c3.3-0.2,6.6-0.7,9.9-1.2c-0.7,0.3-1.5,0.7-2.1,1.1c-0.3,0.2-0.8,0.3-1.1,0.4
    c-4,0.9-8.2,1.2-12.3,1.2c-1.6,0-3.2,0-4.8-0.1c-1.8-0.1-3.5-0.3-5.3-0.7c-0.5-0.1-1-0.3-1.4-0.7c-0.2-0.2-0.2-0.5,0-0.7
    C4.9,31.9,5.5,31.7,6.1,31.5L6.1,31.5z"/>
  <path class="java-0 fixed-colors-svg" d="M9.2,37.1c0.7-0.5,1.5-0.8,2.3-1.1c-0.3,0.3-0.6,0.6-0.7,1.1c0,0.3,0.2,0.5,0.4,0.6c0.4,0.2,0.9,0.3,1.4,0.4
    c2.5,0.3,5.1,0.4,7.7,0.2c2.3-0.1,4.7-0.5,7-0.9c0.6,0.6,1.4,1,2.2,1.4c-2.8,0.8-5.6,1.3-8.5,1.5c-2.7,0.2-5.5,0.2-8.2-0.3
    c-1.1-0.2-2.2-0.4-3.1-0.9c-0.4-0.2-0.8-0.5-1-0.9C8.6,37.7,8.9,37.3,9.2,37.1L9.2,37.1z"/>
  <path class="java-0 fixed-colors-svg" d="M10.7,42.9c0.6-0.5,1.4-0.7,2.1-0.9c-0.2,0.2-0.7,0.5-0.5,0.9c0.4,0.5,1,0.5,1.5,0.6c2.2,0.3,4.5,0.5,6.7,0.3
    c1.7-0.1,3.4-0.4,5-0.7c0.9,0.6,1.9,1,3,1.5c-1.6,0.7-3.2,1.1-4.9,1.5c-2.8,0.5-5.7,0.6-8.6,0.1c-1.3-0.2-2.5-0.5-3.7-1.1
    c-0.4-0.3-0.9-0.5-1.1-1C10.2,43.5,10.4,43.1,10.7,42.9L10.7,42.9z"/>
  <path class="java-0 fixed-colors-svg" d="M3.4,46.6c1.2-0.4,2.5-0.7,3.7-0.8c0.5,0,1,0,1.5,0.3c-1.5,0.1-3.1,0.5-4.4,1.2c-0.3,0.2-0.6,0.4-0.8,0.7
    c0,0.4,0.5,0.5,0.8,0.7c1.9,0.7,4,0.9,6,1.1c6,0.5,12,0.4,18-0.2c2.3-0.3,4.5-0.5,6.7-1.1c0.7-0.2,1.5-0.5,2-1.1
    c0.3-0.4,0.1-0.8-0.2-1.1c0.4,0.3,1.1,0.6,1,1.2c-0.2,0.6-0.8,1-1.3,1.3c-1.7,0.9-3.5,1.3-5.4,1.7c-5.4,1.1-10.9,1.3-16.3,1.1
    c-4.1-0.1-8.2-0.5-12.3-1.2c-0.7-0.2-1.5-0.3-2.1-0.9c-0.3-0.4,0-0.9,0.3-1.2C1.3,47.4,2.3,47,3.4,46.6L3.4,46.6z"/>
  <path class="java-0 fixed-colors-svg" d="M36.3,51.1c1.3-0.5,2.8-0.9,3.7-2c-0.2,1.1-1.2,1.9-2.1,2.5c-1.9,1-4,1.4-6.1,1.8c-4.4,0.7-8.9,0.9-13.3,0.8
    c-3-0.1-6.1-0.2-9.1-0.8c-0.7-0.2-1.5-0.3-2.1-0.8c2.7,0.4,5.4,0.6,8.1,0.7c4.4,0.1,8.9,0,13.3-0.6C31.2,52.3,33.8,51.9,36.3,51.1
    L36.3,51.1z"/>
</g>
</svg>
