<svg version="1.1"
   xmlns="http://www.w3.org/2000/svg" xmlns:xlink="http://www.w3.org/1999/xlink" xmlns:a="http://ns.adobe.com/AdobeSVGViewerExtensions/3.0/"
   x="0px" y="0px" width="40px" height="40px" viewBox="0 0 40 40" style="enable-background:new 0 0 40 40;" xml:space="preserve">
<defs>
</defs>
<path class="js-0 fixed-colors-svg fixed-colors svg" d="M0,0v40h40V0H0z M21,31.3c0,3.9-2.1,5.4-5.4,5.4c-3,0-4.7-1.7-5.5-3.7h0.1h0h0l3.1-1.6c0.6,1,1.3,2.1,2.6,2.1
  c1.2,0,2.2-0.4,2.2-2.2V18h3V31.3z M30.3,36.9c-3.5,0-5.7-1.7-6.8-3.8h0l3.1-1.8c0.8,1.3,1.9,2.3,3.7,2.3c1.6,0,2.6-0.8,2.6-1.9
  c0-1.3-1-1.7-2.7-2.5l-0.9-0.4c-2.7-1.2-4.5-2.6-4.5-5.7c0-2.8,2.1-5,5.5-5c2.4,0,4.1,0.8,5.3,3l-2.9,1.9c-0.6-1.2-1.3-1.6-2.4-1.6
  c-1.1,0-1.8,0.7-1.8,1.6c0,1.1,0.7,1.6,2.3,2.3l0.9,0.4c3.2,1.4,5,2.8,5,5.9C36.5,35.1,33.9,36.9,30.3,36.9z"/>
</svg>
