<svg version="1.1"
   xmlns="http://www.w3.org/2000/svg" xmlns:xlink="http://www.w3.org/1999/xlink" xmlns:a="http://ns.adobe.com/AdobeSVGViewerExtensions/3.0/"
   x="0px" y="0px" width="395.1px" height="59px" viewBox="0 0 395.1 59" style="enable-background:new 0 0 395.1 59;"
   xml:space="preserve">
<style type="text/css">
  .kredytmarket-logo-0{fill:#353535;}
</style>
<defs>
</defs>
<g>
  <g>
    <path class="kredytmarket-logo-0" d="M10,26.5L21.2,14h12L19,29.3L34.5,48H22.2L10,33.2V48H0V0h10V26.5z"/>
    <path class="kredytmarket-logo-0" d="M48,48H37V26.8c0-2.4,0.5-4.4,1.1-6c0.6-1.6,1.6-2.9,2.8-3.9c1.2-1,2.8-1.8,4.6-2.2c1.8-0.4,4-0.7,6.3-0.7
      c1.2,0,2.4,0,3.6,0c1.2,0,2.5,0.2,4.1,0.2l-1.5,8.3c-0.4,0-1.1,0-2.1-0.1c-1,0-2,0-3,0c-1.1,0-2.1,0.1-2.8,0.3s-1.2,0.5-1.6,1
      c-0.4,0.4-0.4,1-0.5,1.7c-0.1,0.7,0.1,1.5,0.1,2.5V48z"/>
    <path class="kredytmarket-logo-0" d="M71.5,34c0,2,0.2,2.2,0.4,2.9c0.2,0.7,0.5,1.4,1,1.8c0.5,0.4,1.1,0.8,1.9,1c0.8,0.1,1.8,0.3,3.1,0.3
      c1.7,0,3.6,0,5.6,0c2,0,4.3-0.1,6.8-0.1l-1.5,7.9c-2.1,0.1-4.1,0.2-5.9,0.2s-3.8,0-6,0c-3,0-5.5-0.4-7.5-1c-2-0.6-3.6-1.6-4.8-2.8
      c-1.2-1.3-2.2-2.8-2.7-4.7c-0.5-1.9-0.9-4.1-0.9-6.7v-3.5c0-2.7,0.4-5,1-7s1.5-3.6,2.8-4.9c1.3-1.3,2.9-2.3,4.9-3
      c2-0.7,4.5-1,7.5-1c5.4,0,9.1,1.1,11.4,3.3c2.3,2.2,3.4,5.3,3.4,9.3v1.3c0,1.4,0,2.6-0.2,3.4c-0.2,0.9-0.4,1.6-0.9,2.2
      c-0.4,0.6-1,0.7-1.7,0.9c-0.7,0.2-1.6,0.1-2.7,0.1H71.5z M76.9,20.9c-1.1,0-2.1,0.1-2.8,0.3c-0.7,0.2-1.3,0.5-1.7,1
      c-0.4,0.5-0.7,0.9-0.8,1.8c-0.2,0.9-0.2,2.1-0.2,3.1h11c0-1-0.1-2.2-0.2-3.1c-0.1-0.8-0.4-1.4-0.9-1.9c-0.4-0.5-1-0.8-1.7-1
      C79,20.9,78.1,20.9,76.9,20.9z"/>
    <path class="kredytmarket-logo-0" d="M112.3,48c-3.1,0-5.8-0.4-7.8-0.9c-2.1-0.5-3.7-1.5-5-2.7c-1.3-1.2-2.2-2.9-2.7-4.8c-0.5-2-0.8-4.4-0.8-7.3
      v-2.9c0-2.9,0.3-5.3,0.9-7.4c0.6-2,1.5-3.7,2.7-4.9c1.2-1.3,2.7-2.2,4.6-2.7c1.8-0.6,4-0.9,6.5-0.9c1.6,0,3.3,0.2,4.8,0.5
      c1.4,0.3,2.6,0.8,3.6,1.4V0h10v41.2c0,2.5-0.7,4.3-1.8,5.3c-1.1,1-3.1,1.6-5.8,1.6H112.3z M119,40V27.9c0-1.4-0.3-2.5-0.5-3.3
      c-0.2-0.8-0.6-1.5-1.1-2c-0.5-0.5-1.2-0.8-2-1c-0.8-0.2-1.8-0.3-3-0.3c-1.2,0-2.3,0.1-3,0.3c-0.8,0.2-1.4,0.6-1.9,1.1
      c-0.4,0.6-0.9,1.3-1.1,2.3c-0.2,1-0.4,2.3-0.4,3.8V32c0,1.7,0.3,3,0.4,4c0.2,1,0.6,1.8,1,2.4c0.4,0.6,1.1,1.1,1.9,1.3
      c0.8,0.2,1.9,0.4,3.1,0.4H119z"/>
    <path class="kredytmarket-logo-0" d="M156,44.4c-1,0.6-2,1.1-3.2,1.4c-1.3,0.3-3,0.5-5.3,0.5c-4.1,0-7.2-0.9-9.3-2.6c-2.1-1.7-3.1-4.6-3.1-8.6V14
      h10v19c0,0.9,0,1.7,0.2,2.3c0.1,0.6,0.3,1.2,0.7,1.6c0.4,0.4,0.9,0.7,1.6,0.9c0.7,0.2,1.6,0.3,2.7,0.3c1.2,0,2.2-0.1,2.9-0.3
      c0.8-0.2,1.4-0.5,1.8-0.9c0.4-0.4,0.7-1,0.9-1.7c0.1-0.7,0.2-1.6,0.2-2.6V14h10v31c0,2.5-0.2,4.6-0.8,6.4
      c-0.6,1.8-1.5,3.2-2.8,4.3c-1.3,1.1-3,1.9-5.1,2.5c-2.1,0.5-4.6,0.8-7.7,0.8c-0.8,0-1.5,0-2.3,0c-0.8,0-1.6,0-2.6,0
      c-1,0-2.1,0-3.4,0c-1.3,0-2.8,0-4.6-0.1l1.5-8.2c1.5,0,2.8,0.2,3.9,0.2c1.1,0,2,0.1,2.8,0.1s1.5,0,2.1,0c0.6,0,1.2,0,1.8,0
      c1.4,0,2.5-0.2,3.4-0.3c0.9-0.1,1.6-0.5,2.2-0.9c0.6-0.4,0.9-1.1,1.1-1.9c0.2-0.8,0.3-1.9,0.3-3.1V44.4z"/>
    <path class="kredytmarket-logo-0" d="M182,22v12.4c0,1.1,0.3,2,0.4,2.7c0.1,0.7,0.5,1.3,0.9,1.7c0.4,0.4,1,0.8,1.6,0.9c0.7,0.1,1.6,0.3,2.7,0.3
      c0.3,0,0.8,0,1.4,0c0.6,0,1.2,0,1.8,0c0.6,0,1.2-0.1,1.7-0.1c0.5,0,0.9,0,1.1,0l-1.5,8.1c-0.2,0-0.6,0-1.1,0s-1,0-1.6,0
      c-0.6,0-1.2,0-1.8,0c-0.6,0-1,0-1.4,0c-2.9,0-5.2-0.3-7-0.7c-1.8-0.4-3.3-1.1-4.3-2.1c-1-1-1.9-2.4-2.3-4.1
      c-0.4-1.7-0.7-3.9-0.7-6.5V6.7l10-1.5V14h12l-1.5,8H182z"/>
  </g>
  <g>
    <path class="kredytmarket-logo-0" d="M200,48V24.7c0-3.9,0.8-6.6,2.9-8.3c2.1-1.6,4.9-2.5,8.7-2.5c2.8,0,4.9,0.4,6.6,1.3c1.7,0.9,2.9,2.1,3.5,3.6
      c0.7-1.5,1.9-2.7,3.7-3.6c1.7-0.9,3.9-1.3,6.6-1.3c1.9,0,3.5,0.2,5,0.5c1.5,0.4,2.7,1,3.8,1.8c1,0.8,1.8,1.9,2.3,3.3
      c0.6,1.4,0.8,3.1,0.8,5.1V48h-4V25c0-2.9-0.4-4.9-1.7-6.1c-1.3-1.1-3.3-1.7-6.2-1.7c-2.9,0-4.8,0.6-6.2,1.7
      c-1.3,1.1-1.8,3.1-1.8,5.9V48h-4V25c0-2.9-0.7-4.9-2-6.1c-1.3-1.1-3.5-1.7-6.4-1.7c-3.1,0-5.4,0.6-6.6,1.9c-1.2,1.3-2,3.2-2,6V48
      H200z"/>
    <path class="kredytmarket-logo-0" d="M278,44.1c0,1.4-0.1,2.5-0.6,3c-0.5,0.5-1.4,0.9-3,0.9H264c-4.4,0-7.4-0.9-9.3-2.4c-1.9-1.5-2.7-4.1-2.7-7.6
      v-0.9c0-3.6,0.8-6.2,2.7-7.8c1.9-1.6,5-2.4,9.3-2.4c2.9,0,5.3,0.3,7.1,0.8c1.7,0.6,2.9,1.3,3.9,2.3v-3.8c0-1.5-0.2-2.8-0.5-3.9
      c-0.3-1-0.9-1.9-1.6-2.5c-0.8-0.6-1.8-1.1-3.2-1.3c-1.4-0.3-3.1-0.4-5.2-0.4c-1.6,0-3.2,0-5,0c-1.7,0-3.3,0.1-4.7,0.2l0.7-3.3
      c1.2,0,2.6-0.1,4.2-0.1c1.6,0,3.2,0,4.8,0c2.6,0,4.7,0.2,6.5,0.6c1.8,0.4,3.2,1,4.3,1.9c1.1,0.9,1.7,2,2.2,3.4
      c0.5,1.4,0.6,3.1,0.6,5.1V44.1z M255,37.9c0,1.1,0.3,2.1,0.5,2.9c0.3,0.8,0.8,1.5,1.5,2c0.7,0.6,1.6,0.7,2.7,1
      c1.1,0.3,2.6,0.1,4.3,0.1h11v-7.1c0-1.4-0.3-2.5-0.7-3.3c-0.4-0.9-1.1-1.6-2-2.1c-0.9-0.5-1.9-0.9-3.2-1.1
      c-1.3-0.2-2.7-0.3-4.3-0.3h-0.8c-3.1,0-5.5,0.5-6.8,1.6c-1.3,1-2.1,2.9-2.1,5.5V37.9z"/>
    <path class="kredytmarket-logo-0" d="M288,48V26.1c0-2.2,0-4,0.5-5.5c0.5-1.4,1.1-2.6,2.1-3.5c1-0.9,2.1-1.4,3.6-1.7c1.4-0.3,3.1-0.4,5-0.4
      c1.4,0,2.7,0,4,0c1.3,0,2.3-0.1,3,0l-0.7,3.3c-0.6,0-1.4-0.1-2.6-0.1c-1.2,0-2.4,0-3.5,0c-1.6,0-2.9,0.1-4,0.4
      c-1,0.3-1.9,0.7-2.5,1.4c-0.6,0.6-1.2,1.5-1.4,2.6c-0.3,1.1-0.5,2.5-0.5,4.1V48H288z"/>
    <path class="kredytmarket-logo-0" d="M316,28.6L333,15h5.1l-18.2,14.7L340,48h-5.1L316,30.9V48h-3V0h3V28.6z"/>
    <path class="kredytmarket-logo-0" d="M346.5,32c0,3,0.1,4.6,0.4,6.2c0.3,1.6,0.8,2.9,1.6,3.8c0.8,0.9,1.8,1.6,3.2,2c1.3,0.4,3.1,0.6,5.2,0.6
      c1.8,0,3.6,0,5.3,0c1.7,0,3.5,0,5.5-0.1l-0.7,3.3c-1.4,0-3.1,0.1-4.9,0.1c-1.8,0-3.5,0-5.2,0c-2.8,0-5.1-0.3-7-1
      c-1.8-0.6-3.3-1.6-4.3-2.8c-1-1.3-1.7-2.8-2.1-4.7c-0.4-1.9-0.5-4-0.5-6.5v-4c0-2.7,0.1-5,0.7-6.9c0.5-1.9,1.3-3.4,2.4-4.6
      c1.1-1.2,2.5-2.1,4.3-2.6c1.7-0.6,3.8-0.8,6.2-0.8c4.8,0,8.2,1,10.3,3.1c2.1,2.1,3.2,5.3,3.2,9.8v1.5c0,0.9-0.1,1.6-0.2,2.1
      c-0.1,0.5-0.3,0.9-0.5,1.2c-0.3,0.3-0.6,0.3-1.1,0.4c-0.4,0.1-1,0-1.6,0H346.5z M356.5,17.1c-1.8,0-3.3,0.2-4.6,0.5
      c-1.3,0.3-2.3,1-3.1,1.8s-1.4,2-1.8,3.6c-0.4,1.6-0.5,4-0.5,6H367v-2c0-1.9-0.4-3.5-0.8-4.8c-0.4-1.3-1.1-2.3-1.9-3.1
      c-0.8-0.8-1.9-1.3-3.2-1.6C359.8,17.2,358.3,17.1,356.5,17.1z"/>
    <path class="kredytmarket-logo-0" d="M378,6.7l4-0.7v9h13.1l-0.7,3H382v18.6c0,1.6-0.1,2.9,0.1,3.9c0.2,1,0.5,1.8,1.1,2.4c0.6,0.6,1.3,0.8,2.3,1
      c1,0.2,2.3,0.1,3.9,0.1h4.9l-0.7,4h-4.2c-2.2,0-4-0.3-5.5-0.6c-1.5-0.3-2.6-1-3.5-1.8c-0.9-0.8-1.5-2-1.9-3.4
      c-0.4-1.4-0.5-3.3-0.5-5.5V6.7z"/>
  </g>
</g>
</svg>
