<svg version="1.1"
   xmlns="http://www.w3.org/2000/svg" xmlns:xlink="http://www.w3.org/1999/xlink" xmlns:a="http://ns.adobe.com/AdobeSVGViewerExtensions/3.0/"
   x="0px" y="0px" width="32.3px" height="40px" viewBox="0 0 32.3 40" style="enable-background:new 0 0 32.3 40;"
   xml:space="preserve">
<defs>
</defs>
<g>
  <polygon class="marionette-0 fixed-colors-svg" points="26.1,3.4 27.2,3 27,0.8 25.8,0 25.8,0 25.8,0 25.8,0 25.8,0 16.2,4.2 13.1,2.9 6.5,0 11.2,2 6.4,0
    5.2,0.8 5,3 6.1,3.4 5,14.4 5.4,14.3 6.5,3.5 12,5.7 6.8,7.7 6.8,9.3 8.6,9.8 9,9.8 11.6,15.6 12.7,16.7 9.7,9.6 16.1,7.1
    22.4,9.6 19.3,17 20.2,15.9 22.8,9.7 22.9,9.8 24.2,9.3 24.3,7.7 19.8,5.7 19.8,5.7 25.7,3.5 26.8,14.3 27.3,14.4   "/>
  <path class="marionette-0 fixed-colors-svg" d="M22.2,13.5L22.2,13.5C22.2,13.5,22.2,13.5,22.2,13.5L22.2,13.5z"/>
  <g>
    <path class="marionette-0 fixed-colors-svg" d="M9.1,25.2c0,0.1,0,0.1,0,0.2C9.1,25.3,9.1,25.2,9.1,25.2L9.1,25.2z"/>
    <polygon class="marionette-0 fixed-colors-svg" points="16,25.6 16,25.6 16,25.6    "/>
    <path class="marionette-0 fixed-colors-svg" d="M9.1,26c0,0.3,0,0.6,0,0.8C9.1,26.5,9.1,26.2,9.1,26z"/>
    <path class="marionette-0 fixed-colors-svg" d="M27.7,34.5c0,0.1,0,0.2,0,0.3C27.6,34.7,27.6,34.6,27.7,34.5z"/>
    <path class="marionette-0 fixed-colors-svg" d="M27.7,34.2C27.7,34.2,27.7,34.2,27.7,34.2C27.7,34.2,27.7,34.2,27.7,34.2z"/>
    <path class="marionette-0 fixed-colors-svg" d="M9.2,20.8c0-0.2,0-0.3,0-0.5c0,0.1,0,0.2,0,0.2C9.2,20.6,9.2,20.7,9.2,20.8z"/>
    <polygon class="marionette-0 fixed-colors-svg" points="10.1,13.5 10.1,13.5 10.1,13.5 10.1,13.5 10.1,13.5 10.1,13.5    "/>
    <path class="marionette-0 fixed-colors-svg" d="M5,18.6C5,18.6,5,18.6,5,18.6C5,18.6,5,18.6,5,18.6z"/>
    <path class="marionette-0 fixed-colors-svg" d="M5,18.5C5,18.5,5,18.5,5,18.5C5,18.5,5,18.5,5,18.5C5,18.5,5,18.5,5,18.5z"/>
    <path class="marionette-0 fixed-colors-svg" d="M5,18.4C5,18.4,5,18.4,5,18.4C5,18.4,5,18.4,5,18.4z"/>
    <path class="marionette-0 fixed-colors-svg" d="M23.1,27.2c0,2.1-0.2,4.2-0.3,6.2c-0.1,1.5-0.3,3-0.4,4.6c-0.1,0.7-0.2,1.3-0.3,2c0,0,0,0,0,0
      c0,0,9.1-0.9,9.1-1c2.3-10.2,0.1-24,0.1-24l-4.1-0.7l-0.4-0.1l-4.6-0.8l0,0l0,0l0,0c0,0,0,0,0,0l-2,2.4L19.3,17l-3.2,3.7l-3.3-4
      l-1-1.2l-1.7-2l-4.6,0.8L5,14.4l-4,0.7c0,0-2.2,13.7,0.1,24c0,0.1,9.1,1,9.1,1s-1-6.9-1.1-14.8c1,1.4,2.2,2.6,3.5,3.7
      c0.9,0.8,1.9,1.6,2.9,2.3c0.1,0.1,0.3,0.2,0.4,0.3c0,0,0.1,0.1,0.2,0.1c0,0,0.1-0.1,0.1-0.1c0.1-0.1,0.2-0.1,0.3-0.2
      c1-0.7,1.9-1.4,2.8-2.2c1.3-1.1,2.5-2.2,3.5-3.5c0.1-0.2,0.3-0.3,0.4-0.5L23.1,27.2z M4.8,32.7c0.1,0.7,0.1,1.4,0.2,2.1
      c0,0.3,0.1,0.7,0.1,1c0,0.3-0.4,0.3-0.4,0.1c-0.1-0.3-0.1-0.7-0.1-1c0-0.3-0.1-0.7-0.1-1c-0.1-0.7-0.1-1.4-0.2-2
      c-0.2-2.6-0.2-5.1-0.1-7.7C4.2,22,4.7,18,4.7,18s0-0.4,0.3-0.4c0.2,0,0.1,0.4,0.1,0.9c-0.3,2.3-0.4,4.3-0.5,6.5
      C4.5,27.6,4.5,30.1,4.8,32.7z M9.1,26.7c0-0.2,0-0.5,0-0.8C9.1,26.2,9.1,26.5,9.1,26.7z M9.1,25.2L9.1,25.2c0,0,0,0.1,0,0.2
      C9.1,25.3,9.1,25.2,9.1,25.2z M16,25.6C16,25.6,16,25.6,16,25.6C16,25.6,16,25.6,16,25.6L16,25.6z M16.3,26.3
      c-0.1,0.1-0.2,0.1-0.3,0l-6.7-6.2c0-0.2,0-0.4,0-0.6l6.8,6.3l6.8-6.3l0.1,0.5L16.3,26.3z M27.6,34.9c0-0.1,0-0.2,0-0.3
      C27.6,34.6,27.6,34.7,27.6,34.9z M27.7,34.3C27.7,34.2,27.7,34.2,27.7,34.3C27.7,34.2,27.7,34.2,27.7,34.3z M28,30.7
      c-0.1,1.4-0.2,2.8-0.4,4.3c0,0.2,0,0.4-0.1,0.5c0,0,0,0,0,0c0,0,0,0,0,0c0,0,0,0,0,0c0,0.1,0,0.2,0,0.2c0,0.1,0,0.2-0.1,0.2
      c-0.1,0.1-0.2,0.1-0.3,0c-0.1-0.1,0-0.3,0-0.4c0-0.2,0.1-0.4,0.1-0.6c0.1-0.7,0.2-1.5,0.2-2.2c0.1-1.4,0.2-2.9,0.2-4.3
      c0-1.4,0-2.8,0-4.2c0-1.2-0.1-2.4-0.2-3.5c-0.1-1-0.2-2-0.3-3c0,0,0,0,0,0h0c0-0.1,0-0.4,0.2-0.5c0.3-0.1,0.7,1.4,0.9,5.5
      c0.1,1.3,0,2.6,0,3.9C28.2,28,28,29.3,28,30.7z"/>
  </g>
</g>
</svg>
