<svg version="1.1"
   xmlns="http://www.w3.org/2000/svg" xmlns:xlink="http://www.w3.org/1999/xlink" xmlns:a="http://ns.adobe.com/AdobeSVGViewerExtensions/3.0/"
   x="0px" y="0px" width="77px" height="40.3px" viewBox="0 0 77 40.3" style="enable-background:new 0 0 77 40.3;"
   xml:space="preserve">
<defs>
</defs>
<g>
  <g transform="translate(0.738281, 121.593)">
    <path class="mysql-0 fixed-colors-svg" d="M-0.7-85.3h3v-9.9l3.8,8.8C6.6-85.4,7.2-85,8.4-85c1.3,0,1.6-0.4,2.1-1.4l3.7-8.8v9.9h3v-9.9
      c0-1-0.4-1.5-1.2-1.7c-1.9-0.6-3.3-0.1-3.8,1.2L8.3-87l-3.8-8.7c-0.6-1.3-2-1.8-4-1.2c-0.8,0.2-1.3,0.7-1.3,1.7V-85.3z"/>
  </g>
  <g transform="translate(100.444, 142.416)">
    <path class="mysql-0 fixed-colors-svg" d="M-80.4-114.2h2.9v5.5c0,0.3,0.1,1,1.5,1c0.7,0,5.5,0,5.5,0v-6.6h2.2c0,0,0,9.1,0,9.2c0,2.2-2.8,2.8-4,2.8
      h-8.2v-2c0,0,8.3,0,8.3,0c1.6-0.2,1.7-1,1.7-1.3v-0.8h-5.8c-2.5,0-4.1-1.1-4.2-2.3C-80.4-108.6-80.3-114.2-80.4-114.2z"/>
  </g>
  <g transform="translate(171.496, 124.557)">
    <path class="mysql-0 fixed-colors-svg" d="M-137.5-88.3h7.5c0.9,0,1.9-0.1,2.6-0.4c1.1-0.5,1.9-1.1,1.9-2v-1.9c0-0.7-0.9-1.7-2.1-2.1
      c-0.6-0.2-1.7-0.6-2.4-0.6h-3.1c-1,0-1.4-0.1-1.5-0.8c0-0.1,0.1,0.1,0.1,0v-1.2c0-0.1-0.1-0.1-0.1-0.2c0.1-0.5,0.3-0.7,1.2-0.8
      c0.1,0,0.1-0.1,0.2-0.1h7.7v-2h-7.6c-1,0-1.7,0.3-2.2,0.4c-1.5,0.5-2.3,1.4-2.3,2.7v1.5c0,1.1,1.4,2.1,3.6,2.3c0.2,0,0.6,0,0.8,0
      h2.6c0.1,0,0.2,0,0.3,0c0.8,0.1,1.2,0.2,1.4,0.5c0.1,0.1,0.2,0.3,0.2,0.5v1.5c0,0.2-0.2,0.4-0.4,0.6c-0.2,0.2-0.6,0.1-1.1,0.1
      c-0.1,0-0.2-0.2-0.3-0.2h-7.2V-88.3z"/>
  </g>
  <g transform="translate(308.656, 124.557)">
    <path class="mysql-0 fixed-colors-svg" d="M-247.7-91.1c0,1.8,1.5,2.6,4.1,2.8c0.2,0,0.7-0.1,0.9-0.1h6.9v-2h-7c-1.5,0-2,0.1-2-0.8v-9.2h-3V-91.1z"/>
  </g>
  <g transform="translate(236.74, 124.666)">
    <path class="mysql-0 fixed-colors-svg" d="M-189.7-91.1v-6.1c0-1.5,1.1-2.7,3.3-3c0.2,0,0.5-0.3,0.8-0.3h4.8c0.2,0,0.6,0.2,0.8,0.3
      c2.1,0.3,3.3,1.4,3.3,3v6.1c0,1.3-0.5,2-1.6,2.4l2.4,2.3h-3l-2-2l-2,0h-2.7c-0.5,0-1,0-1.6-0.1C-188.9-89-189.7-89.7-189.7-91.1z
       M-186.7-91.3C-186.7-91.2-186.8-91.3-186.7-91.3c0.1,0.7,0.7,0.8,1.8,0.8h2.3l-2.1-1h3l1.9,1.5c0.3-0.2,0.3-0.6,0.4-0.9
      c0-0.1-0.2-0.3-0.2-0.3V-97c0-0.1,0.2-0.2,0.2-0.3c-0.1-0.7-0.6-1.1-1.6-1.1h-3.9c-1.1,0-1.8,0.6-1.8,1.4V-91.3z"/>
  </g>
  <g transform="translate(241.59, -4.64258)">
    <path class="mysql-0 fixed-colors-svg" d="M-166.6,26.5c-1.6,0-2.8,0.1-3.8,0.5c-0.3,0.1-0.8,0.1-0.8,0.5c0.2,0.2,0.2,0.4,0.3,0.6
      c0.2,0.4,0.7,0.9,1,1.2c0.4,0.3,0.8,0.6,1.2,0.9c0.8,0.5,1.6,0.7,2.4,1.2c0.4,0.3,0.7,0.6,1.2,0.9c0.2,0.2,0.5,0.4,0.5,0.5
      c0,0,0,0,0,0c0-0.2-0.1-0.4-0.2-0.6c-0.2-0.2-0.3-0.4-0.5-0.6c-0.6-0.8-1.3-1.4-2-2c-0.6-0.4-2-1-2.2-1.7c0,0,0,0,0,0
      c0.4,0,0.9-0.2,1.3-0.3c0.7-0.2,1.1-0.1,1.8-0.3c0.3-0.1,0.8-0.2,0.8-0.3c0-0.1,0-0.1,0-0.2c0-0.4-0.5-0.8-0.8-1.2
      c-1-0.9-2-1.7-3.1-2.4c-0.6-0.4-1.4-0.6-2-1c-0.2-0.1-0.6-0.2-0.7-0.4c-0.3-0.4-0.5-1-0.8-1.5c-0.6-1.1-1.1-2.3-1.6-3.4
      c-0.3-0.8-0.6-1.5-1-2.2c-2-3.3-4.2-5.3-7.6-7.3c-0.7-0.4-1.6-0.6-2.5-0.8c-0.5,0-1-0.1-1.5-0.1c-0.3-0.1-0.6-0.5-0.9-0.7
      c-1.1-0.7-4-2.2-4.8-0.2c-0.5,1.3,0.8,2.5,1.2,3.2c0.3,0.5,0.7,1,1,1.5c0.2,0.3,0.2,0.7,0.3,1c0.3,0.9,0.6,1.8,1,2.6
      c0.2,0.4,0.4,0.8,0.7,1.2c0.2,0.2,0.4,0.3,0.5,0.7c-0.3,0.4-0.3,1-0.4,1.5c-0.7,2.2-0.4,4.9,0.6,6.6c0.3,0.5,1,1.6,2.1,1.2
      c0.9-0.4,0.9-1.5,1.1-2.5c0.1-0.2,0.3-0.4,0.3-0.5c0,0,0,0,0,0c0,0.5,0.4,1.1,0.6,1.6c0.6,1,1.3,2,2.2,2.6c0.5,0.3,1.1,1,1.1,1.2
      c0,0,0-0.6,0-0.6s0.4,0,0.4,0c-0.1,0-0.3,0-0.4-0.1c-0.3-0.3-0.7-0.6-1-1c-0.8-1.1-1.5-2.2-2.2-3.5c-0.3-0.6-0.6-1.2-0.8-1.8
      c-0.1-0.2-0.1-0.6-0.3-0.7c-0.3,0.4-0.7,0.8-0.9,1.3c-0.4,0.8-0.4,1.9-0.5,2.9c-0.1,0,0,0-0.1,0c-0.6-0.1-0.8-0.8-1.1-1.3
      c-0.6-1.4-0.7-3.6-0.2-5.2c0.1-0.4,0.7-1.7,0.5-2.1c-0.1-0.4-0.5-0.6-0.7-0.9c-0.3-0.4-0.5-0.8-0.7-1.2c-0.5-1.1-0.7-2.3-1.2-3.4
      c-0.2-0.5-0.6-1.1-1-1.5c-0.4-0.5-0.8-0.9-1.1-1.5c-0.1-0.2-0.2-0.6-0.1-0.8c0-0.2,0.1-0.2,0.3-0.3c0.3-0.2,1,0.1,1.2,0.2
      c0.7,0.3,1.3,0.7,1.9,1.1c0.3,0.2,0.6,0.8,0.9,0.8c0.1,0,0.3,0,0.4,0c0.6,0,1.3-0.1,1.9,0.1c1,0.3,2,0.7,2.8,1.3
      c2.6,1.6,4.7,3.9,6.1,6.6c0.2,0.4,0.3,0.8,0.5,1.3c0.4,0.9,0.9,1.9,1.3,2.8c0.4,0.9,0.8,1.9,1.4,2.6c0.3,0.4,1.5,0.6,2,0.8
      c0.4,0.2,1,0.3,1.3,0.5c0.7,0.4,1.3,0.9,2,1.3C-167.6,25.6-166.7,26.1-166.6,26.5z"/>
  </g>
  <g transform="translate(272.504, 24.8027)">
    <path class="mysql-0 fixed-colors-svg" d="M-217.5-20c-0.3,0-0.6,0-0.8,0.1c0,0,0,0,0,0c0,0,0,0,0,0c0.2,0.3,0.4,0.5,0.6,0.8c0.1,0.3,0.3,0.6,0.4,0.9
      c0,0,0,0,0,0c0.3-0.2,0.4-0.5,0.4-1c-0.1-0.1-0.1-0.3-0.2-0.4C-217.1-19.7-217.3-19.8-217.5-20z"/>
  </g>
</g>
</svg>
