<svg version="1.1"
   xmlns="http://www.w3.org/2000/svg" xmlns:xlink="http://www.w3.org/1999/xlink" xmlns:a="http://ns.adobe.com/AdobeSVGViewerExtensions/3.0/"
   x="0px" y="0px" width="50px" height="45.5px" viewBox="0 0 50 45.5" style="enable-background:new 0 0 50 45.5;"
   xml:space="preserve">
<defs>
</defs>
<g>
  <path class="objc-0 fixed-colors-svg" d="M36.7,37.2l0.3,0l0.2-0.4c0.1-0.2,0.1-0.3,0.1-0.4l0,0c0.1,0.1,0.1,0.2,0.3,0.3l0.3,0.4l0.3,0l-0.7-0.8l0.4-1
    l-0.3,0l-0.2,0.5c0,0.1-0.1,0.2-0.1,0.3l0,0c-0.1-0.1-0.1-0.2-0.2-0.3l-0.3-0.4l-0.3,0l0.7,0.8L36.7,37.2z"/>
  <path class="objc-0 fixed-colors-svg" d="M39.1,36.9c0.2,0,0.4-0.1,0.5-0.2l-0.1-0.2c-0.1,0.1-0.2,0.1-0.4,0.1c-0.4,0.1-0.7-0.2-0.8-0.6
    c-0.1-0.5,0.2-0.8,0.6-0.8c0.1,0,0.3,0,0.4,0l0-0.2c-0.1,0-0.2,0-0.4,0c-0.6,0.1-0.9,0.5-0.8,1.1C38.1,36.7,38.6,37,39.1,36.9z"/>
  <path class="objc-0 fixed-colors-svg" d="M40.5,36.7c0.5-0.1,0.8-0.5,0.7-1.1c-0.1-0.5-0.5-0.9-0.9-0.8c-0.5,0.1-0.8,0.5-0.7,1.1
    C39.6,36.4,40,36.8,40.5,36.7z M40.2,35c0.4-0.1,0.6,0.3,0.7,0.6c0.1,0.4-0.1,0.8-0.5,0.8c-0.4,0.1-0.6-0.3-0.7-0.6
    C39.7,35.5,39.8,35.1,40.2,35z"/>
  <path class="objc-0 fixed-colors-svg" d="M42,36.4c0.3-0.1,0.6-0.2,0.7-0.4c0.1-0.2,0.2-0.4,0.2-0.7c0-0.3-0.2-0.5-0.3-0.6c-0.2-0.1-0.4-0.2-0.8-0.1
    c-0.2,0-0.3,0.1-0.5,0.1l0.3,1.8C41.7,36.5,41.8,36.5,42,36.4z M41.8,34.8c0.5-0.1,0.8,0.2,0.8,0.6c0.1,0.5-0.2,0.8-0.6,0.9
    c-0.1,0-0.2,0-0.2,0l-0.2-1.4C41.6,34.8,41.7,34.8,41.8,34.8z"/>
  <polygon class="objc-0 fixed-colors-svg" points="44.4,36.1 44.3,35.9 43.5,36 43.5,35.3 44.1,35.2 44.1,35.1 43.4,35.2 43.3,34.6 44.1,34.5 44,34.3
    43.1,34.4 43.3,36.2   "/>
  <path class="objc-0 fixed-colors-svg" d="M8.7,40.8c0-0.3,0.2-0.4,0.2-0.4c-0.1-0.2-0.3-0.2-0.4-0.1c-0.2,0-0.3,0.1-0.4,0.2c-0.1,0-0.2-0.1-0.4,0
    c-0.2,0-0.3,0.2-0.4,0.3c-0.1,0.3,0.1,0.8,0.3,1c0.1,0.1,0.2,0.2,0.4,0.2c0.1,0,0.2-0.1,0.3-0.1c0.2,0,0.2,0.1,0.4,0
    c0.1,0,0.2-0.2,0.3-0.3C9,41.3,9,41.2,9,41.2C9,41.2,8.7,41.1,8.7,40.8z"/>
  <path class="objc-0 fixed-colors-svg" d="M8.3,40.1c0.1-0.1,0.1-0.2,0.1-0.3c-0.1,0-0.2,0.1-0.3,0.2C8,40,8,40.2,8,40.3C8.1,40.3,8.2,40.2,8.3,40.1z"/>
  <polygon class="objc-0 fixed-colors-svg" points="12.1,32 11.5,38.3 15.6,33.4 12.1,31.8  "/>
  <polygon class="objc-0 fixed-colors-svg" points="17.6,18.2 12.3,31.5 12.5,31.6 15.7,32.8 21.1,19.4  "/>
  <path class="objc-0 fixed-colors-svg" d="M19.1,15.2c-0.2,0.2-0.4,0.4-0.5,0.7l-0.8,1.9l0.2,0.1l3.2,1.2l0.7-1.8c0.1-0.2,0.1-0.4,0.1-0.5
    c0-0.3-0.1-0.6-0.3-0.8c-0.2-0.2-0.4-0.4-0.7-0.5l-0.8-0.3C20.2,15,20.1,15,19.9,15C19.6,15,19.3,15.1,19.1,15.2z"/>
  <polygon class="objc-0 fixed-colors-svg" points="14.7,24.2 8.3,25.3 8.4,25.5 8.9,28.6 13.2,28   "/>
  <polygon class="objc-0 fixed-colors-svg" points="20,23.5 18.5,27.1 30.1,25.3 27.4,22.1 20,23.4  "/>
  <path class="objc-0 fixed-colors-svg" d="M49.7,3.7L47.6,3c0,0-0.1,0-0.1,0c-0.1,0-0.2,0-0.2,0.1c-0.2,0.1-0.7,0.4-1,0.4c-0.1,0-0.2,0-0.3,0
    c-0.2,0-0.9,0-2-1.1c-0.6-0.6-1.7-1.2-3.5-1.6c-1.3-0.4-2.4-0.6-2.4-0.6c0,0,0,0,0,0c0,0-1.1-0.2-2.7-0.2c-1.5,0-2.9,0.1-4.1,0.4
    c-1.7,0.4-3,1-4.1,1.9c-0.1,0.1-0.2,0.3-0.1,0.5C27.2,2.9,27.4,3,27.5,3c0,0,0.1,0,0.1,0c0,0,1.9-0.6,3.8-0.6
    c1.6,0,2.7,0.4,3.3,1.1c0.4,0.5,0.7,1.1,1,1.7L0,10.8L0,11l5.3,33.5l20.6-3.2c-0.1,0.2-0.3,0.6-0.3,1.1c-0.1,0.4,0,0.8,0.1,1.1
    c0.2,0.4,0.4,0.8,0.9,1.1c1.2,0.8,2.2,0.9,2.7,0.9c0.1,0,0.2,0,0.2,0c0.1,0,0.1,0,0.2,0c0.3,0,0.6,0,1-0.3c0.5-0.3,0.8-0.7,0.9-1.3
    c0.1-0.3,0.4-1.7,0.9-3.6L47.4,38l-5-30c0.3-0.3,0.5-0.4,0.5-0.4c0.2,0,0.3-0.1,0.5-0.1c0.5,0,0.9,0.1,1.2,0.4c0.5,0.4,0.9,1,0.9,1
    c0.1,0.1,0.1,0.1,0.2,0.2l2.1,0.7c0,0,0.1,0,0.1,0c0.1,0,0.3-0.1,0.4-0.2c0.1-0.1,1.4-2.5,1.6-5.6C50,3.9,49.9,3.7,49.7,3.7z
     M35,3.3c-0.8-1-2.2-1.3-3.6-1.3c-2,0-3.9,0.6-3.9,0.6c2.2-1.8,5.5-2.2,7.9-2.2c1.5,0,2.6,0.2,2.6,0.2s3.4,0.6,5.1,1.6l0,0l0,0
    c0,0,0.1,0.1,0.3,0.4c0.1,0.3,0.3,0.6,0.3,1.1c0,0.3-0.1,0.7-0.2,1.2c0,0.1-0.1,0.2-0.2,0.3c-0.1,0.1-0.2,0.2-0.3,0.3
    c-0.2,0.1-0.4,0.3-0.7,0.5c0,0-0.1,0.1-0.1,0.1c-0.1,0.1-0.2,0.2-0.3,0.3c-0.2,0.2-0.4,0.5-0.6,0.8c-0.1,0.3-0.3,0.6-0.3,1
    c0,0,0,0,0,0c0,0.2-0.1,0.4-0.1,0.6c-0.1-0.1-0.1-0.1-0.2-0.2c-0.4-0.3-0.7-0.6-1.1-0.7c-0.6-0.3-1.1-0.3-1.6-0.3
    c-0.5,0-0.9,0.1-1.2,0.2c0,0-0.1,0-0.1,0c0-0.2,0-0.4-0.1-0.7c0-0.1,0-0.1-0.1-0.2c-0.1-0.3-0.1-0.8-0.3-0.8h0V5.8V5.7
    c0,0,0.5-0.2,1.2-0.2c0.4,0,0.8,0,1.2,0.1c0.4,0.1,0.7,0.2,1.1,0.5c0.1,0,0.2,0.1,0.2,0.1c0.1,0.1,0.2,0,0.3-0.1c0-0.1,0-0.1,0-0.2
    c0,0,0-0.1-0.1-0.1c-0.5-0.3-1-0.6-1.5-0.7c0,0-0.1,0-0.1,0c-0.4-0.1-0.8-0.1-1.2-0.1c-0.2,0-0.3,0-0.5,0c-0.2,0-0.4-0.1-0.5-0.1
    c-0.2,0-0.3-0.1-0.3-0.1h0c0,0,0,0.1,0,0.1C35.8,4.4,35.5,3.9,35,3.3z M35.8,31.6c0.9,0.2,1.5,0.5,2,0.9c0.5,0.4,0.7,0.8,0.9,1.3
    l0.2,0.4l0.2-0.4c0,0,0.1-0.3,0.2-0.7c0.1-0.4,0.2-1,0.2-1.6c0-0.8-0.1-1.7-0.6-2.5c-0.5-0.9-1.3-1.8-2.5-2.5l-0.1-0.1l-0.1,0.1
    L36,26.5c0.2-0.8,0.4-1.6,0.6-2.3l3.1-0.4l-0.5-3.4l-0.2,0l-1.5,0.2c0.1-0.3,0.1-0.4,0.1-0.5l0,0c0-0.1,1.7-7.3,2.8-9.2
    c0.2-0.3,0.3-0.5,0.5-0.8l3.7,23.1L33.9,35c0.3-1.3,0.6-2.6,0.9-3.8C35.1,31.3,35.4,31.5,35.8,31.6z M32.9,21.7l-0.1,0.4l-9.6-11.6
    c-0.1-0.1-0.3-0.3-0.4-0.3c-0.2-0.1-0.3-0.1-0.5-0.1c-0.3,0-0.5,0.1-0.8,0.3v0L20.5,11c-0.2,0.1-0.3,0.3-0.3,0.4
    c-0.1,0.2-0.1,0.3-0.1,0.5c0,0.3,0.1,0.6,0.3,0.8l10.7,13l0.5-0.4l-0.1,0.3l-0.1,0.1l0.1,0.1l-3.5,10L6.6,39.4L2.4,12.5l33.7-5.4
    c0,0.1,0,0.3,0.1,0.4c0.1,1.4,0,2.9-0.4,4.6c-0.7,3-2,6.9-2,7L33,21.3l-0.4,0.1L32.9,21.7z M7.1,42.3l-0.4-2.6l21-3.4l-1,2.9
    L7.1,42.3z M36.2,12.1c0.3-1.4,0.5-2.7,0.4-4.1c0.1,0,0.1,0,0.2-0.1c0.3-0.1,0.6-0.1,1-0.1c0.4,0,0.9,0.1,1.4,0.3
    c0.5,0.2,0.9,0.5,1.4,1.1c0,0,0-0.2,0.1-0.2c0,0,0-0.1,0-0.1h0.1c0,0,0,0.3-0.1,0.4c-0.2,0.4-0.5,0.9-0.7,1.3
    c-1.1,1.8-2.5,7.9-2.8,9.2c-0.5-0.4-1-0.5-1.4-0.7c-0.4-0.1-0.8-0.2-1.1-0.2c-0.2,0-0.3,0-0.4,0C34.5,18.1,35.6,14.8,36.2,12.1z
     M44.6,33.6l0.4,2.8l-12,1.9c0.2-0.9,0.5-1.9,0.7-2.9L44.6,33.6z M32.6,38.8c-0.1,0.4-0.2,0.9-0.3,1.2c0,0.1-0.1,0.3-0.1,0.4
    c-0.4,1.8-0.8,3-0.8,3.4c-0.3,1.2-1.2,1.3-1.6,1.3c-0.1,0-0.2,0-0.2,0s-0.1,0-0.2,0c-0.4,0-1.4-0.1-2.5-0.8c-1.5-1-0.4-2.8-0.4-2.8
    l0.1-0.2l0.1-0.4l0.4-1.3l0.1-0.4l1-2.9l0.1-0.4l3.3-9.5l0.1-0.4l0,0l0.2-0.6l0.1-0.4l0.2-0.7l0.5-1.5l0.1-0.4l0.1-0.4l0.1-0.4l0,0
    l0.1-0.4l0.6-1.8c0,0,0.1,0,0.1,0l0,0l0,0l0,0l0,0l0,0c0,0,0.2,0,0.4,0c0.2,0,0.6,0,1,0.2c0.4,0.1,0.9,0.3,1.4,0.7c0,0,0,0,0.1,0
    c0,0.1-0.1,0.3-0.1,0.5c0,0.1-0.1,0.2-0.1,0.4c-0.2,0.7-0.4,1.7-0.7,2.9c0,0.1-0.1,0.3-0.1,0.4c-0.1,0.5-0.2,1-0.4,1.5
    c-0.1,0.3-0.1,0.5-0.2,0.8c0,0.1-0.1,0.3-0.1,0.4c0,0.2-0.1,0.4-0.1,0.6c-0.2,0.9-0.5,1.9-0.7,2.8c0,0.1-0.1,0.3-0.1,0.4
    c-0.3,1.4-0.7,2.9-1,4.2c0,0.1-0.1,0.3-0.1,0.4c-0.2,1-0.5,2-0.7,2.9C32.6,38.5,32.6,38.6,32.6,38.8z M45.8,8.6
    c-0.2-0.2-0.5-0.6-0.8-0.9c-0.4-0.3-0.9-0.5-1.4-0.5c-0.2,0-0.4,0-0.6,0.1c-0.1,0-0.3,0.1-0.5,0.3c-0.1,0.1-0.2,0.2-0.3,0.3
    c-0.3,0.3-0.6,0.6-0.9,1c0-0.6,0.2-1,0.3-1.4c0.1-0.3,0.2-0.5,0.4-0.7c0-0.1,0.1-0.1,0.2-0.2c0.1-0.1,0.1-0.1,0.2-0.2
    c0.3-0.2,0.5-0.4,0.8-0.6c0.2-0.1,0.3-0.2,0.4-0.4c0.1-0.1,0.2-0.3,0.3-0.5C44,4.5,44,4.1,44,3.7c0-0.3-0.1-0.6-0.1-0.9
    c0.9,0.9,1.6,1,2.1,1c0.1,0,0.2,0,0.3,0c0.3,0,0.7-0.2,1-0.4c0,0.2-0.1,0.8-0.3,1.5C46.7,6,46.4,7.3,45.8,8.6z M48.6,8.3l-2-0.5
    c0.4-1,0.6-1.9,0.8-2.7c0.1-0.3,0.1-0.6,0.2-0.9l2,0.5C49.3,6.2,48.9,7.4,48.6,8.3z"/>
  <path class="objc-0 fixed-colors-svg" d="M40.7,6.9C40.7,6.9,40.7,6.9,40.7,6.9c0.2,0,0.3-0.1,0.3-0.3c0-0.1-0.1-0.3-0.3-0.3c0,0-0.1,0-0.1,0
    c-0.1,0-0.2,0.1-0.2,0.2C40.5,6.8,40.6,6.9,40.7,6.9z"/>
  <circle class="objc-0 fixed-colors-svg" cx="27.4" cy="42" r="0.3"/>
  <path class="objc-0 fixed-colors-svg" d="M33.7,24l0.1-0.4l0-0.2l0.1-0.4l0.1-0.4l0.4-1.2l0.1-0.4l0.2-0.5c0-0.1,0-0.2-0.1-0.3c-0.1,0-0.2,0-0.3,0.1
    l-0.2,0.7l-0.1,0.4l-0.3,0.8l-0.1,0.4l-0.1,0.4l-0.3,1l-0.1,0.4l-0.2,0.6l-0.5,1.6l-0.1,0.4l-2.9,8.6l-0.1,0.4l-1,2.9l-0.1,0.4
    l-0.4,1.3l-0.1,0.2c0,0.1,0,0.1,0,0.2c0,0,0.1,0.1,0.1,0.1c0.1,0,0.2,0,0.3-0.1c0,0,0,0,0,0l0.1-0.4l0.4-1.3l0.1-0.4l1-2.9l0.1-0.4
    l2.7-8.2l0.1-0.4l0.8-2.4L33.7,24z"/>
  <path class="objc-0 fixed-colors-svg" d="M44.8,6.2c-0.3-0.1-0.5-0.1-0.7-0.1c-0.3,0-0.5,0-0.5,0c-0.1,0-0.2,0.1-0.2,0.2c0,0.1,0.1,0.2,0.2,0.2l0,0h0
    c0,0,0.2,0,0.4,0c0.2,0,0.4,0,0.6,0.1c0.2,0.1,0.4,0.2,0.6,0.4c0.1,0.1,0.2,0.1,0.3,0c0.1-0.1,0.1-0.2,0-0.3
    C45.3,6.5,45,6.3,44.8,6.2z"/>
</g>
</svg>
