<svg version="1.1"
     xmlns="http://www.w3.org/2000/svg" xmlns:xlink="http://www.w3.org/1999/xlink" xmlns:a="http://ns.adobe.com/AdobeSVGViewerExtensions/3.0/"
     x="0px" y="0px" width="368.5px" height="380px" viewBox="0 0 368.5 380" style="enable-background:new 0 0 368.5 380;"
     xml:space="preserve">
<defs>
</defs>
<g>
    <polygon class="postgres-sql-0 fixed-colors-svg" points="193.1,4.1 193.1,4.1 193.1,4.1  "/>
    <polygon class="postgres-sql-0 fixed-colors-svg" points="0.2,105.7 0.2,105.7 0.2,105.7  "/>
    <path class="postgres-sql-0 fixed-colors-svg" d="M368,229c-0.3-1.3-0.8-2.7-1.5-4c-0.6-1.1-1.3-2.2-2.1-3.2c-1.4-1.7-3-3-4.6-4c-1.2-0.7-2.3-1.3-3.4-1.7
        c-1.6-0.6-3.1-0.9-4.5-1.1c-1.4-0.2-2.6-0.3-3.9-0.3c-1.5,0-2.9,0.1-4.2,0.3c-1.4,0.2-2.8,0.4-4.2,0.7l0,0
        c-8.2,1.7-14.4,2.4-19.1,2.5c13.2-22.2,23.6-45.4,31.3-67.4c4.8-13.8,8.4-27.1,10.9-39.5c2.5-12.4,3.8-23.9,3.9-34.3
        c0-6.5-0.5-12.6-1.8-18.3c-0.7-2.9-1.5-5.7-2.7-8.4c-1.2-2.7-2.7-5.4-4.6-7.9c-6.6-8.4-13.9-15.4-21.6-21C324.4,13,312,7.6,300,4.4
        c-12-3.2-23.8-4.4-34.4-4.4c-13.6,0-25.4,1.8-34.1,3.7c-4.3,0.9-7.9,1.9-10.5,2.7c-0.2,0.1-0.4,0.1-0.5,0.2
        C212,5.1,203,4.2,193.1,4.1c-0.6,0-1.3,0-1.9,0c-10.8,0-20.8,1.6-29.7,4.5c-5.8,1.9-11.2,4.4-16.1,7.3c-3.4-1.2-7.8-2.5-12.8-3.9
        c-6.2-1.7-13.5-3.4-21.5-4.7c-8-1.3-16.6-2.2-25.5-2.2c-9.7,0-19.7,1-29.6,3.8c-7.4,2.1-14.8,5.3-21.7,9.9
        c-5.1,3.4-10,7.6-14.2,12.7c-3.2,3.8-6.1,8-8.6,12.6C7.7,51,4.8,58.8,2.9,67.6C1,76.3,0,85.9,0,96.5c0,3,0.1,6.1,0.2,9.3
        c0.1,2.1,0.3,4.3,0.6,6.9c0.6,4.8,1.5,10.8,2.8,17.6c2.2,12.1,5.4,26.9,9.6,42.7c3.1,11.8,6.7,24,10.7,35.8
        c3,8.9,6.3,17.5,9.9,25.6c2.7,6.1,5.5,11.8,8.6,17.2c2.3,4,4.7,7.8,7.3,11.3c2,2.6,4,5.1,6.3,7.4c3.4,3.4,7.1,6.5,11.6,8.9
        c2.2,1.2,4.7,2.2,7.3,2.9c2.6,0.7,5.4,1.1,8.2,1.1c2.9,0,5.8-0.4,8.5-1.2c4.2-1.2,8-3.2,11.4-5.7c0.8-0.6,1.5-1.2,2.2-1.8
        c0.4,0.4,0.7,0.8,1.1,1.2c1.6,1.7,3.2,3,4.8,4c2.3,1.6,4.6,3.5,6.9,4.5c2.3,1,4.5,3.1,6.8,3.1h0c4.6,2,11.4,1.7,19.6,1.7
        c3.8,0,7.9-0.7,12.2-1.5c4.2-0.8,8.6-2.3,13-4.2c0,0.4,0,0.6,0,1c0.2,4.8,0.3,9.6,0.4,14.3c0.3,8.2,0.8,16.2,1.6,23.8
        c0.4,3.8,0.9,7.4,1.6,10.9c0.7,3.5,1.5,6.8,2.8,10.2c0.2,0.5,0.5,1.5,0.9,2.8c0.7,2.3,1.8,5.4,3.3,8.9c1.2,2.6,2.7,5.5,4.7,8.3
        c1.5,2.2,3.3,4.3,5.5,6.4c3.3,3.1,7.4,5.8,12.2,7.6c4.8,1.8,10.1,2.8,15.8,2.8c4.3,0,8.7-0.5,13.4-1.5c3.4-0.7,6.8-1.5,10.4-2.6
        c3.1-0.9,6.4-2.1,9.6-3.5c2.8-1.3,5.7-2.9,8.5-4.8c2.4-1.7,4.8-3.6,7-5.8c3.9-3.8,7.4-8.5,10.2-13.8c2.2-4,4-8.4,5.6-13.2
        c2.4-7.2,4.2-15.4,5.5-25c1.3-9.3,2.1-19.9,2.4-32c0.2-1.8,0.4-3.5,0.6-5l2.9,0.3l0.3,0c1.3,0.1,2.7,0.1,4,0.1
        c6.6,0,13.5-0.7,20.1-1.9c3.3-0.6,6.6-1.4,9.7-2.3c3.1-0.9,6.2-2,9.1-3.4c3.7-1.7,7.1-3.6,10.3-5.6c2.4-1.5,4.6-3,6.6-4.6
        c1.5-1.2,3-2.4,4.3-3.7c1-1,2-2,2.9-3.1c1.4-1.6,2.7-3.4,3.9-5.7c0.6-1.1,1.2-2.4,1.6-4c0.5-1.6,0.8-3.4,0.8-5.6
        C368.5,232,368.4,230.6,368,229z M356.7,236.6c-0.5,1.1-1.1,2.1-1.8,3c-1.4,1.9-3.2,3.7-5.3,5.5c-4.2,3.6-9.9,7.3-16.4,10.3
        c-2.3,1.1-4.9,2-7.6,2.8c-2.7,0.8-5.6,1.5-8.6,2c-6,1.1-12.3,1.7-18.2,1.7c-3.2,0-6.2-0.2-9.1-0.6c-2-0.3-3.9-0.7-5.7-1.3
        c-0.4,3.9-1,8.5-1.5,13.5c-1.3,10.7-2.8,23.2-4.3,33.7c-1,7.1-1.9,13.3-2.6,17.7c-1.2,6.9-2.8,12.9-5.3,18.1
        c-2.5,5.3-5.8,9.9-10.2,13.6c-2.9,2.5-6.2,4.6-10,6.3c-5,2.3-10.7,4.1-17.4,5.6c-4.4,0.9-8.5,1.4-12.3,1.4
        c-6.8,0-12.6-1.5-17.4-3.9c-4.8-2.4-8.5-5.8-11.3-9.3c-1.9-2.3-3.4-4.8-4.7-7.1c-1.7-3.1-2.9-6-3.8-8.3c-0.6-1.4-1-3-1.4-4.7
        c-0.4-1.8-0.7-3.7-1.1-5.9c-0.6-4.4-1.1-9.7-1.5-15.7c-0.8-12-1.2-26.9-1.2-42.9c0-2.6,0-5.2,0-7.8c-0.7,0.6-1.3,1.2-2,1.7
        c-3.5,2.8-7.1,5-10.8,6.6c-7.3,3.3-14.7,4.3-21.1,4.3c-6.9,0-12.9-1.2-17-2.2c-1.8-0.5-3.7-1.1-5.6-1.9c-1.9-0.8-3.7-1.8-5.4-3
        c-1.1-0.8-2.2-1.7-3.1-2.9c-0.5-0.7-1-1.4-1.4-2.3c-0.5-1-0.8-2.2-0.8-3.5c0-1,0.2-2.1,0.6-3c0.4-1,0.9-1.8,1.5-2.5
        c1.2-1.5,2.8-2.5,4.5-3.4c1.2-0.6,2.5-1.1,3.9-1.6c1.9-0.7,4.1-1.2,6.7-1.8c4.8-1,8.4-1.9,11-2.7c2.6-0.8,4.3-1.6,5.5-2.3
        c0.8-0.5,1.5-1,2.1-1.6c0.9-0.8,1.8-2,3.1-3.5c1.2-1.5,2.6-3.4,4.5-5.6c0-0.2,0-0.4,0-0.6c-6.4-0.2-12.6-1.7-18.2-4.2
        c-1-0.4-1.9-0.9-2.8-1.4c-0.2,0.2-0.5,0.5-0.7,0.8c-1.6,1.7-4,4.3-6.9,7.4c-5.7,6.3-13.5,15.1-21.7,24.9l0,0
        c-2.4,2.9-4.9,5.3-7.5,7.2c-2.6,1.9-5.3,3.3-8.1,4.1c-1.9,0.5-3.8,0.8-5.6,0.8c-3.9,0-7.6-1.1-11-3c-3.4-1.9-6.5-4.5-9.4-7.6
        c-5.8-6.2-10.9-14.6-15.7-24.3c-3.2-6.5-6.2-13.5-9-20.9c-11.2-29.6-19.6-64.7-23.9-88.3c-1.2-6.7-2.1-12.5-2.7-17
        c-0.3-2.4-0.5-4.4-0.6-6.1c-0.2-3-0.2-5.9-0.2-8.7c0-13.3,1.6-24.7,4.7-34.3c3-9.7,7.4-17.6,12.9-24c3.6-4.3,7.7-7.8,12.1-10.7
        c5.9-3.9,12.2-6.6,18.8-8.5c8.8-2.5,17.9-3.4,26.8-3.4c16.4,0,32.2,3.2,44,6.3c7.9,2.1,14,4.3,17.2,5.4c5-3.4,10.7-6.3,17.1-8.5
        c8-2.7,16.9-4.2,27-4.2c0.6,0,1.1,0,1.7,0c9.6,0.2,18.5,1.4,26.7,3.4c0,0,0.1,0,0.1,0c0.2-0.1,0.3-0.1,0.4-0.2
        c0.2-0.1,0.5-0.2,0.8-0.3c0.7-0.2,1.6-0.5,2.7-0.9c2.3-0.7,5.6-1.6,9.7-2.5c8.1-1.8,19.5-3.6,32.3-3.6c13.2,0,28,1.9,42.6,7.6
        c14.6,5.7,29,15.4,41,30.7c1.3,1.7,2.4,3.6,3.2,5.6c0.9,2,1.6,4.2,2.1,6.6c1.1,4.7,1.6,10.1,1.6,16c0,9.4-1.3,20.3-3.6,32.2
        c-2.4,11.9-5.9,24.8-10.6,38.1c-8.9,25.7-21.8,53.1-38.4,78.3c0.2,0.2,0.5,0.4,0.9,0.6c0.9,0.5,2.2,1.1,4,1.6
        c2.5,0.7,5.9,1.2,10.5,1.2c5.7,0,13.2-0.7,22.9-2.8c2.4-0.5,4.4-0.7,6.3-0.7c1,0,2,0.1,3,0.3c1,0.2,2,0.5,3,1.1
        c0.7,0.4,1.3,0.9,1.9,1.6c0.8,0.9,1.3,2,1.6,3.1c0.2,0.6,0.2,1.2,0.2,1.8C357.6,234.3,357.2,235.6,356.7,236.6z"/>
    <polygon class="postgres-sql-0 fixed-colors-svg" points="338.1,265.7 338.1,265.7 338.1,265.7    "/>
    <path class="postgres-sql-0 fixed-colors-svg" d="M271.5,110.4c-3,0.7-5.3,1.8-7,3c-1.2,0.8-2.1,1.7-2.9,2.6c-1.1,1.3-1.9,2.7-2.5,4.4c-0.8,2.2-1.2,4.9-1.2,8
        c0,3.4,0.5,7.3,1.5,11.4c0.9,4.1,2.3,8.4,3.9,12.7c3.2,8.6,7.5,17.3,11.4,24.7c2.6,5,5.1,9.3,7.1,12.9c1.1,2,2.1,3.7,2.8,5.2
        c0.4,0.8,0.7,1.4,1,2.1c0.9,2.1,1.8,4,2.8,5.8c1.3-2.7,2.2-5.3,2.9-8c1.2-4.7,1.7-9.4,1.7-14.2c0-5.9-0.7-11.8-1.4-17.9
        c-0.7-6-1.8-12.1-1.8-18.2c0-0.7-0.3-1.5-0.3-2.2v0c1-7,1.4-12.8,2.3-18.1c0.8-5,1.6-9.6,1.7-14.6c-4.1-0.5-7.7-0.7-10.9-0.7
        C278.1,109.2,274.5,109.6,271.5,110.4z M283.7,118.3l0,1h0h0h0l0,0h0c0,0,0-0.8,0-0.8c0,0.7-0.3,1-0.7,1.7c-0.4,0.8-1,1.3-1.8,2.1
        c-1.5,1.5-3.5,2.7-6,3.1c-0.4,0.1-0.8,0-1.2,0c-1.7,0-3.2-0.5-4.5-1.2c-1.3-0.7-2.4-1.6-3.1-2.5c-0.5-0.6-1-1.2-1-1.9v0
        c0-0.1,0.1-0.2,0.1-0.3c0-0.7,0.4-1.4,0.9-1.9c0.5-0.5,1.1-1,1.9-1.4c1.5-0.8,3.5-1.4,5.8-1.7c1-0.1,2-0.2,2.9-0.2
        c1.3,0,2.4,0.1,3.4,0.4c1,0.2,1.8,1.1,2.4,1.7C283.3,116.7,283.6,117.7,283.7,118.3z"/>
    <path class="postgres-sql-0 fixed-colors-svg" d="M166.4,117.7c-1.3-1.9-2.9-3.3-4.6-4.3c-1.2-0.7-2.5-1.2-4-1.6c-1.9-0.5-4.1-0.8-6.4-0.8
        c-4.5,0-9.5,0.9-14.2,2.4c-4.8,1.5-9.3,3.5-13,5.4c-2.4,1.3-4.4,2.6-5.8,3.6c-0.4,0.3-0.7,0.5-0.9,0.7c0,0.5,0,1,0.1,1.6
        c0.1,1.4,0.2,3.1,0.3,5.1c0.2,4,0.4,9.1,0.4,14.9c0,8-0.4,17.5-1.8,27.5c-0.3,2.2-0.5,4.5-0.5,6.6c0,9,2.6,17.3,6.9,24.2
        c4.4,6.9,10.5,12.3,17.5,15.5c4.7,2.1,9.7,3.3,15,3.3c0.3-1.3,0.3-2.6,0.7-3.9c1.3-4.3,3.4-8.7,4.4-13.3v0c2-4.7,4.3-9.1,6.3-14
        c2-4.8,4.1-10.2,5.3-16.9c0.8-4.5,1.4-9.6,1.4-15.5c0-8.8-1.1-19.5-3.9-32.9C168.8,122.1,167.7,119.6,166.4,117.7z M165.5,123.4
        L165.5,123.4c-1,0.5-0.6,0.8-0.8,1.2c-0.2,0.4-0.6,0.7-0.9,1.1c-0.5,0.7-1.3,1.3-2.1,1.9c-1.6,1.2-3.8,2.2-6.3,2.2
        c-0.4,0-0.9,0-1.3-0.1c-1.8-0.2-3.3-1-4.6-1.9c-1.3-0.9-2.4-2-3.2-3.1c-0.5-0.7-0.9-1.5-1.2-2.2c-0.1-0.4-0.2-0.9-0.2-1.4
        c0-0.1,0,0.8,0,0.6l0.2-0.4h0.5c0.1,0,0.3-1.4,0.4-1.5c0.5-0.5,1.1-1.3,1.8-1.6c1.3-0.5,2.9-1,4.6-1c1,0,2-0.1,3,0.1
        c1.5,0.2,3,0.5,4.2,1c1.3,0.5,2.3,1,3.2,1.7c0.6,0.5,1.1,1,1.4,1.7c0.2,0.4,0.7,0.9,0.7,1.4C165.1,123.1,165.5,123.3,165.5,123.4z"
        />
    <path class="postgres-sql-0 fixed-colors-svg" d="M124.3,220.8c-1.5-1.3-2.9-2.6-4.2-4c-9.1-9.7-14.7-23-14.7-37.8c0-2.7,0.2-5.4,0.6-8.1
        c1.3-9.4,1.7-18.4,1.7-26.1c0-4.2-0.1-8-0.3-11.2c-0.1-3.3,0-6-0.1-8.2c-0.1-1.4,0.2-2.6,0.2-3.6c0,0,0-0.1,0-0.1
        c0-0.2-0.3-0.6-0.3-1.1c0-3.4,0-13.4,2.2-26c2.2-12.6,6.2-27.9,14.2-41.8c3.7-6.4,8.2-12.6,13.7-18c-2.8-0.9-6.4-2-10.3-3.1
        c-11.2-3-26.2-6-41.2-6c-6.9,0-13.8,0.6-20.3,2.1c-6.5,1.5-12.7,3.8-18.2,7.3c-3.7,2.3-7.1,5.1-10.1,8.4c-4.1,4.5-7.6,10-10.3,16.9
        C23.1,69.5,21,81.2,21,96c0,2.6,0.1,5.4,0.2,8.2c0.1,1.5,0.3,3.7,0.6,6.4c0.4,2.7,0.8,6,1.5,9.6c1.2,7.3,3,16.3,5.2,26.2
        c4.4,19.7,10.7,42.8,18.2,63.3c5,13.6,10.6,26,16.5,35.2c3.3,5.3,6.8,9.4,10,12.2c1.7,1.5,3.4,2.6,4.9,3.3c1.7,0.8,3.2,1.1,4.6,1.1
        c0.9,0,1.8-0.1,2.7-0.4c0.9-0.3,2-0.7,3-1.3c2.2-1.2,4.6-3.3,7.2-6.5l0,0C107.9,238.6,119.2,226.3,124.3,220.8z"/>
    <path class="postgres-sql-0 fixed-colors-svg" d="M342.3,58.2c-0.6-1.3-1.2-2.4-1.9-3.2C329.7,41.2,317,32.8,304,27.6c-13-5.1-26.5-6.9-38.7-6.9
        c-10.9,0-20.7,1.4-28.1,2.9c5.6,2.5,10.8,5.3,15.7,8.5c15.8,10.3,27.4,23.5,35.5,35.7c5.4,8.2,9.3,15.9,11.9,22.2
        c1.5,3.6,2.5,6.7,3.2,9.2c0.4,1.3,0.6,2.5,0.8,3.6c0.1,0.6,0.1,1.1,0.1,1.7c0,0.3,0,0.7-0.1,1.1c0,0.2-0.1,0.5-0.1,0.7
        c0,0.9,0.1,1.7,0.1,2.6c0,6.4-0.9,11.8-1.8,17.2c-0.8,5.4-2,10.6-2,16.8v0c0,0.6,0.1,1.2,0.1,1.8c0,5.2,0.7,10.9,1.5,17
        c0.7,6,1.5,12.4,1.5,19.1c0,5.5-0.5,11.2-2,16.9c-1.3,5-3.3,10-6.4,15c0.6,0.8,1.2,1.5,1.8,2.3c10.7-16.8,19.7-34.6,27-52.1
        c8.3-19.9,14.3-39.4,17.7-56.4c2.3-11.3,3.4-21.6,3.4-30.1c0-4-0.3-7.6-0.7-10.7C343.9,62.8,343.2,60.3,342.3,58.2z"/>
    <path class="postgres-sql-0 fixed-colors-svg" d="M298.8,251.4c7.7,0,16.8-1.2,23.8-3.3c2.3-0.7,4.4-1.4,6.1-2.2c3.4-1.6,6.5-3.3,9.2-5.1
        c2.4-1.6,4.4-3.2,5.9-4.6c-0.1,0-0.2,0-0.2,0c-10.3,2.1-18.5,3-25.1,3c-6.1,0-10.8-0.7-14.6-1.9c-3.4-1-5.9-2.5-7.8-4
        c-0.4,0.1-0.8,0.3-1.2,0.4c-0.8,0.2-1.5,0.4-2.1,0.6c-0.9,0.3-1.7,0.5-2.5,0.9c-1,0.5-1.8,1-2.5,1.7c-0.4,0.4-0.8,0.9-1.2,1.6
        c-0.4,0.7-0.8,1.7-1.1,3c-0.4,1.5-0.6,3.3-0.6,5.7c0,0.6,0,1.2,0.1,1.9c0.2,0.1,0.5,0.4,1.1,0.6c0.5,0.2,1.2,0.5,2.1,0.7
        c1.1,0.3,2.5,0.5,4,0.7C294.1,251.3,296.4,251.4,298.8,251.4z"/>
    <path class="postgres-sql-0 fixed-colors-svg" d="M273.9,254.5c0.2-2.1,0.4-3.7,0.5-4.9c0-0.9-0.1-1.7-0.1-2.5c0-3.8,0.4-7,1.3-9.8c0.9-2.8,2.2-5.2,3.8-7
        c1.1-1.3,2.2-2.3,3.4-3.1c1.6-1.1,3.2-1.8,4.6-2.4c1-0.4,2-0.7,2.8-0.9c0,0,0-0.1-0.1-0.1c-0.9-1.3-2.3-3-3.9-5
        c-3.2-4.1-7.3-9.6-10.5-17.4c-0.2-0.4-0.6-1.3-1.2-2.4c-0.6-1.1-1.4-2.5-2.3-4.2c-1.8-3.2-4.1-7.3-6.6-11.9
        c-4.9-9.2-10.5-20.5-14.2-31.9c-2.5-7.6-4.2-15.2-4.2-22.5c0-3.4,0.4-6.7,1.3-9.8c0.9-3.1,2.3-6.2,4.4-8.8c1.4-1.8,3-3.4,5-4.8
        c2.6-1.9,5.5-3.3,8.9-4.4c4.5-1.4,9.7-2.1,15.8-2.1c3,0,6.3,0.2,9.7,0.5c0,0,0,0,0-0.1c-1.1-3.2-2.8-7.4-5.1-12.1
        c-4.7-9.4-12.1-20.9-22.4-31.4c-6.9-7-15.2-13.5-24.9-18.8c-13-7-28.6-11.7-47.4-12c-0.5,0-1,0-1.5,0c-11.4,0-20.9,2.1-28.8,5.6
        c-7.9,3.5-14.4,8.5-19.8,14.3c-3.6,3.9-6.7,8.2-9.3,12.8c-3.5,6.1-6.3,12.5-8.4,19c-2.8,8.6-4.6,17.1-5.6,24.3
        c-0.5,3.5-0.8,6.6-1,9.4c5-2.8,11.4-5.7,18.4-7.6c4.9-1.3,10-2.2,15.1-2.2c3.5,0,6.9,0.4,10.3,1.4c3.3,1,6.5,2.7,9.3,5.1
        c1.9,1.6,3.5,3.6,4.9,5.8c1.9,3,3.2,6.5,4.1,10.5c3,13.9,4.2,25.4,4.2,35.1c0,9.8-1.3,17.8-3.1,24.6c-1.8,6.7-4,12.2-6.1,16.9
        c-1.4,3.1-3.5,5.9-3.5,8.6v0c-2,4.7-3.5,8.9-4.7,12.7c-0.4,1.2-0.7,2.3-1,3.3c1.2-0.3,2.3-0.4,3.4-0.4c1.6,0,3.1,0.3,4.3,0.6
        c1.2,0.4,2.2,0.8,3,1.1c2.9,1.2,5.3,3.2,7.2,5.5c1.9,2.4,3.4,5.1,4.3,8.1c0.3,1.1,0.6,2.3,0.8,3.5c0.2,0.6,0.3,1.1,0.3,1.8
        c-0.3,9.3-0.4,18.7-0.4,27.7c0,10.3,0.2,20.2,0.5,29.1c0.3,8.9,0.9,16.8,1.5,23c0.4,4.2,1,7.6,1.5,10.1c0.3,1.4,0.6,2.5,0.9,3.1
        c1,2.5,2.2,5.3,3.8,8.1c1.6,2.8,3.6,5.5,6.1,7.7c1.7,1.5,3.6,2.8,5.9,3.8c3.1,1.3,6.8,2.2,11.5,2.2c2.9,0,6.3-0.3,10.1-1.2
        c6.8-1.5,12.3-3.3,16.5-5.5c4.3-2.2,7.4-4.8,9.9-8c1.7-2.1,3.1-4.6,4.3-7.5c1.6-3.8,2.9-8.5,3.8-14c0.6-3.6,1.4-8.8,2.2-14.7
        c0.8-5.9,1.7-12.6,2.5-19.3C271.6,275.9,273.1,262.4,273.9,254.5z"/>
    <path class="postgres-sql-0 fixed-colors-svg" d="M169.4,257.9c2.7-2.2,5.4-5,7.9-8.5c0.4-0.5,0.6-1.1,0.8-1.7c0.2-0.6,0.3-1.3,0.3-2.1c0-1.5-0.4-3.1-1.1-4.7
        c-0.7-1.6-1.7-3-2.8-4c-0.7-0.7-1.4-1.1-2.1-1.4c-0.7-0.3-1.4-0.6-1.9-0.7c-0.5-0.2-1-0.2-1.4-0.2c-0.5,0-0.9,0.1-1.6,0.4
        c-0.7,0.4-1.8,1.1-3.1,2.6l0,0c-2.3,2.6-4,4.7-5.5,6.6c-1.5,1.9-2.8,3.6-4.5,5.3c-1.1,1.1-2.4,2.1-3.8,3.1
        c-1.9,1.2-4.1,2.3-6.7,3.2c-3.5,1.2-7.8,2.3-13.7,3.5c-2.3,0.5-4.2,1-5.6,1.5c-0.8,0.3-1.4,0.5-1.9,0.8c0.9,0.6,2.3,1.4,3.6,1.9
        c1.2,0.5,2.4,0.9,3.4,1.1c3.5,0.9,8.7,1.9,14.4,1.9c4,0,8.3-0.5,12.6-1.8C161,263.4,165.3,261.3,169.4,257.9z"/>
</g>
</svg>
