<svg version="1.1"
   xmlns="http://www.w3.org/2000/svg" xmlns:xlink="http://www.w3.org/1999/xlink" xmlns:a="http://ns.adobe.com/AdobeSVGViewerExtensions/3.0/"
   x="0px" y="0px" width="40px" height="40px" viewBox="0 0 40 40" style="enable-background:new 0 0 40 40;" xml:space="preserve">
<defs>
</defs>
<g>
  <path class="ps-0 fixed-colors-svg" d="M0,0v40h40V0H0z M37,37H3V3h34V37z"/>
  <g>
    <path class="ps-0 fixed-colors-svg" d="M10,10.6c0,0,2.6-0.1,4.7-0.1c2.1,0,3.7,0.5,4.7,1.4c1,0.8,1.7,2.3,1.7,3.9s-0.5,2.9-1.4,3.9
      c-1.2,1.2-2.3,1.9-4.7,2c-0.6,0-1,0-1,0V27h-4V10.6L10,10.6z M14,18.8c0,0,0.4,0,0.9,0c1.8,0,2.9-1.1,2.9-2.8
      c0-1.5-0.8-2.8-2.5-2.8c-0.7,0-1.3,0-1.3,0V18.8z"/>
    <g>
      <path class="ps-0 fixed-colors-svg" d="M22.2,23c0.7,1,2.4,1.2,3.5,1.2c1.1,0,1.7-0.3,1.7-1c0-0.6-0.3-1.2-1.7-1.7c-2.5-0.8-3.4-1.8-3.4-3.3
        c0-2.3,1.7-4,4.7-4c1.4,0,3.1,0.5,3.1,0.8v2.8c0-0.3-1.9-1-2.9-1c-0.9,0-1.3,0.4-1.3,1c0,0.6,0.5,0.9,2,1.4
        c2.3,0.8,3.3,2,3.3,3.8c0,2.3-2,4.1-5.4,4c-1.2,0-2.6-0.5-3.6-1v-3H22.2z"/>
    </g>
  </g>
</g>
</svg>
