<svg version="1.1"
   xmlns="http://www.w3.org/2000/svg" xmlns:xlink="http://www.w3.org/1999/xlink" xmlns:a="http://ns.adobe.com/AdobeSVGViewerExtensions/3.0/"
   x="0px" y="0px" width="33px" height="35px" viewBox="0 0 33 35" style="enable-background:new 0 0 33 35;" xml:space="preserve">
<defs>
</defs>
<g>
  <path class="rabbit-mq-0 fixed-colors-svg" d="M31.6,14h-11c-0.6,0-0.6-0.1-0.6-0.7V1.8C20,1,18.9,0,18.1,0h-3.9C13.3,0,13,1,13,1.8v11.4
    c0,0.6-0.7,1.1-1.3,1.1l-3.7,0c-0.6,0-1.1-0.5-1.1-1.1l0-11.6C6.9,0.8,6.2,0,5.4,0H1.4C0.6,0,0,1,0,1.8v32.1C0,34.7,0.5,35,1.3,35
    h30.4c0.8,0,1.4-0.3,1.4-1.1V15.7C33,14.9,32.4,14,31.6,14L31.6,14z M27,26.2c0,1-0.8,1.8-1.8,1.8h-3.4c-1,0-1.8-0.8-1.8-1.8v-3.4
    c0-1,0.8-1.8,1.8-1.8h3.4c1,0,1.8,0.8,1.8,1.8V26.2z"/>
</g>
</svg>
