<!-- Generator: Adobe Illustrator 20.1.0, SVG Export Plug-In  -->
<svg version="1.1"
   xmlns="http://www.w3.org/2000/svg" xmlns:xlink="http://www.w3.org/1999/xlink" xmlns:a="http://ns.adobe.com/AdobeSVGViewerExtensions/3.0/"
   x="0px" y="0px" width="31.4px" height="40.2px" viewBox="0 0 31.4 40.2" style="enable-background:new 0 0 31.4 40.2;"
   xml:space="preserve">
<defs>
</defs>
<g>
  <path class="rails-0 fixed-colors-svg" d="M16.9,20.7l2.2,1l-0.2-1.6l-2-1.1L16.9,20.7z M0,26l2.9,0.3l0.6-2.7l-2.8-0.5L0,26z M10.3,7.3L8.4,5.9L7.1,7.7
    L9.2,9L10.3,7.3z M16.2,2.6L14.9,1l-1.7,1l1.4,1.6L16.2,2.6z M22.5,1.5l-0.4-1.3L20,0l0.6,1.4L22.5,1.5z M29.4,3.1l-1.7-1.2v0.8
    l1.7,1L29.4,3.1z M6,14.7l-2.4-1L2.8,16l2.4,0.9L6,14.7z M17.8,13.6L17.4,15l1.5,1.4l0.4-1.4L17.8,13.6z M27.6,7.1l1.3,0.1l0-0.6
    l-1.3-0.3L27.6,7.1z M22.3,2.3C16.2,2,5.2,7.2,3.7,31.2h15c-3.4-9-3-15.5-0.7-19.9c3.4-6.5,8.4-7,13-4.3c0.2-0.4,0.4-0.8,0.4-0.8
    C28.8,3.7,26.3,2.5,22.3,2.3z M22.7,7l0.6,1.3l1-0.6L24,6.5L22.7,7z M19.4,10l1.1,1.6l0.7-1l-1-1.5L19.4,10z M21.1,28.2l-0.7-1.7
    L17.8,26l0.7,2L21.1,28.2z"/>
  <path class="rails-0 fixed-colors-svg" d="M6.3,36.1V35c0-0.6-0.7-1.8-1.7-1.8c-1.1,0-3.3,0-3.3,0v7h2v-2.2l1,2.2h2.1l-1.6-2.4
    C4.8,37.9,6.3,37.5,6.3,36.1z M4.5,36.5H2.8v-1.3h1.6V36.5z M11.4,33.2H9.8c-0.8,0-1.5,0.8-1.5,1.8c0,1,0,5.2,0,5.2h2v-2h1v2h2
    c0,0,0-4.2,0-5.2C13.3,34.1,12.4,33.2,11.4,33.2z M11.5,36.9H9.9v-1.8h1.6V36.9z M27.9,35.2c-0.8,0-1.6,0-1.6,0l0,0h3.1v-2
    c0,0-2.1,0-3.2,0c-1.1,0-1.8,1-1.8,1.8v0.7c0,1,1,1.5,1.8,1.5c0.9,0,1.2,0,1.2,0v1h-3v2c0,0,2.4,0,3.4,0c1,0,1.6-1,1.6-1.9v-0.9
    C29.3,36.4,28.7,35.2,27.9,35.2z M21.3,33.2h-2v7h4v-2h-2V33.2z M15.3,40.2h2v-7h-2V40.2z"/>
</g>
</svg>
