<svg version="1.1"
   xmlns="http://www.w3.org/2000/svg" xmlns:xlink="http://www.w3.org/1999/xlink" xmlns:a="http://ns.adobe.com/AdobeSVGViewerExtensions/3.0/"
   x="0px" y="0px" width="40px" height="40px" viewBox="0 0 40 40" style="enable-background:new 0 0 40 40;" xml:space="preserve">
<defs>
</defs>
<g>
  <path class="rocket-0 fixed-colors-svg" d="M20,0C9,0,0,9,0,20s9,20,20,20c11,0,20-9,20-20S31,0,20,0 M20,36.7c-9.2,0-16.7-7.5-16.7-16.7
    c0-9.2,7.5-16.7,16.7-16.7c9.2,0,16.7,7.5,16.7,16.7C36.7,29.2,29.2,36.7,20,36.7"/>
  <path class="rocket-0 fixed-colors-svg" d="M24.9,20c0-4.7-1.9-9-4.9-12.2c-3,3.2-4.9,7.5-4.9,12.2c0,2.2,0.4,4.2,1.1,6.1c-1,1.5-1.8,3.6-2.1,6
    c1.1-1.3,2.4-2.2,3.8-2.6c0.6,0.9,1.3,1.8,2.1,2.6c0.8-0.8,1.5-1.7,2.1-2.6c1.4,0.4,2.8,1.4,3.8,2.6c-0.3-2.4-1.1-4.5-2.1-6
    C24.5,24.2,24.9,22.2,24.9,20 M20,20c-1.2,0-2.2-1-2.2-2.2c0-1.2,1-2.2,2.2-2.2c1.2,0,2.2,1,2.2,2.2C22.2,19,21.2,20,20,20"/>
</g>
</svg>
