<svg version="1.1"
   xmlns="http://www.w3.org/2000/svg" xmlns:xlink="http://www.w3.org/1999/xlink" xmlns:a="http://ns.adobe.com/AdobeSVGViewerExtensions/3.0/"
   x="0px" y="0px" width="457.7px" height="145.9px" viewBox="0 0 457.7 145.9" style="enable-background:new 0 0 457.7 145.9;"
   xml:space="preserve">
<defs>
</defs>
<g>
  <path class="redis-logo-0" d="M250.7,45.2c0,3.6-3,6.8-6.9,6.8c-3,0-5.6,0.8-7.8,2.5c-2.5,1.6-4.4,3.7-5.9,6.2c-3.1,4.1-4.7,9-5.3,10.9v24.6
    c0,3.7-3.2,6.9-7.1,6.9c-3.7,0-6.8-3.1-6.8-6.9V45.2c0-3.7,3.1-6.7,6.8-6.7c3.9,0,7.1,3,7.1,6.7v0.9c0.8-0.9,1.8-1.9,2.7-2.6
    c4.3-2.8,9.8-5.2,16.3-5C247.7,38.4,250.7,41.4,250.7,45.2L250.7,45.2z"/>
  <path class="redis-logo-0" d="M246.9,70.6c0.1-17.6,13.8-32.3,31.5-32.3c16.8,0,30.1,12.5,31.1,30v0.6c0,0.3,0,0.9-0.1,1.2
    c-0.4,3.1-3.1,5.2-6.7,5.2h-41.1c0.6,3,2.1,6.3,4.4,8.5c2.7,3.1,7.9,5.4,12.4,5.8c4.7,0.4,10.2-0.8,13.4-3.2c2.7-2.8,8-2.5,9.7-0.4
    c1.7,1.8,3,5.7,0,8.4c-6.3,5.8-14,8.5-23.1,8.5C260.7,102.8,247,88.2,246.9,70.6L246.9,70.6z M261,64.3h36.6
    c-1.3-5.2-7.9-12.8-19.1-13.7C267.4,51.1,262,59,261,64.3z"/>
  <path class="redis-logo-0" d="M375.4,95.9c0,3.7-3.1,7-7,7c-3.5,0-6.2-2.5-6.8-5.6c-4.9,3.4-11.1,5.6-17.6,5.6c-17.4,0-31.4-14.7-31.4-32.2
    c0-17.7,14-32.4,31.4-32.4c6.3,0,12.5,2.1,17.3,5.4V19.4c0-3.7,3.1-7,7.1-7c3.9,0,7,3.2,7,7v51.2v0.1L375.4,95.9L375.4,95.9z
     M344,52.4c-4.7,0-8.9,1.9-12.1,5.3c-3.2,3.2-5.2,7.9-5.2,13.1c0,4.9,1.9,9.6,5.2,12.8c3.2,3.4,7.5,5.3,12.1,5.3
    c4.8,0,8.9-1.9,12.1-5.3c3.2-3.2,5.2-7.9,5.2-12.8c0-5.2-1.9-9.8-5.2-13.1C352.9,54.3,348.8,52.4,344,52.4z"/>
  <path class="redis-logo-0" d="M400,22.2c0,3.9-3,7.1-7,7.1c-3.9,0-7-3.2-7-7.1v-2.7c0-3.9,3.1-7,7-7c4,0,7,3.1,7,7V22.2L400,22.2z M400,45.5
    v50.4c0,3.9-3,7-7,7c-3.9,0-7-3.1-7-7V45.5c0-4.1,3.1-7.1,7-7.1C397,38.4,400,41.4,400,45.5z"/>
  <path class="redis-logo-0" d="M408.9,84.4c2.3-3.1,6.9-3.5,9.7-1c3.4,2.8,9.2,5.8,14.2,5.7c3.5,0,6.7-1.2,8.8-2.5c1.8-1.6,2.3-2.8,2.3-3.9
    c0-0.6-0.1-0.9-0.4-1.3c-0.1-0.4-0.6-0.9-1.7-1.5c-1.8-1.3-5.7-2.7-10.3-3.6h-0.1c-4-0.8-7.9-1.8-11.2-3.4c-3.5-1.7-6.6-4-8.9-7.5
    c-1.4-2.3-2.2-5.2-2.2-8.1c0-5.9,3.4-11,7.6-14.2c4.5-3.1,10-4.8,15.9-4.8c8.9,0,15.2,4.3,19.4,7.1c3.1,2.1,4,6.3,2.1,9.6
    c-2.1,3.1-6.3,4-9.6,1.8c-4.1-2.7-7.8-4.8-11.9-4.8c-3.2,0-6.1,1-7.8,2.3c-1.7,1.2-2.1,2.3-2.1,3c0,0.5,0,0.6,0.3,1
    c0.1,0.3,0.5,0.8,1.4,1.3c1.7,1.2,5,2.3,9.4,3.1l0.1,0.1h0.1c4.3,0.8,8.3,1.9,12,3.7c3.5,1.6,7,4,9.2,7.6c1.6,2.6,2.5,5.6,2.5,8.5
    c0,6.3-3.5,11.6-8.1,15c-4.7,3.2-10.5,5.2-16.8,5.2c-10.1-0.1-17.8-4.8-23-8.9C406.9,91.7,406.5,87.3,408.9,84.4L408.9,84.4z"/>
  <path class="redis-logo-0" d="M170.5,78.4c0-1.6,0-17,0-17c0,0,0,0,0,0c0.1-1.7-2.2-3.2-6.8-4.9c-0.4-0.1-0.8-0.3-1.4-0.5
    c0.6-0.3,1.1-0.5,1.5-0.7v0c4.6-2.4,6.7-4.3,6.7-6c0-1.6,0-17,0-17c0,0,0,0,0,0c0.1-1.7-2.2-3.2-6.8-4.9
    c-8.8-3.2-55.6-21.8-64.5-25.1C90.2-0.9,86.5-0.8,76,3C65.5,6.7,15.7,26.3,6.9,29.8c-4.4,1.7-6.8,3.1-6.7,5.1H0V52
    c0,1.7,2.5,3.5,7,5.7c0.3,0.2,0.8,0.3,1.3,0.5c-0.6,0.2-1.2,0.4-1.6,0.6C2.2,60.6,0,62.2,0,63.9v17.2c0,1.7,2.5,3.5,7,5.7
    c-0.1,0-0.1,0.1-0.2,0.1c-4.4,1.7-6.7,3.1-6.7,5.1H0v17.2c0,1.7,2.5,3.5,7,5.7c9,4.3,59.1,24.5,67.1,28.3
    c7.9,3.8,13.5,4.1,23.5-1.1c10-5.2,57.1-25,66.1-29h0c4.6-3,6.7-4.5,6.7-6.2c0-1.6,0-17.1,0-17.1c0,0,0-0.1,0-0.1
    c0.1-1.7-2.2-3.3-6.8-4.9c0,0-0.1-0.1-0.2-0.1c0.1,0,0.2-0.1,0.3-0.1C168.4,82,170.5,80.1,170.5,78.4z M80,16l-3.8-7l11.9,4.7
    L99.3,10l-3,7.3l11.4,4.3L93,23.1L89.7,31l-5.3-8.9l-17-1.5L80,16z M29.6,34.1c0-4.5,9.4-8.2,21.1-8.2s21.1,3.7,21.1,8.2
    c0,4.5-9.4,8.2-21.1,8.2S29.6,38.6,29.6,34.1z M88.8,60.1L61.3,48.7l39.4-6L88.8,60.1z M122.6,43.1l-23.3-9.2l25.8-10.2l22.3,9.7
    L122.6,43.1z"/>
</g>
</svg>
