<svg version="1.1"
   xmlns="http://www.w3.org/2000/svg" xmlns:xlink="http://www.w3.org/1999/xlink" xmlns:a="http://ns.adobe.com/AdobeSVGViewerExtensions/3.0/"
   x="0px" y="0px" width="53.4px" height="40px" viewBox="0 0 53.4 40" style="enable-background:new 0 0 53.4 40;"
   xml:space="preserve">
<defs>
</defs>
<path class="sass-0 fixed-colors-svg" d="M45.9,23c-1.9,0-3.5,0.5-4.8,1.1c-0.5-1-1-1.9-1.1-2.5c-0.1-0.8-0.2-1.2-0.1-2.1c0.1-0.9,0.6-2.2,0.6-2.3
  c0-0.1-0.1-0.6-1.2-0.6c-1.1,0-2,0.2-2.1,0.5c-0.1,0.3-0.3,0.9-0.4,1.6c-0.2,1-2.1,4.5-3.3,6.3c-0.4-0.7-0.7-1.3-0.7-1.8
  c-0.1-0.8-0.2-1.2-0.1-2.1c0.1-0.9,0.6-2.2,0.6-2.3c0-0.1-0.1-0.6-1.2-0.6c-1.1,0-2,0.2-2.1,0.5c-0.1,0.3-0.2,0.9-0.4,1.6
  c-0.2,0.6-2.8,6.4-3.5,7.9c-0.3,0.8-0.7,1.4-0.9,1.8c0,0,0,0,0,0s0,0,0,0.1c-0.2,0.4-0.3,0.6-0.3,0.6s0,0,0,0
  c-0.1,0.3-0.3,0.5-0.4,0.5c-0.1,0-0.2-0.7,0-1.7c0.4-2,1.3-5.2,1.3-5.3c0-0.1,0.2-0.6-0.6-0.9c-0.8-0.3-1,0.2-1.1,0.2
  c-0.1,0-0.1,0.2-0.1,0.2s0.8-3.5-1.6-3.5c-1.5,0-3.7,1.7-4.7,3.2c-0.7,0.4-2.1,1.1-3.6,2c-0.6,0.3-1.2,0.6-1.7,0.9
  c0,0-0.1-0.1-0.1-0.1c-3-3.2-8.5-5.4-8.3-9.7C4.1,15,4.7,10.9,14.6,5.9C22.8,1.9,29.3,3,30.4,5.5c1.6,3.5-3.5,10.1-12,11.1
  c-3.2,0.4-4.9-0.9-5.4-1.4c-0.4-0.5-0.5-0.5-0.7-0.4c-0.3,0.2-0.1,0.6,0,0.8c0.3,0.7,1.3,1.8,3.1,2.4c1.6,0.5,5.4,0.8,9.9-1
  c5.1-2,9.1-7.5,8-12.1c-1.2-4.7-9-6.2-16.4-3.6c-4.4,1.6-9.1,4-12.6,7.2c-4.1,3.8-4.7,7.1-4.4,8.5c0.9,4.9,7.7,8.1,10.4,10.5
  c-0.1,0.1-0.3,0.1-0.4,0.2c-1.4,0.7-6.5,3.4-7.8,6.2c-1.5,3.2,0.2,5.6,1.4,5.9c3.5,1,7.1-0.8,9-3.6c1.9-2.9,1.7-6.6,0.8-8.3
  c0,0,0,0,0-0.1c0.4-0.2,0.7-0.4,1.1-0.6c0.7-0.4,1.4-0.8,2-1.1c-0.3,0.9-0.6,2-0.7,3.5c-0.1,1.8,0.6,4.2,1.6,5.1
  c0.4,0.4,1,0.4,1.3,0.4c1.1,0,1.7-1,2.2-2.1c0.7-1.4,1.3-3,1.3-3s-0.8,4.3,1.4,4.3c0.8,0,1.6-1,1.9-1.5c0,0,0,0,0,0s0,0,0.1-0.1
  c0.1-0.1,0.1-0.2,0.1-0.2s0,0,0,0c0.3-0.5,1-1.8,2.1-3.8c1.3-2.6,2.6-6,2.6-6s0.1,0.8,0.5,2.2c0.2,0.8,0.7,1.7,1.1,2.5
  c-0.3,0.4-0.5,0.7-0.5,0.7s0,0,0,0c-0.3,0.3-0.5,0.7-0.8,1c-1.1,1.3-2.3,2.7-2.5,3.1c-0.2,0.5-0.2,0.9,0.2,1.1
  c0.3,0.2,0.8,0.2,1.3,0.2c1-0.1,1.6-0.3,2-0.4c0.5-0.2,1.1-0.5,1.7-0.9c1-0.8,1.7-1.9,1.6-3.3c0-0.8-0.3-1.6-0.6-2.3
  c0.1-0.1,0.2-0.3,0.3-0.4c1.6-2.4,2.9-5.1,2.9-5.1s0.1,0.8,0.5,2.2c0.2,0.7,0.6,1.4,0.9,2.1c-1.5,1.3-2.5,2.7-2.8,3.7
  c-0.6,1.8-0.1,2.6,0.8,2.8c0.4,0.1,1-0.1,1.4-0.3c0.5-0.2,1.2-0.5,1.8-0.9c1-0.8,2-1.8,2-3.3c0-0.7-0.2-1.3-0.5-2
  c1.3-0.5,3-0.9,5.2-0.6c4.6,0.5,5.6,3.4,5.4,4.7c-0.2,1.2-1.1,1.9-1.5,2.1c-0.3,0.2-0.4,0.3-0.4,0.4c0,0.2,0.2,0.2,0.5,0.2
  c0.4-0.1,2.4-1,2.5-3.2C53.5,26.1,50.7,23,45.9,23z M10.2,35.1c-1.5,1.7-3.7,2.3-4.6,1.8c-1-0.6-0.6-3,1.3-4.8
  c1.1-1.1,2.6-2.1,3.6-2.7c0.2-0.1,0.6-0.3,1-0.6c0.1,0,0.1-0.1,0.1-0.1l0,0c0.1,0,0.2-0.1,0.2-0.1C12.4,31.1,11.8,33.3,10.2,35.1z
   M21.4,27.4c-0.5,1.3-1.7,4.6-2.3,4.5c-0.6-0.2-0.9-2.7-0.1-5.2c0.4-1.3,1.3-2.8,1.8-3.3c0.8-0.9,1.8-1.2,2-0.9
  C23,23,21.7,26.6,21.4,27.4z M30.6,31.9C30.4,32,30.2,32,30.1,32c-0.1,0,0.1-0.2,0.1-0.2s1.2-1.2,1.6-1.8c0.3-0.3,0.6-0.7,0.9-1.2
  c0,0,0,0.1,0,0.1C32.7,30.4,31.2,31.4,30.6,31.9z M37.7,30.2c-0.2-0.1-0.1-0.5,0.4-1.7c0.2-0.5,0.7-1.3,1.6-2
  c0.1,0.3,0.2,0.6,0.2,0.9C39.9,29.2,38.5,29.9,37.7,30.2z"/>
</svg>
