<svg version="1.1"
   xmlns="http://www.w3.org/2000/svg" xmlns:xlink="http://www.w3.org/1999/xlink" xmlns:a="http://ns.adobe.com/AdobeSVGViewerExtensions/3.0/"
   x="0px" y="0px" width="321.6px" height="50.1px" viewBox="0 0 321.6 50.1" style="enable-background:new 0 0 321.6 50.1;"
   xml:space="preserve">
<style type="text/css">
  .logo-selecthub-0{fill:#FFFFFF;}
  .logo-selecthub-1{clip-path:url(#SVGID_2_);fill:#FFFFFF;}
  .logo-selecthub-2{opacity:0.6;clip-path:url(#SVGID_2_);fill:#FFFFFF;}
  .logo-selecthub-3{opacity:0.3;clip-path:url(#SVGID_2_);fill:#FFFFFF;}
  .logo-selecthub-4{clip-path:url(#SVGID_4_);fill:#FFFFFF;}
  .logo-selecthub-5{opacity:0.6;clip-path:url(#SVGID_4_);fill:#FFFFFF;}
  .logo-selecthub-6{opacity:0.3;clip-path:url(#SVGID_4_);fill:#FFFFFF;}
</style>
<defs>
</defs>
<g>
  <g>
    <path class="logo-selecthub-0" d="M78.7,39.5c1.3,0,2.4-0.1,3.3-0.3c0.9-0.2,1.6-0.5,2.1-0.9c0.5-0.4,0.9-0.8,1.1-1.4c0.2-0.5,0.3-1.1,0.3-1.7
      c0-1.4-0.6-2.5-1.9-3.4c-1.3-0.9-3.5-1.9-6.6-2.9c-1.4-0.5-2.7-1-4.1-1.7c-1.4-0.6-2.6-1.4-3.7-2.3c-1.1-0.9-2-2.1-2.6-3.4
      c-0.7-1.3-1-3-1-4.9c0-1.9,0.4-3.7,1.1-5.2c0.7-1.5,1.7-2.9,3.1-3.9c1.3-1.1,2.9-1.9,4.8-2.5c1.9-0.6,4-0.9,6.4-0.9
      C83.6,4,86,4.3,88,4.9c2,0.6,3.7,1.3,5,2l-2.7,7.4c-1.2-0.6-2.5-1.1-3.9-1.6c-1.4-0.5-3.1-0.7-5.1-0.7c-2.2,0-3.9,0.3-4.8,0.9
      c-1,0.6-1.5,1.6-1.5,2.9c0,0.8,0.2,1.4,0.5,1.9c0.4,0.5,0.9,1,1.5,1.4c0.7,0.4,1.4,0.8,2.3,1.1c0.9,0.3,1.8,0.7,2.9,1.1
      c2.2,0.8,4,1.6,5.6,2.4c1.6,0.8,2.9,1.7,4,2.7c1.1,1,1.8,2.3,2.4,3.7c0.5,1.4,0.8,3.1,0.8,5.1c0,3.9-1.4,6.9-4.1,9
      c-2.7,2.1-6.8,3.2-12.3,3.2c-1.8,0-3.5-0.1-5-0.3c-1.5-0.2-2.8-0.5-3.9-0.8c-1.1-0.3-2.1-0.7-2.9-1c-0.8-0.4-1.5-0.7-2.1-1
      l2.6-7.5c1.2,0.7,2.8,1.3,4.6,1.8C73.8,39.2,76,39.5,78.7,39.5z"/>
    <path class="logo-selecthub-0" d="M97,31.1c0-2.8,0.4-5.3,1.3-7.4c0.9-2.1,2-3.9,3.4-5.3c1.4-1.4,3-2.5,4.8-3.2c1.8-0.7,3.7-1.1,5.6-1.1
      c4.5,0,8,1.4,10.6,4.1c2.6,2.7,3.9,6.8,3.9,12.1c0,0.5,0,1.1-0.1,1.7c0,0.6-0.1,0.7-0.1,1.7h-20.3c0.2,2,1.1,3.3,2.6,4.4
      c1.5,1.1,3.6,1.6,6.1,1.6c1.6,0,3.3-0.2,4.8-0.5c1.6-0.3,2.9-0.7,3.9-1.1l1.2,7.3c-0.5,0.2-1.1,0.5-1.9,0.7
      c-0.8,0.2-1.7,0.5-2.7,0.6c-1,0.2-2,0.3-3.2,0.5c-1.1,0.1-2.2,0.2-3.4,0.2c-2.8,0-5.3-0.4-7.4-1.3c-2.1-0.8-3.8-2-5.2-3.5
      c-1.4-1.5-2.4-3.2-3.1-5.2C97.3,35.5,97,33.4,97,31.1z M118,27.8c0-1-0.2-1.6-0.4-2.3c-0.2-0.7-0.6-1.4-1-2c-0.5-0.6-1-1-1.7-1.4
      c-0.7-0.4-1.6-0.6-2.6-0.6c-1,0-1.9,0.2-2.6,0.5c-0.7,0.3-1.3,0.8-1.8,1.3c-0.5,0.6-0.8,1.3-1.1,2c-0.3,0.7-0.5,1.3-0.6,2.3H118z"
      />
    <path class="logo-selecthub-0" d="M142.6,47.2c-2.6,0-4.7-0.3-6.3-0.8c-1.6-0.5-2.9-1.3-3.8-2.2c-0.9-0.9-1.7-2.1-2-3.4
      c-0.3-1.3-0.6-2.9-0.6-4.5V1.4l9-1.4v34.4c0,0.8,0.1,1.5,0.2,2.2c0.1,0.6,0.4,1.2,0.7,1.6c0.3,0.4,0.8,0.8,1.5,1.1
      c0.6,0.3,1.5,0.5,2.6,0.5L142.6,47.2z"/>
    <path class="logo-selecthub-0" d="M144.2,31.1c0-2.8,0.4-5.3,1.3-7.4c0.9-2.1,2-3.9,3.4-5.3c1.4-1.4,3-2.5,4.8-3.2c1.8-0.7,3.7-1.1,5.6-1.1
      c4.5,0,8,1.4,10.6,4.1c2.6,2.7,3.9,6.8,3.9,12.1c0,0.5,0,1.1-0.1,1.7c0,0.6-0.1,0.7-0.1,1.7h-20.3c0.2,2,1.1,3.3,2.6,4.4
      c1.5,1.1,3.6,1.6,6.1,1.6c1.6,0,3.3-0.2,4.8-0.5c1.6-0.3,2.9-0.7,3.9-1.1l1.2,7.3c-0.5,0.2-1.1,0.5-1.9,0.7
      c-0.8,0.2-1.7,0.5-2.7,0.6c-1,0.2-2,0.3-3.2,0.5c-1.1,0.1-2.2,0.2-3.4,0.2c-2.8,0-5.3-0.4-7.4-1.3c-2.1-0.8-3.8-2-5.2-3.5
      c-1.4-1.5-2.4-3.2-3.1-5.2C144.6,35.5,144.2,33.4,144.2,31.1z M165.3,27.8c0-1-0.2-1.6-0.4-2.3c-0.2-0.7-0.6-1.4-1-2
      c-0.5-0.6-1-1-1.7-1.4c-0.7-0.4-1.6-0.6-2.6-0.6c-1,0-1.9,0.2-2.6,0.5c-0.7,0.3-1.3,0.8-1.8,1.3c-0.5,0.6-0.9,1.3-1.1,2
      c-0.3,0.7-0.5,1.3-0.6,2.3H165.3z"/>
    <path class="logo-selecthub-0" d="M175.8,30.8c0-2.3,0.4-4.4,1.1-6.5c0.7-2,1.8-3.8,3.2-5.3c1.4-1.5,3.1-2.7,5.1-3.6c2-0.9,4.3-1.3,6.8-1.3
      c1.7,0,3.2,0.2,4.6,0.5c1.4,0.3,2.8,0.7,4.1,1.3l-1.9,7.1c-0.8-0.3-1.8-0.6-2.8-0.8c-1-0.2-2.1-0.4-3.4-0.4
      c-2.6,0-4.6,0.8-5.9,2.5c-1.3,1.6-2,3.8-2,6.5c0,2.8,0.6,5,1.8,6.6c1.2,1.6,3.3,2.3,6.4,2.3c1.1,0,2.2-0.1,3.5-0.3
      c1.2-0.2,2.4-0.5,3.4-1l1.3,7.3c-1,0.4-2.3,0.8-3.9,1.1c-1.6,0.3-3.3,0.5-5.2,0.5c-2.9,0-5.4-0.4-7.4-1.3c-2.1-0.9-3.8-2-5.1-3.5
      c-1.3-1.5-2.3-3.2-2.9-5.3C176.2,35.4,175.8,33.2,175.8,30.8z"/>
    <path class="logo-selecthub-0" d="M203.9,7.1l9-1.4v9.1h10v8h-10v10.8c0,1.9,0.1,3.4,0.7,4.5c0.7,1.1,1.9,1.7,3.9,1.7c1,0,1.9-0.1,2.9-0.3
      c1-0.2,1.9-0.4,2.8-0.7l1.2,7c-1.1,0.4-2.3,0.8-3.6,1.1c-1.3,0.3-2.9,0.5-4.9,0.5c-2.4,0-4.5-0.3-6.1-1c-1.6-0.7-2.9-1.6-3.8-2.8
      c-1-1.2-1.4-2.6-1.8-4.3c-0.4-1.7-0.4-3.5-0.4-5.6V7.1z"/>
    <path class="logo-selecthub-0" d="M253.9,4.8h6v42h-6v-19h-20v19h-6v-42h6v18h20V4.8z"/>
    <path class="logo-selecthub-0" d="M289.9,45.7c-1,0.3-3.1,0.7-5.2,1c-2.1,0.4-4.6,0.5-7.3,0.5c-2.4,0-4.5-0.4-6.1-1c-1.6-0.7-3-1.7-4-3
      c-1-1.3-1.5-2.8-2-4.5c-0.4-1.7-0.5-3.7-0.5-5.8V15.8h5v15.9c0,3.8,0.7,6.5,1.9,8.2c1.2,1.6,3.3,2.5,6.1,2.5c0.6,0,1.2,0,1.9-0.1
      c0.6,0,1.3-0.1,1.8-0.1c0.6-0.1,1-0.1,1.4-0.2c0.5-0.1,0.9-0.1,0.9-0.2V15.8h6V45.7z"/>
    <path class="logo-selecthub-0" d="M299.9,16.8c1-0.4,1.6-0.9,3-1.4c1.4-0.5,2.9-0.7,4.7-0.7c2.2,0,4.2,0.4,6,1.2c1.7,0.8,3.2,1.9,4.4,3.4
      c1.2,1.4,2.1,3.2,2.7,5.2c0.6,2,0.9,4.2,0.9,6.6c0,2.5-0.4,4.8-1.1,6.8c-0.7,2-1.8,3.7-3.2,5.1c-1.4,1.4-3,2.5-4.9,3.2
      c-1.9,0.8-4.1,1.1-6.5,1.1c-2.6,0-5-0.2-7-0.5c-2-0.4-3-0.7-5-1.1V1l6-1V16.8z M299.9,41.7c0,0.2,1.3,0.3,2.3,0.4
      c1,0.1,2.2,0.2,3.8,0.2c3,0,5.4-1,7.2-3c1.8-2,2.7-4.8,2.7-8.4c0-1.6-0.2-3.1-0.5-4.5c-0.3-1.4-0.8-2.6-1.6-3.6
      c-0.7-1-1.7-1.8-2.8-2.4c-1.1-0.6-2.5-0.9-4.1-0.9c-1.5,0-2.8,0.3-4.1,0.8c-1.3,0.5-1.9,1.1-2.9,1.6V41.7z"/>
  </g>
  <g>
    <g>
      <g>
        <g>
          <defs>
            <path id="SVGID_1_" d="M16.7,3.8c-1.6,0-3.7,1.5-4.5,3L3,23.6c-0.8,1.5-0.8,4,0,5.5l9.2,16.8c0.8,1.5,2.8,2.9,4.5,2.9h18.6
              c1.6,0,3.7-1.4,4.5-2.9L49,29.2c0.8-1.5,0.8-4,0-5.5L39.8,6.8c-0.8-1.5-2.8-3-4.5-3H16.7z"/>
          </defs>
          <clipPath id="SVGID_2_">
            <use xlink:href="#SVGID_1_"  style="overflow:visible;"/>
          </clipPath>
          <polygon class="logo-selecthub-1" points="0.8,26.8 14.1,49.8 39.4,49.8 26.8,26.8           "/>
          <polygon class="logo-selecthub-2" points="26.8,26.4 39.4,50.1 51.1,26.4 39.4,2.7           "/>
          <polygon class="logo-selecthub-3" points="0,26.8 26.8,26.8 39.4,2.8 13,2.8           "/>
        </g>
      </g>
    </g>
  </g>
</g>
</svg>
