<svg version="1.1"
   xmlns="http://www.w3.org/2000/svg" xmlns:xlink="http://www.w3.org/1999/xlink" xmlns:a="http://ns.adobe.com/AdobeSVGViewerExtensions/3.0/"
   x="0px" y="0px" width="256px" height="278px" viewBox="0 0 256 278" style="enable-background:new 0 0 256 278;"
   xml:space="preserve">
<defs>
</defs>
<g>
  <polygon class="sidekiq-0 fixed-colors-svg" points="90.2,87.2 90.2,87.2 90.2,87.2  "/>
  <path class="sidekiq-0 fixed-colors-svg" d="M89.2,86.8c-0.9-0.4-0.8,0.5-1.5,0.3c-0.7-0.3-3.8-4.6-3.8-4.6s5.7-2.6,10.6-4.9c4.9-2.3,6.9-3.2,8.7-4.6
    c1.8-1.3,6.2-9.5,6.9-12.6c0.7-3.1,1.4-12,1.6-16.5c0.2-4.6,0.4-10.4,0.9-12.3c0.4-2-3.3-2.8-5.4-2.3c-2.1,0.4-6.8-0.4-6.8-0.4
    s-3-5.5-3.3-7c-0.3-1.4-0.9-4.6-0.9-6.2c0-1.7-0.5-2.9-0.9-3.7c-0.4-0.7-0.5-1.5-0.6-2.5c-0.1-1-0.3-1.7-0.5-2.7
    c-0.3-1-1.2-0.7-2.1-0.7c-1,0-1,0.8-1,0.4s-0.5-0.8-1.3-1.2c-0.8-0.4-1.8,0.1-1.8,0.1s-0.4-0.7-0.4-1.2c-0.1-0.4-0.5-1.3-1-2.9
    C86-0.3,84.8,0,84.8,0c-1,0-0.5,3.1-0.5,3.1c-0.3-0.9-0.9-0.6-0.9-0.6c-0.8,0.4-1.1,4.1-1,4.7c0.1,0.6,0,2.4,0.2,3.7
    c0.2,1.3-0.7,2.4-0.9,3.7c-0.2,1.3,0,2.6,1.2,3.5c1.2,0.9,5.1,6.7,5.4,7.8c0.4,1.1,0.8,2.7,1.2,2.9c0.4,0.3,0.9,1,0.9,1l-0.6,0.7
    c0,0,0.4,4,0.4,5.5c0,1.6,0.1,4.2,0.7,5.1c0.6,0.8,3.7,2,0.4,6.1c-3.3,4.1,1.1,4.8-1,6.2c-2.1,1.4,0.4,3.3-0.7,3.3
    c-1.1,0-6.5,0.7-8.1,1.3c-1.6,0.6-8.6,1-10.3,0.6c-1.7-0.4-3.3,0.3-4.7-0.3c-1.4-0.6-3.5,0.9-5,0.9c-1.4,0-4.2,0.6-7.1,3.8
    c-2.8,3.3-3.4,1.8-3.4,1.8c0.6-2.8-0.9-6.8-1.4-8.1c-0.6-1.3-1.1-4-1.3-5.9c-0.1-2-0.8-3.3-1.1-4c-0.3-0.7-0.1-3.1,0.1-4.7
    c0.3-1.6-1.8-2.3-2.4-3.3c-0.6-1-3.7-2.3-2.6-2.4c1.1-0.1,3.1,0.4,3.1,0.4c-1-1.1-5.1-1-4.4-1.3c0.7-0.3,2.4,0,2.4,0
    c-1.6-1.1-5.5-0.3-6.7-0.1c-1.1,0.1-8.8,1.7-15.7,4.5c-6.9,2.8-6.7,10.9-6,16c0.7,5.1,8.4,13.7,10.9,15c2.6,1.3,3.7,2.8,3.7,2.8
    s-1.7,1-2.9,1.5c-1.2,0.5-0.9,1.6-0.8,2.8c0.2,1.2,0.2,4.7,0.2,4.9c-0.4,0.8-4.3,5.7-6.4,7.2c-2.2,1.5-1.7,3.3-1.7,4.2
    c0,0.9-0.8,3.4-2.1,5.1c-1.3,1.7-3.5,4.9-4.2,7c-0.7,2.1-0.9,4.8-1.3,5.8c-0.5,0.9-0.2,2.6-0.9,3.7c-0.8,1-0.3,3.4-1.6,4.2
    c-1.3,0.8-3.1,6.1-3.5,7c-0.4,0.9-0.9,3.6-3.3,7.4c-2.5,3.8-1.1,8.1-0.8,9.1c0.4,0.9,2.2,6.9,3.1,10.4c0.9,3.5,4.3,3.4,6.8,3.5
    c2.5,0.1,1.9,2.9,5,4c3.1,1,2.5-1.5,1.7-3.8c-0.8-2.3,0-4,0-4.4s0.4-1.7,1-2.5c0.7-0.8,0.5-2,0.5-2.7c0-0.8-0.3-2.9,0.1-3.7
    c0.4-0.8-0.3-1.8-0.3-1.8c2.6-1,9.1-7.8,10.7-9.7c1.6-1.9,6-6.5,7.2-8c1.1-1.5,4.3-1.7,6.7-1.6c2.5,0.1,5.8-0.1,7.9,1.2
    c2.2,1.3,4.5,0.1,6.9,1.8c2.4,1.7,7.8,2.6,8.7,2.4c0.9-0.3,4.2,0.4,4.2,0.4c0.1,0.2,0.4,0.5,0.9,0.4c0,0,0,0,0.1,0.1
    c1.5-2.9,17.8-34.8,18.3-42.3C89.9,87.1,89.4,86.9,89.2,86.8z"/>
  <path class="sidekiq-0 fixed-colors-svg" d="M255.7,29.4c-1.4-1.1-2.2-0.2-2.2-0.2c-0.5-0.7-1.7,0.2-1.7,0.2c-0.3-0.5-1.2-0.6-1.2-0.6
    c-0.9-0.8-2.5,0.7-2.5,0.7c-0.7-0.7-2.6,1.6-2.6,1.6c-0.8-0.3-1.8,1.2-2,2c-0.2,0.8-1.4,1.3-1.4,1.3c-2.3,1.1-7.5,4.6-9.3,6
    c-1.7,1.3-4,2.9-5.2,3c-1.2,0.1-6.9,2.9-6.9,2.9c-2.9-4.1-8.5-6.6-9.6-5.6c-1.1,1-6.7,4-8.5,5.3c-1.8,1.3-12.1,5.3-16.4,6
    c-4.3,0.7-24.5,13-27.2,14.7c-2.7,1.7-9.2,6.3-12.1,8.3c-2.9,2-9.9,1.9-11.9,2.9c-2,1-8,4.7-9.4,5.2c-1.3,0.5-6.3,0-8.5,0
    c-2.2,0-5.2,2-6,2.6c-0.7,0.6-1.6,0.5-1.4-0.1c0.2-0.6-11.3,2.8-12.1,1.9c-0.8-0.9,0.5-2.9,0-2.5c-0.5,0.4-1.8,2-1.5,3.2
    c0.1,0.3-0.3,0.4-0.8,0.4c0,0-0.5-0.1-0.5-0.1c0.9,3-17.7,40.2-19.3,43.2c0.3,0.2,0.5,0.3,0.5,0.3c0.2,2.5,3,5.8,4.5,7.5
    c1.5,1.6,1.6,2.5,1.7,1.8c0.1-0.8,0-2.8,0-2.8c0.6,2,4.6,4.8,4.8,5.6c0.2,0.8,0.1,7.6-0.5,7.9c-0.6,0.3-0.7,5.8-0.6,7.5
    c0.1,1.8-0.5,2.8-2,7.4c-1.5,4.5-2.6,39.2-2,44.2c0.6,5-0.4,12.3,0,16.7c0.4,4.4-0.2,7.5-0.5,8.5c-0.3,1-0.3,3.7-0.3,4.3
    c0,0.6,0.6,1,0.6,1c-0.3,5.6-2.2,11.8-3.6,14.1c-1.4,2.4-3.3,8-3.5,9c-0.1,0.9-4.2,6.6-6.8,7.4c-2.6,0.8-1.7,2.7-1.7,2.7
    c0.2,1.3,1.9,1.2,1.9,1.2c0.4,1.3,2.4,1.1,2.4,1.1c1.2,1.4,2.4,0.9,2.4,0.9c1.4,0.4,2.8-0.5,2.9-0.9c0.1-0.5,1.9-1.6,2.9-2.4
    c1-0.8,3.6-2.2,4.8-4.6c1.2-2.4,6.2-5.5,11-9c4.8-3.5,0.9-8.1-0.3-9.2c-1.1-1.1-0.5-7.4-0.5-7.4s2.1,0,2.7-1.4
    c0.6-1.4,4.7-1.3,6-1.8c1.3-0.6,0.8-2.1,0.4-6.4c-0.4-4.2,2.4-11.6,4.1-14.7c1.7-3.1,3.1-6.8,2.5-9.9c-0.6-3.1-0.3-6.1,0.9-10.1
    c1.1-4,5.8-40.6,6-44.2c0.1-2.8,0.4-7.5,0.8-12.3c2-4.9,5-11.1,5.7-15c1.1-5.8,2.6-6.2,6.2-8.7c3.5-2.5,13.8-11.9,14.5-12.5
    c0.5-0.2,0.9-0.5,1.4-0.7c12-5.9,19.8-12.1,24.1-15.5c4.3-3.5,22.8-10.1,27.3-12.3c4.5-2.2,8.3-4.9,9.4-6c1-1.1,2.8-3.1,4.3-3.8
    c1.6-0.7,2-1.7,3.8-3c1.8-1.4,3.3-1.9,5.6-3.4c2.3-1.5,4-1.3,4.4-1.8c0.4-0.5,0.7-2.7,0.7-2.7c3.8-2.1,7.6-3.5,12-2.5
    c4.4,1.1,6.1-3.7,6-7.9c-0.1-4.1,2.6-6.2,4.8-7.3c2.3-1.2,4.4-4.1,5.1-5.6c0.8-1.5,1.8-2.1,1.8-2.1
    C256.7,30.5,255.7,29.4,255.7,29.4z"/>
  <path class="sidekiq-0 fixed-colors-svg" d="M71.8,129.7c-0.6,3.1-0.5,6-0.2,7.7c0.8,4.1-3.1,10.3-3.1,10.3l4.2,2.2c5.6-3.2,3.2-12.9,3.2-12.9
    c-0.5-1.7-0.5-3.4-0.3-5l0,0c0,0,0-0.1,0.1-0.2c-1.1-0.6-3.4-2-3.9-2.3C71.8,129.6,71.8,129.7,71.8,129.7z"/>
</g>
</svg>
