<svg version="1.1"
   xmlns="http://www.w3.org/2000/svg" xmlns:xlink="http://www.w3.org/1999/xlink" xmlns:a="http://ns.adobe.com/AdobeSVGViewerExtensions/3.0/"
   x="0px" y="0px" width="186.4px" height="169.2px" viewBox="0 0 186.4 169.2" style="enable-background:new 0 0 186.4 169.2;"
   xml:space="preserve">
<defs>
</defs>
<path class="skitch-0 fixed-colors-svg" d="M160.2,12.3L126.5,0H59.7L26.4,12.6L0,42.6l93.1,126.6l93.3-126.6L160.2,12.3z M176.1,43.7l-32.3,23.4
  l-14.9-33.2l26.6-14.7L176.1,43.7z M133.7,68.2l-82.1,1.2L64.4,37h56.4L133.7,68.2z M62.3,7.9l59.1-0.7l22.2,7.2l-22.8,12l-57.2,0.3
  L42.2,15.2L62.3,7.9z M30.8,19.4l25.9,15.4L42.2,67.1L9.8,43.7L30.8,19.4z M20.8,60l19.6,14.8l24.8,45.6L20.8,60z M93,155L50.6,77.4
  l84.6,0.1L93,155z M120.7,120.4l24.8-45.6L165.1,60L120.7,120.4z"/>
</svg>
