<svg version="1.1"
   xmlns="http://www.w3.org/2000/svg" xmlns:xlink="http://www.w3.org/1999/xlink" xmlns:a="http://ns.adobe.com/AdobeSVGViewerExtensions/3.0/"
   x="0px" y="0px" width="229.8px" height="111.2px" viewBox="0 0 229.8 111.2" style="enable-background:new 0 0 229.8 111.2;"
   xml:space="preserve">
<style type="text/css">
  .soal-logo-0{fill:#F6F6F6;}
</style>
<defs>
</defs>
<g>
  <path class="soal-logo-0" d="M125.2,69.4c0,3.9-0.6,7.6-1.9,11c-1.3,3.4-3.1,6.3-5.5,8.8c-2.4,2.5-5.2,4.4-8.5,5.8
    c-3.3,1.4-6.9,2.1-10.9,2.1c-3.5,0-6.7-0.7-9.6-2c-2.8-1.3-5.3-3.1-7.3-5.4c-2-2.3-3.6-4.9-4.6-7.9c-1.1-3-1.6-6.2-1.6-9.7
    c0-2.9,0.4-5.6,1.2-8.2c0.8-2.6,2-5,3.4-7.2c1.5-2.2,3.2-4.3,5.2-6.2c2-1.9,4.2-3.6,6.6-5.1l1,0.8c-2.4,2.8-4.2,5.8-5.6,9.1
    c-1.3,3.3-2,6.8-2,10.6c0,2.7,0.4,5.4,1.2,8.2c0.8,2.8,2,5.3,3.6,7.6c1.6,2.3,3.5,4.2,5.9,5.7c2.4,1.5,5.1,2.2,8.1,2.2
    c1.9,0,3.7-0.4,5.4-1.2c1.7-0.8,3.2-1.9,4.4-3.2c1.3-1.4,2.3-2.9,3-4.6c0.8-1.7,1.1-3.5,1.1-5.4c0-1.8-0.3-3.6-0.8-5.3
    c-0.5-1.7-1.3-3.3-2.2-4.8c-1-1.5-2.1-2.8-3.5-4.1c-1.3-1.2-2.8-2.2-4.4-3c-0.9-0.5-1.8-0.8-2.6-1c-0.8-0.2-1.7-0.5-2.7-0.8
    c-0.4-0.1-0.8-0.2-1.3-0.3c-0.5-0.1-0.9-0.3-1.3-0.5c-0.4-0.2-0.7-0.5-1-0.8c-0.3-0.3-0.4-0.8-0.4-1.3c0-1,0.4-1.9,1.1-2.8
    c0.7-0.8,1.6-1.6,2.6-2.2c1-0.6,2.1-1.2,3.2-1.5c1.1-0.4,2.1-0.5,3-0.5c2.9,0,5.4,0.7,7.6,2.2c2.2,1.5,4,3.3,5.5,5.6
    c1.5,2.3,2.6,4.7,3.3,7.4C124.8,64.3,125.2,66.9,125.2,69.4z"/>
  <path class="soal-logo-0" d="M167.3,51.5c0,0.6-0.2,1.1-0.6,1.5c-0.4,0.4-0.9,0.7-1.5,0.7c-0.5,0-1-0.1-1.5-0.4c-0.5-0.3-1.1-0.6-1.8-1
    c-0.7-0.4-1.4-0.7-2.3-1c-0.9-0.3-1.8-0.4-3-0.4c-2.6,0-4.9,0.8-6.9,2.4c-2,1.6-3.7,3.6-5.1,5.9c-1.4,2.4-2.5,4.9-3.2,7.6
    c-0.7,2.7-1.1,5.1-1.1,7.2c0,1.5,0.1,3,0.4,4.4c0.3,1.4,0.7,2.8,1.4,3.9c0.7,1.2,1.6,2.1,2.7,2.8c1.2,0.7,2.6,1.1,4.4,1.1
    c1.9,0,3.7-0.4,5.4-1.1c1.7-0.7,3.4-1.6,4.9-2.8c0.1-1.7,0.3-3.5,0.8-5.3c0.5-1.9,1.1-3.7,1.9-5.5c0.8-1.8,1.7-3.5,2.7-5.1
    c1-1.6,2.1-3.1,3.2-4.3l1,0.6c-0.6,1.8-1,3.6-1.3,5.5c-0.3,1.9-0.4,3.7-0.4,5.6c0,1.9,0.2,3.7,0.5,5.3c0.3,1.7,0.9,3.1,1.6,4.4
    c0.8,1.2,1.9,2.2,3.2,2.9c1.4,0.7,3.1,1.1,5.3,1.1c2.6,0,5-0.6,7.2-1.8c2.2-1.2,4.1-2.7,5.8-4.6l0.6,0.3c-0.9,1.8-2.2,3.6-3.7,5.3
    c-1.5,1.7-3.2,3.2-5.1,4.5c-1.9,1.3-3.8,2.4-5.9,3.2c-2.1,0.8-4.2,1.2-6.2,1.2c-2.9,0-5.2-0.8-7.1-2.5c-1.8-1.7-3.1-3.7-3.8-6.3
    c-2.2,2.2-4.6,4.1-7.4,5.5c-2.7,1.5-5.5,2.2-8.5,2.2c-2.2,0-4.2-0.4-5.9-1.2c-1.7-0.8-3.1-1.9-4.3-3.3c-1.1-1.4-2-3-2.6-4.8
    c-0.6-1.9-0.9-3.8-0.9-5.9c0-2.4,0.4-4.8,1.1-7.3c0.8-2.5,1.8-4.9,3.1-7.3c1.3-2.4,2.9-4.7,4.8-6.8c1.8-2.1,3.8-4,6-5.7
    c2.2-1.6,4.5-2.9,6.9-3.9c2.4-0.9,4.9-1.4,7.4-1.4c0.6,0,1.3,0.1,2.1,0.2c0.8,0.1,1.6,0.4,2.4,0.7c0.8,0.3,1.5,0.8,2,1.3
    C167,49.9,167.3,50.6,167.3,51.5z"/>
  <path class="soal-logo-0" d="M229.8,95.7c-1.5,3.1-3.7,5.6-6.4,7.5c-2.8,1.8-5.9,2.7-9.4,2.7c-2.9,0-5.5-0.9-7.8-2.6
    c-2.3-1.8-4.3-4.1-6-6.9c-1.7-2.9-3.2-6.1-4.4-9.7c-1.2-3.6-2.2-7.2-3-11C192,72,191.4,68.5,191,65c-0.4-3.4-0.5-6.5-0.5-9
    c0-3.1,0.2-6.6,0.5-10.3c0.3-3.8,0.9-7.6,1.6-11.4c0.8-3.8,1.8-7.6,3-11.2c1.2-3.6,2.7-6.8,4.4-9.6c1.7-2.8,3.7-5,6-6.7
    c2.3-1.7,4.9-2.5,7.9-2.5c2.5,0,4.6,0.7,6.1,2.2c1.6,1.5,2.8,3.3,3.7,5.5c0.9,2.2,1.5,4.5,1.8,6.9c0.3,2.4,0.5,4.6,0.5,6.5
    c0,5.1-0.6,10.2-1.8,15.2c-1.2,5-2.9,9.7-5,14.1c-2.1,4.4-4.6,8.4-7.5,12c-2.9,3.6-5.9,6.6-9.2,9c0.7,3.2,1.5,6.3,2.4,9.3
    c0.9,3,2.1,5.7,3.4,8.1c1.3,2.4,2.9,4.3,4.6,5.7c1.7,1.5,3.7,2.2,6,2.2c2.2,0,4.2-0.5,5.8-1.4c1.6-0.9,3.1-2.2,4.5-4L229.8,95.7z
     M200.4,51.7c0,1-0.1,2.3,0,3.9c0,1.5,0.1,3.2,0.2,5c0.1,1.8,0.3,3.8,0.5,5.9c0.2,2.1,0.5,4.2,0.9,6.4c3.2-2.9,5.9-6,8.1-9.5
    c2.2-3.5,4.1-7.2,5.5-11.2c1.4-4,2.5-8.3,3.1-12.7c0.6-4.5,1-9.1,1-13.9c0-0.6,0-1.4,0-2.4c0-1-0.1-2.1-0.2-3.2
    c-0.1-1.1-0.3-2.3-0.6-3.4c-0.3-1.1-0.6-2.2-1.1-3.1c-0.4-0.9-1-1.7-1.7-2.3c-0.7-0.6-1.5-0.9-2.5-0.9c-1.8,0-3.4,0.9-4.7,2.7
    c-1.4,1.8-2.5,4.1-3.5,6.8c-1,2.8-1.8,5.8-2.4,9.1c-0.6,3.3-1.2,6.5-1.5,9.6c-0.4,3.1-0.6,5.8-0.8,8.2
    C200.5,49.1,200.4,50.8,200.4,51.7z"/>
  <path class="soal-logo-0" d="M53.7,58L41,51c-4.2-2.1-7.8-4.7-10.8-7.6c-2.9-2.8-4.3-6-4.3-9.6c0-6.2,3.2-12.7,9.4-19.3
    c6.3-6.7,13.7-10,22-10c5.1,0,7.5,1.7,7.5,5.2c0,1.2-1.7,6.3-3.3,10.9c-2,5.9-3.2,9.7-3.2,10.9c0,3.5,1.8,5.8,5.3,6.5l0.4,0.1
    l0.8-1.2c3.2-4.7,9.1-13.4,8.6-22.7C73,4.6,67.9,0,57.7,0c-8,0-15.4,2-22,6.1C29,10.1,24,15,20.7,20.5c-3.3,5.6-5,11.1-5,16.5
    c0,4.6,1.6,8.7,4.7,12.3c3,3.5,6.7,6.6,11.1,9.1l13,7.2c4.3,2.4,8,5.3,11,8.7c2.9,3.3,4.4,7,4.4,11.1c0,6-2.6,10.6-7.9,14.1
    c-5.3,3.5-11.6,5.2-18.6,5.2c-7,0-12.4-1.8-16-5.3c-3.6-3.5-5.5-7.9-5.5-13.2c0-6.5,2.6-12.3,7.8-17.7l1-0.9h-1.5
    c-4.9,0-9.4,1.3-13.3,4.2C2,74.9,0,79.7,0,86.3c0,8,3,14.2,9,18.5c5.9,4.3,13.3,6.4,21.8,6.4c9.9,0,18.9-2.7,26.7-8
    c7.9-5.4,11.9-12.7,11.9-21.6c0-5.2-1.6-9.9-4.6-13.9C61.8,63.6,58.1,60.4,53.7,58z"/>
  <path class="soal-logo-0" d="M90,66.2c0.9-1.4,2.5-2.2,4.5-2.2c2,0,4.6,0.9,6.1,3.4c1.2-2.1,3.8-3.6,6.4-3.6c2.9,0,4.7,1.7,4.9,4.5
    c0.2,3.7-2.1,6.8-4.3,9.8c-1,1.3-2,2.8-2.7,4.1l0,0.1c0,1.3-0.8,1.5-1.3,1.5c-1.4,0-3.7-1.7-5.5-3.2c-0.2-0.1-0.3-0.2-0.4-0.3
    c-3.6-2.9-6.2-5.9-7.6-8.9C89.1,69.5,89.1,67.6,90,66.2"/>
</g>
</svg>
