<svg version="1.1"
   xmlns="http://www.w3.org/2000/svg" xmlns:xlink="http://www.w3.org/1999/xlink" xmlns:a="http://ns.adobe.com/AdobeSVGViewerExtensions/3.0/"
   x="0px" y="0px" width="75.1px" height="38.3px" viewBox="0 0 75.1 38.3" style="enable-background:new 0 0 75.1 38.3;"
   xml:space="preserve">
<defs>
</defs>
<g>
  <path class="solr-0 fixed-colors-svg" d="M15.1,26.2c-0.9-0.5-1.8-0.8-2.9-1c-1-0.2-2.1-0.3-3.2-0.3c-0.9,0-1.7-0.1-2.6-0.2c-0.8-0.1-1.6-0.4-2.2-0.8
    c-0.6-0.4-1.2-0.9-1.6-1.5C2.2,21.9,2,21,2,20c0-0.9,0.2-1.7,0.6-2.3c0.4-0.6,0.9-1.1,1.5-1.5c0.6-0.4,1.4-0.7,2.2-0.8
    c1.4-0.3,2.9-0.3,4.3-0.1c0.6,0.1,1.2,0.2,1.7,0.4c0.5,0.2,1.1,0.5,1.5,0.8c0.5,0.3,0.9,0.8,1.2,1.3l0.2,0.3l1.4-0.6L16.4,17
    c-0.4-0.5-0.8-1-1.3-1.4c-0.5-0.4-1-0.8-1.6-1.1c-0.6-0.3-1.3-0.5-2-0.6c-0.7-0.1-1.6-0.2-2.6-0.2C8,13.7,7,13.8,6,14
    c-1,0.2-1.9,0.6-2.7,1.1c-0.8,0.5-1.5,1.2-2,2c-0.5,0.8-0.8,1.8-0.8,3c0,1.2,0.2,2.3,0.7,3.1c0.5,0.8,1.1,1.5,1.9,2
    c0.8,0.5,1.7,0.8,2.7,1c1,0.2,2,0.3,3.1,0.3c0.8,0,1.7,0.1,2.7,0.2c0.9,0.1,1.7,0.4,2.5,0.7c0.7,0.4,1.3,0.9,1.8,1.5
    c0.5,0.6,0.7,1.4,0.7,2.4c0,0.9-0.2,1.7-0.7,2.3c-0.4,0.6-1,1.2-1.7,1.6c-0.7,0.4-1.5,0.7-2.4,0.9c-0.9,0.2-1.8,0.3-2.6,0.3
    c-1.4,0-2.9-0.3-4.2-0.8c-1.4-0.5-2.6-1.3-3.6-2.4l-0.3-0.3l-1.1,1l0.3,0.3c1,1,2.2,1.9,3.7,2.6c1.5,0.7,3.2,1.1,5.2,1.1
    c0.9,0,1.9-0.1,2.9-0.3c1-0.2,2-0.6,2.9-1.1c0.9-0.5,1.6-1.2,2.2-2c0.6-0.8,0.9-1.9,0.9-3.1c0-1.2-0.3-2.3-0.8-3.1
    C16.7,27.4,16,26.7,15.1,26.2z"/>
  <path class="solr-0 fixed-colors-svg" d="M34.4,22.7c-0.7-0.9-1.6-1.6-2.7-2.1c-1-0.5-2.2-0.8-3.5-0.8c-1.2,0-2.3,0.2-3.3,0.7c-1,0.5-1.9,1.2-2.7,2
    c-0.8,0.8-1.4,1.8-1.8,2.9c-0.4,1.1-0.7,2.3-0.7,3.5c0,1.1,0.2,2.3,0.6,3.3c0.4,1.1,1,2,1.7,2.9c0.7,0.8,1.6,1.7,2.7,2.2
    c1,0.5,2.2,1,3.4,1h0h0c1.2,0,2.3-0.4,3.3-0.9c1-0.5,1.9-1.2,2.7-2.1c0.8-0.8,1.4-1.8,1.8-2.9c0.4-1.1,0.6-2.3,0.6-3.4
    c0-1.1-0.2-2.2-0.6-3.3C35.7,24.5,35.1,23.5,34.4,22.7z M28.3,36.5c-1,0-1.9-0.2-2.7-0.6c-0.8-0.4-1.6-1-2.2-1.7
    c-0.6-0.7-1.1-1.5-1.4-2.5c-0.4-0.9-0.5-1.9-0.6-2.9c0-0.9,0.2-1.8,0.5-2.7c0.3-0.9,0.8-1.7,1.4-2.5c0.6-0.7,1.4-1.3,2.2-1.8
    c0.8-0.5,1.8-0.7,2.8-0.7c1,0,1.9,0.2,2.7,0.6c0.8,0.4,1.6,1,2.2,1.7c0.6,0.7,1.1,1.5,1.5,2.5c0.4,0.9,0.5,1.9,0.5,2.9
    c0,0.9-0.2,1.8-0.5,2.7c-0.3,0.9-0.8,1.7-1.4,2.5c-0.6,0.7-1.4,1.3-2.2,1.8C30.3,36.3,29.3,36.5,28.3,36.5z"/>
  <path class="solr-0 fixed-colors-svg" d="M44.3,36.1c-0.2,0.1-0.5,0.1-0.6,0.1c-0.2,0-0.4,0.1-0.6,0.1c-0.2,0-0.4,0-0.6,0c-0.5,0-1-0.2-1.3-0.5
    c-0.3-0.4-0.6-0.7-0.6-1.1V13.3h-1v21.5c0,0.8,0.2,1.5,0.7,2.1c0.5,0.6,1.2,0.9,2.2,0.9c0.3,0,0.6,0,0.9-0.1c0.3,0,0.5-0.1,0.7-0.1
    c0.2,0,0.5-0.1,0.8-0.2l0.5-0.1L44.7,36L44.3,36.1z"/>
  <path class="solr-0 fixed-colors-svg" d="M50.7,21.4c-0.8,0.5-1.1,1.1-2.1,1.9v-3h-1v17h1V26.7c0-0.7,0.5-1.4,0.9-2c0.4-0.6,0.8-1.2,1.3-1.6
    c0.5-0.5,1.1-0.8,1.8-1.1c0.7-0.3,1.6-0.4,2.4-0.5l0.6,0v-1.2h-0.8C53.2,20.3,51.8,20.6,50.7,21.4z"/>
  <g>
    <path class="solr-0 fixed-colors-svg" d="M71.8,3.9L59.6,17.1l15.4-7.1C74.5,7.7,73.4,5.6,71.8,3.9z"/>
    <path class="solr-0 fixed-colors-svg" d="M62.7,0c-1.7,0-3.3,0.3-4.8,1l-1.6,13.8l8.2-14.6C63.9,0,63.3,0,62.7,0z"/>
    <path class="solr-0 fixed-colors-svg" d="M75,10.8L60.5,19l13.6-1.6c0.6-1.5,1-3.2,1-4.9C75.1,11.9,75.1,11.3,75,10.8z"/>
    <path class="solr-0 fixed-colors-svg" d="M69.7,22.7c1.6-1.1,3-2.6,3.9-4.3L60.8,21L69.7,22.7z"/>
    <path class="solr-0 fixed-colors-svg" d="M65.2,0.3l-7.1,15.4L71.3,3.5C69.7,1.9,67.6,0.7,65.2,0.3z"/>
    <path class="solr-0 fixed-colors-svg" d="M63.8,24.8c1.4-0.1,2.7-0.5,3.9-1L60.5,23L63.8,24.8z"/>
    <path class="solr-0 fixed-colors-svg" d="M51.4,7.3c-0.6,1.2-0.9,2.6-1,4l1.9,3.4L51.4,7.3z"/>
    <path class="solr-0 fixed-colors-svg" d="M56.9,1.5c-1.8,0.9-3.3,2.3-4.4,3.9l1.8,9.1L56.9,1.5z"/>
  </g>
</g>
</svg>
