<svg version="1.1"
   xmlns="http://www.w3.org/2000/svg" xmlns:xlink="http://www.w3.org/1999/xlink" xmlns:a="http://ns.adobe.com/AdobeSVGViewerExtensions/3.0/"
   x="0px" y="0px" width="40px" height="35.7px" viewBox="0 0 40 35.7" style="enable-background:new 0 0 40 35.7;"
   xml:space="preserve">
<defs>
</defs>
<path class="swift-0 fixed-colors-svg" d="M24.6,0c17.6,11.9,11.9,25.1,11.9,25.1s5,5.6,3,10.6c0,0-2.1-3.4-5.5-3.4c-3.3,0-5.3,3.4-12,3.4
  C7.1,35.7,0,23.2,0,23.2c13.4,8.9,22.6,2.6,22.6,2.6c-6.1-3.5-19-20.3-19-20.3C14.9,15,19.8,17.5,19.8,17.5
  c-2.9-2.4-11-14.1-11-14.1c6.5,6.6,19.4,15.7,19.4,15.7C31.8,9.1,24.6,0,24.6,0z"/>
</svg>
