<svg xmlns="http://www.w3.org/2000/svg" viewBox="0 0 104.72 41.2"><defs><style>.cls-1{fill:#f6f6f6;}</style></defs><title>xing</title><g id="Warstwa_2" data-name="Warstwa 2"><g id="lifthero"><g id="layer1"><path id="path19359" class="cls-1" d="M82.92,5c-.24,0-.45.25-.55.42a.8.8,0,0,0,0,.71l2.75,4.8a.07.07,0,0,1,0,0L80.82,18.6c-.11.22-.11.2,0,.37s.29,0,.53,0h4.07c.61,0,.9-.16,1.11-.53l4.39-7.63-2.79-5A1.34,1.34,0,0,0,87,5ZM65,14c-6.31,0-9.71,3.9-9.71,10.57v7c0,6.37,3,9.61,9,9.61a20.55,20.55,0,0,0,9-2V26.55c0-.39-.25-.55-.64-.55h-8c-.39,0-.32.16-.32.55v3.23c0,.39-.07.21.32.21h3.74s-.06.46-.06.48v5.45s0,0,0,0a11.41,11.41,0,0,1-3.85.67c-2.86,0-4.17-1.77-4.17-5.4V24.57a6.32,6.32,0,0,1,1.07-4.12c.83-1,2-1.44,3.82-1.44H66a19.21,19.21,0,0,1,5.89.89c.2.06.24,0,.36-.12s.06-.33.06-.54V16.14a.86.86,0,0,0-.55-.92A11.78,11.78,0,0,0,66.08,14ZM.85,15c-.19,0-.33-.14-.42,0a.36.36,0,0,0,0,.42L7,27.39a0,0,0,0,1,0,0L.07,40a.79.79,0,0,0,0,.65c.08.14.23.32.42.32H5c.52,0,.7-.41.9-.81l4.62-8.56s0-.05,0-.05h0L15.2,40.2c.2.4.36.81.88.81H20.6c.19,0,.33-.19.42-.33a.72.72,0,0,0,.07-.31.76.76,0,0,0-.07-.31L14,27.4a.11.11,0,0,1,0,0v0l6.63-12a.63.63,0,0,0,.07-.28c0-.09,0,0-.07,0s-.23,0-.42,0H15.71c-.52,0-.7.07-.9.48l-4.25,7.79s0,0,0,0,0,0,0-.05l-4.25-7.7c-.17-.34-.35-.49-.9-.49Zm27.45.67a.67.67,0,0,0-.67-.67H24a.67.67,0,0,0-.67.67V40.33A.67.67,0,0,0,24,41h3.66a.67.67,0,0,0,.67-.67ZM33.93,15c-.39,0-.62-.15-.62.24V40.09c0,.39.23.91.62.91h3.58a1,1,0,0,0,.8-.91v-15s-.05,0,0,0,0,0,0,0L46,40.19c.16.32.39.81.88.81h3.74c.39,0,.68-.52.68-.91V15.24c0-.39-.29-.24-.68-.24H47c-.39,0-.74-.15-.74.24v15s0,0,0,0,0,0,0,0L38.54,15.48c-.17-.34-.34-.48-.89-.48Z"/><path id="path19375" class="cls-1" d="M100,0a1.1,1.1,0,0,0-1.09.65l-9,16,5.78,10.59a1.27,1.27,0,0,0,1.14.77h4.06a.62.62,0,0,0,.54-.29.66.66,0,0,0,0-.64L95.63,16.6a0,0,0,0,1,0,0l9-15.92a.43.43,0,0,0,0-.51c-.1-.17-.3-.14-.54-.14Z"/></g></g></g></svg>