<?xml version="1.0" encoding="utf-8"?>
<svg version="1.1" id="Warstwa_1" xmlns="http://www.w3.org/2000/svg" xmlns:xlink="http://www.w3.org/1999/xlink" x="0px" y="0px"
	 viewBox="0 0 323.1 3039.4" style="enable-background:new 0 0 323.1 3039.4;" xml:space="preserve">
<style type="text/css">
	.bcg-ruby-mobile0{fill:#1E2333;}
	.bcg-ruby-mobile1{fill:#2B304B;}
	.bcg-ruby-mobile2{fill:#B92745;}
</style>
<path class="bcg-ruby-mobile0" d="M-66.1,201.7c10,0,18.2-8.2,18.2-18.2l0,0c0-10-8.1-18.2-18.2-18.2s-18.2,8.1-18.2,18.2l0,0l0,0
	C-84.3,193.5-76.2,201.7-66.1,201.7z"/>
<path class="bcg-ruby-mobile0" d="M-24.9,203.3h18.4c-0.2,1.1-0.4,2.3-0.4,3.5v-0.1c0,10,8.2,18.1,18.2,18.1l0,0h90.8c10,0,18.2-8.1,18.2-18.1
	v0.1c0-1.1-0.1-2.3-0.4-3.4h76c10-0.1,18.2-8.2,18.2-18.3v0c0-10-8.1-18.2-18.2-18.3h-30.3c1-2.2,1.5-4.6,1.4-7l0,0
	c0-10-8.1-18.2-18.2-18.2H63.2l-13.7,14.8c-0.1,0.1-0.2,0.1-0.3,0.2h0c0,0-0.1,0.1-0.2,0.1c0,0,0,0,0,0l0,0c0,0-0.1-0.1-0.2-0.1
	c0,0,0,0,0,0c0,0-0.1,0-0.2-0.1l0,0c0,0-0.1-0.1-0.1-0.1l-11.8-14.8h-4c-10,0-18.2,8.2-18.2,18.2l0,0c0,2.4,0.5,4.8,1.4,7h-40.8
	c-10,0-18.2,8.2-18.2,18.2v0.1C-43.1,195-35,203.2-24.9,203.3z"/>
<path class="bcg-ruby-mobile0" d="M154.2,283.1h30.3c-1,2.2-1.5,4.6-1.4,7l0,0c0,10,8.2,18.2,18.2,18.2h116.3c10,0,18.2-8.2,18.2-18.2l0,0
	c0-2.4-0.5-4.8-1.4-7h40.8c10,0,18.2-8.1,18.2-18.2v-0.1c0-10-8.1-18.2-18.2-18.3h-18.4c0.2-1.1,0.4-2.3,0.4-3.5v0.1
	c0-10-8.2-18.1-18.2-18h-51l-13.4,14.5c-0.1,0.1-0.2,0.1-0.3,0.1h0c0,0-0.1,0.1-0.2,0.1c0,0,0,0,0,0l0,0c0,0-0.1-0.1-0.2-0.1
	c0,0,0,0,0,0c0,0-0.1,0-0.1-0.1l0,0c0,0-0.1,0-0.1,0l-11.6-14.5h-13.7c-10,0-18.2,8.1-18.2,18.1v-0.2c0,1.1,0.1,2.3,0.4,3.5h-76
	c-10,0-18.2,8.2-18.2,18.3v0C136,274.8,144.2,283,154.2,283.1z"/>
<path class="bcg-ruby-mobile0" d="M165.7,1081.4c-7.7,0-13.8,6.2-13.9,13.9l0,0c0.1,7.7,6.5,13.7,14.1,13.6c7.5-0.1,13.5-6.1,13.6-13.6l0,0
	C179.6,1087.7,173.3,1081.4,165.7,1081.4z"/>
<path class="bcg-ruby-mobile0" d="M379.5,1096.4L379.5,1096.4c0-7.6-6.2-13.7-13.9-13.7h-23.1c0.7-1.7,1-3.6,1.1-5.5v-0.1c0-7.7-6.2-13.9-13.9-14
	h-88.6c-7.7,0-13.8,6.3-13.9,13.9v0.1c0,1.9,0.4,3.8,1.1,5.5h-31.1c-7.7,0-13.8,6.1-13.9,13.8v0c0,7.7,6.2,13.8,13.9,13.8h14
	c-0.2,0.9-0.3,1.8-0.3,2.8l0,0c0,7.7,6.2,13.9,13.8,13.9H294c7.7,0,13.8-6.2,13.9-13.9l0,0c0-0.9-0.1-1.9-0.3-2.8h58
	C373.3,1110.3,379.5,1104.1,379.5,1096.4z"/>
<g>
	<path class="bcg-ruby-mobile0" d="M173.4,2059.8L173.4,2059.8c0.1,7.7,6.5,13.7,14.1,13.6c7.5-0.1,13.5-6.1,13.6-13.6l0,0
		c-0.1-7.7-6.5-13.7-14.1-13.6C179.6,2046.3,173.6,2052.3,173.4,2059.8z"/>
	<path class="bcg-ruby-mobile0" d="M169.8,2058.6L169.8,2058.6c0-7.6-6.2-13.8-13.9-13.8h-14c0.2-0.9,0.3-1.8,0.3-2.7l0,0
		c0-7.7-6.2-13.9-13.9-13.9H59c-7.7,0-13.8,6.2-13.9,13.9l0,0c0,0.9,0.1,1.9,0.3,2.8h-58c-7.7,0-13.8,6.2-13.9,13.9v-0.1
		c0,7.7,6.2,13.8,13.9,13.8h23.1c-0.7,1.8-1,3.6-1.1,5.5v0c0,7.7,6.2,13.9,13.9,13.9h88.7c7.7,0,13.8-6.2,13.9-13.9v-0.1
		c0-1.9-0.4-3.8-1.1-5.5h31.1C163.5,2072.4,169.7,2066.2,169.8,2058.6L169.8,2058.6z"/>
</g>
<g>
	<path class="bcg-ruby-mobile0" d="M264,2677.8L264,2677.8c0.1,7.7,6.5,13.7,14.1,13.6c7.5-0.1,13.5-6.1,13.6-13.6l0,0
		c-0.1-7.7-6.5-13.7-14.1-13.6C270.1,2664.3,264.1,2670.3,264,2677.8z"/>
	<path class="bcg-ruby-mobile0" d="M260.3,2676.6L260.3,2676.6c0-7.6-6.2-13.8-13.9-13.8h-14c0.2-0.9,0.3-1.8,0.3-2.7l0,0
		c0-7.7-6.2-13.9-13.9-13.9h-69.3c-7.7,0-13.8,6.2-13.9,13.9l0,0c0,0.9,0.1,1.9,0.3,2.8h-58c-7.7,0-13.8,6.2-13.9,13.9v-0.1
		c0,7.7,6.2,13.8,13.9,13.8H101c-0.7,1.8-1,3.6-1.1,5.5v0c0,7.7,6.2,13.9,13.9,13.9h88.7c7.7,0,13.8-6.2,13.9-13.9v-0.1
		c0-1.9-0.4-3.8-1.1-5.5h31.1C254.1,2690.4,260.2,2684.2,260.3,2676.6L260.3,2676.6z"/>
</g>
<path class="bcg-ruby-mobile0" d="M262.3,833.4c-16.2,0-29.3,13.2-29.4,29.4l0,0c0.2,16.2,13.5,29.2,29.7,29c15.9-0.2,28.8-13.1,29-29l0,0
	C291.6,846.6,278.5,833.4,262.3,833.4z"/>
<path class="bcg-ruby-mobile0" d="M195.8,830.9H166c0.4-1.9,0.6-3.8,0.6-5.7v0.1c0-16.2-13.2-29.2-29.4-29.2H-9.3c-16.2,0-29.3,13.1-29.4,29.3
	v-0.1c0,1.9,0.2,3.8,0.6,5.6h-122.7c-16.2,0-29.4,13.3-29.4,29.5v0.1c0,16.2,13.2,29.4,29.4,29.4h48.9c-1.5,3.6-2.3,7.5-2.3,11.4
	v0.1c0,16.2,13.2,29.4,29.4,29.4h187.6c16.2,0,29.4-13.3,29.4-29.4v0c0-3.9-0.8-7.8-2.3-11.4h65.9c16.2,0,29.3-13.2,29.4-29.4v-0.1
	C225.1,844.2,211.9,830.9,195.8,830.9z"/>
<path class="bcg-ruby-mobile0" d="M172.2,694.2L172.2,694.2c0-6.9-5.6-12.5-12.5-12.5s-12.5,5.6-12.5,12.5l0,0c0,6.9,5.6,12.5,12.5,12.5
	C166.6,706.6,172.2,701.1,172.2,694.2z"/>
<path class="bcg-ruby-mobile0" d="M-32.4,693.2L-32.4,693.2c0,6.8,5.6,12.3,12.5,12.3H0.8c-0.7,1.6-1,3.2-1,4.9v0.1c0,6.9,5.6,12.5,12.5,12.6H92
	c6.9,0,12.5-5.7,12.5-12.6v-0.1c0-1.7-0.3-3.4-1-4.9h28c6.9,0,12.5-5.5,12.5-12.4v0c0-6.9-5.6-12.4-12.5-12.4h-12.6
	c0.1-0.8,0.2-1.7,0.2-2.5v-0.1c0-6.9-5.6-12.5-12.5-12.6H44.4c-6.9,0.1-12.5,5.7-12.5,12.6v0.1c0,0.9,0.1,1.7,0.2,2.6h-52.1
	C-26.8,680.8-32.4,686.4-32.4,693.2z"/>
<path class="bcg-ruby-mobile1" d="M146.8,50.7L146.8,50.7c0,6.8,5.6,12.3,12.5,12.3H180c-0.7,1.6-1,3.2-1,4.9V68c0,6.9,5.6,12.5,12.5,12.6h79.7
	c6.9,0,12.5-5.7,12.5-12.6v-0.1c0-1.7-0.3-3.4-1-4.9h28c6.9,0,12.5-5.5,12.5-12.4v0c0-6.9-5.6-12.4-12.5-12.4H298
	c0.1-0.8,0.2-1.7,0.2-2.5v-0.1c0-6.9-5.6-12.5-12.5-12.6h-62.2c-6.9,0.1-12.5,5.7-12.5,12.6v0.1c0,0.9,0.1,1.7,0.2,2.6h-52.1
	C152.4,38.2,146.8,43.8,146.8,50.7z"/>
<g>
	<path class="bcg-ruby-mobile0" d="M209.9,2155.7c0,6,4.9,10.9,10.9,10.9c6,0,10.9-4.9,10.9-10.9c0-6-4.9-10.9-10.9-10.9
		C214.8,2144.7,209.9,2149.6,209.9,2155.7z"/>
	<path class="bcg-ruby-mobile0" d="M389.4,2156.4c0-6-4.9-10.9-10.9-10.9h-18.2c0.6-1,0.9-2.8,0.9-4.3c0-6-4.9-10.9-10.9-10.9h-69.9
		c-6,0-10.9,4.9-10.9,10.9c0,1.5,0.3,3.3,0.9,4.3h-24.5c-6,0-10.9,4.9-10.9,10.9c0,6,4.9,10.9,10.9,10.9h11.1
		c-0.1,0.7-0.2,1.5-0.2,2.2v0.1c0,6,4.9,11,10.9,11h54.6c6,0,10.9-4.9,10.9-11v-0.1c0-0.8-0.1-1.5-0.2-2.2h45.7
		C384.5,2167.3,389.4,2162.4,389.4,2156.4z"/>
</g>
<g>
	<path class="bcg-ruby-mobile0" d="M17.8,3011.2c0,6,4.9,10.9,10.9,10.9s10.9-4.9,10.9-10.9c0-6-4.9-10.9-10.9-10.9S17.8,3005.2,17.8,3011.2z"/>
	<path class="bcg-ruby-mobile0" d="M197.2,3011.9c0-6-4.9-10.9-10.9-10.9H168c0.6-1,0.9-2.8,0.9-4.3c0-6-4.9-10.9-10.9-10.9H88
		c-6,0-10.9,4.9-10.9,10.9c0,1.5,0.3,3.3,0.9,4.3H53.4c-6,0-10.9,4.9-10.9,10.9c0,6,4.9,10.9,10.9,10.9h11.1
		c-0.1,0.7-0.2,1.5-0.2,2.2v0.1c0,6,4.9,11,10.9,11h54.6c6,0,10.9-4.9,10.9-11v-0.1c0-0.8-0.1-1.5-0.2-2.2h45.7
		C192.3,3022.9,197.2,3018,197.2,3011.9z"/>
</g>
<path class="bcg-ruby-mobile0" d="M190.7,592.8c0,6,4.9,10.9,10.9,10.9c6,0,10.9-4.9,10.9-10.9s-4.9-10.9-10.9-10.9
	C195.6,581.9,190.7,586.8,190.7,592.8z"/>
<path class="bcg-ruby-mobile0" d="M370.2,593.5c0-6-4.9-10.9-10.9-10.9H341c0.6-1,0.9-2.8,0.9-4.3c0-6-4.9-10.9-10.9-10.9H261
	c-6,0-10.9,4.9-10.9,10.9c0,1.5,0.3,3.3,0.9,4.3h-24.5c-6,0-10.9,4.9-10.9,10.9s4.9,10.9,10.9,10.9h11.1c-0.1,0.7-0.2,1.5-0.2,2.2
	v0.1c0,6,4.9,11,10.9,11h54.6c6,0,10.9-4.9,10.9-11v-0.1c0-0.8-0.1-1.5-0.2-2.2h45.7C365.3,604.5,370.2,599.6,370.2,593.5z"/>
<path class="bcg-ruby-mobile0" d="M8.7,322.1L8.7,322.1c0,1,0.1,1.9,0.3,2.8h-57.8c-7.6,0-13.8,6.2-13.8,13.8l0,0c0,7.6,6.2,13.8,13.8,13.8h23
	c-0.8,1.7-1.1,3.5-1.1,5.3v-0.1c0,7.6,6.2,13.8,13.8,13.7h88.3c7.6,0,13.8-6.1,13.8-13.7l0,0v0c0-1.8-0.3-3.6-1.1-5.3h31
	c7.6,0,13.8-6.2,13.8-13.8v0c0-7.6-6.2-13.8-13.8-13.8h-14c0.2-0.9,0.3-1.9,0.3-2.8l0,0c0-7.6-6.2-13.8-13.8-13.8h-69
	C14.9,308.3,8.7,314.5,8.7,322.1z"/>
<path class="bcg-ruby-mobile0" d="M150.4,353.6c7.6,0,13.8-6.2,13.8-13.8l0,0c0-7.7-6.2-13.8-13.8-13.8c-7.7,0-13.8,6.2-13.8,13.8l0,0
	C136.6,347.3,142.8,353.5,150.4,353.6z"/>
<polygon class="bcg-ruby-mobile2" points="267.2,211.4 273.7,203.3 265.7,203 "/>
<polygon class="bcg-ruby-mobile2" points="265.9,212.7 264.3,203.6 254.8,212.3 "/>
<polygon class="bcg-ruby-mobile2" points="294.8,215.2 282.8,214.7 275.7,236 "/>
<polygon class="bcg-ruby-mobile2" points="282.2,211.9 284.4,203.7 276.6,203.4 "/>
<polygon class="bcg-ruby-mobile2" points="283.3,213.3 295.1,213.7 285.7,204.4 "/>
<polygon class="bcg-ruby-mobile2" points="267.9,212.8 281.4,213.3 275.1,203.8 "/>
<polygon class="bcg-ruby-mobile2" points="274,236.5 281.3,214.7 267.8,214.2 "/>
<polygon class="bcg-ruby-mobile2" points="272.3,235.7 266.3,214.1 254.7,213.7 "/>
<path class="bcg-ruby-mobile1" d="M273.5,239.5L273.5,239.5c0,0,0.1,0,0.1,0.1l0,0.1c0,0,0.1,0.1,0.2,0.1l0,0v0c0,0,0.1,0,0.2,0c0,0,0,0,0,0
	c0.1,0,0.2-0.1,0.3-0.2l13.4-14.6l8.8-9.6c0.5-0.3,0.7-1,0.4-1.5l-11.3-11.2l0,0c0,0-0.1-0.1-0.2-0.1h0l-0.1,0c0,0-0.1,0-0.1,0v0.1
	l-20.5-0.7l0,0l0-0.1c0,0,0,0-0.1,0c0,0,0,0,0,0h0h-0.1l0,0l0,0l0,0l0,0l-11.7,10.6c-0.3,0.3-0.3,0.9,0.1,1.2c0,0,0,0,0.1,0
	l8.9,11.2L273.5,239.5C273.4,239.4,273.5,239.4,273.5,239.5z M267.9,212.8l7.3-8.9l6.2,9.4L267.9,212.8z M283.3,213.3l2.4-8.9
	l9.4,9.4L283.3,213.3z M282.2,211.9l-5.6-8.5l7.8,0.3L282.2,211.9z M267.2,211.4l-1.5-8.4l8.1,0.3L267.2,211.4z M265.9,212.7
	l-11.2-0.4l9.6-8.7L265.9,212.7z M281.3,214.7l-7.4,21.8l-6.2-22.3L281.3,214.7z M282.8,214.7l11.9,0.4L275.7,236L282.8,214.7z
	 M266.3,214.1l6,21.6l-17.6-22L266.3,214.1z"/>
<polygon class="bcg-ruby-mobile2" points="58.4,130.2 70.3,130.6 60.8,121.2 "/>
<polygon class="bcg-ruby-mobile2" points="43,129.7 56.5,130.1 50.3,120.7 "/>
<polygon class="bcg-ruby-mobile2" points="69.9,132 58,131.6 50.8,152.8 "/>
<polygon class="bcg-ruby-mobile2" points="41.1,129.6 39.5,120.5 29.9,129.2 "/>
<polygon class="bcg-ruby-mobile2" points="42.3,128.2 48.9,120.2 40.8,119.9 "/>
<polygon class="bcg-ruby-mobile2" points="57.3,128.8 59.5,120.6 51.7,120.2 "/>
<polygon class="bcg-ruby-mobile2" points="47.4,152.6 41.5,131 29.9,130.6 "/>
<polygon class="bcg-ruby-mobile2" points="49.1,153.4 56.5,131.6 42.9,131.1 "/>
<path class="bcg-ruby-mobile1" d="M48.6,156.4L48.6,156.4c0,0,0.1,0,0.2,0.1l0,0.1c0,0,0.1,0.1,0.2,0.1l0,0v0c0,0,0.1,0,0.2,0l0,0
	c0.1,0,0.2-0.1,0.3-0.2l13.7-14.8l8.6-9.4c0.2-0.1,0.4-0.3,0.5-0.5c0.2-0.3,0.2-0.7,0-1L61,119.4l0,0c0,0-0.1-0.1-0.2-0.1h0l-0.1,0
	c0,0-0.1,0-0.1,0v0.1L40,118.6l0,0l0-0.1c0,0,0,0-0.1,0c0,0,0,0,0,0h0h-0.1l0,0l0,0l0,0l0,0l-11.7,10.6c-0.2,0.2-0.3,0.5-0.2,0.8
	c0,0.2,0.1,0.4,0.3,0.5l8.8,11L48.6,156.4C48.5,156.3,48.6,156.3,48.6,156.4z M43,129.7l7.3-8.9l6.2,9.4L43,129.7z M58.4,130.2
	l2.4-8.9l9.4,9.4L58.4,130.2z M57.3,128.8l-5.6-8.5l7.8,0.3L57.3,128.8z M42.3,128.2l-1.5-8.4l8.1,0.3L42.3,128.2z M41.1,129.6
	l-11.2-0.4l9.6-8.7L41.1,129.6z M56.5,131.6l-7.4,21.8l-6.2-22.3L56.5,131.6z M58,131.6l11.9,0.4l-19.1,20.8L58,131.6z M41.5,131
	l6,21.6l-17.6-22L41.5,131z"/>
<g>
	<path class="bcg-ruby-mobile0" d="M167.6,1252.8L167.6,1252.8c-0.1,7.7,5.9,14,13.6,14.1c7.7,0.1,14-5.9,14.1-13.6c0-0.2,0-0.3,0-0.5l0,0
		c-0.1-7.7-6.5-13.7-14.1-13.6C173.8,1239.3,167.7,1245.4,167.6,1252.8z"/>
	<path class="bcg-ruby-mobile0" d="M163.9,1251.6L163.9,1251.6c0-7.6-6.2-13.8-13.9-13.8h-14.1c0.2-0.9,0.3-1.8,0.3-2.7l0,0
		c0-7.7-6.2-13.9-13.9-13.9h-19.8l6.9-7.5c0.5-0.3,0.7-0.9,0.4-1.4l-11.3-11.2l0,0c0,0-0.1-0.1-0.2-0.1h0l-0.1,0c0,0-0.1,0-0.1,0
		v0.1l-20.5-0.7l0,0l0-0.1c0,0,0,0-0.1,0c0,0,0,0,0,0h0h-0.1l0,0l0,0l0,0l0,0L65.4,1211c-0.2,0.2-0.3,0.5-0.2,0.8
		c0,0.2,0.1,0.4,0.3,0.5l7.3,9.1H53.1c-7.7,0-13.8,6.2-13.9,13.9l0,0c0,0.9,0.1,1.9,0.3,2.8h-58c-7.7,0-13.8,6.2-13.9,13.9v-0.1
		c0,7.7,6.2,13.8,13.9,13.8H4.6c-0.7,1.8-1,3.6-1.1,5.5v0.1c0,7.7,6.2,13.9,13.9,13.9h88.7c7.7,0,13.8-6.2,13.9-13.9v-0.1
		c0-1.9-0.4-3.8-1.1-5.5H150C157.6,1265.5,163.9,1259.3,163.9,1251.6L163.9,1251.6z M80.6,1211.3l7.3-8.9l6.2,9.4L80.6,1211.3z
		 M96,1211.9l2.4-8.9l9.4,9.4L96,1211.9z M94.9,1210.4l-5.6-8.5l7.8,0.3L94.9,1210.4z M79.9,1209.9l-1.5-8.4l8.1,0.3L79.9,1209.9z
		 M78.6,1211.2l-11.2-0.4l9.6-8.7L78.6,1211.2z M94,1213.2l-7.4,21.8l-6.2-22.3L94,1213.2z M95.5,1213.3l11.9,0.4l-19.1,20.8
		L95.5,1213.3z M79,1212.7l6,21.6l-17.6-22L79,1212.7z"/>
	<polygon class="bcg-ruby-mobile2" points="107.5,1213.7 95.5,1213.2 88.4,1234.5 	"/>
	<polygon class="bcg-ruby-mobile2" points="78.6,1211.2 77,1202.2 67.5,1210.8 	"/>
	<polygon class="bcg-ruby-mobile2" points="79.9,1209.9 86.5,1201.8 78.4,1201.5 	"/>
	<polygon class="bcg-ruby-mobile2" points="94.9,1210.4 97.1,1202.2 89.3,1201.9 	"/>
	<polygon class="bcg-ruby-mobile2" points="80.6,1211.3 94.1,1211.8 87.8,1202.4 	"/>
	<polygon class="bcg-ruby-mobile2" points="96,1211.9 107.8,1212.3 98.4,1202.9 	"/>
	<polygon class="bcg-ruby-mobile2" points="86.7,1235 94,1213.2 80.5,1212.7 	"/>
	<polygon class="bcg-ruby-mobile2" points="85,1234.3 79,1212.7 67.4,1212.2 	"/>
</g>
<path class="bcg-ruby-mobile0" d="M118,1851.9L118,1851.9c-9.9,0-18,8.1-18,18c0,9.9,8,17.9,18,18l0,0c9.9,0,18-8.1,18-18
	C136,1859.9,127.9,1851.9,118,1851.9z"/>
<path class="bcg-ruby-mobile0" d="M377.2,1853.4h-29.9c0.9-2.2,1.4-4.7,1.4-7.1c0-9.9-8.1-18.1-18-18.1h-115c-9.9,0-18,8.2-18,18.1
	c0,2.4,0.5,4.9,1.4,7.1h-40.3c-9.8,0-17.8,8-17.8,17.8s8,17.8,17.8,17.8h18.2c-0.2,1.2-0.3,2.4-0.4,3.7v0.1c0,9.9,8.1,18.1,18,18.1
	h89.8c9.9,0,18-8.1,18-18.1v-0.1c0-1.2-0.1-2.5-0.4-3.7h75.1c9.8,0,17.8-8,17.8-17.8S387.1,1853.4,377.2,1853.4L377.2,1853.4z"/>
<path class="bcg-ruby-mobile0" d="M151.7,2483.4h-29.9c0.9-2.2,1.4-4.7,1.4-7.1c0-9.9-8.1-18.1-18-18.1h-115c-9.9,0-18,8.2-18,18.1
	c0,2.4,0.5,4.9,1.4,7.1h-40.3c-9.8,0-17.8,8-17.8,17.8s8,17.8,17.8,17.8h18.2c-0.2,1.2-0.3,2.4-0.4,3.7v0.1c0,9.9,8.1,18.1,18,18.1
	h89.8c9.9,0,18-8.1,18-18.1v-0.1c0-1.2-0.1-2.5-0.4-3.7h75.1c9.8,0,17.8-8,17.8-17.8S161.5,2483.4,151.7,2483.4L151.7,2483.4z"/>
<path class="bcg-ruby-mobile0" d="M299.6,1573.2c-6.9,0-12.5,5.6-12.5,12.5l0,0c0,6.9,5.6,12.5,12.5,12.5s12.5-5.6,12.5-12.5l0,0l0,0
	C312.1,1578.8,306.5,1573.2,299.6,1573.2z"/>
<path class="bcg-ruby-mobile0" d="M271.3,1572.2h-12.6c0.1-0.8,0.2-1.6,0.2-2.4c0-6.9-5.6-12.4-12.5-12.4h-52.4l-11.8,12.8
	c-0.1,0.1-0.2,0.1-0.3,0.1h0c0,0-0.1,0-0.2,0v0l0,0c0,0-0.1,0-0.2,0h0c0,0-0.1,0-0.2-0.1l0,0c0,0-0.1-0.1-0.1-0.1l-6.6-8.2
	c-1.8,2.2-2.8,5-2.8,7.8c0,0.8,0.1,1.7,0.2,2.5h-52.1c-6.9,0-12.5,5.6-12.5,12.5v-0.1c0,6.9,5.6,12.4,12.5,12.4h20.7
	c-0.6,1.6-1,3.3-1,5c0,6.9,5.6,12.6,12.5,12.6h79.7c6.9,0,12.5-5.8,12.5-12.6c0-1.7-0.4-3.4-1-5h28c6.9,0,12.4-5.5,12.5-12.4v0
	C283.8,1577.8,278.3,1572.2,271.3,1572.2C271.4,1572.2,271.4,1572.2,271.3,1572.2z"/>
<polygon class="bcg-ruby-mobile2" points="210,1508.5 219.3,1497 207.9,1496.7 "/>
<polygon class="bcg-ruby-mobile2" points="217.4,1541.1 209.2,1511.4 193.3,1510.8 "/>
<polygon class="bcg-ruby-mobile2" points="230,1509.1 233.1,1497.6 222.1,1497.2 "/>
<polygon class="bcg-ruby-mobile2" points="229.1,1512.1 210.7,1511.4 219.1,1541.8 "/>
<polygon class="bcg-ruby-mobile2" points="231.1,1510.7 247.5,1511.3 234.4,1498.3 "/>
<polygon class="bcg-ruby-mobile2" points="230.6,1512.1 220.8,1541.3 247,1512.7 "/>
<polygon class="bcg-ruby-mobile2" points="210.6,1510 229.3,1510.6 220.7,1497.6 "/>
<polygon class="bcg-ruby-mobile2" points="208.8,1509.9 206.5,1497.3 193.2,1509.4 "/>
<path class="bcg-ruby-mobile1" d="M191.3,1510.6l27.2,34c0,0,0.1,0.1,0.1,0.1l0,0c0,0,0.1,0,0.2,0.1l0,0.1c0,0,0.1,0.1,0.2,0.1l0,0v0
	c0,0,0.1,0,0.2,0l0,0c0.1,0,0.2-0.1,0.3-0.2l29.4-32c0.3-0.1,0.5-0.3,0.5-0.6l0,0c0.3-0.3,0.3-0.7,0-1l-14.9-14.8l0,0
	c0,0-0.1-0.1-0.2-0.1h0l-0.1,0c0,0-0.1,0-0.1,0l0,0l-27-1l0,0h0h-0.1l0,0h0h-0.1l0,0l0,0l0,0l0,0l-15.4,14
	C190.8,1509.7,190.9,1510.3,191.3,1510.6L191.3,1510.6L191.3,1510.6z M229.1,1512.1l-10,29.7l-8.4-30.4L229.1,1512.1z M210.6,1510
	l10.1-12.4l8.7,13L210.6,1510z M217.4,1541.1l-24.1-30.3l15.9,0.6L217.4,1541.1z M230.6,1512.1l16.4,0.6l-26.3,28.5L230.6,1512.1z
	 M231.1,1510.7l3.3-12.5l13.1,13L231.1,1510.7z M230,1509.1l-7.9-11.9l11,0.4L230,1509.1z M210,1508.4l-2.1-11.8l11.4,0.4
	L210,1508.4z M208.9,1509.9l-15.6-0.6l13.4-12.1L208.9,1509.9z"/>
<polygon class="bcg-ruby-mobile2" points="176.4,1545.8 188.4,1546.3 182.8,1537.9 "/>
<polygon class="bcg-ruby-mobile2" points="190.3,1546.3 200.8,1546.7 192.4,1538.4 "/>
<polygon class="bcg-ruby-mobile2" points="174.4,1545.8 172.9,1537.7 164.5,1545.4 "/>
<polygon class="bcg-ruby-mobile2" points="200.5,1548.1 189.8,1547.8 183.5,1566.7 "/>
<polygon class="bcg-ruby-mobile2" points="189.2,1544.9 191.2,1537.7 184.2,1537.4 "/>
<polygon class="bcg-ruby-mobile2" points="175.6,1544.5 181.4,1537.3 174.3,1537.1 "/>
<polygon class="bcg-ruby-mobile2" points="181.8,1567.2 188.4,1547.7 176.3,1547.3 "/>
<polygon class="bcg-ruby-mobile2" points="180.1,1566.4 174.8,1547.2 164.4,1546.8 "/>
<path class="bcg-ruby-mobile1" d="M181.3,1570.2L181.3,1570.2c0,0,0.1,0,0.2,0.1h0c0,0,0.1,0,0.2,0l0,0l0,0c0,0,0.1,0,0.2,0h0
	c0.1,0,0.2-0.1,0.3-0.2l11.8-12.9l8.4-9.1c0.5-0.3,0.7-0.9,0.4-1.4l0,0l-10.2-10.2l0,0c0,0-0.1-0.1-0.2-0.1h0l-0.1,0
	c0,0-0.1,0-0.1,0l0,0l-18.6-0.7l0,0h0h-0.1l0,0h0h-0.1l0,0l0,0l0,0l0,0l-10.7,9.7c-0.3,0.3-0.3,0.9,0,1.2c0,0,0,0,0.1,0l12.1,15.2
	L181.3,1570.2C181.2,1570.1,181.2,1570.2,181.3,1570.2z M176.4,1545.8l6.5-7.9l5.6,8.4L176.4,1545.8z M190.3,1546.3l2.1-7.9l8.4,8.3
	L190.3,1546.3z M189.2,1544.9l-5-7.5l6.9,0.2L189.2,1544.9z M175.6,1544.4l-1.3-7.4l7.1,0.3L175.6,1544.4z M174.4,1545.7l-9.9-0.4
	l8.5-7.7L174.4,1545.7z M188.4,1547.6l-6.6,19.5l-5.5-19.9L188.4,1547.6z M189.8,1547.7l10.7,0.4l-17,18.6L189.8,1547.7z
	 M174.8,1547.1l5.3,19.3l-15.7-19.5L174.8,1547.1z"/>
<polygon class="bcg-ruby-mobile2" points="274.4,2946.8 264.5,2976 290.8,2947.4 "/>
<polygon class="bcg-ruby-mobile2" points="252.6,2944.6 250.3,2932 236.9,2944 "/>
<polygon class="bcg-ruby-mobile2" points="252.9,2946 237,2945.5 261.2,2975.7 "/>
<polygon class="bcg-ruby-mobile2" points="265.8,2931.9 273.8,2943.8 276.9,2932.3 "/>
<polygon class="bcg-ruby-mobile2" points="274.8,2945.4 291.3,2946 278.2,2933 "/>
<polygon class="bcg-ruby-mobile2" points="272.9,2946.8 254.5,2946.1 262.8,2976.5 "/>
<polygon class="bcg-ruby-mobile2" points="253.8,2943.1 263,2931.7 251.6,2931.3 "/>
<polygon class="bcg-ruby-mobile2" points="254.4,2944.7 273.1,2945.3 264.4,2932.3 "/>
<path class="bcg-ruby-mobile1" d="M293.2,2945.9l-14.9-14.8l0,0c0,0-0.1-0.1-0.2-0.1h0l-0.1,0c0,0-0.1,0-0.1,0l0,0l-27-1l0,0h0h-0.1l0,0h0h-0.1
	l0,0l0,0l0,0l0,0l-15.4,14c-0.3,0.4-0.3,1,0.1,1.3c0,0,0,0,0.1,0l27.2,34c0,0,0.1,0.1,0.1,0.1l0,0c0,0,0.1,0,0.1,0.1l0,0.1
	c0,0,0.1,0.1,0.2,0.1l0,0v0c0,0,0.1,0,0.2,0l0,0c0.1,0,0.2-0.1,0.3-0.2l29.4-32c0.3-0.1,0.5-0.3,0.5-0.6l0,0
	C293.5,2946.6,293.5,2946.1,293.2,2945.9z M254.4,2944.7l10.1-12.4l8.7,13L254.4,2944.7z M272.9,2946.8l-10,29.7l-8.5-30.4
	L272.9,2946.8z M273.8,2943.8l-7.9-11.9l11,0.4L273.8,2943.8z M253.8,2943.1l-2.1-11.8l11.4,0.4L253.8,2943.1z M252.6,2944.6
	L237,2944l13.4-12.1L252.6,2944.6z M253,2946l8.2,29.7l-24.2-30.3L253,2946z M274.4,2946.8l16.4,0.6l-26.3,28.5L274.4,2946.8z
	 M274.9,2945.4l3.3-12.5l13.1,13L274.9,2945.4z"/>
<polygon class="bcg-ruby-mobile2" points="234,2981 244.6,2981.4 236.2,2973.1 "/>
<polygon class="bcg-ruby-mobile2" points="228,2972.1 232.9,2979.6 234.9,2972.4 "/>
<polygon class="bcg-ruby-mobile2" points="219.4,2979.2 225.2,2972 218.1,2971.7 "/>
<polygon class="bcg-ruby-mobile2" points="218.2,2980.4 216.7,2972.4 208.2,2980.1 "/>
<polygon class="bcg-ruby-mobile2" points="233.6,2982.4 227.2,3001.4 244.3,2982.8 "/>
<polygon class="bcg-ruby-mobile2" points="218.5,2981.9 208.2,2981.5 223.9,3001.1 "/>
<polygon class="bcg-ruby-mobile2" points="232.1,2982.4 220,2981.9 225.5,3001.9 "/>
<polygon class="bcg-ruby-mobile2" points="220.1,2980.5 232.1,2981 226.6,2972.5 "/>
<path class="bcg-ruby-mobile1" d="M236.3,2971.2c0,0-0.1-0.1-0.2-0.1h0l-0.1,0c0,0-0.1,0-0.1,0l0,0l-18.6-0.7l0,0h0h-0.1l0,0h0H217l0,0l0,0l0,0
	l0,0l-10.7,9.7c-0.3,0.3-0.3,0.9,0,1.2c0,0,0,0,0.1,0l18.7,23.4c0,0,0.1,0.1,0.1,0.1l0,0c0,0,0.1,0,0.1,0.1h0c0,0,0.1,0,0.2,0l0,0
	l0,0c0,0,0.1,0,0.2,0h0c0.1,0,0.2-0.1,0.3-0.2l20.2-22c0.5-0.3,0.7-0.9,0.4-1.4l0,0L236.3,2971.2L236.3,2971.2z M220.1,2980.5
	l6.5-7.9l5.6,8.4L220.1,2980.5z M232.1,2982.4l-6.6,19.5l-5.5-19.9L232.1,2982.4z M233,2979.6l-4.9-7.5l6.9,0.2L233,2979.6z
	 M219.4,2979.1l-1.3-7.4l7.1,0.3L219.4,2979.1z M218.2,2980.4l-9.9-0.4l8.5-7.7L218.2,2980.4z M218.5,2981.9l5.3,19.3l-15.7-19.6
	L218.5,2981.9z M233.6,2982.4l10.7,0.4l-17,18.6L233.6,2982.4z M234.1,2981l2.1-7.9l8.4,8.3L234.1,2981z"/>
<polygon class="bcg-ruby-mobile2" points="272.9,3004.3 276.7,2999.5 272,2999.3 "/>
<polygon class="bcg-ruby-mobile2" points="279.5,2999.6 282.8,3004.6 284.1,2999.8 "/>
<polygon class="bcg-ruby-mobile2" points="273.7,3005.6 282,3005.9 278.1,3000.1 "/>
<polygon class="bcg-ruby-mobile2" points="282,3007.3 273.5,3006.9 277.4,3021.1 "/>
<polygon class="bcg-ruby-mobile2" points="283.9,3005.9 291.1,3006.2 285.4,3000.5 "/>
<polygon class="bcg-ruby-mobile2" points="271.6,3005.5 270.6,3000 264.9,3005.2 "/>
<polygon class="bcg-ruby-mobile2" points="283.5,3007.3 279,3020.6 290.9,3007.6 "/>
<polygon class="bcg-ruby-mobile2" points="272,3006.9 264.8,3006.7 275.7,3020.3 "/>
<path class="bcg-ruby-mobile1" d="M285.5,2998.6L285.5,2998.6c0,0-0.1-0.1-0.2-0.1h0l-0.1,0c0,0-0.1,0-0.1,0l0,0l-13.9-0.5l0,0h0H271l0,0h0h-0.1
	l0,0l0,0l0,0l0,0l-7.9,7.2c-0.3,0.3-0.3,0.9,0,1.1c0,0,0,0,0.1,0l13.9,17.5c0,0,0.1,0.1,0.1,0.1l0,0c0,0,0.1,0,0.1,0.1l0-0.1
	c0,0,0.1,0,0.2,0l0,0v0.1c0,0,0.1,0,0.2,0c0,0,0,0,0,0c0.1,0,0.2-0.1,0.3-0.2l15.1-16.4c0.4-0.3,0.6-0.9,0.3-1.3v0L285.5,2998.6z
	 M273.6,3005.6l4.4-5.5l3.8,5.8L273.6,3005.6z M282,3007.3l-4.7,13.8l-3.9-14.1L282,3007.3z M282.8,3004.6l-3.3-5l4.6,0.2
	L282.8,3004.6z M272.9,3004.3l-0.9-4.9l4.8,0.2L272.9,3004.3z M271.6,3005.5l-6.8-0.2l5.8-5.2L271.6,3005.5z M272,3006.9l3.7,13.4
	l-10.9-13.7L272,3006.9z M283.5,3007.3l7.4,0.3l-11.9,12.9L283.5,3007.3z M283.9,3005.9l1.5-5.4l5.7,5.7L283.9,3005.9z"/>
</svg>
