<?xml version="1.0" encoding="utf-8"?>
<svg version="1.1" id="Warstwa_1" xmlns="http://www.w3.org/2000/svg" xmlns:xlink="http://www.w3.org/1999/xlink" x="0px" y="0px"
	 viewBox="0 0 700.3 2420.6" style="enable-background:new 0 0 700.3 2420.6;" xml:space="preserve">
<style type="text/css">
	.bcg-ruby-tablet0{fill:#1E2333;}
	.bcg-ruby-tablet1{fill:#2B304B;}
	.bcg-ruby-tablet2{fill:#B92745;}
</style>
<path class="bcg-ruby-tablet0" d="M-59.7,251.7H-21c-0.5,2.4-0.8,4.9-0.8,7.4v-0.3c0.1,21,17.2,38.1,38.2,38l0,0h190.9c21,0,38.2-17,38.3-38v0.3
	c0-2.4-0.2-4.9-0.8-7.2h159.7c21.1-0.2,38.2-17.3,38.3-38.4v-0.1c-0.1-21.1-17.1-38.3-38.3-38.4h-63.6c2-4.7,3.1-9.7,3-14.8l0,0
	c0-21.1-17.1-38.3-38.3-38.3H125.5l-28.7,31.2c-0.2,0.2-0.4,0.3-0.6,0.4h-0.1c-0.1,0-0.3,0.2-0.4,0.2s0,0.1,0,0.1l0,0
	c-0.1,0-0.3-0.2-0.4-0.2s-0.1-0.1-0.1-0.1c-0.1-0.1-0.2-0.1-0.4-0.2l0,0c-0.1-0.1-0.2-0.2-0.2-0.2L69.7,122h-8.5
	c-21.1,0.1-38.2,17.2-38.3,38.3l0,0c-0.1,5.1,1,10.1,3,14.8h-85.7c-21.1,0.1-38.2,17.2-38.3,38.3v0.2
	C-97.9,234.4-80.9,251.5-59.7,251.7z"/>
<path class="bcg-ruby-tablet0" d="M805.1,330.8c-21.1,0.1-38.2,17.2-38.3,38.3l0,0c0,21.1,17.1,38.3,38.3,38.3s38.3-17.1,38.3-38.3l0,0
	C843.3,347.9,826.2,330.8,805.1,330.8z"/>
<path class="bcg-ruby-tablet0" d="M254.1,404.4h63.6c-2,4.7-3.1,9.7-3,14.8l0,0c0.1,21.1,17.2,38.2,38.3,38.2h244.4c21.1-0.1,38.2-17.2,38.2-38.3
	l0,0c0.1-5.1-1-10.1-3-14.8h85.7c21.1-0.1,38.2-17.1,38.3-38.2v-0.2c0-21.1-17.1-38.3-38.3-38.5h-38.7c0.5-2.4,0.8-4.9,0.8-7.4v0.3
	c-0.1-21-17.2-38-38.3-37.9H534.9l-28.2,30.4c-0.2,0.2-0.4,0.3-0.6,0.3H506c0,0-0.3,0.2-0.4,0.2s0,0.1,0,0.1l0,0
	c-0.1,0-0.3-0.2-0.4-0.2c-0.1-0.1-0.1-0.1-0.1-0.1c-0.1-0.1-0.2-0.1-0.3-0.2l0,0c-0.1-0.1-0.2,0.1-0.2,0l-24.4-30.4h-28.8
	c-21,0-38.2,17-38.3,38v-0.4c0,2.4,0.2,4.9,0.8,7.3H254.1c-21.1,0.1-38.2,17.3-38.3,38.5v0.1C215.8,387.1,232.9,404.3,254.1,404.4z"
	/>
<path class="bcg-ruby-tablet0" d="M273.2,1592.2v0.2c-0.1-16.1-13.1-29-29.2-29h-48.6c1.5-3.6,2.2-7.5,2.3-11.5v-0.2c0-16.1-13.1-29.2-29.2-29.4
	H-17.8c-16.1,0.1-29.1,13.2-29.2,29.3v0.2c0,3.9,0.8,7.9,2.3,11.5h-65.4c-16.1,0-29.1,12.9-29.2,29v-0.1
	c0.1,16.1,13.1,29.1,29.2,29.1h29.5c-0.4,1.9-0.6,3.8-0.6,5.8l0,0c0,16.1,13,29.2,29.1,29.2H93.5c16.1,0,29.1-13.1,29.2-29.2l0,0
	c0-1.9-0.2-3.9-0.6-5.8H244C260.1,1621.4,273.2,1608.4,273.2,1592.2z"/>
<path class="bcg-ruby-tablet0" d="M437.6,798L437.6,798c0.3,16.1,13.6,28.9,29.7,28.6c15.7-0.3,28.4-12.9,28.6-28.6l0,0
	c-0.3-16.1-13.6-28.9-29.7-28.6C450.6,769.6,437.9,782.3,437.6,798z"/>
<path class="bcg-ruby-tablet0" d="M429.9,795.4L429.9,795.4c-0.1-16-13.1-29-29.2-29h-29.5c0.4-1.9,0.6-3.8,0.6-5.7l0,0
	c0-16.1-13.1-29.2-29.2-29.3H197c-16.1,0.1-29.1,13.1-29.2,29.2l0,0c0,1.9,0.2,3.9,0.6,5.8H46.5c-16.1,0.1-29.1,13.1-29.2,29.2v-0.2
	c0.1,16.1,13.1,29,29.2,29H95c-1.5,3.7-2.2,7.6-2.3,11.5v0.1c0,16.1,13.1,29.2,29.2,29.3h186.4c16.1-0.1,29.1-13.1,29.2-29.2v-0.2
	c0-4-0.8-7.9-2.3-11.5h65.4C416.8,824.5,429.8,811.5,429.9,795.4L429.9,795.4z"/>
<path class="bcg-ruby-tablet0" d="M617,1948.7c-34.1,0.1-61.6,27.7-61.7,61.7l0,0c0.4,34.1,28.4,61.4,62.5,60.9c33.5-0.4,60.5-27.5,60.9-60.9l0,0
	C678.6,1976.4,651,1948.8,617,1948.7z"/>
<path class="bcg-ruby-tablet0" d="M477.1,1943.5h-62.5c0.8-3.9,1.2-8,1.2-12v0.3c0-34-27.8-61.4-61.7-61.4h-308c-34,0-61.6,27.5-61.7,61.5v-0.3
	c0,4,0.4,8,1.2,11.8h-257.8c-34,0-61.7,28-61.7,62v0.2c0,34,27.8,61.9,61.7,61.9h102.7c-3.2,7.5-4.9,15.7-4.9,23.9v0.2
	c0,34,27.8,61.9,61.7,61.9h394.4c34,0,61.7-28,61.7-61.9v-0.1c0-8.2-1.6-16.4-4.8-24h138.5c34.1-0.1,61.6-27.7,61.7-61.8v-0.2
	C538.8,1971.5,511,1943.5,477.1,1943.5z"/>
<path class="bcg-ruby-tablet0" d="M334.6,1114L334.6,1114c0-14.5-11.8-26.2-26.3-26.2s-26.2,11.7-26.2,26.2l0,0c0,14.5,11.8,26.2,26.3,26.2
	C322.8,1140.2,334.5,1128.5,334.6,1114z"/>
<path class="bcg-ruby-tablet0" d="M-95.5,1112v-0.2c0.1,14.4,11.8,26,26.2,26h43.6c-1.4,3.3-2,6.8-2,10.3v0.2c0,14.5,11.7,26.3,26.2,26.5H166
	c14.5-0.1,26.2-11.9,26.2-26.4v-0.2c0-3.6-0.7-7.1-2.1-10.4h58.8c14.4,0,26.2-11.6,26.2-26.1v0.1c0-14.4-11.8-26.1-26.2-26.1h-26.5
	c0.3-1.7,0.5-3.5,0.5-5.2v-0.3c0-14.5-11.7-26.3-26.2-26.5H65.9c-14.5,0.2-26.2,11.9-26.2,26.5v0.2c0,1.8,0.2,3.6,0.5,5.4H-69.3
	C-83.7,1085.9-95.5,1097.6-95.5,1112z"/>
<path class="bcg-ruby-tablet1" d="M369.3,71.1v-0.2c0.1,14.4,11.8,26,26.2,26h43.6c-1.4,3.3-2,6.8-2,10.3v0.2c0,14.5,11.7,26.3,26.2,26.5h167.5
	c14.5-0.1,26.2-11.9,26.2-26.4v-0.2c0-3.6-0.7-7.1-2.1-10.4h58.8c14.4,0,26.2-11.6,26.2-26.1v0.1c0-14.4-11.8-26.1-26.2-26.1h-26.6
	c0.3-1.7,0.5-3.5,0.5-5.2v-0.3c0-14.5-11.7-26.3-26.2-26.5H530.6c-14.5,0.2-26.2,11.9-26.2,26.5v0.2c0,1.8,0.2,3.6,0.5,5.4H395.4
	C381,44.9,369.3,56.6,369.3,71.1z"/>
<path class="bcg-ruby-tablet0" d="M410.6,965.9c0,12.7,10.3,23,23,23s23-10.3,23-23s-10.3-23-23-23S410.6,953.2,410.6,965.9z"/>
<path class="bcg-ruby-tablet0" d="M787.8,967.4c0-12.7-10.3-23-23-23h-38.3c1.2-2,1.8-5.8,1.8-9c-0.1-12.7-10.3-22.9-23-23h-147
	c-12.7,0.1-22.9,10.3-23,23c0,3.2,0.6,7,1.8,9h-51.6c-12.7,0-23,10.3-23,23s10.3,23,23,23h23.3c-0.3,1.5-0.4,3.1-0.5,4.7v0.2
	c0,12.7,10.3,23.1,23,23.2H646c12.7-0.1,23-10.4,23-23.1v-0.2c0-1.6-0.2-3.2-0.5-4.7h96C777.5,990.4,787.8,980.1,787.8,967.4z"/>
<path class="bcg-ruby-tablet0" d="M419.6,568.9c0,12.7,10.3,23,23,23s23-10.3,23-23s-10.3-23-23-23S419.6,556.2,419.6,568.9z"/>
<path class="bcg-ruby-tablet0" d="M796.8,570.4c0-12.7-10.3-23-23-23h-38.3c1.2-2,1.8-5.8,1.8-9c-0.1-12.7-10.3-22.9-23-23h-147
	c-12.7,0.1-22.9,10.3-23,23c0,3.2,0.6,7,1.8,9h-51.6c-12.7,0-23,10.3-23,23s10.3,23,23,23h23.3c-0.3,1.5-0.4,3.1-0.5,4.7v0.2
	c0,12.7,10.3,23.1,23,23.2H655c12.7-0.1,23-10.4,23-23.1v-0.2c0-1.6-0.2-3.2-0.5-4.7h96C786.5,593.4,796.8,583.1,796.8,570.4z"/>
<path class="bcg-ruby-tablet0" d="M11.4,556.9L11.4,556.9c0,2.1,0.2,4,0.6,5.9h-121.4c-16,0-29,13-29.1,29l0,0c0,16,13,29,29.1,29.1H-61
	c-1.6,3.5-2.3,7.4-2.3,11.2v-0.2c0,16,13.1,29,29.1,28.9h185.7c16,0,29-12.9,29.1-28.9l0,0v0.1c0-3.8-0.7-7.6-2.3-11.2h65.2
	c16-0.1,29-13.1,29.1-29.1v0.1c0-16-13-29-29.1-29h-29.4c0.4-1.9,0.6-3.9,0.6-5.8l0,0c0-16-13-29-29.1-29.1h-145
	C24.5,528,11.5,540.9,11.4,556.9z"/>
<path class="bcg-ruby-tablet0" d="M309.3,623.1c16,0,29-13,29.1-29.1l0,0c0-16.1-13-29.1-29.1-29.1s-29.1,13-29.1,29.1l0,0
	C280.3,610,293.3,623,309.3,623.1z"/>
<polygon class="bcg-ruby-tablet2" points="491.5,253.7 505.3,236.7 488.3,236.1 "/>
<polygon class="bcg-ruby-tablet2" points="488.9,256.5 485.5,237.5 465.4,255.7 "/>
<polygon class="bcg-ruby-tablet2" points="549.5,261.7 524.4,260.8 509.3,305.4 "/>
<polygon class="bcg-ruby-tablet2" points="523,254.8 527.7,237.6 511.2,236.9 "/>
<polygon class="bcg-ruby-tablet2" points="525.3,257.8 550.2,258.7 530.4,239 "/>
<polygon class="bcg-ruby-tablet2" points="492.9,256.7 521.4,257.7 508.2,237.9 "/>
<polygon class="bcg-ruby-tablet2" points="505.8,306.5 521.2,260.7 492.8,259.7 "/>
<polygon class="bcg-ruby-tablet2" points="502.2,304.9 489.7,259.5 465.3,258.7 "/>
<path class="bcg-ruby-tablet1" d="M504.7,312.8L504.7,312.8c0.1,0.1,0.2,0.1,0.3,0.2l0.1,0.2c0,0,0.3,0.2,0.4,0.2l0,0v-0.1c0.1,0,0.3-0.1,0.4-0.1
	c0,0,0.1,0,0.1-0.1c0.2-0.1,0.5-0.2,0.6-0.4l28.2-30.7l18.6-20.2c1.1-0.6,1.5-2,0.9-3.1l-23.7-23.5l0,0c-0.1-0.1-0.3-0.2-0.4-0.3
	h-0.1l-0.2-0.1c-0.1,0-0.2,0-0.3,0v0.2l-43.1-1.4l0,0l-0.1-0.2c0,0-0.1-0.1-0.2-0.1s0,0,0,0h-0.1h-0.2l-0.1,0.1l-0.1,0.1l-0.1,0.1
	l-0.1,0.1L460.9,256c-0.7,0.7-0.6,1.9,0.2,2.5c0.1,0,0.1,0.1,0.2,0.1l18.8,23.6l24.4,30.6C504.6,312.7,504.7,312.7,504.7,312.8z
	 M492.9,256.7l15.3-18.8l13.1,19.8L492.9,256.7z M525.3,257.8l5.1-18.8l19.8,19.7L525.3,257.8z M523,254.8L511.2,237l16.4,0.6
	L523,254.8z M491.5,253.7l-3.2-17.6l17,0.6L491.5,253.7z M488.9,256.5l-23.6-0.8l20.1-18.2L488.9,256.5z M521.2,260.7l-15.5,45.8
	l-13-46.8L521.2,260.7z M524.4,260.8l25.1,0.9l-40.2,43.7L524.4,260.8z M489.7,259.5l12.6,45.4l-36.9-46.3L489.7,259.5z"/>
<polygon class="bcg-ruby-tablet2" points="115.4,98.1 140.3,99 120.5,79.3 "/>
<polygon class="bcg-ruby-tablet2" points="83,97 111.5,98 98.3,78.2 "/>
<polygon class="bcg-ruby-tablet2" points="139.6,102 114.5,101.1 99.4,145.7 "/>
<polygon class="bcg-ruby-tablet2" points="79,96.8 75.6,77.8 55.5,96 "/>
<polygon class="bcg-ruby-tablet2" points="81.6,94 95.4,77 78.4,76.4 "/>
<polygon class="bcg-ruby-tablet2" points="113.1,95.1 117.8,77.9 101.3,77.2 "/>
<polygon class="bcg-ruby-tablet2" points="92.3,145.2 79.8,99.8 55.4,99 "/>
<polygon class="bcg-ruby-tablet2" points="95.9,146.8 111.3,101 82.9,100 "/>
<path class="bcg-ruby-tablet1" d="M94.8,153.1L94.8,153.1c0.1,0.1,0.2,0.1,0.4,0.2l0.1,0.2c0,0,0.3,0.2,0.4,0.2l0,0v-0.1c0.1,0,0.3-0.1,0.4-0.1
	l0.1-0.1c0.2-0.1,0.5-0.2,0.6-0.4l28.7-31.2l18.1-19.7c0.5-0.2,0.9-0.6,1-1.1c0.5-0.6,0.4-1.5-0.1-2l-23.7-23.6l0,0
	c-0.1-0.1-0.3-0.2-0.4-0.3h-0.1l-0.2-0.1c-0.1,0-0.2,0-0.3,0v0.2l-43.1-1.5l0,0l-0.1-0.2c0,0-0.1-0.1-0.2-0.1s0,0,0,0h-0.1h-0.2
	L76,73.5l-0.1,0.1l-0.1,0.1l-0.1,0.1L51.1,96.1c-0.4,0.4-0.6,1-0.4,1.6c0.1,0.4,0.3,0.8,0.7,1.1l18.4,23.1L94.6,153
	C94.6,152.9,94.7,153,94.8,153.1z M83,97l15.3-18.8L111.4,98L83,97z M115.4,98.1l5.1-18.8L140.3,99L115.4,98.1z M113.1,95.1
	l-11.8-17.8l16.5,0.6L113.1,95.1z M81.6,94l-3.2-17.6l17,0.6L81.6,94z M79,96.8L55.4,96l20.1-18.2L79,96.8z M111.3,101l-15.5,45.8
	l-13-46.8L111.3,101z M114.5,101.1l25.1,0.9l-40.2,43.7L114.5,101.1z M79.8,99.8l12.6,45.4L55.5,98.9L79.8,99.8z"/>
<g>
	<path class="bcg-ruby-tablet0" d="M769.3,1385.5L769.3,1385.5c-0.3,16.1,12.5,29.4,28.6,29.7s29.4-12.5,29.7-28.6c0-0.4,0-0.7,0-1.1l0,0
		c-0.3-16.1-13.6-28.9-29.7-28.6C782.3,1357.1,769.6,1369.8,769.3,1385.5z"/>
	<path class="bcg-ruby-tablet0" d="M761.6,1383L761.6,1383c-0.1-16-13.1-29-29.2-29h-29.6c0.4-1.9,0.6-3.8,0.6-5.7l0,0
		c0-16.1-13.1-29.2-29.2-29.2h-41.7l14.5-15.7c1.1-0.6,1.5-1.9,0.9-3l-23.7-23.6l0,0c-0.1-0.1-0.3-0.2-0.4-0.3h-0.1l-0.2-0.1
		c-0.1,0-0.2,0-0.3,0v0.2l-43.1-1.4l0,0l-0.1-0.2c0,0-0.1-0.1-0.2-0.1s0,0,0,0h-0.1h-0.2l-0.1,0.1l-0.1,0.1l-0.1,0.1l-0.1,0.1
		l-24.6,22.3c-0.4,0.4-0.6,1-0.4,1.6c0.1,0.4,0.3,0.8,0.7,1l15.3,19.1h-41.4c-16.1,0.1-29.1,13.1-29.2,29.2l0,0
		c0,1.9,0.2,3.9,0.6,5.8H378.2c-16.1,0.1-29.1,13.1-29.2,29.2v-0.2c0.1,16.1,13.1,29,29.2,29h48.5c-1.5,3.7-2.2,7.6-2.3,11.5v0.2
		c0,16.1,13.1,29.2,29.2,29.3H640c16.1-0.1,29.1-13.1,29.2-29.2v-0.2c0-4-0.8-7.9-2.3-11.5h65.4
		C748.4,1412.1,761.5,1399.1,761.6,1383L761.6,1383z M586.4,1298.2l15.3-18.8l13.1,19.8L586.4,1298.2z M618.8,1299.4l5.1-18.8
		l19.8,19.7L618.8,1299.4z M616.5,1296.4l-11.8-17.8l16.4,0.6L616.5,1296.4z M585,1295.3l-3.2-17.6l17,0.6L585,1295.3z
		 M582.4,1298.1l-23.6-0.8l20.1-18.2L582.4,1298.1z M614.7,1302.3l-15.5,45.8l-13-46.8L614.7,1302.3z M617.9,1302.4l25.1,0.9
		l-40.2,43.7L617.9,1302.4z M583.2,1301.2l12.6,45.4l-36.9-46.3L583.2,1301.2z"/>
	<polygon class="bcg-ruby-tablet2" points="643,1303.2 617.9,1302.3 602.8,1346.9 	"/>
	<polygon class="bcg-ruby-tablet2" points="582.4,1298.1 579,1279 558.9,1297.2 	"/>
	<polygon class="bcg-ruby-tablet2" points="585,1295.3 598.8,1278.3 581.8,1277.6 	"/>
	<polygon class="bcg-ruby-tablet2" points="616.5,1296.3 621.2,1279.1 604.7,1278.5 	"/>
	<polygon class="bcg-ruby-tablet2" points="586.4,1298.2 614.9,1299.2 601.7,1279.4 	"/>
	<polygon class="bcg-ruby-tablet2" points="618.8,1299.4 643.7,1300.3 623.9,1280.6 	"/>
	<polygon class="bcg-ruby-tablet2" points="599.3,1348 614.7,1302.2 586.3,1301.2 	"/>
	<polygon class="bcg-ruby-tablet2" points="595.7,1346.5 583.2,1301.1 558.8,1300.2 	"/>
</g>
<path class="bcg-ruby-tablet0" d="M344.8,2204.2L344.8,2204.2c-20.9,0-37.8,17-37.8,37.9c0,20.8,16.9,37.7,37.8,37.8l0,0
	c20.9,0,37.8-17,37.8-37.9C382.5,2221.1,365.6,2204.2,344.8,2204.2z"/>
<path class="bcg-ruby-tablet0" d="M889.6,2207.4h-62.9c1.9-4.7,2.9-9.8,3-14.9c0-20.8-17-38.1-37.8-38.1H550.2c-20.8,0-37.8,17.3-37.8,38.1
	c0.1,5.1,1.1,10.2,3,14.9h-84.8c-20.7,0-37.5,16.8-37.5,37.5s16.8,37.5,37.5,37.5h38.3c-0.5,2.5-0.7,5.1-0.8,7.7v0.2
	c0,20.8,17,38.1,37.8,38.1h188.7c20.9-0.1,37.8-17.1,37.8-38v-0.3c0-2.6-0.3-5.2-0.8-7.8h157.9c20.7,0,37.5-16.8,37.5-37.5
	S910.3,2207.3,889.6,2207.4L889.6,2207.4z"/>
<path class="bcg-ruby-tablet0" d="M333.8,2333.1c-14.5,0-26.2,11.8-26.2,26.2l0,0c0,14.5,11.7,26.2,26.2,26.2s26.2-11.7,26.2-26.2l0,0l0,0
	C360,2344.9,348.2,2333.1,333.8,2333.1z"/>
<path class="bcg-ruby-tablet0" d="M274.3,2331.1h-26.5c0.3-1.6,0.5-3.3,0.5-5c-0.1-14.4-11.8-26-26.2-26H111.9L87,2326.9
	c-0.2,0.2-0.4,0.3-0.6,0.3h-0.1c-0.1,0-0.3,0-0.4,0v-0.1l0,0c-0.1,0-0.3,0-0.4,0h-0.1c-0.1,0-0.2-0.1-0.4-0.2l0,0
	c-0.1-0.1-0.2-0.2-0.2-0.2L71,2309.4c-3.8,4.7-5.9,10.5-5.9,16.5c0,1.7,0.2,3.5,0.5,5.2H-43.9c-14.5,0-26.2,11.7-26.2,26.2v-0.2
	c0.1,14.4,11.8,26.1,26.2,26h43.6c-1.3,3.3-2,6.9-2.1,10.5c0,14.4,11.8,26.5,26.2,26.5h167.5c14.4,0,26.2-12.1,26.2-26.5
	c-0.1-3.6-0.8-7.1-2.1-10.5h58.8c14.4,0,26.1-11.6,26.2-26v0.1C300.6,2342.9,288.9,2331.1,274.3,2331.1
	C274.4,2331.1,274.4,2331.1,274.3,2331.1z"/>
<polygon class="bcg-ruby-tablet2" points="145.4,2197.1 164.9,2173.1 140.9,2172.3 "/>
<polygon class="bcg-ruby-tablet2" points="161,2265.7 143.7,2203.2 110.2,2202 "/>
<polygon class="bcg-ruby-tablet2" points="187.5,2198.5 194,2174.2 170.8,2173.4 "/>
<polygon class="bcg-ruby-tablet2" points="185.6,2204.7 146.8,2203.3 164.5,2267.2 "/>
<polygon class="bcg-ruby-tablet2" points="189.7,2201.9 224.3,2203.1 196.7,2175.7 "/>
<polygon class="bcg-ruby-tablet2" points="188.7,2204.8 168,2266.1 223.2,2206.1 "/>
<polygon class="bcg-ruby-tablet2" points="146.6,2200.3 186,2201.7 167.8,2174.3 "/>
<polygon class="bcg-ruby-tablet2" points="142.9,2200.2 138.1,2173.6 110.1,2199 "/>
<path class="bcg-ruby-tablet1" d="M106.1,2201.7l57.1,71.5c0.1,0.1,0.2,0.2,0.2,0.2l0,0c0.1,0.1,0.2,0.1,0.4,0.2l0.1,0.2c0,0,0.3,0.2,0.4,0.2l0,0
	v-0.1c0.1,0,0.3-0.1,0.4-0.1l0.1-0.1c0.2-0.1,0.5-0.2,0.6-0.4l61.8-67.2c0.6-0.2,1-0.6,1.1-1.2l0,0c0.6-0.6,0.6-1.5,0-2.1
	l-31.3-31.1l0,0c-0.1-0.1-0.3-0.2-0.4-0.3h-0.1l-0.2-0.1c-0.1,0-0.2,0-0.3,0l0,0l-56.8-2.1l0,0h-0.1h-0.2l0,0h-0.1h-0.2l-0.1,0.1
	l-0.1,0.1l-0.1,0.1l-0.1,0.1l-32.4,29.4C105.1,2199.8,105.2,2201,106.1,2201.7L106.1,2201.7L106.1,2201.7z M185.6,2204.7l-21.1,62.5
	l-17.7-63.9L185.6,2204.7z M146.6,2200.3l21.2-26l18.2,27.4L146.6,2200.3z M160.9,2265.7l-50.7-63.7l33.5,1.2L160.9,2265.7z
	 M188.7,2204.8l34.5,1.2l-55.2,60L188.7,2204.8z M189.7,2201.8l7-26.2l27.6,27.4L189.7,2201.8z M187.5,2198.5l-16.7-25.1l23.2,0.9
	L187.5,2198.5z M145.4,2197l-4.5-24.8l23.9,0.9L145.4,2197z M143,2200.1l-32.8-1.2l28.1-25.4L143,2200.1z"/>
<polygon class="bcg-ruby-tablet2" points="74.7,2275.7 99.9,2276.6 88.3,2259 "/>
<polygon class="bcg-ruby-tablet2" points="104,2276.7 126,2277.5 108.5,2260 "/>
<polygon class="bcg-ruby-tablet2" points="70.6,2275.5 67.5,2258.6 49.7,2274.8 "/>
<polygon class="bcg-ruby-tablet2" points="125.4,2280.5 103,2279.7 89.6,2319.5 "/>
<polygon class="bcg-ruby-tablet2" points="101.7,2273.7 105.8,2258.6 91.2,2258 "/>
<polygon class="bcg-ruby-tablet2" points="73.1,2272.8 85.3,2257.8 70.4,2257.3 "/>
<polygon class="bcg-ruby-tablet2" points="86.1,2320.6 99.9,2279.6 74.5,2278.7 "/>
<polygon class="bcg-ruby-tablet2" points="82.5,2319 71.3,2278.5 49.6,2277.8 "/>
<path class="bcg-ruby-tablet1" d="M85,2326.9L85,2326.9c0.1,0.1,0.2,0.1,0.4,0.2h0.1c0.1,0,0.3,0,0.4,0l0,0l0,0c0.1,0,0.3,0,0.4,0h0.1
	c0.2-0.1,0.5-0.2,0.6-0.4l24.9-27.1l17.6-19.1c1.1-0.6,1.4-1.9,0.8-3l0,0l-21.5-21.4l0,0c-0.1-0.1-0.3-0.2-0.4-0.3h-0.1l-0.2-0.1
	c-0.1,0-0.2,0-0.3,0l0,0l-39.1-1.5l0,0h-0.1h-0.2l0,0h-0.1h-0.2l-0.1,0.1l-0.1,0.1l-0.1,0.1l-0.1,0.1l-22.4,20.3
	c-0.7,0.7-0.6,1.8,0.1,2.5c0.1,0.1,0.1,0.1,0.2,0.1l25.5,31.9l13.8,17.3C84.8,2326.7,84.9,2326.8,85,2326.9z M74.7,2275.7l13.6-16.7
	l11.7,17.6L74.7,2275.7z M104,2276.7l4.5-16.7l17.6,17.5L104,2276.7z M101.7,2273.7L91.2,2258l14.5,0.5L101.7,2273.7z M73.1,2272.7
	l-2.8-15.5l15,0.6L73.1,2272.7z M70.6,2275.4l-20.9-0.8l17.9-16.2L70.6,2275.4z M99.9,2279.4l-13.9,41l-11.6-41.9L99.9,2279.4z
	 M103,2279.5l22.4,0.8l-35.8,39L103,2279.5z M71.3,2278.4l11.2,40.5l-32.9-41L71.3,2278.4z"/>
<polygon class="bcg-ruby-tablet2" points="651.6,1742.3 630.9,1803.6 686.1,1743.5 "/>
<polygon class="bcg-ruby-tablet2" points="605.8,1737.7 601,1711.1 572.9,1736.5 "/>
<polygon class="bcg-ruby-tablet2" points="606.5,1740.7 573,1739.5 623.8,1803.1 "/>
<polygon class="bcg-ruby-tablet2" points="633.6,1710.9 650.3,1736 656.9,1711.7 "/>
<polygon class="bcg-ruby-tablet2" points="652.5,1739.3 687.2,1740.6 659.6,1713.2 "/>
<polygon class="bcg-ruby-tablet2" points="648.4,1742.2 609.7,1740.8 627.3,1804.7 "/>
<polygon class="bcg-ruby-tablet2" points="608.3,1734.6 627.7,1710.6 603.8,1709.7 "/>
<polygon class="bcg-ruby-tablet2" points="609.5,1737.8 648.8,1739.2 630.7,1711.8 "/>
<path class="bcg-ruby-tablet1" d="M691.2,1740.3l-31.3-31.1l0,0c-0.1-0.1-0.3-0.2-0.4-0.3h-0.1l-0.2-0.1c-0.1,0-0.2,0-0.3,0l0,0l-56.8-2.1l0,0
	H602h-0.2l0,0h-0.1h-0.2l-0.1,0.1l-0.1,0.1l-0.1,0.1l-0.1,0.1l-32.4,29.4c-0.7,0.8-0.6,2,0.3,2.7c0.1,0,0.1,0.1,0.2,0.1l57.1,71.5
	c0.1,0.1,0.2,0.2,0.2,0.2l0,0c0.1,0.1,0.2,0.1,0.3,0.2l0.1,0.2c0,0,0.3,0.2,0.4,0.2l0,0v-0.1c0.1,0,0.3-0.1,0.4-0.1l0.1-0.1
	c0.2-0.1,0.5-0.2,0.6-0.4l61.8-67.2c0.6-0.2,1-0.6,1.1-1.2l0,0C691.8,1741.8,691.7,1740.9,691.2,1740.3z M609.5,1737.8l21.2-26
	l18.2,27.4L609.5,1737.8z M648.5,1742.2l-21.1,62.5l-17.8-63.9L648.5,1742.2z M650.4,1736l-16.7-25.1l23.2,0.9L650.4,1736z
	 M608.3,1734.5l-4.5-24.8l23.9,0.9L608.3,1734.5z M605.8,1737.6l-32.8-1.2l28.1-25.4L605.8,1737.6z M606.6,1740.6l17.3,62.4
	l-50.8-63.6L606.6,1740.6z M651.6,1742.3l34.5,1.2l-55.2,60L651.6,1742.3z M652.6,1739.3l7-26.2l27.6,27.4L652.6,1739.3z"/>
<polygon class="bcg-ruby-tablet2" points="566.8,1814.2 588.9,1815 571.3,1797.5 "/>
<polygon class="bcg-ruby-tablet2" points="554.1,1795.5 564.5,1811.2 568.6,1796.1 "/>
<polygon class="bcg-ruby-tablet2" points="536,1810.3 548.2,1795.3 533.2,1794.7 "/>
<polygon class="bcg-ruby-tablet2" points="533.4,1813 530.4,1796.1 512.5,1812.3 "/>
<polygon class="bcg-ruby-tablet2" points="565.9,1817.2 552.5,1857 588.3,1818 "/>
<polygon class="bcg-ruby-tablet2" points="534.2,1816 512.5,1815.3 545.4,1856.5 "/>
<polygon class="bcg-ruby-tablet2" points="562.8,1817.1 537.3,1816.1 548.9,1858.1 "/>
<polygon class="bcg-ruby-tablet2" points="537.5,1813.2 562.8,1814.1 551.1,1796.4 "/>
<path class="bcg-ruby-tablet1" d="M571.6,1793.5c-0.1-0.1-0.3-0.2-0.4-0.3h-0.1l-0.2-0.1c-0.1,0-0.2,0-0.3,0l0,0l-39.1-1.5l0,0h-0.1h-0.2l0,0
	h-0.1h-0.2l-0.1,0.1l-0.1,0.1l-0.1,0.1l-0.1,0.1l-22.4,20.3c-0.7,0.7-0.6,1.8,0.1,2.5c0.1,0.1,0.1,0.1,0.2,0.1l39.3,49.2
	c0.1,0.1,0.2,0.2,0.2,0.2l0,0c0.1,0.1,0.2,0.1,0.3,0.2h0.1c0.1,0,0.3,0,0.4,0l0,0l0,0c0.1,0,0.3,0,0.4,0h0.1
	c0.2-0.1,0.5-0.2,0.6-0.4l42.5-46.2c1.1-0.6,1.4-1.9,0.8-3l0,0L571.6,1793.5L571.6,1793.5z M537.6,1813.2l13.6-16.7l11.7,17.6
	L537.6,1813.2z M562.8,1817.1l-13.8,41l-11.6-41.9L562.8,1817.1z M564.6,1811.2l-10.4-15.7l14.5,0.5L564.6,1811.2z M536,1810.2
	l-2.8-15.5l15,0.6L536,1810.2z M533.5,1813l-20.9-0.8l17.8-16.2L533.5,1813z M534.2,1816l11.2,40.5l-32.9-41.1L534.2,1816z
	 M565.9,1817.1l22.4,0.8l-35.8,39L565.9,1817.1z M566.9,1814.1l4.5-16.7l17.6,17.5L566.9,1814.1z"/>
<polygon class="bcg-ruby-tablet2" points="648.4,1863.1 656.5,1853.1 646.6,1852.7 "/>
<polygon class="bcg-ruby-tablet2" points="662.4,1853.3 669.3,1863.8 672.1,1853.7 "/>
<polygon class="bcg-ruby-tablet2" points="650.1,1865.8 667.5,1866.4 659.4,1854.3 "/>
<polygon class="bcg-ruby-tablet2" points="667.7,1869.4 649.7,1868.7 657.9,1898.4 "/>
<polygon class="bcg-ruby-tablet2" points="671.7,1866.5 686.8,1867.1 674.8,1855.2 "/>
<polygon class="bcg-ruby-tablet2" points="645.8,1865.6 643.7,1854.1 631.6,1865.1 "/>
<polygon class="bcg-ruby-tablet2" points="670.8,1869.5 661.4,1897.3 686.4,1870.1 "/>
<polygon class="bcg-ruby-tablet2" points="646.5,1868.6 631.4,1868.1 654.3,1896.8 "/>
<path class="bcg-ruby-tablet1" d="M675,1851.2L675,1851.2c-0.1-0.1-0.3-0.2-0.4-0.3h-0.1l-0.2-0.1c-0.1,0-0.2,0-0.3,0l0,0l-29.2-1.1l0,0h-0.1
	h-0.2l0,0h-0.1h-0.2l-0.1,0.1l-0.1,0.1l-0.1,0.1l-0.1,0.1l-16.7,15.1c-0.6,0.7-0.6,1.8,0.1,2.4c0,0,0.1,0.1,0.2,0.1l29.3,36.7
	c0.1,0.1,0.2,0.2,0.2,0.2l0,0c0.1,0.1,0.2,0.1,0.3,0.2l0.1-0.2c0,0,0.3-0.1,0.4-0.1l0,0v0.2c0,0,0.3,0.1,0.4,0s0.1,0,0.1,0
	c0.2-0.1,0.5-0.2,0.6-0.4l31.7-34.4c0.9-0.6,1.3-1.8,0.7-2.7v-0.1L675,1851.2z M650,1865.8l9.3-11.5l8,12.1L650,1865.8z
	 M667.6,1869.4l-9.8,29l-8.2-29.6L667.6,1869.4z M669.3,1863.8l-6.9-10.5l9.6,0.4L669.3,1863.8z M648.4,1863.1l-1.9-10.3l10,0.4
	L648.4,1863.1z M645.8,1865.6l-14.2-0.5l12.1-11L645.8,1865.6z M646.5,1868.6l7.8,28.2l-22.9-28.7L646.5,1868.6z M670.7,1869.5
	l15.6,0.6l-25,27.2L670.7,1869.5z M671.7,1866.5l3.1-11.4l12,11.9L671.7,1866.5z"/>
</svg>
