<?xml version="1.0" encoding="utf-8"?>
<svg version="1.1" id="Warstwa_1" xmlns="http://www.w3.org/2000/svg" xmlns:xlink="http://www.w3.org/1999/xlink" x="0px" y="0px"
	 viewBox="0 0 1560.3 2466" style="enable-background:new 0 0 1560.3 2466;" xml:space="preserve">
<style type="text/css">
	.bcg-ruby0{fill:#1E2333;}
	.bcg-ruby1{fill:#2B304B;}
	.bcg-ruby2{fill:#B92745;}
</style>
<title>Zasób 9</title>
<g id="Warstwa_2">
	<g id="Warstwa_1-2">
		<path class="bcg-ruby0" d="M108.5,411.9c21.1-0.1,38.2-17.2,38.3-38.3l0,0c0-21.1-17.1-38.3-38.3-38.3s-38.3,17.1-38.3,38.3l0,0l0,0
			C70.3,394.8,87.4,411.9,108.5,411.9z"/>
		<path class="bcg-ruby0" d="M195.2,415.3h38.7c-0.5,2.4-0.8,4.9-0.8,7.4v-0.3c0.1,21,17.2,38.1,38.2,38l0,0h190.9c21,0,38.2-17,38.3-38
			v0.3c0-2.4-0.2-4.9-0.8-7.2h159.7c21.1-0.2,38.2-17.3,38.3-38.4V377c-0.1-21.1-17.1-38.3-38.3-38.4h-63.6c2-4.7,3.1-9.7,3-14.8
			l0,0c0-21.1-17.1-38.3-38.3-38.3H380.4l-28.7,31.2c-0.2,0.2-0.4,0.3-0.6,0.4H351c-0.1,0-0.3,0.2-0.4,0.2s0,0.1,0,0.1l0,0
			c-0.1,0-0.3-0.2-0.4-0.2s-0.1-0.1-0.1-0.1c-0.1-0.1-0.2-0.1-0.4-0.2l0,0c-0.1-0.1-0.2-0.2-0.2-0.2l-24.9-31.1h-8.5
			c-21.1,0.1-38.2,17.2-38.3,38.3l0,0c-0.1,5.1,1,10.1,3,14.8h-85.7c-21.1,0.1-38.2,17.2-38.3,38.3v0.2
			C157,398,174,415.1,195.2,415.3z"/>
		<path class="bcg-ruby0" d="M1522.1,453.7c-21.1,0.1-38.2,17.2-38.3,38.3l0,0c0,21.1,17.1,38.3,38.3,38.3s38.3-17.1,38.3-38.3l0,0
			C1560.3,470.8,1543.2,453.7,1522.1,453.7z"/>
		<path class="bcg-ruby0" d="M971.1,527.3h63.6c-2,4.7-3.1,9.7-3,14.8l0,0c0.1,21.1,17.2,38.2,38.3,38.2h244.4
			c21.1-0.1,38.2-17.2,38.2-38.3l0,0c0.1-5.1-1-10.1-3-14.8h85.7c21.1-0.1,38.2-17.1,38.3-38.2v-0.2c0-21.1-17.1-38.3-38.3-38.5
			h-38.7c0.5-2.4,0.8-4.9,0.8-7.4v0.3c-0.1-21-17.2-38-38.3-37.9h-107.2l-28.2,30.4c-0.2,0.2-0.4,0.3-0.6,0.3h-0.1
			c0,0-0.3,0.2-0.4,0.2s0,0.1,0,0.1l0,0c-0.1,0-0.3-0.2-0.4-0.2c-0.1-0.1-0.1-0.1-0.1-0.1c-0.1-0.1-0.2-0.1-0.3-0.2l0,0
			c-0.1-0.1-0.2,0.1-0.2,0l-24.4-30.4h-28.8c-21,0-38.2,17-38.3,38V443c0,2.4,0.2,4.9,0.8,7.3H971.1c-21.1,0.1-38.2,17.3-38.3,38.5
			v0.1C932.8,510,949.9,527.2,971.1,527.3z"/>
		<path class="bcg-ruby0" d="M1399.8,1347.7L1399.8,1347.7c-0.3,16.1,12.5,29.4,28.6,29.7s29.4-12.5,29.7-28.6c0-0.4,0-0.7,0-1.1l0,0
			c-0.3-16.1-13.6-28.9-29.7-28.6C1412.8,1319.3,1400.1,1332,1399.8,1347.7z"/>
		<path class="bcg-ruby0" d="M1392.1,1345.2L1392.1,1345.2c-0.1-16-13.1-29-29.2-29h-29.6c0.4-1.9,0.6-3.8,0.6-5.7l0,0
			c0-16.1-13.1-29.2-29.2-29.2H1263l14.5-15.7c1.1-0.6,1.5-1.9,0.9-3l-23.7-23.6l0,0c-0.1-0.1-0.3-0.2-0.4-0.3h-0.1l-0.2-0.1
			c-0.1,0-0.2,0-0.3,0v0.2l-43.1-1.4l0,0l-0.1-0.2c0,0-0.1-0.1-0.2-0.1s0,0,0,0h-0.1h-0.2l-0.1,0.1l-0.1,0.1l-0.1,0.1l-0.1,0.1
			l-24.6,22.3c-0.4,0.4-0.6,1-0.4,1.6c0.1,0.4,0.3,0.8,0.7,1l15.3,19.1h-41.4c-16.1,0.1-29.1,13.1-29.2,29.2l0,0
			c0,1.9,0.2,3.9,0.6,5.8h-121.9c-16.1,0.1-29.1,13.1-29.2,29.2v-0.2c0.1,16.1,13.1,29,29.2,29h48.5c-1.5,3.7-2.2,7.6-2.3,11.5v0.2
			c0,16.1,13.1,29.2,29.2,29.3h186.4c16.1-0.1,29.1-13.1,29.2-29.2v-0.2c0-4-0.8-7.9-2.3-11.5h65.4
			C1378.9,1374.3,1392,1361.3,1392.1,1345.2L1392.1,1345.2z M1216.9,1260.4l15.3-18.8l13.1,19.8L1216.9,1260.4z M1249.3,1261.6
			l5.1-18.8l19.8,19.7L1249.3,1261.6z M1247,1258.6l-11.8-17.8l16.4,0.6L1247,1258.6z M1215.5,1257.5l-3.2-17.6l17,0.6
			L1215.5,1257.5z M1212.9,1260.3l-23.6-0.8l20.1-18.2L1212.9,1260.3z M1245.2,1264.5l-15.5,45.8l-13-46.8L1245.2,1264.5z
			 M1248.4,1264.6l25.1,0.9l-40.2,43.7L1248.4,1264.6z M1213.7,1263.4l12.6,45.4l-36.9-46.3L1213.7,1263.4z"/>
		<path class="bcg-ruby0" d="M162.7,1335.7c-16.1,0-29.1,13.1-29.2,29.2l0,0c0.3,16.1,13.6,28.9,29.7,28.6c15.7-0.3,28.4-12.9,28.6-28.6
			l0,0C191.9,1348.8,178.8,1335.7,162.7,1335.7z"/>
		<path class="bcg-ruby0" d="M612.2,1367.1v0.2c-0.1-16.1-13.1-29-29.2-29h-48.6c1.5-3.6,2.2-7.5,2.3-11.5v-0.2
			c0-16.1-13.1-29.2-29.2-29.4H321.2c-16.1,0.1-29.1,13.2-29.2,29.3v0.2c0,3.9,0.8,7.9,2.3,11.5h-65.4c-16.1,0-29.1,12.9-29.2,29
			v-0.1c0.1,16.1,13.1,29.1,29.2,29.1h29.5c-0.4,1.9-0.6,3.8-0.6,5.8l0,0c0,16.1,13,29.2,29.1,29.2h145.6
			c16.1,0,29.1-13.1,29.2-29.2l0,0c0-1.9-0.2-3.9-0.6-5.8H583C599.1,1396.3,612.2,1383.3,612.2,1367.1z"/>
		<path class="bcg-ruby0" d="M1154.6,920.9L1154.6,920.9c0.3,16.1,13.6,28.9,29.7,28.6c15.7-0.3,28.4-12.9,28.6-28.6l0,0
			c-0.3-16.1-13.6-28.9-29.7-28.6C1167.6,892.5,1154.9,905.2,1154.6,920.9z"/>
		<path class="bcg-ruby0" d="M1146.9,918.3L1146.9,918.3c-0.1-16-13.1-29-29.2-29h-29.5c0.4-1.9,0.6-3.8,0.6-5.7l0,0
			c0-16.1-13.1-29.2-29.2-29.3H914c-16.1,0.1-29.1,13.1-29.2,29.2l0,0c0,1.9,0.2,3.9,0.6,5.8H763.5c-16.1,0.1-29.1,13.1-29.2,29.2
			v-0.2c0.1,16.1,13.1,29,29.2,29H812c-1.5,3.7-2.2,7.6-2.3,11.5v0.1c0,16.1,13.1,29.2,29.2,29.3h186.4
			c16.1-0.1,29.1-13.1,29.2-29.2v-0.2c0-4-0.8-7.9-2.3-11.5h65.4C1133.8,947.4,1146.8,934.4,1146.9,918.3L1146.9,918.3z"/>
		<path class="bcg-ruby0" d="M950.9,1632.4c-34.1,0.1-61.6,27.7-61.7,61.7l0,0c0.4,34.1,28.4,61.4,62.5,60.9c33.5-0.4,60.5-27.5,60.9-60.9
			l0,0C1012.5,1660.1,984.9,1632.5,950.9,1632.4z"/>
		<path class="bcg-ruby0" d="M811,1627.2h-62.5c0.8-3.9,1.2-8,1.2-12v0.3c0-34-27.8-61.4-61.7-61.4H380c-34,0-61.6,27.5-61.7,61.5v-0.3
			c0,4,0.4,8,1.2,11.8H61.7c-34,0-61.7,28-61.7,62v0.2c0,34,27.8,61.9,61.7,61.9h102.7c-3.2,7.5-4.9,15.7-4.9,23.9v0.2
			c0,34,27.8,61.9,61.7,61.9h394.4c34,0,61.7-28,61.7-61.9v-0.1c0-8.2-1.6-16.4-4.8-24H811c34.1-0.1,61.6-27.7,61.7-61.8v-0.2
			C872.7,1655.2,844.9,1627.2,811,1627.2z"/>
		<path class="bcg-ruby0" d="M543.8,761.1L543.8,761.1c0-14.5-11.8-26.2-26.3-26.2s-26.2,11.7-26.2,26.2l0,0c0,14.5,11.8,26.2,26.3,26.2
			C532,787.3,543.7,775.6,543.8,761.1z"/>
		<path class="bcg-ruby0" d="M113.7,759.1v-0.2c0.1,14.4,11.8,26,26.2,26h43.6c-1.4,3.3-2,6.8-2,10.3v0.2c0,14.5,11.7,26.3,26.2,26.5
			h167.5c14.5-0.1,26.2-11.9,26.2-26.4v-0.2c0-3.6-0.7-7.1-2.1-10.4h58.8c14.4,0,26.2-11.6,26.2-26.1v0.1
			c0-14.4-11.8-26.1-26.2-26.1h-26.5c0.3-1.7,0.5-3.5,0.5-5.2v-0.3c0-14.5-11.7-26.3-26.2-26.5H275.1c-14.5,0.2-26.2,11.9-26.2,26.5
			v0.2c0,1.8,0.2,3.6,0.5,5.4H139.9C125.5,733,113.7,744.7,113.7,759.1z"/>
		<path class="bcg-ruby1" d="M1143.2,92.4v-0.2c0.1,14.4,11.8,26,26.2,26h43.6c-1.4,3.3-2,6.8-2,10.3v0.2c0,14.5,11.7,26.3,26.2,26.5
			h167.5c14.5-0.1,26.2-11.9,26.2-26.4v-0.2c0-3.6-0.7-7.1-2.1-10.4h58.8c14.4,0,26.2-11.6,26.2-26.1v0.1
			c0-14.4-11.8-26.1-26.2-26.1H1461c0.3-1.7,0.5-3.5,0.5-5.2v-0.3c0-14.5-11.7-26.3-26.2-26.5h-130.8c-14.5,0.2-26.2,11.9-26.2,26.5
			v0.2c0,1.8,0.2,3.6,0.5,5.4h-109.5C1154.9,66.2,1143.2,77.9,1143.2,92.4z"/>
		<path class="bcg-ruby0" d="M1127.6,1088.8c0,12.7,10.3,23,23,23s23-10.3,23-23s-10.3-23-23-23S1127.6,1076.1,1127.6,1088.8z"/>
		<path class="bcg-ruby0" d="M1504.8,1090.3c0-12.7-10.3-23-23-23h-38.3c1.2-2,1.8-5.8,1.8-9c-0.1-12.7-10.3-22.9-23-23h-147
			c-12.7,0.1-22.9,10.3-23,23c0,3.2,0.6,7,1.8,9h-51.6c-12.7,0-23,10.3-23,23s10.3,23,23,23h23.3c-0.3,1.5-0.4,3.1-0.5,4.7v0.2
			c0,12.7,10.3,23.1,23,23.2H1363c12.7-0.1,23-10.4,23-23.1v-0.2c0-1.6-0.2-3.2-0.5-4.7h96C1494.5,1113.3,1504.8,1103,1504.8,1090.3
			z"/>
		<path class="bcg-ruby0" d="M1136.6,691.8c0,12.7,10.3,23,23,23s23-10.3,23-23s-10.3-23-23-23S1136.6,679.1,1136.6,691.8z"/>
		<path class="bcg-ruby0" d="M1513.8,693.3c0-12.7-10.3-23-23-23h-38.3c1.2-2,1.8-5.8,1.8-9c-0.1-12.7-10.3-22.9-23-23h-147
			c-12.7,0.1-22.9,10.3-23,23c0,3.2,0.6,7,1.8,9h-51.6c-12.7,0-23,10.3-23,23s10.3,23,23,23h23.3c-0.3,1.5-0.4,3.1-0.5,4.7v0.2
			c0,12.7,10.3,23.1,23,23.2H1372c12.7-0.1,23-10.4,23-23.1v-0.2c0-1.6-0.2-3.2-0.5-4.7h96C1503.5,716.3,1513.8,706,1513.8,693.3z"
			/>
		<path class="bcg-ruby0" d="M548.2,551.3L548.2,551.3c0,2.1,0.2,4,0.6,5.9H427.4c-16,0-29,13-29.1,29l0,0c0,16,13,29,29.1,29.1h48.4
			c-1.6,3.5-2.3,7.4-2.3,11.2v-0.2c0,16,13.1,29,29.1,28.9h185.7c16,0,29-12.9,29.1-28.9l0,0v0.1c0-3.8-0.7-7.6-2.3-11.2h65.2
			c16-0.1,29-13.1,29.1-29.1v0.1c0-16-13-29-29.1-29h-29.4c0.4-1.9,0.6-3.9,0.6-5.8l0,0c0-16-13-29-29.1-29.1h-145
			C561.3,522.4,548.3,535.3,548.2,551.3z"/>
		<path class="bcg-ruby0" d="M846.1,617.5c16,0,29-13,29.1-29.1l0,0c0-16.1-13-29.1-29.1-29.1s-29.1,13-29.1,29.1l0,0
			C817.1,604.4,830.1,617.4,846.1,617.5z"/>
		<polygon class="bcg-ruby2" points="1208.5,376.6 1222.3,359.6 1205.3,359 		"/>
		<polygon class="bcg-ruby2" points="1205.9,379.4 1202.5,360.4 1182.4,378.6 		"/>
		<polygon class="bcg-ruby2" points="1266.5,384.6 1241.4,383.7 1226.3,428.3 		"/>
		<polygon class="bcg-ruby2" points="1240,377.7 1244.7,360.5 1228.2,359.8 		"/>
		<polygon class="bcg-ruby2" points="1242.3,380.7 1267.2,381.6 1247.4,361.9 		"/>
		<polygon class="bcg-ruby2" points="1209.9,379.6 1238.4,380.6 1225.2,360.8 		"/>
		<polygon class="bcg-ruby2" points="1222.8,429.4 1238.2,383.6 1209.8,382.6 		"/>
		<polygon class="bcg-ruby2" points="1219.2,427.8 1206.7,382.4 1182.3,381.6 		"/>
		<path class="bcg-ruby1" d="M1221.7,435.7L1221.7,435.7c0.1,0.1,0.2,0.1,0.3,0.2l0.1,0.2c0,0,0.3,0.2,0.4,0.2l0,0v-0.1
			c0.1,0,0.3-0.1,0.4-0.1c0,0,0.1,0,0.1-0.1c0.2-0.1,0.5-0.2,0.6-0.4l28.2-30.7l18.6-20.2c1.1-0.6,1.5-2,0.9-3.1l-23.7-23.5l0,0
			c-0.1-0.1-0.3-0.2-0.4-0.3h-0.1l-0.2-0.1c-0.1,0-0.2,0-0.3,0v0.2l-43.1-1.4l0,0l-0.1-0.2c0,0-0.1-0.1-0.2-0.1s0,0,0,0h-0.1h-0.2
			l-0.1,0.1l-0.1,0.1l-0.1,0.1l-0.1,0.1l-24.6,22.3c-0.7,0.7-0.6,1.9,0.2,2.5c0.1,0,0.1,0.1,0.2,0.1l18.8,23.6l24.4,30.6
			C1221.6,435.6,1221.7,435.6,1221.7,435.7z M1209.9,379.6l15.3-18.8l13.1,19.8L1209.9,379.6z M1242.3,380.7l5.1-18.8l19.8,19.7
			L1242.3,380.7z M1240,377.7l-11.8-17.8l16.4,0.6L1240,377.7z M1208.5,376.6l-3.2-17.6l17,0.6L1208.5,376.6z M1205.9,379.4
			l-23.6-0.8l20.1-18.2L1205.9,379.4z M1238.2,383.6l-15.5,45.8l-13-46.8L1238.2,383.6z M1241.4,383.7l25.1,0.9l-40.2,43.7
			L1241.4,383.7z M1206.7,382.4l12.6,45.4l-36.9-46.3L1206.7,382.4z"/>
		<polygon class="bcg-ruby2" points="370.3,261.7 395.2,262.6 375.4,242.9 		"/>
		<polygon class="bcg-ruby2" points="337.9,260.6 366.4,261.6 353.2,241.8 		"/>
		<polygon class="bcg-ruby2" points="394.5,265.6 369.4,264.7 354.3,309.3 		"/>
		<polygon class="bcg-ruby2" points="333.9,260.4 330.5,241.4 310.4,259.6 		"/>
		<polygon class="bcg-ruby2" points="336.5,257.6 350.3,240.6 333.3,240 		"/>
		<polygon class="bcg-ruby2" points="368,258.7 372.7,241.5 356.2,240.8 		"/>
		<polygon class="bcg-ruby2" points="347.2,308.8 334.7,263.4 310.3,262.6 		"/>
		<polygon class="bcg-ruby2" points="350.8,310.4 366.2,264.6 337.8,263.6 		"/>
		<path class="bcg-ruby1" d="M349.7,316.7L349.7,316.7c0.1,0.1,0.2,0.1,0.4,0.2l0.1,0.2c0,0,0.3,0.2,0.4,0.2l0,0v-0.1
			c0.1,0,0.3-0.1,0.4-0.1l0.1-0.1c0.2-0.1,0.5-0.2,0.6-0.4l28.7-31.2l18.1-19.7c0.5-0.2,0.9-0.6,1-1.1c0.5-0.6,0.4-1.5-0.1-2
			L375.7,239l0,0c-0.1-0.1-0.3-0.2-0.4-0.3h-0.1l-0.2-0.1c-0.1,0-0.2,0-0.3,0v0.2l-43.1-1.5l0,0l-0.1-0.2c0,0-0.1-0.1-0.2-0.1
			s0,0,0,0h-0.1H331l-0.1,0.1l-0.1,0.1l-0.1,0.1l-0.1,0.1L306,259.7c-0.4,0.4-0.6,1-0.4,1.6c0.1,0.4,0.3,0.8,0.7,1.1l18.4,23.1
			l24.8,31.1C349.5,316.5,349.6,316.6,349.7,316.7z M337.9,260.6l15.3-18.8l13.1,19.8L337.9,260.6z M370.3,261.7l5.1-18.8l19.8,19.7
			L370.3,261.7z M368,258.7l-11.8-17.8l16.5,0.6L368,258.7z M336.5,257.6l-3.2-17.6l17,0.6L336.5,257.6z M333.9,260.4l-23.6-0.8
			l20.1-18.2L333.9,260.4z M366.2,264.6l-15.5,45.8l-13-46.8L366.2,264.6z M369.4,264.7l25.1,0.9l-40.2,43.7L369.4,264.7z
			 M334.7,263.4l12.6,45.4l-36.9-46.3L334.7,263.4z"/>
		<polygon class="bcg-ruby2" points="1273.5,1265.4 1248.4,1264.5 1233.3,1309.1 		"/>
		<polygon class="bcg-ruby2" points="1212.9,1260.3 1209.5,1241.2 1189.4,1259.4 		"/>
		<polygon class="bcg-ruby2" points="1215.5,1257.5 1229.3,1240.5 1212.3,1239.8 		"/>
		<polygon class="bcg-ruby2" points="1247,1258.5 1251.7,1241.3 1235.2,1240.7 		"/>
		<polygon class="bcg-ruby2" points="1216.9,1260.4 1245.4,1261.4 1232.2,1241.6 		"/>
		<polygon class="bcg-ruby2" points="1249.3,1261.6 1274.2,1262.5 1254.4,1242.8 		"/>
		<polygon class="bcg-ruby2" points="1229.8,1310.2 1245.2,1264.4 1216.8,1263.4 		"/>
		<polygon class="bcg-ruby2" points="1226.2,1308.7 1213.7,1263.3 1189.3,1262.4 		"/>
		<path class="bcg-ruby0" d="M966,2341.8L966,2341.8c-20.9,0-37.8,17-37.8,37.9c0,20.8,16.9,37.7,37.8,37.8l0,0c20.9,0,37.8-17,37.8-37.9
			C1003.7,2358.7,986.8,2341.8,966,2341.8z"/>
		<path class="bcg-ruby0" d="M1510.8,2345h-62.9c1.9-4.7,2.9-9.8,3-14.9c0-20.8-17-38.1-37.8-38.1h-241.7c-20.8,0-37.8,17.3-37.8,38.1
			c0.1,5.1,1.1,10.2,3,14.9h-84.8c-20.7,0-37.5,16.8-37.5,37.5s16.8,37.5,37.5,37.5h38.3c-0.5,2.5-0.7,5.1-0.8,7.7v0.2
			c0,20.8,17,38.1,37.8,38.1h188.7c20.9-0.1,37.8-17.1,37.8-38v-0.3c0-2.6-0.3-5.2-0.8-7.8h157.9c20.7,0,37.5-16.8,37.5-37.5
			S1531.5,2344.9,1510.8,2345L1510.8,2345z"/>
		<path class="bcg-ruby0" d="M415.6,2362.1c-14.5,0-26.2,11.8-26.2,26.2l0,0c0,14.5,11.7,26.2,26.2,26.2s26.2-11.7,26.2-26.2l0,0l0,0
			C441.8,2373.9,430,2362.1,415.6,2362.1z"/>
		<path class="bcg-ruby0" d="M356.1,2360.1h-26.5c0.3-1.6,0.5-3.3,0.5-5c-0.1-14.4-11.8-26-26.2-26H193.7l-24.9,26.8
			c-0.2,0.2-0.4,0.3-0.6,0.3h-0.1c-0.1,0-0.3,0-0.4,0v-0.1l0,0c-0.1,0-0.3,0-0.4,0h-0.1c-0.1,0-0.2-0.1-0.4-0.2l0,0
			c-0.1-0.1-0.2-0.2-0.2-0.2l-13.8-17.3c-3.8,4.7-5.9,10.5-5.9,16.5c0,1.7,0.2,3.5,0.5,5.2H37.9c-14.5,0-26.2,11.7-26.2,26.2v-0.2
			c0.1,14.4,11.8,26.1,26.2,26h43.6c-1.3,3.3-2,6.9-2.1,10.5c0,14.4,11.8,26.5,26.2,26.5h167.5c14.4,0,26.2-12.1,26.2-26.5
			c-0.1-3.6-0.8-7.1-2.1-10.5H356c14.4,0,26.1-11.6,26.2-26v0.1C382.4,2371.9,370.7,2360.1,356.1,2360.1
			C356.2,2360.1,356.2,2360.1,356.1,2360.1z"/>
		<polygon class="bcg-ruby2" points="227.2,2226.1 246.7,2202.1 222.7,2201.3 		"/>
		<polygon class="bcg-ruby2" points="242.8,2294.7 225.5,2232.2 192,2231 		"/>
		<polygon class="bcg-ruby2" points="269.3,2227.5 275.8,2203.2 252.6,2202.4 		"/>
		<polygon class="bcg-ruby2" points="267.4,2233.7 228.6,2232.3 246.3,2296.2 		"/>
		<polygon class="bcg-ruby2" points="271.5,2230.9 306.1,2232.1 278.5,2204.7 		"/>
		<polygon class="bcg-ruby2" points="270.5,2233.8 249.8,2295.1 305,2235.1 		"/>
		<polygon class="bcg-ruby2" points="228.4,2229.3 267.8,2230.7 249.6,2203.3 		"/>
		<polygon class="bcg-ruby2" points="224.7,2229.2 219.9,2202.6 191.9,2228 		"/>
		<path class="bcg-ruby1" d="M187.9,2230.7l57.1,71.5c0.1,0.1,0.2,0.2,0.2,0.2l0,0c0.1,0.1,0.2,0.1,0.4,0.2l0.1,0.2c0,0,0.3,0.2,0.4,0.2
			l0,0v-0.1c0.1,0,0.3-0.1,0.4-0.1l0.1-0.1c0.2-0.1,0.5-0.2,0.6-0.4l61.8-67.2c0.6-0.2,1-0.6,1.1-1.2l0,0c0.6-0.6,0.6-1.5,0-2.1
			l-31.3-31.1l0,0c-0.1-0.1-0.3-0.2-0.4-0.3h-0.1l-0.2-0.1c-0.1,0-0.2,0-0.3,0l0,0l-56.8-2.1l0,0h-0.1h-0.2l0,0h-0.1h-0.2l-0.1,0.1
			l-0.1,0.1l-0.1,0.1l-0.1,0.1l-32.4,29.4C186.9,2228.8,187,2230,187.9,2230.7L187.9,2230.7L187.9,2230.7z M267.4,2233.7l-21.1,62.5
			l-17.7-63.9L267.4,2233.7z M228.4,2229.3l21.2-26l18.2,27.4L228.4,2229.3z M242.7,2294.7L192,2231l33.5,1.2L242.7,2294.7z
			 M270.5,2233.8l34.5,1.2l-55.2,60L270.5,2233.8z M271.5,2230.8l7-26.2l27.6,27.4L271.5,2230.8z M269.3,2227.5l-16.7-25.1l23.2,0.9
			L269.3,2227.5z M227.2,2226l-4.5-24.8l23.9,0.9L227.2,2226z M224.8,2229.1l-32.8-1.2l28.1-25.4L224.8,2229.1z"/>
		<polygon class="bcg-ruby2" points="156.5,2304.7 181.7,2305.6 170.1,2288 		"/>
		<polygon class="bcg-ruby2" points="185.8,2305.7 207.8,2306.5 190.3,2289 		"/>
		<polygon class="bcg-ruby2" points="152.4,2304.5 149.3,2287.6 131.5,2303.8 		"/>
		<polygon class="bcg-ruby2" points="207.2,2309.5 184.8,2308.7 171.4,2348.5 		"/>
		<polygon class="bcg-ruby2" points="183.5,2302.7 187.6,2287.6 173,2287 		"/>
		<polygon class="bcg-ruby2" points="154.9,2301.8 167.1,2286.8 152.2,2286.3 		"/>
		<polygon class="bcg-ruby2" points="167.9,2349.6 181.7,2308.6 156.3,2307.7 		"/>
		<polygon class="bcg-ruby2" points="164.3,2348 153.1,2307.5 131.4,2306.8 		"/>
		<path class="bcg-ruby1" d="M166.8,2355.9L166.8,2355.9c0.1,0.1,0.2,0.1,0.4,0.2h0.1c0.1,0,0.3,0,0.4,0l0,0l0,0c0.1,0,0.3,0,0.4,0h0.1
			c0.2-0.1,0.5-0.2,0.6-0.4l24.9-27.1l17.6-19.1c1.1-0.6,1.4-1.9,0.8-3l0,0l-21.5-21.4l0,0c-0.1-0.1-0.3-0.2-0.4-0.3h-0.1l-0.2-0.1
			c-0.1,0-0.2,0-0.3,0l0,0l-39.1-1.5l0,0h-0.1h-0.2l0,0h-0.1h-0.2l-0.1,0.1l-0.1,0.1l-0.1,0.1l-0.1,0.1l-22.4,20.3
			c-0.7,0.7-0.6,1.8,0.1,2.5c0.1,0.1,0.1,0.1,0.2,0.1l25.5,31.9l13.8,17.3C166.6,2355.7,166.7,2355.8,166.8,2355.9z M156.5,2304.7
			l13.6-16.7l11.7,17.6L156.5,2304.7z M185.8,2305.7l4.5-16.7l17.6,17.5L185.8,2305.7z M183.5,2302.7L173,2287l14.5,0.5
			L183.5,2302.7z M154.9,2301.7l-2.8-15.5l15,0.6L154.9,2301.7z M152.4,2304.4l-20.9-0.8l17.9-16.2L152.4,2304.4z M181.7,2308.4
			l-13.9,41l-11.6-41.9L181.7,2308.4z M184.8,2308.5l22.4,0.8l-35.8,39L184.8,2308.5z M153.1,2307.4l11.2,40.5l-32.9-41
			L153.1,2307.4z"/>
		<polygon class="bcg-ruby2" points="1368.6,1865.2 1347.9,1926.5 1403.1,1866.4 		"/>
		<polygon class="bcg-ruby2" points="1322.8,1860.6 1318,1834 1289.9,1859.4 		"/>
		<polygon class="bcg-ruby2" points="1323.5,1863.6 1290,1862.4 1340.8,1926 		"/>
		<polygon class="bcg-ruby2" points="1350.6,1833.8 1367.3,1858.9 1373.9,1834.6 		"/>
		<polygon class="bcg-ruby2" points="1369.5,1862.2 1404.2,1863.5 1376.6,1836.1 		"/>
		<polygon class="bcg-ruby2" points="1365.4,1865.1 1326.7,1863.7 1344.3,1927.6 		"/>
		<polygon class="bcg-ruby2" points="1325.3,1857.5 1344.7,1833.5 1320.8,1832.6 		"/>
		<polygon class="bcg-ruby2" points="1326.5,1860.7 1365.8,1862.1 1347.7,1834.7 		"/>
		<path class="bcg-ruby1" d="M1408.2,1863.2l-31.3-31.1l0,0c-0.1-0.1-0.3-0.2-0.4-0.3h-0.1l-0.2-0.1c-0.1,0-0.2,0-0.3,0l0,0l-56.8-2.1l0,0
			h-0.1h-0.2l0,0h-0.1h-0.2l-0.1,0.1l-0.1,0.1l-0.1,0.1l-0.1,0.1l-32.4,29.4c-0.7,0.8-0.6,2,0.3,2.7c0.1,0,0.1,0.1,0.2,0.1
			l57.1,71.5c0.1,0.1,0.2,0.2,0.2,0.2l0,0c0.1,0.1,0.2,0.1,0.3,0.2l0.1,0.2c0,0,0.3,0.2,0.4,0.2l0,0v-0.1c0.1,0,0.3-0.1,0.4-0.1
			l0.1-0.1c0.2-0.1,0.5-0.2,0.6-0.4l61.8-67.2c0.6-0.2,1-0.6,1.1-1.2l0,0C1408.8,1864.7,1408.7,1863.8,1408.2,1863.2z
			 M1326.5,1860.7l21.2-26l18.2,27.4L1326.5,1860.7z M1365.5,1865.1l-21.1,62.5l-17.8-63.9L1365.5,1865.1z M1367.4,1858.9
			l-16.7-25.1l23.2,0.9L1367.4,1858.9z M1325.3,1857.4l-4.5-24.8l23.9,0.9L1325.3,1857.4z M1322.8,1860.5l-32.8-1.2l28.1-25.4
			L1322.8,1860.5z M1323.6,1863.5l17.3,62.4l-50.8-63.6L1323.6,1863.5z M1368.6,1865.2l34.5,1.2l-55.2,60L1368.6,1865.2z
			 M1369.6,1862.2l7-26.2l27.6,27.4L1369.6,1862.2z"/>
		<polygon class="bcg-ruby2" points="1283.8,1937.1 1305.9,1937.9 1288.3,1920.4 		"/>
		<polygon class="bcg-ruby2" points="1271.1,1918.4 1281.5,1934.1 1285.6,1919 		"/>
		<polygon class="bcg-ruby2" points="1253,1933.2 1265.2,1918.2 1250.2,1917.6 		"/>
		<polygon class="bcg-ruby2" points="1250.4,1935.9 1247.4,1919 1229.5,1935.2 		"/>
		<polygon class="bcg-ruby2" points="1282.9,1940.1 1269.5,1979.9 1305.3,1940.9 		"/>
		<polygon class="bcg-ruby2" points="1251.2,1938.9 1229.5,1938.2 1262.4,1979.4 		"/>
		<polygon class="bcg-ruby2" points="1279.8,1940 1254.3,1939 1265.9,1981 		"/>
		<polygon class="bcg-ruby2" points="1254.5,1936.1 1279.8,1937 1268.1,1919.3 		"/>
		<path class="bcg-ruby1" d="M1288.6,1916.4c-0.1-0.1-0.3-0.2-0.4-0.3h-0.1l-0.2-0.1c-0.1,0-0.2,0-0.3,0l0,0l-39.1-1.5l0,0h-0.1h-0.2l0,0
			h-0.1h-0.2l-0.1,0.1l-0.1,0.1l-0.1,0.1l-0.1,0.1l-22.4,20.3c-0.7,0.7-0.6,1.8,0.1,2.5c0.1,0.1,0.1,0.1,0.2,0.1l39.3,49.2
			c0.1,0.1,0.2,0.2,0.2,0.2l0,0c0.1,0.1,0.2,0.1,0.3,0.2h0.1c0.1,0,0.3,0,0.4,0l0,0l0,0c0.1,0,0.3,0,0.4,0h0.1
			c0.2-0.1,0.5-0.2,0.6-0.4l42.5-46.2c1.1-0.6,1.4-1.9,0.8-3l0,0L1288.6,1916.4L1288.6,1916.4z M1254.6,1936.1l13.6-16.7l11.7,17.6
			L1254.6,1936.1z M1279.8,1940l-13.8,41l-11.6-41.9L1279.8,1940z M1281.6,1934.1l-10.4-15.7l14.5,0.5L1281.6,1934.1z M1253,1933.1
			l-2.8-15.5l15,0.6L1253,1933.1z M1250.5,1935.9l-20.9-0.8l17.8-16.2L1250.5,1935.9z M1251.2,1938.9l11.2,40.5l-32.9-41.1
			L1251.2,1938.9z M1282.9,1940l22.4,0.8l-35.8,39L1282.9,1940z M1283.9,1937l4.5-16.7l17.6,17.5L1283.9,1937z"/>
		<polygon class="bcg-ruby2" points="1365.4,1986 1373.5,1976 1363.6,1975.6 		"/>
		<polygon class="bcg-ruby2" points="1379.4,1976.2 1386.3,1986.7 1389.1,1976.6 		"/>
		<polygon class="bcg-ruby2" points="1367.1,1988.7 1384.5,1989.3 1376.4,1977.2 		"/>
		<polygon class="bcg-ruby2" points="1384.7,1992.3 1366.7,1991.6 1374.9,2021.3 		"/>
		<polygon class="bcg-ruby2" points="1388.7,1989.4 1403.8,1990 1391.8,1978.1 		"/>
		<polygon class="bcg-ruby2" points="1362.8,1988.5 1360.7,1977 1348.6,1988 		"/>
		<polygon class="bcg-ruby2" points="1387.8,1992.4 1378.4,2020.2 1403.4,1993 		"/>
		<polygon class="bcg-ruby2" points="1363.5,1991.5 1348.4,1991 1371.3,2019.7 		"/>
		<path class="bcg-ruby1" d="M1392,1974.1L1392,1974.1c-0.1-0.1-0.3-0.2-0.4-0.3h-0.1l-0.2-0.1c-0.1,0-0.2,0-0.3,0l0,0l-29.2-1.1l0,0h-0.1
			h-0.2l0,0h-0.1h-0.2l-0.1,0.1l-0.1,0.1l-0.1,0.1l-0.1,0.1l-16.7,15.1c-0.6,0.7-0.6,1.8,0.1,2.4c0,0,0.1,0.1,0.2,0.1l29.3,36.7
			c0.1,0.1,0.2,0.2,0.2,0.2l0,0c0.1,0.1,0.2,0.1,0.3,0.2l0.1-0.2c0,0,0.3-0.1,0.4-0.1l0,0v0.2c0,0,0.3,0.1,0.4,0s0.1,0,0.1,0
			c0.2-0.1,0.5-0.2,0.6-0.4l31.7-34.4c0.9-0.6,1.3-1.8,0.7-2.7v-0.1L1392,1974.1z M1367,1988.7l9.3-11.5l8,12.1L1367,1988.7z
			 M1384.6,1992.3l-9.8,29l-8.2-29.6L1384.6,1992.3z M1386.3,1986.7l-6.9-10.5l9.6,0.4L1386.3,1986.7z M1365.4,1986l-1.9-10.3
			l10,0.4L1365.4,1986z M1362.8,1988.5l-14.2-0.5l12.1-11L1362.8,1988.5z M1363.5,1991.5l7.8,28.2l-22.9-28.7L1363.5,1991.5z
			 M1387.7,1992.4l15.6,0.6l-25,27.2L1387.7,1992.4z M1388.7,1989.4l3.1-11.4l12,11.9L1388.7,1989.4z"/>
	</g>
</g>
</svg>
