<?xml version="1.0" encoding="utf-8"?>
<svg version="1.1" id="Warstwa_1" xmlns="http://www.w3.org/2000/svg" xmlns:xlink="http://www.w3.org/1999/xlink" x="0px" y="0px"
	 viewBox="0 0 1218.5 568" style="enable-background:new 0 0 1218.5 568;" xml:space="preserve">
<style type="text/css">
	.ruby-duck0{fill:#2B304B;}
	.ruby-duck1{fill:#B92745;}
	.ruby-duck2{fill:#E9B258;}
	.ruby-duck3{fill:#DA6346;}
	.ruby-duck4{fill:#E5A548;}
</style>
<title>Zasób 8</title>
<g id="Warstwa_2">
	<g id="Warstwa_1-2">
		<path class="ruby-duck0" d="M1180.3,441.9c-21.1,0.1-38.2,17.2-38.3,38.3l0,0c0,21.1,17.1,38.3,38.3,38.3s38.3-17.1,38.3-38.3l0,0
			C1218.5,459,1201.4,441.9,1180.3,441.9z"/>
		<path class="ruby-duck0" d="M403.8,389c-14.5,0-26.2,11.8-26.2,26.2l0,0c0,14.5,11.7,26.2,26.2,26.2s26.2-11.7,26.2-26.2l0,0
			C430,400.8,418.2,389,403.8,389z"/>
		<path class="ruby-duck0" d="M344.4,387h-26.5c0.2-1.7,0.3-3.5,0.2-5.2v0.2c0.1-14.3-11.4-25.9-25.7-26c-0.1,0-0.2,0-0.2,0H181.9
			l17.6-19.4c0.5-0.2,0.8-0.7,0.9-1.2c0.4-0.6,0.4-1.5-0.1-2L178.8,312l0,0c-0.1-0.1-0.3-0.2-0.4-0.3h-0.1l-0.2-0.1
			c-0.1,0-0.2,0-0.3,0l0,0l-39.2-1.7l0,0h-0.1h-0.2l0,0h-0.1H138l-0.1,0.1l-0.1,0.1l-0.1,0.1l-0.1,0.1l-22.3,20.2
			c-0.7,0.7-0.6,1.8,0.1,2.5c0.1,0.1,0.1,0.1,0.2,0.1L141,365c-3.9,4.7-6,10.6-6,16.7l0,0c0.1,1.7,0.3,3.5,0.6,5.2H26.2
			C11.7,387,0,398.7,0,413.2V413c0,14.4,11.7,26,26.1,26l0,0h43.6c-1.2,3.3-1.8,6.8-1.8,10.4v0.2C68,464,79.5,476,93.9,476h167.5
			c14.4,0,26.6-11.9,26.6-26.3v-0.2c0-3.6-1.1-6.4-2.4-10.4h58.8c14.4,0,26.6-11.6,26.6-26v0.1C371,398.7,358.8,387,344.4,387z
			 M144.7,331.5l13.6-16.7l11.7,17.6L144.7,331.5z M174,332.5l4.5-16.7l17.6,17.5L174,332.5z M171.7,329.5l-10.4-15.7l14.5,0.5
			L171.7,329.5z M143.2,328.5l-2.8-15.5l15,0.6L143.2,328.5z M140.6,331.3l-20.9-0.8l17.9-16.2L140.6,331.3z M169.9,335.3l-13.9,41
			l-11.6-41.9L169.9,335.3z M173.1,335.4l22.4,0.8l-35.8,39L173.1,335.4z M141.3,334.3l11.2,40.5l-32.9-41.3L141.3,334.3z"/>
		<path class="ruby-duck0" d="M600,367.1v0.2c-0.1-1.5-0.3-2.9-0.8-4.3h96c12.7,0,23-10.3,23-23s-10.3-23-23-23H657c1.2-2.9,1.8-5.9,1.8-9
			c-0.1-12.7-10.3-22.9-23-23h-147c-12.7,0.1-22.9,10.3-23,23c0,3.1,0.6,6.1,1.8,9H416c-12.7,0-23,10.3-23,23s10.3,23,23,23h23.3
			c-0.3,1.4-0.4,2.9-0.4,4.3v-0.2c0,12.6,10.3,22.9,22.9,22.8l0,0h114.7C589.3,390,600,379.7,600,367.1z"/>
		<path class="ruby-duck0" d="M364,360.8L364,360.8c12.7,0,23-10.3,23-23s-10.3-23-23-23l0,0c-12.7,0-23,10.3-23,23S351.3,360.8,364,360.8z
			"/>
		<path class="ruby-duck0" d="M847.9,242.4v0.1c-0.1-1-0.2-2-0.5-2.9H913c8.7,0,15.7-7,15.7-15.7s-7-15.7-15.7-15.7h-26.1
			c0.8-2,1.2-4,1.2-6.1c-0.1-8.7-7-15.6-15.7-15.7H772c-8.7,0.1-15.6,7-15.7,15.7c0,2.1,0.4,4.2,1.2,6.1h-35.3
			c-8.7,0-15.7,7-15.7,15.7s7,15.7,15.7,15.7h15.9c-0.2,1-0.3,2-0.3,2.9v-0.1c0,8.6,7,15.6,15.6,15.6l0,0h78.4
			C840.6,258,847.9,251,847.9,242.4z"/>
		<path class="ruby-duck0" d="M686.7,238.1L686.7,238.1c8.7,0,15.7-7,15.7-15.7s-7-15.7-15.7-15.7l0,0c-8.7,0-15.7,7-15.7,15.7
			S678,238.1,686.7,238.1z"/>
		<path class="ruby-duck0" d="M424.7,162.8v0.1c-0.1-1-0.2-2-0.5-2.9h65.6c8.7,0,15.7-7,15.7-15.7s-7-15.7-15.7-15.7h-26.1
			c0.8-2,1.2-4,1.2-6.1c-0.1-8.7-7-15.6-15.7-15.7H348.7c-8.7,0.1-15.6,7-15.7,15.7c0,2.1,0.4,4.2,1.2,6.1H299
			c-8.7,0-15.7,7-15.7,15.7s7,15.7,15.7,15.7h15.9c-0.2,1-0.3,2-0.3,2.9v-0.1c0,8.6,7,15.6,15.6,15.6l0,0h78.4
			C417.4,178.4,424.7,171.4,424.7,162.8z"/>
		<path class="ruby-duck0" d="M263.5,158.4L263.5,158.4c8.7,0,15.7-7,15.7-15.7s-7-15.7-15.7-15.7l0,0c-8.7,0-15.7,7-15.7,15.7
			S254.8,158.4,263.5,158.4z"/>
		<polygon class="ruby-duck1" points="585.5,23 575.7,56 603.9,23 		"/>
		<polygon class="ruby-duck1" points="558.3,23 540.5,23 568.6,55.8 		"/>
		<path class="ruby-duck1" d="M557.3,20L557.3,20L554,4.8L538.4,20H557.3z"/>
		<polygon class="ruby-duck1" points="584.3,16.1 587.2,3.4 575.2,3.4 		"/>
		<polygon class="ruby-duck1" points="561.4,23 572.2,57.2 582.4,23 		"/>
		<polygon class="ruby-duck1" points="559.6,16.1 569.2,3.3 556.8,3.3 		"/>
		<polygon class="ruby-duck1" points="560.5,19.9 560.5,20 583.3,20 583.3,19.9 572.2,4.4 		"/>
		<path class="ruby-duck1" d="M590,4.7L586.4,20h20L590,4.7z"/>
		<path class="ruby-duck0" d="M536,23h0.6l34.6,40.3c0.1,0.1,0.2,0.2,0.2,0.2l0,0c0.1,0.1,0.2,0.1,0.3,0.2l0.1,0.1c0,0,0.3,0.2,0.4,0.2l0,0
			v-0.1c0.1,0,0.3-0.1,0.4-0.1l0.1-0.1c0.2-0.1,0.4-0.2,0.6-0.4L607.8,23h0.2c0.8,0,1.5-0.7,1.5-1.5c0-0.1,0-0.2,0-0.4l0.2-0.3
			c0.5-0.6,0.5-1.5-0.1-2.1l-19.5-18l0,0c-0.1-0.1-0.3-0.2-0.4-0.3h-0.1l-0.2-0.1c-0.1,0-0.2,0-0.3,0V0.2L554.9,0l0,0l-0.1,0.2
			c0,0-0.1,0.1-0.2,0.1s0,0,0,0s-0.1,0-0.1,0.1l-0.2,0.1l-0.1,0.1l-0.1,0.1H554l-0.1,0.1L535,19.1c-0.4,0.4-0.6,1.1-0.3,1.6
			c-0.1,0.2-0.2,0.5-0.2,0.8C534.5,22.3,535.1,23,536,23L536,23z M572.2,57.2L561.4,23h21L572.2,57.2z M583.3,20h-22.8v-0.1
			l11.7-15.6L583.3,20L583.3,20z M586.4,20L590,4.7L606.5,20H586.4L586.4,20z M584.3,16.1l-9.1-12.7h12L584.3,16.1z M559.6,16.1
			l-2.8-12.8h12.4L559.6,16.1z M557.3,20L557.3,20h-18.9L554,4.8L557.3,20z M558.3,23l10.3,32.8L540.5,23H558.3z M585.6,23h18.3
			l-28.2,33L585.6,23z"/>
		<path class="ruby-duck2" d="M519.5,281h82.3c23.4,0,40.7-20.5,40.7-43.9c-0.2-13-6.1-25.1-16.2-33.2c0,0-2.5-2-1.1-7.4
			c0.6-2,1.5-4,2.7-5.7l0.4-0.7c-3.9-0.3-7.6-1.2-11.2-2.6c-2.2-0.8-4.3-2-6.2-3.4l-0.1-0.1l0,0c-2.4-1.6-3.8-4.3-3.8-7.1
			c0-4.8,3.8-8.7,8.6-8.7l0.1-0.1l0,0l0.1,0.1c0.1,0,0.2,0,0.3,0.1c0.6,0,1.3,0,1.9-0.1c0.8-0.1,1.6-0.4,2.3-0.8
			c0.4-0.3,0.8-0.6,1.1-1c0.5-0.7,0.7-1.5,0.6-2.4c0-0.4,0-0.8,0.1-1.1l0,0v0.2v0.1l0,0c0.1-2.3,1.2-4.5,3-6
			c1.7-1.6,3.9-2.5,6.3-2.5c1.8,0,3.6,0.5,5.2,1.5c-3.3-25-23.9-45.4-50.8-47.7c-1.7-0.1-3.3-0.2-5-0.2c-28.8,0-53.1,21.4-55.5,49.8
			c-0.9,10.7,1.5,21.4,6.8,30.8l-34.1-2.2c-12.3,0-22.2,10-22.2,22.2l1.2,28.4C477,260.5,496.1,281,519.5,281z M595.4,147.6
			c2.4,0,4.4,1.9,4.4,4.4c0,2.4-1.9,4.4-4.4,4.4s-4.4-1.9-4.4-4.4l0,0C591,149.6,592.9,147.6,595.4,147.6L595.4,147.6z M507,224.5
			c0-8.5,6.9-15.5,15.5-15.5h0.1h0.1l37.3,4.2c13.2,0.1,23.9,10.7,24,23.8l0,0c0,13.2-11.2,23.9-24.4,23.9h-28.8
			c-13.2-0.1-23.8-10.8-23.8-23.9L507,224.5L507,224.5z"/>
		<circle class="ruby-duck2" cx="610.8" cy="183.9" r="0"/>
		<path class="ruby-duck0" d="M601.8,285c1.7,0,3.5-0.1,5.2-0.3c10.4-1.3,20-6.3,26.9-14.2c8.2-9.2,12.7-21.1,12.6-33.4
			c-0.2-14.1-6.6-27.3-17.5-36.2c-0.1-0.3-0.5-1.3,0-3.5c0.5-1.6,1.3-3.2,2.2-4.6c0.5-0.9,1.1-1.7,1.6-2.6
			c13.3-0.1,21.9-3.5,24.5-4.8l0,0l0.8-0.4l0,0l0,0c1.3-0.7,2.3-1.8,3.1-3c0.8-1.3,1.2-2.9,1.2-4.4c0-4.7-3.7-8.5-8.3-8.6l0,0
			c-3-0.1-5.9-0.8-8.6-2c-1.4-0.5-2.7-1.4-3.6-2.5c-0.3-0.4-0.6-0.8-0.8-1.3c0.1-14-4.8-27.6-13.9-38.2c-10.3-12-25-19.4-40.8-20.7
			c-1.8-0.2-3.6-0.2-5.3-0.2c-14.8,0-29.2,5.4-40.3,15.3c-11.1,9.8-17.9,23.5-19.2,38.2c-0.8,9.1,0.6,18.3,4.1,26.7l-27.3-1.5
			l-0.1,0.2H498c-14.2-0.2-25.9,11.2-26,25.4c0,0.1,0,0.2,0,0.3v0.1l-0.1,0.1l1.1,28.3c0,24.1,18.4,44.7,41.3,47.5
			c1.7,0.2,3.5,0.3,5.2,0.3H601.8z M475.8,208.7c0-12.3,10-22.2,22.2-22.2l34.1,2.2c-5.3-9.3-7.6-20.1-6.8-30.8
			c2.4-28.4,26.7-49.8,55.5-49.8c1.7,0,3.3,0.1,5,0.2c26.8,2.3,47.5,22.6,50.8,47.6c-1.5-1-3.3-1.6-5.2-1.6c-2.3,0.1-4.6,1-6.3,2.6
			c-1.8,1.5-2.9,3.7-3,6l0,0c0,0-0.1-0.2-0.1-0.1s-0.1-0.1-0.1-0.1v-0.1c0,0.3,0,0.7,0,1.1c0.1,0.8-0.2,1.7-0.6,2.4
			c-0.3,0.4-0.6,0.7-1.1,1c-0.7,0.4-1.5,0.7-2.3,0.8c-0.6,0.1-1.3,0.2-1.9,0.2c-0.1,0-0.2-0.1-0.2-0.1l-0.1-0.1l0,0l-0.1,0.1
			c-4.8,0-8.6,3.9-8.6,8.7c0,2.9,1.4,5.5,3.8,7.1l0,0l0.1,0.1c1.9,1.4,4,2.6,6.2,3.4c3.6,1.4,7.4,2.2,11.2,2.5l-0.4,0.7
			c-1.2,1.7-2.1,3.7-2.7,5.7c-1.4,5.4,1.1,7.4,1.1,7.4c10.1,8.1,16.1,20.3,16.2,33.2c0,23.4-17.3,43.9-40.7,43.9h-82.3
			c-23.4,0-42.5-20.5-42.5-43.9L475.8,208.7z M658.5,177.7c0,0.8-0.2,1.6-0.6,2.2c-0.4,0.7-1,1.2-1.6,1.6l-0.6,0.3
			c-2.2,1-10.3,4.4-23.1,4.4c-5,0.1-10-0.9-14.6-2.8c-1.2-0.5-2.4-1.1-3.5-1.9c-0.4-0.2-0.7-0.4-0.8-0.6l-0.2-0.1l0,0l0,0l-0.1-0.1
			h-0.1h-0.1c-2.1-1.4-2.8-4.3-1.4-6.4c0.8-1.3,2.3-2.1,3.9-2.1h0.5c1.9,0,3.8-0.4,5.5-1.1c1.2-0.6,2.3-1.5,3.1-2.6
			c0.9-1.4,1.4-3,1.4-4.7c0-0.2,0-0.3,0-0.5v-0.1c0.2-1.3,0.8-2.5,1.8-3.4c2-1.8,5.1-1.8,7.1,0c1,0.9,1.6,2,1.8,3.3v0.1v0.1
			c0.4,1.3,1,2.6,1.9,3.6c1.4,1.7,3.2,3,5.3,3.8c3.2,1.4,6.5,2.2,10,2.5l0,0C656.5,173.4,658.5,175.3,658.5,177.7L658.5,177.7z"/>
		<path class="ruby-duck3" d="M644.1,170.8c-2.1-0.8-3.9-2.1-5.3-3.8c-0.9-1.1-1.5-2.3-1.9-3.6v-0.1v-0.1c-0.2-1.3-0.8-2.5-1.8-3.3
			c-2-1.8-5.1-1.8-7.1,0c-1,0.9-1.6,2.1-1.8,3.4v0.1c0,0.2,0,0.3,0,0.5c0,1.7-0.4,3.3-1.4,4.7c-0.8,1.1-1.9,2-3.1,2.6
			c-1.7,0.8-3.6,1.2-5.5,1.1h-0.5c-2.6,0-4.6,2.1-4.6,4.6c0,1.6,0.8,3.1,2.1,3.9h0.1h0.1l0.1,0.1l0,0l0,0l0.2,0.1
			c0.2,0.1,0.5,0.3,0.8,0.6c1.1,0.7,2.3,1.3,3.5,1.9c4.6,1.9,9.6,2.8,14.6,2.8c12.8,0,20.9-3.3,23.1-4.4l0.6-0.3
			c0.7-0.4,1.2-0.9,1.6-1.6c0.4-0.7,0.6-1.5,0.6-2.2c0-2.4-2-4.4-4.4-4.4l0,0C650.7,172.9,647.3,172.2,644.1,170.8z"/>
		<circle class="ruby-duck0" cx="595.4" cy="152" r="4.4"/>
		<path class="ruby-duck4" d="M530.8,258h28.8c5.6,0,11-2.2,15-6.2c4-3.9,6.3-9.2,6.4-14.8l0,0c-0.1-5.6-2.4-10.9-6.4-14.8
			c-4-3.9-9.4-6.2-15-6.2h-0.1l-37-4.2c-6.9,0.1-12.5,5.7-12.5,12.7V237C510,248.5,519.3,257.9,530.8,258z"/>
		<path class="ruby-duck0" d="M530.8,261h28.8c13.2,0,24.4-10.8,24.4-24l0,0c-0.2-13.2-10.8-23.8-24-23.8l-37.3-4.2h-0.1
			c-8.5-0.1-15.5,6.8-15.6,15.4v0.1V237C507,250.2,517.6,260.9,530.8,261z M510,224.5c0-6.9,5.6-12.6,12.5-12.7l37,4.2h0.1
			c5.6,0,11,2.2,15,6.2c4,3.9,6.3,9.2,6.4,14.8l0,0c-0.1,5.6-2.4,10.9-6.4,14.8c-4,4-9.4,6.2-15,6.2h-28.8
			c-11.5-0.1-20.8-9.5-20.8-21V224.5z"/>
		<polygon class="ruby-duck1" points="1093.8,416.3 1122.2,417.3 1109,397.5 		"/>
		<polygon class="ruby-duck1" points="1089.7,416.1 1086.3,397.1 1066.2,415.3 		"/>
		<polygon class="ruby-duck1" points="1123.8,414.4 1128.5,397.2 1112,396.6 		"/>
		<polygon class="ruby-duck1" points="1126.1,417.4 1151,418.3 1131.2,398.6 		"/>
		<polygon class="ruby-duck1" points="1092.3,413.3 1106.1,396.3 1089.1,395.7 		"/>
		<polygon class="ruby-duck1" points="1150.3,421.3 1125.2,420.4 1110.1,465 		"/>
		<polygon class="ruby-duck1" points="1106.6,466.1 1122.1,420.3 1093.6,419.3 		"/>
		<polygon class="ruby-duck1" points="1103,464.5 1090.5,419.1 1066.1,418.3 		"/>
		<path class="ruby-duck0" d="M1154.3,421.3c1.1-0.6,1.5-2,0.9-3.1l-23.7-23.6l0,0c-0.1-0.1-0.3-0.2-0.4-0.3h-0.1l-0.2-0.1
			c-0.1,0-0.2,0-0.3,0v0.2l-43.2-1.5l0,0l-0.1-0.2c0,0-0.1-0.1-0.2-0.1s0,0,0,0h-0.1h-0.2l-0.1,0.1l-0.1,0.1l-0.1,0.1l-0.1,0.1
			l-24.6,22.3c-0.4,0.4-0.6,1-0.4,1.6c0.1,0.4,0.3,0.8,0.7,1.1l16.7,21h-23.9c0.5-3,1.2-5,1.2-7.6v-0.1c0-21-17.6-38.3-38.7-38.3
			H826.5c-21.2,0.1-38.3,17.2-38.5,38.3v0.1c0.1,2.6,0.4,5.1,1,7.6H629.2c-21.1,0-38.2,17.1-38.2,38.2V477c0.1,21,17.2,38,38.2,38
			h63.7c-1.9,4.8-2.9,9.9-2.9,15v-0.2c0,21.1,17.1,38.1,38.1,38.2l0,0h244.4c21,0,38.4-17,38.4-38v-0.1c-0.1-5.1-1.2-10.2-3.2-14.9
			h85.7c21,0,38.4-17,38.4-38v0.1c0-8.3-2.8-16.3-7.8-22.9L1154.3,421.3z M1093.8,416.3l15.2-18.8l13.1,19.8L1093.8,416.3z
			 M1126.1,417.4l5.1-18.8l19.8,19.7L1126.1,417.4z M1123.8,414.4l-11.8-17.8l16.4,0.6L1123.8,414.4z M1092.3,413.3l-3.2-17.6
			l17,0.6L1092.3,413.3z M1089.7,416.1l-23.6-0.8l20.1-18.2L1089.7,416.1z M1122,420.3l-15.5,45.8l-13-46.8L1122,420.3z
			 M1125.2,420.4l25.1,0.9l-40.2,43.7L1125.2,420.4z M1090.5,419.2l12.5,45.4l-36.9-46.3L1090.5,419.2z"/>
		<polygon class="ruby-duck1" points="195.5,336.4 173.1,335.6 159.6,375.4 		"/>
		<polygon class="ruby-duck1" points="143.2,328.7 155.3,313.7 140.4,313.1 		"/>
		<polygon class="ruby-duck1" points="140.6,331.4 137.6,314.5 119.7,330.7 		"/>
		<polygon class="ruby-duck1" points="174,332.6 196.1,333.4 178.5,315.9 		"/>
		<polygon class="ruby-duck1" points="171.7,329.6 175.8,314.5 161.3,313.9 		"/>
		<polygon class="ruby-duck1" points="144.7,331.5 170,332.5 158.3,314.8 		"/>
		<polygon class="ruby-duck1" points="152.5,374.9 141.3,334.4 119.6,333.7 		"/>
		<polygon class="ruby-duck1" points="156.1,376.5 169.9,335.5 144.5,334.5 		"/>
	</g>
</g>
</svg>
