<?xml version="1.0" encoding="utf-8"?>
<svg version="1.1" id="Warstwa_1" xmlns="http://www.w3.org/2000/svg" xmlns:xlink="http://www.w3.org/1999/xlink" x="0px" y="0px"
	 viewBox="0 0 1463.3 2330" style="enable-background:new 0 0 1463.3 2330;" xml:space="preserve">
<style type="text/css">
	.bcg-content0{fill:#1E2333;}
	.bcg-content1{fill:#29334C;}
	.bcg-content2{font-family:'MyriadPro-Regular';}
	.bcg-content3{font-size:194.05px;}
	.bcg-content4{fill:#DA6346;}
	.bcg-content5{fill:#2B304B;}
	.bcg-content6{fill:#E9B258;}
	.bcg-content7{fill:#9FA4B7;}
	.bcg-content8{fill:#DEDEE0;}
	.bcg-content9{fill:#9FA4B7;stroke:#2B304B;stroke-width:4;stroke-linejoin:round;}
	.bcg-content10{fill:#73CEDD;}
	.bcg-content11{font-size:103.5px;}
</style>
<title>bcg-content_1</title>
<path class="bcg-content0" d="M1010.3,546.6c-10.5-31,6.2-64.7,37.2-75.2c0.6-0.2,1.1-0.3,1.6-0.5c-3.9-37.9,23.7-71.7,61.6-75.6
	c19.4-2,38.7,4.3,53.2,17.4c16.8-21.9,48.1-26.1,70.1-9.4c6.7,5.1,12,11.9,15.4,19.7c33.7-18.6,76.1-6.3,94.6,27.4
	c13.4,24.3,11.1,54.3-5.9,76.2c22.2,14.8,28.3,44.7,13.5,67c-13.1,19.7-38.6,27.1-60.2,17.3c-4.6,39.4-40.3,67.5-79.6,62.9
	c-21.7-2.5-41-14.8-52.5-33.3c-20.4,25.2-57.4,29.1-82.6,8.6c-18.6-15.1-26.2-39.9-19.2-62.8
	C1035.6,582.9,1017.4,567.6,1010.3,546.6z"/>
<path class="bcg-content0" d="M1363.6,2264.7c-10.5-31,6.2-64.7,37.2-75.2c0.6-0.2,1.1-0.3,1.6-0.5c-3.9-37.9,23.7-71.7,61.6-75.6
	c19.4-2,38.7,4.3,53.2,17.4c16.8-21.9,48.1-26.1,70.1-9.4c6.7,5.1,12,11.9,15.4,19.7c33.7-18.6,76.1-6.3,94.6,27.4
	c13.4,24.3,11.1,54.3-5.9,76.2c22.2,14.8,28.3,44.7,13.5,67c-13.1,19.7-38.6,27.1-60.2,17.3c-4.6,39.4-40.3,67.5-79.6,62.9
	c-21.7-2.5-41-14.8-52.5-33.3c-20.5,25.2-57.5,29-82.6,8.5c-18.5-15.1-26.1-39.8-19.1-62.6
	C1388.9,2301.1,1370.7,2285.7,1363.6,2264.7z"/>
<path class="bcg-content0" d="M3.1,1764.4c-10.5-31,6.2-64.7,37.2-75.2c0.5-0.2,1.1-0.3,1.6-0.5c-3.9-37.9,23.7-71.7,61.6-75.6
	c19.4-2,38.7,4.3,53.2,17.4c16.8-21.9,48.1-26.1,70.1-9.4c6.7,5.1,12,11.9,15.4,19.7c33.7-18.6,76.1-6.3,94.6,27.4
	c13.4,24.3,11.1,54.3-5.9,76.2c22.2,14.8,28.3,44.7,13.5,67c-13.1,19.7-38.6,27.1-60.2,17.3c-4.6,39.4-40.3,67.5-79.6,62.9
	c-21.7-2.5-41-14.8-52.5-33.3c-20.4,25.2-57.4,29.1-82.6,8.6c-18.6-15.1-26.2-39.9-19.2-62.8C28.5,1800.7,10.2,1785.4,3.1,1764.4z"
	/>
<path class="bcg-content0" d="M107.5,356.2C91,307.5,117.2,254.6,166,238.1c0.9-0.3,1.7-0.5,2.6-0.8c-6.1-59.5,37.1-112.6,96.6-118.7
	c30.5-3.1,60.8,6.8,83.6,27.3c26.3-34.4,75.6-41,110.1-14.7c10.5,8.1,18.9,18.7,24.2,30.8c52.9-29.1,119.4-9.8,148.5,43.1
	c21,38.2,17.3,85.1-9.3,119.6c34.9,23.1,44.5,70.2,21.4,105.1c-20.6,31.1-60.7,42.6-94.6,27.2c-7.3,61.8-63.2,106-125,98.7
	c-34-4-64.4-23.3-82.5-52.3c-32.1,39.5-90.1,45.5-129.7,13.4c-29.1-23.6-41-62.6-30-98.4C147.3,413.2,118.6,389.2,107.5,356.2z"/>
<path class="bcg-content0" d="M951,882c-16.3-20.7-12.7-50.7,8-67l0,0c0.4-0.3,0.7-0.5,1.1-0.8c-13.2-27.6-1.4-60.7,26.2-73.9
	c14.2-6.8,30.6-7.2,45.1-1.1c6.8-21.1,29.5-32.7,50.6-25.9c6.5,2.1,12.3,5.8,17,10.8c20.6-23.1,56-25.1,79.1-4.5
	c16.6,14.8,22.9,38.1,15.9,59.3c20.8,5.2,33.4,26.3,28.2,47.1c-4.6,18.5-22,30.8-40.9,29.2c7,31.1-12.4,62-43.5,69
	c-17.1,3.9-35-0.2-48.7-11.1c-8.8,24.6-35.8,37.4-60.3,28.6c-18.1-6.4-30.4-23.2-31.3-42.3C980,902.7,962,896,951,882z"/>
<path class="bcg-content0" d="M671.9,128.6c-5.8-12.6-0.2-27.5,12.4-33.2l0.7-0.3c-3.3-15.7,6.8-31.2,22.5-34.5c8.1-1.7,16.5,0.1,23.2,5
	c6.1-10,19.1-13.1,29.1-7c3,1.9,5.6,4.5,7.3,7.6c13.3-9.3,31.7-6,41,7.4c6.7,9.6,7,22.3,0.8,32.3c10,5.2,13.9,17.5,8.7,27.5
	c-4.6,8.9-15.1,13.1-24.6,9.9c-0.2,16.7-14,30.1-30.7,29.9c-9.2-0.1-17.9-4.4-23.5-11.7c-7.5,11.5-22.9,14.7-34.3,7.2
	c-8.5-5.5-12.7-15.6-10.8-25.5C684.1,142.7,675.8,137.1,671.9,128.6z"/>
<path class="bcg-content0" d="M486.2,898.4c-9.3-20.4-0.4-44.4,20-53.8c0.4-0.2,0.7-0.3,1.1-0.5c-5.3-25.5,11-50.4,36.5-55.8
	c13.1-2.7,26.7,0.2,37.5,8.1c9.9-16.1,30.9-21.2,47-11.3c4.9,3,9,7.2,11.9,12.2c21.6-15,51.3-9.6,66.3,12
	c10.8,15.6,11.3,36.1,1.3,52.2c16.2,8.3,22.6,28.2,14.3,44.4c-7.5,14.6-24.5,21.4-40,16.1c-0.3,27.1-22.4,48.8-49.5,48.5
	c-15-0.2-29.1-7.2-38.3-19c-12.1,18.6-37,23.8-55.5,11.7c-13.7-8.9-20.6-25.3-17.5-41.3C506,921.3,492.5,912.2,486.2,898.4z"/>
<path class="bcg-content0" d="M1206,1996.1c10,35.4-10.5,72.2-45.9,82.2c-0.6,0.2-1.2,0.3-1.9,0.5c2.3,42.7-30.5,79.1-73.1,81.3
	c-21.9,1.2-43.2-7-58.7-22.4c-20,23.7-55.4,26.6-79.1,6.6c-7.2-6.1-12.8-14-16.2-22.8c-38.8,18.9-85.6,2.7-104.4-36.1
	c-13.6-27.9-9.3-61.2,10.8-84.9c-24.1-17.7-29.3-51.7-11.5-75.8c15.8-21.4,44.8-28.2,68.4-16.1c7.4-43.8,48.9-73.4,92.7-66.1
	c24.1,4.1,45.1,18.9,57,40.3c24.3-27.1,66-29.3,93-5c19.9,17.9,27,46.1,18,71.3C1179.6,1954,1199.2,1972.2,1206,1996.1z"/>
<path class="bcg-content0" d="M635.1,2276.6c20.3,70.9-21.1,144.8-92,164.8l0,0c-1.4,0.3-2.5,0.5-3.8,1.1c4.7,85.7-61.1,158.8-146.8,163.2
	c-43.8,2.5-86.8-14-118-45.2c-40.2,47.4-111.2,53.4-158.8,13.1c-14.5-12.3-25.7-28.2-32.6-45.7c-77.8,37.8-171.7,5.5-209.7-72.3
	c-27.4-56.1-18.6-122.9,21.9-170.6c-48.2-35.6-58.6-103.8-23-152c31.8-42.7,89.5-56.4,137.2-32.3c14.8-87.9,98-147.3,186.2-132.5
	c48.5,8.2,90.6,37.8,114.5,80.8c48.7-54.2,132.2-58.9,186.7-10.1c40,35.9,54.2,92.5,36.1,143.2
	C582.3,2192,621.7,2228.4,635.1,2276.6z"/>
<path class="bcg-content0" d="M-173.2,1285.8c-23.5-51.5-1-112.1,50.5-135.9c1-0.5,1.8-0.8,2.8-1.3c-13.4-64.4,27.8-127.3,92.2-140.9
	c33.1-6.8,67.4,0.5,94.7,20.5c25-40.7,78-53.5,118.7-28.5c12.4,7.6,22.7,18.2,30.1,30.8c54.5-37.9,129.6-24.2,167.4,30.3
	c27.3,39.4,28.5,91.2,3.3,131.8c40.9,21,57.1,71.2,36.1,112.1c-18.9,36.9-61.9,54-101,40.7c-0.8,68.4-56.6,123.2-125,122.5
	c-37.9-0.5-73.5-18.2-96.7-48c-30.6,47-93.4,60.1-140.2,29.5c-34.6-22.5-52-63.9-44.2-104.3
	C-123.2,1343.6-157.3,1320.6-173.2,1285.8z"/>
<path class="bcg-content0" d="M966.5,2345.5c-9.3-20.4-0.4-44.4,20-53.8c0.4-0.2,0.7-0.3,1.1-0.5c-5.3-25.5,11-50.4,36.5-55.8
	c13.1-2.7,26.7,0.2,37.5,8.1c9.9-16.1,30.9-21.2,47-11.3c4.9,3,9,7.2,11.9,12.2c21.6-15,51.3-9.6,66.3,12
	c10.8,15.6,11.3,36.1,1.3,52.2c16.2,8.3,22.6,28.2,14.3,44.4c-7.5,14.6-24.5,21.4-40,16.1c-0.3,27.1-22.4,48.8-49.5,48.5
	c-15-0.2-29.1-7.2-38.3-19c-12.1,18.6-37,23.8-55.5,11.7c-13.7-8.9-20.6-25.3-17.5-41.3C986.2,2368.4,972.8,2359.3,966.5,2345.5z"/>
<path class="bcg-content0" d="M622.8,2103c-5.4-11.9-0.2-25.9,11.6-31.3l0,0l0.6-0.3c-3.1-14.8,6.4-29.4,21.3-32.5c7.6-1.6,15.5,0.1,21.7,4.7
	c5.7-9.4,18-12.3,27.4-6.6c2.9,1.8,5.3,4.2,6.9,7.1c12.6-8.7,29.9-5.6,38.6,7c6.3,9.1,6.6,21,0.8,30.4c9.4,4.9,13,16.5,8.1,26
	c-4.4,8.4-14.2,12.3-23.1,9.3c-0.2,15.8-13.2,28.4-28.9,28.2c-8.7-0.1-16.9-4.2-22.2-11c-7.1,10.8-21.5,13.9-32.3,6.8
	c-8-5.2-12-14.7-10.2-24C634.3,2116.3,626.5,2111,622.8,2103z"/>
<text transform="matrix(1 0 0 1 303.8968 387.0118)" class="bcg-content1 bcg-content2 bcg-content3">:-)</text>
<g>
	<path class="bcg-content0" d="M1600.6,1373.4c19.2,67.7-20.1,138.2-87.8,157.4l0,0c-1.2,0.3-2.4,0.6-3.6,0.9c4.4,81.7-58.3,151.4-140,155.7
		c-41.9,2.2-82.7-13.4-112.4-43c-38.3,45.3-106.1,51-151.4,12.7c-13.9-11.7-24.5-26.8-31-43.7c-74.3,36.2-163.8,5.3-200-69
		c-26.1-53.5-17.9-117.5,20.8-162.7c-46.2-34-56-98.9-22.1-145.1c30.2-41.1,85.8-54.1,131.1-30.7c14.1-83.9,93.6-140.6,177.5-126.5
		c46.2,7.8,86.3,36.1,109.1,77c46.5-51.8,126.3-56.1,178.1-9.6c38.1,34.3,51.8,88.2,34.4,136.5
		C1550.1,1292.7,1587.6,1327.5,1600.6,1373.4z"/>
	<path class="bcg-content4" d="M1366,1118.1c-2.3,0-4.6-0.6-6.7-1.7l-31-17c-6.8-3.7-9.3-12.2-5.6-19l21.5-39.3c3.7-6.8,12.2-9.3,19-5.6
		l31,17c6.8,3.7,9.3,12.2,5.6,19l-21.5,39.3C1375.8,1115.4,1371.1,1118.2,1366,1118.1L1366,1118.1z"/>
	<path class="bcg-content5" d="M1356.6,1035.8c2,0,4,0.5,5.7,1.5l31,17c5.8,3.2,7.9,10.5,4.8,16.3l0,0l-21.5,39.3c-2.1,3.9-6.2,6.2-10.6,6.2
		c-2,0-4-0.5-5.7-1.5l-31-17c-5.8-3.2-7.9-10.5-4.8-16.3l0,0l21.5-39.3C1348.1,1038.2,1352.2,1035.8,1356.6,1035.8 M1356.6,1031.8
		c-5.9,0-11.3,3.2-14.1,8.3l-21.5,39.3c-4.2,7.8-1.4,17.5,6.3,21.7l0,0l31,17c7.8,4.2,17.5,1.4,21.7-6.3l0,0l21.5-39.3
		c4.2-7.8,1.4-17.5-6.3-21.7l0,0l-31-17C1361.9,1032.5,1359.2,1031.8,1356.6,1031.8L1356.6,1031.8z"/>

		<rect x="1203.3" y="1139.6" transform="matrix(0.4802 -0.8771 0.8771 0.4802 -347.2244 1756.5918)" class="bcg-content6" width="210.5" height="63.4"/>
	<path class="bcg-content5" d="M1332.4,1066.8l52.1,28.5l-99.2,181.1l-52.1-28.5L1332.4,1066.8 M1330.9,1061.4l-1.9,3.5l-99.2,181.1l-1.9,3.5
		l3.5,1.9l52.1,28.5l3.5,1.9l1.9-3.5l99.2-181.1l1.9-3.5l-3.5-1.9l-52.1-28.5L1330.9,1061.4z"/>

		<rect x="1328.9" y="1072.1" transform="matrix(0.4802 -0.8771 0.8771 0.4802 -266.6112 1754.1127)" class="bcg-content7" width="35.7" height="59.8"/>
	<path class="bcg-content8" d="M1229.7,1317.7c-1.1,0-2-0.9-2-2c0,0,0,0,0-0.1l1.9-65.2c0-1.1,0.9-2,2-2c0.3,0,0.7,0.1,1,0.3l52.1,28.5
		c1,0.5,1.3,1.7,0.8,2.7c-0.2,0.3-0.4,0.5-0.6,0.7l-54,36.7C1230.5,1317.6,1230.1,1317.7,1229.7,1317.7z"/>
	<path class="bcg-content5" d="M1231.6,1250.5l52.1,28.5l-54,36.7L1231.6,1250.5 M1231.6,1246.5c-2.2,0-3.9,1.7-4,3.9l-1.9,65.2
		c-0.1,2.2,1.7,4,3.9,4.1c0.8,0,1.7-0.2,2.4-0.7l54-36.7c1.8-1.2,2.3-3.7,1.1-5.6c-0.4-0.5-0.8-1-1.4-1.3l-52.1-28.5
		C1232.9,1246.7,1232.3,1246.5,1231.6,1246.5L1231.6,1246.5z"/>
	<polygon class="bcg-content9" points="1230,1298.2 1244.7,1306.3 1229.7,1316.5 	"/>
	<path class="bcg-content9" d="M1390.2,1099.5l-0.5,0.9c-0.9,1.7-3.1,2.3-4.8,1.4l-57.9-31.7c-1.7-0.9-2.3-3.1-1.4-4.8l0.5-0.9
		c0.9-1.7,3.1-2.3,4.8-1.4l57.9,31.7C1390.5,1095.7,1391.1,1097.8,1390.2,1099.5z"/>
	<path class="bcg-content9" d="M1368.9,1138.3l-0.5,0.9c-0.9,1.7-3.1,2.3-4.8,1.4l-57.9-31.7c-1.7-0.9-2.3-3.1-1.4-4.8l0.5-0.9
		c0.9-1.7,3.1-2.3,4.8-1.4l57.9,31.7C1369.2,1134.5,1369.9,1136.6,1368.9,1138.3z"/>

		<rect x="1203.5" y="1184.3" transform="matrix(0.4802 -0.8771 0.8771 0.4802 -373.8099 1741.1243)" class="bcg-content5" width="157.4" height="3.4"/>

		<rect x="1231.2" y="1199.5" transform="matrix(0.4802 -0.8771 0.8771 0.4802 -372.7537 1773.2996)" class="bcg-content5" width="157.4" height="3.4"/>
</g>
<path class="bcg-content10" d="M1165.8,335.8c-15.6,0-30.3-7.1-40.1-19.2c-15.2,17.8-42,19.9-59.8,4.7c-11.4-9.8-16.9-24.9-14.2-39.7
	c-23.3-3.8-39.2-25.9-35.3-49.2c2.4-14.6,12.1-26.9,25.7-32.6c-3.1-27.1,16.4-51.6,43.5-54.7c1.8-0.2,3.7-0.3,5.5-0.3
	c10.4,0,20.6,3.3,29,9.4c12.6-15.8,35.5-18.4,51.3-5.8c3.4,2.7,6.3,6.1,8.6,9.8c24.1-13.3,54.4-4.5,67.7,19.7
	c8.6,15.7,8.2,34.9-1.3,50.2c16,11.1,20,33.2,8.9,49.2c-8.6,12.4-24.2,18-38.8,13.8c-2.4,18.5-14.6,34.2-31.9,41.2
	C1178.7,334.6,1172.3,335.8,1165.8,335.8z"/>
<path class="bcg-content5" d="M1148.8,142.9c12.8,0,24.6,7.2,30.3,18.7c22.2-13.8,51.4-7,65.2,15.3c9.9,16,9.4,36.4-1.3,51.9
	c15.6,9.2,20.9,29.3,11.7,44.9c-8.2,14-25.3,19.9-40.3,14c-1.7,26.9-24.9,47.3-51.8,45.6c-14.8-0.9-28.4-8.6-36.9-20.7
	c-13,17.8-37.9,21.7-55.8,8.7c-13.1-9.5-19.1-26.1-15.2-41.8c-22.2-2.2-38.4-21.9-36.2-44c1.5-15,11.2-28,25.2-33.6
	c0.4-0.1,0.7-0.3,1.1-0.4c-4-25.6,13.4-49.5,39-53.6c13.1-2.1,26.5,1.5,36.8,9.9C1127.1,148.5,1137.6,142.9,1148.8,142.9
	 M1148.8,137.9c-11.1,0-21.6,4.7-29,12.9c-8.5-5.6-18.4-8.6-28.6-8.6c-18.7,0-36,10.1-45.2,26.4c-5,9-7.3,19.2-6.5,29.5
	c-22.7,10.6-32.4,37.6-21.8,60.3c6,12.7,17.5,22,31.2,25c-3,24.6,14.5,47,39.1,50c13.9,1.7,27.8-3.2,37.6-13.2
	c19.8,22.1,53.8,24,75.9,4.2c8.9-8,14.9-18.7,17.1-30.5c20.5,4.3,40.5-8.9,44.8-29.4c2.9-14-2.4-28.5-13.6-37.4
	c14.1-25.2,5.1-57.1-20.1-71.2c-13.8-7.7-30.3-8.8-44.9-2.9c-1.3,0.5-2.5,1.1-3.8,1.7C1173.7,144.2,1161.7,137.8,1148.8,137.9
	L1148.8,137.9z"/>
<path class="bcg-content10" d="M1093.8,290.1c0,0,31.8,32.7-3.1,67.5c0,0,46.8-9.2,58-45.6"/>
<path class="bcg-content5" d="M1093.8,290.1c1.2,1,2.3,2.2,3.3,3.3c1.1,1.2,2,2.5,3,3.7c0.9,1.3,1.8,2.6,2.6,4c0.8,1.4,1.6,2.8,2.3,4.3
	s1.3,3,1.8,4.5s1,3.1,1.4,4.7s0.7,3.2,0.8,4.9l0.1,1.2l0.1,1.2c0,0.8,0.1,1.7,0.1,2.5s0,1.7-0.1,2.5l-0.2,2.5
	c-0.2,1.7-0.6,3.3-1,4.9s-0.9,3.2-1.5,4.8c-0.3,0.8-0.6,1.5-1,2.3l-0.5,1.1l-0.6,1.1l-1.1,2.2l-1.3,2.1c-0.8,1.4-1.9,2.7-2.8,4.1
	s-2.1,2.5-3.1,3.8s-2.2,2.4-3.3,3.6l-2.7-5c1.4-0.3,3-0.7,4.4-1.1s3-0.9,4.5-1.4c3-1,5.9-2.1,8.8-3.3c1.4-0.6,2.9-1.2,4.3-1.9l2.1-1
	l2.1-1.1c1.4-0.7,2.8-1.5,4.1-2.3s2.7-1.6,4-2.5l1.9-1.3l1.9-1.4c0.6-0.5,1.2-1,1.8-1.4s1.2-1,1.8-1.5l1.8-1.5l1.7-1.6
	c0.6-0.5,1.1-1.1,1.6-1.7s1.1-1.1,1.6-1.7l1.6-1.8l1.4-1.9c0.5-0.6,0.9-1.3,1.4-1.9s0.9-1.3,1.3-2l1.2-2c0.4-0.7,0.7-1.4,1.1-2.1
	c0.8-1.4,1.4-2.9,2.1-4.4l-0.6,2.4l-0.3,1.2l-0.4,1.2c-0.3,0.8-0.5,1.5-0.8,2.3l-0.9,2.3c-0.3,0.8-0.6,1.5-1,2.2s-0.7,1.5-1.2,2.2
	l-1.2,2.1l-1.4,2.1c-0.4,0.7-1,1.3-1.5,2s-1,1.3-1.5,1.9l-1.6,1.9l-1.7,1.8c-0.6,0.6-1.2,1.2-1.8,1.7s-1.2,1.1-1.8,1.7l-1.9,1.6
	l-1.9,1.5c-1.3,1-2.7,2-4,2.9s-2.8,1.8-4.2,2.6l-2.2,1.2l-2.2,1.2c-1.5,0.8-2.9,1.5-4.4,2.2c-3,1.4-6.1,2.6-9.2,3.7
	c-1.6,0.5-3.1,1-4.7,1.5s-3.2,0.9-4.9,1.2l-9.2,1.8l6.6-6.9c1-1.1,2.1-2.2,3.1-3.3s2-2.3,2.9-3.5s1.8-2.4,2.6-3.6l1.2-1.9l1.1-1.9
	l0.6-1l0.5-1c0.3-0.7,0.7-1.3,0.9-2c0.6-1.4,1.1-2.8,1.5-4.2c0.5-1.4,0.7-2.9,1.1-4.3l0.4-2.2c0.1-0.7,0.2-1.5,0.2-2.2
	s0.1-1.5,0.1-2.2v-1.1v-1.1c0-0.8,0-1.5-0.1-2.2s-0.1-1.5-0.2-2.2c-0.2-1.5-0.5-3-0.8-4.5c-0.2-0.7-0.4-1.5-0.6-2.2l-0.7-2.2
	c-0.5-1.5-1-2.9-1.6-4.3s-1.3-2.8-2-4.2s-1.5-2.8-2.3-4.1S1094.8,291.4,1093.8,290.1z"/>
<path class="bcg-content10" d="M258.9,843.9c-19.4,0-36.3-13.3-40.9-32.2c-15.1,5.7-31.8-2-37.5-17c-2.2-5.9-2.5-12.3-0.7-18.3
	c1.5-5.4,4.6-10.2,8.8-13.8c-13.5-18.1-9.8-43.7,8.3-57.2c11.6-8.7,26.9-10.5,40.2-5c6.4-13.1,21.3-19.7,35.3-15.6
	c4.9,1.4,9.3,4,12.9,7.6c10.4-9,24.6-12.1,37.8-8.3c17.5,5,29.5,21,29.3,39.2c18.5,5.9,28.7,25.7,22.8,44.2
	c-3.6,11.3-12.6,19.9-24,23.1c1.6,6.1,1.6,12.6-0.2,18.6c-4.3,14.9-18,25.1-33.5,25.2l0,0c-8.8,0-17.3-3.3-23.7-9.3
	C286,836.8,272.9,843.8,258.9,843.9z"/>
<path class="bcg-content5" d="M311.9,685c21,0,38,17,38,38c0,0.7,0,1.5-0.1,2.2l0.9,0.2c17.3,5,27.3,23.1,22.3,40.5c-3.4,11.7-13,20.6-25,23
	c6,16.8-2.9,35.3-19.7,41.3c-12.4,4.4-26.2,0.8-35-9c-10.7,19-34.8,25.8-53.8,15.1c-10.5-5.9-17.7-16.2-19.6-28.1
	c-13.1,6.7-29.1,1.4-35.8-11.7c-5.9-11.7-2.5-25.9,8.1-33.6c-13.7-16.2-11.7-40.4,4.4-54.1c11.7-9.9,28.1-11.9,41.8-5.1
	c5.5-14.2,21.5-21.2,35.7-15.7c4.3,1.7,8.1,4.4,11.1,7.9C292.3,688.9,301.9,685,311.9,685 M311.9,679.9c-9.6,0-18.9,3.2-26.4,9.1
	c-13.6-11.8-34.1-10.4-45.9,3.2c-1.4,1.6-2.6,3.2-3.6,5c-0.8-0.3-1.7-0.6-2.5-0.8c-23-6.6-47.1,6.6-53.7,29.7
	c-3.5,12.3-1.5,25.5,5.6,36.1c-3.7,3.8-6.4,8.4-7.9,13.5c-4.9,16.8,4.8,34.3,21.6,39.1c5.7,1.6,11.7,1.7,17.3,0.1
	c7.2,23.5,32.1,36.7,55.6,29.5c8.9-2.7,16.7-8.1,22.3-15.5c16.1,12.9,39.6,10.2,52.5-5.9c6.8-8.6,9.6-19.8,7.4-30.5
	c19.6-6.9,30-28.4,23-48.1c-3.7-10.5-11.9-18.9-22.4-22.8C354.1,698.3,335.1,680,311.9,679.9L311.9,679.9z"/>
<path class="bcg-content10" d="M317.4,800.6c0,0-23.1,28.9,7.8,54.2c0,0-38.5-3.8-50.4-32.2"/>
<path class="bcg-content5" d="M317.4,800.6c-0.7,1.1-1.2,2.2-1.8,3.4c-0.5,1.2-1,2.3-1.5,3.5c-0.4,1.2-0.9,2.4-1.2,3.6s-0.7,2.4-0.9,3.6
	s-0.5,2.4-0.6,3.6s-0.2,2.4-0.3,3.6c0,1.2,0,2.4,0.1,3.6c0,0.6,0.1,1.2,0.2,1.8s0.1,1.2,0.3,1.8s0.2,1.2,0.4,1.7l0.5,1.7
	c0.4,1.1,0.8,2.2,1.2,3.3c0.4,1.1,1,2.1,1.5,3.2c0.3,0.5,0.6,1,0.9,1.5l0.5,0.8l0.5,0.7l1,1.5l1.1,1.4c0.7,1,1.6,1.8,2.4,2.7
	s1.7,1.7,2.6,2.5l2.9,2.3l7.2,6.3l-9.4-1c-1.5-0.2-2.8-0.4-4.1-0.6s-2.6-0.5-4-0.8c-2.6-0.6-5.2-1.4-7.8-2.3
	c-1.3-0.4-2.5-0.9-3.8-1.4l-1.9-0.8l-1.8-0.8c-1.2-0.6-2.4-1.2-3.6-1.8s-2.4-1.3-3.5-2l-1.7-1.1l-1.6-1.1c-0.5-0.4-1.1-0.8-1.6-1.2
	s-1.1-0.8-1.6-1.3l-1.5-1.3l-1.5-1.4c-0.5-0.5-0.9-1-1.4-1.5s-0.9-1-1.3-1.5l-1.2-1.6l-1.2-1.7c-0.4-0.5-0.7-1.1-1.1-1.7
	c-0.4-0.6-0.7-1.1-1-1.7l-0.9-1.8c-0.3-0.6-0.5-1.2-0.8-1.8s-0.5-1.2-0.7-1.9c-0.2-0.6-0.4-1.3-0.6-1.9c0.7,1.1,1.3,2.3,2.1,3.3
	c0.4,0.5,0.7,1.1,1.1,1.6l1.2,1.5c0.4,0.5,0.8,1,1.2,1.5s0.8,1,1.3,1.4l1.3,1.4l1.4,1.3c0.5,0.4,0.9,0.8,1.4,1.2s1,0.8,1.5,1.2
	l1.5,1.2l1.5,1.1c1,0.7,2.1,1.4,3.2,2s2.2,1.2,3.3,1.8s2.2,1.1,3.4,1.6s2.3,1,3.5,1.5s2.4,0.9,3.5,1.3s2.4,0.8,3.6,1.2
	c2.4,0.7,4.9,1.4,7.3,1.9c1.2,0.3,2.5,0.5,3.7,0.7s2.5,0.4,3.6,0.5l-2.2,5.3c-1-0.9-2-1.8-3-2.7s-1.9-1.9-2.8-2.9s-1.8-2-2.6-3.1
	l-1.2-1.6l-1.1-1.7l-0.5-0.9l-0.5-0.9c-0.3-0.6-0.7-1.2-1-1.8c-0.6-1.2-1.1-2.5-1.6-3.8s-0.9-2.6-1.2-4l-0.4-2
	c-0.1-0.7-0.2-1.4-0.3-2c-0.1-0.7-0.1-1.3-0.1-2s0-1.3,0-2c0-1.3,0.1-2.7,0.3-4c0.2-1.3,0.4-2.6,0.8-4c0.3-1.3,0.7-2.6,1.2-3.8
	s1-2.5,1.6-3.6c0.6-1.2,1.2-2.3,1.9-3.5c0.7-1.1,1.4-2.2,2.2-3.2C315.7,802.6,316.5,801.6,317.4,800.6z"/>
<ellipse transform="matrix(0.9587 -0.2844 0.2844 0.9587 -201.5551 117.4586)" class="bcg-content5" cx="303.7" cy="752.8" rx="6.5" ry="6.5"/>
<ellipse transform="matrix(0.9587 -0.2844 0.2844 0.9587 -204.508 111.121)" class="bcg-content5" cx="280.4" cy="759.8" rx="6.5" ry="6.5"/>
<ellipse transform="matrix(0.9587 -0.2844 0.2844 0.9587 -207.4037 104.7758)" class="bcg-content5" cx="257.1" cy="766.6" rx="6.5" ry="6.5"/>
<text transform="matrix(1 0 0 1 1098.7467 262.7311)" class="bcg-content5 bcg-content2 bcg-content11">:-)</text>
</svg>
