<?xml version="1.0" encoding="utf-8"?>
<svg version="1.1" id="Warbcg-ios-mobilewa_1" xmlns="http://www.w3.org/2000/svg" xmlns:xlink="http://www.w3.org/1999/xlink"
	 x="0px" y="0px" viewBox="0 0 323.1 3931.1" style="enable-background:new 0 0 323.1 3931.1;" xml:space="preserve">
<style type="text/css">
	.bcg-content-mobile0{fill:#1E2333;}
	.bcg-content-mobile1{fill:#29334C;}
	.bcg-content-mobile2{font-family:'MyriadPro-Regular';}
	.bcg-content-mobile3{font-size:194.05px;}
	.bcg-content-mobile4{fill:#DA6346;}
	.bcg-content-mobile5{fill:#2B304B;}
	.bcg-content-mobile6{fill:#E9B258;}
	.bcg-content-mobile7{fill:#9FA4B7;}
	.bcg-content-mobile8{fill:#DEDEE0;}
	.bcg-content-mobile9{fill:#73CEDD;}
</style>
<path class="bcg-content-mobile0" d="M88.4,843.2c-10.5-31,6.2-64.7,37.2-75.2c0.6-0.2,1.1-0.3,1.6-0.5c-3.9-37.9,23.7-71.7,61.6-75.6
	c19.4-2,38.7,4.3,53.2,17.4c16.8-21.9,48.1-26.1,70.1-9.4c6.7,5.1,12,11.9,15.4,19.7c33.7-18.6,76.1-6.3,94.6,27.4
	c13.4,24.3,11.1,54.3-5.9,76.2c22.2,14.8,28.3,44.7,13.5,67c-13.1,19.7-38.6,27.1-60.2,17.3c-4.6,39.4-40.3,67.5-79.6,62.9
	c-21.7-2.5-41-14.8-52.5-33.3c-20.4,25.2-57.4,29.1-82.6,8.6c-18.6-15.1-26.2-39.9-19.2-62.8C113.7,879.5,95.5,864.2,88.4,843.2z"/>
<path class="bcg-content-mobile0" d="M-139.1,2647.4c-10.5-31,6.2-64.7,37.2-75.2c0.6-0.2,1.1-0.3,1.6-0.5c-3.9-37.9,23.7-71.7,61.6-75.6
	c19.4-2,38.7,4.3,53.2,17.4c16.8-21.9,48.1-26.1,70.1-9.4c6.7,5.1,12,11.9,15.4,19.7c33.7-18.6,76.1-6.3,94.6,27.4
	c13.4,24.3,11.1,54.3-5.9,76.2c22.2,14.8,28.3,44.7,13.5,67c-13.1,19.7-38.6,27.1-60.2,17.3c-4.6,39.4-40.3,67.5-79.6,62.9
	c-21.7-2.5-41-14.8-52.5-33.3c-20.5,25.2-57.5,29-82.6,8.5c-18.5-15.1-26.1-39.8-19.1-62.6C-113.8,2683.8-132,2668.4-139.1,2647.4z"
	/>
<path class="bcg-content-mobile0" d="M-37.4,1238.4c-4.3-12.8,2.6-26.7,15.3-31c0.2-0.1,0.5-0.1,0.7-0.2c-1.6-15.6,9.8-29.6,25.4-31.2
	c8-0.8,16,1.8,21.9,7.2c6.9-9,19.8-10.8,28.9-3.9c2.8,2.1,5,4.9,6.4,8.1c13.9-7.7,31.4-2.6,39,11.3c5.5,10,4.6,22.4-2.4,31.4
	c9.2,6.1,11.7,18.4,5.6,27.6c-5.4,8.1-15.9,11.2-24.8,7.1c-1.9,16.3-16.6,27.8-32.8,25.9c-9-1-16.9-6.1-21.7-13.7
	c-8.4,10.4-23.7,12-34.1,3.5c-7.7-6.2-10.8-16.5-7.9-25.9C-26.9,1253.4-34.4,1247.1-37.4,1238.4z"/>
<path class="bcg-content-mobile0" d="M-40.6,1820.4c-16.5-48.7,9.7-101.6,58.5-118.1c0.9-0.3,1.7-0.5,2.6-0.8c-6.1-59.5,37.1-112.6,96.6-118.7
	c30.5-3.1,60.8,6.8,83.6,27.3c26.3-34.4,75.6-41,110.1-14.7c10.5,8.1,18.9,18.7,24.2,30.8c52.9-29.1,119.4-9.8,148.5,43.1
	c21,38.2,17.3,85.1-9.3,119.6c34.9,23.1,44.5,70.2,21.4,105.1c-20.6,31.1-60.7,42.6-94.6,27.2c-7.3,61.8-63.2,106-125,98.7
	c-34-4-64.4-23.3-82.5-52.3c-32.1,39.5-90.1,45.5-129.7,13.4c-29.1-23.6-41-62.6-30-98.4C-0.8,1877.4-29.5,1853.4-40.6,1820.4z"/>
<path class="bcg-content-mobile0" d="M-115.3,604.7c-16.3-20.7-12.7-50.7,8-67l0,0c0.4-0.3,0.7-0.5,1.1-0.8c-13.2-27.6-1.4-60.7,26.2-73.9
	c14.2-6.8,30.6-7.2,45.1-1.1c6.8-21.1,29.5-32.7,50.6-25.9c6.5,2.1,12.3,5.8,17,10.8c20.6-23.1,56-25.1,79.1-4.5
	c16.6,14.8,22.9,38.1,15.9,59.3c20.8,5.2,33.4,26.3,28.2,47.1c-4.6,18.5-22,30.8-40.9,29.2c7,31.1-12.4,62-43.5,69
	c-17.1,3.9-35-0.2-48.7-11.1C14,660.4-13,673.2-37.5,664.4c-18.1-6.4-30.4-23.2-31.3-42.3C-86.3,625.4-104.3,618.7-115.3,604.7z"/>
<path class="bcg-content-mobile0" d="M118.1,45.4c-5.8-12.6-0.2-27.5,12.4-33.2l0.7-0.3c-3.3-15.7,6.8-31.2,22.5-34.5c8.1-1.7,16.5,0.1,23.2,5
	c6.1-10,19.1-13.1,29.1-7c3,1.9,5.6,4.5,7.3,7.6c13.3-9.3,31.7-6,41,7.4c6.7,9.6,7,22.3,0.8,32.3c10,5.2,13.9,17.5,8.7,27.5
	c-4.6,8.9-15.1,13.1-24.6,9.9c-0.2,16.7-14,30.1-30.7,29.9c-9.2-0.1-17.9-4.4-23.5-11.7c-7.5,11.5-22.9,14.7-34.3,7.2
	C142.2,80,138,69.9,139.9,60C130.3,59.5,122,53.9,118.1,45.4z"/>
<path class="bcg-content-mobile0" d="M256.1,551.1c-3.8-8.4-0.2-18.3,8.3-22.2c0.2-0.1,0.3-0.1,0.5-0.2c-2.2-10.5,4.5-20.8,15.1-23
	c5.4-1.1,11,0.1,15.5,3.3c4.1-6.6,12.7-8.7,19.4-4.7c2,1.2,3.7,3,4.9,5c8.9-6.2,21.2-4,27.4,5c4.5,6.4,4.7,14.9,0.5,21.5
	c6.7,3.4,9.3,11.6,5.9,18.3c-3.1,6-10.1,8.8-16.5,6.6c-0.1,11.2-9.2,20.1-20.4,20c-6.2-0.1-12-3-15.8-7.8c-5,7.7-15.3,9.8-22.9,4.8
	c-5.7-3.7-8.5-10.4-7.2-17C264.3,560.5,258.7,556.7,256.1,551.1z"/>
<path class="bcg-content-mobile0" d="M67.1,355.3c-3.8-8.4-0.2-18.3,8.3-22.2c0.2-0.1,0.3-0.1,0.5-0.2c-2.2-10.5,4.5-20.8,15.1-23
	c5.4-1.1,11,0.1,15.5,3.3c4.1-6.6,12.7-8.7,19.4-4.7c2,1.2,3.7,3,4.9,5c8.9-6.2,21.2-4,27.4,5c4.5,6.4,4.7,14.9,0.5,21.5
	c6.7,3.4,9.3,11.6,5.9,18.3c-3.1,6-10.1,8.8-16.5,6.6c-0.1,11.2-9.2,20.1-20.4,20c-6.2-0.1-12-3-15.8-7.8c-5,7.7-15.3,9.8-22.9,4.8
	c-5.7-3.7-8.5-10.4-7.2-17C75.3,364.7,69.7,360.9,67.1,355.3z"/>
<path class="bcg-content-mobile0" d="M286.5,3357.6c10,35.4-10.5,72.2-45.9,82.2c-0.6,0.2-1.2,0.3-1.9,0.5c2.3,42.7-30.5,79.1-73.1,81.3
	c-21.9,1.2-43.2-7-58.7-22.4c-20,23.7-55.4,26.6-79.1,6.6c-7.2-6.1-12.8-14-16.2-22.8c-38.8,18.9-85.6,2.7-104.4-36.1
	c-13.6-27.9-9.3-61.2,10.8-84.9c-24.1-17.7-29.3-51.7-11.5-75.8c15.8-21.4,44.8-28.2,68.4-16.1c7.4-43.8,48.9-73.4,92.7-66.1
	c24.1,4.1,45.1,18.9,57,40.3c24.3-27.1,66-29.3,93-5c19.9,17.9,27,46.1,18,71.3C260.1,3315.5,279.7,3333.7,286.5,3357.6z"/>
<path class="bcg-content-mobile0" d="M544.2,3821.7c19.2,67.7-20.1,138.2-87.8,157.4l0,0c-1.2,0.3-2.4,0.6-3.6,0.9c4.4,81.7-58.3,151.4-140,155.7
	c-41.9,2.2-82.7-13.4-112.4-43c-38.3,45.3-106.1,51-151.4,12.7c-13.9-11.7-24.5-26.8-31-43.7c-74.3,36.2-163.8,5.3-200-69
	c-26.1-53.5-17.9-117.5,20.8-162.7c-46.2-34-56-98.9-22.1-145.1c30.2-41.1,85.8-54.1,131.1-30.7c14.1-83.9,93.6-140.6,177.5-126.5
	c46.2,7.8,86.3,36.1,109.1,77c46.5-51.8,126.3-56.1,178.1-9.6c38.1,34.3,51.8,88.2,34.4,136.5C493.7,3741,531.2,3775.8,544.2,3821.7
	z"/>
<path class="bcg-content-mobile0" d="M206.5,1403.1c3.1,10.7-3.2,21.8-13.9,24.8l0,0c-0.2,0-0.4,0.1-0.6,0.2c0.7,12.9-9.2,23.9-22.1,24.6
	c-6.6,0.4-13.1-2.1-17.8-6.8c-6.1,7.1-16.7,8-23.9,2c-2.2-1.9-3.9-4.2-4.9-6.9c-11.7,5.7-25.9,0.8-31.6-10.9
	c-4.1-8.5-2.8-18.5,3.3-25.7c-7.3-5.4-8.8-15.6-3.5-22.9c4.8-6.4,13.5-8.5,20.7-4.9c2.2-13.2,14.8-22.2,28.1-20
	c7.3,1.2,13.7,5.7,17.2,12.2c7.3-8.2,19.9-8.9,28.1-1.5c6,5.4,8.2,13.9,5.4,21.6C198.6,1390.3,204.5,1395.8,206.5,1403.1z"/>
<path class="bcg-content-mobile0" d="M74,1070.5c-3.8-8.4-0.2-18.3,8.3-22.2c0.2-0.1,0.3-0.1,0.5-0.2c-2.2-10.5,4.5-20.8,15.1-23
	c5.4-1.1,11,0.1,15.5,3.3c4.1-6.6,12.7-8.7,19.4-4.7c2,1.2,3.7,3,4.9,5c8.9-6.2,21.2-4,27.4,5c4.5,6.4,4.7,14.9,0.5,21.5
	c6.7,3.4,9.3,11.6,5.9,18.3c-3.1,6-10.1,8.8-16.5,6.6c-0.1,11.2-9.2,20.1-20.4,20c-6.2-0.1-12-3-15.8-7.8c-5,7.7-15.3,9.8-22.9,4.8
	c-5.7-3.7-8.5-10.4-7.2-17C82.1,1079.9,76.6,1076.1,74,1070.5z"/>
<path class="bcg-content-mobile0" d="M184.3,3321.2c-9.3-20.4-0.4-44.4,20-53.8c0.4-0.2,0.7-0.3,1.1-0.5c-5.3-25.5,11-50.4,36.5-55.8
	c13.1-2.7,26.7,0.2,37.5,8.1c9.9-16.1,30.9-21.2,47-11.3c4.9,3,9,7.2,11.9,12.2c21.6-15,51.3-9.6,66.3,12
	c10.8,15.6,11.3,36.1,1.3,52.2c16.2,8.3,22.6,28.2,14.3,44.4c-7.5,14.6-24.5,21.4-40,16.1c-0.3,27.1-22.4,48.8-49.5,48.5
	c-15-0.2-29.1-7.2-38.3-19c-12.1,18.6-37,23.8-55.5,11.7c-13.7-8.9-20.6-25.3-17.5-41.3C204,3344.1,190.6,3335,184.3,3321.2z"/>
<path class="bcg-content-mobile0" d="M-68.3,3054.2c-9.3-20.4-0.4-44.4,20-53.8c0.4-0.2,0.7-0.3,1.1-0.5c-5.3-25.5,11-50.4,36.5-55.8
	c13.1-2.7,26.7,0.2,37.5,8.1c9.9-16.1,30.9-21.2,47-11.3c4.9,3,9,7.2,11.9,12.2c21.6-15,51.3-9.6,66.3,12
	c10.8,15.6,11.3,36.1,1.3,52.2c16.2,8.3,22.6,28.2,14.3,44.4c-7.5,14.6-24.5,21.4-40,16.1c-0.3,27.1-22.4,48.8-49.5,48.5
	c-15-0.2-29.1-7.2-38.3-19c-12.1,18.6-37,23.8-55.5,11.7c-13.7-8.9-20.6-25.3-17.5-41.3C-48.5,3077.1-62,3068-68.3,3054.2z"/>
<path class="bcg-content-mobile0" d="M51.8,2270c-5.4-11.9-0.2-25.9,11.6-31.3l0,0l0.6-0.3c-3.1-14.8,6.4-29.4,21.3-32.5c7.6-1.6,15.5,0.1,21.7,4.7
	c5.7-9.4,18-12.3,27.4-6.6c2.9,1.8,5.3,4.2,6.9,7.1c12.6-8.7,29.9-5.6,38.6,7c6.3,9.1,6.6,21,0.8,30.4c9.4,4.9,13,16.5,8.1,26
	c-4.4,8.4-14.2,12.3-23.1,9.3c-0.2,15.8-13.2,28.4-28.9,28.2c-8.7-0.1-16.9-4.2-22.2-11c-7.1,10.8-21.5,13.9-32.3,6.8
	c-8-5.2-12-14.7-10.2-24C63.3,2283.3,55.5,2278,51.8,2270z"/>
<path class="bcg-content-mobile0" d="M234.9,2873.1c-5.4-11.9-0.2-25.9,11.6-31.3l0,0l0.6-0.3c-3.1-14.8,6.4-29.4,21.3-32.5
	c7.6-1.6,15.5,0.1,21.7,4.7c5.7-9.4,18-12.3,27.4-6.6c2.9,1.8,5.3,4.2,6.9,7.1c12.6-8.7,29.9-5.6,38.6,7c6.3,9.1,6.6,21,0.8,30.4
	c9.4,4.9,13,16.5,8.1,26c-4.4,8.4-14.2,12.3-23.1,9.3c-0.2,15.8-13.2,28.4-28.9,28.2c-8.7-0.1-16.9-4.2-22.2-11
	c-7.1,10.8-21.5,13.9-32.3,6.8c-8-5.2-12-14.7-10.2-24C246.4,2886.4,238.6,2881.1,234.9,2873.1z"/>
<text transform="matrix(1 0 0 1 155.8391 1851.252)" class="bcg-content-mobile1 bcg-content-mobile2 bcg-content-mobile3">:-)</text>
<g>
	<path class="bcg-content-mobile4" d="M280.1,3779c-1.4,0-2.9-0.4-4.2-1.1l-19.3-10.6c-4.2-2.3-5.8-7.6-3.5-11.8l13.4-24.5c2.3-4.2,7.6-5.8,11.8-3.5
		l19.3,10.6c4.2,2.3,5.8,7.6,3.5,11.8l-13.4,24.5C286.2,3777.3,283.2,3779,280.1,3779z"/>
	<path class="bcg-content-mobile5" d="M274.2,3727.7c1.2,0,2.5,0.3,3.6,0.9l19.3,10.6c3.6,2,4.9,6.5,3,10.2l-13.4,24.5c-1.3,2.4-3.9,3.9-6.6,3.9
		c-1.2,0-2.5-0.3-3.6-0.9l-19.3-10.6c-3.6-2-4.9-6.5-3-10.2l13.4-24.5C268.9,3729.2,271.5,3727.7,274.2,3727.7 M274.2,3725.2
		c-3.7,0-7,2-8.8,5.2l-13.4,24.5c-2.6,4.9-0.9,10.9,3.9,13.5l19.3,10.6c4.9,2.6,10.9,0.9,13.5-3.9l13.4-24.5
		c2.6-4.9,0.9-10.9-3.9-13.5l-19.3-10.6C277.5,3725.7,275.8,3725.2,274.2,3725.2z"/>

		<rect x="178.5" y="3792.2" transform="matrix(0.4802 -0.8771 0.8771 0.4802 -3216.8018 2195.4622)" class="bcg-content-mobile6" width="131.1" height="39.5"/>
	<path class="bcg-content-mobile5" d="M259.1,3747l32.5,17.8l-61.8,112.8l-32.5-17.8L259.1,3747 M258.2,3743.7l-1.2,2.2l-61.8,112.8l-1.2,2.2
		l2.2,1.2l32.5,17.8l2.2,1.2l1.2-2.2l61.8-112.8l1.2-2.2l-2.2-1.2l-32.5-17.8L258.2,3743.7z"/>

		<rect x="256.7" y="3750.2" transform="matrix(0.4802 -0.8771 0.8771 0.4802 -3166.561 2193.854)" class="bcg-content-mobile7" width="22.2" height="37.2"/>
	<path class="bcg-content-mobile8" d="M195.2,3903.3c-0.7,0-1.2-0.6-1.2-1.2c0,0,0,0,0-0.1l1.2-40.6c0-0.7,0.6-1.2,1.2-1.2c0.2,0,0.4,0.1,0.6,0.2
		l32.5,17.8c0.6,0.3,0.8,1.1,0.5,1.7c-0.1,0.2-0.2,0.3-0.4,0.4l-33.6,22.9C195.7,3903.3,195.4,3903.3,195.2,3903.3z"/>
	<path class="bcg-content-mobile5" d="M196.3,3861.5l32.5,17.8l-33.6,22.9L196.3,3861.5 M196.3,3859c-1.4,0-2.4,1.1-2.5,2.4l-1.2,40.6
		c-0.1,1.4,1.1,2.5,2.4,2.6c0.5,0,1.1-0.1,1.5-0.4l33.6-22.9c1.1-0.7,1.4-2.3,0.7-3.5c-0.2-0.3-0.5-0.6-0.9-0.8l-32.5-17.8
		C197.2,3859.1,196.8,3859,196.3,3859z"/>
	<polygon class="bcg-content-mobile7" points="195.3,3891.2 204.5,3896.2 195.2,3902.6 	"/>
	<path class="bcg-content-mobile5" d="M195.3,3891.2l-0.6,1.1l7.4,4.1l-5.7,3.9l0.1-9L195.3,3891.2l-0.6,1.1L195.3,3891.2h-1.2l-0.2,11.4
		c0,0.5,0.2,0.9,0.7,1.1c0.4,0.2,0.9,0.2,1.3-0.1l9.3-6.4c0.4-0.2,0.6-0.7,0.5-1.1c0-0.4-0.3-0.8-0.6-1l-9.2-5
		c-0.4-0.2-0.8-0.2-1.2,0s-0.6,0.6-0.6,1.1H195.3z"/>
	<path class="bcg-content-mobile7" d="M295.1,3767.4l-0.3,0.6c-0.6,1.1-1.9,1.4-3,0.9l-36.1-19.7c-1.1-0.6-1.4-1.9-0.9-3l0.3-0.6
		c0.6-1.1,1.9-1.4,3-0.9l36.1,19.7C295.3,3765,295.7,3766.3,295.1,3767.4z"/>
	<path class="bcg-content-mobile5" d="M295.1,3767.4l-1.1-0.6l-0.3,0.6l0,0c-0.1,0.1-0.2,0.3-0.3,0.3c-0.1,0.1-0.3,0.1-0.5,0.1s-0.3,0-0.5-0.1
		l-0.6,1.1l0.6-1.1l-36.1-19.7l0,0c-0.1-0.1-0.3-0.2-0.3-0.3c-0.1-0.1-0.1-0.3-0.1-0.5s0-0.3,0.1-0.5l-1.1-0.6l1.1,0.6l0.3-0.6l0,0
		c0.1-0.1,0.2-0.3,0.3-0.3c0.1-0.1,0.3-0.1,0.5-0.1s0.3,0,0.5,0.1l0.6-1.1l-0.6,1.1l36.1,19.7l0.6-1.1l-0.6,1.1
		c0.3,0.2,0.5,0.5,0.5,0.9c0,0.2,0,0.3-0.1,0.5L295.1,3767.4l-1.1-0.6L295.1,3767.4l1.1,0.6c0.3-0.5,0.4-1.1,0.4-1.6
		c0-1.2-0.6-2.4-1.7-3l0,0l-36.1-19.7l0,0c-0.5-0.3-1.1-0.4-1.6-0.4c-0.6,0-1.2,0.2-1.7,0.5s-1,0.8-1.3,1.3l1.1,0.6l-1.1-0.6
		l-0.3,0.6l0,0c-0.3,0.5-0.4,1.1-0.4,1.6c0,0.6,0.2,1.2,0.5,1.7s0.8,1,1.3,1.3l0.6-1.1l-0.6,1.1l36.1,19.7l0,0
		c0.5,0.3,1.1,0.4,1.6,0.4c0.6,0,1.2-0.2,1.7-0.5s1-0.8,1.3-1.3l-1.1-0.6l1.1,0.6l0.3-0.6l0,0L295.1,3767.4z"/>
	<path class="bcg-content-mobile7" d="M281.9,3791.6l-0.3,0.6c-0.6,1.1-1.9,1.4-3,0.9l-36.1-19.7c-1.1-0.6-1.4-1.9-0.9-3l0.3-0.6
		c0.6-1.1,1.9-1.4,3-0.9l36.1,19.7C282.1,3789.2,282.5,3790.5,281.9,3791.6z"/>
	<path class="bcg-content-mobile5" d="M281.9,3791.6l-1.1-0.6l-0.3,0.6l0,0c-0.1,0.1-0.2,0.3-0.3,0.3c-0.1,0.1-0.3,0.1-0.5,0.1s-0.3,0-0.5-0.1
		l-0.6,1.1l0.6-1.1l-36.1-19.7l0,0c-0.1-0.1-0.3-0.2-0.3-0.3c-0.1-0.1-0.1-0.3-0.1-0.5s0-0.3,0.1-0.5l-1.1-0.6l1.1,0.6l0.3-0.6l0,0
		c0.1-0.1,0.2-0.3,0.3-0.3c0.1-0.1,0.3-0.1,0.5-0.1s0.3,0,0.5,0.1l0.6-1.1l-0.6,1.1l36.1,19.7l0.6-1.1l-0.6,1.1
		c0.4,0.2,0.5,0.6,0.5,0.9c0,0.1,0,0.3-0.1,0.4l0,0L281.9,3791.6l1.1,0.6c0.3-0.5,0.5-1.1,0.5-1.7c0-1.2-0.7-2.4-1.8-3l0,0
		l-36.1-19.7l0,0c-0.5-0.3-1.1-0.4-1.6-0.4c-0.6,0-1.2,0.2-1.7,0.5s-1,0.8-1.3,1.3l1.1,0.6l-1.1-0.6l-0.3,0.6l0,0
		c-0.3,0.5-0.4,1.1-0.4,1.6c0,0.6,0.2,1.2,0.5,1.7s0.8,1,1.3,1.3l0.6-1.1l-0.6,1.1l36.1,19.7l0,0c0.5,0.3,1.1,0.4,1.6,0.4
		c0.6,0,1.2-0.2,1.7-0.5s1-0.8,1.3-1.3l-1.1-0.6l1.1,0.6l0.3-0.6L281.9,3791.6l1.1,0.6L281.9,3791.6z"/>

		<rect x="178.7" y="3820" transform="matrix(0.4802 -0.8771 0.8771 0.4802 -3233.2993 2185.832)" class="bcg-content-mobile5" width="98" height="2.1"/>

		<rect x="196" y="3829.4" transform="matrix(0.4802 -0.8771 0.8771 0.4802 -3232.5298 2205.8481)" class="bcg-content-mobile5" width="98" height="2.1"/>
</g>
<path class="bcg-content-mobile9" d="M14,176.7c-8.9,0-16.7-6.1-18.9-14.8c-7,2.6-14.7-0.9-17.3-7.9c-1-2.7-1.2-5.6-0.3-8.4c0.7-2.5,2.1-4.7,4-6.3
	c-6.2-8.4-4.5-20.1,3.8-26.4c5.4-4,12.4-4.9,18.5-2.3c2.9-6.1,9.8-9.1,16.3-7.2c2.2,0.6,4.3,1.8,5.9,3.5c4.8-4.2,11.4-5.6,17.4-3.8
	c8.1,2.3,13.6,9.7,13.5,18.1c8.6,2.7,13.2,11.8,10.5,20.4c-1.7,5.2-5.8,9.2-11.1,10.7c0.8,2.8,0.8,5.8-0.1,8.6
	c-2,6.9-8.3,11.6-15.5,11.6l0,0c-4,0-8-1.5-10.9-4.3C26.5,173.4,20.4,176.7,14,176.7z"/>
<path class="bcg-content-mobile5" d="M38.4,103.4c9.7,0,17.6,7.9,17.6,17.6c0,0.3,0,0.7-0.1,1l0.4,0.1c8,2.3,12.6,10.7,10.3,18.7
	c-1.6,5.4-6,9.5-11.6,10.6c2.8,7.7-1.3,16.3-9.1,19.1c-5.7,2-12.1,0.3-16.2-4.2c-4.9,8.8-16,11.9-24.8,7c-4.9-2.7-8.2-7.5-9.1-13
	c-6.1,3.1-13.5,0.6-16.5-5.4c-2.7-5.4-1.2-12,3.8-15.5c-6.3-7.5-5.4-18.7,2-25c5.4-4.6,13-5.5,19.3-2.4c2.5-6.6,9.9-9.8,16.5-7.2
	c2,0.8,3.8,2,5.2,3.6C29.4,105.2,33.8,103.4,38.4,103.4 M38.4,101c-4.5,0-8.7,1.5-12.2,4.2c-6.3-5.4-15.8-4.8-21.2,1.5
	c-0.6,0.8-1.2,1.5-1.7,2.3c-0.3-0.1-0.8-0.3-1.2-0.3c-10.6-3.1-21.7,3.1-24.8,13.7c-1.6,5.6-0.7,11.8,2.6,16.7
	c-1.7,1.7-2.9,3.9-3.6,6.2c-2.2,7.7,2.2,15.8,10,18.1c2.6,0.8,5.4,0.8,8,0.1c3.3,10.9,14.8,16.9,25.7,13.6c4.1-1.3,7.7-3.8,10.3-7.2
	c7.5,5.9,18.3,4.7,24.3-2.7c3.1-4,4.5-9.1,3.4-14.1c9.1-3.2,13.9-13.1,10.6-22.2c-1.7-4.9-5.5-8.7-10.3-10.5
	C57.9,109.5,49.1,101.1,38.4,101L38.4,101z"/>
<path class="bcg-content-mobile9" d="M41,156.7c0,0-10.7,13.3,3.6,25c0,0-17.8-1.7-23.3-14.8"/>
<path class="bcg-content-mobile5" d="M41,156.7c-0.3,0.5-0.6,1-0.8,1.6s-0.5,1-0.7,1.6s-0.4,1.1-0.6,1.7c-0.1,0.6-0.3,1.1-0.4,1.7
	c-0.1,0.6-0.2,1.1-0.3,1.7c-0.1,0.6-0.1,1.1-0.1,1.7c0,0.6,0,1.1,0.1,1.7c0,0.3,0.1,0.6,0.1,0.8c0.1,0.3,0.1,0.6,0.1,0.8
	c0.1,0.3,0.1,0.6,0.2,0.8l0.2,0.8c0.2,0.5,0.3,1,0.6,1.5c0.2,0.5,0.5,1,0.7,1.5c0.1,0.2,0.3,0.5,0.4,0.7l0.2,0.3l0.2,0.3l0.5,0.7
	l0.5,0.6c0.3,0.5,0.8,0.8,1.1,1.3c0.3,0.4,0.8,0.8,1.2,1.2l1.3,1l3.3,2.9l-4.3-0.5c-0.7-0.1-1.3-0.2-1.9-0.3
	c-0.6-0.1-1.2-0.2-1.8-0.3c-1.2-0.3-2.4-0.6-3.6-1c-0.6-0.2-1.2-0.4-1.7-0.6l-0.9-0.3l-0.8-0.3c-0.6-0.3-1.1-0.6-1.7-0.8
	c-0.6-0.3-1.1-0.6-1.6-0.9l-0.8-0.5l-0.8-0.5c-0.2-0.2-0.5-0.3-0.8-0.6c-0.2-0.2-0.5-0.3-0.8-0.6l-0.7-0.6l-0.7-0.6
	c-0.2-0.2-0.4-0.5-0.6-0.7s-0.4-0.5-0.6-0.7l-0.6-0.8l-0.6-0.8c-0.2-0.2-0.3-0.5-0.5-0.8s-0.3-0.5-0.5-0.8l-0.4-0.8
	c-0.1-0.3-0.2-0.6-0.3-0.8c-0.1-0.3-0.2-0.6-0.3-0.9c-0.1-0.3-0.2-0.6-0.3-0.9c0.3,0.5,0.6,1,1,1.5c0.2,0.2,0.3,0.5,0.5,0.8l0.6,0.7
	c0.2,0.2,0.3,0.5,0.6,0.7c0.2,0.2,0.3,0.5,0.6,0.6l0.6,0.6l0.6,0.6c0.2,0.2,0.4,0.3,0.6,0.6c0.2,0.2,0.5,0.3,0.7,0.6l0.7,0.6
	l0.7,0.5c0.5,0.3,1,0.6,1.5,0.9c0.5,0.3,1,0.6,1.5,0.8c0.5,0.3,1,0.5,1.6,0.8s1,0.5,1.6,0.7s1.1,0.4,1.6,0.6s1.1,0.3,1.7,0.6
	c1.1,0.3,2.2,0.6,3.3,0.9c0.6,0.1,1.2,0.2,1.7,0.3s1.2,0.2,1.7,0.2l-1,2.4c-0.5-0.4-0.9-0.8-1.4-1.3c-0.5-0.4-0.9-0.9-1.3-1.3
	c-0.4-0.5-0.8-0.9-1.2-1.5l-0.6-0.8l-0.5-0.8l-0.2-0.4l-0.2-0.4c-0.1-0.3-0.3-0.6-0.5-0.8c-0.3-0.6-0.5-1.2-0.8-1.7
	c-0.2-0.6-0.4-1.2-0.6-1.8l-0.2-0.9c-0.1-0.3-0.1-0.6-0.1-0.9c-0.1-0.3-0.1-0.6-0.1-0.9c0-0.3,0-0.6,0-0.9c0-0.6,0.1-1.3,0.1-1.8
	c0.1-0.6,0.2-1.2,0.3-1.8s0.3-1.2,0.6-1.7c0.2-0.6,0.5-1.2,0.8-1.7c0.3-0.6,0.6-1,0.9-1.6c0.3-0.5,0.6-1,1-1.5
	C40.2,157.7,40.5,157.2,41,156.7z"/>
<ellipse transform="matrix(0.9587 -0.2844 0.2844 0.9587 -36.8807 15.4064)" class="bcg-content-mobile5" cx="34.6" cy="134.7" rx="3" ry="3"/>
<ellipse transform="matrix(0.9587 -0.2844 0.2844 0.9587 -38.2294 12.4942)" class="bcg-content-mobile5" cx="23.9" cy="137.9" rx="3" ry="3"/>
<ellipse transform="matrix(0.9587 -0.2844 0.2844 0.9587 -39.579 9.5827)" class="bcg-content-mobile5" cx="13.2" cy="141.1" rx="3" ry="3"/>
<g>
	<path class="bcg-content-mobile9" d="M310.7,297.7c-6.3,0-12.3-2.9-16.2-7.8c-6.1,7.2-16.9,8-24.2,1.9c-4.6-4-6.8-10.1-5.7-16
		c-9.4-1.5-15.8-10.5-14.2-19.9c1-5.9,4.9-10.9,10.4-13.2c-1.3-10.9,6.7-20.8,17.6-22.1c0.7-0.1,1.5-0.1,2.2-0.1
		c4.2,0,8.3,1.3,11.7,3.8c5.1-6.4,14.4-7.4,20.7-2.4c1.4,1.1,2.6,2.4,3.5,4c9.7-5.4,21.9-1.8,27.3,8c3.5,6.3,3.3,14.1-0.5,20.3
		c6.5,4.5,8.1,13.4,3.6,19.9c-3.5,5-9.7,7.2-15.7,5.6c-1,7.4-5.9,13.8-12.9,16.7C315.9,297.1,313.3,297.7,310.7,297.7z"/>
	<path class="bcg-content-mobile5" d="M303.8,219.7c5.1,0,9.9,2.9,12.3,7.6c9-5.6,20.7-2.8,26.3,6.2c4,6.5,3.8,14.7-0.5,20.9
		c6.3,3.7,8.4,11.9,4.7,18.1c-3.3,5.7-10.2,8-16.3,5.7c-0.7,10.9-10.1,19.1-20.9,18.4c-6-0.4-11.5-3.5-14.9-8.4
		c-5.3,7.2-15.3,8.8-22.5,3.5c-5.3-3.8-7.7-10.5-6.1-16.9c-9-0.9-15.5-8.8-14.6-17.8c0.6-6.1,4.5-11.3,10.1-13.6
		c0.1-0.1,0.3-0.1,0.5-0.1c-1.6-10.3,5.4-20,15.7-21.7c5.3-0.9,10.7,0.6,14.9,4C295.1,222.1,299.3,219.7,303.8,219.7 M303.8,217.8
		c-4.5,0-8.7,1.9-11.7,5.2c-3.4-2.2-7.4-3.5-11.5-3.5c-7.6,0-14.6,4.1-18.2,10.7c-2,3.6-3,7.8-2.6,11.9c-9.2,4.3-13.1,15.1-8.8,24.4
		c2.4,5.1,7,8.9,12.6,10.1c-1.2,9.9,5.9,19,15.8,20.2c5.6,0.7,11.2-1.3,15.1-5.3c8,8.9,21.7,9.7,30.6,1.7c3.6-3.2,6-7.6,6.9-12.3
		c8.3,1.7,16.3-3.6,18.1-11.9c1.2-5.7-1-11.5-5.5-15.1c5.7-10.1,2-23.1-8.1-28.7c-5.6-3.1-12.3-3.6-18.1-1.2c-0.5,0.2-1,0.5-1.5,0.7
		C313.9,220.3,309,217.7,303.8,217.8z"/>
	<path class="bcg-content-mobile9" d="M281.6,279.2c0,0,12.8,13.2-1.3,27.3c0,0,18.9-3.7,23.4-18.4"/>
	<path class="bcg-content-mobile5" d="M281.6,279.2c0.5,0.4,0.9,0.9,1.3,1.3c0.5,0.5,0.8,1,1.2,1.5c0.4,0.5,0.7,1.1,1.1,1.6c0.3,0.6,0.7,1.1,0.9,1.7
		c0.3,0.6,0.5,1.2,0.7,1.8c0.2,0.6,0.4,1.3,0.6,1.9c0.1,0.7,0.3,1.3,0.3,2l0.1,0.5l0.1,0.5c0,0.3,0.1,0.7,0.1,1s0,0.7-0.1,1l-0.1,1
		c-0.1,0.7-0.3,1.3-0.4,2s-0.4,1.3-0.6,1.9c-0.1,0.3-0.3,0.6-0.4,0.9l-0.2,0.5l-0.3,0.5l-0.5,0.9l-0.5,0.9c-0.3,0.6-0.8,1.1-1.1,1.6
		c-0.4,0.6-0.9,1-1.3,1.5s-0.9,1-1.3,1.4l-1.1-2c0.6-0.1,1.2-0.3,1.8-0.5c0.6-0.1,1.2-0.4,1.8-0.6c1.2-0.4,2.4-0.9,3.6-1.3
		c0.6-0.3,1.2-0.5,1.7-0.8l0.9-0.4l0.9-0.5c0.6-0.3,1.1-0.6,1.6-0.9s1.1-0.7,1.6-1l0.8-0.5l0.8-0.6c0.3-0.2,0.5-0.4,0.7-0.6
		c0.3-0.1,0.5-0.4,0.7-0.6l0.7-0.6l0.7-0.7c0.3-0.2,0.5-0.5,0.7-0.7c0.2-0.3,0.5-0.5,0.7-0.7l0.7-0.7l0.6-0.8
		c0.2-0.3,0.4-0.5,0.6-0.8s0.4-0.5,0.5-0.8l0.5-0.8c0.1-0.3,0.3-0.6,0.5-0.9c0.3-0.6,0.6-1.2,0.9-1.8l-0.3,1l-0.1,0.5l-0.1,0.5
		c-0.1,0.3-0.2,0.6-0.3,0.9l-0.4,0.9c-0.1,0.3-0.3,0.6-0.4,0.9s-0.3,0.6-0.5,0.9l-0.5,0.9l-0.6,0.9c-0.1,0.3-0.4,0.5-0.6,0.8
		s-0.4,0.5-0.6,0.8l-0.7,0.8l-0.7,0.7c-0.3,0.3-0.5,0.5-0.7,0.7c-0.3,0.2-0.5,0.5-0.7,0.7L296,300l-0.8,0.6
		c-0.5,0.4-1.1,0.8-1.6,1.2s-1.1,0.7-1.7,1.1l-0.9,0.5l-0.9,0.5c-0.6,0.3-1.2,0.6-1.8,0.9c-1.2,0.6-2.4,1.1-3.7,1.5
		c-0.7,0.2-1.3,0.4-1.9,0.6c-0.7,0.2-1.3,0.4-2,0.5l-3.7,0.7l2.6-2.8c0.4-0.5,0.9-0.9,1.3-1.3s0.8-0.9,1.2-1.4
		c0.4-0.5,0.7-1,1.1-1.4l0.5-0.8l0.5-0.8l0.3-0.4l0.2-0.4c0.1-0.3,0.3-0.5,0.4-0.8c0.3-0.6,0.5-1.1,0.6-1.7c0.2-0.6,0.3-1.2,0.5-1.7
		l0.1-0.9c0.1-0.3,0.1-0.6,0.1-0.9s0.1-0.6,0.1-0.9v-0.3v-0.5c0-0.3,0-0.6-0.1-0.9s-0.1-0.6-0.1-0.9c-0.1-0.6-0.2-1.2-0.3-1.8
		c-0.1-0.3-0.1-0.6-0.3-0.9l-0.3-0.9c-0.2-0.6-0.4-1.2-0.7-1.7c-0.3-0.6-0.5-1.1-0.8-1.7s-0.6-1.1-0.9-1.6
		C282.7,280.2,282,279.7,281.6,279.2z"/>
	<path class="bcg-content-mobile5" d="M285.8,251.2c0-1.5,1.1-2.6,2.5-2.6s2.4,1.1,2.4,2.6c0,1.4-1,2.6-2.5,2.6C286.8,253.9,285.8,252.7,285.8,251.2
		z M285.8,266c0-1.5,1.1-2.6,2.5-2.6s2.4,1.1,2.4,2.6c0,1.4-1,2.6-2.5,2.6C286.8,268.6,285.8,267.5,285.8,266z"/>
	<rect x="293.5" y="255.5" class="bcg-content-mobile5" width="10.3" height="2.7"/>
	<path class="bcg-content-mobile5" d="M305.9,273.2c3-4.1,5.3-9.6,5.3-17.1s-2.2-12.8-5.3-17h2.8c2.7,3.4,5.5,8.8,5.5,17s-2.8,13.5-5.5,17.1H305.9z"
		/>
</g>
</svg>
