<?xml version="1.0" encoding="utf-8"?>
<svg version="1.1" id="Warbcg-ios-tabletwa_1" xmlns="http://www.w3.org/2000/svg" xmlns:xlink="http://www.w3.org/1999/xlink"
	 x="0px" y="0px" viewBox="0 0 700.3 4101.1" style="enable-background:new 0 0 700.3 4101.1;" xml:space="preserve">
<style type="text/css">
	.bcg-content-tablet0{fill:#1E2333;}
	.bcg-content-tablet1{fill:#29334C;}
	.bcg-content-tablet2{font-family:'MyriadPro-Regular';}
	.bcg-content-tablet3{font-size:114.4485px;}
	.bcg-content-tablet4{fill:#DA6346;}
	.bcg-content-tablet5{fill:#2B304B;}
	.bcg-content-tablet6{fill:#E9B258;}
	.bcg-content-tablet7{fill:#9FA4B7;}
	.bcg-content-tablet8{fill:#DEDEE0;}
	.bcg-content-tablet9{fill:#9FA4B7;stroke:#2B304B;stroke-width:4;stroke-linejoin:round;}
	.bcg-content-tablet10{fill:#73CEDD;}
	.bcg-content-tablet11{font-size:61.0431px;}
</style>
<path class="bcg-content-tablet0" d="M493.3,419.2c-6.2-18.3,3.7-38.2,21.9-44.4c0.4-0.1,0.6-0.2,0.9-0.3c-2.3-22.4,14-42.3,36.3-44.6
	c11.4-1.2,22.8,2.5,31.4,10.3c9.9-12.9,28.4-15.4,41.3-5.5c4,3,7.1,7,9.1,11.6c19.9-11,44.9-3.7,55.8,16.2c7.9,14.3,6.5,32-3.5,44.9
	c13.1,8.7,16.7,26.4,8,39.5c-7.7,11.6-22.8,16-35.5,10.2c-2.7,23.2-23.8,39.8-46.9,37.1c-12.8-1.5-24.2-8.7-31-19.6
	c-12,14.9-33.9,17.2-48.7,5.1c-11-8.9-15.5-23.5-11.3-37C508.2,440.6,497.4,431.6,493.3,419.2z"/>
<path class="bcg-content-tablet0" d="M385.7,1693.5c-12.6-37.3,7.5-77.8,44.7-90.4c0.7-0.2,1.3-0.4,1.9-0.6c-4.7-45.6,28.5-86.2,74-90.9
	c23.3-2.4,46.5,5.2,64,20.9c20.2-26.3,57.8-31.4,84.3-11.3c8.1,6.1,14.4,14.3,18.5,23.7c40.5-22.4,91.5-7.6,113.7,32.9
	c16.1,29.2,13.3,65.3-7.1,91.6c26.7,17.8,34,53.7,16.2,80.5c-15.7,23.7-46.4,32.6-72.4,20.8c-5.5,47.4-48.4,81.1-95.7,75.6
	c-26.1-3-49.3-17.8-63.1-40c-24.6,30.3-69.1,34.9-99.3,10.2c-22.2-18.2-31.4-47.8-23-75.3C416.2,1737.3,394.3,1718.7,385.7,1693.5z"
	/>
<path class="bcg-content-tablet0" d="M-101.2,1075.7c-6.2-18.3,3.7-38.2,21.9-44.4c0.3-0.1,0.6-0.2,0.9-0.3c-2.3-22.4,14-42.3,36.3-44.6
	c11.4-1.2,22.8,2.5,31.4,10.3c9.9-12.9,28.4-15.4,41.3-5.5c4,3,7.1,7,9.1,11.6c19.9-11,44.9-3.7,55.8,16.2c7.9,14.3,6.5,32-3.5,44.9
	c13.1,8.7,16.7,26.4,8,39.5c-7.7,11.6-22.8,16-35.5,10.2c-2.7,23.2-23.8,39.8-46.9,37.1c-12.8-1.5-24.2-8.7-31-19.6
	c-12,14.9-33.9,17.2-48.7,5.1c-11-8.9-15.5-23.5-11.3-37C-86.3,1097.1-97.1,1088-101.2,1075.7z"/>
<path class="bcg-content-tablet0" d="M436.4,735.9c-9.7-28.7,5.7-59.9,34.5-69.7c0.5-0.2,1-0.3,1.5-0.5c-3.6-35.1,21.9-66.4,57-70
	c18-1.8,35.9,4,49.3,16.1c15.5-20.3,44.6-24.2,64.9-8.7c6.2,4.8,11.1,11,14.3,18.2c31.2-17.2,70.4-5.8,87.6,25.4
	c12.4,22.5,10.2,50.2-5.5,70.5c20.6,13.6,26.2,41.4,12.6,62c-12.1,18.3-35.8,25.1-55.8,16c-4.3,36.4-37.3,62.5-73.7,58.2
	c-20.1-2.4-38-13.7-48.7-30.8c-18.9,23.3-53.1,26.8-76.5,7.9c-17.2-13.9-24.2-36.9-17.7-58C459.9,769.6,443,755.4,436.4,735.9z"/>
<path class="bcg-content-tablet0" d="M48.3,338.9c-9.6-12.2-7.5-29.9,4.7-39.5l0,0c0.2-0.2,0.4-0.3,0.6-0.5c-7.8-16.3-0.8-35.8,15.5-43.6
	c8.4-4,18-4.2,26.6-0.6c4-12.4,17.4-19.3,29.8-15.3c3.8,1.2,7.3,3.4,10,6.4c12.1-13.6,33-14.8,46.7-2.7c9.8,8.7,13.5,22.5,9.4,35
	c12.3,3.1,19.7,15.5,16.6,27.8c-2.7,10.9-13,18.2-24.1,17.2c4.1,18.3-7.3,36.6-25.7,40.7c-10.1,2.3-20.6-0.1-28.7-6.5
	c-5.2,14.5-21.1,22.1-35.6,16.9c-10.7-3.8-17.9-13.7-18.5-24.9C65.4,351.1,54.8,347.2,48.3,338.9z"/>
<path class="bcg-content-tablet0" d="M246.5,111.9c-3.4-7.4-0.1-16.2,7.3-19.6l0.4-0.2c-1.9-9.3,4-18.4,13.3-20.3c4.8-1,9.7,0.1,13.7,2.9
	c3.6-5.9,11.3-7.7,17.2-4.1c1.8,1.1,3.3,2.7,4.3,4.5c7.8-5.5,18.7-3.5,24.2,4.4c4,5.7,4.1,13.2,0.5,19.1c5.9,3.1,8.2,10.3,5.1,16.2
	c-2.7,5.2-8.9,7.7-14.5,5.8c-0.1,9.8-8.3,17.8-18.1,17.6c-5.4-0.1-10.6-2.6-13.9-6.9c-4.4,6.8-13.5,8.7-20.2,4.2
	c-5-3.2-7.5-9.2-6.4-15C253.7,120.3,248.8,117,246.5,111.9z"/>
<path class="bcg-content-tablet0" d="M184.2,626.7c-5.5-12-0.2-26.2,11.8-31.7c0.2-0.1,0.4-0.2,0.6-0.3c-3.1-15,6.5-29.7,21.5-32.9
	c7.7-1.6,15.7,0.1,22.1,4.8c5.8-9.5,18.2-12.5,27.7-6.7c2.9,1.8,5.3,4.2,7,7.2c12.7-8.8,30.3-5.7,39.1,7.1
	c6.4,9.2,6.7,21.3,0.8,30.8c9.6,4.9,13.3,16.6,8.4,26.2c-4.4,8.6-14.4,12.6-23.6,9.5c-0.2,16-13.2,28.8-29.2,28.6
	c-8.8-0.1-17.2-4.2-22.6-11.2c-7.1,11-21.8,14-32.7,6.9c-8.1-5.2-12.1-14.9-10.3-24.4C195.8,640.2,187.9,634.9,184.2,626.7z"/>
<path class="bcg-content-tablet0" d="M535.1,970.9c5.9,20.9-6.2,42.6-27.1,48.5c-0.4,0.1-0.7,0.2-1.1,0.3c1.4,25.2-18,46.7-43.1,47.9
	c-12.9,0.7-25.5-4.1-34.6-13.2c-11.8,14-32.7,15.7-46.7,3.9c-4.2-3.6-7.5-8.3-9.6-13.4c-22.9,11.1-50.5,1.6-61.6-21.3
	c-8-16.5-5.5-36.1,6.4-50.1c-14.2-10.4-17.3-30.5-6.8-44.7c9.3-12.6,26.4-16.6,40.3-9.5c4.4-25.8,28.8-43.3,54.7-39
	c14.2,2.4,26.6,11.1,33.6,23.8c14.3-16,38.9-17.3,54.9-2.9c11.7,10.6,15.9,27.2,10.6,42.1C519.5,946.1,531.1,956.8,535.1,970.9z"/>
<path class="bcg-content-tablet0" d="M737,3854.9c11.3,39.9-11.9,81.5-51.8,92.8l0,0c-0.7,0.2-1.4,0.4-2.1,0.5c2.6,48.2-34.4,89.3-82.6,91.8
	c-24.7,1.3-48.8-7.9-66.3-25.4c-22.6,26.7-62.6,30.1-89.3,7.5c-8.2-6.9-14.4-15.8-18.3-25.8c-43.8,21.4-96.6,3.1-118-40.7
	c-15.4-31.6-10.6-69.3,12.3-96c-27.2-20.1-33-58.3-13-85.6c17.8-24.2,50.6-31.9,77.3-18.1c8.3-49.5,55.2-82.9,104.7-74.6
	c27.2,4.6,50.9,21.3,64.3,45.4c27.4-30.6,74.5-33.1,105-5.7c22.5,20.2,30.6,52,20.3,80.5C707.2,3807.3,729.3,3827.9,737,3854.9z"/>
<path class="bcg-content-tablet0" d="M247.4,1311c4.4,15.3-4.5,31.2-19.8,35.5l0,0c-0.3,0.1-0.5,0.1-0.8,0.2c1,18.5-13.2,34.2-31.6,35.2
	c-9.4,0.5-18.7-3-25.4-9.7c-8.7,10.2-23.9,11.5-34.2,2.8c-3.1-2.7-5.5-6.1-7-9.8c-16.7,8.1-37,1.2-45.2-15.6
	c-5.9-12.1-4-26.5,4.7-36.7c-10.4-7.7-12.6-22.4-5-32.7c6.8-9.2,19.3-12.1,29.5-7c3.2-18.9,21.1-31.7,40.1-28.5
	c10.4,1.8,19.5,8.1,24.7,17.4c10.5-11.7,28.5-12.7,40.2-2.2c8.6,7.7,11.7,19.9,7.8,30.8C236.1,1292.8,244.5,1300.7,247.4,1311z"/>
<path class="bcg-content-tablet0" d="M57.9,835.5c-5.5-12-0.2-26.2,11.8-31.7c0.2-0.1,0.4-0.2,0.6-0.3c-3.1-15,6.5-29.7,21.5-32.9
	c7.7-1.6,15.7,0.1,22.1,4.8c5.8-9.5,18.2-12.5,27.7-6.7c2.9,1.8,5.3,4.2,7,7.2c12.7-8.8,30.3-5.7,39.1,7.1
	c6.4,9.2,6.7,21.3,0.8,30.8c9.6,4.9,13.3,16.6,8.4,26.2c-4.4,8.6-14.4,12.6-23.6,9.5c-0.2,16-13.2,28.8-29.2,28.6
	c-8.8-0.1-17.2-4.2-22.6-11.2c-7.1,11-21.8,14-32.7,6.9c-8.1-5.2-12.1-14.9-10.3-24.4C69.6,849,61.7,843.6,57.9,835.5z"/>
<path class="bcg-content-tablet0" d="M112.4,1674.9c-5.5-12-0.2-26.2,11.8-31.7c0.2-0.1,0.4-0.2,0.6-0.3c-3.1-15,6.5-29.7,21.5-32.9
	c7.7-1.6,15.7,0.1,22.1,4.8c5.8-9.5,18.2-12.5,27.7-6.7c2.9,1.8,5.3,4.2,7,7.2c12.7-8.8,30.3-5.7,39.1,7.1
	c6.4,9.2,6.7,21.3,0.8,30.8c9.6,4.9,13.3,16.6,8.4,26.2c-4.4,8.6-14.4,12.6-23.6,9.5c-0.2,16-13.2,28.8-29.2,28.6
	c-8.8-0.1-17.2-4.2-22.6-11.2c-7.1,11-21.8,14-32.7,6.9c-8.1-5.2-12.1-14.9-10.3-24.4C124,1688.4,116.1,1683.1,112.4,1674.9z"/>
<path class="bcg-content-tablet0" d="M517.9,1395.6c-5.5-12-0.2-26.2,11.8-31.7c0.2-0.1,0.4-0.2,0.6-0.3c-3.1-15,6.5-29.7,21.5-32.9
	c7.7-1.6,15.7,0.1,22.1,4.8c5.8-9.5,18.2-12.5,27.7-6.7c2.9,1.8,5.3,4.2,7,7.2c12.7-8.8,30.3-5.7,39.1,7.1
	c6.4,9.2,6.7,21.3,0.8,30.8c9.6,4.9,13.3,16.6,8.4,26.2c-4.4,8.6-14.4,12.6-23.6,9.5c-0.2,16-13.2,28.8-29.2,28.6
	c-8.8-0.1-17.2-4.2-22.6-11.2c-7.1,11-21.8,14-32.7,6.9c-8.1-5.2-12.1-14.9-10.3-24.4C529.6,1409.1,521.6,1403.8,517.9,1395.6z"/>
<path class="bcg-content-tablet0" d="M264.2,1275.4c-3.2-7-0.1-15.3,6.8-18.5l0,0l0.4-0.2c-1.8-8.7,3.8-17.3,12.6-19.2c4.5-0.9,9.1,0.1,12.8,2.8
	c3.4-5.5,10.6-7.3,16.2-3.9c1.7,1.1,3.1,2.5,4.1,4.2c7.4-5.1,17.6-3.3,22.8,4.1c3.7,5.4,3.9,12.4,0.5,17.9c5.5,2.9,7.7,9.7,4.8,15.3
	c-2.6,5-8.4,7.3-13.6,5.5c-0.1,9.3-7.8,16.8-17,16.6c-5.1-0.1-10-2.5-13.1-6.5c-4.2,6.4-12.7,8.2-19.1,4c-4.7-3.1-7.1-8.7-6-14.2
	C271,1283.2,266.4,1280.1,264.2,1275.4z"/>
<path class="bcg-content-tablet0" d="M353.8,3311.3c-6.2-18.3,3.7-38.2,21.9-44.4c0.4-0.1,0.6-0.2,0.9-0.3c-2.3-22.4,14-42.3,36.3-44.6
	c11.4-1.2,22.8,2.5,31.4,10.3c9.9-12.9,28.4-15.4,41.3-5.5c4,3,7.1,7,9.1,11.6c19.9-11,44.9-3.7,55.8,16.2c7.9,14.3,6.5,32-3.5,44.9
	c13.1,8.7,16.7,26.4,8,39.5c-7.7,11.6-22.8,16-35.5,10.2c-2.7,23.2-23.8,39.8-46.9,37.1c-12.8-1.5-24.2-8.7-31-19.6
	c-12.1,14.9-33.9,17.1-48.7,5c-10.9-8.9-15.4-23.5-11.3-36.9C368.8,3332.8,358,3323.7,353.8,3311.3z"/>
<path class="bcg-content-tablet0" d="M517.5,3480.1c-10.1-29.8,6-62.3,35.8-72.4c0.6-0.2,1.1-0.3,1.5-0.5c-3.8-36.5,22.8-69,59.3-72.8
	c18.7-1.9,37.3,4.1,51.2,16.7c16.2-21.1,46.3-25.1,67.5-9c6.4,4.9,11.6,11.5,14.8,19c32.4-17.9,73.3-6.1,91.1,26.4
	c12.9,23.4,10.7,52.3-5.7,73.3c21.4,14.2,27.2,43,13,64.5c-12.6,19-37.2,26.1-57.9,16.7c-4.4,37.9-38.8,65-76.6,60.5
	c-20.9-2.4-39.5-14.2-50.5-32.1c-19.7,24.3-55.3,27.9-79.5,8.2c-17.8-14.5-25.1-38.3-18.4-60.3
	C541.8,3515.1,524.3,3500.3,517.5,3480.1z"/>
<path class="bcg-content-tablet0" d="M-87.2,2935.5c-6.2-18.3,3.7-38.2,21.9-44.4c0.3-0.1,0.6-0.2,0.9-0.3c-2.3-22.4,14-42.3,36.3-44.6
	c11.4-1.2,22.8,2.5,31.4,10.3c9.9-12.9,28.4-15.4,41.3-5.5c4,3,7.1,7,9.1,11.6c19.9-11,44.9-3.7,55.8,16.2c7.9,14.3,6.5,32-3.5,44.9
	c13.1,8.7,16.7,26.4,8,39.5c-7.7,11.6-22.8,16-35.5,10.2c-2.7,23.2-23.8,39.8-46.9,37.1c-12.8-1.5-24.2-8.7-31-19.6
	c-12,14.9-33.9,17.2-48.7,5.1c-11-8.9-15.5-23.5-11.3-37C-72.2,2956.9-83,2947.9-87.2,2935.5z"/>
<path class="bcg-content-tablet0" d="M549.1,2830.8c5.9,20.9-6.2,42.6-27.1,48.5c-0.4,0.1-0.7,0.2-1.1,0.3c1.4,25.2-18,46.7-43.1,47.9
	c-12.9,0.7-25.5-4.1-34.6-13.2c-11.8,14-32.7,15.7-46.7,3.9c-4.2-3.6-7.5-8.3-9.6-13.4c-22.9,11.1-50.5,1.6-61.6-21.3
	c-8-16.5-5.5-36.1,6.4-50.1c-14.2-10.4-17.3-30.5-6.8-44.7c9.3-12.6,26.4-16.6,40.3-9.5c4.4-25.8,28.8-43.3,54.7-39
	c14.2,2.4,26.6,11.1,33.6,23.8c14.3-16,38.9-17.3,54.9-2.9c11.7,10.6,15.9,27.2,10.6,42.1C533.5,2805.9,545.1,2816.7,549.1,2830.8z"
	/>
<path class="bcg-content-tablet0" d="M259.8,3502.6c11.1,38.9-11.6,79.4-50.5,90.4l0,0c-0.8,0.2-1.4,0.3-2.1,0.6c2.6,47-33.5,87.1-80.5,89.5
	c-24,1.4-47.6-7.7-64.7-24.8c-22.1,26-61,29.3-87.1,7.2c-8-6.8-14.1-15.5-17.9-25.1c-42.7,20.7-94.2,3-115-39.6
	c-15-30.8-10.2-67.4,12-93.6c-26.4-19.5-32.1-56.9-12.6-83.4c17.4-23.4,49.1-30.9,75.2-17.7c8.1-48.2,53.8-80.8,102.1-72.7
	c26.6,4.5,49.7,20.7,62.8,44.3c26.7-29.7,72.5-32.3,102.4-5.6c21.9,19.7,29.7,50.8,19.8,78.5
	C230.8,3456.2,252.4,3476.2,259.8,3502.6z"/>
<path class="bcg-content-tablet0" d="M299.6,3547c-5.5-12-0.2-26.2,11.8-31.7c0.2-0.1,0.4-0.2,0.6-0.3c-3.1-15,6.5-29.7,21.5-32.9
	c7.7-1.6,15.7,0.1,22.1,4.8c5.8-9.5,18.2-12.5,27.7-6.7c2.9,1.8,5.3,4.2,7,7.2c12.7-8.8,30.3-5.7,39.1,7.1
	c6.4,9.2,6.7,21.3,0.8,30.8c9.6,4.9,13.3,16.6,8.4,26.2c-4.4,8.6-14.4,12.6-23.6,9.5c-0.2,16-13.2,28.8-29.2,28.6
	c-8.8-0.1-17.2-4.2-22.6-11.2c-7.1,11-21.8,14-32.7,6.9c-8.1-5.2-12.1-14.9-10.3-24.4C311.3,3560.5,303.4,3555.1,299.6,3547z"/>
<path class="bcg-content-tablet0" d="M-252.8,4110.7c-20-44-0.9-95.7,43.1-115.9c0.9-0.4,1.5-0.6,2.4-1.1c-11.4-55,23.7-108.6,78.7-120.2
	c28.2-5.8,57.5,0.4,80.8,17.5c21.3-34.7,66.6-45.7,101.3-24.4c10.6,6.5,19.4,15.5,25.6,26.3c46.5-32.3,110.6-20.7,142.9,25.9
	c23.3,33.6,24.4,77.8,2.8,112.5c34.9,17.9,48.7,60.8,30.8,95.7c-16.2,31.5-52.8,46.1-86.2,34.7c-0.6,58.4-48.3,105.2-106.7,104.5
	c-32.3-0.4-62.7-15.5-82.5-40.9c-26.1,40.1-79.7,51.3-119.6,25.2c-29.5-19.2-44.4-54.5-37.7-89
	C-210.1,4160-239.2,4140.4-252.8,4110.7z"/>
<path class="bcg-content-tablet0" d="M278.3,3135.2c-3.2-7-0.1-15.3,6.8-18.5l0,0l0.4-0.2c-1.8-8.7,3.8-17.3,12.6-19.2c4.5-0.9,9.1,0.1,12.8,2.8
	c3.4-5.5,10.6-7.3,16.2-3.9c1.7,1.1,3.1,2.5,4.1,4.2c7.4-5.1,17.6-3.3,22.8,4.1c3.7,5.4,3.9,12.4,0.5,17.9c5.5,2.9,7.7,9.7,4.8,15.3
	c-2.6,5-8.4,7.3-13.6,5.5c-0.1,9.3-7.8,16.8-17,16.6c-5.1-0.1-10-2.5-13.1-6.5c-4.2,6.4-12.7,8.2-19.1,4c-4.7-3.1-7.1-8.7-6-14.2
	C285.1,3143,280.5,3139.9,278.3,3135.2z"/>
<text transform="matrix(1 0 0 1 552.2645 754.1105)" class="bcg-content-tablet1 bcg-content-tablet2 bcg-content-tablet3">:-)</text>
<path class="bcg-content-tablet0" d="M327,2008.3c-6.2-18.3,3.7-38.2,21.9-44.4c0.4-0.1,0.6-0.2,0.9-0.3c-2.3-22.4,14-42.3,36.3-44.6
	c11.4-1.2,22.8,2.5,31.4,10.3c9.9-12.9,28.4-15.4,41.3-5.5c4,3,7.1,7,9.1,11.6c19.9-11,44.9-3.7,55.8,16.2c7.9,14.3,6.5,32-3.5,44.9
	c13.1,8.7,16.7,26.4,8,39.5c-7.7,11.6-22.8,16-35.5,10.2c-2.7,23.2-23.8,39.8-46.9,37.1c-12.8-1.5-24.2-8.7-31-19.6
	c-12,14.9-33.9,17.2-48.7,5.1c-11-8.9-15.5-23.5-11.3-37C341.9,2029.8,331.1,2020.7,327,2008.3z"/>
<path class="bcg-content-tablet0" d="M449.2,2355.3c-9.7-28.7,5.7-59.9,34.5-69.7c0.5-0.2,1-0.3,1.5-0.5c-3.6-35.1,21.9-66.4,57-70
	c18-1.8,35.9,4,49.3,16.1c15.5-20.3,44.6-24.2,64.9-8.7c6.2,4.8,11.1,11,14.3,18.2c31.2-17.2,70.4-5.8,87.6,25.4
	c12.4,22.5,10.2,50.2-5.5,70.5c20.6,13.6,26.2,41.4,12.6,62c-12.1,18.3-35.8,25.1-55.8,16c-4.3,36.4-37.3,62.5-73.7,58.2
	c-20.1-2.4-38-13.7-48.7-30.8c-18.9,23.3-53.1,26.8-76.5,7.9c-17.2-13.9-24.2-36.9-17.7-58C472.6,2388.9,455.7,2374.7,449.2,2355.3z
	"/>
<path class="bcg-content-tablet0" d="M17.8,2215.8c-5.5-12-0.2-26.2,11.8-31.7c0.2-0.1,0.4-0.2,0.6-0.3c-3.1-15,6.5-29.7,21.5-32.9
	c7.7-1.6,15.7,0.1,22.1,4.8c5.8-9.5,18.2-12.5,27.7-6.7c2.9,1.8,5.3,4.2,7,7.2c12.7-8.8,30.3-5.7,39.1,7.1
	c6.4,9.2,6.7,21.3,0.8,30.8c9.6,4.9,13.3,16.6,8.4,26.2c-4.4,8.6-14.4,12.6-23.6,9.5c-0.2,16-13.2,28.8-29.2,28.6
	c-8.8-0.1-17.2-4.2-22.6-11.2c-7.1,11-21.8,14-32.7,6.9c-8.1-5.2-12.1-14.9-10.3-24.4C29.5,2229.3,21.6,2224,17.8,2215.8z"/>
<path class="bcg-content-tablet0" d="M368.8,2560c5.9,20.9-6.2,42.6-27.1,48.5c-0.4,0.1-0.7,0.2-1.1,0.3c1.4,25.2-18,46.7-43.1,47.9
	c-12.9,0.7-25.5-4.1-34.6-13.2c-11.8,14-32.7,15.7-46.7,3.9c-4.2-3.6-7.5-8.3-9.6-13.4c-22.9,11.1-50.5,1.6-61.6-21.3
	c-8-16.5-5.5-36.1,6.4-50.1c-14.2-10.4-17.3-30.5-6.8-44.7c9.3-12.6,26.4-16.6,40.3-9.5c4.4-25.8,28.8-43.3,54.7-39
	c14.2,2.4,26.6,11.1,33.6,23.8c14.3-16,38.9-17.3,54.9-2.9c11.7,10.6,15.9,27.2,10.6,42.1C353.2,2535.2,364.8,2545.9,368.8,2560z"/>
<text transform="matrix(1 0 0 1 565.0261 2373.4399)" class="bcg-content-tablet1 bcg-content-tablet2 bcg-content-tablet3">:-)</text>
<path class="bcg-content-tablet4" d="M598.6,3704.4c-1.4,0-2.7-0.4-4-1l-18.3-10c-4-2.2-5.5-7.2-3.3-11.2l12.7-23.2c2.2-4,7.2-5.5,11.2-3.3l18.3,10
	c4,2.2,5.5,7.2,3.3,11.2l-12.7,23.2C604.4,3702.8,601.6,3704.4,598.6,3704.4L598.6,3704.4z"/>
<path class="bcg-content-tablet5" d="M593.1,3655.8c1.2,0,2.4,0.3,3.4,0.9l18.3,10c3.4,1.9,4.7,6.2,2.8,9.6l0,0l-12.7,23.2c-1.2,2.3-3.7,3.7-6.3,3.7
	c-1.2,0-2.4-0.3-3.4-0.9l-18.3-10c-3.4-1.9-4.7-6.2-2.8-9.6l0,0l12.7-23.2C588.1,3657.2,590.5,3655.8,593.1,3655.8 M593.1,3653.5
	c-3.5,0-6.7,1.9-8.3,4.9l-12.7,23.2c-2.5,4.6-0.8,10.3,3.7,12.8l0,0l18.3,10c4.6,2.5,10.3,0.8,12.8-3.7l0,0l12.7-23.2
	c2.5-4.6,0.8-10.3-3.7-12.8l0,0l-18.3-10C596.2,3653.9,594.6,3653.5,593.1,3653.5L593.1,3653.5z"/>
<rect x="502.8" y="3717.1" transform="matrix(0.4802 -0.8771 0.8771 0.4802 -2983.1707 2437.2537)" class="bcg-content-tablet6" width="124.1" height="37.4"/>
<path class="bcg-content-tablet5" d="M578.8,3674.1l30.7,16.8L551,3797.7l-30.7-16.8L578.8,3674.1 M577.9,3670.9l-1.1,2.1l-58.5,106.8l-1.1,2.1
	l2.1,1.1l30.7,16.8l2.1,1.1l1.1-2.1l58.5-106.8l1.1-2.1l-2.1-1.1L580,3672L577.9,3670.9z"/>
<rect x="576.9" y="3677.2" transform="matrix(0.4802 -0.8771 0.8771 0.4802 -2935.5977 2435.7527)" class="bcg-content-tablet7" width="21.1" height="35.3"/>
<path class="bcg-content-tablet8" d="M518.2,3822.1c-0.6,0-1.2-0.5-1.2-1.2c0,0,0,0,0-0.1l1.1-38.5c0-0.6,0.5-1.2,1.2-1.2c0.2,0,0.4,0.1,0.6,0.2
	l30.7,16.8c0.6,0.3,0.8,1,0.5,1.6c-0.1,0.2-0.2,0.3-0.4,0.4l-31.8,21.6C518.7,3822,518.5,3822.1,518.2,3822.1z"/>
<path class="bcg-content-tablet5" d="M519.4,3782.4l30.7,16.8l-31.8,21.6L519.4,3782.4 M519.4,3780.1c-1.3,0-2.3,1-2.4,2.3l-1.1,38.5
	c-0.1,1.3,1,2.4,2.3,2.4c0.5,0,1-0.1,1.4-0.4l31.8-21.6c1.1-0.7,1.4-2.2,0.6-3.3c-0.2-0.3-0.5-0.6-0.8-0.8l-30.7-16.8
	C520.1,3780.2,519.8,3780.1,519.4,3780.1L519.4,3780.1z"/>
<polygon class="bcg-content-tablet9" points="518.4,3810.6 527.1,3815.3 518.2,3821.4 "/>
<path class="bcg-content-tablet9" d="M612.9,3693.4l-0.3,0.5c-0.5,1-1.8,1.4-2.8,0.8l-34.1-18.7c-1-0.5-1.4-1.8-0.8-2.8l0.3-0.5
	c0.5-1,1.8-1.4,2.8-0.8l34.1,18.7C613.1,3691.1,613.4,3692.4,612.9,3693.4z"/>
<path class="bcg-content-tablet9" d="M600.3,3716.3l-0.3,0.5c-0.5,1-1.8,1.4-2.8,0.8l-34.1-18.7c-1-0.5-1.4-1.8-0.8-2.8l0.3-0.5
	c0.5-1,1.8-1.4,2.8-0.8l34.1,18.7C600.5,3714,600.9,3715.3,600.3,3716.3z"/>
<rect x="503" y="3743.4" transform="matrix(0.4802 -0.8771 0.8771 0.4802 -2998.781 2428.1772)" class="bcg-content-tablet5" width="92.8" height="2"/>
<rect x="519.4" y="3752.3" transform="matrix(0.4802 -0.8771 0.8771 0.4802 -2998.1184 2447.1707)" class="bcg-content-tablet5" width="92.8" height="2"/>
<path class="bcg-content-tablet10" d="M585,294.9c-9.2,0-17.9-4.2-23.7-11.3c-9,10.5-24.8,11.7-35.3,2.8c-6.7-5.8-10-14.7-8.4-23.4
	c-13.7-2.2-23.1-15.3-20.8-29c1.4-8.6,7.1-15.9,15.2-19.2c-1.8-16,9.7-30.4,25.7-32.3c1.1-0.1,2.2-0.2,3.2-0.2
	c6.1,0,12.1,1.9,17.1,5.5c7.4-9.3,20.9-10.9,30.3-3.4c2,1.6,3.7,3.6,5.1,5.8c14.2-7.8,32.1-2.7,39.9,11.6c5.1,9.3,4.8,20.6-0.8,29.6
	c9.4,6.5,11.8,19.6,5.2,29c-5.1,7.3-14.3,10.6-22.9,8.1c-1.4,10.9-8.6,20.2-18.8,24.3C592.6,294.2,588.8,294.9,585,294.9z"/>
<path class="bcg-content-tablet5" d="M574.9,181.1c7.5,0,14.5,4.2,17.9,11c13.1-8.1,30.3-4.1,38.5,9c5.8,9.4,5.5,21.5-0.8,30.6
	c9.2,5.4,12.3,17.3,6.9,26.5c-4.8,8.3-14.9,11.7-23.8,8.3c-1,15.9-14.7,27.9-30.6,26.9c-8.7-0.5-16.8-5.1-21.8-12.2
	c-7.7,10.5-22.4,12.8-32.9,5.1c-7.7-5.6-11.3-15.4-9-24.7c-13.1-1.3-22.6-12.9-21.4-26c0.9-8.8,6.6-16.5,14.9-19.8
	c0.2-0.1,0.4-0.2,0.6-0.2c-2.4-15.1,7.9-29.2,23-31.6c7.7-1.2,15.6,0.9,21.7,5.8C562.1,184.4,568.3,181.1,574.9,181.1 M574.9,178.2
	c-6.5,0-12.7,2.8-17.1,7.6c-5-3.3-10.9-5.1-16.9-5.1c-11,0-21.2,6-26.7,15.6c-2.9,5.3-4.3,11.3-3.8,17.4
	c-13.4,6.3-19.1,22.2-12.9,35.6c3.5,7.5,10.3,13,18.4,14.7c-1.8,14.5,8.6,27.7,23.1,29.5c8.2,1,16.4-1.9,22.2-7.8
	c11.7,13,31.7,14.2,44.8,2.5c5.2-4.7,8.8-11,10.1-18c12.1,2.5,23.9-5.2,26.4-17.3c1.7-8.3-1.4-16.8-8-22.1c8.3-14.9,3-33.7-11.9-42
	c-8.1-4.5-17.9-5.2-26.5-1.7c-0.8,0.3-1.5,0.6-2.2,1C589.6,181.9,582.6,178.1,574.9,178.2L574.9,178.2z"/>
<path class="bcg-content-tablet10" d="M542.5,267.9c0,0,18.8,19.3-1.8,39.8c0,0,27.6-5.4,34.2-26.9"/>
<path class="bcg-content-tablet5" d="M542.5,267.9c0.7,0.6,1.4,1.3,1.9,1.9c0.6,0.7,1.2,1.5,1.8,2.2c0.5,0.8,1.1,1.5,1.5,2.4
	c0.5,0.8,0.9,1.7,1.4,2.5c0.4,0.9,0.8,1.8,1.1,2.7c0.3,0.9,0.6,1.8,0.8,2.8c0.2,0.9,0.4,1.9,0.5,2.9l0.1,0.7l0.1,0.7
	c0,0.5,0.1,1,0.1,1.5c0,0.5,0,1-0.1,1.5l-0.1,1.5c-0.1,1-0.4,1.9-0.6,2.9c-0.2,0.9-0.5,1.9-0.9,2.8c-0.2,0.5-0.4,0.9-0.6,1.4
	l-0.3,0.6l-0.4,0.6l-0.6,1.3l-0.8,1.2c-0.5,0.8-1.1,1.6-1.7,2.4c-0.5,0.8-1.2,1.5-1.8,2.2c-0.6,0.8-1.3,1.4-1.9,2.1l-1.6-2.9
	c0.8-0.2,1.8-0.4,2.6-0.6c0.8-0.2,1.8-0.5,2.7-0.8c1.8-0.6,3.5-1.2,5.2-1.9c0.8-0.4,1.7-0.7,2.5-1.1l1.2-0.6l1.2-0.6
	c0.8-0.4,1.7-0.9,2.4-1.4c0.8-0.5,1.6-0.9,2.4-1.5l1.1-0.8l1.1-0.8c0.4-0.3,0.7-0.6,1.1-0.8c0.4-0.2,0.7-0.6,1.1-0.9l1.1-0.9l1-0.9
	c0.4-0.3,0.6-0.6,0.9-1c0.3-0.4,0.6-0.6,0.9-1l0.9-1.1l0.8-1.1c0.3-0.4,0.5-0.8,0.8-1.1c0.3-0.4,0.5-0.8,0.8-1.2l0.7-1.2
	c0.2-0.4,0.4-0.8,0.6-1.2c0.5-0.8,0.8-1.7,1.2-2.6l-0.4,1.4l-0.2,0.7l-0.2,0.7c-0.2,0.5-0.3,0.9-0.5,1.4l-0.5,1.4
	c-0.2,0.5-0.4,0.9-0.6,1.3c-0.2,0.4-0.4,0.9-0.7,1.3l-0.7,1.2l-0.8,1.2c-0.2,0.4-0.6,0.8-0.9,1.2c-0.3,0.4-0.6,0.8-0.9,1.1l-0.9,1.1
	l-1,1.1c-0.4,0.4-0.7,0.7-1.1,1s-0.7,0.6-1.1,1l-1.1,0.9l-1.1,0.9c-0.8,0.6-1.6,1.2-2.4,1.7c-0.8,0.5-1.7,1.1-2.5,1.5l-1.3,0.7
	l-1.3,0.7c-0.9,0.5-1.7,0.9-2.6,1.3c-1.8,0.8-3.6,1.5-5.4,2.2c-0.9,0.3-1.8,0.6-2.8,0.9c-0.9,0.3-1.9,0.5-2.9,0.7l-5.4,1.1l3.9-4.1
	c0.6-0.6,1.2-1.3,1.8-1.9c0.6-0.6,1.2-1.4,1.7-2.1c0.5-0.7,1.1-1.4,1.5-2.1l0.7-1.1l0.6-1.1l0.4-0.6l0.3-0.6
	c0.2-0.4,0.4-0.8,0.5-1.2c0.4-0.8,0.6-1.7,0.9-2.5c0.3-0.8,0.4-1.7,0.6-2.5l0.2-1.3c0.1-0.4,0.1-0.9,0.1-1.3c0-0.4,0.1-0.9,0.1-1.3
	V286v-0.6c0-0.5,0-0.9-0.1-1.3c-0.1-0.4-0.1-0.9-0.1-1.3c-0.1-0.9-0.3-1.8-0.5-2.7c-0.1-0.4-0.2-0.9-0.4-1.3l-0.4-1.3
	c-0.3-0.9-0.6-1.7-0.9-2.5c-0.4-0.8-0.8-1.7-1.2-2.5s-0.9-1.7-1.4-2.4C543.7,269.3,543.1,268.7,542.5,267.9z"/>
<path class="bcg-content-tablet10" d="M50.1,594.6c-11.4,0-21.4-7.8-24.1-19c-8.9,3.4-18.8-1.2-22.1-10c-1.3-3.5-1.5-7.3-0.4-10.8
	c0.9-3.2,2.7-6,5.2-8.1c-8-10.7-5.8-25.8,4.9-33.7c6.8-5.1,15.9-6.2,23.7-2.9c3.8-7.7,12.6-11.6,20.8-9.2c2.9,0.8,5.5,2.4,7.6,4.5
	c6.1-5.3,14.5-7.1,22.3-4.9c10.3,2.9,17.4,12.4,17.3,23.1c10.9,3.5,16.9,15.2,13.4,26.1c-2.1,6.7-7.4,11.7-14.2,13.6
	c0.9,3.6,0.9,7.4-0.1,11c-2.5,8.8-10.6,14.8-19.8,14.9l0,0c-5.2,0-10.2-1.9-14-5.5C66.1,590.4,58.4,594.5,50.1,594.6z"/>
<path class="bcg-content-tablet5" d="M81.4,500.9c12.4,0,22.4,10,22.4,22.4c0,0.4,0,0.9-0.1,1.3l0.5,0.1c10.2,2.9,16.1,13.6,13.2,23.9
	c-2,6.9-7.7,12.1-14.7,13.6c3.5,9.9-1.7,20.8-11.6,24.4c-7.3,2.6-15.5,0.5-20.6-5.3c-6.3,11.2-20.5,15.2-31.7,8.9
	c-6.2-3.5-10.4-9.6-11.6-16.6c-7.7,4-17.2,0.8-21.1-6.9c-3.5-6.9-1.5-15.3,4.8-19.8c-8.1-9.6-6.9-23.8,2.6-31.9
	c6.9-5.8,16.6-7,24.7-3c3.2-8.4,12.7-12.5,21.1-9.3c2.5,1,4.8,2.6,6.5,4.7C69.8,503.2,75.5,500.9,81.4,500.9 M81.4,497.8
	c-5.7,0-11.1,1.9-15.6,5.4c-8-7-20.1-6.1-27.1,1.9c-0.8,0.9-1.5,1.9-2.1,2.9c-0.5-0.2-1-0.4-1.5-0.5c-13.6-3.9-27.8,3.9-31.7,17.5
	c-2.1,7.3-0.9,15,3.3,21.3c-2.2,2.2-3.8,5-4.7,8c-2.9,9.9,2.8,20.2,12.7,23.1c3.4,0.9,6.9,1,10.2,0.1c4.2,13.9,18.9,21.6,32.8,17.4
	c5.2-1.6,9.8-4.8,13.2-9.1c9.5,7.6,23.4,6,31-3.5c4-5.1,5.7-11.7,4.4-18c11.6-4.1,17.7-16.8,13.6-28.4c-2.2-6.2-7-11.1-13.2-13.4
	C106.2,508.7,95,497.9,81.4,497.8L81.4,497.8z"/>
<path class="bcg-content-tablet10" d="M84.6,569c0,0-13.6,17,4.6,32c0,0-22.7-2.2-29.7-19"/>
<path class="bcg-content-tablet5" d="M84.6,569c-0.4,0.6-0.7,1.3-1.1,2c-0.3,0.7-0.6,1.4-0.9,2.1c-0.2,0.7-0.5,1.4-0.7,2.1s-0.4,1.4-0.5,2.1
	c-0.1,0.7-0.3,1.4-0.4,2.1c-0.1,0.7-0.1,1.4-0.2,2.1c0,0.7,0,1.4,0.1,2.1c0,0.4,0.1,0.7,0.1,1.1s0.1,0.7,0.2,1.1
	c0.1,0.4,0.1,0.7,0.2,1l0.3,1c0.2,0.6,0.5,1.3,0.7,1.9c0.2,0.6,0.6,1.2,0.9,1.9c0.2,0.3,0.4,0.6,0.5,0.9l0.3,0.5l0.3,0.4l0.6,0.9
	l0.6,0.8c0.4,0.6,0.9,1.1,1.4,1.6s1,1,1.5,1.5l1.7,1.4l4.2,3.7l-5.5-0.6c-0.9-0.1-1.7-0.2-2.4-0.4c-0.8-0.1-1.5-0.3-2.4-0.5
	c-1.5-0.4-3.1-0.8-4.6-1.4c-0.8-0.2-1.5-0.5-2.2-0.8l-1.1-0.5l-1.1-0.5c-0.7-0.4-1.4-0.7-2.1-1.1c-0.7-0.4-1.4-0.8-2.1-1.2l-1-0.6
	l-0.9-0.6c-0.3-0.2-0.6-0.5-0.9-0.7c-0.3-0.2-0.6-0.5-0.9-0.8l-0.9-0.8l-0.9-0.8c-0.3-0.3-0.5-0.6-0.8-0.9c-0.3-0.3-0.5-0.6-0.8-0.9
	l-0.7-0.9l-0.7-1c-0.2-0.3-0.4-0.6-0.6-1c-0.2-0.4-0.4-0.6-0.6-1l-0.5-1.1c-0.2-0.4-0.3-0.7-0.5-1.1c-0.2-0.4-0.3-0.7-0.4-1.1
	c-0.1-0.4-0.2-0.8-0.4-1.1c0.4,0.6,0.8,1.4,1.2,1.9c0.2,0.3,0.4,0.6,0.6,0.9l0.7,0.9c0.2,0.3,0.5,0.6,0.7,0.9
	c0.2,0.3,0.5,0.6,0.8,0.8l0.8,0.8l0.8,0.8c0.3,0.2,0.5,0.5,0.8,0.7c0.3,0.2,0.6,0.5,0.9,0.7l0.9,0.7l0.9,0.6
	c0.6,0.4,1.2,0.8,1.9,1.2c0.6,0.4,1.3,0.7,1.9,1.1c0.6,0.4,1.3,0.6,2,0.9c0.7,0.3,1.4,0.6,2.1,0.9c0.7,0.3,1.4,0.5,2.1,0.8
	s1.4,0.5,2.1,0.7c1.4,0.4,2.9,0.8,4.3,1.1c0.7,0.2,1.5,0.3,2.2,0.4c0.7,0.1,1.5,0.2,2.1,0.3l-1.3,3.1c-0.6-0.5-1.2-1.1-1.8-1.6
	s-1.1-1.1-1.7-1.7c-0.5-0.6-1.1-1.2-1.5-1.8l-0.7-0.9l-0.6-1l-0.3-0.5l-0.3-0.5c-0.2-0.4-0.4-0.7-0.6-1.1c-0.4-0.7-0.6-1.5-0.9-2.2
	c-0.3-0.8-0.5-1.5-0.7-2.4l-0.2-1.2c-0.1-0.4-0.1-0.8-0.2-1.2c-0.1-0.4-0.1-0.8-0.1-1.2s0-0.8,0-1.2c0-0.8,0.1-1.6,0.2-2.4
	c0.1-0.8,0.2-1.5,0.5-2.4c0.2-0.8,0.4-1.5,0.7-2.2c0.3-0.7,0.6-1.5,0.9-2.1c0.4-0.7,0.7-1.4,1.1-2.1c0.4-0.6,0.8-1.3,1.3-1.9
	C83.6,570.2,84.1,569.6,84.6,569z"/>
<ellipse transform="matrix(0.9587 -0.2844 0.2844 0.9587 -150.6498 44.0986)" class="bcg-content-tablet5" cx="76.5" cy="540.8" rx="3.8" ry="3.8"/>
<ellipse transform="matrix(0.9587 -0.2844 0.2844 0.9587 -152.3897 40.3642)" class="bcg-content-tablet5" cx="62.8" cy="544.9" rx="3.8" ry="3.8"/>
<ellipse transform="matrix(0.9587 -0.2844 0.2844 0.9587 -154.1137 36.6236)" class="bcg-content-tablet5" cx="49.1" cy="549" rx="3.8" ry="3.8"/>
<text transform="matrix(1 0 0 1 545.4286 251.8054)" class="bcg-content-tablet5 bcg-content-tablet2 bcg-content-tablet11">:-)</text>
</svg>
