<svg xmlns="http://www.w3.org/2000/svg" viewBox="0 0 967.73 582.96"><defs><style>.img-content-1{fill:#d74138;}.img-content-1,.img-content-10,.img-content-11,.img-content-12,.img-content-13,.img-content-2,.img-content-3,.img-content-4{stroke:#2b304b;}.img-content-1,.img-content-2,.img-content-3,.img-content-4{stroke-miterlimit:10;}.img-content-1,.img-content-10,.img-content-12,.img-content-2,.img-content-3{stroke-width:4px;}.img-content-2{fill:#efefef;}.img-content-3{fill:#50ae98;}.img-content-4{fill:none;stroke-width:7px;}.img-content-11,.img-content-12,.img-content-13,.img-content-4{stroke-linecap:round;}.img-content-5{fill:#da6346;}.img-content-6{fill:#2b304b;}.img-content-12,.img-content-13,.img-content-7{fill:#e9b258;}.img-content-10,.img-content-8{fill:#9fa4b7;}.img-content-9{fill:#dedee0;}.img-content-10,.img-content-11,.img-content-12,.img-content-13{stroke-linejoin:round;}.img-content-11{fill:#e29017;}.img-content-11,.img-content-13{stroke-width:3px;}</style></defs><title>img-content</title><g id="Warstwa_2" data-name="Warstwa 2"><g id="Warstwa_3" data-name="Warstwa 3"><rect class="img-content-1" x="71.54" y="18.63" width="825.1" height="520.73" rx="17.95" ry="17.95"/><rect class="img-content-2" x="89.21" y="34" width="392" height="490" rx="12" ry="12"/><rect class="img-content-2" x="482.21" y="34" width="392" height="490" rx="12" ry="12"/><path class="img-content-3" d="M568.81,116.38l-16.75-14.17a4,4,0,0,0-5.21,0l-16.75,14.17a4,4,0,0,1-6.64-3.08V6a4,4,0,0,1,4-4h43.93a4,4,0,0,1,4,4V113.3A4,4,0,0,1,568.81,116.38Z"/><line class="img-content-4" x1="131.45" y1="75.5" x2="260.45" y2="75.5"/><line class="img-content-4" x1="274.45" y1="75.5" x2="327.45" y2="75.5"/><line class="img-content-4" x1="131.86" y1="185.5" x2="219.53" y2="185.5"/><line class="img-content-4" x1="131.86" y1="130.5" x2="241.53" y2="130.5"/><line class="img-content-4" x1="256.2" y1="130.5" x2="302.36" y2="130.5"/><line class="img-content-4" x1="131.86" y1="103" x2="170.2" y2="103"/><line class="img-content-4" x1="184.53" y1="103" x2="277.53" y2="103"/><line class="img-content-4" x1="291.53" y1="103" x2="426.86" y2="103"/><line class="img-content-4" x1="131.86" y1="240.5" x2="170.2" y2="240.5"/><line class="img-content-4" x1="184.53" y1="240.5" x2="277.53" y2="240.5"/><line class="img-content-4" x1="291.53" y1="240.5" x2="426.86" y2="240.5"/><line class="img-content-4" x1="281.29" y1="158" x2="368.96" y2="158"/><line class="img-content-4" x1="131.86" y1="158" x2="267.2" y2="158"/><line class="img-content-4" x1="281.29" y1="213" x2="368.96" y2="213"/><line class="img-content-4" x1="131.86" y1="213" x2="267.2" y2="213"/><line class="img-content-4" x1="514.86" y1="185.5" x2="602.53" y2="185.5"/><line class="img-content-4" x1="514.86" y1="240.5" x2="553.19" y2="240.5"/><line class="img-content-4" x1="567.53" y1="240.5" x2="660.53" y2="240.5"/><line class="img-content-4" x1="674.53" y1="240.5" x2="809.86" y2="240.5"/><line class="img-content-4" x1="664.29" y1="158" x2="751.96" y2="158"/><line class="img-content-4" x1="514.86" y1="158" x2="650.19" y2="158"/><line class="img-content-4" x1="664.29" y1="213" x2="751.96" y2="213"/><line class="img-content-4" x1="514.86" y1="213" x2="650.19" y2="213"/><line class="img-content-4" x1="131.45" y1="268.5" x2="260.45" y2="268.5"/><line class="img-content-4" x1="274.45" y1="268.5" x2="327.45" y2="268.5"/><line class="img-content-4" x1="131.86" y1="378.5" x2="219.53" y2="378.5"/><line class="img-content-4" x1="131.86" y1="323.5" x2="241.53" y2="323.5"/><line class="img-content-4" x1="256.2" y1="323.5" x2="302.36" y2="323.5"/><line class="img-content-4" x1="602.53" y1="130.5" x2="712.19" y2="130.5"/><line class="img-content-4" x1="726.86" y1="130.5" x2="773.03" y2="130.5"/><line class="img-content-4" x1="131.86" y1="296" x2="170.2" y2="296"/><line class="img-content-4" x1="184.53" y1="296" x2="277.53" y2="296"/><line class="img-content-4" x1="131.86" y1="433.5" x2="170.2" y2="433.5"/><line class="img-content-4" x1="184.53" y1="433.5" x2="277.53" y2="433.5"/><line class="img-content-4" x1="291.53" y1="433.5" x2="426.86" y2="433.5"/><line class="img-content-4" x1="281.29" y1="351" x2="368.96" y2="351"/><line class="img-content-4" x1="131.86" y1="351" x2="267.2" y2="351"/><line class="img-content-4" x1="281.29" y1="406" x2="368.96" y2="406"/><line class="img-content-4" x1="131.86" y1="406" x2="267.2" y2="406"/><path class="img-content-5" d="M37.56,381.36a14,14,0,0,1-12.31-7.27L3.72,334.78a14,14,0,0,1,5.56-19l31-17a14,14,0,0,1,19,5.56l21.53,39.32a14,14,0,0,1-5.56,19l-31,17A14,14,0,0,1,37.56,381.36Z"/><path class="img-content-6" d="M47,299.07a12,12,0,0,1,10.56,6.23l21.53,39.32a12,12,0,0,1-4.76,16.29l-31,17a11.9,11.9,0,0,1-5.73,1.47A12,12,0,0,1,27,373.13L5.47,333.82a12,12,0,0,1,4.76-16.29l31-17A11.9,11.9,0,0,1,47,299.07m0-4h0a16,16,0,0,0-7.65,2l-31,17A16,16,0,0,0,2,335.74l21.53,39.32a16,16,0,0,0,21.72,6.35l31-17a16,16,0,0,0,6.35-21.72L61.07,303.37A16,16,0,0,0,47,295.07Z"/><rect class="img-content-7" x="62.96" y="329.63" width="63.39" height="210.46" transform="translate(-197.23 98.9) rotate(-28.71)"/><path class="img-content-6" d="M71.12,330.05l99.16,181.08-52.09,28.52L19,358.57l52.09-28.52m1.59-5.43-3.51,1.92L17.11,355.07,13.6,357l1.92,3.51,99.16,181.08,1.92,3.51,3.51-1.92,52.09-28.52,3.51-1.92-1.92-3.51L74.63,328.13l-1.92-3.51Z"/><rect class="img-content-8" x="38.52" y="335.06" width="35.72" height="59.82" transform="translate(349.42 140.22) rotate(61.3)"/><path class="img-content-9" d="M173.83,581a2,2,0,0,1-1.12-.35l-54-36.72a2,2,0,0,1,.16-3.41L171,512a2,2,0,0,1,3,1.7l1.87,65.24a2,2,0,0,1-2,2.06Z"/><path class="img-content-6" d="M172,513.72,173.83,579l-54-36.72L172,513.72m0-4a4,4,0,0,0-1.92.49l-52.09,28.52a4,4,0,0,0-.33,6.82l54,36.72a4,4,0,0,0,6.25-3.42L176,513.61a4,4,0,0,0-4-3.89Z"/><polygon class="img-content-10" points="173.54 561.46 158.83 569.52 173.91 579.74 173.54 561.46"/><rect class="img-content-10" x="41.64" y="308.88" width="8.06" height="73.02" rx="3.51" ry="3.51" transform="translate(326.68 139.45) rotate(61.3)"/><rect class="img-content-10" x="62.87" y="347.66" width="8.06" height="73.02" rx="3.51" ry="3.51" transform="translate(371.73 140.98) rotate(61.3)"/><rect class="img-content-6" x="42.07" y="447.27" width="157.38" height="3.44" transform="translate(456.57 127.42) rotate(61.3)"/><rect class="img-content-6" x="14.4" y="462.42" width="157.38" height="3.44" transform="translate(455.48 159.56) rotate(61.3)"/><rect class="img-content-11" x="756.56" y="429" width="11.72" height="29.04" transform="translate(1467.06 -87.03) rotate(112.83)"/><rect class="img-content-6" x="819.9" y="349.74" width="31.44" height="5.82" rx="2.73" ry="2.73" transform="translate(1484.91 -280.64) rotate(112.83)"/><rect class="img-content-11" x="820.75" y="321.6" width="44.23" height="27.71" rx="12" ry="12" transform="translate(1479.12 -311.17) rotate(112.83)"/><path class="img-content-12" d="M845.61,408.6l-57.17-24.07C769.28,444.68,763.36,489,775.88,494.29S816,464.34,845.61,408.6Z"/><rect class="img-content-11" x="830" y="276.96" width="50.98" height="57.01" rx="12" ry="12" transform="translate(1469.01 -364.44) rotate(112.83)"/><path class="img-content-7" d="M887.18,315.36a2,2,0,0,1-.78-.16l-59.66-25.12a2,2,0,0,1-1.12-2.48c6.71-19.81,14.76-40.91,23.94-62.72,18.83-44.72,39.79-86,59-116.18,13.73-21.57,32.81-47.28,45.79-47.28a8.94,8.94,0,0,1,3.49.68c12.21,5.14,7.92,37.12,2.17,63-7.93,35.75-23.23,81.4-43.08,128.54-9.08,21.56-18.49,41.94-28,60.59A2,2,0,0,1,887.18,315.36Z"/><path class="img-content-6" d="M954.37,63.42a6.93,6.93,0,0,1,2.72.53c17.63,7.42-1,91.61-42,189-9.32,22.13-18.71,42.36-27.92,60.46l-59.66-25.12C834,269,842.1,247.78,851.41,225.65c39-92.71,83.57-162.23,103-162.23m0-4c-11.15,0-27.13,16.22-47.48,48.2-19.28,30.29-40.29,71.66-59.16,116.48-9.2,21.85-17.27,43-24,62.85a4,4,0,0,0,2.24,5L885.63,317a4,4,0,0,0,5.12-1.87c9.51-18.69,18.94-39.11,28-60.72,19.89-47.25,35.23-93,43.19-128.88,3.91-17.61,5.84-32,5.75-42.69-.11-12.69-3.09-20.09-9.09-22.62a10.93,10.93,0,0,0-4.27-.84Z"/><rect class="img-content-13" x="712.45" y="398.05" width="107.09" height="10.12" rx="4.75" ry="4.75" transform="translate(1434.78 -146.41) rotate(112.83)"/></g></g></svg>
