<svg height="330.8px" style="enable-background:new 0 0 2000 330.8;" version="1.1" viewBox="0 0 2000 330.8" width="2000px" x="0px" xml:space="preserve" xmlns="http://www.w3.org/2000/svg" xmlns:a="http://ns.adobe.com/AdobeSVGViewerExtensions/3.0/" xmlns:xlink="http://www.w3.org/1999/xlink" y="0px">
  <style type="text/css">
    .logo .st0 {
      fill:#16214C;
    }
    .logo .st1 {
      fill:#27A8E0;
    }
  </style>
  <defs/>
  <g class="logo">
    <g>
      <polygon class="st0" points="1505.8,175.4 1600.5,175.4 1600.5,154 1505.8,154 1505.8,99.2 1607.2,99.2 1607.2,77.7 1480.4,77.7 1480.4,259.2 1610.5,259.2 1610.5,237.8 1505.8,237.8 "/>
      <path class="st0" d="M593.4,217.2c-6.5,8.7-14.6,15.1-24.2,19c-9.7,4-20.2,6-31,6c-12.1,0-23.2-2-32.8-6 c-9.6-4-17.9-9.4-24.6-16.1c-6.7-6.7-11.9-14.6-15.5-23.5s-5.5-18.3-5.5-28.2s1.8-19.3,5.3-28.2c3.5-8.8,8.7-16.7,15.4-23.5 c6.7-6.7,15-12.1,24.6-16.1c9.7-4,20.8-6,33.1-6c6,0,11.7,0.6,16.9,1.9s10.1,3,14.5,5s8.2,4.4,11.4,7.1c3.2,2.6,5.8,5.3,7.7,7.9 l1.6,2.2l21.3-14l-1.8-2.4c-3.5-4.5-7.9-8.6-13.1-12.2c-5.1-3.5-10.9-6.6-17.1-9.1c-6.2-2.5-12.9-4.4-20-5.8 c-7-1.4-14.3-2.1-21.7-2.1c-14.8,0-28.7,2.4-41.4,7.1c-12.7,4.8-23.9,11.4-33.2,19.8c-9.4,8.4-16.8,18.5-22.1,30.1 c-5.3,11.6-8,24.4-8,38.2s2.6,26.6,7.8,38.2c5.2,11.5,12.5,21.7,21.8,30.1c9.3,8.4,20.4,15.1,33.2,19.8 c12.8,4.7,26.8,7.1,41.8,7.1c9,0,17.4-0.9,25.1-2.7c7.6-1.8,14.7-4.3,21-7.4s12-6.8,16.9-10.9c4.9-4.1,9-8.5,12.4-13.1l1.8-2.5 l-20.3-11.7L593.4,217.2z"/>
      <path class="st0" d="M819.6,100.2c-9.3-8.4-20.5-15.1-33.2-19.8c-12.7-4.7-26.6-7.1-41.4-7.1c-14.8,0-28.7,2.4-41.4,7.1 c-12.7,4.8-23.9,11.4-33.2,19.8c-9.4,8.4-16.8,18.5-22.1,30.1s-8,24.4-8,38.2s2.7,26.6,8,38.2c5.3,11.5,12.7,21.7,22.1,30.1 c9.3,8.4,20.5,15.1,33.2,19.8c12.7,4.7,26.6,7.1,41.4,7.1c14.8,0,28.7-2.4,41.4-7.1c12.7-4.7,23.8-11.4,33.2-19.8 c9.4-8.4,16.8-18.6,22.1-30.1c5.3-11.6,8-24.4,8-38.2s-2.7-26.6-8-38.2C836.4,118.7,829,108.6,819.6,100.2z M745,242.2 c-12.1,0-23.1-2-32.8-6c-9.6-4-17.9-9.4-24.6-16c-6.7-6.6-11.9-14.5-15.4-23.4s-5.3-18.4-5.3-28.3c0-9.9,1.8-19.4,5.3-28.2 c3.5-8.9,8.7-16.8,15.4-23.5s15-12.2,24.6-16.1c9.7-4,20.7-6,32.8-6s23.1,2,32.8,6s17.9,9.4,24.6,16.1 c6.7,6.7,11.9,14.6,15.4,23.5s5.3,18.4,5.3,28.3c0,9.9-1.8,19.4-5.3,28.3c-3.5,8.9-8.7,16.7-15.4,23.4s-15,12.1-24.6,16 C768.1,240.2,757.1,242.2,745,242.2z"/>
      <path class="st0" d="M1031.2,100.3c-10.1-7.5-21.5-13.2-34-17c-12.5-3.7-25-5.6-37.4-5.6h-67.6v181.5h67.6c12.4,0,25-1.9,37.4-5.6 c12.5-3.7,23.9-9.4,34-17s18.4-17.1,24.6-28.3c6.3-11.3,9.5-24.7,9.5-39.9c0-15-3.2-28.4-9.5-39.7 C1049.6,117.4,1041.3,107.9,1031.2,100.3z M1038.8,168.5c0,8.7-1.7,17.3-5.2,25.5c-3.4,8.2-8.6,15.6-15.5,22s-15.7,11.7-26.3,15.7 s-23.3,6-37.5,6h-36.7V99.2h36.7c14.3,0,27,2,37.5,6c10.6,4,19.4,9.3,26.3,15.7c6.9,6.4,12.1,13.8,15.5,22 C1037,151.2,1038.8,159.8,1038.8,168.5z"/>
      <path class="st0" d="M1399.5,162.9c6.5-2.6,12-6.4,16.5-11.3c6.7-7.4,10.2-16.1,10.2-26.1c0-9.3-2.1-17.1-6.1-23.4 c-4-6.1-9.2-11.1-15.6-14.7c-6.2-3.5-13.4-6.1-21.1-7.5c-7.8-1.4-15.5-2.2-22.9-2.2h-61v181.5h60.6c11.4,0,21.8-1.2,31-3.6 c9.3-2.4,17.3-5.8,23.7-10.2c6.6-4.4,11.7-10,15.3-16.4c3.6-6.4,5.5-13.6,5.5-21.3c0-13.7-4.5-24.7-13.5-32.7 C1415.8,169.3,1408.2,165.2,1399.5,162.9z M1397.5,139.9c-2.2,3.6-5.2,6.5-8.9,8.7c-3.8,2.2-8,3.8-12.5,4.8 c-4.6,1-9.3,1.4-13.9,1.4h-37.3V98.7h31.8c6.2,0,12.2,0.5,17.7,1.6c5.4,1,10.1,2.7,14,5c3.8,2.3,6.9,5.2,9.2,8.7 c2.2,3.4,3.3,7.7,3.3,12.8C1400.8,131.9,1399.7,136.4,1397.5,139.9z M1410.2,206.7c0,5.5-1.3,10.3-4,14.2c-2.7,4-6.3,7.3-10.8,9.8 c-4.6,2.6-10,4.5-16.3,5.7s-13.1,1.8-20.1,1.8h-34.2v-63.3h37.8c15.4,0,27.4,2.7,35.6,8.1C1406.3,188.3,1410.2,196,1410.2,206.7z"/>
      <path class="st0" d="M1741.5,77.7l-87.1,181.5h28l21.3-46.2h97.5l21.5,46.2h28.2l-86.6-181.5L1741.5,77.7L1741.5,77.7z M1791.1,191h-77.5l38.8-84.1L1791.1,191z"/>
      <polygon class="st0" points="1843.7,77.7 1843.7,99.2 1909.2,99.2 1909.2,259.2 1934.6,259.2 1934.6,99.2 2000,99.2 2000,77.7 "/>
      <g>
        <rect class="st0" height="21.4" width="130.1" x="1115.3" y="154"/>
        <rect class="st0" height="21.4" width="130.1" x="1115.3" y="77.7"/>
        <rect class="st0" height="21.4" width="130.1" x="1115.3" y="237.8"/>
      </g>
    </g>
    <g>
      <path class="st1" d="M281.5,180L226,274.9l-44-138.1L133,243l-27.2-91.5l-92.6,78.6c25.2,59.1,84,100.7,152.2,100.7 c89.4,0,162.5-71.4,165.3-160.2L281.5,180z"/>
      <path class="st1" d="M116.3,99.1l19,94.5L186,49.3l46.7,173l44.1-65.9l53.8-0.3C325.7,69.2,253.5,0,165.4,0C74.2,0,0,74.2,0,165.4 c0,17.4,2.7,34.2,7.7,50L116.3,99.1z"/>
    </g>
  </g>
</svg>
