<?xml version="1.0" encoding="utf-8"?>
<svg version="1.1" id="Warstwa_1" xmlns="http://www.w3.org/2000/svg" xmlns:xlink="http://www.w3.org/1999/xlink" x="0px" y="0px"
	 viewBox="0 0 2003.6 2466" style="enable-background:new 0 0 2003.6 2466;" xml:space="preserve">
<style type="text/css">
	.bcg-fronten0{fill:#1E2333;}
	.bcg-fronten1{fill:#2B304B;}
	.bcg-fronten2{font-family:'AlegaOffc';}
	.bcg-fronten3{font-size:53.1037px;}
	.bcg-fronten4{fill:#DEDEE0;}
	.bcg-fronten5{fill:#50AE98;}
	.bcg-fronten6{fill:#73CEDD;}
	.bcg-fronten7{fill:#E9B258;}
	.bcg-fronten8{fill:#24737A;}
</style>
<title>Zasób 1</title>
<path class="bcg-fronten0" d="M1425.1,838.3h66.8c5,0,9.1,4.1,9.1,9.1v66.8c0,5-4.1,9.1-9.1,9.1h-66.8c-5,0-9.1-4.1-9.1-9.1v-66.8
	C1416,842.4,1420.1,838.3,1425.1,838.3z"/>
<text transform="matrix(1 0 0 1 1447.0114 897.5341)" class="bcg-fronten1 bcg-fronten2 bcg-fronten3">T</text>
<path class="bcg-fronten4" d="M2168.7,641.9h114.8c3.7,0,6.7,3,6.7,6.7l0,0c0,3.7-3,6.7-6.7,6.7h-114.8c-3.7,0-6.7-3-6.7-6.7l0,0
	C2161.9,644.9,2165,641.9,2168.7,641.9z"/>
<path class="bcg-fronten5" d="M2311.9,641.9h114.8c3.7,0,6.7,3,6.7,6.7l0,0c0,3.7-3,6.7-6.7,6.7h-114.8c-3.7,0-6.7-3-6.7-6.7l0,0
	C2305.2,644.9,2308.2,641.9,2311.9,641.9z"/>
<path class="bcg-fronten4" d="M2168.7,673.8H2396c3.7,0,6.7,3,6.7,6.7l0,0c0,3.7-3,6.7-6.7,6.7h-227.3c-3.7,0-6.7-3-6.7-6.7l0,0
	C2161.9,676.9,2165,673.8,2168.7,673.8z"/>
<path class="bcg-fronten6" d="M2168.7,704.1h140.7c3.7,0,6.7,3,6.7,6.7l0,0c0,3.7-3,6.7-6.7,6.7h-140.7c-3.7,0-6.7-3-6.7-6.7l0,0
	C2161.9,707.2,2165,704.1,2168.7,704.1z"/>
<path class="bcg-fronten4" d="M2168.7,734.3h114.8c3.7,0,6.7,3,6.7,6.7l0,0c0,3.7-3,6.7-6.7,6.7h-114.8c-3.7,0-6.7-3-6.7-6.7l0,0
	C2161.9,737.3,2165,734.3,2168.7,734.3z"/>
<path class="bcg-fronten7" d="M2311.9,734.3h414.3c3.7,0,6.7,3,6.7,6.7l0,0c0,3.7-3,6.7-6.7,6.7h-414.3c-3.7,0-6.7-3-6.7-6.7l0,0
	C2305.2,737.3,2308.2,734.3,2311.9,734.3z"/>
<path class="bcg-fronten5" d="M2168.7,766.3H2396c3.7,0,6.7,3,6.7,6.7l0,0c0,3.7-3,6.7-6.7,6.7h-227.3c-3.7,0-6.7-3-6.7-6.7l0,0
	C2161.9,769.3,2165,766.3,2168.7,766.3z"/>
<path class="bcg-fronten6" d="M2425.7,766.3h140.7c3.7,0,6.7,3,6.7,6.7l0,0c0,3.7-3,6.7-6.7,6.7h-140.7c-3.7,0-6.7-3-6.7-6.7l0,0
	C2419,769.3,2422,766.3,2425.7,766.3z"/>
<path class="bcg-fronten7" d="M-94.9,515.7H19.9c3.7,0,6.7,3,6.7,6.7l0,0c0,3.7-3,6.7-6.7,6.7H-94.9c-3.7,0-6.7-3-6.7-6.7l0,0
	C-101.6,518.7-98.6,515.7-94.9,515.7z"/>
<path class="bcg-fronten5" d="M48.4,515.7h114.8c3.7,0,6.7,3,6.7,6.7l0,0c0,3.7-3,6.7-6.7,6.7H48.4c-3.7,0-6.7-3-6.7-6.7l0,0
	C41.6,518.7,44.6,515.7,48.4,515.7z"/>
<path class="bcg-fronten8" d="M-94.9,547.7h227.3c3.7,0,6.7,3,6.7,6.7l0,0c0,3.7-3,6.7-6.7,6.7H-94.9c-3.7,0-6.7-3-6.7-6.7l0,0
	C-101.6,550.7-98.6,547.7-94.9,547.7z"/>
<path class="bcg-fronten6" d="M-94.9,578H45.8c3.7,0,6.7,3,6.7,6.7l0,0c0,3.7-3,6.7-6.7,6.7H-94.9c-3.7,0-6.7-3-6.7-6.7l0,0
	C-101.6,581-98.6,578-94.9,578z"/>
<path class="bcg-fronten5" d="M-49.6,858.6h227.3c3.7,0,6.7,3,6.7,6.7l0,0c0,3.7-3,6.7-6.7,6.7H-49.6c-3.7,0-6.7-3-6.7-6.7l0,0
	C-56.3,861.6-53.3,858.6-49.6,858.6z"/>
<path class="bcg-fronten8" d="M-51.7,828.5H89.1c3.7,0,6.7,3,6.7,6.7l0,0c0,3.7-3,6.7-6.7,6.7H-51.7c-3.7,0-6.7-3-6.7-6.7l0,0
	C-58.4,831.5-55.4,828.5-51.7,828.5z"/>
<path class="bcg-fronten4" d="M-94.9,608.1H19.9c3.7,0,6.7,3,6.7,6.7l0,0c0,3.7-3,6.7-6.7,6.7H-94.9c-3.7,0-6.7-3-6.7-6.7l0,0
	C-101.6,611.1-98.6,608.1-94.9,608.1z"/>
<path class="bcg-fronten7" d="M48.4,608.1h414.3c3.7,0,6.7,3,6.7,6.7l0,0c0,3.7-3,6.7-6.7,6.7H48.4c-3.7,0-6.7-3-6.7-6.7l0,0
	C41.6,611.1,44.6,608.1,48.4,608.1z"/>
<path class="bcg-fronten6" d="M-94.9,640.1h227.3c3.7,0,6.7,3,6.7,6.7l0,0c0,3.7-3,6.7-6.7,6.7H-94.9c-3.7,0-6.7-3-6.7-6.7l0,0
	C-101.6,643.1-98.6,640.1-94.9,640.1z"/>
<path class="bcg-fronten7" d="M-41.7,672.1H73.1c3.7,0,6.7,3,6.7,6.7l0,0c0,3.7-3,6.7-6.7,6.7H-41.7c-3.7,0-6.7-3-6.7-6.7l0,0
	C-48.4,675.1-45.4,672.1-41.7,672.1z"/>
<path class="bcg-fronten8" d="M-41.7,704.1h227.3c3.7,0,6.7,3,6.7,6.7l0,0c0,3.7-3,6.7-6.7,6.7H-41.7c-3.7,0-6.7-3-6.7-6.7l0,0
	C-48.4,707.1-45.4,704.1-41.7,704.1z"/>
<path class="bcg-fronten6" d="M-41.7,734.4H99c3.7,0,6.7,3,6.7,6.7l0,0c0,3.7-3,6.7-6.7,6.7H-41.7c-3.7,0-6.7-3-6.7-6.7l0,0
	C-48.4,737.4-45.4,734.4-41.7,734.4z"/>
<path class="bcg-fronten4" d="M-41.7,764.5H73.1c3.7,0,6.7,3,6.7,6.7l0,0c0,3.7-3,6.7-6.7,6.7H-41.7c-3.7,0-6.7-3-6.7-6.7l0,0
	C-48.4,767.5-45.4,764.5-41.7,764.5z"/>
<path class="bcg-fronten6" d="M-41.7,796.5h227.3c3.7,0,6.7,3,6.7,6.7l0,0c0,3.7-3,6.7-6.7,6.7H-41.7c-3.7,0-6.7-3-6.7-6.7l0,0
	C-48.4,799.5-45.4,796.5-41.7,796.5z"/>
<path class="bcg-fronten6" d="M202.2,858.6h227.3c3.7,0,6.7,3,6.7,6.7l0,0c0,3.7-3,6.7-6.7,6.7H202.2c-3.7,0-6.7-3-6.7-6.7l0,0
	C195.5,861.6,198.5,858.6,202.2,858.6z"/>
<path class="bcg-fronten8" d="M-53.6,896.8h194.9c3.7,0,6.7,3,6.7,6.7l0,0c0,3.7-3,6.7-6.7,6.7H-53.6c-3.7,0-6.7-3-6.7-6.7l0,0
	C-60.3,899.8-57.3,896.8-53.6,896.8z"/>
<path class="bcg-fronten5" d="M-53.6,928.8h227.3c3.7,0,6.7,3,6.7,6.7l0,0c0,3.7-3,6.7-6.7,6.7H-53.6c-3.7,0-6.7-3-6.7-6.7l0,0
	C-60.3,931.8-57.3,928.8-53.6,928.8z"/>
<path class="bcg-fronten6" d="M162.1,640.1h140.7c3.7,0,6.7,3,6.7,6.7l0,0c0,3.7-3,6.7-6.7,6.7H162.1c-3.7,0-6.7-3-6.7-6.7l0,0
	C155.4,643.1,158.4,640.1,162.1,640.1z"/>
<path class="bcg-fronten6" d="M-49.6,1600.6H65.2c3.7,0,6.7,3,6.7,6.7l0,0c0,3.7-3,6.7-6.7,6.7H-49.6c-3.7,0-6.7-3-6.7-6.7l0,0
	C-56.3,1603.6-53.3,1600.6-49.6,1600.6z"/>
<path class="bcg-fronten6" d="M-49.6,1632.6h227.3c3.7,0,6.7,3,6.7,6.7l0,0c0,3.7-3,6.7-6.7,6.7H-49.6c-3.7,0-6.7-3-6.7-6.7l0,0
	C-56.3,1635.6-53.3,1632.6-49.6,1632.6z"/>
<path class="bcg-fronten5" d="M207.5,1632.6h140.7c3.7,0,6.7,3,6.7,6.7l0,0c0,3.7-3,6.7-6.7,6.7H207.5c-3.7,0-6.7-3-6.7-6.7l0,0
	C200.7,1635.6,203.7,1632.6,207.5,1632.6z"/>
<path class="bcg-fronten8" d="M95.5,1703.6h282.9c3.7,0,6.7,3,6.7,6.7l0,0c0,3.7-3,6.7-6.7,6.7H95.5c-3.7,0-6.7-3-6.7-6.7l0,0
	C88.7,1706.7,91.8,1703.6,95.5,1703.6z"/>
<path class="bcg-fronten5" d="M-49.3,1703.6H67.4c3.7,0,6.7,3,6.7,6.7l0,0c0,3.7-3,6.7-6.7,6.7H-49.3c-3.7,0-6.7-3-6.7-6.7l0,0
	C-56,1706.7-53,1703.6-49.3,1703.6z"/>
<path class="bcg-fronten8" d="M-49.3,1669.6h168.5c3.7,0,6.7,3,6.7,6.7l0,0c0,3.7-3,6.7-6.7,6.7H-49.3c-3.7,0-6.7-3-6.7-6.7l0,0
	C-56,1672.6-53,1669.6-49.3,1669.6z"/>
<path class="bcg-fronten6" d="M-49.6,1737.7H100c3.7,0,6.7,3,6.7,6.7l0,0c0,3.7-3,6.7-6.7,6.7H-49.6c-3.7,0-6.7-3-6.7-6.7l0,0
	C-56.3,1740.7-53.3,1737.7-49.6,1737.7z"/>
<path class="bcg-fronten5" d="M-49.3,1808.7H67.4c3.7,0,6.7,3,6.7,6.7l0,0c0,3.7-3,6.7-6.7,6.7H-49.3c-3.7,0-6.7-3-6.7-6.7l0,0
	C-56,1811.7-53,1808.7-49.3,1808.7z"/>
<path class="bcg-fronten4" d="M-49.3,1774.7h168.5c3.7,0,6.7,3,6.7,6.7l0,0c0,3.7-3,6.7-6.7,6.7H-49.3c-3.7,0-6.7-3-6.7-6.7l0,0
	C-56,1777.7-53,1774.7-49.3,1774.7z"/>
<path class="bcg-fronten6" d="M-49.6,1463.1H65.2c3.7,0,6.7,3,6.7,6.7l0,0c0,3.7-3,6.7-6.7,6.7H-49.6c-3.7,0-6.7-3-6.7-6.7l0,0
	C-56.3,1466.1-53.3,1463.1-49.6,1463.1z"/>
<path class="bcg-fronten7" d="M93.7,1463.1h188.7c3.7,0,6.7,3,6.7,6.7l0,0c0,3.7-3,6.7-6.7,6.7H93.7c-3.7,0-6.7-3-6.7-6.7l0,0
	C86.9,1466.1,89.9,1463.1,93.7,1463.1z"/>
<path class="bcg-fronten8" d="M277.4,1433.1h188.7c3.7,0,6.7,3,6.7,6.7l0,0c0,3.7-3,6.7-6.7,6.7H277.4c-3.7,0-6.7-3-6.7-6.7l0,0
	C270.7,1436.1,273.7,1433.1,277.4,1433.1z"/>
<path class="bcg-fronten8" d="M-49.6,1495.1h227.3c3.7,0,6.7,3,6.7,6.7l0,0c0,3.7-3,6.7-6.7,6.7H-49.6c-3.7,0-6.7-3-6.7-6.7l0,0
	C-56.3,1498.1-53.3,1495.1-49.6,1495.1z"/>
<path class="bcg-fronten8" d="M95.5,1566.1h282.9c3.7,0,6.7,3,6.7,6.7l0,0c0,3.7-3,6.7-6.7,6.7H95.5c-3.7,0-6.7-3-6.7-6.7l0,0
	C88.7,1569.1,91.8,1566.1,95.5,1566.1z"/>
<path class="bcg-fronten6" d="M-49.3,1566.1H67.4c3.7,0,6.7,3,6.7,6.7l0,0c0,3.7-3,6.7-6.7,6.7H-49.3c-3.7,0-6.7-3-6.7-6.7l0,0
	C-56,1569.1-53,1566.1-49.3,1566.1z"/>
<path class="bcg-fronten6" d="M-49.6,1877.6h185.9c3.7,0,6.7,3,6.7,6.7v0.4c0,3.7-3,6.7-6.7,6.7H-49.6c-3.7,0-6.7-3-6.7-6.7v-0.4
	C-56.3,1880.6-53.3,1877.6-49.6,1877.6z"/>
<path class="bcg-fronten6" d="M-49.3,1843.5H67.4c3.7,0,6.7,3,6.7,6.7l0,0c0,3.7-3,6.7-6.7,6.7H-49.3c-3.7,0-6.7-3-6.7-6.7l0,0
	C-56,1846.6-53,1843.5-49.3,1843.5z"/>
<path class="bcg-fronten6" d="M2049.9,1655.7h-227.3c-3.7,0-6.7-3-6.7-6.7l0,0c0-3.7,3-6.7,6.7-6.7h227.3c3.7,0,6.7,3,6.7,6.7l0,0
	C2056.7,1652.7,2053.7,1655.7,2049.9,1655.7z"/>
<path class="bcg-fronten5" d="M2049.7,1584.7H1933c-3.7,0-6.7-3-6.7-6.7l0,0c0-3.7,3-6.7,6.7-6.7h116.7c3.7,0,6.7,3,6.7,6.7l0,0
	C2056.4,1581.7,2053.4,1584.7,2049.7,1584.7z"/>
<path class="bcg-fronten6" d="M1904.6,1584.7h-116.7c-3.7,0-6.7-3-6.7-6.7l0,0c0-3.7,3-6.7,6.7-6.7h116.7c3.7,0,6.7,3,6.7,6.7l0,0
	C1911.3,1581.7,1908.3,1584.7,1904.6,1584.7z"/>
<path class="bcg-fronten8" d="M2049.7,1618.8h-168.5c-3.7,0-6.7-3-6.7-6.7l0,0c0-3.7,3-6.7,6.7-6.7h168.5c3.7,0,6.7,3,6.7,6.7l0,0
	C2056.4,1615.7,2053.4,1618.8,2049.7,1618.8z"/>
<path class="bcg-fronten6" d="M2049.9,1550.6h-149.6c-3.7,0-6.7-3-6.7-6.7l0,0c0-3.7,3-6.7,6.7-6.7h149.6c3.7,0,6.7,3,6.7,6.7l0,0
	C2056.7,1547.6,2053.7,1550.6,2049.9,1550.6z"/>
<path class="bcg-fronten5" d="M2049.7,1479.6H1933c-3.7,0-6.7-3-6.7-6.7l0,0c0-3.7,3-6.7,6.7-6.7h116.7c3.7,0,6.7,3,6.7,6.7l0,0
	C2056.4,1476.6,2053.4,1479.6,2049.7,1479.6z"/>
<path class="bcg-fronten4" d="M2049.7,1513.7h-168.5c-3.7,0-6.7-3-6.7-6.7l0,0c0-3.7,3-6.7,6.7-6.7h168.5c3.7,0,6.7,3,6.7,6.7l0,0
	C2056.4,1510.6,2053.4,1513.7,2049.7,1513.7z"/>
<path class="bcg-fronten6" d="M2049.9,1449.4h-227.3c-3.7,0-6.7-3-6.7-6.7l0,0c0-3.7,3-6.7,6.7-6.7h227.3c3.7,0,6.7,3,6.7,6.7l0,0
	C2056.7,1446.4,2053.7,1449.4,2049.9,1449.4z"/>
<path class="bcg-fronten5" d="M2049.7,1378.3H1933c-3.7,0-6.7-3-6.7-6.7l0,0c0-3.7,3-6.7,6.7-6.7h116.7c3.7,0,6.7,3,6.7,6.7l0,0
	C2056.4,1375.3,2053.4,1378.3,2049.7,1378.3z"/>
<path class="bcg-fronten8" d="M2049.7,1412.4h-168.5c-3.7,0-6.7-3-6.7-6.7l0,0c0-3.7,3-6.7,6.7-6.7h168.5c3.7,0,6.7,3,6.7,6.7l0,0
	C2056.4,1409.4,2053.4,1412.4,2049.7,1412.4z"/>
<path class="bcg-fronten6" d="M2049.9,1344.3h-149.6c-3.7,0-6.7-3-6.7-6.7l0,0c0-3.7,3-6.7,6.7-6.7h149.6c3.7,0,6.7,3,6.7,6.7l0,0
	C2056.7,1341.3,2053.7,1344.3,2049.9,1344.3z"/>
<path class="bcg-fronten5" d="M2049.7,1273.2H1933c-3.7,0-6.7-3-6.7-6.7l0,0c0-3.7,3-6.7,6.7-6.7h116.7c3.7,0,6.7,3,6.7,6.7l0,0
	C2056.4,1270.2,2053.4,1273.2,2049.7,1273.2z"/>
<path class="bcg-fronten4" d="M2049.7,1307.3h-168.5c-3.7,0-6.7-3-6.7-6.7l0,0c0-3.7,3-6.7,6.7-6.7h168.5c3.7,0,6.7,3,6.7,6.7l0,0
	C2056.4,1304.3,2053.4,1307.3,2049.7,1307.3z"/>
<path class="bcg-fronten6" d="M2049.9,1204.4H1864c-3.7,0-6.7-3-6.7-6.7v-0.4c0-3.7,3-6.7,6.7-6.7h185.9c3.7,0,6.7,3,6.7,6.7v0.4
	C2056.7,1201.4,2053.7,1204.4,2049.9,1204.4z"/>
<path class="bcg-fronten6" d="M2049.9,1172h-227.3c-3.7,0-6.7-3-6.7-6.7l0,0c0-3.7,3-6.7,6.7-6.7h227.3c3.7,0,6.7,3,6.7,6.7l0,0
	C2056.7,1168.9,2053.7,1172,2049.9,1172z"/>
<path class="bcg-fronten5" d="M2049.7,1100.9H1933c-3.7,0-6.7-3-6.7-6.7l0,0c0-3.7,3-6.7,6.7-6.7h116.7c3.7,0,6.7,3,6.7,6.7l0,0
	C2056.4,1097.9,2053.4,1100.9,2049.7,1100.9z"/>
<path class="bcg-fronten5" d="M1904.6,1100.9h-61c-3.7,0-6.7-3-6.7-6.7l0,0c0-3.7,3-6.7,6.7-6.7h61c3.7,0,6.7,3,6.7,6.7l0,0
	C1911.3,1097.9,1908.3,1100.9,1904.6,1100.9z"/>
<path class="bcg-fronten8" d="M2049.7,1135h-168.5c-3.7,0-6.7-3-6.7-6.7l0,0c0-3.7,3-6.7,6.7-6.7h168.5c3.7,0,6.7,3,6.7,6.7l0,0
	C2056.4,1132,2053.4,1135,2049.7,1135z"/>
<path class="bcg-fronten6" d="M2049.9,1066.9h-149.6c-3.7,0-6.7-3-6.7-6.7l0,0c0-3.7,3-6.7,6.7-6.7h149.6c3.7,0,6.7,3,6.7,6.7l0,0
	C2056.7,1063.8,2053.7,1066.9,2049.9,1066.9z"/>
<path class="bcg-fronten6" d="M2049.7,1238.4H1933c-3.7,0-6.7-3-6.7-6.7l0,0c0-3.7,3-6.7,6.7-6.7h116.7c3.7,0,6.7,3,6.7,6.7l0,0
	C2056.4,1235.4,2053.4,1238.4,2049.7,1238.4z"/>
<path class="bcg-fronten6" d="M-49.3,1532.1h168.5c3.7,0,6.7,3,6.7,6.7l0,0c0,3.7-3,6.7-6.7,6.7H-49.3c-3.7,0-6.7-3-6.7-6.7l0,0
	C-56,1535.1-53,1532.1-49.3,1532.1z"/>
<path class="bcg-fronten6" d="M-49.6,1098h196.9c3.7,0,6.7,3,6.7,6.7l0,0c0,3.7-3,6.7-6.7,6.7H-49.6c-3.7,0-6.7-3-6.7-6.7l0,0
	C-56.3,1101-53.3,1098-49.6,1098z"/>
<path class="bcg-fronten6" d="M-49.6,1130h91.7c3.7,0,6.7,3,6.7,6.7l0,0c0,3.7-3,6.7-6.7,6.7h-91.7c-3.7,0-6.7-3-6.7-6.7l0,0
	C-56.3,1133-53.3,1130-49.6,1130z"/>
<path class="bcg-fronten8" d="M75.2,1130h91.7c3.7,0,6.7,3,6.7,6.7l0,0c0,3.7-3,6.7-6.7,6.7H75.2c-3.7,0-6.7-3-6.7-6.7l0,0
	C68.4,1133,71.4,1130,75.2,1130z"/>
<path class="bcg-fronten5" d="M-49.3,1201H67.4c3.7,0,6.7,3,6.7,6.7l0,0c0,3.7-3,6.7-6.7,6.7H-49.3c-3.7,0-6.7-3-6.7-6.7l0,0
	C-56,1204-53,1201-49.3,1201z"/>
<path class="bcg-fronten8" d="M-49.3,1167h168.5c3.7,0,6.7,3,6.7,6.7l0,0c0,3.7-3,6.7-6.7,6.7H-49.3c-3.7,0-6.7-3-6.7-6.7l0,0
	C-56,1170-53,1167-49.3,1167z"/>
<path class="bcg-fronten6" d="M-49.6,1235.1H100c3.7,0,6.7,3,6.7,6.7l0,0c0,3.7-3,6.7-6.7,6.7H-49.6c-3.7,0-6.7-3-6.7-6.7l0,0
	C-56.3,1238.1-53.3,1235.1-49.6,1235.1z"/>
<path class="bcg-fronten6" d="M-49.6,1270.1h91.7c3.7,0,6.7,3,6.7,6.7l0,0c0,3.7-3,6.7-6.7,6.7h-91.7c-3.7,0-6.7-3-6.7-6.7l0,0
	C-56.3,1273.1-53.3,1270.1-49.6,1270.1z"/>
<path class="bcg-fronten5" d="M-49.3,1341.1H67.4c3.7,0,6.7,3,6.7,6.7l0,0c0,3.7-3,6.7-6.7,6.7H-49.3c-3.7,0-6.7-3-6.7-6.7l0,0
	C-56,1344.1-53,1341.1-49.3,1341.1z"/>
<path class="bcg-fronten8" d="M-49.3,1307h168.5c3.7,0,6.7,3,6.7,6.7l0,0c0,3.7-3,6.7-6.7,6.7H-49.3c-3.7,0-6.7-3-6.7-6.7l0,0
	C-56,1310.1-53,1307-49.3,1307z"/>
<path class="bcg-fronten6" d="M-49.6,1373.6H100c3.7,0,6.7,3,6.7,6.7l0,0c0,3.7-3,6.7-6.7,6.7H-49.6c-3.7,0-6.7-3-6.7-6.7l0,0
	C-56.3,1376.7-53.3,1373.6-49.6,1373.6z"/>
<path class="bcg-fronten5" d="M-49.3,1402.9H67.4c3.7,0,6.7,3,6.7,6.7l0,0c0,3.7-3,6.7-6.7,6.7H-49.3c-3.7,0-6.7-3-6.7-6.7l0,0
	C-56,1405.9-53,1402.9-49.3,1402.9z"/>
<path class="bcg-fronten5" d="M126.1,1433.1h116.7c3.7,0,6.7,3,6.7,6.7l0,0c0,3.7-3,6.7-6.7,6.7H126.1c-3.7,0-6.7-3-6.7-6.7l0,0
	C119.3,1436.1,122.3,1433.1,126.1,1433.1z"/>
<path class="bcg-fronten6" d="M-49.6,1433.1H100c3.7,0,6.7,3,6.7,6.7l0,0c0,3.7-3,6.7-6.7,6.7H-49.6c-3.7,0-6.7-3-6.7-6.7l0,0
	C-56.3,1436.1-53.3,1433.1-49.6,1433.1z"/>
<path class="bcg-fronten6" d="M-49.6,2114.5H65.2c3.7,0,6.7,3,6.7,6.7l0,0c0,3.7-3,6.7-6.7,6.7H-49.6c-3.7,0-6.7-3-6.7-6.7l0,0
	C-56.3,2117.5-53.3,2114.5-49.6,2114.5z"/>
<path class="bcg-fronten6" d="M-49.6,2146.5h227.3c3.7,0,6.7,3,6.7,6.7l0,0c0,3.7-3,6.7-6.7,6.7H-49.6c-3.7,0-6.7-3-6.7-6.7l0,0
	C-56.3,2149.5-53.3,2146.5-49.6,2146.5z"/>
<path class="bcg-fronten5" d="M207.5,2146.5h140.7c3.7,0,6.7,3,6.7,6.7l0,0c0,3.7-3,6.7-6.7,6.7H207.5c-3.7,0-6.7-3-6.7-6.7l0,0
	C200.7,2149.5,203.7,2146.5,207.5,2146.5z"/>
<path class="bcg-fronten8" d="M95.5,2217.5h282.9c3.7,0,6.7,3,6.7,6.7l0,0c0,3.7-3,6.7-6.7,6.7H95.5c-3.7,0-6.7-3-6.7-6.7l0,0
	C88.7,2220.6,91.8,2217.5,95.5,2217.5z"/>
<path class="bcg-fronten5" d="M-49.3,2217.5H67.4c3.7,0,6.7,3,6.7,6.7l0,0c0,3.7-3,6.7-6.7,6.7H-49.3c-3.7,0-6.7-3-6.7-6.7l0,0
	C-56,2220.6-53,2217.5-49.3,2217.5z"/>
<path class="bcg-fronten8" d="M-49.3,2183.5h168.5c3.7,0,6.7,3,6.7,6.7l0,0c0,3.7-3,6.7-6.7,6.7H-49.3c-3.7,0-6.7-3-6.7-6.7l0,0
	C-56,2186.5-53,2183.5-49.3,2183.5z"/>
<path class="bcg-fronten6" d="M-49.6,2251.6H100c3.7,0,6.7,3,6.7,6.7l0,0c0,3.7-3,6.7-6.7,6.7H-49.6c-3.7,0-6.7-3-6.7-6.7l0,0
	C-56.3,2254.6-53.3,2251.6-49.6,2251.6z"/>
<path class="bcg-fronten5" d="M-49.3,2322.6H67.4c3.7,0,6.7,3,6.7,6.7l0,0c0,3.7-3,6.7-6.7,6.7H-49.3c-3.7,0-6.7-3-6.7-6.7l0,0
	C-56,2325.6-53,2322.6-49.3,2322.6z"/>
<path class="bcg-fronten4" d="M-49.3,2288.6h168.5c3.7,0,6.7,3,6.7,6.7l0,0c0,3.7-3,6.7-6.7,6.7H-49.3c-3.7,0-6.7-3-6.7-6.7l0,0
	C-56,2291.6-53,2288.6-49.3,2288.6z"/>
<path class="bcg-fronten6" d="M-49.6,1977H65.2c3.7,0,6.7,3,6.7,6.7l0,0c0,3.7-3,6.7-6.7,6.7H-49.6c-3.7,0-6.7-3-6.7-6.7l0,0
	C-56.3,1980-53.3,1977-49.6,1977z"/>
<path class="bcg-fronten7" d="M93.7,1977h188.7c3.7,0,6.7,3,6.7,6.7l0,0c0,3.7-3,6.7-6.7,6.7H93.7c-3.7,0-6.7-3-6.7-6.7l0,0
	C86.9,1980,89.9,1977,93.7,1977z"/>
<path class="bcg-fronten8" d="M277.4,1947h188.7c3.7,0,6.7,3,6.7,6.7l0,0c0,3.7-3,6.7-6.7,6.7H277.4c-3.7,0-6.7-3-6.7-6.7l0,0
	C270.7,1950,273.7,1947,277.4,1947z"/>
<path class="bcg-fronten8" d="M-49.6,2009h227.3c3.7,0,6.7,3,6.7,6.7l0,0c0,3.7-3,6.7-6.7,6.7H-49.6c-3.7,0-6.7-3-6.7-6.7l0,0
	C-56.3,2012-53.3,2009-49.6,2009z"/>
<path class="bcg-fronten8" d="M95.5,2080h282.9c3.7,0,6.7,3,6.7,6.7l0,0c0,3.7-3,6.7-6.7,6.7H95.5c-3.7,0-6.7-3-6.7-6.7l0,0
	C88.7,2083,91.8,2080,95.5,2080z"/>
<path class="bcg-fronten6" d="M-49.3,2080H67.4c3.7,0,6.7,3,6.7,6.7l0,0c0,3.7-3,6.7-6.7,6.7H-49.3c-3.7,0-6.7-3-6.7-6.7l0,0
	C-56,2083-53,2080-49.3,2080z"/>
<path class="bcg-fronten6" d="M-49.6,2391.5h185.9c3.7,0,6.7,3,6.7,6.7v0.4c0,3.7-3,6.7-6.7,6.7H-49.6c-3.7,0-6.7-3-6.7-6.7v-0.4
	C-56.3,2394.5-53.3,2391.5-49.6,2391.5z"/>
<path class="bcg-fronten6" d="M-49.3,2357.4H67.4c3.7,0,6.7,3,6.7,6.7l0,0c0,3.7-3,6.7-6.7,6.7H-49.3c-3.7,0-6.7-3-6.7-6.7l0,0
	C-56,2360.5-53,2357.4-49.3,2357.4z"/>
<path class="bcg-fronten6" d="M-49.3,2046h168.5c3.7,0,6.7,3,6.7,6.7l0,0c0,3.7-3,6.7-6.7,6.7H-49.3c-3.7,0-6.7-3-6.7-6.7l0,0
	C-56,2049-53,2046-49.3,2046z"/>
<path class="bcg-fronten5" d="M-49.3,1916.8H67.4c3.7,0,6.7,3,6.7,6.7l0,0c0,3.7-3,6.7-6.7,6.7H-49.3c-3.7,0-6.7-3-6.7-6.7l0,0
	C-56,1919.8-53,1916.8-49.3,1916.8z"/>
<path class="bcg-fronten5" d="M126.1,1947h116.7c3.7,0,6.7,3,6.7,6.7l0,0c0,3.7-3,6.7-6.7,6.7H126.1c-3.7,0-6.7-3-6.7-6.7l0,0
	C119.3,1950,122.3,1947,126.1,1947z"/>
<path class="bcg-fronten6" d="M-49.6,1947H100c3.7,0,6.7,3,6.7,6.7l0,0c0,3.7-3,6.7-6.7,6.7H-49.6c-3.7,0-6.7-3-6.7-6.7l0,0
	C-56.3,1950-53.3,1947-49.6,1947z"/>
<path class="bcg-fronten6" d="M-49.6,960.5H65.2c3.7,0,6.7,3,6.7,6.7l0,0c0,3.7-3,6.7-6.7,6.7H-49.6c-3.7,0-6.7-3-6.7-6.7l0,0
	C-56.3,963.5-53.3,960.5-49.6,960.5z"/>
<path class="bcg-fronten8" d="M-49.6,992.5h227.3c3.7,0,6.7,3,6.7,6.7l0,0c0,3.7-3,6.7-6.7,6.7H-49.6c-3.7,0-6.7-3-6.7-6.7l0,0
	C-56.3,995.5-53.3,992.5-49.6,992.5z"/>
<path class="bcg-fronten6" d="M-49.3,1063.5H67.4c3.7,0,6.7,3,6.7,6.7l0,0c0,3.7-3,6.7-6.7,6.7H-49.3c-3.7,0-6.7-3-6.7-6.7l0,0
	C-56,1066.5-53,1063.5-49.3,1063.5z"/>
<path class="bcg-fronten6" d="M-49.3,1029.4h168.5c3.7,0,6.7,3,6.7,6.7l0,0c0,3.7-3,6.7-6.7,6.7H-49.3c-3.7,0-6.7-3-6.7-6.7l0,0
	C-56,1032.5-53,1029.4-49.3,1029.4z"/>
<path class="bcg-fronten0" d="M1131.8,1526.8h66.8c5,0,9.1,4.1,9.1,9.1v66.8c0,5-4.1,9.1-9.1,9.1h-66.8c-5,0-9.1-4.1-9.1-9.1v-66.8
	C1122.7,1530.9,1126.8,1526.8,1131.8,1526.8z"/>
<text transform="matrix(1 0 0 1 1149.8448 1586.0837)" class="bcg-fronten1 bcg-fronten2 bcg-fronten3">Q</text>
<path class="bcg-fronten0" d="M1227.4,1526.8h66.8c5,0,9.1,4.1,9.1,9.1v66.8c0,5-4.1,9.1-9.1,9.1h-66.8c-5,0-9.1-4.1-9.1-9.1v-66.8
	C1218.3,1530.9,1222.4,1526.8,1227.4,1526.8z"/>
<text transform="matrix(1 0 0 1 1239.5826 1586.0837)" class="bcg-fronten1 bcg-fronten2 bcg-fronten3">W</text>
<path class="bcg-fronten0" d="M917.5,898.2h66.8c5,0,9.1,4.1,9.1,9.1v66.8c0,5-4.1,9.1-9.1,9.1h-66.8c-5,0-9.1-4.1-9.1-9.1v-66.8
	C908.4,902.3,912.5,898.2,917.5,898.2z"/>
<text transform="matrix(1 0 0 1 929.6733 957.437)" class="bcg-fronten1 bcg-fronten2 bcg-fronten3">W</text>
<path class="bcg-fronten0" d="M1324.5,1526.8h66.8c5,0,9.1,4.1,9.1,9.1v66.8c0,5-4.1,9.1-9.1,9.1h-66.8c-5,0-9.1-4.1-9.1-9.1v-66.8
	C1315.4,1530.9,1319.5,1526.8,1324.5,1526.8z"/>
<text transform="matrix(1 0 0 1 1345.0309 1586.0837)" class="bcg-fronten1 bcg-fronten2 bcg-fronten3">E</text>
<g>
	<path class="bcg-fronten0" d="M1490.7,158.9h66.8c5,0,9.1,4.1,9.1,9.1v66.8c0,5-4.1,9.1-9.1,9.1h-66.8c-5,0-9.1-4.1-9.1-9.1V168
		C1481.6,162.9,1485.7,158.9,1490.7,158.9z"/>
	<text transform="matrix(1 0 0 1 1511.2133 218.1016)" class="bcg-fronten1 bcg-fronten2 bcg-fronten3">E</text>
</g>
<path class="bcg-fronten0" d="M1420.1,1526.8h66.8c5,0,9.1,4.1,9.1,9.1v66.8c0,5-4.1,9.1-9.1,9.1h-66.8c-5,0-9.1-4.1-9.1-9.1v-66.8
	C1411,1530.9,1415.1,1526.8,1420.1,1526.8z"/>
<text transform="matrix(1 0 0 1 1439.1764 1586.0837)" class="bcg-fronten1 bcg-fronten2 bcg-fronten3">R</text>
<path class="bcg-fronten0" d="M1517.2,1526.8h66.8c5,0,9.1,4.1,9.1,9.1v66.8c0,5-4.1,9.1-9.1,9.1h-66.8c-5,0-9.1-4.1-9.1-9.1v-66.8
	C1508.1,1530.9,1512.2,1526.8,1517.2,1526.8z"/>
<text transform="matrix(1 0 0 1 1539.0797 1586.0837)" class="bcg-fronten1 bcg-fronten2 bcg-fronten3">T</text>
<path class="bcg-fronten0" d="M1159.2,1627h66.8c5,0,9.1,4.1,9.1,9.1v66.8c0,5-4.1,9.1-9.1,9.1h-66.8c-5,0-9.1-4.1-9.1-9.1v-66.8
	C1150.1,1631,1154.1,1627,1159.2,1627z"/>
<text transform="matrix(1 0 0 1 1177.8077 1686.2224)" class="bcg-fronten1 bcg-fronten2 bcg-fronten3">A</text>
<path class="bcg-fronten0" d="M1254.7,1627h66.8c5,0,9.1,4.1,9.1,9.1v66.8c0,5-4.1,9.1-9.1,9.1h-66.8c-5,0-9.1-4.1-9.1-9.1v-66.8
	C1245.6,1631,1249.7,1627,1254.7,1627z"/>
<text transform="matrix(1 0 0 1 1275.5563 1686.2224)" class="bcg-fronten1 bcg-fronten2 bcg-fronten3">S</text>
<path class="bcg-fronten0" d="M19.2,84.6H86c5,0,9.1,4.1,9.1,9.1v66.8c0,5-4.1,9.1-9.1,9.1H19.2c-5,0-9.1-4.1-9.1-9.1V93.7
	C10.1,88.7,14.2,84.6,19.2,84.6z"/>
<text transform="matrix(1 0 0 1 40.02 143.8589)" class="bcg-fronten1 bcg-fronten2 bcg-fronten3">S</text>
<path class="bcg-fronten0" d="M1351.9,1627h66.8c5,0,9.1,4.1,9.1,9.1v66.8c0,5-4.1,9.1-9.1,9.1h-66.8c-5,0-9.1-4.1-9.1-9.1v-66.8
	C1342.7,1631,1346.8,1627,1351.9,1627z"/>
<text transform="matrix(1 0 0 1 1371.0514 1686.2224)" class="bcg-fronten1 bcg-fronten2 bcg-fronten3">D</text>
<path class="bcg-fronten0" d="M1447.4,1627h66.8c5,0,9.1,4.1,9.1,9.1v66.8c0,5-4.1,9.1-9.1,9.1h-66.8c-5,0-9.1-4.1-9.1-9.1v-66.8
	C1438.3,1631,1442.4,1627,1447.4,1627z"/>
<text transform="matrix(1 0 0 1 1469.4459 1686.2224)" class="bcg-fronten1 bcg-fronten2 bcg-fronten3">F</text>
<path class="bcg-fronten0" d="M1189.4,414.3h66.8c5,0,9.1,4.1,9.1,9.1v66.8c0,5-4.1,9.1-9.1,9.1h-66.8c-5,0-9.1-4.1-9.1-9.1v-66.8
	C1180.3,418.4,1184.4,414.3,1189.4,414.3z"/>
<text transform="matrix(1 0 0 1 1201.5542 473.5837)" class="bcg-fronten1 bcg-fronten2 bcg-fronten3">W</text>
<path class="bcg-fronten0" d="M1286.5,414.3h66.8c5,0,9.1,4.1,9.1,9.1v66.8c0,5-4.1,9.1-9.1,9.1h-66.8c-5,0-9.1-4.1-9.1-9.1v-66.8
	C1277.4,418.4,1281.5,414.3,1286.5,414.3z"/>
<text transform="matrix(1 0 0 1 1307.0024 473.5837)" class="bcg-fronten1 bcg-fronten2 bcg-fronten3">E</text>
<path class="bcg-fronten0" d="M1382.1,414.3h66.8c5,0,9.1,4.1,9.1,9.1v66.8c0,5-4.1,9.1-9.1,9.1h-66.8c-5,0-9.1-4.1-9.1-9.1v-66.8
	C1373,418.4,1377.1,414.3,1382.1,414.3z"/>
<text transform="matrix(1 0 0 1 1401.1479 473.5837)" class="bcg-fronten1 bcg-fronten2 bcg-fronten3">R</text>
<path class="bcg-fronten0" d="M1121.2,514.5h66.8c5,0,9.1,4.1,9.1,9.1v66.8c0,5-4.1,9.1-9.1,9.1h-66.8c-5,0-9.1-4.1-9.1-9.1v-66.8
	C1112.1,518.5,1116.1,514.5,1121.2,514.5z"/>
<text transform="matrix(1 0 0 1 1139.7793 573.7224)" class="bcg-fronten1 bcg-fronten2 bcg-fronten3">A</text>
<path class="bcg-fronten0" d="M1216.7,514.5h66.8c5,0,9.1,4.1,9.1,9.1v66.8c0,5-4.1,9.1-9.1,9.1h-66.8c-5,0-9.1-4.1-9.1-9.1v-66.8
	C1207.6,518.5,1211.7,514.5,1216.7,514.5z"/>
<text transform="matrix(1 0 0 1 1237.5278 573.7224)" class="bcg-fronten1 bcg-fronten2 bcg-fronten3">S</text>
<path class="bcg-fronten0" d="M1313.9,514.5h66.8c5,0,9.1,4.1,9.1,9.1v66.8c0,5-4.1,9.1-9.1,9.1h-66.8c-5,0-9.1-4.1-9.1-9.1v-66.8
	C1304.7,518.5,1308.8,514.5,1313.9,514.5z"/>
<text transform="matrix(1 0 0 1 1333.0229 573.7224)" class="bcg-fronten1 bcg-fronten2 bcg-fronten3">D</text>
<path class="bcg-fronten0" d="M1409.4,514.5h66.8c5,0,9.1,4.1,9.1,9.1v66.8c0,5-4.1,9.1-9.1,9.1h-66.8c-5,0-9.1-4.1-9.1-9.1v-66.8
	C1400.3,518.5,1404.4,514.5,1409.4,514.5z"/>
<text transform="matrix(1 0 0 1 1431.4175 573.7224)" class="bcg-fronten1 bcg-fronten2 bcg-fronten3">F</text>
<path class="bcg-fronten0" d="M1544.5,1627h66.8c5,0,9.1,4.1,9.1,9.1v66.8c0,5-4.1,9.1-9.1,9.1h-66.8c-5,0-9.1-4.1-9.1-9.1v-66.8
	C1535.4,1631,1539.5,1627,1544.5,1627z"/>
<text transform="matrix(1 0 0 1 1563.401 1686.2224)" class="bcg-fronten1 bcg-fronten2 bcg-fronten3">G</text>
<path class="bcg-fronten0" d="M909.9,1143.4h66.8c5,0,9.1,4.1,9.1,9.1v66.8c0,5-4.1,9.1-9.1,9.1h-66.8c-5,0-9.1-4.1-9.1-9.1v-66.8
	C900.8,1147.5,904.9,1143.4,909.9,1143.4z"/>
<text transform="matrix(1 0 0 1 928.5581 1202.6924)" class="bcg-fronten1 bcg-fronten2 bcg-fronten3">A</text>
<path class="bcg-fronten0" d="M1005.5,1143.4h66.8c5,0,9.1,4.1,9.1,9.1v66.8c0,5-4.1,9.1-9.1,9.1h-66.8c-5,0-9.1-4.1-9.1-9.1v-66.8
	C996.4,1147.5,1000.5,1143.4,1005.5,1143.4z"/>
<text transform="matrix(1 0 0 1 1026.314 1202.6924)" class="bcg-fronten1 bcg-fronten2 bcg-fronten3">S</text>
<path class="bcg-fronten0" d="M1655.3,421.9h66.8c5,0,9.1,4.1,9.1,9.1v66.8c0,5-4.1,9.1-9.1,9.1h-66.8c-5,0-9.1-4.1-9.1-9.1V431
	C1646.2,426,1650.2,421.9,1655.3,421.9z"/>
<text transform="matrix(1 0 0 1 1673.8944 481.1882)" class="bcg-fronten1 bcg-fronten2 bcg-fronten3">A</text>
<path class="bcg-fronten0" d="M1750.8,421.9h66.8c5,0,9.1,4.1,9.1,9.1v66.8c0,5-4.1,9.1-9.1,9.1h-66.8c-5,0-9.1-4.1-9.1-9.1V431
	C1741.7,426,1745.8,421.9,1750.8,421.9z"/>
<text transform="matrix(1 0 0 1 1771.6503 481.1882)" class="bcg-fronten1 bcg-fronten2 bcg-fronten3">S</text>
<path class="bcg-fronten0" d="M481.9,792.7h66.8c5,0,9.1,4.1,9.1,9.1v66.8c0,5-4.1,9.1-9.1,9.1h-66.8c-5,0-9.1-4.1-9.1-9.1v-66.8
	C472.8,796.8,476.9,792.7,481.9,792.7z"/>
<text transform="matrix(1 0 0 1 501.1118 851.9883)" class="bcg-fronten1 bcg-fronten2 bcg-fronten3">D</text>
<path class="bcg-fronten0" d="M577.5,792.7h66.8c5,0,9.1,4.1,9.1,9.1v66.8c0,5-4.1,9.1-9.1,9.1h-66.8c-5,0-9.1-4.1-9.1-9.1v-66.8
	C568.4,796.8,572.5,792.7,577.5,792.7z"/>
<text transform="matrix(1 0 0 1 599.4976 851.9883)" class="bcg-fronten1 bcg-fronten2 bcg-fronten3">F</text>
<path class="bcg-fronten0" d="M674.6,792.7h66.8c5,0,9.1,4.1,9.1,9.1v66.8c0,5-4.1,9.1-9.1,9.1h-66.8c-5,0-9.1-4.1-9.1-9.1v-66.8
	C665.5,796.8,669.6,792.7,674.6,792.7z"/>
<text transform="matrix(1 0 0 1 693.4531 851.9883)" class="bcg-fronten1 bcg-fronten2 bcg-fronten3">G</text>
<path class="bcg-fronten0" d="M639.8,2188.5h66.8c5,0,9.1,4.1,9.1,9.1v66.8c0,5-4.1,9.1-9.1,9.1h-66.8c-5,0-9.1-4.1-9.1-9.1v-66.8
	C630.7,2192.6,634.8,2188.5,639.8,2188.5z"/>
<text transform="matrix(1 0 0 1 659.027 2247.7725)" class="bcg-fronten1 bcg-fronten2 bcg-fronten3">D</text>
<path class="bcg-fronten0" d="M735.4,2188.5h66.8c5,0,9.1,4.1,9.1,9.1v66.8c0,5-4.1,9.1-9.1,9.1h-66.8c-5,0-9.1-4.1-9.1-9.1v-66.8
	C726.3,2192.6,730.4,2188.5,735.4,2188.5z"/>
<text transform="matrix(1 0 0 1 757.4127 2247.7725)" class="bcg-fronten1 bcg-fronten2 bcg-fronten3">F</text>
<path class="bcg-fronten0" d="M832.5,2188.5h66.8c5,0,9.1,4.1,9.1,9.1v66.8c0,5-4.1,9.1-9.1,9.1h-66.8c-5,0-9.1-4.1-9.1-9.1v-66.8
	C823.4,2192.6,827.5,2188.5,832.5,2188.5z"/>
<text transform="matrix(1 0 0 1 851.3683 2247.7725)" class="bcg-fronten1 bcg-fronten2 bcg-fronten3">G</text>
<path class="bcg-fronten0" d="M260.9,405.2h66.8c5,0,9.1,4.1,9.1,9.1V481c0,5-4.1,9.1-9.1,9.1h-66.8c-5,0-9.1-4.1-9.1-9.1v-66.8
	C251.8,409.2,255.8,405.2,260.9,405.2z"/>
<text transform="matrix(1 0 0 1 282.8784 464.4224)" class="bcg-fronten1 bcg-fronten2 bcg-fronten3">F</text>
<path class="bcg-fronten0" d="M358,405.2h66.8c5,0,9.1,4.1,9.1,9.1V481c0,5-4.1,9.1-9.1,9.1H358c-5,0-9.1-4.1-9.1-9.1v-66.8
	C348.9,409.2,352.9,405.2,358,405.2z"/>
<text transform="matrix(1 0 0 1 376.834 464.4224)" class="bcg-fronten1 bcg-fronten2 bcg-fronten3">G</text>
<path class="bcg-fronten0" d="M1184.9,1727.1h66.8c5,0,9.1,4.1,9.1,9.1v66.8c0,5-4.1,9.1-9.1,9.1h-66.8c-5,0-9.1-4.1-9.1-9.1v-66.8
	C1175.8,1731.2,1179.9,1727.1,1184.9,1727.1z"/>
<path class="bcg-fronten0" d="M1087.8,1727.1h66.8c5,0,9.1,4.1,9.1,9.1v66.8c0,5-4.1,9.1-9.1,9.1h-66.8c-5,0-9.1-4.1-9.1-9.1v-66.8
	C1078.7,1731.2,1082.8,1727.1,1087.8,1727.1z"/>
<path class="bcg-fronten0" d="M1148,1821.3h66.8c5,0,9.1,4.1,9.1,9.1v66.8c0,5-4.1,9.1-9.1,9.1H1148c-5,0-9.1-4.1-9.1-9.1v-66.8
	C1138.9,1825.4,1143,1821.3,1148,1821.3z"/>
<path class="bcg-fronten0" d="M1052.1,1821.5h66.8c5,0,9.1,4.1,9.1,9.1v66.8c0,5-4.1,9.1-9.1,9.1h-66.8c-5,0-9.1-4.1-9.1-9.1v-66.8
	C1043,1825.6,1047,1821.5,1052.1,1821.5z"/>
<path class="bcg-fronten0" d="M954.3,1821.5h66.8c5,0,9.1,4.1,9.1,9.1v66.8c0,5-4.1,9.1-9.1,9.1h-66.8c-5,0-9.1-4.1-9.1-9.1v-66.8
	C945.2,1825.6,949.3,1821.5,954.3,1821.5z"/>
<path class="bcg-fronten0" d="M276.2,1217.3H343c5,0,9.1,4.1,9.1,9.1v66.8c0,5-4.1,9.1-9.1,9.1h-66.8c-5,0-9.1-4.1-9.1-9.1v-66.8
	C267.1,1221.4,271.2,1217.3,276.2,1217.3z"/>
<path class="bcg-fronten0" d="M385.9,1217.3h66.8c5,0,9.1,4.1,9.1,9.1v66.8c0,5-4.1,9.1-9.1,9.1h-66.8c-5,0-9.1-4.1-9.1-9.1v-66.8
	C376.8,1221.4,380.9,1217.3,385.9,1217.3z"/>
<path class="bcg-fronten0" d="M829.4,2320h66.8c5,0,9.1,4.1,9.1,9.1v66.8c0,5-4.1,9.1-9.1,9.1h-66.8c-5,0-9.1-4.1-9.1-9.1v-66.8
	C820.3,2324,824.3,2320,829.4,2320z"/>
<text transform="matrix(1 0 0 1 1204.109 1786.3601)" class="bcg-fronten1 bcg-fronten2 bcg-fronten3">Z</text>
<path class="bcg-fronten0" d="M1280.5,1727.1h66.8c5,0,9.1,4.1,9.1,9.1v66.8c0,5-4.1,9.1-9.1,9.1h-66.8c-5,0-9.1-4.1-9.1-9.1v-66.8
	C1271.4,1731.2,1275.5,1727.1,1280.5,1727.1z"/>
<path class="bcg-fronten0" d="M1244.1,1822.1h103.1c5,0,9.1,4.1,9.1,9.1v66.8c0,5-4.1,9.1-9.1,9.1h-103.1c-5,0-9.1-4.1-9.1-9.1v-66.8
	C1235,1826.2,1239.1,1822.1,1244.1,1822.1z"/>
<path class="bcg-fronten0" d="M240.6,2311.2h103.1c5,0,9.1,4.1,9.1,9.1v66.8c0,5-4.1,9.1-9.1,9.1H240.6c-5,0-9.1-4.1-9.1-9.1v-66.8
	C231.5,2315.3,235.6,2311.2,240.6,2311.2z"/>
<path class="bcg-fronten0" d="M954.3,1728.1h103.1c5,0,9.1,4.1,9.1,9.1v66.8c0,5-4.1,9.1-9.1,9.1H954.3c-5,0-9.1-4.1-9.1-9.1v-66.8
	C945.2,1732.2,949.3,1728.1,954.3,1728.1z"/>
<path class="bcg-fronten0" d="M954.3,1526.8H1099c5,0,9.1,4.1,9.1,9.1v66.8c0,5-4.1,9.1-9.1,9.1H954.3c-5,0-9.1-4.1-9.1-9.1v-66.8
	C945.2,1530.9,949.3,1526.8,954.3,1526.8z"/>
<path class="bcg-fronten0" d="M954.3,1627h175.5c5,0,9.1,4.1,9.1,9.1v66.8c0,5-4.1,9.1-9.1,9.1H954.3c-5,0-9.1-4.1-9.1-9.1v-66.8
	C945.2,1631,949.3,1627,954.3,1627z"/>
<text transform="matrix(1 0 0 1 1298.6715 1786.3601)" class="bcg-fronten1 bcg-fronten2 bcg-fronten3">X</text>
<path class="bcg-fronten0" d="M1377.6,1822.1H1637c5,0,9.1,4.1,9.1,9.1v66.8c0,5-4.1,9.1-9.1,9.1h-259.4c-5,0-9.1-4.1-9.1-9.1v-66.8
	C1368.5,1826.2,1372.6,1822.1,1377.6,1822.1z"/>
<path class="bcg-fronten0" d="M1195,2245.7h66.8c5,0,9.1,4.1,9.1,9.1v66.8c0,5-4.1,9.1-9.1,9.1H1195c-5,0-9.1-4.1-9.1-9.1v-66.8
	C1185.9,2249.8,1190,2245.7,1195,2245.7z"/>
<path class="bcg-fronten0" d="M1099.1,2245.9h66.8c5,0,9.1,4.1,9.1,9.1v66.8c0,5-4.1,9.1-9.1,9.1h-66.8c-5,0-9.1-4.1-9.1-9.1V2255
	C1090,2250,1094.1,2245.9,1099.1,2245.9z"/>
<path class="bcg-fronten0" d="M1001.4,2245.9h66.8c5,0,9.1,4.1,9.1,9.1v66.8c0,5-4.1,9.1-9.1,9.1h-66.8c-5,0-9.1-4.1-9.1-9.1V2255
	C992.3,2250,996.4,2245.9,1001.4,2245.9z"/>
<path class="bcg-fronten0" d="M1291.2,2246.5h103.1c5,0,9.1,4.1,9.1,9.1v66.8c0,5-4.1,9.1-9.1,9.1h-103.1c-5,0-9.1-4.1-9.1-9.1v-66.8
	C1282.1,2250.6,1286.2,2246.5,1291.2,2246.5z"/>
<path class="bcg-fronten0" d="M1424.7,2246.5h259.4c5,0,9.1,4.1,9.1,9.1v66.8c0,5-4.1,9.1-9.1,9.1h-259.4c-5,0-9.1-4.1-9.1-9.1v-66.8
	C1415.6,2250.6,1419.6,2246.5,1424.7,2246.5z"/>
<path class="bcg-fronten0" d="M383.5,2310H643c5,0,9.1,4.1,9.1,9.1v66.8c0,5-4.1,9.1-9.1,9.1H383.5c-5,0-9.1-4.1-9.1-9.1v-66.8
	C374.4,2314,378.5,2310,383.5,2310z"/>
<path class="bcg-fronten0" d="M1105.3,2415.7h259.4c5,0,9.1,4.1,9.1,9.1v66.8c0,5-4.1,9.1-9.1,9.1h-259.4c-5,0-9.1-4.1-9.1-9.1v-66.8
	C1096.2,2419.7,1100.3,2415.7,1105.3,2415.7z"/>
<path class="bcg-fronten0" d="M1420.8,2352.4h259.4c5,0,9.1,4.1,9.1,9.1v66.8c0,5-4.1,9.1-9.1,9.1h-259.4c-5,0-9.1-4.1-9.1-9.1v-66.8
	C1411.7,2356.5,1415.8,2352.4,1420.8,2352.4z"/>
<path class="bcg-fronten0" d="M1377.6,1727.1h66.8c5,0,9.1,4.1,9.1,9.1v66.8c0,5-4.1,9.1-9.1,9.1h-66.8c-5,0-9.1-4.1-9.1-9.1v-66.8
	C1368.5,1731.2,1372.6,1727.1,1377.6,1727.1z"/>
<text transform="matrix(1 0 0 1 1398.233 1786.3601)" class="bcg-fronten1 bcg-fronten2 bcg-fronten3">C</text>
<path class="bcg-fronten0" d="M1224,895.3h66.8c5,0,9.1,4.1,9.1,9.1v66.8c0,5-4.1,9.1-9.1,9.1H1224c-5,0-9.1-4.1-9.1-9.1v-66.8
	C1214.9,899.4,1219,895.3,1224,895.3z"/>
<text transform="matrix(1 0 0 1 1244.682 954.5943)" class="bcg-fronten1 bcg-fronten2 bcg-fronten3">C</text>
<path class="bcg-fronten0" d="M1352.2,48.8h66.8c5,0,9.1,4.1,9.1,9.1v66.8c0,5-4.1,9.1-9.1,9.1h-66.8c-5,0-9.1-4.1-9.1-9.1V57.9
	C1343.1,53,1347.2,48.8,1352.2,48.8z"/>
<text transform="matrix(1 0 0 1 1374.1113 108.0841)" class="bcg-fronten1 bcg-fronten2 bcg-fronten3">T</text>
<path class="bcg-fronten0" d="M844.6,108.8h66.8c5,0,9.1,4.1,9.1,9.1v66.8c0,5-4.1,9.1-9.1,9.1h-66.8c-5,0-9.1-4.1-9.1-9.1v-66.8
	C835.5,112.8,839.6,108.8,844.6,108.8z"/>
<text transform="matrix(1 0 0 1 856.7733 167.9871)" class="bcg-fronten1 bcg-fronten2 bcg-fronten3">W</text>
<path class="bcg-fronten0" d="M837,354h66.8c5,0,9.1,4.1,9.1,9.1v66.8c0,5-4.1,9.1-9.1,9.1H837c-5,0-9.1-4.1-9.1-9.1V363
	C827.9,358,832,354,837,354z"/>
<text transform="matrix(1 0 0 1 855.6581 413.2424)" class="bcg-fronten1 bcg-fronten2 bcg-fronten3">A</text>
<path class="bcg-fronten0" d="M932.6,354h66.8c5,0,9.1,4.1,9.1,9.1v66.8c0,5-4.1,9.1-9.1,9.1h-66.8c-5,0-9.1-4.1-9.1-9.1V363
	C923.5,358,927.6,354,932.6,354z"/>
<text transform="matrix(1 0 0 1 953.4139 413.2424)" class="bcg-fronten1 bcg-fronten2 bcg-fronten3">S</text>
<path class="bcg-fronten0" d="M1151.1,105.8h66.8c5,0,9.1,4.1,9.1,9.1v66.8c0,5-4.1,9.1-9.1,9.1h-66.8c-5,0-9.1-4.1-9.1-9.1v-66.8
	C1142,110,1146.1,105.8,1151.1,105.8z"/>
<text transform="matrix(1 0 0 1 1171.782 165.1443)" class="bcg-fronten1 bcg-fronten2 bcg-fronten3">C</text>
<path class="bcg-fronten0" d="M1473.2,1727.1h66.8c5,0,9.1,4.1,9.1,9.1v66.8c0,5-4.1,9.1-9.1,9.1h-66.8c-5,0-9.1-4.1-9.1-9.1v-66.8
	C1464.1,1731.2,1468.1,1727.1,1473.2,1727.1z"/>
<text transform="matrix(1 0 0 1 1493.8883 1786.3601)" class="bcg-fronten1 bcg-fronten2 bcg-fronten3">V</text>
<path class="bcg-fronten0" d="M1570.3,1727.1h66.8c5,0,9.1,4.1,9.1,9.1v66.8c0,5-4.1,9.1-9.1,9.1h-66.8c-5,0-9.1-4.1-9.1-9.1v-66.8
	C1561.2,1731.2,1565.3,1727.1,1570.3,1727.1z"/>
<text transform="matrix(1 0 0 1 1589.1178 1786.3601)" class="bcg-fronten1 bcg-fronten2 bcg-fronten3">B</text>
<path class="bcg-fronten0" d="M618.7,511.9h66.8c5,0,9.1,4.1,9.1,9.1v66.8c0,5-4.1,9.1-9.1,9.1h-66.8c-5,0-9.1-4.1-9.1-9.1V521
	C609.6,516,613.7,511.9,618.7,511.9z"/>
<text transform="matrix(1 0 0 1 637.5177 571.1602)" class="bcg-fronten1 bcg-fronten2 bcg-fronten3">B</text>
<path class="bcg-fronten0" d="M1786.4,2153.2h66.8c5,0,9.1,4.1,9.1,9.1v66.8c0,5-4.1,9.1-9.1,9.1h-66.8c-5,0-9.1-4.1-9.1-9.1v-66.8
	C1777.3,2157.3,1781.3,2153.2,1786.4,2153.2z"/>
<text transform="matrix(1 0 0 1 1808.38 2212.491)" class="bcg-fronten1 bcg-fronten2 bcg-fronten3">F</text>
<path class="bcg-fronten0" d="M1883.5,2153.2h66.8c5,0,9.1,4.1,9.1,9.1v66.8c0,5-4.1,9.1-9.1,9.1h-66.8c-5,0-9.1-4.1-9.1-9.1v-66.8
	C1874.4,2157.3,1878.4,2153.2,1883.5,2153.2z"/>
<text transform="matrix(1 0 0 1 1902.3351 2212.491)" class="bcg-fronten1 bcg-fronten2 bcg-fronten3">G</text>
<path class="bcg-fronten0" d="M1716.5,2348.4H1976c5,0,9.1,4.1,9.1,9.1v66.8c0,5-4.1,9.1-9.1,9.1h-259.4c-5,0-9.1-4.1-9.1-9.1v-66.8
	C1707.4,2352.4,1711.5,2348.4,1716.5,2348.4z"/>
<path class="bcg-fronten0" d="M1812.1,2253.4h66.8c5,0,9.1,4.1,9.1,9.1v66.8c0,5-4.1,9.1-9.1,9.1h-66.8c-5,0-9.1-4.1-9.1-9.1v-66.8
	C1803,2257.5,1807.1,2253.4,1812.1,2253.4z"/>
<text transform="matrix(1 0 0 1 1832.8224 2312.6287)" class="bcg-fronten1 bcg-fronten2 bcg-fronten3">V</text>
<path class="bcg-fronten0" d="M1909.2,2253.4h66.8c5,0,9.1,4.1,9.1,9.1v66.8c0,5-4.1,9.1-9.1,9.1h-66.8c-5,0-9.1-4.1-9.1-9.1v-66.8
	C1900.1,2257.5,1904.2,2253.4,1909.2,2253.4z"/>
<text transform="matrix(1 0 0 1 1928.0519 2312.6287)" class="bcg-fronten1 bcg-fronten2 bcg-fronten3">B</text>
<path class="bcg-fronten0" d="M176.9,220.6h66.8c5,0,9.1,4.1,9.1,9.1v66.8c0,5-4.1,9.1-9.1,9.1h-66.8c-5,0-9.1-4.1-9.1-9.1v-66.8
	C167.8,224.7,171.9,220.6,176.9,220.6z"/>
<text transform="matrix(1 0 0 1 195.7427 279.8647)" class="bcg-fronten1 bcg-fronten2 bcg-fronten3">B</text>
</svg>
