<?xml version="1.0" encoding="utf-8"?>
<svg version="1.1" id="Warstwa_1" xmlns="http://www.w3.org/2000/svg" xmlns:xlink="http://www.w3.org/1999/xlink" x="0px" y="0px"
	 viewBox="0 0 323.1 3039.4" style="enable-background:new 0 0 323.1 3039.4;" xml:space="preserve">
<style type="text/css">
	.bcg-fronten-mobile0{fill:#1E2333;}
	.bcg-fronten-mobile1{fill:#2B304B;}
	.bcg-fronten-mobile2{font-family:'AlegaOffc';}
	.bcg-fronten-mobile3{font-size:41.0439px;}
	.bcg-fronten-mobile4{enable-background:new    ;}
</style>
<path class="bcg-fronten-mobile0" d="M285.3,2068.5h51.6c3.9,0,7,3.2,7,7v51.6c0,3.9-3.2,7-7,7h-51.6c-3.9,0-7-3.2-7-7v-51.6
	C278.2,2071.7,281.4,2068.5,285.3,2068.5z"/>
<text transform="matrix(1 0 0 1 302.2 2114.2915)" class="bcg-fronten-mobile1 bcg-fronten-mobile2 bcg-fronten-mobile3">T</text>
<path class="bcg-fronten-mobile0" d="M-71.2,704.6h88.7c2.9,0,5.2,2.3,5.2,5.2l0,0c0,2.9-2.3,5.2-5.2,5.2h-88.7c-2.9,0-5.2-2.3-5.2-5.2l0,0
	C-76.4,707-74.1,704.6-71.2,704.6z"/>
<path class="bcg-fronten-mobile1" d="M39.6,704.6h88.7c2.9,0,5.2,2.3,5.2,5.2l0,0c0,2.9-2.3,5.2-5.2,5.2H39.6c-2.9,0-5.2-2.3-5.2-5.2l0,0
	C34.3,707,36.6,704.6,39.6,704.6z"/>
<path class="bcg-fronten-mobile0" d="M-71.2,729.4h175.7c2.9,0,5.2,2.3,5.2,5.2l0,0c0,2.9-2.3,5.2-5.2,5.2H-71.2c-2.9,0-5.2-2.3-5.2-5.2l0,0
	C-76.4,731.7-74.1,729.4-71.2,729.4z"/>
<path class="bcg-fronten-mobile0" d="M-71.2,752.8H37.6c2.9,0,5.2,2.3,5.2,5.2l0,0c0,2.9-2.3,5.2-5.2,5.2H-71.2c-2.9,0-5.2-2.3-5.2-5.2l0,0
	C-76.4,755.1-74.1,752.8-71.2,752.8z"/>
<path class="bcg-fronten-mobile0" d="M-36.2,969.7h175.7c2.9,0,5.2,2.3,5.2,5.2l0,0c0,2.9-2.3,5.2-5.2,5.2H-36.2c-2.9,0-5.2-2.3-5.2-5.2l0,0
	C-41.4,972-39,969.7-36.2,969.7z"/>
<path class="bcg-fronten-mobile0" d="M-37.8,946.4H71c2.9,0,5.2,2.3,5.2,5.2l0,0c0,2.9-2.3,5.2-5.2,5.2H-37.8c-2.9,0-5.2-2.3-5.2-5.2l0,0
	C-43,948.7-40.7,946.4-37.8,946.4z"/>
<path class="bcg-fronten-mobile0" d="M-71.2,776.1h88.7c2.9,0,5.2,2.3,5.2,5.2l0,0c0,2.9-2.3,5.2-5.2,5.2h-88.7c-2.9,0-5.2-2.3-5.2-5.2l0,0
	C-76.4,778.4-74.1,776.1-71.2,776.1z"/>
<path class="bcg-fronten-mobile0" d="M39.6,776.1h320.2c2.9,0,5.2,2.3,5.2,5.2l0,0c0,2.9-2.3,5.2-5.2,5.2H39.6c-2.9,0-5.2-2.3-5.2-5.2l0,0
	C34.3,778.4,36.6,776.1,39.6,776.1z"/>
<path class="bcg-fronten-mobile0" d="M-71.2,800.8h175.7c2.9,0,5.2,2.3,5.2,5.2l0,0c0,2.9-2.3,5.2-5.2,5.2H-71.2c-2.9,0-5.2-2.3-5.2-5.2l0,0
	C-76.4,803.1-74.1,800.8-71.2,800.8z"/>
<path class="bcg-fronten-mobile0" d="M-30.1,825.5h88.7c2.9,0,5.2,2.3,5.2,5.2l0,0c0,2.9-2.3,5.2-5.2,5.2h-88.7c-2.9,0-5.2-2.3-5.2-5.2l0,0
	C-35.3,827.8-32.9,825.5-30.1,825.5z"/>
<path class="bcg-fronten-mobile0" d="M-30.1,850.3h175.7c2.9,0,5.2,2.3,5.2,5.2l0,0c0,2.9-2.3,5.2-5.2,5.2H-30.1c-2.9,0-5.2-2.3-5.2-5.2l0,0
	C-35.3,852.6-32.9,850.3-30.1,850.3z"/>
<path class="bcg-fronten-mobile0" d="M-30.1,873.7H78.7c2.9,0,5.2,2.3,5.2,5.2l0,0c0,2.9-2.3,5.2-5.2,5.2H-30.1c-2.9,0-5.2-2.3-5.2-5.2l0,0
	C-35.3,876-32.9,873.7-30.1,873.7z"/>
<path class="bcg-fronten-mobile0" d="M-30.1,896.9h88.7c2.9,0,5.2,2.3,5.2,5.2l0,0c0,2.9-2.3,5.2-5.2,5.2h-88.7c-2.9,0-5.2-2.3-5.2-5.2l0,0
	C-35.3,899.3-32.9,896.9-30.1,896.9z"/>
<path class="bcg-fronten-mobile0" d="M-30.1,921.7h175.7c2.9,0,5.2,2.3,5.2,5.2l0,0c0,2.9-2.3,5.2-5.2,5.2H-30.1c-2.9,0-5.2-2.3-5.2-5.2l0,0
	C-35.3,924-32.9,921.7-30.1,921.7z"/>
<path class="bcg-fronten-mobile0" d="M-39.3,999.2h150.6c2.9,0,5.2,2.3,5.2,5.2l0,0c0,2.9-2.3,5.2-5.2,5.2H-39.3c-2.9,0-5.2-2.3-5.2-5.2l0,0
	C-44.5,1001.5-42.1,999.2-39.3,999.2z"/>
<path class="bcg-fronten-mobile0" d="M-39.3,1023.9h175.7c2.9,0,5.2,2.3,5.2,5.2l0,0c0,2.9-2.3,5.2-5.2,5.2H-39.3c-2.9,0-5.2-2.3-5.2-5.2l0,0
	C-44.5,1026.3-42.1,1023.9-39.3,1023.9z"/>
<path class="bcg-fronten-mobile0" d="M-36.2,1543.2h88.7c2.9,0,5.2,2.3,5.2,5.2l0,0c0,2.9-2.3,5.2-5.2,5.2h-88.7c-2.9,0-5.2-2.3-5.2-5.2l0,0
	C-41.4,1545.5-39,1543.2-36.2,1543.2z"/>
<path class="bcg-fronten-mobile0" d="M-36.2,1567.9h175.7c2.9,0,5.2,2.3,5.2,5.2l0,0c0,2.9-2.3,5.2-5.2,5.2H-36.2c-2.9,0-5.2-2.3-5.2-5.2l0,0
	C-41.4,1570.2-39,1567.9-36.2,1567.9z"/>
<path class="bcg-fronten-mobile0" d="M-36,1622.8h90.2c2.9,0,5.2,2.3,5.2,5.2l0,0c0,2.9-2.3,5.2-5.2,5.2H-36c-2.9,0-5.2-2.3-5.2-5.2l0,0
	C-41.1,1625.2-38.8,1622.8-36,1622.8z"/>
<path class="bcg-fronten-mobile0" d="M-36,1596.5H94.3c2.9,0,5.2,2.3,5.2,5.2l0,0c0,2.9-2.3,5.2-5.2,5.2H-36c-2.9,0-5.2-2.3-5.2-5.2l0,0
	C-41.1,1598.8-38.8,1596.5-36,1596.5z"/>
<path class="bcg-fronten-mobile0" d="M-36.2,1649.1H79.4c2.9,0,5.2,2.3,5.2,5.2l0,0c0,2.9-2.3,5.2-5.2,5.2H-36.2c-2.9,0-5.2-2.3-5.2-5.2l0,0
	C-41.4,1651.5-39,1649.1-36.2,1649.1z"/>
<path class="bcg-fronten-mobile0" d="M-36,1704h90.2c2.9,0,5.2,2.3,5.2,5.2l0,0c0,2.9-2.3,5.2-5.2,5.2H-36c-2.9,0-5.2-2.3-5.2-5.2l0,0
	C-41.1,1706.3-38.8,1704-36,1704z"/>
<path class="bcg-fronten-mobile0" d="M-36,1677.7H94.3c2.9,0,5.2,2.3,5.2,5.2l0,0c0,2.9-2.3,5.2-5.2,5.2H-36c-2.9,0-5.2-2.3-5.2-5.2l0,0
	C-41.1,1680-38.8,1677.7-36,1677.7z"/>
<path class="bcg-fronten-mobile0" d="M-36.2,1436.9h88.7c2.9,0,5.2,2.3,5.2,5.2l0,0c0,2.9-2.3,5.2-5.2,5.2h-88.7c-2.9,0-5.2-2.3-5.2-5.2l0,0
	C-41.4,1439.2-39,1436.9-36.2,1436.9z"/>
<path class="bcg-fronten-mobile0" d="M74.6,1436.9h145.8c2.9,0,5.2,2.3,5.2,5.2l0,0c0,2.9-2.3,5.2-5.2,5.2H74.6c-2.9,0-5.2-2.3-5.2-5.2l0,0
	C69.3,1439.2,71.6,1436.9,74.6,1436.9z"/>
<path class="bcg-fronten-mobile0" d="M-36.2,1461.6h175.7c2.9,0,5.2,2.3,5.2,5.2l0,0c0,2.9-2.3,5.2-5.2,5.2H-36.2c-2.9,0-5.2-2.3-5.2-5.2l0,0
	C-41.4,1463.9-39,1461.6-36.2,1461.6z"/>
<path class="bcg-fronten-mobile0" d="M-36,1516.5h90.2c2.9,0,5.2,2.3,5.2,5.2l0,0c0,2.9-2.3,5.2-5.2,5.2H-36c-2.9,0-5.2-2.3-5.2-5.2l0,0
	C-41.1,1518.8-38.8,1516.5-36,1516.5z"/>
<path class="bcg-fronten-mobile0" d="M-36.2,1757.3h143.7c2.9,0,5.2,2.3,5.2,5.2v0.3c0,2.9-2.3,5.2-5.2,5.2H-36.2c-2.9,0-5.2-2.3-5.2-5.2v-0.3
	C-41.4,1759.6-39,1757.3-36.2,1757.3z"/>
<path class="bcg-fronten-mobile0" d="M-36,1730.9h90.2c2.9,0,5.2,2.3,5.2,5.2l0,0c0,2.9-2.3,5.2-5.2,5.2H-36c-2.9,0-5.2-2.3-5.2-5.2l0,0
	C-41.1,1733.3-38.8,1730.9-36,1730.9z"/>
<path class="bcg-fronten-mobile0" d="M-36,1490.2H94.3c2.9,0,5.2,2.3,5.2,5.2l0,0c0,2.9-2.3,5.2-5.2,5.2H-36c-2.9,0-5.2-2.3-5.2-5.2l0,0
	C-41.1,1492.5-38.8,1490.2-36,1490.2z"/>
<path class="bcg-fronten-mobile0" d="M-36.2,1154.7H116c2.9,0,5.2,2.3,5.2,5.2l0,0c0,2.9-2.3,5.2-5.2,5.2H-36.2c-2.9,0-5.2-2.3-5.2-5.2l0,0
	C-41.4,1157-39,1154.7-36.2,1154.7z"/>
<path class="bcg-fronten-mobile0" d="M-36.2,1179.4h70.9c2.9,0,5.2,2.3,5.2,5.2l0,0c0,2.9-2.3,5.2-5.2,5.2h-70.9c-2.9,0-5.2-2.3-5.2-5.2l0,0
	C-41.4,1181.8-39,1179.4-36.2,1179.4z"/>
<path class="bcg-fronten-mobile0" d="M60.3,1179.4h70.9c2.9,0,5.2,2.3,5.2,5.2l0,0c0,2.9-2.3,5.2-5.2,5.2H60.3c-2.9,0-5.2-2.3-5.2-5.2l0,0
	C55,1181.8,57.3,1179.4,60.3,1179.4z"/>
<path class="bcg-fronten-mobile0" d="M-36,1234.3h90.2c2.9,0,5.2,2.3,5.2,5.2l0,0c0,2.9-2.3,5.2-5.2,5.2H-36c-2.9,0-5.2-2.3-5.2-5.2l0,0
	C-41.1,1236.6-38.8,1234.3-36,1234.3z"/>
<path class="bcg-fronten-mobile0" d="M-36,1208H94.3c2.9,0,5.2,2.3,5.2,5.2l0,0c0,2.9-2.3,5.2-5.2,5.2H-36c-2.9,0-5.2-2.3-5.2-5.2l0,0
	C-41.1,1210.4-38.8,1208-36,1208z"/>
<path class="bcg-fronten-mobile0" d="M-36.2,1260.7H79.4c2.9,0,5.2,2.3,5.2,5.2l0,0c0,2.9-2.3,5.2-5.2,5.2H-36.2c-2.9,0-5.2-2.3-5.2-5.2l0,0
	C-41.4,1263-39,1260.7-36.2,1260.7z"/>
<path class="bcg-fronten-mobile0" d="M-36.2,1287.7h70.9c2.9,0,5.2,2.3,5.2,5.2l0,0c0,2.9-2.3,5.2-5.2,5.2h-70.9c-2.9,0-5.2-2.3-5.2-5.2l0,0
	C-41.4,1290-39,1287.7-36.2,1287.7z"/>
<path class="bcg-fronten-mobile0" d="M-36,1342.6h90.2c2.9,0,5.2,2.3,5.2,5.2l0,0c0,2.9-2.3,5.2-5.2,5.2H-36c-2.9,0-5.2-2.3-5.2-5.2l0,0
	C-41.1,1344.9-38.8,1342.6-36,1342.6z"/>
<path class="bcg-fronten-mobile0" d="M-36,1316.2H94.3c2.9,0,5.2,2.3,5.2,5.2l0,0c0,2.9-2.3,5.2-5.2,5.2H-36c-2.9,0-5.2-2.3-5.2-5.2l0,0
	C-41.1,1318.6-38.8,1316.2-36,1316.2z"/>
<path class="bcg-fronten-mobile0" d="M-36.2,1367.7H79.4c2.9,0,5.2,2.3,5.2,5.2l0,0c0,2.9-2.3,5.2-5.2,5.2H-36.2c-2.9,0-5.2-2.3-5.2-5.2l0,0
	C-41.4,1370.1-39,1367.7-36.2,1367.7z"/>
<path class="bcg-fronten-mobile0" d="M-36,1390.4h90.2c2.9,0,5.2,2.3,5.2,5.2l0,0c0,2.9-2.3,5.2-5.2,5.2H-36c-2.9,0-5.2-2.3-5.2-5.2l0,0
	C-41.1,1392.7-38.8,1390.4-36,1390.4z"/>
<path class="bcg-fronten-mobile0" d="M99.6,1413.7h90.2c2.9,0,5.2,2.3,5.2,5.2l0,0c0,2.9-2.3,5.2-5.2,5.2H99.6c-2.9,0-5.2-2.3-5.2-5.2l0,0
	C94.4,1416,96.7,1413.7,99.6,1413.7z"/>
<path class="bcg-fronten-mobile0" d="M-36.2,1413.7H79.4c2.9,0,5.2,2.3,5.2,5.2l0,0c0,2.9-2.3,5.2-5.2,5.2H-36.2c-2.9,0-5.2-2.3-5.2-5.2l0,0
	C-41.4,1416-39,1413.7-36.2,1413.7z"/>
<path class="bcg-fronten-mobile0" d="M-36.2,1940.4h88.7c2.9,0,5.2,2.3,5.2,5.2l0,0c0,2.9-2.3,5.2-5.2,5.2h-88.7c-2.9,0-5.2-2.3-5.2-5.2l0,0
	C-41.4,1942.7-39,1940.4-36.2,1940.4z"/>
<path class="bcg-fronten-mobile0" d="M-36.2,1965.1h175.7c2.9,0,5.2,2.3,5.2,5.2l0,0c0,2.9-2.3,5.2-5.2,5.2H-36.2c-2.9,0-5.2-2.3-5.2-5.2l0,0
	C-41.4,1967.4-39,1965.1-36.2,1965.1z"/>
<path class="bcg-fronten-mobile0" d="M76,2020h218.7c2.9,0,5.2,2.3,5.2,5.2l0,0c0,2.9-2.3,5.2-5.2,5.2H76c-2.9,0-5.2-2.3-5.2-5.2l0,0
	C70.7,2022.4,73.1,2020,76,2020z"/>
<path class="bcg-fronten-mobile0" d="M-36,2020h90.2c2.9,0,5.2,2.3,5.2,5.2l0,0c0,2.9-2.3,5.2-5.2,5.2H-36c-2.9,0-5.2-2.3-5.2-5.2l0,0
	C-41.1,2022.4-38.8,2020-36,2020z"/>
<path class="bcg-fronten-mobile0" d="M-36,1993.7H94.3c2.9,0,5.2,2.3,5.2,5.2l0,0c0,2.9-2.3,5.2-5.2,5.2H-36c-2.9,0-5.2-2.3-5.2-5.2l0,0
	C-41.1,1996-38.8,1993.7-36,1993.7z"/>
<path class="bcg-fronten-mobile0" d="M-36.2,2046.3H79.4c2.9,0,5.2,2.3,5.2,5.2l0,0c0,2.9-2.3,5.2-5.2,5.2H-36.2c-2.9,0-5.2-2.3-5.2-5.2l0,0
	C-41.4,2048.6-39,2046.3-36.2,2046.3z"/>
<path class="bcg-fronten-mobile0" d="M-36,2101.2h90.2c2.9,0,5.2,2.3,5.2,5.2l0,0c0,2.9-2.3,5.2-5.2,5.2H-36c-2.9,0-5.2-2.3-5.2-5.2l0,0
	C-41.1,2103.5-38.8,2101.2-36,2101.2z"/>
<path class="bcg-fronten-mobile0" d="M-36,2074.9H94.3c2.9,0,5.2,2.3,5.2,5.2l0,0c0,2.9-2.3,5.2-5.2,5.2H-36c-2.9,0-5.2-2.3-5.2-5.2l0,0
	C-41.1,2077.2-38.8,2074.9-36,2074.9z"/>
<path class="bcg-fronten-mobile0" d="M-36.2,1834.1h88.7c2.9,0,5.2,2.3,5.2,5.2l0,0c0,2.9-2.3,5.2-5.2,5.2h-88.7c-2.9,0-5.2-2.3-5.2-5.2l0,0
	C-41.4,1836.4-39,1834.1-36.2,1834.1z"/>
<path class="bcg-fronten-mobile0" d="M74.6,1834.1h145.8c2.9,0,5.2,2.3,5.2,5.2l0,0c0,2.9-2.3,5.2-5.2,5.2H74.6c-2.9,0-5.2-2.3-5.2-5.2l0,0
	C69.3,1836.4,71.6,1834.1,74.6,1834.1z"/>
<path class="bcg-fronten-mobile0" d="M-36.2,1858.8h175.7c2.9,0,5.2,2.3,5.2,5.2l0,0c0,2.9-2.3,5.2-5.2,5.2H-36.2c-2.9,0-5.2-2.3-5.2-5.2l0,0
	C-41.4,1861.1-39,1858.8-36.2,1858.8z"/>
<path class="bcg-fronten-mobile0" d="M-36,1913.7h90.2c2.9,0,5.2,2.3,5.2,5.2l0,0c0,2.9-2.3,5.2-5.2,5.2H-36c-2.9,0-5.2-2.3-5.2-5.2l0,0
	C-41.1,1916-38.8,1913.7-36,1913.7z"/>
<path class="bcg-fronten-mobile0" d="M-36,2128.1h90.2c2.9,0,5.2,2.3,5.2,5.2l0,0c0,2.9-2.3,5.2-5.2,5.2H-36c-2.9,0-5.2-2.3-5.2-5.2l0,0
	C-41.1,2130.5-38.8,2128.1-36,2128.1z"/>
<path class="bcg-fronten-mobile0" d="M-36,1887.4H94.3c2.9,0,5.2,2.3,5.2,5.2l0,0c0,2.9-2.3,5.2-5.2,5.2H-36c-2.9,0-5.2-2.3-5.2-5.2l0,0
	C-41.1,1889.7-38.8,1887.4-36,1887.4z"/>
<path class="bcg-fronten-mobile0" d="M-36,1787.6h90.2c2.9,0,5.2,2.3,5.2,5.2l0,0c0,2.9-2.3,5.2-5.2,5.2H-36c-2.9,0-5.2-2.3-5.2-5.2l0,0
	C-41.1,1789.9-38.8,1787.6-36,1787.6z"/>
<path class="bcg-fronten-mobile1" d="M99.6,1810.9h90.2c2.9,0,5.2,2.3,5.2,5.2l0,0c0,2.9-2.3,5.2-5.2,5.2H99.6c-2.9,0-5.2-2.3-5.2-5.2l0,0
	C94.4,1813.2,96.7,1810.9,99.6,1810.9z"/>
<path class="bcg-fronten-mobile0" d="M-36.2,1810.9H79.4c2.9,0,5.2,2.3,5.2,5.2l0,0c0,2.9-2.3,5.2-5.2,5.2H-36.2c-2.9,0-5.2-2.3-5.2-5.2l0,0
	C-41.4,1813.2-39,1810.9-36.2,1810.9z"/>
<path class="bcg-fronten-mobile0" d="M-36.2,1048.4h88.7c2.9,0,5.2,2.3,5.2,5.2l0,0c0,2.9-2.3,5.2-5.2,5.2h-88.7c-2.9,0-5.2-2.3-5.2-5.2l0,0
	C-41.4,1050.8-39,1048.4-36.2,1048.4z"/>
<path class="bcg-fronten-mobile0" d="M-36.2,1073.2h175.7c2.9,0,5.2,2.3,5.2,5.2l0,0c0,2.9-2.3,5.2-5.2,5.2H-36.2c-2.9,0-5.2-2.3-5.2-5.2l0,0
	C-41.4,1075.5-39,1073.2-36.2,1073.2z"/>
<path class="bcg-fronten-mobile0" d="M-36,1128h90.2c2.9,0,5.2,2.3,5.2,5.2l0,0c0,2.9-2.3,5.2-5.2,5.2H-36c-2.9,0-5.2-2.3-5.2-5.2l0,0
	C-41.1,1130.4-38.8,1128-36,1128z"/>
<path class="bcg-fronten-mobile0" d="M-36,1101.7H94.3c2.9,0,5.2,2.3,5.2,5.2l0,0c0,2.9-2.3,5.2-5.2,5.2H-36c-2.9,0-5.2-2.3-5.2-5.2l0,0
	C-41.1,1104.1-38.8,1101.7-36,1101.7z"/>
<path class="bcg-fronten-mobile0" d="M58.6,2223.3h51.6c3.9,0,7,3.2,7,7v51.6c0,3.9-3.2,7-7,7H58.6c-3.9,0-7-3.2-7-7v-51.6
	C51.6,2226.5,54.7,2223.3,58.6,2223.3z"/>
<text transform="matrix(1 0 0 1 72.558 2269.1416)" class="bcg-fronten-mobile1 bcg-fronten-mobile2 bcg-fronten-mobile3">Q</text>
<path class="bcg-fronten-mobile0" d="M132.5,2223.3h51.6c3.9,0,7,3.2,7,7v51.6c0,3.9-3.2,7-7,7h-51.6c-3.9,0-7-3.2-7-7v-51.6
	C125.5,2226.5,128.6,2223.3,132.5,2223.3z"/>
<text transform="matrix(1 0 0 1 141.9164 2269.1416)" class="bcg-fronten-mobile1 bcg-fronten-mobile2 bcg-fronten-mobile3">W</text>
<path class="bcg-fronten-mobile0" d="M212.5,1550.1h51.6c3.9,0,7,3.2,7,7v51.6c0,3.9-3.2,7-7,7h-51.6c-3.9,0-7-3.2-7-7v-51.6
	C205.4,1553.3,208.6,1550.1,212.5,1550.1z"/>
<text transform="matrix(1 0 0 1 221.8658 1595.9084)" class="bcg-fronten-mobile1 bcg-fronten-mobile2 bcg-fronten-mobile3">W</text>
<path class="bcg-fronten-mobile0" d="M207.5,2223.3h51.6c3.9,0,7,3.2,7,7v51.6c0,3.9-3.2,7-7,7h-51.6c-3.9,0-7-3.2-7-7v-51.6
	C200.5,2226.5,203.7,2223.3,207.5,2223.3z"/>
<text transform="matrix(1 0 0 1 223.4174 2269.1416)" class="bcg-fronten-mobile1 bcg-fronten-mobile2 bcg-fronten-mobile3">E</text>
<g>
	<path class="bcg-fronten-mobile0" d="M171.1,432.8h51.6c3.9,0,7,3.2,7,7v51.6c0,3.9-3.2,7-7,7h-51.6c-3.9,0-7-3.2-7-7v-51.6
		C164.1,435.9,167.2,432.8,171.1,432.8z"/>
	<text transform="matrix(1 0 0 1 186.9612 478.5749)" class="bcg-fronten-mobile1 bcg-fronten-mobile2 bcg-fronten-mobile3">E</text>
</g>
<path class="bcg-fronten-mobile0" d="M281.4,2223.3h51.6c3.9,0,7,3.2,7,7v51.6c0,3.9-3.2,7-7,7h-51.6c-3.9,0-7-3.2-7-7v-51.6
	C274.4,2226.5,277.6,2223.3,281.4,2223.3z"/>
<text transform="matrix(1 0 0 1 296.183 2269.1416)" class="bcg-fronten-mobile1 bcg-fronten-mobile2 bcg-fronten-mobile3">R</text>
<path class="bcg-fronten-mobile0" d="M356.5,2223.3h51.6c3.9,0,7,3.2,7,7v51.6c0,3.9-3.2,7-7,7h-51.6c-3.9,0-7-3.2-7-7v-51.6
	C349.5,2226.5,352.6,2223.3,356.5,2223.3z"/>
<text transform="matrix(1 0 0 1 373.3988 2269.1416)" class="bcg-fronten-mobile1 bcg-fronten-mobile2 bcg-fronten-mobile3">T</text>
<path class="bcg-fronten-mobile0" d="M79.8,2300.8h51.6c3.9,0,7,3.2,7,7v51.6c0,3.9-3.2,7-7,7H79.8c-3.9,0-7-3.2-7-7v-51.6
	C72.8,2303.9,75.8,2300.8,79.8,2300.8z"/>
<text transform="matrix(1 0 0 1 94.1703 2346.5386)" class="bcg-fronten-mobile1 bcg-fronten-mobile2 bcg-fronten-mobile3">A</text>
<path class="bcg-fronten-mobile0" d="M153.6,2300.8h51.6c3.9,0,7,3.2,7,7v51.6c0,3.9-3.2,7-7,7h-51.6c-3.9,0-7-3.2-7-7v-51.6
	C146.6,2303.9,149.7,2300.8,153.6,2300.8z"/>
<text transform="matrix(1 0 0 1 169.7211 2346.5386)" class="bcg-fronten-mobile1 bcg-fronten-mobile2 bcg-fronten-mobile3">S</text>
<path class="bcg-fronten-mobile0" d="M42.6,48.3h51.6c3.9,0,7,3.2,7,7v51.6c0,3.9-3.2,7-7,7H42.6c-3.9,0-7-3.2-7-7V55.3
	C35.6,51.4,38.7,48.3,42.6,48.3z"/>
<text transform="matrix(1 0 0 1 58.7039 94.0619)" class="bcg-fronten-mobile1 bcg-fronten-mobile2 bcg-fronten-mobile3">S</text>
<path class="bcg-fronten-mobile0" d="M228.7,2300.8h51.6c3.9,0,7,3.2,7,7v51.6c0,3.9-3.2,7-7,7h-51.6c-3.9,0-7-3.2-7-7v-51.6
	C221.6,2303.9,224.8,2300.8,228.7,2300.8z"/>
<text transform="matrix(1 0 0 1 243.5287 2346.5386)" class="bcg-fronten-mobile1 bcg-fronten-mobile2 bcg-fronten-mobile3">D</text>
<path class="bcg-fronten-mobile0" d="M302.5,2300.8h51.6c3.9,0,7,3.2,7,7v51.6c0,3.9-3.2,7-7,7h-51.6c-3.9,0-7-3.2-7-7v-51.6
	C295.5,2303.9,298.7,2300.8,302.5,2300.8z"/>
<text transform="matrix(1 0 0 1 319.5785 2346.5386)" class="bcg-fronten-mobile1 bcg-fronten-mobile2 bcg-fronten-mobile3">F</text>
<path class="bcg-fronten-mobile0" d="M86.4,1671.1H138c3.9,0,7,3.2,7,7v51.6c0,3.9-3.2,7-7,7H86.4c-3.9,0-7-3.2-7-7v-51.6
	C79.3,1674.3,82.5,1671.1,86.4,1671.1z"/>
<text transform="matrix(1 0 0 1 95.7527 1716.9038)" class="bcg-fronten-mobile1 bcg-fronten-mobile2 bcg-fronten-mobile3">W</text>
<path class="bcg-fronten-mobile0" d="M161.4,1671.1H213c3.9,0,7,3.2,7,7v51.6c0,3.9-3.2,7-7,7h-51.6c-3.9,0-7-3.2-7-7v-51.6
	C154.4,1674.3,157.5,1671.1,161.4,1671.1z"/>
<text transform="matrix(1 0 0 1 177.2546 1716.9038)" class="bcg-fronten-mobile1 bcg-fronten-mobile2 bcg-fronten-mobile3">E</text>
<path class="bcg-fronten-mobile0" d="M235.3,1671.1h51.6c3.9,0,7,3.2,7,7v51.6c0,3.9-3.2,7-7,7h-51.6c-3.9,0-7-3.2-7-7v-51.6
	C228.3,1674.3,231.4,1671.1,235.3,1671.1z"/>
<text transform="matrix(1 0 0 1 250.0193 1716.9038)" class="bcg-fronten-mobile1 bcg-fronten-mobile2 bcg-fronten-mobile3">R</text>
<path class="bcg-fronten-mobile0" d="M33.6,1748.5h51.6c3.9,0,7,3.2,7,7v51.6c0,3.9-3.2,7-7,7H33.6c-3.9,0-7-3.2-7-7v-51.6
	C26.6,1751.6,29.7,1748.5,33.6,1748.5z"/>
<text transform="matrix(1 0 0 1 48.0076 1794.3008)" class="bcg-fronten-mobile1 bcg-fronten-mobile2 bcg-fronten-mobile3">A</text>
<path class="bcg-fronten-mobile0" d="M107.5,1748.5h51.6c3.9,0,7,3.2,7,7v51.6c0,3.9-3.2,7-7,7h-51.6c-3.9,0-7-3.2-7-7v-51.6
	C100.4,1751.6,103.6,1748.5,107.5,1748.5z"/>
<text transform="matrix(1 0 0 1 123.5574 1794.3008)" class="bcg-fronten-mobile1 bcg-fronten-mobile2 bcg-fronten-mobile3">S</text>
<path class="bcg-fronten-mobile0" d="M182.6,1748.5h51.6c3.9,0,7,3.2,7,7v51.6c0,3.9-3.2,7-7,7h-51.6c-3.9,0-7-3.2-7-7v-51.6
	C175.5,1751.6,178.6,1748.5,182.6,1748.5z"/>
<text transform="matrix(1 0 0 1 197.366 1794.3008)" class="bcg-fronten-mobile1 bcg-fronten-mobile2 bcg-fronten-mobile3">D</text>
<path class="bcg-fronten-mobile0" d="M256.4,1748.5H308c3.9,0,7,3.2,7,7v51.6c0,3.9-3.2,7-7,7h-51.6c-3.9,0-7-3.2-7-7v-51.6
	C249.4,1751.6,252.5,1748.5,256.4,1748.5z"/>
<text transform="matrix(1 0 0 1 273.4148 1794.3008)" class="bcg-fronten-mobile1 bcg-fronten-mobile2 bcg-fronten-mobile3">F</text>
<path class="bcg-fronten-mobile0" d="M377.6,2300.8h51.6c3.9,0,7,3.2,7,7v51.6c0,3.9-3.2,7-7,7h-51.6c-3.9,0-7-3.2-7-7v-51.6
	C370.6,2303.9,373.7,2300.8,377.6,2300.8z"/>
<text transform="matrix(1 0 0 1 392.1957 2346.5386)" class="bcg-fronten-mobile1 bcg-fronten-mobile2 bcg-fronten-mobile3">G</text>
<path class="bcg-fronten-mobile0" d="M167,1891.2h51.6c3.9,0,7,3.2,7,7v51.6c0,3.9-3.2,7-7,7H167c-3.9,0-7-3.2-7-7v-51.6
	C160,1894.4,163.1,1891.2,167,1891.2z"/>
<text transform="matrix(1 0 0 1 181.4319 1937.0325)" class="bcg-fronten-mobile1 bcg-fronten-mobile2 bcg-fronten-mobile3">A</text>
<path class="bcg-fronten-mobile0" d="M240.9,1891.2h51.6c3.9,0,7,3.2,7,7v51.6c0,3.9-3.2,7-7,7h-51.6c-3.9,0-7-3.2-7-7v-51.6
	C233.9,1894.4,237,1891.2,240.9,1891.2z"/>
<text transform="matrix(1 0 0 1 256.9866 1937.0325)" class="bcg-fronten-mobile1 bcg-fronten-mobile2 bcg-fronten-mobile3">S</text>
<path class="bcg-fronten-mobile0" d="M201.8,971.5h51.6c3.9,0,7,3.2,7,7v51.6c0,3.9-3.2,7-7,7h-51.6c-3.9,0-7-3.2-7-7v-51.6
	C194.8,974.7,197.9,971.5,201.8,971.5z"/>
<text transform="matrix(1 0 0 1 216.1876 1017.3542)" class="bcg-fronten-mobile1 bcg-fronten-mobile2 bcg-fronten-mobile3">A</text>
<path class="bcg-fronten-mobile0" d="M275.6,971.5h51.6c3.9,0,7,3.2,7,7v51.6c0,3.9-3.2,7-7,7h-51.6c-3.9,0-7-3.2-7-7v-51.6
	C268.6,974.7,271.8,971.5,275.6,971.5z"/>
<text transform="matrix(1 0 0 1 291.7443 1017.3542)" class="bcg-fronten-mobile1 bcg-fronten-mobile2 bcg-fronten-mobile3">S</text>
<path class="bcg-fronten-mobile0" d="M44.4,590.7H96c3.9,0,7,3.2,7,7v51.6c0,3.9-3.2,7-7,7H44.4c-3.9,0-7-3.2-7-7v-51.6
	C37.4,593.9,40.5,590.7,44.4,590.7z"/>
<text transform="matrix(1 0 0 1 59.2389 636.5071)" class="bcg-fronten-mobile1 bcg-fronten-mobile2 bcg-fronten-mobile3">D</text>
<path class="bcg-fronten-mobile0" d="M118.3,590.7h51.6c3.9,0,7,3.2,7,7v51.6c0,3.9-3.2,7-7,7h-51.6c-3.9,0-7-3.2-7-7v-51.6
	C111.2,593.9,114.4,590.7,118.3,590.7z"/>
<text transform="matrix(1 0 0 1 135.2819 636.5071)" class="bcg-fronten-mobile1 bcg-fronten-mobile2 bcg-fronten-mobile3">F</text>
<path class="bcg-fronten-mobile0" d="M193.3,590.7H245c3.9,0,7,3.2,7,7v51.6c0,3.9-3.2,7-7,7h-51.6c-3.9,0-7-3.2-7-7v-51.6
	C186.3,593.9,189.5,590.7,193.3,590.7z"/>
<text transform="matrix(1 0 0 1 207.9 636.5071)" class="bcg-fronten-mobile1 bcg-fronten-mobile2 bcg-fronten-mobile3">G</text>
<path class="bcg-fronten-mobile0" d="M-60.3,2634.5h51.6c3.9,0,7,3.2,7,7v51.6c0,3.9-3.2,7-7,7h-51.6c-3.9,0-7-3.2-7-7v-51.6
	C-67.3,2637.7-64.1,2634.5-60.3,2634.5z"/>
<text transform="matrix(1 0 0 1 -45.4004 2680.3167)" class="bcg-fronten-mobile1 bcg-fronten-mobile2 bcg-fronten-mobile3">D</text>
<path class="bcg-fronten-mobile0" d="M13.6,2634.5h51.6c3.9,0,7,3.2,7,7v51.6c0,3.9-3.2,7-7,7H13.6c-3.9,0-7-3.2-7-7v-51.6
	C6.6,2637.7,9.8,2634.5,13.6,2634.5z"/>
<text transform="matrix(1 0 0 1 30.6416 2680.3167)" class="bcg-fronten-mobile1 bcg-fronten-mobile2 bcg-fronten-mobile3">F</text>
<path class="bcg-fronten-mobile0" d="M88.7,2634.5h51.6c3.9,0,7,3.2,7,7v51.6c0,3.9-3.2,7-7,7H88.7c-3.9,0-7-3.2-7-7v-51.6
	C81.6,2637.7,84.8,2634.5,88.7,2634.5z"/>
<text transform="matrix(1 0 0 1 103.2607 2680.3167)" class="bcg-fronten-mobile1 bcg-fronten-mobile2 bcg-fronten-mobile3">G</text>
<path class="bcg-fronten-mobile0" d="M229.4,296.1h51.6c3.9,0,7,3.2,7,7v51.6c0,3.9-3.2,7-7,7h-51.6c-3.9,0-7-3.2-7-7V303
	C222.4,299.1,225.5,296.1,229.4,296.1z"/>
<text transform="matrix(1 0 0 1 246.4099 341.8261)" class="bcg-fronten-mobile1 bcg-fronten-mobile2 bcg-fronten-mobile3">F</text>
<path class="bcg-fronten-mobile0" d="M304.5,296.1h51.6c3.9,0,7,3.2,7,7v51.6c0,3.9-3.2,7-7,7h-51.6c-3.9,0-7-3.2-7-7V303
	C297.4,299.1,300.5,296.1,304.5,296.1z"/>
<text transform="matrix(1 0 0 1 319.0281 341.8261)" class="bcg-fronten-mobile1 bcg-fronten-mobile2 bcg-fronten-mobile3">G</text>
<path class="bcg-fronten-mobile0" d="M99.7,2378.1h51.6c3.9,0,7,3.2,7,7v51.6c0,3.9-3.2,7-7,7H99.7c-3.9,0-7-3.2-7-7v-51.6
	C92.6,2381.3,95.8,2378.1,99.7,2378.1z"/>
<path class="bcg-fronten-mobile0" d="M24.6,2378.1h51.6c3.9,0,7,3.2,7,7v51.6c0,3.9-3.2,7-7,7H24.6c-3.9,0-7-3.2-7-7v-51.6
	C17.6,2381.3,20.7,2378.1,24.6,2378.1z"/>
<path class="bcg-fronten-mobile0" d="M71.1,2450.9h51.6c3.9,0,7,3.2,7,7v51.6c0,3.9-3.2,7-7,7H71.1c-3.9,0-7-3.2-7-7V2458
	C64.1,2454.1,67.3,2450.9,71.1,2450.9z"/>
<path class="bcg-fronten-mobile0" d="M-3,2451.1h51.6c3.9,0,7,3.2,7,7v51.6c0,3.9-3.2,7-7,7H-3c-3.9,0-7-3.2-7-7v-51.6
	C-10,2454.3-6.9,2451.1-3,2451.1z"/>
<path class="bcg-fronten-mobile0" d="M-78.6,2451.1h51.6c3.9,0,7,3.2,7,7v51.6c0,3.9-3.2,7-7,7h-51.6c-3.9,0-7-3.2-7-7v-51.6
	C-85.6,2454.3-82.4,2451.1-78.6,2451.1z"/>
<path class="bcg-fronten-mobile0" d="M144.1,1293.8h51.6c3.9,0,7,3.2,7,7v51.6c0,3.9-3.2,7-7,7h-51.6c-3.9,0-7-3.2-7-7v-51.6
	C137,1296.9,140.2,1293.8,144.1,1293.8z"/>
<path class="bcg-fronten-mobile0" d="M228.8,1293.8h51.6c3.9,0,7,3.2,7,7v51.6c0,3.9-3.2,7-7,7h-51.6c-3.9,0-7-3.2-7-7v-51.6
	C221.8,1296.9,225,1293.8,228.8,1293.8z"/>
<path class="bcg-fronten-mobile0" d="M86.3,2736.1h51.6c3.9,0,7,3.2,7,7v51.6c0,3.9-3.2,7-7,7H86.3c-3.9,0-7-3.2-7-7v-51.6
	C79.2,2739.2,82.3,2736.1,86.3,2736.1z"/>
<text transform="matrix(1 0 0 1 114.4984 2423.9351)" class="bcg-fronten-mobile1 bcg-fronten-mobile2 bcg-fronten-mobile3">Z</text>
<path class="bcg-fronten-mobile0" d="M173.5,2378.1h51.6c3.9,0,7,3.2,7,7v51.6c0,3.9-3.2,7-7,7h-51.6c-3.9,0-7-3.2-7-7v-51.6
	C166.5,2381.3,169.7,2378.1,173.5,2378.1z"/>
<path class="bcg-fronten-mobile0" d="M145.4,2451.6h79.7c3.9,0,7,3.2,7,7v51.6c0,3.9-3.2,7-7,7h-79.7c-3.9,0-7-3.2-7-7v-51.6
	C138.4,2454.7,141.5,2451.6,145.4,2451.6z"/>
<path class="bcg-fronten-mobile0" d="M-72.2,2541.1H7.4c3.9,0,7,3.2,7,7v51.6c0,3.9-3.2,7-7,7h-79.7c-3.9,0-7-3.2-7-7v-51.6
	C-79.3,2544.2-76.1,2541.1-72.2,2541.1z"/>
<path class="bcg-fronten-mobile0" d="M-78.6,2378.9H1.1c3.9,0,7,3.2,7,7v51.6c0,3.9-3.2,7-7,7h-79.7c-3.9,0-7-3.2-7-7v-51.6
	C-85.6,2382.1-82.4,2378.9-78.6,2378.9z"/>
<path class="bcg-fronten-mobile0" d="M-78.6,2223.3H33.3c3.9,0,7,3.2,7,7v51.6c0,3.9-3.2,7-7,7H-78.6c-3.9,0-7-3.2-7-7v-51.6
	C-85.6,2226.5-82.4,2223.3-78.6,2223.3z"/>
<path class="bcg-fronten-mobile0" d="M-78.6,2300.8H57.1c3.9,0,7,3.2,7,7v51.6c0,3.9-3.2,7-7,7H-78.6c-3.9,0-7-3.2-7-7v-51.6
	C-85.6,2303.9-82.4,2300.8-78.6,2300.8z"/>
<text transform="matrix(1 0 0 1 187.5863 2423.9351)" class="bcg-fronten-mobile1 bcg-fronten-mobile2 bcg-fronten-mobile3">X</text>
<path class="bcg-fronten-mobile0" d="M248.6,2451.6h200.5c3.9,0,7,3.2,7,7v51.6c0,3.9-3.2,7-7,7H248.6c-3.9,0-7-3.2-7-7v-51.6
	C241.6,2454.7,244.7,2451.6,248.6,2451.6z"/>
<path class="bcg-fronten-mobile0" d="M276.4,2938.3H328c3.9,0,7,3.2,7,7v51.6c0,3.9-3.2,7-7,7h-51.6c-3.9,0-7-3.2-7-7v-51.6
	C269.3,2941.4,272.5,2938.3,276.4,2938.3z"/>
<path class="bcg-fronten-mobile0" d="M294.7,2678.9h51.6c3.9,0,7,3.2,7,7v51.6c0,3.9-3.2,7-7,7h-51.6c-3.9,0-7-3.2-7-7v-51.6
	C287.7,2682,290.9,2678.9,294.7,2678.9z"/>
<path class="bcg-fronten-mobile0" d="M219.2,2678.9h51.6c3.9,0,7,3.2,7,7v51.6c0,3.9-3.2,7-7,7h-51.6c-3.9,0-7-3.2-7-7v-51.6
	C212.2,2682,215.4,2678.9,219.2,2678.9z"/>
<path class="bcg-fronten-mobile0" d="M350.7,2938.9h79.7c3.9,0,7,3.2,7,7v51.6c0,3.9-3.2,7-7,7h-79.7c-3.9,0-7-3.2-7-7v-51.6
	C343.7,2942,346.9,2938.9,350.7,2938.9z"/>
<path class="bcg-fronten-mobile0" d="M38.2,2540.1h200.6c3.9,0,7,3.2,7,7v51.6c0,3.9-3.2,7-7,7H38.2c-3.9,0-7-3.2-7-7v-51.6
	C31.2,2543.2,34.3,2540.1,38.2,2540.1z"/>
<path class="bcg-fronten-mobile0" d="M-117.1,2897.9H83.4c3.9,0,7,3.2,7,7v51.6c0,3.9-3.2,7-7,7h-200.5c-3.9,0-7-3.2-7-7v-51.6
	C-124.1,2901-120.9,2897.9-117.1,2897.9z"/>
<path class="bcg-fronten-mobile0" d="M248.6,2378.1h51.6c3.9,0,7,3.2,7,7v51.6c0,3.9-3.2,7-7,7h-51.6c-3.9,0-7-3.2-7-7v-51.6
	C241.6,2381.3,244.7,2378.1,248.6,2378.1z"/>
<text transform="matrix(1 0 0 1 264.5375 2423.9351)" class="bcg-fronten-mobile1 bcg-fronten-mobile2 bcg-fronten-mobile3">C</text>
<path class="bcg-fronten-mobile0" d="M129.8,2112.6h51.6c3.9,0,7,3.2,7,7v51.6c0,3.9-3.2,7-7,7h-51.6c-3.9,0-7-3.2-7-7v-51.6
	C122.8,2115.7,126,2112.6,129.8,2112.6z"/>
<text transform="matrix(1 0 0 1 145.8191 2158.3931)" class="bcg-fronten-mobile1 bcg-fronten-mobile2 bcg-fronten-mobile3">C</text>
<path class="bcg-fronten-mobile0" d="M64.1,347.7h51.6c3.9,0,7,3.2,7,7v51.6c0,3.9-3.2,7-7,7H64.1c-3.9,0-7-3.2-7-7v-51.6
	C57,351,60.2,347.7,64.1,347.7z"/>
<text transform="matrix(1 0 0 1 80.9954 393.5422)" class="bcg-fronten-mobile1 bcg-fronten-mobile2 bcg-fronten-mobile3">T</text>
<path class="bcg-fronten-mobile0" d="M216.9,842h51.6c3.9,0,7,3.2,7,7v51.6c0,3.9-3.2,7-7,7h-51.6c-3.9,0-7-3.2-7-7V849
	C209.9,845.1,213.1,842,216.9,842z"/>
<text transform="matrix(1 0 0 1 226.3485 887.7377)" class="bcg-fronten-mobile1 bcg-fronten-mobile2 bcg-fronten-mobile3">W</text>
<path class="bcg-fronten-mobile0" d="M1.1,216.6h51.6c3.9,0,7,3.2,7,7v51.6c0,3.9-3.2,7-7,7H1.1c-3.9,0-7-3.2-7-7v-51.7
	C-6,219.7-2.8,216.6,1.1,216.6z"/>
<text transform="matrix(1 0 0 1 15.4907 262.3486)" class="bcg-fronten-mobile1 bcg-fronten-mobile2 bcg-fronten-mobile3">A</text>
<path class="bcg-fronten-mobile0" d="M75,216.6h51.6c3.9,0,7,3.2,7,7v51.6c0,3.9-3.2,7-7,7H75c-3.9,0-7-3.2-7-7v-51.7
	C67.9,219.7,71.1,216.6,75,216.6z"/>
<text transform="matrix(1 0 0 1 91.0464 262.3486)" class="bcg-fronten-mobile1 bcg-fronten-mobile2 bcg-fronten-mobile3">S</text>
<path class="bcg-fronten-mobile0" d="M165.3,1105.6H217c3.9,0,7,3.2,7,7v51.6c0,3.9-3.2,7-7,7h-51.6c-3.9,0-7-3.2-7-7v-51.6
	C158.3,1108.8,161.5,1105.6,165.3,1105.6z"/>
<text transform="matrix(1 0 0 1 181.3337 1151.4185)" class="bcg-fronten-mobile1 bcg-fronten-mobile2 bcg-fronten-mobile3">C</text>
<path class="bcg-fronten-mobile0" d="M322.5,2378.1h51.6c3.9,0,7,3.2,7,7v51.6c0,3.9-3.2,7-7,7h-51.6c-3.9,0-7-3.2-7-7v-51.6
	C315.4,2381.3,318.5,2378.1,322.5,2378.1z"/>
<text transform="matrix(1 0 0 1 338.4701 2423.9351)" class="bcg-fronten-mobile1 bcg-fronten-mobile2 bcg-fronten-mobile3">V</text>
<path class="bcg-fronten-mobile0" d="M397.5,2378.1h51.6c3.9,0,7,3.2,7,7v51.6c0,3.9-3.2,7-7,7h-51.6c-3.9,0-7-3.2-7-7v-51.6
	C390.5,2381.3,393.7,2378.1,397.5,2378.1z"/>
<text transform="matrix(1 0 0 1 412.0726 2423.9351)" class="bcg-fronten-mobile1 bcg-fronten-mobile2 bcg-fronten-mobile3">B</text>
<path class="bcg-fronten-mobile0" d="M223.4,28.2h51.6c3.9,0,7,3.2,7,7v51.6c0,3.9-3.2,7-7,7h-51.6c-3.9,0-7-3.2-7-7V35.2
	C216.4,31.3,219.6,28.2,223.4,28.2z"/>
<text transform="matrix(1 0 0 1 237.9764 73.9743)" class="bcg-fronten-mobile1 bcg-fronten-mobile2 bcg-fronten-mobile3">B</text>
<path class="bcg-fronten-mobile0" d="M92.3,2822.8h51.6c3.9,0,7,3.2,7,7v51.6c0,3.9-3.2,7-7,7H92.3c-3.9,0-7-3.2-7-7v-51.6
	C85.3,2826,88.4,2822.8,92.3,2822.8z"/>
<text transform="matrix(1 0 0 1 109.2994 2868.6094)" class="bcg-fronten-mobile1 bcg-fronten-mobile2 bcg-fronten-mobile3">F</text>
<path class="bcg-fronten-mobile0" d="M167.4,2822.8H219c3.9,0,7,3.2,7,7v51.6c0,3.9-3.2,7-7,7h-51.6c-3.9,0-7-3.2-7-7v-51.6
	C160.3,2826,163.4,2822.8,167.4,2822.8z"/>
<text transform="matrix(1 0 0 1 181.9166 2868.6094)" class="bcg-fronten-mobile1 bcg-fronten-mobile2 bcg-fronten-mobile3">G</text>
<path class="bcg-fronten-mobile0" d="M38.3,2973.7h200.6c3.9,0,7,3.2,7,7v51.6c0,3.9-3.2,7-7,7H38.4c-3.9,0-7-3.2-7-7v-51.6
	C31.3,2976.7,34.4,2973.7,38.3,2973.7z"/>
<path class="bcg-fronten-mobile0" d="M112.2,2900.2h51.6c3.9,0,7,3.2,7,7v51.6c0,3.9-3.2,7-7,7h-51.6c-3.9,0-7-3.2-7-7v-51.6
	C105.1,2903.4,108.3,2900.2,112.2,2900.2z"/>
<text transform="matrix(1 0 0 1 128.1901 2946.0059)" class="bcg-fronten-mobile1 bcg-fronten-mobile2 bcg-fronten-mobile3">V</text>
<path class="bcg-fronten-mobile0" d="M187.2,2900.2h51.6c3.9,0,7,3.2,7,7v51.6c0,3.9-3.2,7-7,7h-51.6c-3.9,0-7-3.2-7-7v-51.6
	C180.2,2903.4,183.4,2900.2,187.2,2900.2z"/>
<text transform="matrix(1 0 0 1 201.7936 2946.0059)" class="bcg-fronten-mobile1 bcg-fronten-mobile2 bcg-fronten-mobile3">B</text>
<path class="bcg-fronten-mobile0" d="M164.5,153.4h51.6c3.9,0,7,3.2,7,7V212c0,3.9-3.2,7-7,7h-51.6c-3.9,0-7-3.2-7-7v-51.6
	C157.5,156.5,160.6,153.4,164.5,153.4z"/>
<text transform="matrix(1 0 0 1 179.0623 199.1811)" class="bcg-fronten-mobile1 bcg-fronten-mobile2 bcg-fronten-mobile3">B</text>
</svg>
