<?xml version="1.0" encoding="utf-8"?>
<svg version="1.1" id="Warstwa_1" xmlns="http://www.w3.org/2000/svg" xmlns:xlink="http://www.w3.org/1999/xlink" x="0px" y="0px"
	 viewBox="0 0 700.3 2420.6" style="enable-background:new 0 0 700.3 2420.6;" xml:space="preserve">
<style type="text/css">
	.bcg-fronten-tablet0{fill:#1E2333;}
	.bcg-fronten-tablet1{fill:#2B304B;}
	.bcg-fronten-tablet2{font-family:'AlegaOffc';}
	.bcg-fronten-tablet3{font-size:41.0439px;}
</style>
<path class="bcg-fronten-tablet0" d="M544.7,1642.2h51.6c3.9,0,7,3.2,7,7v51.6c0,3.9-3.2,7-7,7h-51.6c-3.9,0-7-3.2-7-7v-51.6
	C537.6,1645.4,540.8,1642.2,544.7,1642.2z"/>
<text transform="matrix(1 0 0 1 561.6011 1687.9915)" class="bcg-fronten-tablet1 bcg-fronten-tablet2 bcg-fronten-tablet3">T</text>
<path class="bcg-fronten-tablet0" d="M-39.4,375.5h88.7c2.9,0,5.2,2.3,5.2,5.2l0,0c0,2.9-2.3,5.2-5.2,5.2h-88.7c-2.9,0-5.2-2.3-5.2-5.2l0,0
	C-44.6,377.9-42.3,375.5-39.4,375.5z"/>
<path class="bcg-fronten-tablet1" d="M71.4,375.5h88.7c2.9,0,5.2,2.3,5.2,5.2l0,0c0,2.9-2.3,5.2-5.2,5.2H71.4c-2.9,0-5.2-2.3-5.2-5.2l0,0
	C66.1,377.9,68.4,375.5,71.4,375.5z"/>
<path class="bcg-fronten-tablet0" d="M-39.4,400.3h175.7c2.9,0,5.2,2.3,5.2,5.2l0,0c0,2.9-2.3,5.2-5.2,5.2H-39.4c-2.9,0-5.2-2.3-5.2-5.2l0,0
	C-44.6,402.6-42.3,400.3-39.4,400.3z"/>
<path class="bcg-fronten-tablet0" d="M-39.4,423.7H69.4c2.9,0,5.2,2.3,5.2,5.2l0,0c0,2.9-2.3,5.2-5.2,5.2H-39.4c-2.9,0-5.2-2.3-5.2-5.2l0,0
	C-44.6,426-42.3,423.7-39.4,423.7z"/>
<path class="bcg-fronten-tablet0" d="M-4.4,640.6h175.7c2.9,0,5.2,2.3,5.2,5.2l0,0c0,2.9-2.3,5.2-5.2,5.2H-4.4c-2.9,0-5.2-2.3-5.2-5.2l0,0
	C-9.6,642.9-7.2,640.6-4.4,640.6z"/>
<path class="bcg-fronten-tablet0" d="M-6,617.3h108.8c2.9,0,5.2,2.3,5.2,5.2l0,0c0,2.9-2.3,5.2-5.2,5.2H-6c-2.9,0-5.2-2.3-5.2-5.2l0,0
	C-11.2,619.6-8.9,617.3-6,617.3z"/>
<path class="bcg-fronten-tablet0" d="M-39.4,447h88.7c2.9,0,5.2,2.3,5.2,5.2l0,0c0,2.9-2.3,5.2-5.2,5.2h-88.7c-2.9,0-5.2-2.3-5.2-5.2l0,0
	C-44.6,449.3-42.3,447-39.4,447z"/>
<path class="bcg-fronten-tablet0" d="M-37.9,351.2h320.2c2.9,0,5.2,2.3,5.2,5.2l0,0c0,2.9-2.3,5.2-5.2,5.2H-37.9c-2.9,0-5.2-2.3-5.2-5.2l0,0
	C-43.2,353.5-40.9,351.2-37.9,351.2z"/>
<path class="bcg-fronten-tablet0" d="M-39.4,471.7h175.7c2.9,0,5.2,2.3,5.2,5.2l0,0c0,2.9-2.3,5.2-5.2,5.2H-39.4c-2.9,0-5.2-2.3-5.2-5.2l0,0
	C-44.6,474-42.3,471.7-39.4,471.7z"/>
<path class="bcg-fronten-tablet0" d="M1.7,496.4h88.7c2.9,0,5.2,2.3,5.2,5.2l0,0c0,2.9-2.3,5.2-5.2,5.2H1.7c-2.9,0-5.2-2.3-5.2-5.2l0,0
	C-3.5,498.7-1.1,496.4,1.7,496.4z"/>
<path class="bcg-fronten-tablet0" d="M1.7,521.2h175.7c2.9,0,5.2,2.3,5.2,5.2l0,0c0,2.9-2.3,5.2-5.2,5.2H1.7c-2.9,0-5.2-2.3-5.2-5.2l0,0
	C-3.5,523.5-1.1,521.2,1.7,521.2z"/>
<path class="bcg-fronten-tablet0" d="M1.7,544.6h108.8c2.9,0,5.2,2.3,5.2,5.2l0,0c0,2.9-2.3,5.2-5.2,5.2H1.7c-2.9,0-5.2-2.3-5.2-5.2l0,0
	C-3.5,546.9-1.1,544.6,1.7,544.6z"/>
<path class="bcg-fronten-tablet0" d="M1.7,567.8h88.7c2.9,0,5.2,2.3,5.2,5.2l0,0c0,2.9-2.3,5.2-5.2,5.2H1.7c-2.9,0-5.2-2.3-5.2-5.2l0,0
	C-3.5,570.2-1.1,567.8,1.7,567.8z"/>
<path class="bcg-fronten-tablet0" d="M1.7,592.6h175.7c2.9,0,5.2,2.3,5.2,5.2l0,0c0,2.9-2.3,5.2-5.2,5.2H1.7c-2.9,0-5.2-2.3-5.2-5.2l0,0
	C-3.5,594.9-1.1,592.6,1.7,592.6z"/>
<path class="bcg-fronten-tablet0" d="M-7.5,670.1h150.6c2.9,0,5.2,2.3,5.2,5.2l0,0c0,2.9-2.3,5.2-5.2,5.2H-7.5c-2.9,0-5.2-2.3-5.2-5.2l0,0
	C-12.7,672.4-10.3,670.1-7.5,670.1z"/>
<path class="bcg-fronten-tablet0" d="M-7.5,694.8h175.7c2.9,0,5.2,2.3,5.2,5.2l0,0c0,2.9-2.3,5.2-5.2,5.2H-7.5c-2.9,0-5.2-2.3-5.2-5.2l0,0
	C-12.7,697.2-10.3,694.8-7.5,694.8z"/>
<path class="bcg-fronten-tablet0" d="M-4.4,1214.1h88.7c2.9,0,5.2,2.3,5.2,5.2l0,0c0,2.9-2.3,5.2-5.2,5.2H-4.4c-2.9,0-5.2-2.3-5.2-5.2l0,0
	C-9.6,1216.4-7.2,1214.1-4.4,1214.1z"/>
<path class="bcg-fronten-tablet0" d="M-4.4,1238.8h175.7c2.9,0,5.2,2.3,5.2,5.2l0,0c0,2.9-2.3,5.2-5.2,5.2H-4.4c-2.9,0-5.2-2.3-5.2-5.2l0,0
	C-9.6,1241.1-7.2,1238.8-4.4,1238.8z"/>
<path class="bcg-fronten-tablet0" d="M-4.2,1293.7H86c2.9,0,5.2,2.3,5.2,5.2l0,0c0,2.9-2.3,5.2-5.2,5.2H-4.2c-2.9,0-5.2-2.3-5.2-5.2l0,0
	C-9.3,1296.1-7,1293.7-4.2,1293.7z"/>
<path class="bcg-fronten-tablet0" d="M-4.2,1267.4h130.3c2.9,0,5.2,2.3,5.2,5.2l0,0c0,2.9-2.3,5.2-5.2,5.2H-4.2c-2.9,0-5.2-2.3-5.2-5.2l0,0
	C-9.3,1269.7-7,1267.4-4.2,1267.4z"/>
<path class="bcg-fronten-tablet0" d="M-4.4,1320h115.6c2.9,0,5.2,2.3,5.2,5.2l0,0c0,2.9-2.3,5.2-5.2,5.2H-4.4c-2.9,0-5.2-2.3-5.2-5.2l0,0
	C-9.6,1322.4-7.2,1320-4.4,1320z"/>
<path class="bcg-fronten-tablet0" d="M-4.2,1374.9H86c2.9,0,5.2,2.3,5.2,5.2l0,0c0,2.9-2.3,5.2-5.2,5.2H-4.2c-2.9,0-5.2-2.3-5.2-5.2l0,0
	C-9.3,1377.2-7,1374.9-4.2,1374.9z"/>
<path class="bcg-fronten-tablet0" d="M-4.2,1348.6h130.3c2.9,0,5.2,2.3,5.2,5.2l0,0c0,2.9-2.3,5.2-5.2,5.2H-4.2c-2.9,0-5.2-2.3-5.2-5.2l0,0
	C-9.3,1350.9-7,1348.6-4.2,1348.6z"/>
<path class="bcg-fronten-tablet0" d="M-4.4,1107.8h88.7c2.9,0,5.2,2.3,5.2,5.2l0,0c0,2.9-2.3,5.2-5.2,5.2H-4.4c-2.9,0-5.2-2.3-5.2-5.2l0,0
	C-9.6,1110.1-7.2,1107.8-4.4,1107.8z"/>
<path class="bcg-fronten-tablet0" d="M106.4,1107.8h145.8c2.9,0,5.2,2.3,5.2,5.2l0,0c0,2.9-2.3,5.2-5.2,5.2H106.4c-2.9,0-5.2-2.3-5.2-5.2l0,0
	C101.1,1110.1,103.4,1107.8,106.4,1107.8z"/>
<path class="bcg-fronten-tablet0" d="M-4.4,1132.5h175.7c2.9,0,5.2,2.3,5.2,5.2l0,0c0,2.9-2.3,5.2-5.2,5.2H-4.4c-2.9,0-5.2-2.3-5.2-5.2l0,0
	C-9.6,1134.8-7.2,1132.5-4.4,1132.5z"/>
<path class="bcg-fronten-tablet0" d="M-4.2,1187.4H86c2.9,0,5.2,2.3,5.2,5.2l0,0c0,2.9-2.3,5.2-5.2,5.2H-4.2c-2.9,0-5.2-2.3-5.2-5.2l0,0
	C-9.3,1189.7-7,1187.4-4.2,1187.4z"/>
<path class="bcg-fronten-tablet0" d="M-4.4,1428.2h143.7c2.9,0,5.2,2.3,5.2,5.2v0.3c0,2.9-2.3,5.2-5.2,5.2H-4.4c-2.9,0-5.2-2.3-5.2-5.2v-0.3
	C-9.6,1430.5-7.2,1428.2-4.4,1428.2z"/>
<path class="bcg-fronten-tablet0" d="M-4.2,1401.8H86c2.9,0,5.2,2.3,5.2,5.2l0,0c0,2.9-2.3,5.2-5.2,5.2H-4.2c-2.9,0-5.2-2.3-5.2-5.2l0,0
	C-9.3,1404.2-7,1401.8-4.2,1401.8z"/>
<path class="bcg-fronten-tablet0" d="M-4.2,1161.1h130.3c2.9,0,5.2,2.3,5.2,5.2l0,0c0,2.9-2.3,5.2-5.2,5.2H-4.2c-2.9,0-5.2-2.3-5.2-5.2l0,0
	C-9.3,1163.4-7,1161.1-4.2,1161.1z"/>
<path class="bcg-fronten-tablet0" d="M-4.4,825.6h152.2c2.9,0,5.2,2.3,5.2,5.2l0,0c0,2.9-2.3,5.2-5.2,5.2H-4.4c-2.9,0-5.2-2.3-5.2-5.2l0,0
	C-9.6,827.9-7.2,825.6-4.4,825.6z"/>
<path class="bcg-fronten-tablet0" d="M-4.4,850.3h70.9c2.9,0,5.2,2.3,5.2,5.2l0,0c0,2.9-2.3,5.2-5.2,5.2H-4.4c-2.9,0-5.2-2.3-5.2-5.2l0,0
	C-9.6,852.7-7.2,850.3-4.4,850.3z"/>
<path class="bcg-fronten-tablet0" d="M92.1,850.3H163c2.9,0,5.2,2.3,5.2,5.2l0,0c0,2.9-2.3,5.2-5.2,5.2H92.1c-2.9,0-5.2-2.3-5.2-5.2l0,0
	C86.8,852.7,89.1,850.3,92.1,850.3z"/>
<path class="bcg-fronten-tablet0" d="M-4.2,905.2H86c2.9,0,5.2,2.3,5.2,5.2l0,0c0,2.9-2.3,5.2-5.2,5.2H-4.2c-2.9,0-5.2-2.3-5.2-5.2l0,0
	C-9.3,907.5-7,905.2-4.2,905.2z"/>
<path class="bcg-fronten-tablet0" d="M-4.2,878.9h130.3c2.9,0,5.2,2.3,5.2,5.2l0,0c0,2.9-2.3,5.2-5.2,5.2H-4.2c-2.9,0-5.2-2.3-5.2-5.2l0,0
	C-9.3,881.3-7,878.9-4.2,878.9z"/>
<path class="bcg-fronten-tablet0" d="M-4.4,931.6h115.6c2.9,0,5.2,2.3,5.2,5.2l0,0c0,2.9-2.3,5.2-5.2,5.2H-4.4c-2.9,0-5.2-2.3-5.2-5.2l0,0
	C-9.6,933.9-7.2,931.6-4.4,931.6z"/>
<path class="bcg-fronten-tablet0" d="M-4.4,958.6h70.9c2.9,0,5.2,2.3,5.2,5.2l0,0c0,2.9-2.3,5.2-5.2,5.2H-4.4c-2.9,0-5.2-2.3-5.2-5.2l0,0
	C-9.6,960.9-7.2,958.6-4.4,958.6z"/>
<path class="bcg-fronten-tablet0" d="M-4.2,1013.5H86c2.9,0,5.2,2.3,5.2,5.2l0,0c0,2.9-2.3,5.2-5.2,5.2H-4.2c-2.9,0-5.2-2.3-5.2-5.2l0,0
	C-9.3,1015.8-7,1013.5-4.2,1013.5z"/>
<path class="bcg-fronten-tablet0" d="M-4.2,987.1h130.3c2.9,0,5.2,2.3,5.2,5.2l0,0c0,2.9-2.3,5.2-5.2,5.2H-4.2c-2.9,0-5.2-2.3-5.2-5.2l0,0
	C-9.3,989.5-7,987.1-4.2,987.1z"/>
<path class="bcg-fronten-tablet0" d="M-4.4,1038.6h115.6c2.9,0,5.2,2.3,5.2,5.2l0,0c0,2.9-2.3,5.2-5.2,5.2H-4.4c-2.9,0-5.2-2.3-5.2-5.2l0,0
	C-9.6,1041-7.2,1038.6-4.4,1038.6z"/>
<path class="bcg-fronten-tablet0" d="M-4.2,1061.3H86c2.9,0,5.2,2.3,5.2,5.2l0,0c0,2.9-2.3,5.2-5.2,5.2H-4.2c-2.9,0-5.2-2.3-5.2-5.2l0,0
	C-9.3,1063.6-7,1061.3-4.2,1061.3z"/>
<path class="bcg-fronten-tablet0" d="M131.4,1084.6h90.2c2.9,0,5.2,2.3,5.2,5.2l0,0c0,2.9-2.3,5.2-5.2,5.2h-90.2c-2.9,0-5.2-2.3-5.2-5.2l0,0
	C126.2,1086.9,128.5,1084.6,131.4,1084.6z"/>
<path class="bcg-fronten-tablet0" d="M-4.4,1084.6h115.6c2.9,0,5.2,2.3,5.2,5.2l0,0c0,2.9-2.3,5.2-5.2,5.2H-4.4c-2.9,0-5.2-2.3-5.2-5.2l0,0
	C-9.6,1086.9-7.2,1084.6-4.4,1084.6z"/>
<path class="bcg-fronten-tablet0" d="M-4.4,1611.3h88.7c2.9,0,5.2,2.3,5.2,5.2l0,0c0,2.9-2.3,5.2-5.2,5.2H-4.4c-2.9,0-5.2-2.3-5.2-5.2l0,0
	C-9.6,1613.6-7.2,1611.3-4.4,1611.3z"/>
<path class="bcg-fronten-tablet0" d="M-4.4,1636h175.7c2.9,0,5.2,2.3,5.2,5.2l0,0c0,2.9-2.3,5.2-5.2,5.2H-4.4c-2.9,0-5.2-2.3-5.2-5.2l0,0
	C-9.6,1638.3-7.2,1636-4.4,1636z"/>
<path class="bcg-fronten-tablet0" d="M107.8,1690.9h218.7c2.9,0,5.2,2.3,5.2,5.2l0,0c0,2.9-2.3,5.2-5.2,5.2H107.8c-2.9,0-5.2-2.3-5.2-5.2l0,0
	C102.5,1693.3,104.9,1690.9,107.8,1690.9z"/>
<path class="bcg-fronten-tablet0" d="M-4.2,1690.9H86c2.9,0,5.2,2.3,5.2,5.2l0,0c0,2.9-2.3,5.2-5.2,5.2H-4.2c-2.9,0-5.2-2.3-5.2-5.2l0,0
	C-9.3,1693.3-7,1690.9-4.2,1690.9z"/>
<path class="bcg-fronten-tablet0" d="M-4.2,1664.6h130.3c2.9,0,5.2,2.3,5.2,5.2l0,0c0,2.9-2.3,5.2-5.2,5.2H-4.2c-2.9,0-5.2-2.3-5.2-5.2l0,0
	C-9.3,1666.9-7,1664.6-4.2,1664.6z"/>
<path class="bcg-fronten-tablet0" d="M-4.4,1717.2h115.6c2.9,0,5.2,2.3,5.2,5.2l0,0c0,2.9-2.3,5.2-5.2,5.2H-4.4c-2.9,0-5.2-2.3-5.2-5.2l0,0
	C-9.6,1719.5-7.2,1717.2-4.4,1717.2z"/>
<path class="bcg-fronten-tablet0" d="M-4.2,1772.1H86c2.9,0,5.2,2.3,5.2,5.2l0,0c0,2.9-2.3,5.2-5.2,5.2H-4.2c-2.9,0-5.2-2.3-5.2-5.2l0,0
	C-9.3,1774.4-7,1772.1-4.2,1772.1z"/>
<path class="bcg-fronten-tablet0" d="M-4.2,1745.8h130.3c2.9,0,5.2,2.3,5.2,5.2l0,0c0,2.9-2.3,5.2-5.2,5.2H-4.2c-2.9,0-5.2-2.3-5.2-5.2l0,0
	C-9.3,1748.1-7,1745.8-4.2,1745.8z"/>
<path class="bcg-fronten-tablet0" d="M-4.4,1505h88.7c2.9,0,5.2,2.3,5.2,5.2l0,0c0,2.9-2.3,5.2-5.2,5.2H-4.4c-2.9,0-5.2-2.3-5.2-5.2l0,0
	C-9.6,1507.3-7.2,1505-4.4,1505z"/>
<path class="bcg-fronten-tablet0" d="M106.4,1505h145.8c2.9,0,5.2,2.3,5.2,5.2l0,0c0,2.9-2.3,5.2-5.2,5.2H106.4c-2.9,0-5.2-2.3-5.2-5.2l0,0
	C101.1,1507.3,103.4,1505,106.4,1505z"/>
<path class="bcg-fronten-tablet0" d="M-4.4,1529.7h175.7c2.9,0,5.2,2.3,5.2,5.2l0,0c0,2.9-2.3,5.2-5.2,5.2H-4.4c-2.9,0-5.2-2.3-5.2-5.2l0,0
	C-9.6,1532-7.2,1529.7-4.4,1529.7z"/>
<path class="bcg-fronten-tablet0" d="M-4.2,1584.6H86c2.9,0,5.2,2.3,5.2,5.2l0,0c0,2.9-2.3,5.2-5.2,5.2H-4.2c-2.9,0-5.2-2.3-5.2-5.2l0,0
	C-9.3,1586.9-7,1584.6-4.2,1584.6z"/>
<path class="bcg-fronten-tablet0" d="M-4.2,1799H86c2.9,0,5.2,2.3,5.2,5.2l0,0c0,2.9-2.3,5.2-5.2,5.2H-4.2c-2.9,0-5.2-2.3-5.2-5.2l0,0
	C-9.3,1801.4-7,1799-4.2,1799z"/>
<path class="bcg-fronten-tablet0" d="M-4.2,1558.3h130.3c2.9,0,5.2,2.3,5.2,5.2l0,0c0,2.9-2.3,5.2-5.2,5.2H-4.2c-2.9,0-5.2-2.3-5.2-5.2l0,0
	C-9.3,1560.6-7,1558.3-4.2,1558.3z"/>
<path class="bcg-fronten-tablet0" d="M-4.2,1458.5H86c2.9,0,5.2,2.3,5.2,5.2l0,0c0,2.9-2.3,5.2-5.2,5.2H-4.2c-2.9,0-5.2-2.3-5.2-5.2l0,0
	C-9.3,1460.8-7,1458.5-4.2,1458.5z"/>
<path class="bcg-fronten-tablet0" d="M-4.4,1481.8h115.6c2.9,0,5.2,2.3,5.2,5.2l0,0c0,2.9-2.3,5.2-5.2,5.2H-4.4c-2.9,0-5.2-2.3-5.2-5.2l0,0
	C-9.6,1484.1-7.2,1481.8-4.4,1481.8z"/>
<path class="bcg-fronten-tablet0" d="M-4.4,719.3h88.7c2.9,0,5.2,2.3,5.2,5.2l0,0c0,2.9-2.3,5.2-5.2,5.2H-4.4c-2.9,0-5.2-2.3-5.2-5.2l0,0
	C-9.6,721.7-7.2,719.3-4.4,719.3z"/>
<path class="bcg-fronten-tablet0" d="M-4.4,744.1h175.7c2.9,0,5.2,2.3,5.2,5.2l0,0c0,2.9-2.3,5.2-5.2,5.2H-4.4c-2.9,0-5.2-2.3-5.2-5.2l0,0
	C-9.6,746.4-7.2,744.1-4.4,744.1z"/>
<path class="bcg-fronten-tablet0" d="M-4.2,798.9H86c2.9,0,5.2,2.3,5.2,5.2l0,0c0,2.9-2.3,5.2-5.2,5.2H-4.2c-2.9,0-5.2-2.3-5.2-5.2l0,0
	C-9.3,801.3-7,798.9-4.2,798.9z"/>
<path class="bcg-fronten-tablet0" d="M-4.2,772.6h130.3c2.9,0,5.2,2.3,5.2,5.2l0,0c0,2.9-2.3,5.2-5.2,5.2H-4.2c-2.9,0-5.2-2.3-5.2-5.2l0,0
	C-9.3,775-7,772.6-4.2,772.6z"/>
<path class="bcg-fronten-tablet0" d="M164.6,1860.4h51.6c3.9,0,7,3.2,7,7v51.6c0,3.9-3.2,7-7,7h-51.6c-3.9,0-7-3.2-7-7v-51.6
	C157.6,1863.6,160.7,1860.4,164.6,1860.4z"/>
<text transform="matrix(1 0 0 1 178.6074 1906.2415)" class="bcg-fronten-tablet1 bcg-fronten-tablet2 bcg-fronten-tablet3">Q</text>
<path class="bcg-fronten-tablet0" d="M238.5,1860.4h51.6c3.9,0,7,3.2,7,7v51.6c0,3.9-3.2,7-7,7h-51.6c-3.9,0-7-3.2-7-7v-51.6
	C231.5,1863.6,234.6,1860.4,238.5,1860.4z"/>
<text transform="matrix(1 0 0 1 247.9658 1906.2415)" class="bcg-fronten-tablet1 bcg-fronten-tablet2 bcg-fronten-tablet3">W</text>
<path class="bcg-fronten-tablet0" d="M244.3,1221h51.6c3.9,0,7,3.2,7,7v51.6c0,3.9-3.2,7-7,7h-51.6c-3.9,0-7-3.2-7-7V1228
	C237.2,1224.2,240.4,1221,244.3,1221z"/>
<text transform="matrix(1 0 0 1 253.6635 1266.8086)" class="bcg-fronten-tablet1 bcg-fronten-tablet2 bcg-fronten-tablet3">W</text>
<path class="bcg-fronten-tablet0" d="M313.5,1860.4h51.6c3.9,0,7,3.2,7,7v51.6c0,3.9-3.2,7-7,7h-51.6c-3.9,0-7-3.2-7-7v-51.6
	C306.5,1863.6,309.7,1860.4,313.5,1860.4z"/>
<text transform="matrix(1 0 0 1 329.4668 1906.2415)" class="bcg-fronten-tablet1 bcg-fronten-tablet2 bcg-fronten-tablet3">E</text>
<g>
	<path class="bcg-fronten-tablet0" d="M476.7,476.9h51.6c3.9,0,7,3.2,7,7v51.6c0,3.9-3.2,7-7,7h-51.6c-3.9,0-7-3.2-7-7v-51.6
		C469.7,480,472.8,476.9,476.7,476.9z"/>
	<text transform="matrix(1 0 0 1 492.5612 522.6821)" class="bcg-fronten-tablet1 bcg-fronten-tablet2 bcg-fronten-tablet3">E</text>
</g>
<path class="bcg-fronten-tablet0" d="M387.4,1860.4H439c3.9,0,7,3.2,7,7v51.6c0,3.9-3.2,7-7,7h-51.6c-3.9,0-7-3.2-7-7v-51.6
	C380.4,1863.6,383.6,1860.4,387.4,1860.4z"/>
<text transform="matrix(1 0 0 1 402.2324 1906.2415)" class="bcg-fronten-tablet1 bcg-fronten-tablet2 bcg-fronten-tablet3">R</text>
<path class="bcg-fronten-tablet0" d="M462.5,1860.4h51.6c3.9,0,7,3.2,7,7v51.6c0,3.9-3.2,7-7,7h-51.6c-3.9,0-7-3.2-7-7v-51.6
	C455.5,1863.6,458.6,1860.4,462.5,1860.4z"/>
<text transform="matrix(1 0 0 1 479.4482 1906.2415)" class="bcg-fronten-tablet1 bcg-fronten-tablet2 bcg-fronten-tablet3">T</text>
<path class="bcg-fronten-tablet0" d="M185.8,1937.9h51.6c3.9,0,7,3.2,7,7v51.6c0,3.9-3.2,7-7,7h-51.6c-3.9,0-7-3.2-7-7v-51.6
	C178.8,1941,181.8,1937.9,185.8,1937.9z"/>
<text transform="matrix(1 0 0 1 200.2197 1983.6384)" class="bcg-fronten-tablet1 bcg-fronten-tablet2 bcg-fronten-tablet3">A</text>
<path class="bcg-fronten-tablet0" d="M259.6,1937.9h51.6c3.9,0,7,3.2,7,7v51.6c0,3.9-3.2,7-7,7h-51.6c-3.9,0-7-3.2-7-7v-51.6
	C252.6,1941,255.7,1937.9,259.6,1937.9z"/>
<text transform="matrix(1 0 0 1 275.7705 1983.6384)" class="bcg-fronten-tablet1 bcg-fronten-tablet2 bcg-fronten-tablet3">S</text>
<path class="bcg-fronten-tablet0" d="M348.2,92.4h51.6c3.9,0,7,3.2,7,7V151c0,3.9-3.2,7-7,7h-51.6c-3.9,0-7-3.2-7-7V99.4
	C341.2,95.5,344.3,92.4,348.2,92.4z"/>
<text transform="matrix(1 0 0 1 364.3039 138.1691)" class="bcg-fronten-tablet1 bcg-fronten-tablet2 bcg-fronten-tablet3">S</text>
<path class="bcg-fronten-tablet0" d="M334.7,1937.9h51.6c3.9,0,7,3.2,7,7v51.6c0,3.9-3.2,7-7,7h-51.6c-3.9,0-7-3.2-7-7v-51.6
	C327.6,1941,330.8,1937.9,334.7,1937.9z"/>
<text transform="matrix(1 0 0 1 349.5781 1983.6384)" class="bcg-fronten-tablet1 bcg-fronten-tablet2 bcg-fronten-tablet3">D</text>
<path class="bcg-fronten-tablet0" d="M408.5,1937.9h51.6c3.9,0,7,3.2,7,7v51.6c0,3.9-3.2,7-7,7h-51.6c-3.9,0-7-3.2-7-7v-51.6
	C401.5,1941,404.7,1937.9,408.5,1937.9z"/>
<text transform="matrix(1 0 0 1 425.6279 1983.6384)" class="bcg-fronten-tablet1 bcg-fronten-tablet2 bcg-fronten-tablet3">F</text>
<path class="bcg-fronten-tablet0" d="M436.1,1337.1h51.6c3.9,0,7,3.2,7,7v51.6c0,3.9-3.2,7-7,7h-51.6c-3.9,0-7-3.2-7-7v-51.6
	C429,1340.3,432.2,1337.1,436.1,1337.1z"/>
<text transform="matrix(1 0 0 1 445.4228 1382.9039)" class="bcg-fronten-tablet1 bcg-fronten-tablet2 bcg-fronten-tablet3">W</text>
<path class="bcg-fronten-tablet0" d="M511.1,1337.1h51.6c3.9,0,7,3.2,7,7v51.6c0,3.9-3.2,7-7,7h-51.6c-3.9,0-7-3.2-7-7v-51.6
	C504.1,1340.3,507.2,1337.1,511.1,1337.1z"/>
<text transform="matrix(1 0 0 1 526.9247 1382.9039)" class="bcg-fronten-tablet1 bcg-fronten-tablet2 bcg-fronten-tablet3">E</text>
<path class="bcg-fronten-tablet0" d="M585,1337.1h51.6c3.9,0,7,3.2,7,7v51.6c0,3.9-3.2,7-7,7H585c-3.9,0-7-3.2-7-7v-51.6
	C578,1340.3,581.1,1337.1,585,1337.1z"/>
<text transform="matrix(1 0 0 1 599.6894 1382.9039)" class="bcg-fronten-tablet1 bcg-fronten-tablet2 bcg-fronten-tablet3">R</text>
<path class="bcg-fronten-tablet0" d="M383.3,1414.5h51.6c3.9,0,7,3.2,7,7v51.6c0,3.9-3.2,7-7,7h-51.6c-3.9,0-7-3.2-7-7v-51.6
	C376.3,1417.6,379.4,1414.5,383.3,1414.5z"/>
<text transform="matrix(1 0 0 1 397.6777 1460.3009)" class="bcg-fronten-tablet1 bcg-fronten-tablet2 bcg-fronten-tablet3">A</text>
<path class="bcg-fronten-tablet0" d="M532.3,1414.5h51.6c3.9,0,7,3.2,7,7v51.6c0,3.9-3.2,7-7,7h-51.6c-3.9,0-7-3.2-7-7v-51.6
	C525.2,1417.6,528.3,1414.5,532.3,1414.5z"/>
<text transform="matrix(1 0 0 1 547.0361 1460.3009)" class="bcg-fronten-tablet1 bcg-fronten-tablet2 bcg-fronten-tablet3">D</text>
<path class="bcg-fronten-tablet0" d="M606.1,1414.5h51.6c3.9,0,7,3.2,7,7v51.6c0,3.9-3.2,7-7,7h-51.6c-3.9,0-7-3.2-7-7v-51.6
	C599.1,1417.6,602.2,1414.5,606.1,1414.5z"/>
<text transform="matrix(1 0 0 1 623.0849 1460.3009)" class="bcg-fronten-tablet1 bcg-fronten-tablet2 bcg-fronten-tablet3">F</text>
<path class="bcg-fronten-tablet0" d="M483.6,1937.9h51.6c3.9,0,7,3.2,7,7v51.6c0,3.9-3.2,7-7,7h-51.6c-3.9,0-7-3.2-7-7v-51.6
	C476.6,1941,479.7,1937.9,483.6,1937.9z"/>
<text transform="matrix(1 0 0 1 498.2451 1983.6384)" class="bcg-fronten-tablet1 bcg-fronten-tablet2 bcg-fronten-tablet3">G</text>
<path class="bcg-fronten-tablet0" d="M198.8,1562.1h51.6c3.9,0,7,3.2,7,7v51.6c0,3.9-3.2,7-7,7h-51.6c-3.9,0-7-3.2-7-7v-51.6
	C191.8,1565.3,194.9,1562.1,198.8,1562.1z"/>
<text transform="matrix(1 0 0 1 213.2296 1607.9326)" class="bcg-fronten-tablet1 bcg-fronten-tablet2 bcg-fronten-tablet3">A</text>
<path class="bcg-fronten-tablet0" d="M272.7,1562.1h51.6c3.9,0,7,3.2,7,7v51.6c0,3.9-3.2,7-7,7h-51.6c-3.9,0-7-3.2-7-7v-51.6
	C265.7,1565.3,268.8,1562.1,272.7,1562.1z"/>
<text transform="matrix(1 0 0 1 288.7843 1607.9326)" class="bcg-fronten-tablet1 bcg-fronten-tablet2 bcg-fronten-tablet3">S</text>
<path class="bcg-fronten-tablet0" d="M496.8,653.2h51.6c3.9,0,7,3.2,7,7v51.6c0,3.9-3.2,7-7,7h-51.6c-3.9,0-7-3.2-7-7v-51.6
	C489.8,656.4,492.9,653.2,496.8,653.2z"/>
<text transform="matrix(1 0 0 1 511.1876 699.0085)" class="bcg-fronten-tablet1 bcg-fronten-tablet2 bcg-fronten-tablet3">A</text>
<path class="bcg-fronten-tablet0" d="M570.6,653.2h51.6c3.9,0,7,3.2,7,7v51.6c0,3.9-3.2,7-7,7h-51.6c-3.9,0-7-3.2-7-7v-51.6
	C563.6,656.4,566.8,653.2,570.6,653.2z"/>
<text transform="matrix(1 0 0 1 586.7443 699.0085)" class="bcg-fronten-tablet1 bcg-fronten-tablet2 bcg-fronten-tablet3">S</text>
<path class="bcg-fronten-tablet0" d="M76.2,261.6h51.6c3.9,0,7,3.2,7,7v51.6c0,3.9-3.2,7-7,7H76.2c-3.9,0-7-3.2-7-7v-51.6
	C69.2,264.8,72.3,261.6,76.2,261.6z"/>
<text transform="matrix(1 0 0 1 91.0366 307.4072)" class="bcg-fronten-tablet1 bcg-fronten-tablet2 bcg-fronten-tablet3">D</text>
<path class="bcg-fronten-tablet0" d="M150.1,261.6h51.6c3.9,0,7,3.2,7,7v51.6c0,3.9-3.2,7-7,7h-51.6c-3.9,0-7-3.2-7-7v-51.6
	C143,264.8,146.2,261.6,150.1,261.6z"/>
<text transform="matrix(1 0 0 1 167.0796 307.4072)" class="bcg-fronten-tablet1 bcg-fronten-tablet2 bcg-fronten-tablet3">F</text>
<path class="bcg-fronten-tablet0" d="M225.1,261.6h51.7c3.9,0,7,3.2,7,7v51.6c0,3.9-3.2,7-7,7h-51.6c-3.9,0-7-3.2-7-7v-51.6
	C218.1,264.8,221.3,261.6,225.1,261.6z"/>
<text transform="matrix(1 0 0 1 239.6977 307.4072)" class="bcg-fronten-tablet1 bcg-fronten-tablet2 bcg-fronten-tablet3">G</text>
<path class="bcg-fronten-tablet0" d="M121.7,2311.5h51.6c3.9,0,7,3.2,7,7v51.6c0,3.9-3.2,7-7,7h-51.6c-3.9,0-7-3.2-7-7v-51.6
	C114.7,2314.7,117.9,2311.5,121.7,2311.5z"/>
<text transform="matrix(1 0 0 1 136.5996 2357.3167)" class="bcg-fronten-tablet1 bcg-fronten-tablet2 bcg-fronten-tablet3">D</text>
<path class="bcg-fronten-tablet0" d="M195.6,2311.5h51.6c3.9,0,7,3.2,7,7v51.6c0,3.9-3.2,7-7,7h-51.6c-3.9,0-7-3.2-7-7v-51.6
	C188.6,2314.7,191.8,2311.5,195.6,2311.5z"/>
<text transform="matrix(1 0 0 1 212.6416 2357.3167)" class="bcg-fronten-tablet1 bcg-fronten-tablet2 bcg-fronten-tablet3">F</text>
<path class="bcg-fronten-tablet0" d="M270.7,2311.5h51.6c3.9,0,7,3.2,7,7v51.6c0,3.9-3.2,7-7,7h-51.6c-3.9,0-7-3.2-7-7v-51.6
	C263.6,2314.7,266.8,2311.5,270.7,2311.5z"/>
<text transform="matrix(1 0 0 1 285.2607 2357.3167)" class="bcg-fronten-tablet1 bcg-fronten-tablet2 bcg-fronten-tablet3">G</text>
<path class="bcg-fronten-tablet0" d="M535,340.2h51.6c3.9,0,7,3.2,7,7v51.6c0,3.9-3.2,7-7,7H535c-3.9,0-7-3.2-7-7v-51.7
	C528,343.2,531.1,340.2,535,340.2z"/>
<text transform="matrix(1 0 0 1 552.0099 385.9333)" class="bcg-fronten-tablet1 bcg-fronten-tablet2 bcg-fronten-tablet3">F</text>
<path class="bcg-fronten-tablet0" d="M610.1,340.2h51.6c3.9,0,7,3.2,7,7v51.6c0,3.9-3.2,7-7,7h-51.6c-3.9,0-7-3.2-7-7v-51.7
	C603,343.2,606.1,340.2,610.1,340.2z"/>
<text transform="matrix(1 0 0 1 624.6281 385.9333)" class="bcg-fronten-tablet1 bcg-fronten-tablet2 bcg-fronten-tablet3">G</text>
<path class="bcg-fronten-tablet0" d="M205.7,2015.2h51.6c3.9,0,7,3.2,7,7v51.6c0,3.9-3.2,7-7,7h-51.6c-3.9,0-7-3.2-7-7v-51.6
	C198.6,2018.4,201.8,2015.2,205.7,2015.2z"/>
<path class="bcg-fronten-tablet0" d="M130.6,2015.2h51.6c3.9,0,7,3.2,7,7v51.6c0,3.9-3.2,7-7,7h-51.6c-3.9,0-7-3.2-7-7v-51.6
	C123.6,2018.4,126.7,2015.2,130.6,2015.2z"/>
<path class="bcg-fronten-tablet0" d="M177.1,2088h51.6c3.9,0,7,3.2,7,7v51.6c0,3.9-3.2,7-7,7h-51.6c-3.9,0-7-3.2-7-7v-51.5
	C170.1,2091.2,173.3,2088,177.1,2088z"/>
<path class="bcg-fronten-tablet0" d="M103,2088.2h51.6c3.9,0,7,3.2,7,7v51.6c0,3.9-3.2,7-7,7H103c-3.9,0-7-3.2-7-7v-51.6
	C96,2091.4,99.1,2088.2,103,2088.2z"/>
<path class="bcg-fronten-tablet0" d="M27.4,2088.2H79c3.9,0,7,3.2,7,7v51.6c0,3.9-3.2,7-7,7H27.4c-3.9,0-7-3.2-7-7v-51.6
	C20.4,2091.4,23.6,2088.2,27.4,2088.2z"/>
<path class="bcg-fronten-tablet0" d="M463.4,904H515c3.9,0,7,3.2,7,7v51.6c0,3.9-3.2,7-7,7h-51.6c-3.9,0-7-3.2-7-7V911
	C456.3,907.1,459.5,904,463.4,904z"/>
<path class="bcg-fronten-tablet0" d="M548.1,904h51.6c3.9,0,7,3.2,7,7v51.6c0,3.9-3.2,7-7,7h-51.6c-3.9,0-7-3.2-7-7V911
	C541.1,907.1,544.3,904,548.1,904z"/>
<path class="bcg-fronten-tablet0" d="M359.3,1018.8h51.6c3.9,0,7,3.2,7,7v51.6c0,3.9-3.2,7-7,7h-51.6c-3.9,0-7-3.2-7-7v-51.6
	C352.2,1021.9,355.3,1018.8,359.3,1018.8z"/>
<text transform="matrix(1 0 0 1 220.5478 2061.0349)" class="bcg-fronten-tablet1 bcg-fronten-tablet2 bcg-fronten-tablet3">Z</text>
<path class="bcg-fronten-tablet0" d="M279.5,2015.2h51.6c3.9,0,7,3.2,7,7v51.6c0,3.9-3.2,7-7,7h-51.6c-3.9,0-7-3.2-7-7v-51.6
	C272.5,2018.4,275.7,2015.2,279.5,2015.2z"/>
<path class="bcg-fronten-tablet0" d="M251.4,2088.7h79.7c3.9,0,7,3.2,7,7v51.6c0,3.9-3.2,7-7,7h-79.7c-3.9,0-7-3.2-7-7v-51.6
	C244.4,2091.8,247.5,2088.7,251.4,2088.7z"/>
<path class="bcg-fronten-tablet0" d="M33.8,2178.2h79.6c3.9,0,7,3.2,7,7v51.6c0,3.9-3.2,7-7,7H33.7c-3.9,0-7-3.2-7-7v-51.6
	C26.7,2181.3,29.9,2178.2,33.8,2178.2z"/>
<path class="bcg-fronten-tablet0" d="M27.4,2016h79.7c3.9,0,7,3.2,7,7v51.6c0,3.9-3.2,7-7,7H27.4c-3.9,0-7-3.2-7-7V2023
	C20.4,2019.2,23.6,2016,27.4,2016z"/>
<path class="bcg-fronten-tablet0" d="M27.4,1860.4h111.9c3.9,0,7,3.2,7,7v51.6c0,3.9-3.2,7-7,7H27.4c-3.9,0-7-3.2-7-7v-51.6
	C20.4,1863.6,23.6,1860.4,27.4,1860.4z"/>
<path class="bcg-fronten-tablet0" d="M27.4,1937.9h135.7c3.9,0,7,3.2,7,7v51.6c0,3.9-3.2,7-7,7H27.4c-3.9,0-7-3.2-7-7v-51.6
	C20.4,1941,23.6,1937.9,27.4,1937.9z"/>
<text transform="matrix(1 0 0 1 293.6357 2061.0349)" class="bcg-fronten-tablet1 bcg-fronten-tablet2 bcg-fronten-tablet3">X</text>
<path class="bcg-fronten-tablet0" d="M354.6,2088.7h200.5c3.9,0,7,3.2,7,7v51.6c0,3.9-3.2,7-7,7H354.6c-3.9,0-7-3.2-7-7v-51.6
	C347.6,2091.8,350.7,2088.7,354.6,2088.7z"/>
<path class="bcg-fronten-tablet0" d="M501,1765.9h51.6c3.9,0,7,3.2,7,7v51.6c0,3.9-3.2,7-7,7H501c-3.9,0-7-3.2-7-7v-51.6
	C493.9,1769,497.1,1765.9,501,1765.9z"/>
<path class="bcg-fronten-tablet0" d="M476.7,2355.9h51.6c3.9,0,7,3.2,7,7v51.6c0,3.9-3.2,7-7,7h-51.6c-3.9,0-7-3.2-7-7v-51.6
	C469.7,2359,472.9,2355.9,476.7,2355.9z"/>
<path class="bcg-fronten-tablet0" d="M401.2,2355.9h51.6c3.9,0,7,3.2,7,7v51.6c0,3.9-3.2,7-7,7h-51.6c-3.9,0-7-3.2-7-7v-51.6
	C394.2,2359,397.4,2355.9,401.2,2355.9z"/>
<path class="bcg-fronten-tablet0" d="M575.3,1766.5H655c3.9,0,7,3.2,7,7v51.6c0,3.9-3.2,7-7,7h-79.7c-3.9,0-7-3.2-7-7v-51.6
	C568.3,1769.6,571.5,1766.5,575.3,1766.5z"/>
<path class="bcg-fronten-tablet0" d="M144.2,2177.2h200.6c3.9,0,7,3.2,7,7v51.6c0,3.9-3.2,7-7,7H144.2c-3.9,0-7-3.2-7-7v-51.6
	C137.2,2180.3,140.3,2177.2,144.2,2177.2z"/>
<path class="bcg-fronten-tablet0" d="M375.6,2175.8h200.5c3.9,0,7,3.2,7,7v51.6c0,3.9-3.2,7-7,7H375.6c-3.9,0-7-3.2-7-7v-51.6
	C368.6,2178.9,371.8,2175.8,375.6,2175.8z"/>
<path class="bcg-fronten-tablet0" d="M354.6,2015.2h51.6c3.9,0,7,3.2,7,7v51.6c0,3.9-3.2,7-7,7h-51.6c-3.9,0-7-3.2-7-7v-51.6
	C347.6,2018.4,350.7,2015.2,354.6,2015.2z"/>
<text transform="matrix(1 0 0 1 370.5869 2061.0349)" class="bcg-fronten-tablet1 bcg-fronten-tablet2 bcg-fronten-tablet3">C</text>
<path class="bcg-fronten-tablet0" d="M161.6,1783.5h51.6c3.9,0,7,3.2,7,7v51.6c0,3.9-3.2,7-7,7h-51.6c-3.9,0-7-3.2-7-7v-51.6
	C154.6,1786.6,157.8,1783.5,161.6,1783.5z"/>
<text transform="matrix(1 0 0 1 177.6168 1829.2932)" class="bcg-fronten-tablet1 bcg-fronten-tablet2 bcg-fronten-tablet3">C</text>
<path class="bcg-fronten-tablet0" d="M369.7,391.8h51.6c3.9,0,7,3.2,7,7v51.6c0,3.9-3.2,7-7,7h-51.6c-3.9,0-7-3.2-7-7v-51.6
	C362.6,395.1,365.8,391.8,369.7,391.8z"/>
<text transform="matrix(1 0 0 1 386.5954 437.6494)" class="bcg-fronten-tablet1 bcg-fronten-tablet2 bcg-fronten-tablet3">T</text>
<path class="bcg-fronten-tablet0" d="M76.9,85.3h51.6c3.9,0,7,3.2,7,7v51.6c0,3.9-3.2,7-7,7H76.9c-3.9,0-7-3.2-7-7V92.3
	C69.9,88.4,73.1,85.3,76.9,85.3z"/>
<text transform="matrix(1 0 0 1 86.3485 131.0193)" class="bcg-fronten-tablet1 bcg-fronten-tablet2 bcg-fronten-tablet3">W</text>
<path class="bcg-fronten-tablet0" d="M306.7,260.7h51.6c3.9,0,7,3.2,7,7v51.6c0,3.9-3.2,7-7,7h-51.6c-3.9,0-7-3.2-7-7v-51.7
	C299.6,263.8,302.8,260.7,306.7,260.7z"/>
<text transform="matrix(1 0 0 1 321.0907 306.4558)" class="bcg-fronten-tablet1 bcg-fronten-tablet2 bcg-fronten-tablet3">A</text>
<path class="bcg-fronten-tablet0" d="M380.6,260.7h51.6c3.9,0,7,3.2,7,7v51.6c0,3.9-3.2,7-7,7h-51.6c-3.9,0-7-3.2-7-7v-51.7
	C373.5,263.8,376.7,260.7,380.6,260.7z"/>
<text transform="matrix(1 0 0 1 396.6464 306.4558)" class="bcg-fronten-tablet1 bcg-fronten-tablet2 bcg-fronten-tablet3">S</text>
<g>
	<path class="bcg-fronten-tablet0" d="M343.1,739.8h51.7c3.9,0,7,3.2,7,7v51.6c0,3.9-3.2,7-7,7h-51.6c-3.9,0-7-3.2-7-7v-51.6
		C336.1,743,339.3,739.8,343.1,739.8z"/>
	<text transform="matrix(1 0 0 1 359.096 785.6186)" class="bcg-fronten-tablet1 bcg-fronten-tablet2 bcg-fronten-tablet3">C</text>
</g>
<path class="bcg-fronten-tablet0" d="M428.5,2015.2h51.6c3.9,0,7,3.2,7,7v51.6c0,3.9-3.2,7-7,7h-51.6c-3.9,0-7-3.2-7-7v-51.6
	C421.4,2018.4,424.5,2015.2,428.5,2015.2z"/>
<text transform="matrix(1 0 0 1 444.5195 2061.0349)" class="bcg-fronten-tablet1 bcg-fronten-tablet2 bcg-fronten-tablet3">V</text>
<path class="bcg-fronten-tablet0" d="M503.5,2015.2h51.6c3.9,0,7,3.2,7,7v51.6c0,3.9-3.2,7-7,7h-51.6c-3.9,0-7-3.2-7-7v-51.6
	C496.5,2018.4,499.7,2015.2,503.5,2015.2z"/>
<text transform="matrix(1 0 0 1 518.122 2061.0349)" class="bcg-fronten-tablet1 bcg-fronten-tablet2 bcg-fronten-tablet3">B</text>
<path class="bcg-fronten-tablet0" d="M529,72.3h51.6c3.9,0,7,3.2,7,7v51.6c0,3.9-3.2,7-7,7H529c-3.9,0-7-3.2-7-7V79.3C522,75.4,525.2,72.3,529,72.3z
	"/>
<text transform="matrix(1 0 0 1 543.5764 118.0815)" class="bcg-fronten-tablet1 bcg-fronten-tablet2 bcg-fronten-tablet3">B</text>
<path class="bcg-fronten-tablet0" d="M365.3,1105.5h51.6c3.9,0,7,3.2,7,7v51.6c0,3.9-3.2,7-7,7h-51.6c-3.9,0-7-3.2-7-7v-51.6
	C358.3,1108.7,361.4,1105.5,365.3,1105.5z"/>
<text transform="matrix(1 0 0 1 382.2784 1151.3593)" class="bcg-fronten-tablet1 bcg-fronten-tablet2 bcg-fronten-tablet3">F</text>
<path class="bcg-fronten-tablet0" d="M440.4,1105.5H492c3.9,0,7,3.2,7,7v51.6c0,3.9-3.2,7-7,7h-51.6c-3.9,0-7-3.2-7-7v-51.6
	C433.3,1108.7,436.4,1105.5,440.4,1105.5z"/>
<text transform="matrix(1 0 0 1 454.8957 1151.3593)" class="bcg-fronten-tablet1 bcg-fronten-tablet2 bcg-fronten-tablet3">G</text>
<path class="bcg-fronten-tablet0" d="M531,2251.6h200.6c3.9,0,7,3.2,7,7v51.6c0,3.9-3.2,7-7,7H531.1c-3.9,0-7-3.2-7-7v-51.6
	C524,2254.6,527.1,2251.6,531,2251.6z"/>
<path class="bcg-fronten-tablet0" d="M604.9,2178.1h51.6c3.9,0,7,3.2,7,7v51.6c0,3.9-3.2,7-7,7h-51.6c-3.9,0-7-3.2-7-7v-51.6
	C597.8,2181.3,601,2178.1,604.9,2178.1z"/>
<text transform="matrix(1 0 0 1 620.9395 2223.9519)" class="bcg-fronten-tablet1 bcg-fronten-tablet2 bcg-fronten-tablet3">V</text>
<path class="bcg-fronten-tablet0" d="M679.9,2178.1h51.6c3.9,0,7,3.2,7,7v51.6c0,3.9-3.2,7-7,7h-51.6c-3.9,0-7-3.2-7-7v-51.6
	C672.9,2181.3,676.1,2178.1,679.9,2178.1z"/>
<text transform="matrix(1 0 0 1 694.543 2223.9519)" class="bcg-fronten-tablet1 bcg-fronten-tablet2 bcg-fronten-tablet3">B</text>
<path class="bcg-fronten-tablet0" d="M470.1,197.5h51.6c3.9,0,7,3.2,7,7v51.6c0,3.9-3.2,7-7,7h-51.6c-3.9,0-7-3.2-7-7v-51.6
	C463.1,200.6,466.2,197.5,470.1,197.5z"/>
<text transform="matrix(1 0 0 1 484.6623 243.2883)" class="bcg-fronten-tablet1 bcg-fronten-tablet2 bcg-fronten-tablet3">B</text>
</svg>
