<svg xmlns="http://www.w3.org/2000/svg" viewBox="0 0 1073 718"><defs><style>.img-frontend-1{fill:#1e2333;}.img-frontend-2{fill:#24293f;}.img-frontend-3{fill:#b92745;}.img-frontend-4{fill:#e9b258;}.img-frontend-5{fill:#24737a;}.img-frontend-6{fill:#20253a;}.img-frontend-7{fill:#dedee0;}.img-frontend-8{fill:#2b304b;}.img-frontend-9{fill:#50ae98;}.img-frontend-10{fill:#73cedd;}</style></defs><title>Zasób 2</title><g id="Warstwa_2" data-name="Warstwa 2"><g id="Warstwa_3" data-name="Warstwa 3"><rect class="img-frontend-1" width="1073" height="718" rx="12" ry="12"/><rect class="img-frontend-2" y="54.83" width="1073" height="626.55"/><circle class="img-frontend-3" cx="26.61" cy="28.17" r="7.74"/><circle class="img-frontend-4" cx="52.76" cy="28.17" r="7.74"/><circle class="img-frontend-5" cx="79.76" cy="28.17" r="7.74"/><rect class="img-frontend-6" y="54.83" width="87.5" height="626.55"/><rect class="img-frontend-7" x="116.35" y="78.17" width="114.26" height="12" rx="6" ry="6"/><rect class="img-frontend-8" x="14.89" y="78.17" width="30.13" height="12" rx="6" ry="6"/><rect class="img-frontend-8" x="14.89" y="106.67" width="30.13" height="12" rx="6" ry="6"/><rect class="img-frontend-8" x="14.89" y="133.67" width="30.13" height="12" rx="6" ry="6"/><rect class="img-frontend-8" x="14.89" y="160.93" width="30.13" height="12" rx="6" ry="6"/><rect class="img-frontend-8" x="14.89" y="188.19" width="30.13" height="12" rx="6" ry="6"/><rect class="img-frontend-8" x="14.89" y="216.69" width="30.13" height="12" rx="6" ry="6"/><rect class="img-frontend-8" x="14.89" y="243.69" width="30.13" height="12" rx="6" ry="6"/><rect class="img-frontend-8" x="14.89" y="270.95" width="30.13" height="12" rx="6" ry="6"/><rect class="img-frontend-8" x="14.89" y="297.95" width="30.13" height="12" rx="6" ry="6"/><rect class="img-frontend-8" x="14.89" y="326.44" width="30.13" height="12" rx="6" ry="6"/><rect class="img-frontend-8" x="14.89" y="353.44" width="49.39" height="12" rx="6" ry="6"/><rect class="img-frontend-8" x="14.89" y="380.7" width="49.39" height="12" rx="6" ry="6"/><rect class="img-frontend-8" x="14.89" y="407.96" width="49.39" height="12" rx="6" ry="6"/><rect class="img-frontend-8" x="14.89" y="436.46" width="49.39" height="12" rx="6" ry="6"/><rect class="img-frontend-8" x="14.89" y="463.46" width="49.39" height="12" rx="6" ry="6"/><rect class="img-frontend-8" x="14.89" y="490.72" width="49.39" height="12" rx="6" ry="6"/><rect class="img-frontend-8" x="14.89" y="516.53" width="49.39" height="12" rx="6" ry="6"/><rect class="img-frontend-8" x="14.89" y="543.53" width="49.39" height="12" rx="6" ry="6"/><rect class="img-frontend-8" x="14.89" y="570.79" width="49.39" height="12" rx="6" ry="6"/><rect class="img-frontend-9" x="243.97" y="78.17" width="114.26" height="12" rx="6" ry="6"/><rect class="img-frontend-7" x="116.35" y="106.67" width="214.47" height="12" rx="6" ry="6"/><rect class="img-frontend-10" x="116.35" y="133.67" width="137.4" height="12" rx="6" ry="6"/><rect class="img-frontend-7" x="116.35" y="242.17" width="114.26" height="12" rx="6" ry="6"/><rect class="img-frontend-9" x="243.97" y="242.17" width="114.26" height="12" rx="6" ry="6"/><rect class="img-frontend-10" x="243.97" y="324.16" width="70.53" height="12" rx="6" ry="6"/><rect class="img-frontend-4" x="116.35" y="270.67" width="214.47" height="12" rx="6" ry="6"/><rect class="img-frontend-10" x="243.97" y="214.5" width="214.47" height="12" rx="6" ry="6"/><rect class="img-frontend-10" x="116.35" y="297.67" width="137.4" height="12" rx="6" ry="6"/><rect class="img-frontend-7" x="116.35" y="160.5" width="114.26" height="12" rx="6" ry="6"/><rect class="img-frontend-9" x="116.35" y="214.5" width="114.26" height="12" rx="6" ry="6"/><rect class="img-frontend-4" x="243.97" y="160.5" width="381.12" height="12" rx="6" ry="6"/><rect class="img-frontend-7" x="116.35" y="189" width="214.47" height="12" rx="6" ry="6"/><rect class="img-frontend-10" x="345.35" y="189" width="137.4" height="12" rx="6" ry="6"/><rect class="img-frontend-7" x="116.35" y="324.16" width="114.26" height="12" rx="6" ry="6"/><rect class="img-frontend-7" x="116.35" y="352.66" width="422.61" height="12" rx="6" ry="6"/><rect class="img-frontend-10" x="116.35" y="379.66" width="137.4" height="12" rx="6" ry="6"/><rect class="img-frontend-7" x="116.35" y="488.16" width="114.26" height="12" rx="6" ry="6"/><rect class="img-frontend-9" x="243.97" y="488.16" width="114.26" height="12" rx="6" ry="6"/><rect class="img-frontend-4" x="116.35" y="516.66" width="214.47" height="12" rx="6" ry="6"/><rect class="img-frontend-10" x="243.97" y="460.49" width="214.47" height="12" rx="6" ry="6"/><rect class="img-frontend-10" x="116.35" y="543.66" width="137.4" height="12" rx="6" ry="6"/><rect class="img-frontend-7" x="116.35" y="406.49" width="114.26" height="12" rx="6" ry="6"/><rect class="img-frontend-9" x="116.35" y="460.49" width="114.26" height="12" rx="6" ry="6"/><rect class="img-frontend-4" x="243.97" y="406.49" width="152.56" height="12" rx="6" ry="6"/><rect class="img-frontend-4" x="551.96" y="352.66" width="152.56" height="12" rx="6" ry="6"/><rect class="img-frontend-4" x="269.07" y="379.66" width="152.56" height="12" rx="6" ry="6"/><rect class="img-frontend-4" x="434.53" y="379.66" width="152.56" height="12" rx="6" ry="6"/><rect class="img-frontend-4" x="116.35" y="434.99" width="214.47" height="12" rx="6" ry="6"/><rect class="img-frontend-10" x="345.35" y="434.99" width="137.4" height="12" rx="6" ry="6"/></g></g></svg>
