<?xml version="1.0" encoding="utf-8"?>
<svg version="1.1" id="Warstwa_1" xmlns="http://www.w3.org/2000/svg" xmlns:xlink="http://www.w3.org/1999/xlink" x="0px" y="0px"
	 viewBox="0 0 323.1 3039.4" style="enable-background:new 0 0 323.1 3039.4;" xml:space="preserve">
<style type="text/css">
	.st-bcg-elixir-0{fill:#73CEDD;}
	.st-bcg-elixir-1{fill:#9FA4B7;}
	.st-bcg-elixir-2{fill:#151A21;}
	.st-bcg-elixir-3{fill:#1B212B;}
	.st-bcg-elixir-4{fill:#202633;}
	.st-bcg-elixir-5{fill:#242A3A;}
	.st-bcg-elixir-6{fill:#1D6466;}
	.st-bcg-elixir-7{fill:#E9B258;}
	.st-bcg-elixir-8{fill:#DA6346;}
	.st-bcg-elixir-9{fill:#50AE98;}
	.st-bcg-elixir-10{fill:#B92745;}
	.st-bcg-elixir-11{fill:#2B304B;}
</style>
<polygon class="st-bcg-elixir-0" points="72.3,1106.3 76.5,1114.7 85.8,1116.1 79.1,1122.6 80.7,1131.9 72.3,1127.5 64,1131.9 65.6,1122.6 
	58.8,1116.1 68.2,1114.7 "/>
<polygon class="st-bcg-elixir-1" points="265.9,1620.6 267.4,1623.5 270.6,1624 268.3,1626.3 268.8,1629.5 265.9,1628 263,1629.5 263.6,1626.3 
	261.3,1624 264.5,1623.5 "/>
<polygon class="st-bcg-elixir-1" points="110.5,915.8 114.7,924.3 124,925.6 117.3,932.2 118.9,941.5 110.5,937.1 102.2,941.5 103.8,932.2 
	97,925.6 106.4,924.3 "/>
<polygon class="st-bcg-elixir-1" points="115.5,1536.8 119.7,1545.3 129,1546.6 122.3,1553.2 123.9,1562.5 115.5,1558.1 107.2,1562.5 
	108.8,1553.2 102,1546.6 111.4,1545.3 "/>
<polygon class="st-bcg-elixir-1" points="150.5,2231 161.7,2242 177.1,2239 170.1,2253.1 177.7,2266.8 162.2,2264.5 151.4,2276 148.9,2260.5 
	134.6,2253.9 148.6,2246.6 "/>
<polygon class="st-bcg-elixir-0" points="110.3,2077.3 114.5,2085.7 123.8,2087.1 117.1,2093.6 118.7,2102.9 110.3,2098.5 102,2102.9 
	103.6,2093.6 96.8,2087.1 106.2,2085.7 "/>
<polygon class="st-bcg-elixir-1" points="110.5,1885.8 114.7,1894.3 124,1895.6 117.3,1902.2 118.9,1911.5 110.5,1907.1 102.2,1911.5 
	103.8,1902.2 97,1895.6 106.4,1894.3 "/>
<polygon class="st-bcg-elixir-0" points="156.5,1844.4 158.7,1848.8 163.5,1849.5 160,1852.9 160.8,1857.6 156.5,1855.4 152.2,1857.6 
	153.1,1852.9 149.6,1849.5 154.4,1848.8 "/>
<polygon class="st-bcg-elixir-0" points="72.3,1936.4 76.5,1944.8 85.8,1946.2 79.1,1952.7 80.7,1962 72.3,1957.6 64,1962 65.6,1952.7 
	58.8,1946.2 68.2,1944.8 "/>
<path class="st-bcg-elixir-2" d="M130.2,85.3c23.5,0,42.6-19.1,42.6-42.6S153.7,0.1,130.2,0.1S87.6,19.2,87.6,42.7
	C87.6,66.2,106.7,85.3,130.2,85.3z M130.2,13c16.4,0,29.7,13.3,29.7,29.7s-13.3,29.7-29.7,29.7S100.6,59,100.6,42.6
	S113.8,13,130.2,13z"/>
<path class="st-bcg-elixir-3" d="M130.2,72.3c16.4,0,29.7-13.3,29.7-29.7S146.6,13,130.2,13s-29.7,13.3-29.7,29.7S113.8,72.3,130.2,72.3z
	 M130.2,20.7c12.1,0,22,9.8,22,22c0,12.1-9.8,22-22,22c-12.1,0-22-9.8-22-22C108.3,30.5,118.1,20.7,130.2,20.7z"/>
<path class="st-bcg-elixir-4" d="M130.2,64.6c12.1,0,22-9.8,22-22c0-12.1-9.8-22-22-22c-12.1,0-22,9.8-22,22C108.3,54.8,118.1,64.6,130.2,64.6z
	 M130.2,24.5c10,0,18.1,8.1,18.1,18.1s-8.1,18.1-18.1,18.1s-18.1-8.1-18.1-18.1S120.2,24.5,130.2,24.5z"/>
<path class="st-bcg-elixir-5" d="M130.2,60.7c10,0,18.1-8.1,18.1-18.1s-8.1-18.1-18.1-18.1s-18.1,8.1-18.1,18.1S120.2,60.7,130.2,60.7z
	 M130.2,27.5c8.4,0,15.1,6.8,15.1,15.1s-6.8,15.1-15.1,15.1c-8.4,0-15.1-6.8-15.1-15.1S121.9,27.5,130.2,27.5z"/>
<circle class="st-bcg-elixir-6" cx="130.2" cy="42.6" r="15.1"/>
<path class="st-bcg-elixir-2" d="M68.8,254.6l-5.6-2.9c-6.1,7.6-9.8,17.3-9.8,27.9c0,24.7,20,44.7,44.7,44.7s44.7-20,44.7-44.7
	s-20-44.7-44.7-44.7c-10.4,0-20,3.6-27.6,9.6l-2.9,2.9L68.8,254.6z M71.1,266.3l1.7-0.2c4.8-9,14.4-15.2,25.3-15.2
	c15.8,0,28.7,12.8,28.7,28.7s-12.8,28.7-28.7,28.7c-15.8,0-28.7-12.8-28.7-28.7c0-4.4,1-8.6,2.8-12.3L71.1,266.3z"/>
<path class="st-bcg-elixir-3" d="M98.1,308.3c15.8,0,28.7-12.8,28.7-28.7s-12.8-28.7-28.7-28.7c-11,0-20.5,6.1-25.3,15.2l2.1-0.3l1.7-3.4
	l1.7,3.4l3.8,0.5l-2.7,2.7l0.6,3.7l-3.4-1.8l-3.4,1.8l0.6-3.7l-1.7-1.6c-1.8,3.7-2.8,7.9-2.8,12.3C69.4,295.4,82.2,308.3,98.1,308.3
	z M98.1,264.2c8.5,0,15.4,6.9,15.4,15.4S106.6,295,98.1,295s-15.4-6.9-15.4-15.4S89.6,264.2,98.1,264.2z"/>
<path class="st-bcg-elixir-4" d="M98.1,295c8.5,0,15.4-6.9,15.4-15.4s-6.9-15.4-15.4-15.4s-15.4,6.9-15.4,15.4S89.6,295,98.1,295z M98.1,266.9
	c7,0,12.7,5.7,12.7,12.7s-5.7,12.7-12.7,12.7s-12.7-5.7-12.7-12.7S91,266.9,98.1,266.9z"/>
<path class="st-bcg-elixir-5" d="M98.1,292.3c7,0,12.7-5.7,12.7-12.7s-5.7-12.7-12.7-12.7s-12.7,5.7-12.7,12.7S91,292.3,98.1,292.3z M98.1,269
	c5.9,0,10.6,4.7,10.6,10.6s-4.7,10.6-10.6,10.6s-10.6-4.7-10.6-10.6S92.2,269,98.1,269z"/>
<circle class="st-bcg-elixir-7" cx="98.1" cy="279.6" r="10.6"/>
<path class="st-bcg-elixir-2" d="M307.4,167.4c-20.1,0-36.4-16.3-36.4-36.4s16.3-36.4,36.4-36.4c5.6,0,10.9,1.3,15.7,3.5V76.6
	c-5-1.4-10.2-2.2-15.7-2.2c-8.5,0-16.6,1.9-23.9,5.3l1.5,0.2l-2,1.9l0.5,2.7l-2.5-1.3l-2.5,1.3l0.4-2.5c-16.9,9.8-28.2,28.1-28.2,49
	c0,31.3,25.3,56.6,56.6,56.6c5.4,0,10.7-0.8,15.7-2.2v-21.6C318.3,166.1,313,167.4,307.4,167.4z"/>
<path class="st-bcg-elixir-3" d="M271,131c0,20.1,16.3,36.4,36.4,36.4c5.6,0,10.9-1.3,15.7-3.5v-21.2c-3.6,4.8-9.2,7.9-15.7,7.9
	c-10.8,0-19.5-8.7-19.5-19.5s8.7-19.5,19.5-19.5c6.4,0,12.1,3.1,15.7,7.9V98.2c-4.7-2.3-10.1-3.5-15.7-3.5
	C287.3,94.6,271,110.9,271,131z"/>
<path class="st-bcg-elixir-4" d="M307.4,111.5c-10.8,0-19.5,8.7-19.5,19.5s8.7,19.5,19.5,19.5c6.4,0,12.1-3.1,15.7-7.9v-8
	c-1.6,7.2-8,12.5-15.7,12.5c-8.9,0-16.1-7.2-16.1-16.1s7.2-16.1,16.1-16.1c7.7,0,14,5.3,15.7,12.5v-8
	C319.5,114.6,313.8,111.5,307.4,111.5z"/>
<path class="st-bcg-elixir-5" d="M307.4,114.9c-8.9,0-16.1,7.2-16.1,16.1s7.2,16.1,16.1,16.1c7.7,0,14-5.3,15.7-12.5v-7.2
	C321.4,120.3,315,114.9,307.4,114.9z M307.4,144.5c-7.4,0-13.4-6-13.4-13.4s6-13.4,13.4-13.4s13.4,6,13.4,13.4
	C320.8,138.5,314.8,144.5,307.4,144.5z"/>
<circle class="st-bcg-elixir-1" cx="307.4" cy="131" r="13.4"/>
<path class="st-bcg-elixir-2" d="M3.1,107.5c14.7,0,26.6,11.9,26.6,26.6s-11.9,26.6-26.6,26.6c-1.1,0-2.1-0.1-3.1-0.2v14.8
	c1,0.1,2.1,0.1,3.1,0.1c22.8,0,41.3-18.5,41.3-41.3S25.9,92.8,3.1,92.8c-1,0-2.1,0.1-3.1,0.1v14.8C1,107.6,2.1,107.5,3.1,107.5z"/>
<path class="st-bcg-elixir-3" d="M29.7,134.1c0-14.7-11.9-26.6-26.6-26.6c-1.1,0-2.1,0.1-3.1,0.2v12.5c1-0.2,2-0.3,3.1-0.3
	c7.9,0,14.2,6.4,14.2,14.2c0,7.9-6.4,14.2-14.2,14.2C2,148.3,1,148.2,0,148v12.5c1,0.1,2.1,0.2,3.1,0.2
	C17.8,160.6,29.7,148.8,29.7,134.1z"/>
<path class="st-bcg-elixir-4" d="M17.4,134.1c0-7.9-6.4-14.2-14.2-14.2C2,119.8,1,120,0,120.2v2.6c1-0.3,2-0.4,3.1-0.4c6.5,0,11.7,5.3,11.7,11.7
	s-5.3,11.7-11.7,11.7c-1.1,0-2.1-0.2-3.1-0.4v2.6c1,0.2,2,0.3,3.1,0.3C11,148.3,17.4,142,17.4,134.1z"/>
<path class="st-bcg-elixir-5" d="M14.9,134.1c0-6.5-5.3-11.7-11.7-11.7c-1.1,0-2.1,0.2-3.1,0.4v2c1-0.3,2-0.5,3.1-0.5c5.4,0,9.8,4.4,9.8,9.8
	s-4.4,9.8-9.8,9.8c-1.1,0-2.1-0.2-3.1-0.5v2c1,0.3,2,0.4,3.1,0.4C9.6,145.8,14.9,140.6,14.9,134.1z"/>
<path class="st-bcg-elixir-8" d="M12.9,134.1c0-5.4-4.4-9.8-9.8-9.8c-1.1,0-2.1,0.2-3.1,0.5v18.6c1,0.3,2,0.5,3.1,0.5
	C8.5,143.9,12.9,139.5,12.9,134.1z"/>
<polygon class="st-bcg-elixir-1" points="281,83.3 283.5,84.6 283,81.8 285,79.9 283.5,79.7 282.2,79.5 281,77 279.8,79.5 277,79.9 279,81.8 
	279,82.1 278.5,84.6 "/>
<polygon class="st-bcg-elixir-0" points="249.7,74.3 254.3,71.8 258.9,74.3 258,69.1 261.7,65.5 256.6,64.8 254.3,60.1 252,64.8 246.8,65.5 
	250.6,69.1 "/>
<polygon class="st-bcg-elixir-0" points="282.7,444.8 287.6,449.5 286.4,456.1 292.4,453 298.4,456.1 297.2,449.5 302.1,444.8 295.4,443.8 
	292.4,437.7 289.4,443.8 "/>
<polygon class="st-bcg-elixir-1" points="55.7,254.6 62.2,251.2 63.2,251.7 68.8,254.6 67.5,247.4 70.5,244.5 72.8,242.2 65.5,241.1 62.2,234.5 
	59,241.1 51.6,242.2 56.9,247.4 "/>
<polygon class="st-bcg-elixir-1" points="295.1,200.7 293.9,198.2 292.7,200.7 290,201 292,203 291.5,205.7 293.9,204.4 296.4,205.7 295.9,203 
	297.9,201 "/>
<polygon class="st-bcg-elixir-1" points="270.6,202.2 267.3,208.8 260.1,209.8 265.3,214.9 264.1,222.1 270.6,218.7 277,222.1 275.8,214.9 
	281,209.8 273.8,208.8 "/>
<polygon class="st-bcg-elixir-1" points="91.5,354.6 90.1,351.7 88.7,354.6 85.5,355 87.8,357.3 87.3,360.4 90.1,358.9 93,360.4 92.4,357.3 
	94.7,355 "/>
<polygon class="st-bcg-elixir-1" points="198.2,21.3 199.7,20.5 201.2,21.3 200.9,19.6 202.2,18.4 200.5,18.2 199.7,16.6 199,18.2 197.3,18.4 
	198.5,19.6 "/>
<polygon class="st-bcg-elixir-1" points="318.2,429.7 317.2,427.7 316.2,429.7 314,430 315.6,431.5 315.3,433.7 317.2,432.7 319.2,433.7 
	318.8,431.5 320.4,430 "/>
<polygon class="st-bcg-elixir-1" points="280.5,400.4 279.7,402.1 277.8,402.4 279.2,403.7 278.8,405.6 280.5,404.7 282.2,405.6 281.9,403.7 
	283.3,402.4 281.4,402.1 "/>
<polygon class="st-bcg-elixir-0" points="23,293.3 21.3,289.9 19.7,293.3 15.9,293.8 18.6,296.5 18,300.2 21.3,298.5 24.7,300.2 24.1,296.5 
	26.8,293.8 "/>
<polygon class="st-bcg-elixir-0" points="73.2,272.7 76.5,270.9 79.9,272.7 79.2,269 82,266.3 78.2,265.8 76.5,262.4 74.8,265.8 72.8,266.1 
	71.1,266.3 72.1,267.3 73.8,269 "/>
<path class="st-bcg-elixir-2" d="M266.4,731.4c-33.9,0-61.3-27.4-61.3-61.3s27.4-61.3,61.3-61.3c25.6,0,47.5,15.6,56.7,37.9v-53.4
	c-15.8-11.7-35.4-18.6-56.7-18.6c-52.7,0-95.4,42.7-95.4,95.4c0,9,1.2,17.6,3.5,25.9l3-0.4l2.9-5.9l2.9,5.9l6.5,1l-4.7,4.6l1.1,6.5
	l-5.9-3.1l-2.5,1.3c14.2,35,48.4,59.7,88.5,59.7c21.2,0,40.8-6.9,56.7-18.6v-53.4C313.9,715.7,292,731.4,266.4,731.4z"/>
<path class="st-bcg-elixir-3" d="M266.4,608.8c-33.9,0-61.3,27.4-61.3,61.3s27.4,61.3,61.3,61.3c25.6,0,47.5-15.6,56.7-37.9v-15.2
	c-4,27.7-27.8,49-56.7,49c-31.6,0-57.3-25.6-57.3-57.3s25.6-57.3,57.3-57.3c28.8,0,52.7,21.3,56.7,49v-15.2
	C313.9,624.4,292,608.8,266.4,608.8z"/>
<path class="st-bcg-elixir-4" d="M266.4,612.8c-31.6,0-57.3,25.6-57.3,57.3s25.6,57.3,57.3,57.3c28.8,0,52.7-21.3,56.7-49V662
	C319.1,634.1,295.2,612.8,266.4,612.8z M266.4,717.3c-26.1,0-47.2-21.1-47.2-47.2s21.1-47.2,47.2-47.2s47.2,21.1,47.2,47.2
	S292.5,717.3,266.4,717.3z"/>
<path class="st-bcg-elixir-5" d="M266.4,622.9c-26.1,0-47.2,21.1-47.2,47.2s21.1,47.2,47.2,47.2s47.2-21.1,47.2-47.2S292.5,622.9,266.4,622.9z
	 M266.4,709.5c-21.8,0-39.4-17.7-39.4-39.4s17.7-39.4,39.4-39.4s39.4,17.7,39.4,39.4S288.2,709.5,266.4,709.5z"/>
<circle class="st-bcg-elixir-7" cx="266.4" cy="670.1" r="39.4"/>
<polygon class="st-bcg-elixir-1" points="304.5,494.8 304,493.7 303.4,494.8 302.2,495 303.1,495.9 302.9,497.1 304,496.5 305.1,497.1 
	304.8,495.9 305.7,495 "/>
<path class="st-bcg-elixir-2" d="M259.4,2048.9c-44.6,0-80.7,36.1-80.7,80.7s36.1,80.7,80.7,80.7c25.9,0,48.9-12.2,63.7-31.1V2080
	C308.3,2061.1,285.3,2048.9,259.4,2048.9z M259.4,2181.5c-28.6,0-51.9-23.2-51.9-51.9s23.2-51.9,51.9-51.9s51.9,23.2,51.9,51.9
	S288,2181.5,259.4,2181.5z"/>
<path class="st-bcg-elixir-3" d="M259.4,2077.7c-28.6,0-51.9,23.2-51.9,51.9s23.2,51.9,51.9,51.9s51.9-23.2,51.9-51.9S288,2077.7,259.4,2077.7z
	 M259.4,2157.4c-15.4,0-27.8-12.5-27.8-27.8s12.5-27.8,27.8-27.8s27.8,12.5,27.8,27.8S274.8,2157.4,259.4,2157.4z"/>
<path class="st-bcg-elixir-4" d="M259.4,2101.8c-15.4,0-27.8,12.5-27.8,27.8s12.5,27.8,27.8,27.8s27.8-12.5,27.8-27.8S274.8,2101.8,259.4,2101.8
	z M259.4,2152.6c-12.7,0-22.9-10.3-22.9-22.9s10.3-22.9,22.9-22.9c12.6,0,22.9,10.3,22.9,22.9S272.1,2152.6,259.4,2152.6z"/>
<path class="st-bcg-elixir-5" d="M259.4,2106.7c-12.7,0-22.9,10.3-22.9,22.9s10.3,22.9,22.9,22.9c12.6,0,22.9-10.3,22.9-22.9
	S272.1,2106.7,259.4,2106.7z M259.4,2148.8c-10.6,0-19.2-8.6-19.2-19.2s8.6-19.2,19.2-19.2c10.6,0,19.2,8.6,19.2,19.2
	S270,2148.8,259.4,2148.8z"/>
<circle class="st-bcg-elixir-7" cx="259.4" cy="2129.6" r="19.2"/>
<polygon class="st-bcg-elixir-1" points="251.4,1641.6 237.5,1648.9 251.7,1655.5 254.3,1671 265,1659.5 280.6,1661.8 273,1648.1 280,1634 
	264.6,1637 253.4,1626 "/>
<polygon class="st-bcg-elixir-0" points="182.4,2068.8 178.2,2060.4 174,2068.8 164.7,2070.2 171.5,2076.7 169.9,2086 178.2,2081.6 186.6,2086 
	185,2076.7 191.7,2070.2 "/>
<polygon class="st-bcg-elixir-0" points="280.5,1599.9 278.4,1595.5 276.2,1599.9 271.4,1600.6 274.9,1604 274.1,1608.7 278.4,1606.5 
	282.7,1608.7 281.9,1604 285.3,1600.6 "/>
<polygon class="st-bcg-elixir-0" points="291.5,2458.9 289.4,2454.5 287.2,2458.9 282.4,2459.6 285.9,2463 285.1,2467.7 289.4,2465.5 
	293.7,2467.7 292.9,2463 296.3,2459.6 "/>
<path class="st-bcg-elixir-2" d="M278.6,2972.7c-66.3,0-120.1-53.8-120.1-120.1s53.8-120.1,120.1-120.1c15.7,0,30.7,3,44.5,8.5v-70
	c-14.3-3.5-29.2-5.4-44.5-5.4c-99.3,0-180.5,77.5-186.5,175.3l3.3,6.7l9.3,1.4l-6.8,6.6l1.6,9.3l-7.7-4
	c4.4,99.3,86.3,178.5,186.7,178.5c15.3,0,30.2-1.9,44.5-5.3v-70C309.3,2969.6,294.3,2972.7,278.6,2972.7z"/>
<path class="st-bcg-elixir-3" d="M158.5,2852.6c0,66.3,53.8,120.1,120.1,120.1c15.7,0,30.7-3,44.5-8.5v-65c-11.6,11.1-27.2,17.9-44.5,17.9
	c-35.6,0-64.4-28.8-64.4-64.4c0-35.6,28.8-64.4,64.4-64.4c17.3,0,32.9,6.8,44.5,17.9v-65c-13.8-5.5-28.8-8.5-44.5-8.5
	C212.2,2732.5,158.5,2786.3,158.5,2852.6z"/>
<path class="st-bcg-elixir-4" d="M214.1,2852.6c0,35.6,28.8,64.4,64.4,64.4c17.3,0,32.9-6.8,44.5-17.9v-17.6c-9.5,14.5-25.9,24.2-44.5,24.2
	c-29.3,0-53.1-23.8-53.1-53.1s23.8-53.1,53.1-53.1c18.7,0,35,9.6,44.5,24.2v-17.6c-11.6-11.1-27.2-17.9-44.5-17.9
	C243,2788.2,214.1,2817,214.1,2852.6z"/>
<path class="st-bcg-elixir-5" d="M278.6,2799.5c-29.3,0-53.1,23.8-53.1,53.1s23.8,53.1,53.1,53.1c18.7,0,35-9.6,44.5-24.2v-57.9
	C313.6,2809.1,297.2,2799.5,278.6,2799.5z M278.6,2897c-24.5,0-44.4-19.9-44.4-44.4s19.9-44.4,44.4-44.4s44.4,19.9,44.4,44.4
	C322.9,2877.1,303,2897,278.6,2897z"/>
<circle class="st-bcg-elixir-9" cx="278.6" cy="2852.6" r="44.4"/>
<path class="st-bcg-elixir-2" d="M322.3,1315.2L322.3,1315.2c-4.6,0.7-9.5,1.1-14.4,1.1c-51.6,0-93.5-41.9-93.5-93.5s41.9-93.5,93.5-93.5
	c5.2,0,10.2,0.4,15.2,1.2V1078c-5-0.5-10.1-0.8-15.2-0.8c-80.4,0-145.5,65.1-145.5,145.5s65.1,145.5,145.5,145.5
	c5.1,0,10.2-0.3,15.2-0.8v-52.2L322.3,1315.2z"/>
<path class="st-bcg-elixir-3" d="M214.4,1222.7c0,51.6,41.9,93.5,93.5,93.5c4.9,0,9.7-0.4,14.4-1.1l0.8-0.8v-17.6c-4.9,1-10,1.5-15.2,1.5
	c-41.7,0-75.6-33.8-75.6-75.6s33.8-75.6,75.6-75.6c5.2,0,10.3,0.5,15.2,1.5v-18.2c-4.9-0.8-10-1.2-15.2-1.2
	C256.3,1129.2,214.4,1171.1,214.4,1222.7z"/>
<path class="st-bcg-elixir-4" d="M232.3,1222.7c0,41.7,33.8,75.6,75.6,75.6c5.2,0,10.3-0.5,15.2-1.5v-13.6c-4.9,1.2-9.9,1.9-15.2,1.9
	c-34.4,0-62.3-27.9-62.3-62.3s27.9-62.3,62.3-62.3c5.2,0,10.3,0.7,15.2,1.9v-13.6c-4.9-1-10-1.5-15.2-1.5
	C266.2,1147.1,232.3,1181,232.3,1222.7z"/>
<path class="st-bcg-elixir-5" d="M245.6,1222.7c0,34.4,27.9,62.3,62.3,62.3c5.2,0,10.3-0.7,15.2-1.9v-9.6c-4.8,1.4-9.9,2.2-15.2,2.2
	c-29.3,0-53-23.7-53-53s23.7-53,53-53c5.3,0,10.4,0.8,15.2,2.2v-9.6c-4.9-1.2-9.9-1.9-15.2-1.9
	C273.5,1160.4,245.6,1188.3,245.6,1222.7z"/>
<path class="st-bcg-elixir-10" d="M271.8,1186.6c-9.2,9.2-15,22-15,36.1s5.7,26.9,15,36.1c9.2,9.2,22,15,36.1,15c5.3,0,10.4-0.8,15.2-2.3V1174
	c-4.8-1.5-9.9-2.3-15.2-2.3C293.8,1171.7,281.1,1177.4,271.8,1186.6z"/>
<path class="st-bcg-elixir-11" d="M254.9,1222.7c0,29.3,23.7,53,53,53c5.3,0,10.4-0.8,15.2-2.2v-2.1c-4.8,1.5-9.9,2.3-15.2,2.3
	c-14.1,0-26.9-5.7-36.1-15c-9.2-9.2-15-22-15-36.1s5.7-26.9,15-36.1c9.2-9.2,22-15,36.1-15c5.3,0,10.4,0.8,15.2,2.3v-2.1
	c-4.8-1.4-9.9-2.2-15.2-2.2C278.6,1169.7,254.9,1193.4,254.9,1222.7z"/>
<polygon class="st-bcg-elixir-1" points="186.3,707.6 185.2,701.1 189.9,696.4 183.4,695.5 180.5,689.6 177.5,695.5 174.5,695.9 171,696.4 
	175.7,701.1 174.6,707.6 177.9,705.8 180.5,704.5 "/>
<polygon class="st-bcg-elixir-0" points="286.1,765.5 282.7,772.3 275.1,773.4 280.6,778.8 279.3,786.3 286.1,782.7 292.8,786.3 291.5,778.8 
	297,773.4 289.4,772.3 "/>
<polygon class="st-bcg-elixir-0" points="277.9,800.2 277.3,804 280.8,802.2 284.2,804 283.6,800.2 286.4,797.4 282.5,796.9 280.8,793.3 
	279,796.9 275.1,797.4 "/>
<polygon class="st-bcg-elixir-1" points="307.9,786.8 306.7,784.4 305.6,786.8 303,787.1 304.9,789 304.4,791.6 306.7,790.4 309.1,791.6 
	308.6,789 310.5,787.1 "/>
<polygon class="st-bcg-elixir-1" points="53,2925 37.6,2928 26.4,2917 24.4,2932.6 10.5,2939.9 24.7,2946.5 27.3,2962 38,2950.5 53.6,2952.8 
	46,2939.1 "/>
<polygon class="st-bcg-elixir-0" points="15.2,2509.6 23.6,2514 22,2504.7 28.7,2498.2 19.4,2496.8 15.2,2488.4 11,2496.8 1.7,2498.2 
	8.5,2504.7 6.9,2514 "/>
<polygon class="st-bcg-elixir-0" points="98,2855.7 104.7,2849.2 95.4,2847.8 92.1,2841.1 91.2,2839.4 87,2847.8 77.7,2849.2 84.5,2855.7 
	82.9,2865 91.2,2860.6 91.9,2861 99.6,2865 "/>
<polygon class="st-bcg-elixir-0" points="257.2,1213 255.1,1217.4 250.3,1218.1 253.8,1221.5 252.9,1226.2 257.2,1224 261.5,1226.2 
	260.7,1221.5 264.2,1218.1 259.4,1217.4 "/>
<polygon class="st-bcg-elixir-1" points="322.3,1315.2 323.1,1315.3 323.1,1314.4 322.3,1315.1 "/>
<polygon class="st-bcg-elixir-1" points="119.7,1254 115.5,1245.5 111.3,1254 102,1255.3 108.7,1261.9 107.1,1271.2 115.5,1266.8 123.8,1271.2 
	122.2,1261.9 129,1255.3 "/>
<polygon class="st-bcg-elixir-1" points="308.9,2496.7 304.6,2487.9 300.2,2496.7 290.5,2498.1 297.6,2504.9 295.9,2514.5 304.6,2510 
	313.2,2514.5 311.6,2504.9 318.6,2498.1 "/>
</svg>
