<svg version="1.1"
	 xmlns="http://www.w3.org/2000/svg" xmlns:xlink="http://www.w3.org/1999/xlink" xmlns:a="http://ns.adobe.com/AdobeSVGViewerExtensions/3.0/"
	 x="0px" y="0px" width="1474.8px" height="3413.8px" viewBox="0 0 1474.8 3413.8"
	 style="enable-background:new 0 0 1474.8 3413.8;" xml:space="preserve">
<style type="text/css">
	.st-bcg-elixir-web-0{fill:#151A21;}
	.st-bcg-elixir-web-1{fill:#1B212B;}
	.st-bcg-elixir-web-2{fill:#202633;}
	.st-bcg-elixir-web-3{fill:#242A3A;}
	.st-bcg-elixir-web-4{fill:#1D6466;}
	.st-bcg-elixir-web-5{fill:#E9B258;}
	.st-bcg-elixir-web-6{fill:#9FA4B7;}
	.st-bcg-elixir-web-7{fill:#DA6346;}
	.st-bcg-elixir-web-8{fill:#73CEDD;}
	.st-bcg-elixir-web-9{fill:#B92745;}
	.st-bcg-elixir-web-10{fill:#24737A;}
	.st-bcg-elixir-web-11{fill:#50AE98;}
</style>
<defs>
</defs>
<g>
	<path class="st-bcg-elixir-web-0" d="M1129,674c80.1,0,145-64.9,145-145s-64.9-145-145-145c-80.1,0-145,64.9-145,145S1048.9,674,1129,674z
		 M1083.8,655.8l-2.9-1.5l-2.9,1.5l0.6-3.2l-2.3-2.3l3.2-0.5l1.4-2.9l1.4,2.9l3.2,0.5l-2.3,2.3L1083.8,655.8z M1129,428.2
		c55.7,0,100.9,45.2,100.9,100.9s-45.2,100.9-100.9,100.9s-100.9-45.2-100.9-100.9S1073.3,428.2,1129,428.2z"/>
	<path class="st-bcg-elixir-web-1" d="M1129,629.9c55.7,0,100.9-45.2,100.9-100.9s-45.2-100.9-100.9-100.9s-100.9,45.2-100.9,100.9
		S1073.3,629.9,1129,629.9z M1129,454.4c41.2,0,74.7,33.4,74.7,74.7s-33.4,74.7-74.7,74.7c-41.2,0-74.7-33.4-74.7-74.7
		S1087.7,454.4,1129,454.4z"/>
	<path class="st-bcg-elixir-web-2" d="M1129,603.7c41.2,0,74.7-33.4,74.7-74.7s-33.4-74.7-74.7-74.7c-41.2,0-74.7,33.4-74.7,74.7
		S1087.7,603.7,1129,603.7z M1129,467.5c34,0,61.6,27.6,61.6,61.6s-27.6,61.6-61.6,61.6c-34,0-61.6-27.6-61.6-61.6
		S1095,467.5,1129,467.5z"/>
	<path class="st-bcg-elixir-web-3" d="M1129,590.6c34,0,61.6-27.6,61.6-61.6s-27.6-61.6-61.6-61.6c-34,0-61.6,27.6-61.6,61.6S1095,590.6,1129,590.6z
		 M1129,477.6c28.4,0,51.4,23,51.4,51.4c0,28.4-23,51.4-51.4,51.4c-28.4,0-51.4-23-51.4-51.4C1077.6,500.6,1100.6,477.6,1129,477.6z
		"/>
	<circle class="st-bcg-elixir-web-4" cx="1129" cy="529" r="51.4"/>
	<path class="st-bcg-elixir-web-0" d="M435.8,226.1c-44.6,0-80.7,36.1-80.7,80.7c0,44.6,36.1,80.7,80.7,80.7c44.6,0,80.7-36.1,80.7-80.7
		C516.5,262.2,480.4,226.1,435.8,226.1z M435.8,358.7c-28.6,0-51.9-23.2-51.9-51.9c0-28.6,23.2-51.9,51.9-51.9
		c28.6,0,51.9,23.2,51.9,51.9C487.7,335.4,464.4,358.7,435.8,358.7z"/>
	<path class="st-bcg-elixir-web-1" d="M435.8,254.9c-28.6,0-51.9,23.2-51.9,51.9c0,28.6,23.2,51.9,51.9,51.9c28.6,0,51.9-23.2,51.9-51.9
		C487.7,278.2,464.4,254.9,435.8,254.9z M435.8,334.6c-15.4,0-27.8-12.5-27.8-27.8c0-15.4,12.5-27.8,27.8-27.8
		c15.4,0,27.8,12.5,27.8,27.8C463.6,322.2,451.2,334.6,435.8,334.6z"/>
	<path class="st-bcg-elixir-web-2" d="M435.8,279c-15.4,0-27.8,12.5-27.8,27.8c0,15.4,12.5,27.8,27.8,27.8c15.4,0,27.8-12.5,27.8-27.8
		C463.6,291.4,451.2,279,435.8,279z M435.8,329.7c-12.7,0-22.9-10.3-22.9-22.9c0-12.7,10.3-22.9,22.9-22.9
		c12.7,0,22.9,10.3,22.9,22.9C458.7,319.5,448.5,329.7,435.8,329.7z"/>
	<path class="st-bcg-elixir-web-3" d="M435.8,283.9c-12.7,0-22.9,10.3-22.9,22.9c0,12.7,10.3,22.9,22.9,22.9c12.7,0,22.9-10.3,22.9-22.9
		C458.7,294.1,448.5,283.9,435.8,283.9z M435.8,326c-10.6,0-19.2-8.6-19.2-19.2c0-10.6,8.6-19.2,19.2-19.2
		c10.6,0,19.2,8.6,19.2,19.2C455,317.4,446.4,326,435.8,326z"/>
	<circle class="st-bcg-elixir-web-5" cx="435.8" cy="306.8" r="19.2"/>
	<path class="st-bcg-elixir-web-0" d="M1411.8,371.8c-68.3,0-123.7-55.4-123.7-123.7c0-68.3,55.4-123.7,123.7-123.7c23,0,44.5,6.3,63,17.2V66.1
		c-19.7-6.8-40.9-10.6-63-10.6c-29,0-56.6,6.4-81.2,17.9l5,0.7l-6.8,6.6l1.6,9.3l-8.3-4.4l-8.3,4.4l1.5-8.6
		c-57.3,33.3-95.9,95.4-95.9,166.5c0,106.3,86.2,192.5,192.5,192.5c22.1,0,43.3-3.7,63-10.6v-75.5
		C1456.3,365.5,1434.8,371.8,1411.8,371.8z"/>
	<path class="st-bcg-elixir-web-1" d="M1288.1,248.1c0,68.3,55.4,123.7,123.7,123.7c23,0,44.5-6.3,63-17.2V269c-8.8,26.4-33.6,45.5-63,45.5
		c-36.6,0-66.4-29.7-66.4-66.4c0-36.6,29.7-66.4,66.4-66.4c29.4,0,54.2,19.1,63,45.5v-85.6c-18.4-10.9-40-17.2-63-17.2
		C1343.5,124.4,1288.1,179.8,1288.1,248.1z"/>
	<path class="st-bcg-elixir-web-2" d="M1411.8,181.7c-36.6,0-66.4,29.7-66.4,66.4c0,36.6,29.7,66.4,66.4,66.4c29.4,0,54.2-19.1,63-45.5v-41.8
		C1466,200.8,1441.1,181.7,1411.8,181.7z M1411.8,302.8c-30.2,0-54.7-24.5-54.7-54.7c0-30.2,24.5-54.7,54.7-54.7
		c30.2,0,54.7,24.5,54.7,54.7C1466.5,278.3,1442,302.8,1411.8,302.8z"/>
	<path class="st-bcg-elixir-web-3" d="M1411.8,193.4c-30.2,0-54.7,24.5-54.7,54.7c0,30.2,24.5,54.7,54.7,54.7c30.2,0,54.7-24.5,54.7-54.7
		C1466.5,217.9,1442,193.4,1411.8,193.4z M1411.8,293.8c-25.2,0-45.7-20.5-45.7-45.7c0-25.2,20.5-45.7,45.7-45.7
		c25.2,0,45.7,20.5,45.7,45.7C1457.5,273.3,1437,293.8,1411.8,293.8z"/>
	<circle class="st-bcg-elixir-web-6" cx="1411.8" cy="248.1" r="45.7"/>
	<path class="st-bcg-elixir-web-0" d="M90.3,109.3c49.9,0,90.3,40.4,90.3,90.3c0,49.9-40.4,90.3-90.3,90.3S0,249.5,0,199.6v107.7
		c24.4,20.5,55.9,32.9,90.3,32.9c77.6,0,140.6-62.9,140.6-140.6c0-77.6-62.9-140.6-140.6-140.6C55.9,59.1,24.4,71.4,0,91.9v107.7
		C0,149.7,40.4,109.3,90.3,109.3z M143.6,74.9l2.1-4.3l2.1,4.3l4.8,0.7l-3.5,3.4l0.8,4.8l-4.3-2.3l-4.3,2.3l0.8-4.8l-3.5-3.4
		L143.6,74.9z"/>
	<path class="st-bcg-elixir-web-1" d="M90.3,289.9c49.9,0,90.3-40.4,90.3-90.3c0-49.9-40.4-90.3-90.3-90.3S0,149.7,0,199.6
		C0,249.5,40.4,289.9,90.3,289.9z M90.3,151.2c26.8,0,48.5,21.7,48.5,48.5c0,26.8-21.7,48.5-48.5,48.5s-48.5-21.7-48.5-48.5
		C41.9,172.9,63.5,151.2,90.3,151.2z"/>
	<path class="st-bcg-elixir-web-2" d="M90.3,248.1c26.8,0,48.5-21.7,48.5-48.5c0-26.8-21.7-48.5-48.5-48.5s-48.5,21.7-48.5,48.5
		C41.9,226.4,63.5,248.1,90.3,248.1z M90.3,159.7c22.1,0,39.9,17.9,39.9,39.9c0,22.1-17.9,39.9-39.9,39.9s-39.9-17.9-39.9-39.9
		C50.4,177.6,68.2,159.7,90.3,159.7z"/>
	<path class="st-bcg-elixir-web-3" d="M90.3,239.6c22.1,0,39.9-17.9,39.9-39.9c0-22.1-17.9-39.9-39.9-39.9s-39.9,17.9-39.9,39.9
		C50.4,221.7,68.2,239.6,90.3,239.6z M90.3,166.3c18.4,0,33.4,14.9,33.4,33.4S108.7,233,90.3,233S56.9,218,56.9,199.6
		S71.9,166.3,90.3,166.3z"/>
	<circle class="st-bcg-elixir-web-7" cx="90.3" cy="199.6" r="33.4"/>
	<polygon class="st-bcg-elixir-web-8" points="1066.7,300.1 1075,295.7 1083.4,300.1 1081.8,290.8 1088.5,284.2 1079.2,282.9 1075,274.4 
		1070.9,282.9 1061.5,284.2 1068.3,290.8 	"/>
	<polygon class="st-bcg-elixir-web-6" points="1322,85.7 1330.4,90.1 1328.8,80.8 1335.5,74.2 1330.6,73.5 1326.2,72.9 1322,64.4 1317.9,72.9 
		1308.5,74.2 1315.3,80.8 1315.2,81.5 1313.7,90.1 	"/>
	<polygon class="st-bcg-elixir-web-8" points="1215.6,55.1 1231.2,46.9 1246.9,55.1 1243.9,37.7 1256.5,25.3 1239,22.8 1231.2,6.9 1223.4,22.8 
		1205.9,25.3 1218.5,37.7 	"/>
	<polygon class="st-bcg-elixir-web-8" points="1146,850.8 1138.2,834.9 1130.4,850.8 1112.9,853.3 1125.5,865.7 1122.6,883.1 1138.2,874.9 
		1153.9,883.1 1150.9,865.7 1163.5,853.3 	"/>
	<polygon class="st-bcg-elixir-web-8" points="1064.2,322.1 1068.5,319.8 1072.8,322.1 1072,317.3 1075.4,313.9 1070.6,313.2 1068.5,308.8 
		1066.3,313.2 1061.5,313.9 1065,317.3 	"/>
	<polygon class="st-bcg-elixir-web-6" points="189.5,25.7 197.8,21.3 206.2,25.7 204.6,16.4 211.3,9.8 202,8.5 197.8,0 193.7,8.5 184.3,9.8 
		191.1,16.4 	"/>
	<polygon class="st-bcg-elixir-web-6" points="860.3,653.1 866,650.1 871.7,653.1 870.6,646.8 875.2,642.3 868.8,641.4 866,635.6 863.1,641.4 
		856.8,642.3 861.4,646.8 	"/>
	<polygon class="st-bcg-elixir-web-6" points="976.4,591.9 979.3,590.4 982.2,591.9 981.7,588.7 984,586.4 980.8,585.9 979.3,583 977.9,585.9 
		974.7,586.4 977,588.7 	"/>
	<polygon class="st-bcg-elixir-web-6" points="1082.4,649.9 1081,646.9 1079.5,649.9 1076.3,650.3 1078.6,652.6 1078.1,655.8 1081,654.3 
		1083.8,655.8 1083.3,652.6 1085.6,650.3 	"/>
	<polygon class="st-bcg-elixir-web-6" points="1097.7,306.7 1100.6,305.1 1103.5,306.7 1103,303.4 1105.3,301.2 1102.1,300.7 1100.6,297.8 
		1099.2,300.7 1096,301.2 1098.3,303.4 	"/>
	<polygon class="st-bcg-elixir-web-6" points="1367.8,445.8 1365.3,440.6 1362.7,445.8 1356.9,446.6 1361.1,450.7 1360.1,456.4 1365.3,453.7 
		1370.4,456.4 1369.4,450.7 1373.6,446.6 	"/>
	<polygon class="st-bcg-elixir-web-6" points="1205.8,813.8 1203.3,808.6 1200.7,813.8 1194.9,814.6 1199.1,818.7 1198.1,824.4 1203.3,821.7 
		1208.4,824.4 1207.4,818.7 1211.6,814.6 	"/>
	<polygon class="st-bcg-elixir-web-6" points="522.8,276.8 521.3,273.9 519.9,276.8 516.6,277.3 519,279.6 518.4,282.8 521.3,281.3 524.2,282.8 
		523.6,279.6 526,277.3 	"/>
	<polygon class="st-bcg-elixir-web-8" points="141.4,83.8 145.7,81.5 150,83.8 149.2,79 152.6,75.6 147.8,74.9 145.7,70.6 143.6,74.9 138.8,75.6 
		142.2,79 	"/>
	<polygon class="st-bcg-elixir-web-8" points="212.6,44 211.8,48.7 216.1,46.5 220.3,48.7 219.5,44 223,40.6 218.2,39.9 216.1,35.5 213.9,39.9 
		209.1,40.6 	"/>
	<path class="st-bcg-elixir-web-0" d="M28.3,1345.4c68.3,0,123.7,55.4,123.7,123.7s-55.4,123.7-123.7,123.7c-9.7,0-19.2-1.1-28.3-3.3v70
		c9.2,1.4,18.7,2.1,28.3,2.1c106.3,0,192.5-86.2,192.5-192.5s-86.2-192.5-192.5-192.5c-9.6,0-19.1,0.7-28.3,2.1v70
		C9.1,1346.5,18.6,1345.4,28.3,1345.4z M86.5,1627.7l-4.3-2.3l-4.3,2.3l0.8-4.8l-3.5-3.4l4.8-0.7l2.1-4.3l2.1,4.3l4.8,0.7l-3.5,3.4
		L86.5,1627.7z"/>
	<path class="st-bcg-elixir-web-1" d="M152,1469.1c0-68.3-55.4-123.7-123.7-123.7c-9.7,0-19.2,1.1-28.3,3.3v24.5c9-2.6,18.5-4.1,28.3-4.1
		c55.2,0,100,44.8,100,100s-44.8,100-100,100c-9.8,0-19.3-1.4-28.3-4.1v24.5c9.1,2.1,18.6,3.3,28.3,3.3
		C96.6,1592.8,152,1537.4,152,1469.1z"/>
	<path class="st-bcg-elixir-web-2" d="M128.3,1469.1c0-55.2-44.8-100-100-100c-9.8,0-19.3,1.4-28.3,4.1v18.5c8.8-3.2,18.4-5,28.3-5
		c45.5,0,82.4,36.9,82.4,82.4s-36.9,82.4-82.4,82.4c-10,0-19.5-1.8-28.3-5v18.5c9,2.6,18.5,4.1,28.3,4.1
		C83.6,1569.1,128.3,1524.3,128.3,1469.1z"/>
	<path class="st-bcg-elixir-web-3" d="M110.8,1469.1c0-45.5-36.9-82.4-82.4-82.4c-10,0-19.5,1.8-28.3,5v14.7c8.6-3.9,18.2-6.1,28.3-6.1
		c38,0,68.9,30.8,68.9,68.9s-30.8,68.9-68.9,68.9c-10.1,0-19.7-2.2-28.3-6.1v14.7c8.8,3.2,18.4,5,28.3,5
		C73.9,1551.5,110.8,1514.6,110.8,1469.1z"/>
	<path class="st-bcg-elixir-web-9" d="M97.2,1469.1c0-38-30.8-68.9-68.9-68.9c-10.1,0-19.7,2.2-28.3,6.1v125.5c8.6,3.9,18.2,6.1,28.3,6.1
		C66.4,1537.9,97.2,1507.1,97.2,1469.1z"/>
	<path class="st-bcg-elixir-web-0" d="M1288.2,896.2c-138.1,0-250,111.9-250,250s111.9,250,250,250c74.2,0,140.8-32.3,186.6-83.7V979.9
		C1429,928.5,1362.4,896.2,1288.2,896.2z M1343.9,953.9l1.4-2.9l1.4,2.9l3.2,0.5l-2.3,2.3l0.6,3.2l-2.9-1.5l-2.9,1.5l0.6-3.2
		l-2.3-2.3L1343.9,953.9z M1288.2,1306.8c-88.7,0-160.6-71.9-160.6-160.6s71.9-160.6,160.6-160.6s160.6,71.9,160.6,160.6
		S1376.9,1306.8,1288.2,1306.8z"/>
	<path class="st-bcg-elixir-web-1" d="M1288.2,985.6c-88.7,0-160.6,71.9-160.6,160.6s71.9,160.6,160.6,160.6s160.6-71.9,160.6-160.6
		S1376.9,985.6,1288.2,985.6z M1288.2,1296.2c-82.8,0-150-67.2-150-150s67.2-150,150-150s150,67.2,150,150
		S1371,1296.2,1288.2,1296.2z"/>
	<path class="st-bcg-elixir-web-2" d="M1288.2,996.2c-82.8,0-150,67.2-150,150s67.2,150,150,150s150-67.2,150-150S1371,996.2,1288.2,996.2z
		 M1288.2,1269.9c-68.3,0-123.7-55.4-123.7-123.7s55.4-123.7,123.7-123.7s123.7,55.4,123.7,123.7S1356.5,1269.9,1288.2,1269.9z"/>
	<path class="st-bcg-elixir-web-3" d="M1288.2,1022.5c-68.3,0-123.7,55.4-123.7,123.7s55.4,123.7,123.7,123.7s123.7-55.4,123.7-123.7
		S1356.5,1022.5,1288.2,1022.5z M1288.2,1249.5c-57,0-103.3-46.2-103.3-103.3s46.2-103.3,103.3-103.3s103.3,46.2,103.3,103.3
		S1345.2,1249.5,1288.2,1249.5z"/>
	<circle class="st-bcg-elixir-web-5" cx="1288.2" cy="1146.2" r="103.3"/>
	<polygon class="st-bcg-elixir-web-8" points="1354.2,1920.9 1350,1912.4 1345.9,1920.9 1336.5,1922.2 1343.3,1928.8 1341.7,1938.1 1350,1933.7 
		1358.4,1938.1 1356.8,1928.8 1363.5,1922.2 	"/>
	<polygon class="st-bcg-elixir-web-8" points="554.9,1053.5 550.7,1045 546.6,1053.5 537.2,1054.8 544,1061.4 542.4,1070.7 550.7,1066.3 
		559.1,1070.7 557.5,1061.4 564.2,1054.8 	"/>
	<polygon class="st-bcg-elixir-web-8" points="772,2491.6 767.8,2483.1 763.6,2491.6 754.3,2493 761.1,2499.5 759.5,2508.8 767.8,2504.4 
		776.2,2508.8 774.6,2499.5 781.3,2493 	"/>
	<polygon class="st-bcg-elixir-web-8" points="252,2234.4 247.9,2242.9 238.5,2244.2 245.3,2250.8 243.7,2260.1 252,2255.7 260.4,2260.1 
		258.8,2250.8 265.5,2244.2 256.2,2242.9 	"/>
	<polygon class="st-bcg-elixir-web-8" points="256.2,2726.9 252,2718.4 247.9,2726.9 238.5,2728.2 245.3,2734.8 243.7,2744.1 252,2739.7 
		260.4,2744.1 258.8,2734.8 265.5,2728.2 	"/>
	<polygon class="st-bcg-elixir-web-8" points="1167.6,1562.2 1165.5,1557.8 1163.3,1562.2 1158.5,1562.9 1162,1566.3 1161.2,1571.1 1165.5,1568.8 
		1169.8,1571.1 1169,1566.3 1172.4,1562.9 	"/>
	<polygon class="st-bcg-elixir-web-6" points="1199.1,1549.7 1197.6,1546.8 1196.2,1549.7 1193,1550.2 1195.3,1552.4 1194.7,1555.7 1197.6,1554.1 
		1200.5,1555.7 1200,1552.4 1202.3,1550.2 	"/>
	<polygon class="st-bcg-elixir-web-6" points="1400.4,1435.9 1399,1432.9 1397.5,1435.9 1394.3,1436.3 1396.6,1438.6 1396.1,1441.8 1399,1440.3 
		1401.8,1441.8 1401.3,1438.6 1403.6,1436.3 	"/>
	<path class="st-bcg-elixir-web-6" d="M1368.6,2928.3l-3.2-0.5l-1.4-2.9l-1.4,2.9l-3.2,0.5l2.3,2.3l-0.3,1.6c2-0.9,4-1.7,5.9-2.5L1368.6,2928.3z"/>
	<polygon class="st-bcg-elixir-web-8" points="147,983.8 139.2,967.9 131.4,983.8 113.9,986.3 126.5,998.7 123.6,1016.1 139.2,1007.9 154.9,1016.1 
		151.9,998.7 164.5,986.3 	"/>
	<polygon class="st-bcg-elixir-web-6" points="67.8,1107.4 65,1101.6 62.1,1107.4 55.8,1108.3 60.4,1112.8 59.3,1119.1 65,1116.1 70.7,1119.1 
		69.6,1112.8 74.2,1108.3 	"/>
	<polygon class="st-bcg-elixir-web-6" points="252.2,2043 248.1,2051.5 238.7,2052.8 245.5,2059.4 243.9,2068.7 252.2,2064.3 260.6,2068.7 
		259,2059.4 265.7,2052.8 256.4,2051.5 	"/>
	<polygon class="st-bcg-elixir-web-6" points="164.4,1653.5 160.2,1645 156.1,1653.5 146.7,1654.8 153.5,1661.4 151.9,1670.7 160.2,1666.3 
		168.6,1670.7 167,1661.4 173.7,1654.8 	"/>
	<polygon class="st-bcg-elixir-web-6" points="1426.4,1730.5 1422.2,1722 1418.1,1730.5 1408.7,1731.8 1415.5,1738.4 1413.9,1747.7 1422.2,1743.3 
		1430.6,1747.7 1429,1738.4 1435.7,1731.8 	"/>
	<polygon class="st-bcg-elixir-web-6" points="208.8,2758.2 215.8,2744.1 200.4,2747.1 189.2,2736.1 187.3,2751.7 173.3,2758.9 187.6,2765.6 
		190.1,2781.1 200.9,2769.6 216.4,2771.9 	"/>
	<polygon class="st-bcg-elixir-web-6" points="1177.8,3217.1 1162.4,3220.1 1151.2,3209.1 1149.3,3224.7 1135.3,3231.9 1149.6,3238.6 1152.1,3254.1 
		1162.9,3242.6 1178.4,3244.9 1170.8,3231.2 	"/>
	<polygon class="st-bcg-elixir-web-8" points="300.4,2005.9 298.2,2001.6 296.1,2005.9 291.3,2006.6 294.8,2010 293.9,2014.8 298.2,2012.5 
		302.5,2014.8 301.7,2010 305.2,2006.6 	"/>
	<polygon class="st-bcg-elixir-web-8" points="745.1,1731.6 738.2,1745.7 722.7,1747.9 733.9,1758.8 731.3,1774.3 745.1,1767 759,1774.3 
		756.3,1758.8 767.5,1747.9 752,1745.7 	"/>
	<polygon class="st-bcg-elixir-web-6" points="745.4,1414.1 738.5,1428.1 723,1430.4 734.2,1441.3 731.6,1456.7 745.4,1449.4 759.3,1456.7 
		756.6,1441.3 767.8,1430.4 752.3,1428.1 	"/>
	<polygon class="st-bcg-elixir-web-8" points="825.3,1352.6 821.7,1345.4 818.2,1352.6 810.2,1353.8 816,1359.4 814.6,1367.3 821.7,1363.6 
		828.8,1367.3 827.5,1359.4 833.2,1353.8 	"/>
	<polygon class="st-bcg-elixir-web-8" points="897.9,1944.8 902.2,1942.5 906.5,1944.8 905.7,1940 909.2,1936.6 904.4,1935.9 902.2,1931.6 
		900.1,1935.9 895.3,1936.6 898.8,1940 	"/>
	<polygon class="st-bcg-elixir-web-8" points="84.4,1618.9 82.2,1614.5 80.1,1618.9 75.3,1619.6 78.8,1623 77.9,1627.7 82.2,1625.5 86.5,1627.7 
		85.7,1623 89.2,1619.6 	"/>
	<polygon class="st-bcg-elixir-web-8" points="1283.4,1980.9 1281.2,1976.5 1279.1,1980.9 1274.3,1981.6 1277.8,1985 1276.9,1989.7 1281.2,1987.5 
		1285.5,1989.7 1284.7,1985 1288.2,1981.6 	"/>
	<path class="st-bcg-elixir-web-0" d="M1342.1,2364c50.3-129.4-13.7-275.1-143.1-325.4s-275.1,13.7-325.4,143.1c-50.3,129.4,13.7,275.1,143.1,325.4
		C1146.1,2557.4,1291.8,2493.4,1342.1,2364z M1036.2,2457.1c-101.8-39.6-152.2-154.2-112.6-255.9s154.2-152.2,255.9-112.6
		c101.8,39.6,152.2,154.2,112.6,255.9C1252.5,2446.3,1137.9,2496.7,1036.2,2457.1z"/>
	<path class="st-bcg-elixir-web-1" d="M1292.1,2344.5c39.6-101.8-10.8-216.4-112.6-255.9c-101.8-39.6-216.4,10.8-255.9,112.6s10.8,216.4,112.6,255.9
		C1137.9,2496.7,1252.5,2446.3,1292.1,2344.5z M1048.3,2425.8c-80.9-31.5-122.7-120-97.3-201.6c-2.7-2.3-5-4.5-6.9-6.7
		c-1.1-1.3-2.1-2.6-3-3.9c-0.9-1.4-1.7-3-2.2-4.8c-0.3-1-0.4-2-0.4-3.1c0-1.2,0.2-2.5,0.7-3.7c0.3-0.9,0.8-1.8,1.4-2.5
		c0.6-0.8,1.2-1.4,1.9-1.9c1.4-1.1,2.8-1.7,4.1-2.1c3-0.9,6.2-1.3,9.5-1.4c2.4-0.1,4.9,0,7.5,0.3c38.8-71.7,125.8-104.9,203.8-74.6
		c80.3,31.2,122,118.6,97.9,199.7c2.8,2.3,5.4,4.8,7.9,7.3c2.7,2.8,5.1,5.8,7,9c0.4,0.6,0.7,1.4,1,2.3c0.3,0.9,0.4,2,0.3,3.2
		c-0.1,0.8-0.3,1.6-0.5,2.3c-0.6,1.5-1.5,2.7-2.4,3.4c-0.9,0.8-1.8,1.3-2.6,1.6c-1.6,0.7-2.9,0.9-4.3,1.2c-0.9,0.1-1.9,0.2-2.9,0.2
		c-1.3,0.1-2.8,0-4.3,0c-2.1-0.1-4.3-0.3-6.8-0.5c-1.4-0.1-2.9-0.3-4.4-0.5C1215,2422.2,1127.1,2456.5,1048.3,2425.8z"/>
	<path class="st-bcg-elixir-web-2" d="M987.5,2198.5c2.1,0.5,4.2,1,6.2,1.6c34-53.5,102-77.3,163.3-53.4c63.2,24.6,97.5,91.5,83,155.8
		c5.4,3.1,11.4,6.7,17.2,10.8c2.8,2,5.5,4.1,8.1,6.2c24.2-81.1-17.6-168.5-97.9-199.7c-77.9-30.3-165,2.9-203.8,74.6
		c0.9,0.1,1.8,0.2,2.7,0.3C973.4,2195.4,980.7,2196.9,987.5,2198.5z"/>
	<path class="st-bcg-elixir-web-2" d="M1246.4,2348.1c-5.5-0.9-11.8-2.2-18.8-3.7c-1.4-0.3-2.8-0.6-4.3-1c-33.5,55-102.5,79.7-164.6,55.6
		c-63.6-24.8-97.9-92.3-82.7-156.9c-0.7-0.4-1.4-0.9-2.1-1.3c-9-5.7-16.3-10.9-21.9-15.6c-0.4-0.3-0.7-0.6-1.1-0.9
		c-25.4,81.6,16.4,170.1,97.3,201.6c78.7,30.6,166.7-3.6,204.9-76.7C1251.1,2348.8,1248.8,2348.5,1246.4,2348.1z"/>
	<path class="st-bcg-elixir-web-2" d="M1230.7,2329.6c3.5,0.8,6.9,1.5,10,2.1c7.7,1.5,14.2,2.5,19.2,3c-1.5-1.4-3-2.8-4.7-4.2
		c-5.3-4.4-11.5-8.6-17.4-12.2c-0.7-0.4-1.3-0.8-2-1.2c-0.5,1.6-1.1,3.1-1.7,4.7C1233,2324.5,1231.9,2327.1,1230.7,2329.6z"/>
	<path class="st-bcg-elixir-web-2" d="M986.2,2213.4c-4.6-1.1-9.6-2.2-14.3-3c-5.6-0.9-11-1.5-15.2-1.4c0.1,0.1,0.3,0.3,0.4,0.4
		c1.3,1.3,2.9,2.8,4.9,4.4c2.6,2.1,5.7,4.5,9.3,7c2.8,2,5.9,4.1,9.3,6.2c0.4-1.1,0.8-2.2,1.2-3.3
		C983.1,2220.2,984.6,2216.8,986.2,2213.4z"/>
	<path class="st-bcg-elixir-web-3" d="M1156.9,2146.7c-61.3-23.8-129.3,0-163.3,53.4c10.6,2.8,18.5,5.7,18.6,5.7l2.7,1l-8.2,12.4l0.7,0.3
		c-0.1,0-0.3-0.1-0.6-0.2c0,0-0.1,0-0.1,0l-0.1,0.2l0-0.2c-0.5-0.2-1.2-0.4-2.1-0.7c-2-0.6-4.9-1.5-8.3-2.5c-3-0.9-6.4-1.8-10-2.7
		c-1.6,3.3-3.1,6.8-4.5,10.3c-0.4,1.1-0.8,2.2-1.2,3.3c2.4,1.6,5,3.2,7.7,4.8c3.7,2.2,7.6,4.6,11.8,7c0.7-2.4,1.6-4.7,2.5-7
		c22.6-58.2,88.2-87,146.4-64.4c58.2,22.6,87,88.2,64.4,146.4c-1.4,3.6-2.9,7-4.6,10.3c8,2.2,15.4,4,22.1,5.5
		c1.2-2.5,2.3-5.1,3.3-7.7c0.6-1.6,1.2-3.1,1.7-4.7c-10.8-6.4-18.6-10.2-19.1-10.4l0,0l3.3-14.7c0.1,0.1,5.8,2.7,12.7,6.3
		c2.3,1.2,4.7,2.5,7.4,4C1254.4,2238.2,1220.2,2171.3,1156.9,2146.7z"/>
	<path class="st-bcg-elixir-web-3" d="M1066.9,2378.2c-50.9-19.8-79.3-72.4-70.5-124.2c-7.5-4.2-14.2-8.2-20.3-12c-15.2,64.6,19.1,132.2,82.7,156.9
		c62.1,24.2,131.1-0.6,164.6-55.6c-7-1.6-14.6-3.6-22.8-5.8C1171.4,2379.4,1116.5,2397.5,1066.9,2378.2z"/>
	<path class="st-bcg-elixir-web-10" d="M1148.9,2167.5c-58.2-22.6-123.7,6.2-146.4,64.4c-0.9,2.3-1.7,4.7-2.5,7c25.4,14.5,60.1,31.5,102.2,48.7
		c6,2.4,11.8,4.8,17.6,7c25.9,10.1,49.3,18,69.7,24.2c6.7,2,13,3.8,19,5.4c1.7-3.3,3.2-6.8,4.6-10.3
		C1235.9,2255.6,1207,2190.1,1148.9,2167.5z"/>
	<path class="st-bcg-elixir-web-10" d="M1066.9,2378.2c49.6,19.3,104.6,1.2,133.7-40.7c-24.1-6.7-53.2-16.2-86.2-29c-5.8-2.3-11.8-4.6-17.8-7.1
		c-26.9-11-50.8-21.9-71.4-32.2c-10.5-5.3-20.1-10.4-28.8-15.2C987.6,2305.8,1016,2358.4,1066.9,2378.2z"/>
	<path class="st-bcg-elixir-web-8" d="M974,2240.7c0.7,0.4,1.4,0.9,2.1,1.3c6.1,3.8,12.8,7.8,20.3,12c8.7,4.9,18.3,10,28.8,15.2
		c20.6,10.3,44.5,21.2,71.4,32.2c6.1,2.5,12,4.8,17.8,7.1c33,12.8,62.1,22.3,86.2,29c8.2,2.3,15.8,4.2,22.8,5.8
		c1.4,0.3,2.9,0.7,4.3,1c7,1.6,13.2,2.8,18.8,3.7c2.4,0.4,4.7,0.7,6.8,1c1.5,0.2,3,0.4,4.4,0.5c2.5,0.3,4.8,0.4,6.8,0.5
		c1.5,0.1,3,0.1,4.3,0c1,0,1.9-0.1,2.9-0.2c1.4-0.2,2.7-0.5,4.3-1.2c0.8-0.4,1.6-0.8,2.6-1.6c0.9-0.8,1.8-1.9,2.4-3.4
		c0.3-0.7,0.5-1.5,0.5-2.3c0.1-1.2,0-2.3-0.3-3.2c-0.3-0.9-0.6-1.7-1-2.3c-1.9-3.2-4.3-6.2-7-9c-2.4-2.6-5.1-5-7.9-7.3
		c-2.6-2.2-5.4-4.3-8.1-6.2c-5.8-4.1-11.8-7.8-17.2-10.8c-2.6-1.5-5.1-2.8-7.4-4c-6.9-3.6-12.6-6.2-12.7-6.3l-3.3,14.7l0,0
		c0.5,0.2,8.2,3.9,19.1,10.4c0.7,0.4,1.3,0.8,2,1.2c5.9,3.6,12.1,7.8,17.4,12.2c1.7,1.4,3.2,2.8,4.7,4.2c-5-0.5-11.5-1.5-19.2-3
		c-3.1-0.6-6.5-1.3-10-2.1c-6.7-1.5-14.1-3.3-22.1-5.5c-6-1.6-12.4-3.4-19-5.4c-20.4-6.1-43.8-14.1-69.7-24.2
		c-5.7-2.2-11.6-4.6-17.6-7c-42.1-17.2-76.8-34.2-102.2-48.7c-4.2-2.4-8.2-4.7-11.8-7c-2.7-1.7-5.3-3.3-7.7-4.8
		c-3.4-2.2-6.5-4.3-9.3-6.2c-3.6-2.5-6.7-4.9-9.3-7c-1.9-1.6-3.6-3.1-4.9-4.4c-0.1-0.1-0.3-0.3-0.4-0.4c4.2-0.1,9.6,0.4,15.2,1.4
		c4.8,0.8,9.7,1.9,14.3,3c3.6,0.9,7,1.8,10,2.7c3.4,1,6.3,1.9,8.3,2.5c0.9,0.3,1.6,0.5,2.1,0.7l0,0.2l0.1-0.2c0,0,0.1,0,0.1,0
		c0.3,0.1,0.5,0.2,0.6,0.2l-0.7-0.3l8.2-12.4l-2.7-1c-0.1,0-8-2.9-18.6-5.7c-2-0.5-4.1-1.1-6.2-1.6c-6.8-1.6-14.1-3.2-21.1-3.9
		c-0.9-0.1-1.8-0.2-2.7-0.3c-2.6-0.2-5-0.3-7.5-0.3c-3.3,0.1-6.4,0.4-9.5,1.4c-1.4,0.4-2.8,1-4.1,2.1c-0.7,0.5-1.3,1.2-1.9,1.9
		c-0.6,0.8-1.1,1.6-1.4,2.5c-0.5,1.2-0.7,2.5-0.7,3.7c0,1.1,0.2,2.2,0.4,3.1c0.5,1.8,1.3,3.4,2.2,4.8c0.9,1.3,1.9,2.6,3,3.9
		c1.9,2.1,4.2,4.3,6.9,6.7c0.4,0.3,0.7,0.6,1.1,0.9C957.7,2229.8,965,2235,974,2240.7z"/>
	<polygon class="st-bcg-elixir-web-8" points="1166.4,2616.9 1164.2,2612.6 1162.1,2616.9 1157.3,2617.6 1160.8,2621 1159.9,2625.8 1164.2,2623.5 
		1168.5,2625.8 1167.7,2621 1171.2,2617.6 	"/>
	<polygon class="st-bcg-elixir-web-8" points="1212,2695.7 1220.4,2700.1 1218.8,2690.8 1225.5,2684.2 1216.2,2682.9 1212,2674.4 1207.9,2682.9 
		1198.5,2684.2 1205.3,2690.8 1203.7,2700.1 	"/>
	<polygon class="st-bcg-elixir-web-8" points="1114.2,3157.9 1110,3149.4 1105.9,3157.9 1096.5,3159.2 1103.3,3165.8 1101.7,3175.1 1110,3170.7 
		1118.4,3175.1 1116.8,3165.8 1123.5,3159.2 	"/>
	<polygon class="st-bcg-elixir-web-8" points="223.2,3309.9 219,3301.4 214.9,3309.9 205.5,3311.2 212.3,3317.8 210.7,3327.1 219,3322.7 
		227.4,3327.1 225.8,3317.8 232.5,3311.2 	"/>
	<path class="st-bcg-elixir-web-0" d="M45.8,2997.6c-16,0-31.4,2.6-45.8,7.4v47.7c13.7-7,29.3-11,45.8-11c55.7,0,100.9,45.2,100.9,100.9
		s-45.2,100.9-100.9,100.9c-16.5,0-32-4-45.8-11v47.7c14.4,4.8,29.8,7.4,45.8,7.4c80.1,0,145-64.9,145-145
		C190.8,3062.6,125.8,2997.6,45.8,2997.6z"/>
	<path class="st-bcg-elixir-web-1" d="M45.8,3068c41.2,0,74.7,33.4,74.7,74.7s-33.4,74.7-74.7,74.7c-17.3,0-33.1-5.9-45.8-15.7v30.9
		c13.7,7,29.3,11,45.8,11c55.7,0,100.9-45.2,100.9-100.9s-45.2-100.9-100.9-100.9c-16.5,0-32,4-45.8,11v30.9
		C12.6,3073.8,28.5,3068,45.8,3068z"/>
	<path class="st-bcg-elixir-web-2" d="M120.4,3142.6c0-41.2-33.4-74.7-74.7-74.7c-17.3,0-33.1,5.9-45.8,15.7v17.8c11.3-12.5,27.6-20.4,45.8-20.4
		c34,0,61.6,27.6,61.6,61.6c0,34-27.6,61.6-61.6,61.6c-18.2,0-34.5-7.9-45.8-20.4v17.8c12.6,9.8,28.5,15.7,45.8,15.7
		C87,3217.3,120.4,3183.9,120.4,3142.6z"/>
	<path class="st-bcg-elixir-web-3" d="M45.8,3204.2c34,0,61.6-27.6,61.6-61.6c0-34-27.6-61.6-61.6-61.6c-18.2,0-34.5,7.9-45.8,20.4v17.7
		c8.5-16.6,25.8-28,45.8-28c28.4,0,51.4,23,51.4,51.4s-23,51.4-51.4,51.4c-20,0-37.2-11.4-45.8-28v17.7
		C11.3,3196.3,27.6,3204.2,45.8,3204.2z"/>
	<path class="st-bcg-elixir-web-7" d="M45.8,3194.1c28.4,0,51.4-23,51.4-51.4s-23-51.4-51.4-51.4c-20,0-37.2,11.4-45.8,28v46.9
		C8.5,3182.7,25.8,3194.1,45.8,3194.1z"/>
	<path class="st-bcg-elixir-web-0" d="M16.5,2560.5c0,44.6,36.1,80.7,80.7,80.7s80.7-36.1,80.7-80.7c0-44.6-36.1-80.7-80.7-80.7
		S16.5,2516,16.5,2560.5z M149.1,2560.5c0,28.6-23.2,51.9-51.9,51.9c-28.6,0-51.9-23.2-51.9-51.9c0-28.6,23.2-51.9,51.9-51.9
		C125.8,2508.7,149.1,2531.9,149.1,2560.5z"/>
	<path class="st-bcg-elixir-web-1" d="M45.3,2560.5c0,28.6,23.2,51.9,51.9,51.9c28.6,0,51.9-23.2,51.9-51.9c0-28.6-23.2-51.9-51.9-51.9
		C68.5,2508.7,45.3,2531.9,45.3,2560.5z M125,2560.5c0,15.4-12.5,27.8-27.8,27.8s-27.8-12.5-27.8-27.8c0-15.4,12.5-27.8,27.8-27.8
		S125,2545.2,125,2560.5z"/>
	<path class="st-bcg-elixir-web-2" d="M69.4,2560.5c0,15.4,12.5,27.8,27.8,27.8s27.8-12.5,27.8-27.8c0-15.4-12.5-27.8-27.8-27.8
		S69.4,2545.2,69.4,2560.5z M120.1,2560.5c0,12.7-10.3,22.9-22.9,22.9s-22.9-10.3-22.9-22.9c0-12.7,10.3-22.9,22.9-22.9
		S120.1,2547.9,120.1,2560.5z"/>
	<path class="st-bcg-elixir-web-3" d="M74.2,2560.5c0,12.7,10.3,22.9,22.9,22.9s22.9-10.3,22.9-22.9c0-12.7-10.3-22.9-22.9-22.9
		S74.2,2547.9,74.2,2560.5z M116.4,2560.5c0,10.6-8.6,19.2-19.2,19.2s-19.2-8.6-19.2-19.2c0-10.6,8.6-19.2,19.2-19.2
		S116.4,2550,116.4,2560.5z"/>
	<circle class="st-bcg-elixir-web-5" cx="97.2" cy="2560.5" r="19.2"/>
	<path class="st-bcg-elixir-web-0" d="M1463.1,3323.9c-89.3,0-161.6-72.4-161.6-161.6s72.4-161.6,161.6-161.6c3.9,0,7.8,0.1,11.7,0.4V2911
		c-3.9-0.2-7.8-0.3-11.7-0.3c-33.9,0-66.3,6.7-95.8,18.9c-2,0.8-4,1.7-5.9,2.5c-88.2,39.1-149.8,127.4-149.8,230.1
		c0,138.9,112.6,251.5,251.5,251.5c3.9,0,7.8-0.1,11.7-0.3v-90.1C1470.9,3323.7,1467,3323.9,1463.1,3323.9z"/>
	<path class="st-bcg-elixir-web-1" d="M1301.5,3162.3c0,89.3,72.4,161.6,161.6,161.6c3.9,0,7.8-0.1,11.7-0.4v-75.3c-3.8,0.5-7.7,0.8-11.7,0.8
		c-47.9,0-86.7-38.8-86.7-86.7s38.8-86.7,86.7-86.7c4,0,7.9,0.3,11.7,0.8v-75.3c-3.9-0.3-7.8-0.4-11.7-0.4
		C1373.8,3000.7,1301.5,3073,1301.5,3162.3z"/>
	<path class="st-bcg-elixir-web-2" d="M1376.4,3162.3c0,47.9,38.8,86.7,86.7,86.7c4,0,7.9-0.3,11.7-0.8v-15.4c-3.8,0.6-7.7,1-11.7,1
		c-39.5,0-71.5-32-71.5-71.5s32-71.5,71.5-71.5c4,0,7.9,0.3,11.7,1v-15.4c-3.8-0.5-7.7-0.8-11.7-0.8
		C1415.2,3075.6,1376.4,3114.4,1376.4,3162.3z"/>
	<path class="st-bcg-elixir-web-3" d="M1391.6,3162.3c0,39.5,32,71.5,71.5,71.5c4,0,7.9-0.3,11.7-1v-12c-3.8,0.7-7.7,1.1-11.7,1.1
		c-33,0-59.7-26.7-59.7-59.7c0-33,26.7-59.7,59.7-59.7c4,0,7.9,0.4,11.7,1.1v-12c-3.8-0.6-7.7-1-11.7-1
		C1423.6,3090.8,1391.6,3122.8,1391.6,3162.3z"/>
	<path class="st-bcg-elixir-web-11" d="M1403.4,3162.3c0,33,26.7,59.7,59.7,59.7c4,0,7.9-0.4,11.7-1.1v-117.1c-3.8-0.7-7.7-1.1-11.7-1.1
		C1430.1,3102.6,1403.4,3129.3,1403.4,3162.3z"/>
	<polygon class="st-bcg-elixir-web-6" points="1342.4,959.9 1345.3,958.4 1348.2,959.9 1347.7,956.7 1350,954.4 1346.8,953.9 1345.3,951 
		1343.9,953.9 1340.7,954.4 1343,956.7 	"/>
</g>
</svg>
