<svg version="1.1"
	 xmlns="http://www.w3.org/2000/svg" xmlns:xlink="http://www.w3.org/1999/xlink" xmlns:a="http://ns.adobe.com/AdobeSVGViewerExtensions/3.0/"
	 x="0px" y="0px" width="461.4px" height="455.9px" viewBox="0 0 461.4 455.9" style="enable-background:new 0 0 461.4 455.9;"
	 xml:space="preserve">
<style type="text/css">
	.st-phoenix-0{fill:#151A21;}
	.st-phoenix-1{fill:#1B212B;}
	.st-phoenix-2{fill:#202633;}
	.st-phoenix-3{fill:#242A3A;}
	.st-phoenix-4{fill:#E9B258;}
	.st-phoenix-5{fill:#2B304B;}
	.st-phoenix-6{fill:#DA6346;}
	.st-phoenix-7{fill:#24737A;stroke:#2B304B;stroke-width:2;stroke-linecap:round;stroke-linejoin:round;stroke-miterlimit:10;}
	.st-phoenix-8{fill:#1D6466;}
	.st-phoenix-9{fill:#B92745;stroke:#2B304B;stroke-width:2;stroke-linecap:round;stroke-linejoin:round;stroke-miterlimit:10;}
	.st-phoenix-10{fill:none;stroke:#2B304B;stroke-width:2;stroke-linecap:round;stroke-linejoin:round;stroke-miterlimit:10;}
	.st-phoenix-11{fill:#9FA4B7;}
	.st-phoenix-12{fill:#73CEDD;}
</style>
<defs>
</defs>
<g>
	<circle class="st-phoenix-0" cx="228" cy="228" r="228"/>
	<circle class="st-phoenix-1" cx="228" cy="228" r="179.3"/>
	<circle class="st-phoenix-2" cx="228" cy="228" r="148.9"/>
	<circle class="st-phoenix-3" cx="228" cy="228" r="122.7"/>
	<polygon class="st-phoenix-3" points="407.1,68.3 423.2,60.8 445.6,79.8 442.9,87.1 321.1,224.9 261.3,136.1 	"/>
	<g>
		<g>
			<path class="st-phoenix-4" d="M397.1,104.7c-3.8,0-7.9-0.8-12.9-2.6c-2.5-0.9-5.2-1.3-7.8-1.3c-4.1,0-7.4,1.1-9.5,2
				c-0.2,0.1-0.4,0.1-0.6,0.1c-0.6,0-1.1-0.3-1.3-0.9c-0.2-0.5-0.1-1.1,0.3-1.5c3.9-3.8,10.4-8.4,19.3-8.4c3.7,0,7.5,0.8,11.3,2.4
				c7,2.9,11.1,3.5,13.3,3.5c0.2,0,0.5,0,0.7,0c0,0,0,0,0,0c0.7,0,1.2,0.4,1.4,1c0.2,0.6-0.1,1.2-0.6,1.5
				C406,103.4,401.8,104.7,397.1,104.7L397.1,104.7z"/>
			<path class="st-phoenix-5" d="M384.7,93.1c3.3,0,7,0.7,10.9,2.3c7,2.9,11.3,3.6,13.7,3.6c0.3,0,0.5,0,0.7,0c0,0,0,0,0,0
				c0.4,0,0.5,0.5,0.2,0.7c-4.5,2.7-8.6,4-13.2,4c-3.7,0-7.8-0.9-12.6-2.6c-2.9-1-5.6-1.4-8.1-1.4c-4.3,0-7.8,1.2-9.9,2.1
				c-0.1,0-0.1,0-0.2,0c-0.3,0-0.5-0.4-0.3-0.6C369.9,97.5,376.3,93.1,384.7,93.1 M384.7,91.1c-9.2,0-16,4.7-20,8.7
				c-0.7,0.7-0.9,1.7-0.5,2.6c0.4,0.9,1.2,1.5,2.2,1.5c0.3,0,0.7-0.1,1-0.2c2-0.9,5.1-1.9,9-1.9c2.5,0,5,0.4,7.4,1.3
				c5.2,1.8,9.4,2.7,13.2,2.7c4.8,0,9.4-1.4,14.3-4.3c0.9-0.5,1.4-1.6,1.1-2.7c-0.3-1-1.2-1.7-2.3-1.7c0,0-0.1,0-0.1,0
				c-0.2,0-0.4,0-0.6,0c-2.1,0-6.1-0.6-12.9-3.4C392.5,92,388.5,91.1,384.7,91.1L384.7,91.1z"/>
		</g>
		<g>
			<path class="st-phoenix-4" d="M400.2,116c-0.5,0-1-0.3-1.2-0.8c-0.2-0.5-0.2-1,0.1-1.4c1.5-2,5.6-6.7,12.1-7.3c1.7-0.2,3.3-0.2,4.7-0.3
				c3.8-0.2,6.6-0.4,8.7-1.5c0.2-0.1,0.4-0.2,0.6-0.2c0.5,0,1,0.3,1.2,0.8c0.2,0.5,0.2,1-0.2,1.4c-2,2.4-6.1,6.6-11.2,7.5
				c-2.3,0.4-4,0.4-5.2,0.4c-0.5,0-0.9,0-1.3,0c-0.4,0-0.8,0-1.2,0c-2,0-3.9,0.2-6.6,1.2C400.6,115.9,400.4,116,400.2,116z"/>
			<path class="st-phoenix-5" d="M425.2,105.5c0.3,0,0.5,0.3,0.3,0.6c-2,2.4-5.9,6.3-10.6,7.1c-2.1,0.4-3.6,0.4-5,0.4c-0.9,0-1.7,0-2.5,0
				c-2,0-3.9,0.2-7,1.3c0,0-0.1,0-0.1,0c-0.3,0-0.5-0.3-0.3-0.6c1.5-2,5.3-6.4,11.3-6.9c6.4-0.6,10.7-0.3,13.8-1.9
				C425.1,105.6,425.2,105.5,425.2,105.5 M425.2,103.5c-0.4,0-0.8,0.1-1.1,0.3c-1.9,1-4.6,1.1-8.3,1.4c-1.4,0.1-3,0.2-4.7,0.3
				c-6.9,0.6-11.2,5.6-12.8,7.7c-0.5,0.7-0.6,1.7-0.2,2.5c0.4,0.8,1.2,1.3,2.1,1.3c0.3,0,0.6-0.1,0.8-0.2c2.9-1.1,4.7-1.2,6.3-1.2
				c0.4,0,0.8,0,1.2,0c0.4,0,0.9,0,1.4,0c1.3,0,3-0.1,5.4-0.5c5.4-0.9,9.7-5.3,11.8-7.8c0.6-0.7,0.7-1.7,0.3-2.5
				C427,104.1,426.1,103.5,425.2,103.5L425.2,103.5z"/>
		</g>
		<g>
			<path class="st-phoenix-4" d="M338.2,132.5c-0.5,0-1-0.3-1.2-0.8c-0.2-0.5-0.2-1,0.1-1.4c1.5-2,5.6-6.7,12.1-7.3c1.7-0.2,3.3-0.2,4.7-0.3
				c3.8-0.2,6.6-0.4,8.7-1.5c0.2-0.1,0.4-0.2,0.6-0.2c0.5,0,1,0.3,1.2,0.8c0.2,0.5,0.2,1-0.2,1.4c-2,2.4-6.1,6.6-11.2,7.5
				c-2.3,0.4-4,0.4-5.2,0.4c-0.5,0-0.9,0-1.3,0c-0.4,0-0.8,0-1.2,0c-2,0-3.9,0.2-6.6,1.2C338.5,132.5,338.4,132.5,338.2,132.5z"/>
			<path class="st-phoenix-5" d="M363.2,122.1c0.3,0,0.5,0.3,0.3,0.6c-2,2.4-5.9,6.3-10.6,7.1c-2.1,0.4-3.6,0.4-5,0.4c-0.9,0-1.7,0-2.5,0
				c-2,0-3.9,0.2-7,1.3c0,0-0.1,0-0.1,0c-0.3,0-0.5-0.3-0.3-0.6c1.5-2,5.3-6.4,11.3-6.9c6.4-0.6,10.7-0.3,13.8-1.9
				C363.1,122.1,363.1,122.1,363.2,122.1 M363.2,120.1c-0.4,0-0.7,0.1-1.1,0.3c-1.9,1-4.6,1.1-8.3,1.4c-1.4,0.1-3,0.2-4.7,0.3
				c-6.9,0.6-11.2,5.6-12.8,7.7c-0.5,0.7-0.6,1.7-0.2,2.5c0.4,0.8,1.2,1.3,2.1,1.3c0.3,0,0.6-0.1,0.8-0.2c2.9-1.1,4.7-1.2,6.3-1.2
				c0.4,0,0.8,0,1.2,0c0.4,0,0.9,0,1.4,0c1.3,0,3-0.1,5.4-0.5c5.4-0.9,9.7-5.3,11.8-7.8c0.6-0.7,0.7-1.7,0.3-2.5
				C365,120.7,364.1,120.1,363.2,120.1L363.2,120.1z"/>
		</g>
		<g>
			<path class="st-phoenix-4" d="M295.3,172.4c-0.5,0-1-0.3-1.2-0.8c-0.2-0.5-0.2-1,0.1-1.4c1.5-2,5.6-6.7,12.1-7.3c1.7-0.2,3.3-0.2,4.7-0.3
				c3.8-0.2,6.6-0.4,8.7-1.5c0.2-0.1,0.4-0.2,0.6-0.2c0.5,0,1,0.3,1.2,0.8c0.2,0.5,0.2,1-0.2,1.4c-2,2.4-6.1,6.6-11.2,7.5
				c-2.3,0.4-4,0.4-5.2,0.4c-0.5,0-0.9,0-1.3,0c-0.4,0-0.8,0-1.2,0c-2,0-3.9,0.2-6.6,1.2C295.6,172.4,295.5,172.4,295.3,172.4z"/>
			<path class="st-phoenix-5" d="M320.3,162c0.3,0,0.5,0.3,0.3,0.6c-2,2.4-5.9,6.3-10.6,7.1c-2.1,0.4-3.6,0.4-5,0.4c-0.9,0-1.7,0-2.5,0
				c-2,0-3.9,0.2-7,1.3c0,0-0.1,0-0.1,0c-0.3,0-0.5-0.3-0.3-0.6c1.5-2,5.3-6.4,11.3-6.9c6.4-0.6,10.7-0.3,13.8-1.9
				C320.2,162,320.2,162,320.3,162 M320.3,160C320.3,160,320.3,160,320.3,160c-0.4,0-0.8,0.1-1.1,0.3c-1.9,1-4.6,1.1-8.3,1.4
				c-1.4,0.1-3,0.2-4.7,0.3c-6.9,0.6-11.2,5.6-12.8,7.7c-0.5,0.7-0.6,1.7-0.2,2.5c0.4,0.8,1.2,1.3,2.1,1.3c0.3,0,0.6-0.1,0.8-0.2
				c2.9-1.1,4.7-1.2,6.3-1.2c0.4,0,0.8,0,1.2,0c0.4,0,0.9,0,1.4,0c1.3,0,3-0.1,5.4-0.5c5.4-0.9,9.7-5.3,11.8-7.8
				c0.6-0.7,0.7-1.7,0.3-2.5C322,160.6,321.2,160,320.3,160L320.3,160z"/>
		</g>
		<g>
			<path class="st-phoenix-6" d="M369.8,118.8c-6.6,0-12.1-4.1-14.7-6.5c-0.4-0.4-0.6-1-0.4-1.5c0.2-0.5,0.7-0.9,1.3-0.9c0.1,0,0.3,0,0.4,0.1
				c2,0.6,3.6,0.9,5.1,0.9c2.3,0,4.5-0.7,7.8-1.8c1.1-0.3,2.2-0.7,3.5-1.1c1.7-0.5,3.5-0.8,5.3-0.8c5.6,0,10.6,2.3,12.5,3.3
				c0.5,0.3,0.8,0.9,0.7,1.4c-0.1,0.6-0.6,1-1.2,1.1c-5.7,0.8-7,1.5-8.7,2.4c-1.4,0.7-3.2,1.6-7.7,2.8
				C372.5,118.6,371.2,118.8,369.8,118.8C369.8,118.8,369.8,118.8,369.8,118.8z"/>
			<path class="st-phoenix-5" d="M378.2,108.3c5.3,0,10,2.1,12,3.2c0.3,0.2,0.2,0.6-0.1,0.7c-10.4,1.5-6.6,2.5-16.5,5.2
				c-1.3,0.4-2.5,0.5-3.8,0.5c-6.4,0-11.8-4.2-14.1-6.3c-0.3-0.2-0.1-0.6,0.2-0.6c0,0,0.1,0,0.1,0c2.1,0.7,3.8,1,5.4,1
				c3.3,0,6.1-1.3,11.6-2.9C374.8,108.5,376.5,108.3,378.2,108.3 M378.2,106.3c-2,0-3.9,0.3-5.6,0.8c-1.3,0.4-2.5,0.8-3.6,1.1
				c-3.2,1-5.3,1.7-7.5,1.7c-1.4,0-2.9-0.3-4.8-0.9c-0.2-0.1-0.5-0.1-0.7-0.1c-1,0-1.9,0.6-2.2,1.5c-0.4,0.9-0.1,1.9,0.6,2.6
				c2.8,2.5,8.5,6.8,15.4,6.8c1.5,0,2.9-0.2,4.3-0.6c4.5-1.2,6.4-2.2,7.8-2.9c1.7-0.8,2.9-1.5,8.4-2.3c1-0.2,1.8-0.9,2-2
				c0.2-1-0.3-2-1.2-2.5C388.7,108.4,383.8,106.3,378.2,106.3L378.2,106.3z"/>
		</g>
		<g>
			<path class="st-phoenix-6" d="M332.4,164.1c-3.2,0-6.1-1.4-7.6-2.2c-0.5-0.3-0.7-0.8-0.6-1.4c0.1-0.5,0.6-0.9,1.2-0.9c0,0,0.1,0,0.1,0
				c0.4,0,0.8,0.1,1.2,0.1c2.3,0,3.5-0.7,6.1-2.3c0.6-0.3,1.2-0.7,2-1.2c1.8-1.1,4-1.6,6.5-1.6c2.1,0,3.8,0.4,4.7,0.6
				c0.5,0.1,0.9,0.6,0.9,1.1c0,0.5-0.3,1-0.8,1.2c-3.2,1.2-3.9,1.8-4.8,2.5c-0.8,0.6-1.7,1.4-4.2,2.8
				C335.7,163.7,334.1,164.1,332.4,164.1L332.4,164.1z"/>
			<path class="st-phoenix-5" d="M341.3,155.7c1.9,0,3.6,0.3,4.5,0.6c0.2,0.1,0.2,0.4,0,0.4c-6,2.3-3.6,2.4-9.1,5.4c-1.4,0.8-2.9,1.1-4.3,1.1
				c-3,0-5.7-1.3-7.1-2c-0.2-0.1-0.1-0.4,0.1-0.4c0,0,0,0,0,0c0.5,0,0.9,0.1,1.3,0.1c3.2,0,4.6-1.2,8.6-3.6
				C337.3,156,339.4,155.7,341.3,155.7 M341.3,153.7c-2.7,0-5,0.6-7,1.7c-0.7,0.4-1.4,0.8-2,1.2c-2.5,1.5-3.6,2.1-5.6,2.1
				c-0.3,0-0.7,0-1.1-0.1c-0.1,0-0.1,0-0.2,0c-1,0-1.9,0.7-2.2,1.7c-0.3,1,0.2,2,1.1,2.5c1.5,0.9,4.6,2.3,8.1,2.3
				c1.9,0,3.7-0.4,5.3-1.3c2.6-1.4,3.6-2.2,4.4-2.9c0.9-0.7,1.4-1.2,4.5-2.4c0.9-0.4,1.5-1.2,1.4-2.2c-0.1-1-0.7-1.8-1.7-2
				C345.4,154.1,343.5,153.7,341.3,153.7L341.3,153.7z"/>
		</g>
		<g>
			<path class="st-phoenix-4" d="M419.7,102.7c-0.7,0-1.2-0.5-1.3-1.2c-0.1-0.7,0.3-1.3,1-1.5c2.4-0.7,4.6-1.7,6.7-2.9c5.5-3.1,8-6.4,8.3-7.6
				c0.1-0.3,0.1-0.8-0.1-1.1c-0.2-0.2-0.6-0.3-1.1-0.3c-1.4,0-3.5,0.8-5.6,2.2c-4,2.6-8.3,3.9-13,3.9c-1.5,0-3-0.1-4.6-0.4
				c-3.4-0.5-8.1-2.1-12.9-3.7c-4-1.4-8.2-2.8-11.8-3.6c-1.3-0.3-2.8-0.5-4.2-0.5c-2.3,0-4.8,0.4-7.2,1.2c-0.1,0-0.3,0.1-0.4,0.1
				c-0.6,0-1.2-0.4-1.3-1c-0.2-0.6,0.1-1.2,0.6-1.5c4-2.3,9-3.4,15.2-3.4c2.1,0,4.4,0.1,6.9,0.4c2.6,0.3,5.1,0.4,7.3,0.4
				c8.7,0,12.9-2.1,16.1-4.4c2.1-1.5,3.9-4.4,3.9-6.6c0-0.5-0.1-1.3-0.6-1.6c-0.7-0.5-1.3-0.8-2-0.8c-1.5,0-3.3,1.3-5.3,2.9
				c-1.7,1.3-3.6,2.8-5.8,3.7c-3.8,1.7-7.8,2.6-11.6,2.6c-3.2,0-5.8-0.6-7.4-1.1c-0.6-0.2-1-0.8-0.9-1.5c0.1-0.7,0.7-1.2,1.4-1.2
				c0.2,0,0.3,0,0.4,0c3.3,0,9.7-1.1,15.7-8.1c4.1-4.8,6-10.2,7.9-15.9c2.7-7.9,5.5-16.1,14.9-22.6c5.1-3.5,10.8-5.3,16.7-5.3
				c6.9,0,12.3,2.5,14.2,3.5c0.4,0.2,0.7,0.7,0.7,1.2c0,0.5-0.3,1-0.8,1.2c-4.1,2.1-5.3,4.6-6.2,12.7c-0.3,3.2,0.3,7.4,1,11.9
				c1.1,6.9,2.3,14.8,0.3,21.8c-3.6,13.1-13.2,20.4-20.5,24.2c-5.3,2.8-10.8,3.7-14.4,4.1C419.8,102.7,419.8,102.7,419.7,102.7z
				 M443.9,27.7c-0.1,0-0.2,0-0.4,0c-0.5,0.1-0.9,0.4-1.2,0.8c-0.3,0.4-0.4,0.9-0.3,1.4c0.2,0.9,0.9,1.5,1.8,1.5c0.1,0,0.2,0,0.4,0
				c1-0.2,1.7-1.2,1.5-2.2C445.5,28.4,444.8,27.7,443.9,27.7z"/>
			<path class="st-phoenix-5" d="M445.4,23.1c6.8,0,12,2.5,13.8,3.4c0.3,0.1,0.2,0.5,0,0.7c-4.6,2.4-5.9,5.4-6.7,13.5
				c-0.8,8.4,4.5,22.1,1.4,33.5c-3.1,11.4-11.2,19-20,23.6c-5.2,2.7-10.6,3.6-14,3.9c0,0,0,0,0,0c-0.4,0-0.5-0.6-0.1-0.7
				c1.9-0.6,4.4-1.5,6.9-2.9c5.6-3.2,8.4-6.6,8.8-8.3c0.4-1.7-0.5-2.6-2.2-2.6c-1.5,0-3.7,0.8-6.1,2.4c-4,2.7-8.1,3.8-12.5,3.8
				c-1.4,0-2.9-0.1-4.5-0.3c-6.2-0.9-16.7-5.5-24.7-7.3c-1.5-0.4-3-0.5-4.5-0.5c-2.9,0-5.6,0.6-7.5,1.2c0,0-0.1,0-0.1,0
				c-0.3,0-0.5-0.5-0.2-0.7c3-1.7,7.5-3.3,14.7-3.3c2,0,4.3,0.1,6.7,0.4c2.8,0.3,5.2,0.4,7.4,0.4c9.5,0,13.8-2.5,16.7-4.6
				c3.5-2.5,5.7-8.1,3.4-9.9c-0.9-0.7-1.8-1-2.6-1c-3.4,0-6.7,4.6-11.5,6.7c-4.2,1.9-8,2.5-11.2,2.5c-3,0-5.5-0.5-7.1-1.1
				c-0.4-0.1-0.3-0.7,0.1-0.7c0,0,0,0,0,0c0.1,0,0.3,0,0.4,0c3.7,0,10.3-1.2,16.5-8.5c10.2-11.9,7-27.6,22.6-38.3
				C435,24.4,440.6,23.1,445.4,23.1 M443.9,32.5c0.2,0,0.4,0,0.5-0.1c1.6-0.3,2.6-1.8,2.3-3.4c-0.3-1.4-1.5-2.3-2.8-2.3
				c-0.2,0-0.4,0-0.6,0.1c-1.6,0.3-2.6,1.8-2.3,3.4C441.3,31.5,442.5,32.5,443.9,32.5 M445.4,21.1c-6.1,0-11.9,1.8-17.2,5.5
				c-9.6,6.6-12.5,15-15.3,23.1c-1.9,5.6-3.7,10.9-7.7,15.6c-5.8,6.8-11.9,7.8-15,7.8c-0.1,0-0.3,0-0.4,0c0,0,0,0-0.1,0
				c-1.2,0-2.2,0.8-2.3,2c-0.2,1.2,0.5,2.3,1.6,2.6c1.7,0.5,4.4,1.2,7.7,1.2c4,0,8-0.9,12-2.6c2.4-1,4.3-2.5,6-3.9
				c1.8-1.4,3.4-2.6,4.7-2.6c0.3,0,0.7,0.1,1.4,0.6c0.1,0.1,0.2,0.4,0.2,0.8c0,1.7-1.5,4.4-3.5,5.9c-2.1,1.5-5.9,4.2-15.5,4.2
				c-2.2,0-4.6-0.1-7.2-0.4c-2.5-0.3-4.8-0.4-7-0.4c-6.4,0-11.5,1.2-15.7,3.5c-0.9,0.5-1.4,1.6-1.1,2.7c0.3,1,1.2,1.8,2.3,1.8
				c0.2,0,0.5,0,0.7-0.1c1.6-0.5,4.1-1.1,6.9-1.1c1.4,0,2.7,0.1,4,0.4c3.5,0.8,7.7,2.2,11.7,3.6c4.9,1.7,9.6,3.3,13.1,3.8
				c1.7,0.2,3.2,0.4,4.7,0.4c5,0,9.4-1.3,13.6-4.1c2.9-1.9,4.6-2,5-2c0.1,0,0.2,0,0.3,0c0,0.1,0,0.1,0,0.2c-0.2,0.9-2.4,3.9-7.8,7
				c-2,1.2-4.2,2.1-6.5,2.8c-1.1,0.3-1.8,1.4-1.7,2.6c0.2,1.2,1.2,2,2.3,2c0.1,0,0.2,0,0.2,0c3.7-0.3,9.3-1.3,14.8-4.2
				c7.5-3.9,17.3-11.4,21-24.8c2-7.2,0.8-15.2-0.3-22.2c-0.7-4.4-1.3-8.5-1-11.6c0.8-7.8,1.8-10,5.6-11.9c0.8-0.4,1.3-1.2,1.3-2.1
				c0-0.9-0.5-1.7-1.2-2.1C458.1,23.7,452.6,21.1,445.4,21.1L445.4,21.1z M443.9,30.5c-0.4,0-0.8-0.3-0.9-0.7
				c-0.1-0.3,0.1-0.5,0.1-0.7c0.1-0.1,0.3-0.3,0.6-0.4c0.1,0,0.1,0,0.2,0c0.4,0,0.8,0.3,0.9,0.7c0.1,0.3-0.1,0.5-0.1,0.7
				c-0.1,0.1-0.3,0.3-0.6,0.4C444,30.5,443.9,30.5,443.9,30.5L443.9,30.5z"/>
		</g>
	</g>
	<circle class="st-phoenix-7" cx="228" cy="228" r="102.5"/>
	<path class="st-phoenix-8" d="M219.4,126.8c0,0,47.9,44.9,38.2,102.9c-9.7,58-66.9,93.4-66.9,93.4C85.4,276.8,121.4,130.2,219.4,126.8z"/>
	<polygon class="st-phoenix-9" points="318.2,118.2 326,117.8 330.7,121.7 322.9,131.9 314.1,122.6 	"/>
	<polygon class="st-phoenix-9" points="341.8,180.8 349.6,180.4 354.3,184.3 346.4,194.5 337.6,185.2 	"/>
	<polygon class="st-phoenix-9" points="294.6,184.4 302.5,184 307.1,187.9 299.3,198.1 290.5,188.8 	"/>
	<polygon class="st-phoenix-9" points="227.7,237 235.5,236.6 240.2,240.5 232.4,250.7 223.6,241.4 	"/>
	<polygon class="st-phoenix-9" points="141.4,194.4 149.2,194 153.9,197.9 146,208.1 137.2,198.8 	"/>
	<polygon class="st-phoenix-9" points="302.2,129.8 308.1,129.6 311.6,132.5 305.7,140.1 299.1,133.2 	"/>
	<polygon class="st-phoenix-9" points="277.7,138 283.6,137.7 287.1,140.7 281.2,148.3 274.6,141.3 	"/>
	<polygon class="st-phoenix-9" points="218.8,119.9 224.7,119.6 228.2,122.5 222.3,130.2 215.7,123.2 	"/>
	<polygon class="st-phoenix-9" points="166.2,167 172.1,166.7 175.6,169.7 169.7,177.3 163.1,170.3 	"/>
	<polygon class="st-phoenix-9" points="403.8,137.1 409.7,136.8 413.2,139.8 407.3,147.4 400.7,140.4 	"/>
	<polygon class="st-phoenix-9" points="282.3,177 288.2,176.7 291.7,179.7 285.8,187.3 279.2,180.3 	"/>
	<polygon class="st-phoenix-9" points="216.4,228.4 222.3,228.2 225.8,231.1 219.9,238.7 213.3,231.8 	"/>
	<polygon class="st-phoenix-9" points="317.6,237.5 333.7,236.7 343.3,244.7 327.2,265.5 309.2,246.5 	"/>
	<polygon class="st-phoenix-9" points="302.1,98.5 312.7,97.9 319,103.2 308.4,116.9 296.6,104.4 	"/>
	<polygon class="st-phoenix-9" points="208.1,246.2 218.7,245.6 225,250.9 214.4,264.6 202.5,252.1 	"/>
	<polygon class="st-phoenix-9" points="139.8,162.8 150.4,162.3 156.7,167.6 146.1,181.3 134.3,168.8 	"/>
	<polygon class="st-phoenix-9" points="121,228.7 131.6,228.2 137.9,233.4 127.3,247.1 115.5,234.6 	"/>
	<polygon class="st-phoenix-9" points="257.7,122.9 268.3,122.4 274.6,127.7 264,141.4 252.2,128.9 	"/>
	<polygon class="st-phoenix-9" points="262.5,79.5 284.1,78.5 297,89.2 275.4,117.2 251.2,91.7 	"/>
	<polygon class="st-phoenix-9" points="422.3,150.8 443.5,149.8 456.2,160.7 435,189 411.2,163.1 	"/>
	<polygon class="st-phoenix-9" points="291.3,150.1 301.8,149.6 308.1,154.9 297.5,168.6 285.7,156.1 	"/>
	<path class="st-phoenix-10" d="M204.5,177.9c-5.3,0-9.5-4.3-9.5-9.5s4.3-9.5,9.5-9.5s9.5,4.3,9.5,9.5"/>
	<path class="st-phoenix-10" d="M252.6,198.1c-3.7,0-6.7-3-6.7-6.7s3-6.7,6.7-6.7c3.7,0,6.7,3,6.7,6.7"/>
	<path class="st-phoenix-10" d="M210,168.2c0,3-2.4,5.4-5.4,5.4s-5.4-2.4-5.4-5.4c0-3,2.4-5.4,5.4-5.4"/>
	<path class="st-phoenix-10" d="M262.5,186.7c2.3,5.5-0.2,11.8-5.7,14.1c-5.5,2.3-11.8-0.2-14.1-5.7c-2.3-5.5,0.2-11.8,5.7-14.1"/>
	<g>
		<path class="st-phoenix-6" d="M352.3,157.4c-0.5,0-0.9-0.2-1.1-0.6c-0.3-0.4-0.3-0.8-0.1-1.3c2.6-6.5,9.3-17.6,25.5-18
			c8.6-0.2,12.6-1.7,14.2-2.5c0.2-0.1,0.4-0.2,0.6-0.2c0.5,0,1,0.3,1.2,0.7c0.2,0.5,0.2,1-0.1,1.4c-5.6,8-12,11.3-23.7,12.3
			c-8.1,0.7-13.2,5.1-15.5,7.6C353.1,157.2,352.7,157.4,352.3,157.4C352.3,157.4,352.3,157.4,352.3,157.4z"/>
		<path class="st-phoenix-5" d="M391.4,135.8c0.3,0,0.5,0.3,0.3,0.6c-5.4,7.8-11.6,10.9-23,11.9c-8.5,0.7-13.8,5.4-16.1,8
			c-0.1,0.1-0.2,0.1-0.3,0.1c-0.2,0-0.5-0.2-0.4-0.5c2.7-7,9.4-17,24.6-17.4c8.5-0.2,12.7-1.6,14.6-2.6
			C391.3,135.8,391.3,135.8,391.4,135.8 M391.4,133.8c-0.4,0-0.8,0.1-1.1,0.3c-1.5,0.8-5.4,2.2-13.8,2.4
			c-16.8,0.4-23.8,11.9-26.4,18.6c-0.3,0.7-0.2,1.6,0.2,2.2c0.4,0.7,1.2,1,2,1c0.7,0,1.3-0.3,1.8-0.8c2.2-2.5,7.1-6.7,14.8-7.3
			c12-1,18.6-4.4,24.4-12.7c0.5-0.7,0.6-1.7,0.2-2.5C393.1,134.3,392.3,133.8,391.4,133.8L391.4,133.8z"/>
	</g>
	<g>
		<path class="st-phoenix-4" d="M319.1,157.4c-0.5,0-0.9-0.2-1.1-0.6c-0.3-0.4-0.3-0.8-0.1-1.3c2.6-6.5,9.3-17.6,25.5-18
			c8.6-0.2,12.6-1.7,14.2-2.5c0.2-0.1,0.4-0.2,0.6-0.2c0.5,0,1,0.3,1.2,0.7c0.2,0.5,0.2,1-0.1,1.4c-5.6,8-12,11.3-23.7,12.3
			c-8.1,0.7-13.2,5.1-15.5,7.6C319.8,157.2,319.5,157.4,319.1,157.4L319.1,157.4z"/>
		<path class="st-phoenix-5" d="M358.1,135.8c0.3,0,0.5,0.3,0.3,0.6c-5.4,7.8-11.6,10.9-23,11.9c-8.5,0.7-13.8,5.4-16.1,8
			c-0.1,0.1-0.2,0.1-0.3,0.1c-0.2,0-0.5-0.2-0.4-0.5c2.7-7,9.4-17,24.6-17.4c8.5-0.2,12.7-1.6,14.6-2.6
			C358,135.8,358.1,135.8,358.1,135.8 M358.1,133.8c-0.4,0-0.8,0.1-1.1,0.3c-1.5,0.8-5.4,2.2-13.8,2.4
			c-16.8,0.4-23.8,11.9-26.4,18.6c-0.3,0.7-0.2,1.5,0.2,2.2c0.4,0.7,1.2,1,2,1c0.7,0,1.3-0.3,1.8-0.8c2.2-2.5,7.1-6.7,14.8-7.3
			c12-1,18.6-4.4,24.4-12.7c0.5-0.7,0.6-1.7,0.2-2.5C359.8,134.3,359,133.8,358.1,133.8L358.1,133.8z"/>
	</g>
	<g>
		<path class="st-phoenix-4" d="M365,135.1c-0.5,0-0.9-0.2-1.1-0.7c-0.3-0.4-0.3-0.9-0.1-1.4c2.1-4.2,6.9-11.2,16.4-11.2c2.1,0,4.2,0.3,6.5,1
			c3.8,1.1,6.9,1.7,9.3,1.7c0.9,0,1.8-0.1,2.4-0.3c0.1,0,0.2,0,0.3,0c0.5,0,1,0.3,1.2,0.8c0.2,0.5,0.2,1.1-0.2,1.5
			c-3.9,4.4-7.9,6.3-13.3,6.3c0,0,0,0,0,0c-2.2,0-4.7-0.3-7.6-1c-1.3-0.3-2.5-0.4-3.7-0.4c-4.6,0-7.8,2.1-9.3,3.4
			C365.6,135,365.3,135.1,365,135.1z"/>
		<path class="st-phoenix-5" d="M380.1,122.9c1.9,0,4,0.3,6.2,1c4.5,1.3,7.5,1.7,9.6,1.7c1.2,0,2-0.1,2.7-0.3c0,0,0,0,0.1,0
			c0.3,0,0.5,0.4,0.3,0.6c-3.6,4.1-7.3,6-12.5,6c-2.2,0-4.6-0.3-7.4-1c-1.4-0.3-2.7-0.5-4-0.5c-4.9,0-8.3,2.2-10,3.6
			c0,0-0.1,0.1-0.2,0.1c-0.2,0-0.5-0.3-0.3-0.6C367,128.8,371.6,122.9,380.1,122.9 M380.1,120.9c-10,0-15.1,7.4-17.3,11.8
			c-0.4,0.7-0.3,1.6,0.1,2.3c0.4,0.7,1.2,1.1,2,1.1c0.5,0,1-0.2,1.4-0.5c1.4-1.2,4.4-3.1,8.7-3.1c1.1,0,2.3,0.1,3.5,0.4
			c3,0.7,5.6,1,7.8,1c5.6,0,10-2,14-6.6c0.6-0.7,0.7-1.7,0.4-2.6c-0.4-0.9-1.2-1.4-2.1-1.4c-0.2,0-0.4,0-0.6,0.1
			c-0.4,0.1-1.1,0.2-2.2,0.2c-2.3,0-5.4-0.5-9.1-1.6C384.6,121.2,382.3,120.9,380.1,120.9L380.1,120.9L380.1,120.9z"/>
	</g>
	<polygon class="st-phoenix-11" points="317.2,75.7 318.7,78.6 321.9,79.1 319.6,81.3 320.1,84.5 317.2,83 314.4,84.5 314.9,81.3 312.6,79.1 
		315.8,78.6 	"/>
	<polygon class="st-phoenix-12" points="248.5,13.9 250.2,17.3 253.9,17.9 251.2,20.5 251.8,24.3 248.5,22.5 245.1,24.3 245.7,20.5 243,17.9 
		246.8,17.3 	"/>
	<g>
		<path class="st-phoenix-10" d="M285.7,266.6c-6.2,0-11.2-5-11.2-11.2c0-6.2,5-11.2,11.2-11.2s11.2,5,11.2,11.2"/>
		<path class="st-phoenix-10" d="M292.1,255.1c0,3.5-2.9,6.4-6.4,6.4s-6.4-2.9-6.4-6.4c0-3.5,2.9-6.4,6.4-6.4"/>
	</g>
	<g>
		<path class="st-phoenix-10" d="M221.2,193.2c4,1,6.5,5.1,5.4,9.2c-1,4-5.1,6.5-9.2,5.4c-4-1-6.5-5.1-5.4-9.2"/>
		<path class="st-phoenix-10" d="M215.1,199.6c0.6-2.3,2.9-3.7,5.3-3.1c2.3,0.6,3.7,2.9,3.1,5.3c-0.6,2.3-2.9,3.7-5.3,3.1"/>
	</g>
	<g>
		<path class="st-phoenix-10" d="M151.9,246.3c2.2,3.5,1.1,8.2-2.4,10.4c-3.5,2.2-8.2,1.1-10.4-2.4c-2.2-3.5-1.1-8.2,2.4-10.4"/>
		<path class="st-phoenix-10" d="M143,246.7c2-1.3,4.7-0.6,5.9,1.4c1.3,2,0.6,4.7-1.4,5.9c-2,1.3-4.7,0.6-5.9-1.4"/>
	</g>
	<polygon class="st-phoenix-12" points="133.2,268.8 136.2,274.8 142.9,275.8 138,280.5 139.2,287.1 133.2,284 127.3,287.1 128.4,280.5 
		123.6,275.8 130.2,274.8 	"/>
</g>
</svg>
