<svg version="1.1"
	 xmlns="http://www.w3.org/2000/svg" xmlns:xlink="http://www.w3.org/1999/xlink" xmlns:a="http://ns.adobe.com/AdobeSVGViewerExtensions/3.0/"
	 x="0px" y="0px" width="302.7px" height="382px" viewBox="0 0 302.7 382" style="enable-background:new 0 0 302.7 382;"
	 xml:space="preserve">
<style type="text/css">
	.st-saturn-0{fill:#151A21;}
	.st-saturn-1{fill:#1B212B;}
	.st-saturn-2{fill:#202633;}
	.st-saturn-3{fill:#242A3A;}
	.st-saturn-4{fill:#24737A;}
	.st-saturn-5{fill:#2B304B;}
	.st-saturn-6{fill:#73CEDD;}
	.st-saturn-7{fill:#9FA4B7;}
</style>
<defs>
</defs>
<path class="st-saturn-0" d="M77.7,51c77.3,30.1,115.6,117.1,85.5,194.4c-26.1,67-95,104.7-163.2,93.9v41.2
	c84.7,10.5,168.9-37.2,201.2-120.3C239.5,161.9,190.8,51.3,92.5,13C62,1.2,30.3-2.3,0,1.4v41.2C25.4,38.6,52.1,41.1,77.7,51z
	 M98.8,349.3l-4.3-2.3l-4.3,2.3l0.8-4.8l-3.5-3.4l4.8-0.7l2.1-4.3l2.1,4.3l4.8,0.7l-3.5,3.4L98.8,349.3z"/>
<path class="st-saturn-1" d="M163.2,245.4C193.3,168.1,155,81.1,77.7,51C52.1,41.1,25.4,38.6,0,42.6v25.9c22.2-4.2,45.9-2.5,68.5,6.3
	c61,23.7,92.7,90.1,74.3,151.7c2.1,1.8,4.1,3.6,6,5.6c2,2.2,3.9,4.4,5.3,6.9c0.3,0.5,0.6,1.1,0.8,1.8c0.2,0.7,0.3,1.5,0.2,2.4
	c-0.1,0.6-0.2,1.2-0.4,1.8c-0.4,1.1-1.2,2-1.8,2.6c-0.7,0.6-1.3,1-1.9,1.2c-1.2,0.5-2.2,0.7-3.3,0.9c-0.7,0.1-1.4,0.2-2.2,0.2
	c-1,0-2.1,0-3.3,0c-1.6-0.1-3.3-0.2-5.2-0.4c-1.1-0.1-2.2-0.3-3.3-0.4C108.2,297.7,53.5,323.7,0,313.5v25.8
	C68.2,350.1,137.2,312.5,163.2,245.4z"/>
<path class="st-saturn-2" d="M60.6,95.2c48,18.7,74.1,69.5,63,118.3c4.1,2.3,8.6,5.1,13,8.2c2.1,1.5,4.2,3.1,6.2,4.7
	c18.4-61.6-13.4-128-74.3-151.7C45.9,66,22.2,64.2,0,68.5v22.4C19.5,86.3,40.5,87.4,60.6,95.2z"/>
<path class="st-saturn-2" d="M133.7,248.9c-1.6-0.2-3.4-0.5-5.2-0.8c-4.2-0.7-9-1.6-14.2-2.8c-1.1-0.2-2.1-0.5-3.2-0.7
	c-22.9,37.7-67.9,56.7-111,46.6v22.4C53.5,323.7,108.2,297.7,133.7,248.9z"/>
<path class="st-saturn-2" d="M116.6,234.1c2.7,0.6,5.2,1.1,7.6,1.6c5.9,1.2,10.8,1.9,14.6,2.3c-1.1-1.1-2.3-2.1-3.6-3.2
	c-4.1-3.3-8.8-6.5-13.2-9.2c-0.5-0.3-1-0.6-1.5-0.9c-0.4,1.2-0.8,2.4-1.3,3.6C118.3,230.3,117.5,232.2,116.6,234.1z"/>
<path class="st-saturn-3" d="M111,244.6c-5-1.2-10.5-2.6-16.3-4.2c-16.3,23.6-43.2,37.5-71.5,37.5c-7.7,0-15.5-1-23.3-3.2v16.5
	C43.2,301.2,88.1,282.2,111,244.6z"/>
<path class="st-saturn-3" d="M54.8,110c34.4,13.4,55.4,46.2,55.4,81c0,4.9-0.4,9.9-1.3,14.9c1.3,0.6,4.9,2.3,9.2,4.6
	c1.7,0.9,3.6,1.9,5.6,3.1c11-48.8-15-99.6-63-118.3C40.5,87.4,19.5,86.3,0,90.8v16.5c7.5-2.1,15.4-3.2,23.3-3.2
	C33.8,104.1,44.4,106,54.8,110z"/>
<path class="st-saturn-3" d="M103.3,222.1l0.9,0.4c-1,2.7-2.2,5.2-3.5,7.8c5.7,1.5,11,2.8,15.8,3.9c0.9-1.9,1.7-3.9,2.5-5.9
	c0.5-1.2,0.9-2.4,1.3-3.6c-7.5-4.4-13-7.2-14.2-7.8c-0.6,1.9-1.2,3.7-1.9,5.6L103.3,222.1z"/>
<path class="st-saturn-4" d="M32.4,207.5c19.6,7.6,37.5,13.7,52.9,18.3c4.7,1.4,9.2,2.7,13.5,3.9c1.3-2.6,2.5-5.2,3.6-7.9l0,0
	c3.9-10.1,5.8-20.5,5.8-30.8c0-34-20.5-66.1-54.1-79.1c-10.1-3.9-20.5-5.8-30.8-5.8c-7.9,0-15.8,1.1-23.3,3.3v84.7
	c6.1,2.7,12.4,5.4,19,8C23.6,204,28,205.8,32.4,207.5z"/>
<path class="st-saturn-4" d="M92.7,239.8c-18.1-5-39.9-12.2-64.4-21.7c-4.4-1.7-8.9-3.5-13.5-5.4c-5-2.1-10-4.1-14.7-6.2v66.1
	c7.7,2.2,15.5,3.3,23.3,3.3C50.6,275.9,76.7,262.5,92.7,239.8z"/>
<path class="st-saturn-5" d="M94.7,240.4c-0.7-0.2-1.4-0.4-2.1-0.6c-16,22.7-42.1,36-69.4,36c-7.7,0-15.5-1.1-23.3-3.3v2.1
	c7.7,2.2,15.5,3.2,23.3,3.2C51.5,277.9,78.4,264,94.7,240.4z"/>
<path class="st-saturn-5" d="M54.1,111.9C87.6,125,108.2,157,108.2,191c0,10.2-1.9,20.6-5.8,30.8l0,0c-1.1,2.7-2.3,5.4-3.6,7.9
	c0.7,0.2,1.3,0.4,2,0.5c1.3-2.5,2.4-5.1,3.5-7.8l-0.9-0.4l0.9,0.4c0.7-1.8,1.3-3.7,1.9-5.6c-0.1-0.1-0.2-0.1-0.2-0.1l0,0l2.5-11.1
	c0,0,0.2,0.1,0.5,0.2c0.9-5,1.3-9.9,1.3-14.9c0-34.8-21-67.6-55.4-81c-10.3-4-21-5.9-31.5-5.9c-7.9,0-15.8,1.1-23.3,3.2v2.1
	c7.5-2.2,15.4-3.3,23.3-3.3C33.5,106.1,43.9,108,54.1,111.9z"/>
<path class="st-saturn-6" d="M28.3,218.1c24.6,9.6,46.3,16.7,64.4,21.7c0.7,0.2,1.4,0.4,2.1,0.6c5.8,1.6,11.3,3,16.3,4.2
	c1.1,0.3,2.2,0.5,3.2,0.7c5.3,1.2,10,2.1,14.2,2.8c1.8,0.3,3.6,0.6,5.2,0.8c1.2,0.2,2.3,0.3,3.3,0.4c1.9,0.2,3.6,0.3,5.2,0.4
	c1.2,0,2.3,0,3.3,0c0.8,0,1.5-0.1,2.2-0.2c1.1-0.2,2.1-0.4,3.3-0.9c0.6-0.3,1.2-0.6,1.9-1.2c0.7-0.6,1.4-1.5,1.8-2.6
	c0.2-0.6,0.4-1.2,0.4-1.8c0.1-0.9,0-1.7-0.2-2.4c-0.2-0.7-0.5-1.3-0.8-1.8c-1.5-2.4-3.3-4.7-5.3-6.9c-1.8-1.9-3.9-3.8-6-5.6
	c-2-1.7-4.1-3.2-6.2-4.7c-4.4-3.1-8.9-5.9-13-8.2c-2-1.1-3.9-2.2-5.6-3.1c-4.2-2.2-7.9-4-9.2-4.6c-0.3-0.1-0.5-0.2-0.5-0.2
	l-2.5,11.1l0,0c0,0,0.1,0.1,0.2,0.1c1.2,0.6,6.8,3.3,14.2,7.8c0.5,0.3,1,0.6,1.5,0.9c4.5,2.7,9.2,5.9,13.2,9.2
	c1.3,1,2.5,2.1,3.6,3.2c-3.8-0.4-8.7-1.1-14.6-2.3c-2.4-0.5-4.9-1-7.6-1.6c-4.8-1.1-10.1-2.4-15.8-3.9c-0.7-0.2-1.3-0.4-2-0.5
	c-4.3-1.2-8.8-2.4-13.5-3.9c-15.5-4.6-33.3-10.7-52.9-18.3c-4.4-1.7-8.8-3.5-13.4-5.3c-6.6-2.7-12.9-5.4-19-8v12.4
	c4.8,2.1,9.7,4.1,14.7,6.2C19.3,214.6,23.8,216.4,28.3,218.1z"/>
<polygon class="st-saturn-6" points="96.7,340.5 94.5,336.1 92.4,340.5 87.6,341.2 91.1,344.5 90.2,349.3 94.5,347.1 98.8,349.3 98,344.5 
	101.5,341.2 "/>
<polygon class="st-saturn-6" points="293.4,79.5 289.2,71 285,79.5 275.7,80.8 282.5,87.4 280.9,96.7 289.2,92.3 297.6,96.7 296,87.4 
	302.7,80.8 "/>
<polygon class="st-saturn-7" points="239.6,340.5 235.2,349.3 225.5,350.7 232.6,357.6 230.9,367.2 239.6,362.6 248.2,367.2 246.6,357.6 
	253.6,350.7 243.9,349.3 "/>
<polygon class="st-saturn-6" points="268.5,366.1 266.3,370.6 261.3,371.3 264.9,374.8 264,379.8 268.5,377.4 272.9,379.8 272.1,374.8 
	275.7,371.3 270.7,370.6 "/>
</svg>
