<?xml version="1.0" encoding="utf-8"?>
<svg version="1.1" id="Warbcg-ios-tabletwa_1" xmlns="http://www.w3.org/2000/svg" xmlns:xlink="http://www.w3.org/1999/xlink"
	 x="0px" y="0px" viewBox="0 0 700.3 2420.6" style="enable-background:new 0 0 700.3 2420.6;" xml:space="preserve">
<style type="text/css">
	.bcg-sales-tablet0{fill:#1E2333;stroke:#2B304B;stroke-width:4;stroke-linecap:round;stroke-linejoin:round;}
	.bcg-sales-tablet1{fill:none;stroke:#2B304B;stroke-width:4;stroke-linecap:round;stroke-linejoin:round;}
	.bcg-sales-tablet2{fill:none;stroke:#1E2333;stroke-width:6;stroke-linecap:round;stroke-linejoin:round;}
	.bcg-sales-tablet3{fill:none;stroke:#1E2333;stroke-width:6;stroke-linecap:round;stroke-linejoin:round;stroke-dasharray:15.99,15.99;}
	.bcg-sales-tablet4{fill:none;stroke:#1E2333;stroke-width:6;stroke-linecap:round;stroke-linejoin:round;stroke-dasharray:16.3,16.3;}
	.bcg-sales-tablet5{fill:none;stroke:#1E2333;stroke-width:6;stroke-linecap:round;stroke-linejoin:round;stroke-dasharray:15.93,15.93;}
	.bcg-sales-tablet6{fill:none;stroke:#1E2333;stroke-width:6;stroke-linecap:round;stroke-linejoin:round;stroke-dasharray:16;}
</style>
<polygon class="bcg-sales-tablet0" points="566,2056.1 497.9,2092.7 514.2,2099.5 526.5,2131.2 541.3,2106.2 556.6,2112.3 "/>
<polyline class="bcg-sales-tablet0" points="515.8,2099.9 566,2056.1 532,2101.5 527.1,2129.2 "/>
<line class="bcg-sales-tablet1" x1="556.2" y1="2112" x2="532" y2="2102.1"/>
<path class="bcg-sales-tablet2" d="M521.9,2144.3c-1,0.9-1.9,1.9-2.8,2.9"/>
<path class="bcg-sales-tablet3" d="M514.8,2154.1c-3.2,7.3-4,18.1,7,30.8c20.5,23.6,62.2,40.2,52.1,99.1c-10.9,63.3-82.9,76.4-163.3,79.1
	c-148.2,4.9-445.2-70.5-497.1-84.1"/>
<g>
	<polygon class="bcg-sales-tablet0" points="480.3,1477.3 544.7,1494.2 532.4,1503.2 528.5,1532.1 511.1,1514.2 499.6,1522.4 	"/>
	<polyline class="bcg-sales-tablet0" points="531.2,1503.9 480.3,1477.3 517.9,1508.4 527.7,1530.5 	"/>
	<line class="bcg-sales-tablet1" x1="499.8" y1="1522.1" x2="518.1" y2="1508.8"/>
</g>
<g>
	<polygon class="bcg-sales-tablet0" points="338.3,1577.5 326.6,1569.5 309.5,1587.7 305.1,1558.8 292.7,1550.1 356.7,1532.1 	"/>
	<polyline class="bcg-sales-tablet0" points="310.3,1586.2 319.6,1563.9 356.7,1532.1 306.3,1559.5 	"/>
	<line class="bcg-sales-tablet1" x1="319.5" y1="1564.3" x2="338" y2="1577.2"/>
</g>
<path class="bcg-sales-tablet2" d="M535.1,1542.2c1.2,0.6,2.3,1.3,3.4,2.2"/>
<path class="bcg-sales-tablet4" d="M544,1550.4c3.5,5.5,5.4,13.9-0.7,25.6c-12.3,23.8-43.9,46.1-23.4,93.3c21.9,50.7,84.7,47.1,152.4,33
	c13.1-2.7,27.4-6.5,42.6-11.2"/>
<path class="bcg-sales-tablet2" d="M57.1,46.7c0,0,1.4,0.3,4,0.9"/>
<path class="bcg-sales-tablet5" d="M-5.8,49.4c38.8,8.5,146.2,37.2,181.4,101c43.4,78.3,189.9,132.3,332.7,73c140.5-58.3,162-144.5,361-157.8"/>
<g>
	<polygon class="bcg-sales-tablet0" points="140.6,328.6 236.9,368.5 216.1,379.8 203.8,424 180.6,392.6 160.9,402.8 	"/>
	<polyline class="bcg-sales-tablet0" points="213.9,380.6 140.6,328.6 192.5,384.9 202.8,421.4 	"/>
	<line class="bcg-sales-tablet1" x1="161.4" y1="402.3" x2="192.5" y2="385.7"/>
	<path class="bcg-sales-tablet6" d="M203.2,432.4c0,0-28.1,44.7-3.4,65.1c24.7,20.5,82.3-33.1,88.4-52.3c6-19.2-26.4-33-55.8-0.7
		c-29.4,32.3-36.6,86.8,3.9,98.6s81.3-15,97.8-35c16.4-20,28.1-49,12.6-54c-15.4-4.9-76.1,20.7-84.6,78.4
		c-8.5,57.7,40.3,80.7,86.8,64.4c46.5-16.3,89.9-53.1,101.5-92c11.5-38.9-6.4-50.3-46.2-29.2c-24,12.7-66.2,58.3-75.5,98.1
		c-9.4,39.8-8.1,93.4,71.4,99.9c79.5,6.5,136.3-60.5,149.7-81.9c13.4-21.3,55.5-91.7,26.8-110.9c-38.7-25.8-97.2,41.9-119.3,111.3
		c-20.8,65.1,7.8,145.5,63.7,147.7c139.3,5.6,169.6-198.5,266.5-211.1c38.1-5,71.5-2.2,100.5,5"/>
</g>
<g>
	<polygon class="bcg-sales-tablet0" points="96.1,1594.5 192.4,1634.4 171.6,1645.7 159.3,1689.9 136.1,1658.5 116.4,1668.7 	"/>
	<polyline class="bcg-sales-tablet0" points="169.5,1646.5 96.1,1594.5 148,1650.8 158.3,1687.3 	"/>
	<line class="bcg-sales-tablet1" x1="116.9" y1="1668.2" x2="148" y2="1651.6"/>
	<path class="bcg-sales-tablet6" d="M158.8,1698.3c0,0-28.1,44.7-3.4,65.1c24.7,20.5,82.3-33.1,88.4-52.3c6-19.2-26.4-33-55.8-0.7
		s-36.6,86.8,3.9,98.6c40.5,11.8,81.3-15,97.8-35c16.4-20,28.1-49,12.6-54c-15.4-4.9-76.1,20.7-84.6,78.4
		c-8.5,57.7,40.3,80.7,86.8,64.4c46.5-16.3,89.9-53.1,101.5-92c11.5-38.9-6.4-50.3-46.2-29.2c-24,12.7-66.2,58.3-75.5,98.1
		c-9.4,39.8-8.1,93.4,71.4,99.9c79.5,6.5,136.3-60.5,149.7-81.9s55.5-91.7,26.8-110.9c-38.7-25.8-97.2,41.9-119.3,111.3
		c-20.8,65.1,7.8,145.5,63.7,147.7c139.3,5.6,169.6-198.5,266.5-211.1c38.1-5,71.5-2.2,100.5,5"/>
</g>
<g>
	<polygon class="bcg-sales-tablet0" points="509.6,834.1 493.1,822.2 467.7,847.7 462.6,805.7 445.2,792.5 538.4,769.5 	"/>
	<polyline class="bcg-sales-tablet0" points="468.9,845.4 483.4,813.6 538.4,769.5 464.4,806.7 	"/>
	<line class="bcg-sales-tablet1" x1="483.2" y1="814.3" x2="509.3" y2="833.7"/>
</g>
<polygon class="bcg-sales-tablet0" points="525,1220.7 431.7,1243.7 449.2,1257 454.2,1298.8 479.7,1273.4 496.2,1285.4 "/>
<polyline class="bcg-sales-tablet0" points="451,1257.9 525,1220.7 469.9,1264.8 455.5,1296.6 "/>
<line class="bcg-sales-tablet1" x1="495.9" y1="1285" x2="469.8" y2="1265.4"/>
<path class="bcg-sales-tablet6" d="M4.1,990.8c26.1,50.8,57.8,99.2,119.8,106.1c51.3,5.7,88.4-63.6,78.5-125.7c-10.6-66.2-54.4-136-93.2-117.8
	c-28.7,13.4-0.1,83.3,9.1,104.6c9.2,21.3,51.6,90.2,124.9,95.3s81.9-43.6,78.8-81.1c-3-37.5-35.1-84.8-55.3-99.7
	c-33.3-24.7-51.1-16.8-46.1,20.2c5,37,39.5,76.5,79.6,97.8c40.1,21.3,87.6,7.1,87.9-46.6c0.3-53.7-51.4-85.4-66.1-83.1
	c-14.7,2.3-8.1,30.4,4,50.9c12.1,20.5,45.6,50.5,84.1,45.4s39.5-55.7,17.2-89.2c-22.3-33.4-53.7-25.4-50.9-7.1
	c2.9,18.3,47.8,75,73.2,59.8c25.3-15.2,6-59.8,6-59.8"/>
<path class="bcg-sales-tablet6" d="M-8.4,146c26.1,50.8,57.8,99.2,119.8,106.1c51.3,5.7,88.4-63.6,78.5-125.7C179.3,60.2,135.4-9.6,96.7,8.6
	C68,22,96.5,91.9,105.8,113.2s51.6,90.2,124.9,95.3s81.9-43.6,78.8-81.1s-35.1-84.8-55.3-99.7c-33.3-24.7-51.1-16.8-46.1,20.2
	s39.5,76.5,79.6,97.8c40.1,21.3,87.6,7.1,87.9-46.6c0.3-53.7-51.4-85.4-66.1-83.1s-8.1,30.4,4,50.9c12.1,20.5,45.6,50.5,84.1,45.4
	s39.5-55.7,17.2-89.2S361.1-2.4,364,15.9s47.8,75,73.2,59.8s6-59.8,6-59.8"/>
<path class="bcg-sales-tablet6" d="M665.6,2479.4c15-88.7,20.7-179.5-50.8-246.6c-59.2-55.6-171.3-3.4-217.4,84.2c-49.1,93.3-59.7,222.6,6.2,236.3
	c48.7,10.2,78.8-104.8,87.2-140.3c8.4-35.5,20.1-162.3-67.4-237.8c-87.5-75.5-144.3-22.3-175.8,27.8s-35.7,139.9-24.5,177.7
	c18.6,62.6,48.5,69.4,77.1,18.1c28.6-51.4,22.4-133.6-8-198.2c-30.4-64.7-103.6-91.6-154.7-24.2c-51,67.3-15.9,156.1,4.9,167
	s38.9-30.6,42.9-67.9c4.1-37.2-9.8-106.5-63.1-136.5C69,2109,20,2171.8,16.5,2235s43.7,82.7,57.4,56.9s10.5-139.6-35.7-144.4
	s-64,69.7-64,69.7"/>
<path class="bcg-sales-tablet6" d="M445.3,1309.5c0,0-75.7,56.8-152.8,24.3c-77.2-32.5-89.3-108.8-68.1-113.1s79.3,33.1,95.4,87.8
	c16.1,54.7,4.2,91.6-9.6,103.6c-13.8,12-85.8,41.3-175-36.7c-89.2-78-50.7-200.5-84.1-255.4c-33.4-54.8-50.2-49.6-50.2-49.6"/>
<g>

		<rect x="77.5" y="603.5" transform="matrix(0.9651 -0.262 0.262 0.9651 -160.1733 51.4143)" class="bcg-sales-tablet0" width="70.4" height="45.8"/>
	<polygon class="bcg-sales-tablet0" points="72.7,613.5 114.6,633.4 140.7,595.1 	"/>
	<polygon class="bcg-sales-tablet0" points="152.7,639.3 122,622.8 114.6,633.4 102.9,628 84.7,657.7 	"/>
</g>
<g>

		<rect x="76.3" y="1422" transform="matrix(0.4972 -0.8677 0.8677 0.4972 -1214.5237 818.7698)" class="bcg-sales-tablet0" width="45.8" height="70.4"/>
	<polygon class="bcg-sales-tablet0" points="79.9,1419.9 95.4,1463.7 141,1455 	"/>
	<polygon class="bcg-sales-tablet0" points="118.2,1494.7 108.2,1461.5 95.4,1463.7 90.9,1451.6 57.1,1459.7 	"/>
</g>
<g>

		<rect x="538.3" y="333.6" transform="matrix(5.348223e-02 -0.9986 0.9986 5.348223e-02 162.9541 909.5103)" class="bcg-sales-tablet0" width="45.8" height="70.4"/>
	<polygon class="bcg-sales-tablet0" points="527.2,344.1 560.8,376.2 597.5,347.9 	"/>
	<polygon class="bcg-sales-tablet0" points="595.1,393.7 571.2,368.5 560.8,376.2 551.3,367.4 524.8,389.9 	"/>
</g>
<g>

		<rect x="555.9" y="1000.2" transform="matrix(0.7292 -0.6843 0.6843 0.7292 -551.4603 675.9989)" class="bcg-sales-tablet0" width="45" height="69.2"/>
	<polygon class="bcg-sales-tablet0" points="618.5,1044.6 573.1,1039.7 571.2,994.1 	"/>
	<polygon class="bcg-sales-tablet0" points="585.6,1075.4 585.7,1041.2 573.1,1039.7 572.4,1027 538.3,1024.9 	"/>
	<polygon class="bcg-sales-tablet0" points="494,1034.4 511.6,993 575.8,1020.6 558.2,1062 	"/>
	<polygon class="bcg-sales-tablet0" points="512.4,993 532.8,1033.9 576.1,1019.9 	"/>
	<polygon class="bcg-sales-tablet0" points="558.1,1062 544.3,1030.8 532.2,1034.5 526.3,1023.2 494.3,1035.1 	"/>
</g>
<g>

		<rect x="590.7" y="1316.9" transform="matrix(0.2679 -0.9634 0.9634 0.2679 -858.5108 1595.1582)" class="bcg-sales-tablet0" width="59.3" height="91.2"/>
	<polygon class="bcg-sales-tablet0" points="672.4,1346.1 618,1371.7 584.6,1321.7 	"/>
	<polygon class="bcg-sales-tablet0" points="656.4,1403.3 633.2,1364.7 618,1371.7 608.4,1357.8 568.6,1378.8 	"/>
	<polygon class="bcg-sales-tablet0" points="525.3,1419.9 516.7,1361.2 608,1348.3 616.5,1407 	"/>
	<polygon class="bcg-sales-tablet0" points="517.7,1360.6 568.5,1392.7 607.8,1347.3 	"/>
	<polygon class="bcg-sales-tablet0" points="616.3,1407.1 579.4,1381.3 568.2,1393.9 553.9,1385.1 526.1,1420.5 	"/>
</g>
<g>

		<rect x="157.5" y="1951.8" transform="matrix(0.2679 -0.9634 0.9634 0.2679 -1787.3201 1642.6022)" class="bcg-sales-tablet0" width="59.3" height="91.2"/>
	<polygon class="bcg-sales-tablet0" points="239.2,1981 184.8,2006.6 151.4,1956.6 	"/>
	<polygon class="bcg-sales-tablet0" points="223.2,2038.2 200,1999.6 184.8,2006.6 175.2,1992.7 135.4,2013.7 	"/>
	<polygon class="bcg-sales-tablet0" points="92.1,2054.8 83.5,1996.1 174.8,1983.2 183.3,2041.9 	"/>
	<polygon class="bcg-sales-tablet0" points="84.5,1995.5 135.4,2027.6 174.6,1982.1 	"/>
	<polygon class="bcg-sales-tablet0" points="183.1,2042 146.2,2016.2 135.1,2028.7 120.7,2020 92.9,2055.4 	"/>
</g>
</svg>
