<?xml version="1.0" encoding="utf-8"?>
<svg version="1.1" id="Warstwa_1" xmlns="http://www.w3.org/2000/svg" xmlns:xlink="http://www.w3.org/1999/xlink" x="0px" y="0px"
	 viewBox="0 0 1521.3 2466" style="enable-background:new 0 0 1521.3 2466;" xml:space="preserve">
<style type="text/css">
	.bcg-sales0{fill:#1E2333;stroke:#2B304B;stroke-width:4;stroke-linecap:round;stroke-linejoin:round;}
	.bcg-sales1{fill:none;stroke:#2B304B;stroke-width:4;stroke-linecap:round;stroke-linejoin:round;}
	.bcg-sales2{fill:none;stroke:#1E2333;stroke-width:6;stroke-linecap:round;stroke-linejoin:round;}
	.bcg-sales3{fill:none;stroke:#1E2333;stroke-width:6;stroke-linecap:round;stroke-linejoin:round;stroke-dasharray:15.99,15.99;}
	.bcg-sales4{fill:none;stroke:#1E2333;stroke-width:6;stroke-linecap:round;stroke-linejoin:round;stroke-dasharray:16.3,16.3;}
	.bcg-sales5{fill:none;stroke:#1E2333;stroke-width:6;stroke-linecap:round;stroke-linejoin:round;stroke-dasharray:15.93,15.93;}
	.bcg-sales6{fill:none;stroke:#1E2333;stroke-width:6;stroke-linecap:round;stroke-linejoin:round;stroke-dasharray:16;}
</style>
<title>Zasób 2</title>
<polygon class="bcg-sales0" points="1215.2,1749.2 1241.3,1738.8 1266.6,1781.6 1287.7,1727.3 1315.5,1715.7 1199.1,1653 "/>
<polyline class="bcg-sales0" points="1265.7,1778.1 1257.3,1730.7 1199.1,1653 1284.9,1728 "/>
<line class="bcg-sales1" x1="1257.3" y1="1731.7" x2="1215.8" y2="1748.6"/>
<path class="bcg-sales2" d="M1279.4,1808.9c-1.5-1.8-3.1-3.4-4.8-5"/>
<path class="bcg-sales3" d="M2315,2034.2c-88.8,23.2-596.7,152.2-850.1,143.8c-137.5-4.5-260.7-26.9-279.3-135.2
	c-17.3-100.7,54-129.1,89.1-169.4c18.9-21.8,17.4-40.3,12-52.7"/>
<g>
	<polygon class="bcg-sales0" points="1118.4,316.1 1228.4,344.9 1207.4,360.3 1200.8,409.8 1171,379.2 1151.3,393.2 	"/>
	<polyline class="bcg-sales0" points="1205.3,361.5 1118.4,316.1 1182.7,369.3 1199.3,407.1 	"/>
	<line class="bcg-sales1" x1="1151.6" y1="392.7" x2="1182.9" y2="370"/>
</g>
<g>
	<polygon class="bcg-sales0" points="1324.6,1096 1304.6,1082.4 1275.4,1113.5 1267.8,1064.1 1246.6,1049.1 1356.1,1018.4 	"/>
	<polyline class="bcg-sales0" points="1276.8,1110.8 1292.7,1072.7 1356.1,1018.4 1270,1065.3 	"/>
	<line class="bcg-sales1" x1="1292.5" y1="1073.5" x2="1324.2" y2="1095.5"/>
</g>
<path class="bcg-sales2" d="M1212,427c2.1,1,4,2.3,5.8,3.8"/>
<path class="bcg-sales4" d="M1227.3,441.1c6,9.4,9.2,23.7-1.2,43.8c-21.1,40.7-75,78.9-40.1,159.5c37.5,86.7,144.9,80.5,260.7,56.5
	c22.4-4.7,46.9-11.1,72.8-19.1"/>
<path class="bcg-sales2" d="M3,40.9c0,0,2.4,0.5,6.8,1.5"/>
<path class="bcg-sales5" d="M23.2,45.8c66.3,14.6,250,63.7,310.3,172.7c74.2,133.9,324.7,226.2,568.9,124.8
	c240.3-99.7,277-247.1,617.3-269.8"/>
<g>
	<polygon class="bcg-sales0" points="241,461 405.8,529.3 370.2,548.6 349.1,624.2 309.5,570.4 275.8,587.9 	"/>
	<polyline class="bcg-sales0" points="366.5,550 241,461 329.8,557.3 347.5,619.7 	"/>
	<line class="bcg-sales1" x1="276.6" y1="587.1" x2="329.9" y2="558.6"/>
	<path class="bcg-sales6" d="M348.2,638.5c0,0-48,76.5-5.8,111.4c42.2,35,140.7-56.6,151.1-89.4c10.3-32.8-45.1-56.4-95.4-1.2
		c-50.3,55.2-62.6,148.5,6.7,168.6c69.3,20.1,139.1-25.6,167.2-59.8c28-34.2,48.1-83.8,21.6-92.3c-26.4-8.4-130.2,35.4-144.7,134.1
		s68.9,138,148.4,110.1s153.8-90.8,173.5-157.4c19.7-66.6-10.9-86-79-49.9c-41.1,21.7-113.2,99.7-129.2,167.7
		c-16.1,68-13.8,159.8,122.1,170.8c135.9,11.2,233.1-103.5,256-140s94.9-156.9,45.9-189.6c-66.1-44.1-166.2,71.7-204.1,190.3
		c-35.6,111.3,13.3,248.8,109,252.6c238.2,9.6,290-339.4,455.8-361c65.1-8.5,122.3-3.7,171.9,8.5"/>
</g>
<g>
	<polygon class="bcg-sales0" points="865.6,1387.6 837.3,1367.1 793.8,1410.7 785.1,1338.9 755.3,1316.3 914.8,1277.1 	"/>
	<polyline class="bcg-sales0" points="795.9,1406.8 820.7,1352.4 914.8,1277.1 788.3,1340.7 	"/>
	<line class="bcg-sales1" x1="820.3" y1="1353.6" x2="865" y2="1386.8"/>
</g>
<polygon class="bcg-sales0" points="891.8,2048.7 732.3,2088.1 762.2,2110.7 770.8,2182.3 814.3,2138.8 842.6,2159.3 "/>
<polyline class="bcg-sales0" points="765.3,2112.3 891.8,2048.7 797.7,2124.1 773,2178.4 "/>
<line class="bcg-sales1" x1="842.1" y1="2158.6" x2="797.4" y2="2125.2"/>
<path class="bcg-sales6" d="M1,1655.5c44.7,86.9,98.9,169.6,204.9,181.4c87.7,9.8,151.2-108.7,134.2-214.9
	c-18.1-113.2-93.1-232.5-159.4-201.5c-49,22.9-0.2,142.5,15.6,178.9s88.3,154.3,213.6,162.9s140-74.6,134.8-138.7
	s-60.1-145-94.5-170.5c-57-42.3-87.4-28.8-78.8,34.5s67.6,130.8,136.1,167.2c68.6,36.4,149.8,12.2,150.3-79.7
	c0.5-91.8-87.9-146.1-113.1-142.1c-25.2,4-13.9,52,6.9,87c20.7,35,77.9,86.3,143.8,77.6s67.6-95.3,29.5-152.5s-91.9-43.4-87-12.1
	s81.8,128.3,125.1,102.3s10.2-102.3,10.2-102.3"/>
<path class="bcg-sales6" d="M-109.1,210.7c44.7,86.9,98.9,169.6,204.9,181.4C183.5,401.9,247,283.4,230,177.2
	C211.9,64,136.9-55.3,70.6-24.3c-49,22.9-0.2,142.5,15.6,178.9s88.3,154.3,213.6,162.9s140-74.6,134.8-138.7s-60.1-145-94.5-170.5
	c-57-42.3-87.4-28.8-78.8,34.5S328.9,173.6,397.4,210c68.6,36.4,149.8,12.2,150.3-79.7c0.5-91.8-87.9-146.1-113.1-142.1
	s-13.9,52,6.9,87c20.7,35,77.9,86.3,143.8,77.6s67.6-95.3,29.5-152.5s-91.9-43.4-87-12.1s81.8,128.3,125.1,102.3
	s10.2-102.3,10.2-102.3"/>
<path class="bcg-sales6" d="M755.5,2200.6c0,0-129.5,97.1-261.4,41.6c-132-55.5-152.8-186-116.4-193.5s135.6,56.6,163.2,150.2
	c27.6,93.6,7.1,156.7-16.5,177.1c-23.6,20.5-146.7,70.7-299.2-62.7s-86.7-342.9-143.8-436.7c-57.2-93.8-85.8-84.8-85.8-84.8"/>
<g>

		<rect x="133.2" y="931.1" transform="matrix(0.9651 -0.262 0.262 0.9651 -247.4504 84.5636)" class="bcg-sales0" width="120.4" height="78.3"/>
	<polygon class="bcg-sales0" points="125,948.2 196.6,982.3 241.2,916.7 	"/>
	<polygon class="bcg-sales0" points="261.7,992.3 209.3,964.2 196.6,982.3 176.6,973.1 145.5,1023.8 	"/>
</g>
<g>

		<rect x="1330.3" y="219.6" transform="matrix(0.4972 -0.8677 0.8677 0.4972 445.8005 1328.9478)" class="bcg-sales0" width="78.3" height="120.4"/>
	<polygon class="bcg-sales0" points="1336.6,216 1363.1,290.8 1441,275.9 	"/>
	<polygon class="bcg-sales0" points="1402,343.9 1384.9,287 1363.1,290.8 1355.4,270.1 1297.6,284 	"/>
</g>
<g>

		<rect x="826" y="531.6" transform="matrix(5.348390e-02 -0.9986 0.9986 5.348390e-02 227.8891 1424.058)" class="bcg-sales0" width="78.3" height="120.4"/>
	<polygon class="bcg-sales0" points="807,549.6 864.3,604.5 927.2,556.1 	"/>
	<polygon class="bcg-sales0" points="923,634.4 882.1,591.3 864.3,604.5 848.1,589.4 802.8,627.9 	"/>
</g>
<g>

		<rect x="1248.2" y="1325.1" transform="matrix(0.7292 -0.6843 0.6843 0.7292 -598.7754 1255.3463)" class="bcg-sales0" width="77" height="118.3"/>
	<polygon class="bcg-sales0" points="1355.3,1401 1277.7,1392.7 1274.4,1314.8 	"/>
	<polygon class="bcg-sales0" points="1299.1,1453.7 1299.3,1395.3 1277.7,1392.7 1276.5,1370.9 1218.2,1367.4 	"/>
	<polygon class="bcg-sales0" points="1142.4,1383.7 1172.5,1312.8 1282.3,1360 1252.3,1430.8 	"/>
	<polygon class="bcg-sales0" points="1173.9,1312.9 1208.7,1382.8 1282.9,1358.8 	"/>
	<polygon class="bcg-sales0" points="1252,1430.8 1228.5,1377.4 1207.7,1383.8 1197.6,1364.4 1143,1384.9 	"/>
</g>
<g>

		<rect x="1067.2" y="2197" transform="matrix(0.2679 -0.9634 0.9634 0.2679 -1373.34 2742.5288)" class="bcg-sales0" width="101.5" height="155.9"/>
	<polygon class="bcg-sales0" points="1206.8,2246.9 1113.7,2290.7 1056.7,2205.2 	"/>
	<polygon class="bcg-sales0" points="1179.5,2344.7 1139.8,2278.8 1113.7,2290.7 1097.4,2267 1029.3,2302.9 	"/>
	<polygon class="bcg-sales0" points="955.3,2373.1 940.6,2272.7 1096.6,2250.7 1111.2,2351.1 	"/>
	<polygon class="bcg-sales0" points="942.2,2271.8 1029.2,2326.7 1096.3,2248.9 	"/>
	<polygon class="bcg-sales0" points="1110.8,2351.2 1047.8,2307.1 1028.7,2328.6 1004.1,2313.6 956.6,2374.1 	"/>
</g>
</svg>
